G04 #@! TF.GenerationSoftware,KiCad,Pcbnew,7.0.10*
G04 #@! TF.CreationDate,2024-01-23T20:12:11+01:00*
G04 #@! TF.ProjectId,UART,55415254-2e6b-4696-9361-645f70636258,rev?*
G04 #@! TF.SameCoordinates,Original*
G04 #@! TF.FileFunction,Copper,L1,Top*
G04 #@! TF.FilePolarity,Positive*
%FSLAX46Y46*%
G04 Gerber Fmt 4.6, Leading zero omitted, Abs format (unit mm)*
G04 Created by KiCad (PCBNEW 7.0.10) date 2024-01-23 20:12:11*
%MOMM*%
%LPD*%
G01*
G04 APERTURE LIST*
G04 Aperture macros list*
%AMRoundRect*
0 Rectangle with rounded corners*
0 $1 Rounding radius*
0 $2 $3 $4 $5 $6 $7 $8 $9 X,Y pos of 4 corners*
0 Add a 4 corners polygon primitive as box body*
4,1,4,$2,$3,$4,$5,$6,$7,$8,$9,$2,$3,0*
0 Add four circle primitives for the rounded corners*
1,1,$1+$1,$2,$3*
1,1,$1+$1,$4,$5*
1,1,$1+$1,$6,$7*
1,1,$1+$1,$8,$9*
0 Add four rect primitives between the rounded corners*
20,1,$1+$1,$2,$3,$4,$5,0*
20,1,$1+$1,$4,$5,$6,$7,0*
20,1,$1+$1,$6,$7,$8,$9,0*
20,1,$1+$1,$8,$9,$2,$3,0*%
%AMFreePoly0*
4,1,19,0.550000,-0.750000,0.000000,-0.750000,0.000000,-0.744911,-0.071157,-0.744911,-0.207708,-0.704816,-0.327430,-0.627875,-0.420627,-0.520320,-0.479746,-0.390866,-0.500000,-0.250000,-0.500000,0.250000,-0.479746,0.390866,-0.420627,0.520320,-0.327430,0.627875,-0.207708,0.704816,-0.071157,0.744911,0.000000,0.744911,0.000000,0.750000,0.550000,0.750000,0.550000,-0.750000,0.550000,-0.750000,
$1*%
%AMFreePoly1*
4,1,19,0.000000,0.744911,0.071157,0.744911,0.207708,0.704816,0.327430,0.627875,0.420627,0.520320,0.479746,0.390866,0.500000,0.250000,0.500000,-0.250000,0.479746,-0.390866,0.420627,-0.520320,0.327430,-0.627875,0.207708,-0.704816,0.071157,-0.744911,0.000000,-0.744911,0.000000,-0.750000,-0.550000,-0.750000,-0.550000,0.750000,0.000000,0.750000,0.000000,0.744911,0.000000,0.744911,
$1*%
%AMFreePoly2*
4,1,19,0.500000,-0.750000,0.000000,-0.750000,0.000000,-0.744911,-0.071157,-0.744911,-0.207708,-0.704816,-0.327430,-0.627875,-0.420627,-0.520320,-0.479746,-0.390866,-0.500000,-0.250000,-0.500000,0.250000,-0.479746,0.390866,-0.420627,0.520320,-0.327430,0.627875,-0.207708,0.704816,-0.071157,0.744911,0.000000,0.744911,0.000000,0.750000,0.500000,0.750000,0.500000,-0.750000,0.500000,-0.750000,
$1*%
%AMFreePoly3*
4,1,19,0.000000,0.744911,0.071157,0.744911,0.207708,0.704816,0.327430,0.627875,0.420627,0.520320,0.479746,0.390866,0.500000,0.250000,0.500000,-0.250000,0.479746,-0.390866,0.420627,-0.520320,0.327430,-0.627875,0.207708,-0.704816,0.071157,-0.744911,0.000000,-0.744911,0.000000,-0.750000,-0.500000,-0.750000,-0.500000,0.750000,0.000000,0.750000,0.000000,0.744911,0.000000,0.744911,
$1*%
G04 Aperture macros list end*
G04 #@! TA.AperFunction,SMDPad,CuDef*
%ADD10RoundRect,0.250000X-0.337500X-0.475000X0.337500X-0.475000X0.337500X0.475000X-0.337500X0.475000X0*%
G04 #@! TD*
G04 #@! TA.AperFunction,SMDPad,CuDef*
%ADD11RoundRect,0.250000X-0.475000X0.337500X-0.475000X-0.337500X0.475000X-0.337500X0.475000X0.337500X0*%
G04 #@! TD*
G04 #@! TA.AperFunction,ComponentPad*
%ADD12R,1.700000X1.700000*%
G04 #@! TD*
G04 #@! TA.AperFunction,ComponentPad*
%ADD13O,1.700000X1.700000*%
G04 #@! TD*
G04 #@! TA.AperFunction,SMDPad,CuDef*
%ADD14RoundRect,0.150000X0.825000X0.150000X-0.825000X0.150000X-0.825000X-0.150000X0.825000X-0.150000X0*%
G04 #@! TD*
G04 #@! TA.AperFunction,SMDPad,CuDef*
%ADD15FreePoly0,270.000000*%
G04 #@! TD*
G04 #@! TA.AperFunction,SMDPad,CuDef*
%ADD16R,1.500000X1.000000*%
G04 #@! TD*
G04 #@! TA.AperFunction,SMDPad,CuDef*
%ADD17FreePoly1,270.000000*%
G04 #@! TD*
G04 #@! TA.AperFunction,SMDPad,CuDef*
%ADD18FreePoly2,90.000000*%
G04 #@! TD*
G04 #@! TA.AperFunction,SMDPad,CuDef*
%ADD19FreePoly3,90.000000*%
G04 #@! TD*
G04 #@! TA.AperFunction,SMDPad,CuDef*
%ADD20RoundRect,0.250000X0.337500X0.475000X-0.337500X0.475000X-0.337500X-0.475000X0.337500X-0.475000X0*%
G04 #@! TD*
G04 #@! TA.AperFunction,SMDPad,CuDef*
%ADD21RoundRect,0.250000X0.475000X-0.337500X0.475000X0.337500X-0.475000X0.337500X-0.475000X-0.337500X0*%
G04 #@! TD*
G04 #@! TA.AperFunction,ComponentPad*
%ADD22C,1.500000*%
G04 #@! TD*
G04 #@! TA.AperFunction,SMDPad,CuDef*
%ADD23RoundRect,0.250000X-0.350000X-0.450000X0.350000X-0.450000X0.350000X0.450000X-0.350000X0.450000X0*%
G04 #@! TD*
G04 #@! TA.AperFunction,SMDPad,CuDef*
%ADD24RoundRect,0.150000X0.725000X0.150000X-0.725000X0.150000X-0.725000X-0.150000X0.725000X-0.150000X0*%
G04 #@! TD*
G04 #@! TA.AperFunction,SMDPad,CuDef*
%ADD25R,1.500000X0.600000*%
G04 #@! TD*
G04 #@! TA.AperFunction,SMDPad,CuDef*
%ADD26RoundRect,0.250000X-0.450000X0.325000X-0.450000X-0.325000X0.450000X-0.325000X0.450000X0.325000X0*%
G04 #@! TD*
G04 #@! TA.AperFunction,ComponentPad*
%ADD27C,4.000000*%
G04 #@! TD*
G04 #@! TA.AperFunction,ComponentPad*
%ADD28R,1.600000X1.600000*%
G04 #@! TD*
G04 #@! TA.AperFunction,ComponentPad*
%ADD29C,1.600000*%
G04 #@! TD*
G04 #@! TA.AperFunction,SMDPad,CuDef*
%ADD30RoundRect,0.150000X0.875000X0.150000X-0.875000X0.150000X-0.875000X-0.150000X0.875000X-0.150000X0*%
G04 #@! TD*
G04 #@! TA.AperFunction,SMDPad,CuDef*
%ADD31RoundRect,0.150000X0.150000X-0.725000X0.150000X0.725000X-0.150000X0.725000X-0.150000X-0.725000X0*%
G04 #@! TD*
G04 #@! TA.AperFunction,SMDPad,CuDef*
%ADD32RoundRect,0.250000X-0.412500X-0.650000X0.412500X-0.650000X0.412500X0.650000X-0.412500X0.650000X0*%
G04 #@! TD*
G04 #@! TA.AperFunction,SMDPad,CuDef*
%ADD33FreePoly2,270.000000*%
G04 #@! TD*
G04 #@! TA.AperFunction,SMDPad,CuDef*
%ADD34FreePoly3,270.000000*%
G04 #@! TD*
G04 #@! TA.AperFunction,SMDPad,CuDef*
%ADD35RoundRect,0.100000X0.637500X0.100000X-0.637500X0.100000X-0.637500X-0.100000X0.637500X-0.100000X0*%
G04 #@! TD*
G04 #@! TA.AperFunction,SMDPad,CuDef*
%ADD36RoundRect,0.250000X-0.450000X0.350000X-0.450000X-0.350000X0.450000X-0.350000X0.450000X0.350000X0*%
G04 #@! TD*
G04 #@! TA.AperFunction,SMDPad,CuDef*
%ADD37RoundRect,0.250000X0.350000X0.450000X-0.350000X0.450000X-0.350000X-0.450000X0.350000X-0.450000X0*%
G04 #@! TD*
G04 #@! TA.AperFunction,SMDPad,CuDef*
%ADD38R,0.400000X1.200000*%
G04 #@! TD*
G04 #@! TA.AperFunction,SMDPad,CuDef*
%ADD39R,1.150000X0.600000*%
G04 #@! TD*
G04 #@! TA.AperFunction,SMDPad,CuDef*
%ADD40R,1.150000X0.300000*%
G04 #@! TD*
G04 #@! TA.AperFunction,ComponentPad*
%ADD41O,2.100000X1.000000*%
G04 #@! TD*
G04 #@! TA.AperFunction,ComponentPad*
%ADD42RoundRect,0.250000X0.650000X-0.250000X0.650000X0.250000X-0.650000X0.250000X-0.650000X-0.250000X0*%
G04 #@! TD*
G04 #@! TA.AperFunction,ViaPad*
%ADD43C,0.600000*%
G04 #@! TD*
G04 #@! TA.AperFunction,ViaPad*
%ADD44C,0.900000*%
G04 #@! TD*
G04 #@! TA.AperFunction,Conductor*
%ADD45C,0.127000*%
G04 #@! TD*
G04 #@! TA.AperFunction,Conductor*
%ADD46C,1.500000*%
G04 #@! TD*
G04 #@! TA.AperFunction,Conductor*
%ADD47C,0.400000*%
G04 #@! TD*
G04 #@! TA.AperFunction,Conductor*
%ADD48C,0.406400*%
G04 #@! TD*
G04 #@! TA.AperFunction,Conductor*
%ADD49C,0.500000*%
G04 #@! TD*
G04 APERTURE END LIST*
D10*
X43391000Y-65786000D03*
X45466000Y-65786000D03*
D11*
X105029000Y-30458500D03*
X105029000Y-32533500D03*
D12*
X60960000Y-96520000D03*
D13*
X60960000Y-93980000D03*
X63500000Y-96520000D03*
X63500000Y-93980000D03*
X66040000Y-96520000D03*
X66040000Y-93980000D03*
X68580000Y-96520000D03*
X68580000Y-93980000D03*
X71120000Y-96520000D03*
X71120000Y-93980000D03*
X73660000Y-96520000D03*
X73660000Y-93980000D03*
X76200000Y-96520000D03*
X76200000Y-93980000D03*
X78740000Y-96520000D03*
X78740000Y-93980000D03*
X81280000Y-96520000D03*
X81280000Y-93980000D03*
D14*
X69785000Y-59690000D03*
X69785000Y-58420000D03*
X69785000Y-57150000D03*
X69785000Y-55880000D03*
X69785000Y-54610000D03*
X69785000Y-53340000D03*
X69785000Y-52070000D03*
X64835000Y-52070000D03*
X64835000Y-53340000D03*
X64835000Y-54610000D03*
X64835000Y-55880000D03*
X64835000Y-57150000D03*
X64835000Y-58420000D03*
X64835000Y-59690000D03*
D15*
X113665000Y-85695000D03*
D16*
X113665000Y-86995000D03*
D17*
X113665000Y-88295000D03*
D10*
X86571000Y-85090000D03*
X88646000Y-85090000D03*
D18*
X113665000Y-93360000D03*
D19*
X113665000Y-92060000D03*
D10*
X96731000Y-85090000D03*
X98806000Y-85090000D03*
X56134000Y-42545000D03*
X58209000Y-42545000D03*
D12*
X93980000Y-40640000D03*
D13*
X93980000Y-38100000D03*
X93980000Y-35560000D03*
D20*
X100097500Y-88646000D03*
X98022500Y-88646000D03*
D10*
X66251000Y-85090000D03*
X68326000Y-85090000D03*
D21*
X93345000Y-95398500D03*
X93345000Y-93323500D03*
D22*
X40005000Y-95414000D03*
X40005000Y-90534000D03*
D10*
X86592500Y-64135000D03*
X88667500Y-64135000D03*
D23*
X111395000Y-38354000D03*
X113395000Y-38354000D03*
D24*
X69885000Y-82550000D03*
X69885000Y-81280000D03*
X69885000Y-80010000D03*
X69885000Y-78740000D03*
X69885000Y-77470000D03*
X69885000Y-76200000D03*
X69885000Y-74930000D03*
X69885000Y-73660000D03*
X64735000Y-73660000D03*
X64735000Y-74930000D03*
X64735000Y-76200000D03*
X64735000Y-77470000D03*
X64735000Y-78740000D03*
X64735000Y-80010000D03*
X64735000Y-81280000D03*
X64735000Y-82550000D03*
D14*
X79945000Y-59690000D03*
X79945000Y-58420000D03*
X79945000Y-57150000D03*
X79945000Y-55880000D03*
X79945000Y-54610000D03*
X79945000Y-53340000D03*
X79945000Y-52070000D03*
X74995000Y-52070000D03*
X74995000Y-53340000D03*
X74995000Y-54610000D03*
X74995000Y-55880000D03*
X74995000Y-57150000D03*
X74995000Y-58420000D03*
X74995000Y-59690000D03*
D24*
X59725000Y-82550000D03*
X59725000Y-81280000D03*
X59725000Y-80010000D03*
X59725000Y-78740000D03*
X59725000Y-77470000D03*
X59725000Y-76200000D03*
X59725000Y-74930000D03*
X59725000Y-73660000D03*
X54575000Y-73660000D03*
X54575000Y-74930000D03*
X54575000Y-76200000D03*
X54575000Y-77470000D03*
X54575000Y-78740000D03*
X54575000Y-80010000D03*
X54575000Y-81280000D03*
X54575000Y-82550000D03*
D23*
X111379000Y-36449000D03*
X113379000Y-36449000D03*
D10*
X56599000Y-85090000D03*
X58674000Y-85090000D03*
D14*
X90105000Y-59690000D03*
X90105000Y-58420000D03*
X90105000Y-57150000D03*
X90105000Y-55880000D03*
X90105000Y-54610000D03*
X90105000Y-53340000D03*
X90105000Y-52070000D03*
X85155000Y-52070000D03*
X85155000Y-53340000D03*
X85155000Y-54610000D03*
X85155000Y-55880000D03*
X85155000Y-57150000D03*
X85155000Y-58420000D03*
X85155000Y-59690000D03*
D15*
X113665000Y-72995000D03*
D16*
X113665000Y-74295000D03*
D17*
X113665000Y-75595000D03*
D25*
X70854000Y-40005000D03*
X70854000Y-38735000D03*
X70854000Y-37465000D03*
X70854000Y-36195000D03*
X70854000Y-34925000D03*
X70854000Y-33655000D03*
X70854000Y-32385000D03*
X70854000Y-31115000D03*
X63754000Y-31115000D03*
X63754000Y-32385000D03*
X63754000Y-33655000D03*
X63754000Y-34925000D03*
X63754000Y-36195000D03*
X63754000Y-37465000D03*
X63754000Y-38735000D03*
X63754000Y-40005000D03*
D14*
X59619000Y-39370000D03*
X59619000Y-38100000D03*
X59619000Y-36830000D03*
X59619000Y-35560000D03*
X59619000Y-34290000D03*
X59619000Y-33020000D03*
X59619000Y-31750000D03*
X54669000Y-31750000D03*
X54669000Y-33020000D03*
X54669000Y-34290000D03*
X54669000Y-35560000D03*
X54669000Y-36830000D03*
X54669000Y-38100000D03*
X54669000Y-39370000D03*
D10*
X66272500Y-43180000D03*
X68347500Y-43180000D03*
D23*
X111395000Y-34544000D03*
X113395000Y-34544000D03*
D18*
X113665000Y-79404999D03*
D19*
X113665000Y-78104999D03*
D10*
X43391000Y-44323000D03*
X45466000Y-44323000D03*
D26*
X26797000Y-26661000D03*
X26797000Y-28711000D03*
D10*
X56112500Y-64135000D03*
X58187500Y-64135000D03*
X66294000Y-64135000D03*
X68369000Y-64135000D03*
D21*
X35560000Y-96287500D03*
X35560000Y-94212500D03*
D27*
X119045000Y-93145000D03*
X119045000Y-68145000D03*
D28*
X118745000Y-75105000D03*
D29*
X118745000Y-77875000D03*
X118745000Y-80645000D03*
X118745000Y-83415000D03*
X118745000Y-86185000D03*
X121585000Y-76490000D03*
X121585000Y-79260000D03*
X121585000Y-82030000D03*
X121585000Y-84800000D03*
D12*
X50800000Y-48895000D03*
D13*
X53340000Y-48895000D03*
X55880000Y-48895000D03*
X58420000Y-48895000D03*
X60960000Y-48895000D03*
X63500000Y-48895000D03*
X66040000Y-48895000D03*
X68580000Y-48895000D03*
D11*
X46228000Y-92434500D03*
X46228000Y-94509500D03*
D14*
X90105000Y-81915000D03*
X90105000Y-80645000D03*
X90105000Y-79375000D03*
X90105000Y-78105000D03*
X90105000Y-76835000D03*
X90105000Y-75565000D03*
X90105000Y-74295000D03*
X85155000Y-74295000D03*
X85155000Y-75565000D03*
X85155000Y-76835000D03*
X85155000Y-78105000D03*
X85155000Y-79375000D03*
X85155000Y-80645000D03*
X85155000Y-81915000D03*
D30*
X49100000Y-84455000D03*
X49100000Y-83185000D03*
X49100000Y-81915000D03*
X49100000Y-80645000D03*
X49100000Y-79375000D03*
X49100000Y-78105000D03*
X49100000Y-76835000D03*
X49100000Y-75565000D03*
X49100000Y-74295000D03*
X49100000Y-73025000D03*
X39800000Y-73025000D03*
X39800000Y-74295000D03*
X39800000Y-75565000D03*
X39800000Y-76835000D03*
X39800000Y-78105000D03*
X39800000Y-79375000D03*
X39800000Y-80645000D03*
X39800000Y-81915000D03*
X39800000Y-83185000D03*
X39800000Y-84455000D03*
D14*
X79945000Y-81915000D03*
X79945000Y-80645000D03*
X79945000Y-79375000D03*
X79945000Y-78105000D03*
X79945000Y-76835000D03*
X79945000Y-75565000D03*
X79945000Y-74295000D03*
X74995000Y-74295000D03*
X74995000Y-75565000D03*
X74995000Y-76835000D03*
X74995000Y-78105000D03*
X74995000Y-79375000D03*
X74995000Y-80645000D03*
X74995000Y-81915000D03*
D30*
X49100000Y-41275000D03*
X49100000Y-40005000D03*
X49100000Y-38735000D03*
X49100000Y-37465000D03*
X49100000Y-36195000D03*
X49100000Y-34925000D03*
X49100000Y-33655000D03*
X49100000Y-32385000D03*
X49100000Y-31115000D03*
X49100000Y-29845000D03*
X39800000Y-29845000D03*
X39800000Y-31115000D03*
X39800000Y-32385000D03*
X39800000Y-33655000D03*
X39800000Y-34925000D03*
X39800000Y-36195000D03*
X39800000Y-37465000D03*
X39800000Y-38735000D03*
X39800000Y-40005000D03*
X39800000Y-41275000D03*
D31*
X48260000Y-95920000D03*
X49530000Y-95920000D03*
X50800000Y-95920000D03*
X52070000Y-95920000D03*
X53340000Y-95920000D03*
X54610000Y-95920000D03*
X55880000Y-95920000D03*
X57150000Y-95920000D03*
X57150000Y-90770000D03*
X55880000Y-90770000D03*
X54610000Y-90770000D03*
X53340000Y-90770000D03*
X52070000Y-90770000D03*
X50800000Y-90770000D03*
X49530000Y-90770000D03*
X48260000Y-90770000D03*
D10*
X76411000Y-85090000D03*
X78486000Y-85090000D03*
D32*
X28028500Y-97917000D03*
X31153500Y-97917000D03*
D33*
X113665000Y-68565000D03*
D34*
X113665000Y-69865000D03*
D30*
X49100000Y-62865000D03*
X49100000Y-61595000D03*
X49100000Y-60325000D03*
X49100000Y-59055000D03*
X49100000Y-57785000D03*
X49100000Y-56515000D03*
X49100000Y-55245000D03*
X49100000Y-53975000D03*
X49100000Y-52705000D03*
X49100000Y-51435000D03*
X39800000Y-51435000D03*
X39800000Y-52705000D03*
X39800000Y-53975000D03*
X39800000Y-55245000D03*
X39800000Y-56515000D03*
X39800000Y-57785000D03*
X39800000Y-59055000D03*
X39800000Y-60325000D03*
X39800000Y-61595000D03*
X39800000Y-62865000D03*
D21*
X105410000Y-91969500D03*
X105410000Y-89894500D03*
D11*
X35560000Y-89640500D03*
X35560000Y-91715500D03*
D10*
X43391000Y-87249000D03*
X45466000Y-87249000D03*
D23*
X49165000Y-87646000D03*
X51165000Y-87646000D03*
D11*
X116205000Y-37316500D03*
X116205000Y-39391500D03*
X31242000Y-26648500D03*
X31242000Y-28723500D03*
D35*
X101922500Y-94985000D03*
X101922500Y-94335000D03*
X101922500Y-93685000D03*
X101922500Y-93035000D03*
X101922500Y-92385000D03*
X101922500Y-91735000D03*
X101922500Y-91085000D03*
X101922500Y-90435000D03*
X96197500Y-90435000D03*
X96197500Y-91085000D03*
X96197500Y-91735000D03*
X96197500Y-92385000D03*
X96197500Y-93035000D03*
X96197500Y-93685000D03*
X96197500Y-94335000D03*
X96197500Y-94985000D03*
D11*
X105410000Y-93704500D03*
X105410000Y-95779500D03*
D20*
X100097500Y-96774000D03*
X98022500Y-96774000D03*
D21*
X107061000Y-32533500D03*
X107061000Y-30458500D03*
D36*
X28956000Y-26686000D03*
X28956000Y-28686000D03*
D12*
X50800000Y-69850000D03*
D13*
X53340000Y-69850000D03*
X55880000Y-69850000D03*
X58420000Y-69850000D03*
X60960000Y-69850000D03*
X63500000Y-69850000D03*
X66040000Y-69850000D03*
X68580000Y-69850000D03*
D37*
X55610000Y-87630000D03*
X53610000Y-87630000D03*
X113395000Y-32639000D03*
X111395000Y-32639000D03*
D33*
X113665000Y-81914999D03*
D34*
X113665000Y-83214999D03*
D38*
X100647500Y-39684000D03*
X101282500Y-39684000D03*
X101917500Y-39684000D03*
X102552500Y-39684000D03*
X103187500Y-39684000D03*
X103822500Y-39684000D03*
X104457500Y-39684000D03*
X105092500Y-39684000D03*
X105727500Y-39684000D03*
X106362500Y-39684000D03*
X106362500Y-34484000D03*
X105727500Y-34484000D03*
X105092500Y-34484000D03*
X104457500Y-34484000D03*
X103822500Y-34484000D03*
X103187500Y-34484000D03*
X102552500Y-34484000D03*
X101917500Y-34484000D03*
X101282500Y-34484000D03*
X100647500Y-34484000D03*
D21*
X116205000Y-33676500D03*
X116205000Y-31601500D03*
D14*
X100265000Y-81915000D03*
X100265000Y-80645000D03*
X100265000Y-79375000D03*
X100265000Y-78105000D03*
X100265000Y-76835000D03*
X100265000Y-75565000D03*
X100265000Y-74295000D03*
X95315000Y-74295000D03*
X95315000Y-75565000D03*
X95315000Y-76835000D03*
X95315000Y-78105000D03*
X95315000Y-79375000D03*
X95315000Y-80645000D03*
X95315000Y-81915000D03*
D39*
X119705000Y-39520000D03*
X119705000Y-38720000D03*
D40*
X119705000Y-37570000D03*
X119705000Y-36570000D03*
X119705000Y-36070000D03*
X119705000Y-35070000D03*
D39*
X119705000Y-33120000D03*
X119705000Y-33920000D03*
D40*
X119705000Y-34570000D03*
X119705000Y-35570000D03*
X119705000Y-37070000D03*
X119705000Y-38070000D03*
D41*
X120280000Y-40640000D03*
X120280000Y-32000000D03*
D42*
X124460000Y-40640000D03*
X124460000Y-32000000D03*
D24*
X59725000Y-60960000D03*
X59725000Y-59690000D03*
X59725000Y-58420000D03*
X59725000Y-57150000D03*
X59725000Y-55880000D03*
X59725000Y-54610000D03*
X59725000Y-53340000D03*
X59725000Y-52070000D03*
X54575000Y-52070000D03*
X54575000Y-53340000D03*
X54575000Y-54610000D03*
X54575000Y-55880000D03*
X54575000Y-57150000D03*
X54575000Y-58420000D03*
X54575000Y-59690000D03*
X54575000Y-60960000D03*
D10*
X76432500Y-64135000D03*
X78507500Y-64135000D03*
D12*
X29845000Y-33020000D03*
X27305000Y-33020000D03*
X29845000Y-35560000D03*
X27305000Y-35560000D03*
X29845000Y-38100000D03*
X27305000Y-38100000D03*
X29845000Y-40640000D03*
X27305000Y-40640000D03*
X29845000Y-43180000D03*
X27305000Y-43180000D03*
X29845000Y-45720000D03*
X27305000Y-45720000D03*
X29845000Y-48260000D03*
X27305000Y-48260000D03*
X29845000Y-50800000D03*
X27305000Y-50800000D03*
X29845000Y-53340000D03*
X27305000Y-53340000D03*
X29845000Y-55880000D03*
X27305000Y-55880000D03*
X29845000Y-58420000D03*
X27305000Y-58420000D03*
X29845000Y-60960000D03*
X27305000Y-60960000D03*
X29845000Y-63500000D03*
X27305000Y-63500000D03*
X29845000Y-66040000D03*
X27305000Y-66040000D03*
X29845000Y-68580000D03*
X27305000Y-68580000D03*
X29845000Y-71120000D03*
X27305000Y-71120000D03*
X29845000Y-73660000D03*
X27305000Y-73660000D03*
X29845000Y-76200000D03*
X27305000Y-76200000D03*
X29845000Y-78740000D03*
X27305000Y-78740000D03*
X29845000Y-81280000D03*
X27305000Y-81280000D03*
X29845000Y-83820000D03*
X27305000Y-83820000D03*
X29845000Y-86360000D03*
X27305000Y-86360000D03*
X29845000Y-88900000D03*
X27305000Y-88900000D03*
X29845000Y-91440000D03*
X27305000Y-91440000D03*
X29845000Y-93980000D03*
X27305000Y-93980000D03*
X123190000Y-44450000D03*
D13*
X123190000Y-46990000D03*
X123190000Y-49530000D03*
X123190000Y-52070000D03*
X123190000Y-54610000D03*
X123190000Y-57150000D03*
X123190000Y-59690000D03*
X123190000Y-62230000D03*
D43*
X66040000Y-83820000D03*
X41148000Y-65786000D03*
X96774000Y-81915000D03*
X76454000Y-28702000D03*
X66167000Y-59690000D03*
X53086000Y-82550000D03*
X66167000Y-28702000D03*
X47498000Y-90805000D03*
X53086000Y-42545000D03*
X64770000Y-98552000D03*
X53086000Y-39369999D03*
X44577000Y-98425000D03*
X86614000Y-28702000D03*
X66040000Y-82550000D03*
X76454000Y-81915000D03*
X86614000Y-98425000D03*
X66167000Y-40005000D03*
X76454000Y-59690000D03*
X86614000Y-81915000D03*
X53975000Y-98552000D03*
X52959000Y-64135000D03*
X86592500Y-65405000D03*
X86614000Y-59690000D03*
X41148000Y-44323000D03*
X53086000Y-60960000D03*
X41148000Y-62865000D03*
X76454000Y-80645000D03*
X41148000Y-84455000D03*
X41148000Y-28448000D03*
X76454000Y-65278000D03*
X41148000Y-41275000D03*
X53086000Y-28575000D03*
X53967000Y-85090000D03*
X41148000Y-86360000D03*
X74930000Y-98425000D03*
X66167000Y-41910000D03*
X64770000Y-64135000D03*
X66040000Y-79375000D03*
X106045000Y-31496000D03*
X78486000Y-58420000D03*
X61214000Y-85090000D03*
X103187500Y-28638500D03*
X69215000Y-42037000D03*
X47625000Y-29845000D03*
X47625000Y-44323000D03*
X63373000Y-81280000D03*
X88646000Y-74295000D03*
X98044000Y-95631000D03*
X94869000Y-93685000D03*
X68580000Y-73660000D03*
X88646000Y-52070000D03*
X98679000Y-74295000D03*
X56007000Y-81280000D03*
X61214000Y-52070000D03*
X58413999Y-31750000D03*
X98679000Y-83693000D03*
X68326000Y-52070000D03*
X47625000Y-65786000D03*
X78486000Y-52070000D03*
X69850000Y-64135000D03*
X88646000Y-83947000D03*
X46228000Y-98552000D03*
X68580000Y-83820000D03*
X47625000Y-73025000D03*
X61214000Y-64135000D03*
X101981000Y-97282000D03*
X61214000Y-76200000D03*
X61214000Y-57785000D03*
X53340000Y-89662000D03*
X78486000Y-65278000D03*
X57150000Y-97155000D03*
X78486000Y-74295000D03*
D44*
X30099000Y-27695000D03*
D43*
X47625000Y-84455000D03*
X103124000Y-31496000D03*
X47625000Y-86360000D03*
X78486000Y-83566000D03*
X98044000Y-89916000D03*
X61214000Y-42545000D03*
X88667500Y-65405000D03*
X47625000Y-51435000D03*
X61214000Y-73660000D03*
X61214000Y-40513000D03*
X37846000Y-51435000D03*
X37338000Y-52705000D03*
X38354000Y-52705000D03*
X38354000Y-53975000D03*
X36830000Y-53975000D03*
X38354000Y-55245000D03*
X36322000Y-55245000D03*
X35814000Y-56515000D03*
X38336500Y-56515000D03*
X38354000Y-57785000D03*
X35306000Y-57785000D03*
X34798000Y-59055000D03*
X38354000Y-59055000D03*
X38354000Y-60325000D03*
X34290000Y-60325000D03*
X72390000Y-65913000D03*
X65278000Y-37465000D03*
X64008000Y-65913000D03*
X72390000Y-75057000D03*
X115570000Y-74295000D03*
X115570000Y-79375000D03*
X94742000Y-72009000D03*
X102616000Y-42545000D03*
X71755000Y-57912000D03*
X81407000Y-48895000D03*
X81407000Y-55880000D03*
X71755000Y-48895000D03*
X87630000Y-86360000D03*
X87630000Y-96520000D03*
X87630000Y-59690000D03*
X55880000Y-97155000D03*
X49530000Y-93218000D03*
X52578000Y-93218000D03*
X48260000Y-92710000D03*
X53340000Y-92710000D03*
X52578000Y-92202000D03*
X48895000Y-92202000D03*
X101981000Y-35687000D03*
X104394000Y-35687000D03*
X93980000Y-73025000D03*
X100647500Y-35560000D03*
X111125000Y-85725000D03*
X115443000Y-85725000D03*
X83693000Y-74295000D03*
X83693000Y-79375000D03*
X81915000Y-74168000D03*
X81915000Y-81915000D03*
X52070000Y-36830000D03*
X52070000Y-34290000D03*
X44450000Y-61595000D03*
X45720000Y-61595000D03*
X50800000Y-75565000D03*
X57150000Y-76835000D03*
X56007000Y-76835000D03*
X55770500Y-78105000D03*
X44958000Y-79375000D03*
X44958000Y-73152000D03*
X44450000Y-73787000D03*
X44450000Y-80645000D03*
X43942000Y-81915000D03*
X43942000Y-73152000D03*
X67310000Y-76200000D03*
X67310000Y-83312000D03*
X57277000Y-73787000D03*
X57277000Y-74930000D03*
X82804000Y-76200000D03*
X82804000Y-62230000D03*
X73660000Y-62865000D03*
X73660000Y-58420000D03*
X82042000Y-61595000D03*
X83566000Y-61595000D03*
X62738000Y-60452000D03*
X62738000Y-55245000D03*
X72390000Y-49657000D03*
X72390000Y-54610000D03*
X83802500Y-55880000D03*
X82169000Y-57785000D03*
X68580000Y-44958000D03*
X66802000Y-40767000D03*
X77470000Y-54610000D03*
X77470000Y-59690000D03*
X73279000Y-66802000D03*
X73279000Y-78105000D03*
D45*
X79945000Y-79375000D02*
X78486000Y-79375000D01*
D46*
X26400000Y-98044000D02*
X26400000Y-98695000D01*
D47*
X86571000Y-81958000D02*
X86614000Y-81915000D01*
X76411000Y-81958000D02*
X76454000Y-81915000D01*
X54668999Y-39369999D02*
X53086000Y-39369999D01*
X47498000Y-90805000D02*
X48225000Y-90805000D01*
D45*
X78486000Y-79375000D02*
X78486000Y-80645000D01*
X76454000Y-79375000D02*
X76454000Y-80645000D01*
X79945000Y-80645000D02*
X78486000Y-80645000D01*
D47*
X94880000Y-94985000D02*
X94869000Y-94996000D01*
X44577000Y-98425000D02*
X44577000Y-99568000D01*
X53975000Y-98552000D02*
X53975000Y-100203000D01*
X56112500Y-64135000D02*
X52959000Y-64135000D01*
X66251000Y-85090000D02*
X66251000Y-84031000D01*
D45*
X63500000Y-78740000D02*
X63500000Y-79375000D01*
D47*
X95315000Y-81915000D02*
X96774000Y-81915000D01*
X76454000Y-28702000D02*
X76454000Y-27178000D01*
D48*
X31242000Y-26500000D02*
X32723000Y-26500000D01*
D45*
X64735000Y-78740000D02*
X63500000Y-78740000D01*
X63500000Y-79375000D02*
X63500000Y-80010000D01*
X64735000Y-77470000D02*
X63500000Y-77470000D01*
D47*
X66272500Y-42015500D02*
X66167000Y-41910000D01*
X39800000Y-84455000D02*
X41148000Y-84455000D01*
D46*
X27305000Y-93980000D02*
X26400000Y-94885000D01*
D45*
X69885000Y-80010000D02*
X71120000Y-80010000D01*
D47*
X86571000Y-83185000D02*
X96731000Y-83185000D01*
D45*
X71120000Y-78740000D02*
X71120000Y-77470000D01*
D47*
X66272500Y-43180000D02*
X66272500Y-42015500D01*
X41148000Y-41275000D02*
X39800000Y-41275000D01*
X86592500Y-65405000D02*
X86592500Y-64135000D01*
X94869000Y-94996000D02*
X94869000Y-99695000D01*
X85155000Y-59690000D02*
X86614000Y-59690000D01*
X64770000Y-98552000D02*
X64770000Y-100076000D01*
D45*
X74995000Y-79375000D02*
X76454000Y-79375000D01*
D47*
X53086000Y-60960000D02*
X54575000Y-60960000D01*
X46228000Y-92434500D02*
X46228000Y-90805000D01*
X53086000Y-28575000D02*
X53086000Y-27305000D01*
X41148000Y-28448000D02*
X41148000Y-27305000D01*
X94869000Y-94335000D02*
X94869000Y-94996000D01*
X86614000Y-98425000D02*
X86614000Y-99949000D01*
X96731000Y-85090000D02*
X96731000Y-83185000D01*
X86614000Y-27305000D02*
X86741000Y-27178000D01*
D45*
X29031000Y-26500000D02*
X28956000Y-26575000D01*
X31242000Y-26500000D02*
X29031000Y-26500000D01*
D47*
X86571000Y-85090000D02*
X86571000Y-83185000D01*
D45*
X63500000Y-76200000D02*
X63500000Y-77470000D01*
D47*
X66294000Y-64135000D02*
X64770000Y-64135000D01*
X56599000Y-85090000D02*
X53967000Y-85090000D01*
X74995000Y-81915000D02*
X76454000Y-81915000D01*
X43391000Y-44323000D02*
X41148000Y-44323000D01*
X74930000Y-98425000D02*
X74930000Y-100076000D01*
D45*
X66040000Y-79375000D02*
X63500000Y-79375000D01*
D47*
X94869000Y-95377000D02*
X94847500Y-95398500D01*
X96731000Y-83185000D02*
X96731000Y-81958000D01*
X43391000Y-87249000D02*
X42037000Y-87249000D01*
X85155000Y-81915000D02*
X86614000Y-81915000D01*
X42037000Y-87249000D02*
X41148000Y-86360000D01*
D45*
X64735000Y-74930000D02*
X63500000Y-74930000D01*
D47*
X47498000Y-90805000D02*
X47498000Y-100203000D01*
D45*
X71120000Y-80010000D02*
X71120000Y-79375000D01*
X74995000Y-76835000D02*
X76454000Y-76835000D01*
D46*
X26400000Y-98695000D02*
X26400000Y-100441000D01*
D47*
X86571000Y-83185000D02*
X86571000Y-81958000D01*
X41148000Y-62865000D02*
X39800000Y-62865000D01*
X43391000Y-65786000D02*
X41148000Y-65786000D01*
D45*
X64735000Y-76200000D02*
X63500000Y-76200000D01*
X71120000Y-77470000D02*
X69885000Y-77470000D01*
X76454000Y-76835000D02*
X76454000Y-79375000D01*
X71120000Y-79375000D02*
X66040000Y-79375000D01*
D47*
X48225000Y-90805000D02*
X48260000Y-90770000D01*
X64735000Y-82550000D02*
X66040000Y-82550000D01*
X86614000Y-28702000D02*
X86614000Y-27305000D01*
D45*
X96197500Y-94985000D02*
X94880000Y-94985000D01*
D47*
X96731000Y-81958000D02*
X96774000Y-81915000D01*
X76432500Y-64135000D02*
X76432500Y-65256500D01*
D45*
X63500000Y-77470000D02*
X63500000Y-78740000D01*
D47*
X94847500Y-95398500D02*
X93345000Y-95398500D01*
D45*
X69885000Y-78740000D02*
X71120000Y-78740000D01*
X54575000Y-82550000D02*
X53086000Y-82550000D01*
X63500000Y-74930000D02*
X63500000Y-76200000D01*
X63500000Y-80010000D02*
X64735000Y-80010000D01*
D47*
X76432500Y-65256500D02*
X76454000Y-65278000D01*
X66167000Y-59690000D02*
X64835000Y-59690000D01*
X63754000Y-40005000D02*
X66167000Y-40005000D01*
D45*
X71120000Y-79375000D02*
X71120000Y-78740000D01*
D47*
X56134000Y-42545000D02*
X53086000Y-42545000D01*
X46228000Y-90805000D02*
X47498000Y-90805000D01*
X66167000Y-28702000D02*
X66167000Y-27051000D01*
X96197500Y-94335000D02*
X94869000Y-94335000D01*
X94869000Y-94335000D02*
X94869000Y-95377000D01*
X74995000Y-59690000D02*
X76454000Y-59690000D01*
X66251000Y-84031000D02*
X66040000Y-83820000D01*
D45*
X78486000Y-80645000D02*
X76454000Y-80645000D01*
D47*
X76411000Y-85090000D02*
X76411000Y-81958000D01*
D49*
X28064250Y-97917000D02*
X26545750Y-97917000D01*
D46*
X26400000Y-94885000D02*
X26400000Y-98044000D01*
D45*
X96238500Y-93726000D02*
X96197500Y-93685000D01*
X26670000Y-26525000D02*
X26779000Y-26525000D01*
X77089000Y-57150000D02*
X74995000Y-57150000D01*
X61214000Y-40513000D02*
X61214000Y-39376000D01*
D47*
X45466000Y-87249000D02*
X46736000Y-87249000D01*
D45*
X72383999Y-31115000D02*
X72383999Y-32385000D01*
X72383999Y-31115000D02*
X70854000Y-31115000D01*
D47*
X68347500Y-43180000D02*
X68347500Y-42142500D01*
D45*
X53340000Y-90770000D02*
X53340000Y-89662000D01*
X116205000Y-40640000D02*
X111379000Y-40640000D01*
X54668999Y-35559999D02*
X53333998Y-35560000D01*
X53333998Y-35560000D02*
X53333999Y-38100000D01*
X101981000Y-95043500D02*
X101981000Y-97282000D01*
D47*
X103822500Y-37147500D02*
X103187500Y-36512500D01*
X88667500Y-65405000D02*
X88667500Y-64135000D01*
D45*
X72384000Y-36194999D02*
X72384000Y-37465000D01*
X53333998Y-35560000D02*
X50800000Y-35560000D01*
X49100000Y-31115000D02*
X50800000Y-31115000D01*
X111379000Y-38624000D02*
X111395000Y-38608000D01*
D47*
X68326000Y-84074000D02*
X68580000Y-83820000D01*
D45*
X116205000Y-39391500D02*
X116205000Y-40640000D01*
D47*
X107061000Y-30480000D02*
X106045000Y-31496000D01*
X107061000Y-30458500D02*
X107061000Y-30480000D01*
D45*
X118830000Y-93360000D02*
X119045000Y-93145000D01*
X61214000Y-39376000D02*
X61208000Y-39370000D01*
X120149000Y-32131000D02*
X120280000Y-32000000D01*
X35560000Y-96287500D02*
X35538500Y-96266000D01*
X62738000Y-38735000D02*
X61208000Y-38735000D01*
X72383999Y-32385000D02*
X72384000Y-36194999D01*
X78486000Y-58420000D02*
X77089000Y-58420000D01*
X64735000Y-81280000D02*
X63119000Y-81280000D01*
X113665000Y-93360000D02*
X118830000Y-93360000D01*
X54668999Y-34289999D02*
X53333999Y-34289999D01*
D47*
X90105000Y-74295000D02*
X88646000Y-74295000D01*
D49*
X29845000Y-97917000D02*
X31153500Y-97917000D01*
D45*
X59725000Y-76200000D02*
X61214000Y-76200000D01*
X49100000Y-36195000D02*
X50800000Y-36195000D01*
X53333999Y-34289999D02*
X53333998Y-35560000D01*
D47*
X98022500Y-96774000D02*
X98022500Y-95652500D01*
X98044000Y-89916000D02*
X98044000Y-88667500D01*
D45*
X70854000Y-32385000D02*
X72383999Y-32385000D01*
D47*
X119705000Y-39520000D02*
X119705000Y-40065000D01*
X103187500Y-36512500D02*
X103187500Y-34484000D01*
X69885000Y-73660000D02*
X68580000Y-73660000D01*
D45*
X101922500Y-94985000D02*
X101981000Y-95043500D01*
X111379000Y-31623000D02*
X111400500Y-31601500D01*
D47*
X119705000Y-40065000D02*
X120280000Y-40640000D01*
D45*
X72384000Y-38735001D02*
X70854000Y-38735000D01*
X26670000Y-26661000D02*
X26670000Y-27695000D01*
X50800000Y-37465000D02*
X50800000Y-36195000D01*
D47*
X103187500Y-28638500D02*
X103187500Y-31432500D01*
X78507500Y-64135000D02*
X78507500Y-65256500D01*
D45*
X50800000Y-31115000D02*
X50800000Y-29845000D01*
D47*
X46228000Y-94509500D02*
X46228000Y-98552000D01*
D45*
X34290000Y-97409000D02*
X34290000Y-96139000D01*
D47*
X58187500Y-64135000D02*
X61214000Y-64135000D01*
D45*
X58420000Y-57785000D02*
X61214000Y-57785000D01*
D47*
X98022500Y-95652500D02*
X98044000Y-95631000D01*
X119705000Y-32575000D02*
X120280000Y-32000000D01*
D45*
X70854000Y-37464999D02*
X72384000Y-37465000D01*
D47*
X49100000Y-51435000D02*
X47625000Y-51435000D01*
D45*
X49100000Y-84455000D02*
X47625000Y-84455000D01*
X50800000Y-34925000D02*
X50800000Y-33655000D01*
D47*
X49100000Y-73025000D02*
X47625000Y-73025000D01*
X58209000Y-42545000D02*
X61214000Y-42545000D01*
X58674000Y-85090000D02*
X61214000Y-85090000D01*
X59618999Y-31750001D02*
X58413999Y-31750000D01*
X57150000Y-95920000D02*
X57150000Y-97155000D01*
X68369000Y-64135000D02*
X69850000Y-64135000D01*
D45*
X77089000Y-58420000D02*
X77089000Y-57150000D01*
X70854000Y-38735000D02*
X69215000Y-38735000D01*
X50800000Y-35560000D02*
X50800000Y-34925000D01*
X26670000Y-27695000D02*
X30099000Y-27695000D01*
X57785000Y-57150000D02*
X58420000Y-57785000D01*
D47*
X68453000Y-42037000D02*
X69215000Y-42037000D01*
D45*
X111400500Y-31601500D02*
X116205000Y-31601500D01*
X118625000Y-68565000D02*
X119045000Y-68145000D01*
X116205000Y-31601500D02*
X119881500Y-31601500D01*
D47*
X45466000Y-44323000D02*
X47625000Y-44323000D01*
X61214000Y-52070000D02*
X59725000Y-52070000D01*
X100265000Y-74295000D02*
X98679000Y-74295000D01*
X98044000Y-88667500D02*
X98022500Y-88646000D01*
D45*
X50800000Y-33655000D02*
X50800000Y-32385000D01*
X34290000Y-89662000D02*
X35538500Y-89662000D01*
X49100000Y-33655000D02*
X50800000Y-33655000D01*
X34290000Y-96139000D02*
X34290000Y-89662000D01*
D47*
X103187500Y-31559500D02*
X103124000Y-31496000D01*
D45*
X31242000Y-28575000D02*
X31115000Y-28575000D01*
X46228000Y-97409000D02*
X34290000Y-97409000D01*
X61208000Y-38735000D02*
X61208000Y-39370000D01*
X54575000Y-81280000D02*
X56007000Y-81280000D01*
X54668999Y-33020000D02*
X53333999Y-33020000D01*
X29993500Y-94128500D02*
X29845000Y-93980000D01*
D47*
X79945000Y-74295000D02*
X78486000Y-74295000D01*
D45*
X120280000Y-40640000D02*
X116205000Y-40640000D01*
D47*
X46736000Y-87249000D02*
X47625000Y-86360000D01*
D45*
X50800000Y-38735000D02*
X50800000Y-37465000D01*
X49100000Y-37465000D02*
X50800000Y-37465000D01*
X61208000Y-39370000D02*
X59618999Y-39370000D01*
D47*
X90105000Y-52070000D02*
X88646000Y-52070000D01*
X104923500Y-32385000D02*
X105029000Y-32279500D01*
D45*
X72384000Y-37465000D02*
X72384000Y-38735001D01*
X111395000Y-32639000D02*
X111395000Y-31639000D01*
X50800000Y-32385000D02*
X50800000Y-31750000D01*
D49*
X29845000Y-93980000D02*
X29845000Y-97917000D01*
D48*
X31115000Y-28711000D02*
X30099000Y-27695000D01*
D45*
X54575000Y-57150000D02*
X57785000Y-57150000D01*
X69215000Y-38735000D02*
X69215000Y-42037000D01*
D47*
X98806000Y-83820000D02*
X98679000Y-83693000D01*
X68326000Y-85090000D02*
X68326000Y-84074000D01*
X45466000Y-65786000D02*
X47625000Y-65786000D01*
X59725000Y-73660000D02*
X61214000Y-73660000D01*
X106045000Y-31517500D02*
X105029000Y-32533500D01*
D45*
X50800000Y-36195000D02*
X50800000Y-35560000D01*
X111379000Y-40640000D02*
X111379000Y-38624000D01*
X49100000Y-32385000D02*
X50800000Y-32385000D01*
D47*
X78486000Y-85090000D02*
X78486000Y-83566000D01*
D45*
X53333999Y-33020000D02*
X53333999Y-34289999D01*
X63754000Y-34925000D02*
X62611000Y-34925000D01*
D47*
X49100000Y-29845000D02*
X47625000Y-29845000D01*
D45*
X70854000Y-36195000D02*
X72384000Y-36194999D01*
X119881500Y-31601500D02*
X120280000Y-32000000D01*
D47*
X68347500Y-42142500D02*
X68453000Y-42037000D01*
D45*
X49100000Y-34925000D02*
X50800000Y-34925000D01*
X35538500Y-96266000D02*
X34290000Y-96266000D01*
D47*
X78486000Y-52070000D02*
X79945000Y-52070000D01*
D45*
X119705000Y-39520000D02*
X119682000Y-39497000D01*
D47*
X103187500Y-31432500D02*
X103124000Y-31496000D01*
X106045000Y-31496000D02*
X106045000Y-31517500D01*
D45*
X35538500Y-89662000D02*
X35560000Y-89640500D01*
X111395000Y-31639000D02*
X111379000Y-31623000D01*
D47*
X119705000Y-33120000D02*
X119705000Y-32575000D01*
D45*
X50800000Y-29845000D02*
X49100000Y-29845000D01*
D47*
X78507500Y-65256500D02*
X78486000Y-65278000D01*
D45*
X50800000Y-31750000D02*
X50800000Y-31115000D01*
D47*
X93706500Y-93685000D02*
X93345000Y-93323500D01*
D45*
X61208000Y-38100000D02*
X61208000Y-38735000D01*
X59618999Y-38100000D02*
X61208000Y-38100000D01*
X34290000Y-96266000D02*
X34290000Y-96139000D01*
X49100000Y-38735000D02*
X50800000Y-38735000D01*
X63754000Y-38735000D02*
X62738000Y-38735000D01*
X113665000Y-68565000D02*
X118625000Y-68565000D01*
X53333999Y-38100000D02*
X54669000Y-38100000D01*
D47*
X68326000Y-52070000D02*
X69785000Y-52070000D01*
D45*
X79945000Y-58420000D02*
X78486000Y-58420000D01*
D47*
X96197500Y-93685000D02*
X93706500Y-93685000D01*
D45*
X62611000Y-34925000D02*
X62611000Y-38735000D01*
D47*
X103187500Y-34484000D02*
X103187500Y-31559500D01*
X98806000Y-85090000D02*
X98806000Y-83820000D01*
X88646000Y-85090000D02*
X88646000Y-83947000D01*
X120142000Y-67048000D02*
X119045000Y-68145000D01*
X103822500Y-39684000D02*
X103822500Y-37147500D01*
D45*
X37846000Y-38735000D02*
X39800000Y-38735000D01*
X45720000Y-74930000D02*
X37846000Y-74930000D01*
X49100000Y-74295000D02*
X46355000Y-74295000D01*
X37846000Y-51435000D02*
X37846000Y-38735000D01*
X46355000Y-74295000D02*
X45720000Y-74930000D01*
X39800000Y-51435000D02*
X37846000Y-51435000D01*
X37846000Y-74930000D02*
X37846000Y-51435000D01*
X39800000Y-37465000D02*
X37338000Y-37465000D01*
X37338000Y-76200000D02*
X45720000Y-76200000D01*
X45720000Y-76200000D02*
X46355000Y-75565000D01*
X46355000Y-75565000D02*
X49100000Y-75565000D01*
X37338000Y-52705000D02*
X37338000Y-76200000D01*
X37338000Y-37465000D02*
X37338000Y-52705000D01*
X39800000Y-52705000D02*
X38354000Y-52705000D01*
X36830000Y-36195000D02*
X39800000Y-36195000D01*
X49100000Y-76835000D02*
X46355000Y-76835000D01*
X36830000Y-77470000D02*
X36830000Y-53975000D01*
X46355000Y-76835000D02*
X45720000Y-77470000D01*
X36830000Y-53975000D02*
X36830000Y-36195000D01*
X39800000Y-53975000D02*
X38354000Y-53975000D01*
X45720000Y-77470000D02*
X36830000Y-77470000D01*
X36322000Y-55245000D02*
X36322000Y-78740000D01*
X45720000Y-78740000D02*
X46355000Y-78105000D01*
X36322000Y-34925000D02*
X36322000Y-55245000D01*
X36322000Y-78740000D02*
X45720000Y-78740000D01*
X39800000Y-55245000D02*
X38354000Y-55245000D01*
X39800000Y-34925000D02*
X36322000Y-34925000D01*
X46355000Y-78105000D02*
X49100000Y-78105000D01*
X49100000Y-79375000D02*
X46355000Y-79375000D01*
X46355000Y-79375000D02*
X45720000Y-80010000D01*
X45720000Y-80010000D02*
X35814000Y-80010000D01*
X39800000Y-56515000D02*
X38336500Y-56515000D01*
X35814000Y-56515000D02*
X35814000Y-33655000D01*
X35814000Y-80010000D02*
X35814000Y-56515000D01*
X35814000Y-33655000D02*
X39800000Y-33655000D01*
X35306000Y-32385000D02*
X35306000Y-57785000D01*
X45720000Y-81280000D02*
X46355000Y-80645000D01*
X35306000Y-81280000D02*
X45720000Y-81280000D01*
X35306000Y-57785000D02*
X35306000Y-81280000D01*
X46355000Y-80645000D02*
X49100000Y-80645000D01*
X39800000Y-32385000D02*
X35306000Y-32385000D01*
X39800000Y-57785000D02*
X38354000Y-57785000D01*
X45720000Y-82550000D02*
X34798000Y-82550000D01*
X46355000Y-81915000D02*
X45720000Y-82550000D01*
X39800000Y-59055000D02*
X38354000Y-59055000D01*
X34798000Y-31115000D02*
X39800000Y-31115000D01*
X34798000Y-59055000D02*
X34798000Y-31115000D01*
X34798000Y-82550000D02*
X34798000Y-59055000D01*
X49100000Y-81915000D02*
X46355000Y-81915000D01*
X34290000Y-60325000D02*
X34290000Y-83820000D01*
X46355000Y-83185000D02*
X49100000Y-83185000D01*
X39800000Y-60325000D02*
X38354000Y-60325000D01*
X45720000Y-83820000D02*
X46355000Y-83185000D01*
X39800000Y-29845000D02*
X34290000Y-29845000D01*
X34290000Y-29845000D02*
X34290000Y-60325000D01*
X34290000Y-83820000D02*
X45720000Y-83820000D01*
X59619000Y-34290000D02*
X61341000Y-34290000D01*
X61341000Y-31115000D02*
X63754000Y-31115000D01*
X67818000Y-31115000D02*
X63754000Y-31115000D01*
X123190000Y-44450000D02*
X97790000Y-44450000D01*
X97790000Y-29464000D02*
X67818000Y-29464000D01*
X97790000Y-44450000D02*
X97790000Y-29464000D01*
X61341000Y-34290000D02*
X61341000Y-31115000D01*
X67818000Y-29464000D02*
X67818000Y-31115000D01*
X97282000Y-45085000D02*
X97282000Y-29972000D01*
X68199000Y-29972000D02*
X68199000Y-32385000D01*
X120650000Y-45085000D02*
X97282000Y-45085000D01*
X120650000Y-46990000D02*
X120650000Y-45085000D01*
X61722000Y-35560000D02*
X59619000Y-35560000D01*
X61722000Y-32385000D02*
X61722000Y-35560000D01*
X63754000Y-32385000D02*
X61722000Y-32385000D01*
X123190000Y-46990000D02*
X120650000Y-46990000D01*
X68199000Y-32385000D02*
X63754000Y-32385000D01*
X97282000Y-29972000D02*
X68199000Y-29972000D01*
X62103000Y-36830000D02*
X62103000Y-33655000D01*
X68580000Y-30480000D02*
X68580000Y-33655000D01*
X68580000Y-33655000D02*
X63754000Y-33655000D01*
X62103000Y-33655000D02*
X63754000Y-33655000D01*
X120015000Y-45720000D02*
X96774000Y-45720000D01*
X59619000Y-36830000D02*
X62103000Y-36830000D01*
X96774000Y-30480000D02*
X68580000Y-30480000D01*
X120015000Y-49530000D02*
X120015000Y-45720000D01*
X123190000Y-49530000D02*
X120015000Y-49530000D01*
X96774000Y-45720000D02*
X96774000Y-30480000D01*
X119380000Y-52070000D02*
X123190000Y-52070000D01*
X119380000Y-46355000D02*
X119380000Y-52070000D01*
X70854000Y-40005000D02*
X72898000Y-40005000D01*
X72898000Y-40005000D02*
X73025000Y-40132000D01*
X96266000Y-46355000D02*
X119380000Y-46355000D01*
X73025000Y-30988000D02*
X96266000Y-30988000D01*
X96266000Y-30988000D02*
X96266000Y-46355000D01*
X73025000Y-40132000D02*
X73025000Y-30988000D01*
X63754000Y-37465000D02*
X65278000Y-37465000D01*
X72390000Y-80772000D02*
X74868000Y-80772000D01*
X95315000Y-79375000D02*
X93345000Y-79375000D01*
X97155000Y-79375000D02*
X95315000Y-79375000D01*
X83058000Y-77470000D02*
X81153000Y-75565000D01*
X93345000Y-79375000D02*
X92710000Y-78740000D01*
X87630000Y-77470000D02*
X83058000Y-77470000D01*
X77216000Y-75057000D02*
X72390000Y-75057000D01*
X74868000Y-80772000D02*
X74995000Y-80645000D01*
X98425000Y-80645000D02*
X97155000Y-79375000D01*
X77724000Y-75565000D02*
X77216000Y-75057000D01*
X79945000Y-75565000D02*
X77724000Y-75565000D01*
X100265000Y-80645000D02*
X98425000Y-80645000D01*
X72390000Y-75057000D02*
X72390000Y-80772000D01*
X81153000Y-75565000D02*
X79945000Y-75565000D01*
X88900000Y-78740000D02*
X87630000Y-77470000D01*
X92710000Y-78740000D02*
X88900000Y-78740000D01*
X64008000Y-65913000D02*
X72390000Y-65913000D01*
X97409000Y-80645000D02*
X95315000Y-80645000D01*
X90105000Y-81915000D02*
X91694000Y-81915000D01*
X91694000Y-80645000D02*
X90105000Y-80645000D01*
X98044000Y-81280000D02*
X97409000Y-80645000D01*
X100265000Y-75565000D02*
X101727000Y-75565000D01*
X91694000Y-81915000D02*
X91694000Y-80645000D01*
X101727000Y-81280000D02*
X98044000Y-81280000D01*
X101727000Y-75565000D02*
X101727000Y-81280000D01*
X95315000Y-80645000D02*
X91694000Y-80645000D01*
X100076000Y-88667500D02*
X100097500Y-88646000D01*
X101922500Y-91085000D02*
X100102000Y-91085000D01*
X100102000Y-91085000D02*
X100076000Y-91059000D01*
X100076000Y-91059000D02*
X100076000Y-88667500D01*
X100097500Y-93747500D02*
X100076000Y-93726000D01*
X100076000Y-93726000D02*
X100117000Y-93685000D01*
X100097500Y-96774000D02*
X100097500Y-93747500D01*
X100117000Y-93685000D02*
X101922500Y-93685000D01*
X105410000Y-95779500D02*
X104415500Y-95779500D01*
X102971000Y-94335000D02*
X101922500Y-94335000D01*
X104415500Y-95779500D02*
X102971000Y-94335000D01*
X102814000Y-93035000D02*
X101922500Y-93035000D01*
X103483500Y-93704500D02*
X102814000Y-93035000D01*
X105410000Y-93704500D02*
X103483500Y-93704500D01*
X105410000Y-91969500D02*
X104994500Y-92385000D01*
X104994500Y-92385000D02*
X101922500Y-92385000D01*
X102702000Y-91735000D02*
X104542500Y-89894500D01*
X104542500Y-89894500D02*
X105410000Y-89894500D01*
X101922500Y-91735000D02*
X102702000Y-91735000D01*
X113665000Y-69865000D02*
X116220000Y-69865000D01*
X116220000Y-69865000D02*
X118745000Y-72390000D01*
X118745000Y-72390000D02*
X118745000Y-75105000D01*
X113665000Y-80645000D02*
X113665000Y-79404999D01*
X115570000Y-74295000D02*
X113665000Y-74295000D01*
X113665000Y-79404999D02*
X115540001Y-79404999D01*
X115540001Y-79404999D02*
X115570000Y-79375000D01*
X113665000Y-81900000D02*
X113665000Y-80645000D01*
X112985000Y-81900000D02*
X112970000Y-81915000D01*
X118515001Y-78104999D02*
X118745000Y-77875000D01*
X113665000Y-78104999D02*
X118515001Y-78104999D01*
X102616000Y-42545000D02*
X102616000Y-39747500D01*
X54575000Y-73660000D02*
X54575000Y-72044000D01*
X102616000Y-87249000D02*
X109601000Y-87249000D01*
X96197500Y-91735000D02*
X97114000Y-91735000D01*
X97155000Y-87249000D02*
X102616000Y-87249000D01*
X102616000Y-87249000D02*
X102616000Y-72009000D01*
X97114000Y-91735000D02*
X97155000Y-91694000D01*
X94742000Y-72009000D02*
X102616000Y-72009000D01*
X54610000Y-72009000D02*
X94742000Y-72009000D01*
X109601000Y-87249000D02*
X109728000Y-87376000D01*
X54575000Y-72044000D02*
X54610000Y-72009000D01*
X97155000Y-91694000D02*
X97155000Y-87249000D01*
X102616000Y-39747500D02*
X102552500Y-39684000D01*
X71755000Y-59690000D02*
X71755000Y-58420000D01*
X81407000Y-55880000D02*
X79945000Y-55880000D01*
X81407000Y-38100000D02*
X93980000Y-38100000D01*
X69785000Y-59690000D02*
X71755000Y-59690000D01*
X81407000Y-48895000D02*
X81407000Y-38100000D01*
X71755000Y-58420000D02*
X71755000Y-57912000D01*
X71755000Y-48895000D02*
X81407000Y-48895000D01*
X69785000Y-58420000D02*
X71755000Y-58420000D01*
X82550000Y-96520000D02*
X82550000Y-86360000D01*
X82550000Y-96520000D02*
X87630000Y-96520000D01*
X87757000Y-86233000D02*
X100330000Y-86233000D01*
X81280000Y-96520000D02*
X82550000Y-96520000D01*
X87630000Y-86360000D02*
X87757000Y-86233000D01*
X60960000Y-96520000D02*
X81280000Y-96520000D01*
X82550000Y-86360000D02*
X87630000Y-86360000D01*
X100330000Y-81980000D02*
X100265000Y-81915000D01*
X100330000Y-86233000D02*
X100330000Y-81980000D01*
X90105000Y-59690000D02*
X87630000Y-59690000D01*
X55880000Y-97155000D02*
X55880000Y-95920000D01*
X63500000Y-92583000D02*
X59563000Y-92583000D01*
X63500000Y-93980000D02*
X63500000Y-92583000D01*
X53340000Y-94488000D02*
X53340000Y-95920000D01*
X59563000Y-92583000D02*
X59563000Y-94488000D01*
X59563000Y-94488000D02*
X53340000Y-94488000D01*
X52070000Y-94234000D02*
X59309000Y-94234000D01*
X66040000Y-92202000D02*
X66040000Y-93980000D01*
X59309000Y-94234000D02*
X59309000Y-92202000D01*
X52070000Y-95920000D02*
X52070000Y-94234000D01*
X59309000Y-92202000D02*
X66040000Y-92202000D01*
X54610000Y-94742000D02*
X59563000Y-94742000D01*
X54610000Y-95920000D02*
X54610000Y-94742000D01*
X68580000Y-95250000D02*
X68580000Y-93980000D01*
X59563000Y-95250000D02*
X68580000Y-95250000D01*
X59563000Y-94742000D02*
X59563000Y-95250000D01*
X71120000Y-91821000D02*
X59055000Y-91821000D01*
X50800000Y-93980000D02*
X50800000Y-90770000D01*
X59055000Y-93980000D02*
X50800000Y-93980000D01*
X71120000Y-93980000D02*
X71120000Y-91821000D01*
X59055000Y-91821000D02*
X59055000Y-93980000D01*
X58801000Y-91440000D02*
X58801000Y-93726000D01*
X52070000Y-93726000D02*
X52070000Y-90770000D01*
X73660000Y-93980000D02*
X73660000Y-91440000D01*
X58801000Y-93726000D02*
X52070000Y-93726000D01*
X73660000Y-91440000D02*
X58801000Y-91440000D01*
X49530000Y-93218000D02*
X49530000Y-90770000D01*
X76200000Y-91059000D02*
X58547000Y-91059000D01*
X76200000Y-93980000D02*
X76200000Y-91059000D01*
X58547000Y-93218000D02*
X52578000Y-93218000D01*
X58547000Y-91059000D02*
X58547000Y-93218000D01*
X58293000Y-90678000D02*
X58293000Y-92710000D01*
X78740000Y-93980000D02*
X78740000Y-90678000D01*
X48260000Y-92710000D02*
X48260000Y-95920000D01*
X78740000Y-90678000D02*
X58293000Y-90678000D01*
X58293000Y-92710000D02*
X53340000Y-92710000D01*
X57912000Y-92202000D02*
X52578000Y-92202000D01*
X81280000Y-93980000D02*
X81280000Y-90297000D01*
X81280000Y-90297000D02*
X57912000Y-90297000D01*
X57912000Y-90297000D02*
X57912000Y-92202000D01*
X49530000Y-95920000D02*
X49530000Y-94615000D01*
X48895000Y-94615000D02*
X48895000Y-92202000D01*
X49530000Y-94615000D02*
X48895000Y-94615000D01*
X44577000Y-90551000D02*
X41927000Y-90551000D01*
X41910000Y-90534000D02*
X40005000Y-90534000D01*
X35560000Y-91715500D02*
X38823500Y-91715500D01*
X47482000Y-87646000D02*
X44577000Y-90551000D01*
X38823500Y-91715500D02*
X40005000Y-90534000D01*
X41927000Y-90551000D02*
X41910000Y-90534000D01*
X49165000Y-87646000D02*
X47482000Y-87646000D01*
X53594000Y-87646000D02*
X53594000Y-89154000D01*
X47326750Y-89154000D02*
X53594000Y-89154000D01*
X53610000Y-87630000D02*
X53594000Y-87646000D01*
X35560000Y-94212500D02*
X38803500Y-94212500D01*
X54610000Y-90770000D02*
X54610000Y-89408000D01*
X53594000Y-89154000D02*
X54610000Y-89154000D01*
X54610000Y-89154000D02*
X54610000Y-89408000D01*
X40005000Y-95414000D02*
X41066750Y-95414000D01*
X38803500Y-94212500D02*
X40005000Y-95414000D01*
X41066750Y-95414000D02*
X47326750Y-89154000D01*
X52324000Y-86487000D02*
X51165000Y-87646000D01*
X55880000Y-90770000D02*
X55880000Y-87900000D01*
X55610000Y-86487000D02*
X52324000Y-86487000D01*
X55880000Y-87900000D02*
X55610000Y-87630000D01*
X55610000Y-87630000D02*
X55610000Y-86487000D01*
D47*
X106934000Y-33528000D02*
X107061000Y-33401000D01*
X107061000Y-33401000D02*
X107061000Y-32533500D01*
X105156000Y-33528000D02*
X106934000Y-33528000D01*
X104457500Y-34484000D02*
X104457500Y-33718500D01*
X104457500Y-35623500D02*
X104394000Y-35687000D01*
X105092500Y-33591500D02*
X105156000Y-33528000D01*
X104457500Y-33718500D02*
X104648000Y-33528000D01*
X105092500Y-34484000D02*
X105092500Y-33591500D01*
X104457500Y-34484000D02*
X104457500Y-35623500D01*
X101917500Y-35750500D02*
X101981000Y-35687000D01*
X101917500Y-39684000D02*
X101917500Y-35750500D01*
X104648000Y-33528000D02*
X105156000Y-33528000D01*
D45*
X113379000Y-36449000D02*
X116078000Y-36449000D01*
X118870000Y-36070000D02*
X118745000Y-36195000D01*
X116205000Y-37316500D02*
X116205000Y-36449000D01*
X118745000Y-36576000D02*
X118745000Y-36957000D01*
X116205000Y-36449000D02*
X118745000Y-36449000D01*
X118745000Y-36449000D02*
X118745000Y-36576000D01*
X118745000Y-36195000D02*
X118745000Y-36449000D01*
X119705000Y-36070000D02*
X118870000Y-36070000D01*
X118858000Y-37070000D02*
X118745000Y-36957000D01*
X119705000Y-37070000D02*
X118858000Y-37070000D01*
X116078000Y-36449000D02*
X116205000Y-36449000D01*
X116205000Y-34544000D02*
X113395000Y-34544000D01*
X119705000Y-35570000D02*
X119695000Y-35560000D01*
X118364000Y-34544000D02*
X116332000Y-34544000D01*
X120777000Y-35687000D02*
X120660000Y-35570000D01*
X120656000Y-36570000D02*
X120777000Y-36449000D01*
X116332000Y-34544000D02*
X116205000Y-34544000D01*
X120660000Y-35570000D02*
X119705000Y-35570000D01*
X119705000Y-36570000D02*
X120656000Y-36570000D01*
X120777000Y-36449000D02*
X120777000Y-35687000D01*
X116205000Y-33676500D02*
X116205000Y-34544000D01*
X118364000Y-35560000D02*
X118364000Y-34544000D01*
X119695000Y-35560000D02*
X118364000Y-35560000D01*
X26670000Y-28575000D02*
X28956000Y-28575000D01*
X118745000Y-37592000D02*
X118745000Y-38354000D01*
X118745000Y-38354000D02*
X113395000Y-38354000D01*
X119705000Y-37570000D02*
X119683000Y-37592000D01*
X119683000Y-37592000D02*
X118745000Y-37592000D01*
X118745000Y-34570000D02*
X118745000Y-32639000D01*
X118745000Y-32639000D02*
X113395000Y-32639000D01*
X119705000Y-34570000D02*
X118745000Y-34570000D01*
X105727500Y-36131500D02*
X105727500Y-34484000D01*
X111379000Y-36449000D02*
X106045000Y-36449000D01*
X106045000Y-36449000D02*
X105727500Y-36131500D01*
X106422500Y-34544000D02*
X106362500Y-34484000D01*
X111395000Y-34544000D02*
X106422500Y-34544000D01*
X113665000Y-83200000D02*
X113680000Y-83185000D01*
X113680000Y-83185000D02*
X118515000Y-83185000D01*
X118515000Y-83185000D02*
X118745000Y-83415000D01*
X113665000Y-92060000D02*
X116220000Y-92060000D01*
X116220000Y-92060000D02*
X118745000Y-89535000D01*
X118745000Y-89535000D02*
X118745000Y-86185000D01*
X120142000Y-84709000D02*
X120142000Y-80645000D01*
X116840000Y-84709000D02*
X120142000Y-84709000D01*
X116840000Y-86995000D02*
X116840000Y-84709000D01*
X113665000Y-86995000D02*
X116840000Y-86995000D01*
X120142000Y-80645000D02*
X118745000Y-80645000D01*
X93980000Y-73025000D02*
X102235000Y-73025000D01*
X102235000Y-73025000D02*
X102235000Y-86868000D01*
X96197500Y-86868000D02*
X102235000Y-86868000D01*
X96197500Y-90435000D02*
X96197500Y-86868000D01*
X100647500Y-35560000D02*
X100647500Y-34484000D01*
X113665000Y-88295000D02*
X111790000Y-88295000D01*
X101922500Y-88265000D02*
X111760000Y-88265000D01*
X111760000Y-73025000D02*
X113635000Y-73025000D01*
X111790000Y-88295000D02*
X111760000Y-88265000D01*
X111760000Y-88265000D02*
X111760000Y-73025000D01*
X101922500Y-90435000D02*
X101922500Y-88265000D01*
X113635000Y-73025000D02*
X113665000Y-72995000D01*
X112425000Y-85695000D02*
X112395000Y-85725000D01*
X99060000Y-87630000D02*
X111125000Y-87630000D01*
X99060000Y-93035000D02*
X99060000Y-87630000D01*
X113635000Y-75565000D02*
X113665000Y-75595000D01*
X113665000Y-85695000D02*
X112425000Y-85695000D01*
X111125000Y-87630000D02*
X111125000Y-85725000D01*
X113695000Y-85725000D02*
X113665000Y-85695000D01*
X115443000Y-85725000D02*
X113695000Y-85725000D01*
X112395000Y-75565000D02*
X113635000Y-75565000D01*
X112395000Y-85725000D02*
X112395000Y-75565000D01*
X96197500Y-93035000D02*
X99060000Y-93035000D01*
D47*
X122428000Y-31242000D02*
X122428000Y-33020000D01*
X105029000Y-30458500D02*
X103844000Y-30458500D01*
X103822500Y-32385000D02*
X103822500Y-30480000D01*
X103922000Y-29174000D02*
X120360000Y-29174000D01*
X120844500Y-34603500D02*
X121285000Y-35044000D01*
X103822500Y-29273500D02*
X103922000Y-29174000D01*
X119705000Y-33920000D02*
X120161000Y-33920000D01*
X121285000Y-37719000D02*
X120284000Y-38720000D01*
X103822500Y-30480000D02*
X103822500Y-29273500D01*
X122428000Y-33020000D02*
X120844500Y-34603500D01*
X103844000Y-30458500D02*
X103822500Y-30480000D01*
X120360000Y-29174000D02*
X122428000Y-31242000D01*
X103822500Y-34484000D02*
X103822500Y-32385000D01*
X121285000Y-35044000D02*
X121285000Y-37719000D01*
X120284000Y-38720000D02*
X119705000Y-38720000D01*
X120161000Y-33920000D02*
X120844500Y-34603500D01*
D45*
X83693000Y-74295000D02*
X85155000Y-74295000D01*
X83693000Y-79375000D02*
X83693000Y-80645000D01*
X83693000Y-80645000D02*
X85155000Y-80645000D01*
X85155000Y-79375000D02*
X83693000Y-79375000D01*
X95315000Y-74295000D02*
X93980000Y-74295000D01*
X91440000Y-76835000D02*
X90105000Y-76835000D01*
X93980000Y-74295000D02*
X91440000Y-76835000D01*
X93980000Y-76835000D02*
X92710000Y-78105000D01*
X95315000Y-76835000D02*
X93980000Y-76835000D01*
X92710000Y-78105000D02*
X90105000Y-78105000D01*
X86995000Y-74930000D02*
X82677000Y-74930000D01*
X82677000Y-74930000D02*
X81915000Y-74168000D01*
X90105000Y-75565000D02*
X87630000Y-75565000D01*
X81915000Y-81915000D02*
X79945000Y-81915000D01*
X87630000Y-75565000D02*
X86995000Y-74930000D01*
X79945000Y-78105000D02*
X85155000Y-78105000D01*
X82296000Y-74930000D02*
X77851000Y-74930000D01*
X82931000Y-75565000D02*
X82296000Y-74930000D01*
X77851000Y-74930000D02*
X77216000Y-74295000D01*
X85155000Y-75565000D02*
X82931000Y-75565000D01*
X75354210Y-74295000D02*
X75174605Y-74115395D01*
X74995000Y-74295000D02*
X77216000Y-74295000D01*
X46990000Y-39370000D02*
X52070000Y-39370000D01*
X52070000Y-32385000D02*
X57150000Y-32385000D01*
X52070000Y-34290000D02*
X52070000Y-32385000D01*
X57150000Y-32385000D02*
X57150000Y-33020000D01*
X49100000Y-41275000D02*
X46990000Y-41275000D01*
X41529000Y-40005000D02*
X39800000Y-40005000D01*
X46990000Y-41275000D02*
X42799000Y-41275000D01*
X52070000Y-39370000D02*
X52070000Y-36830000D01*
X57150000Y-33020000D02*
X59619000Y-33020000D01*
X46990000Y-41275000D02*
X46990000Y-39370000D01*
X42799000Y-41275000D02*
X41529000Y-40005000D01*
X53340000Y-41275000D02*
X67310000Y-41275000D01*
X67310000Y-41275000D02*
X67310000Y-34925000D01*
X49100000Y-40005000D02*
X53340000Y-40005000D01*
X67310000Y-34925000D02*
X70854000Y-34925000D01*
X53340000Y-40005000D02*
X53340000Y-41275000D01*
X57785001Y-52704999D02*
X50800000Y-52705000D01*
X58420002Y-53340000D02*
X57785001Y-52704999D01*
X59725000Y-53340000D02*
X58420002Y-53340000D01*
X50800000Y-48895000D02*
X50800000Y-52705000D01*
X50800000Y-52705000D02*
X49100000Y-52705000D01*
X46990000Y-53975000D02*
X49100000Y-53975000D01*
X59725001Y-54609999D02*
X58420001Y-54609999D01*
X58420001Y-54609999D02*
X57785000Y-53975000D01*
X51435000Y-53974999D02*
X49100001Y-53974999D01*
X53340000Y-48895000D02*
X53340000Y-47752000D01*
X46990000Y-47752000D02*
X46990000Y-53975000D01*
X57785000Y-53975000D02*
X51435000Y-53974999D01*
X53340000Y-47752000D02*
X46990000Y-47752000D01*
X57785001Y-55245000D02*
X52070000Y-55245000D01*
X52070000Y-55245000D02*
X49100000Y-55245000D01*
X55880000Y-48895000D02*
X55880000Y-47371000D01*
X55880000Y-47371000D02*
X46609000Y-47371000D01*
X58420001Y-55879999D02*
X57785001Y-55245000D01*
X46609000Y-55245000D02*
X49100000Y-55245000D01*
X59725001Y-55879999D02*
X58420001Y-55879999D01*
X46609000Y-47371000D02*
X46609000Y-55245000D01*
X58420002Y-57150000D02*
X57785000Y-56515000D01*
X52705000Y-56515000D02*
X49100001Y-56515000D01*
X59725000Y-57150000D02*
X58420002Y-57150000D01*
X49100000Y-56515000D02*
X46228000Y-56515000D01*
X58420000Y-46990000D02*
X58420000Y-48895000D01*
X57785000Y-56515000D02*
X52705000Y-56515000D01*
X46228000Y-46990000D02*
X58420000Y-46990000D01*
X46228000Y-56515000D02*
X46228000Y-46990000D01*
X45847000Y-57785000D02*
X49100000Y-57785000D01*
X58420000Y-58420000D02*
X57785000Y-57785000D01*
X59725001Y-58420000D02*
X58420000Y-58420000D01*
X57785000Y-57785000D02*
X53340000Y-57784999D01*
X60960000Y-48895000D02*
X60960000Y-46609000D01*
X45847000Y-46609000D02*
X45847000Y-57785000D01*
X53340000Y-57784999D02*
X49100001Y-57784999D01*
X60960000Y-46609000D02*
X45847000Y-46609000D01*
X45466000Y-59055000D02*
X45466000Y-46228000D01*
X45466000Y-46228000D02*
X63500000Y-46228000D01*
X63500000Y-46228000D02*
X63500000Y-48895000D01*
X53340000Y-59055000D02*
X49100000Y-59055000D01*
X49100000Y-59055000D02*
X45466000Y-59055000D01*
X57802500Y-59055000D02*
X53340000Y-59055000D01*
X59707501Y-59672499D02*
X59725001Y-59689999D01*
X58420001Y-59672499D02*
X59707501Y-59672499D01*
X58420001Y-59672499D02*
X57802500Y-59055000D01*
X50800000Y-60324999D02*
X49100001Y-60324999D01*
X66167000Y-48768000D02*
X66167000Y-45847000D01*
X50800000Y-62230000D02*
X50800000Y-60324999D01*
X66167000Y-45847000D02*
X45085000Y-45847000D01*
X66040000Y-48895000D02*
X66167000Y-48768000D01*
X59725001Y-60959999D02*
X58420001Y-60959999D01*
X45063210Y-62230000D02*
X50800000Y-62230000D01*
X57785000Y-60325000D02*
X50800000Y-60324999D01*
X58420001Y-60959999D02*
X57785000Y-60325000D01*
X45085000Y-45847000D02*
X45085000Y-62208210D01*
X45085000Y-62208210D02*
X45063210Y-62230000D01*
X44704000Y-61595000D02*
X44704000Y-45466000D01*
X68580000Y-45466000D02*
X68580000Y-48895000D01*
X44704000Y-45466000D02*
X68580000Y-45466000D01*
X44450000Y-61595000D02*
X44704000Y-61595000D01*
X54575001Y-59689999D02*
X45720000Y-59689999D01*
X45720000Y-61595000D02*
X47752000Y-61595000D01*
X45720000Y-59689999D02*
X45720000Y-61595000D01*
X47752000Y-61595000D02*
X49100000Y-61595000D01*
X51054000Y-74295000D02*
X50419000Y-73660000D01*
X50800000Y-69850000D02*
X50800000Y-73279000D01*
X46355000Y-73660000D02*
X45720000Y-74295000D01*
X59725000Y-77470000D02*
X58039000Y-77470000D01*
X58039000Y-74295000D02*
X51054000Y-74295000D01*
X50800000Y-73279000D02*
X50419000Y-73660000D01*
X45720000Y-74295000D02*
X39800000Y-74295000D01*
X58039000Y-77470000D02*
X58039000Y-74295000D01*
X50419000Y-73660000D02*
X46355000Y-73660000D01*
X57658000Y-75565000D02*
X57658000Y-78740000D01*
X45720000Y-75565000D02*
X39800000Y-75565000D01*
X50800000Y-75565000D02*
X57658000Y-75565000D01*
X50800000Y-75565000D02*
X50800000Y-75311000D01*
X50419000Y-74930000D02*
X46355000Y-74930000D01*
X57658000Y-78740000D02*
X59725000Y-78740000D01*
X50800000Y-75311000D02*
X50419000Y-74930000D01*
X46355000Y-74930000D02*
X45720000Y-75565000D01*
X50419000Y-76200000D02*
X46355000Y-76200000D01*
X46355000Y-76200000D02*
X45720000Y-76835000D01*
X57150000Y-80010000D02*
X59725000Y-80010000D01*
X57150000Y-76835000D02*
X57150000Y-80010000D01*
X45720000Y-76835000D02*
X39800000Y-76835000D01*
X56007000Y-76835000D02*
X51054000Y-76835000D01*
X51054000Y-76835000D02*
X50419000Y-76200000D01*
X55880000Y-78105000D02*
X51054000Y-78105000D01*
X51054000Y-78105000D02*
X50419000Y-77470000D01*
X50419000Y-77470000D02*
X46355000Y-77470000D01*
X54575000Y-80010000D02*
X55880000Y-80010000D01*
X45720000Y-78105000D02*
X39800000Y-78105000D01*
X55880000Y-80010000D02*
X55880000Y-78105000D01*
X46355000Y-77470000D02*
X45720000Y-78105000D01*
X44958000Y-79375000D02*
X39800000Y-79375000D01*
X59563000Y-68453000D02*
X44958000Y-68453000D01*
X46355000Y-78740000D02*
X45720000Y-79375000D01*
X54575000Y-78740000D02*
X46355000Y-78740000D01*
X44958000Y-68453000D02*
X44958000Y-73152000D01*
X60960000Y-69850000D02*
X59563000Y-68453000D01*
X45720000Y-79375000D02*
X44958000Y-79375000D01*
X44450000Y-80645000D02*
X39800000Y-80645000D01*
X44450000Y-67945000D02*
X44450000Y-73787000D01*
X54575000Y-77470000D02*
X56261000Y-77470000D01*
X56261000Y-80645000D02*
X51054000Y-80645000D01*
X46355000Y-80010000D02*
X45720000Y-80645000D01*
X50419000Y-80010000D02*
X46355000Y-80010000D01*
X63500000Y-69850000D02*
X61595000Y-67945000D01*
X61595000Y-67945000D02*
X44450000Y-67945000D01*
X45720000Y-80645000D02*
X44450000Y-80645000D01*
X56261000Y-77470000D02*
X56261000Y-80645000D01*
X51054000Y-80645000D02*
X50419000Y-80010000D01*
X45720000Y-81915000D02*
X43942000Y-81915000D01*
X63627000Y-67437000D02*
X43942000Y-67437000D01*
X46355000Y-81280000D02*
X45720000Y-81915000D01*
X51054000Y-81915000D02*
X50419000Y-81280000D01*
X50419000Y-81280000D02*
X46355000Y-81280000D01*
X56642000Y-81915000D02*
X51054000Y-81915000D01*
X54575000Y-76200000D02*
X56642000Y-76200000D01*
X66040000Y-69850000D02*
X63627000Y-67437000D01*
X43942000Y-81915000D02*
X39800000Y-81915000D01*
X56642000Y-76200000D02*
X56642000Y-81915000D01*
X43942000Y-67437000D02*
X43942000Y-73152000D01*
X45720000Y-83185000D02*
X46355000Y-82550000D01*
X46355000Y-82550000D02*
X50800000Y-82550000D01*
X67310000Y-76200000D02*
X69885000Y-76200000D01*
X39800000Y-83185000D02*
X45720000Y-83185000D01*
X50800000Y-82550000D02*
X51562000Y-83312000D01*
X51562000Y-83312000D02*
X67310000Y-83312000D01*
X68580000Y-82550000D02*
X69885000Y-82550000D01*
X62484000Y-82550000D02*
X63119000Y-81915000D01*
X63119000Y-81915000D02*
X67945000Y-81915000D01*
X59725000Y-82550000D02*
X62484000Y-82550000D01*
X67945000Y-81915000D02*
X68580000Y-82550000D01*
X88519000Y-79375000D02*
X90105000Y-79375000D01*
X63246000Y-80645000D02*
X62611000Y-81280000D01*
X62611000Y-81280000D02*
X59725000Y-81280000D01*
X69885000Y-81280000D02*
X86614000Y-81280000D01*
X68580000Y-81280000D02*
X67945000Y-80645000D01*
X86614000Y-81280000D02*
X88519000Y-79375000D01*
X69885000Y-81280000D02*
X68580000Y-81280000D01*
X67945000Y-80645000D02*
X63246000Y-80645000D01*
X57277000Y-72644000D02*
X64770000Y-72644000D01*
X57277000Y-73787000D02*
X57277000Y-72644000D01*
X54575000Y-74930000D02*
X57277000Y-74930000D01*
X64770000Y-72644000D02*
X64770000Y-73625000D01*
X64770000Y-73625000D02*
X64735000Y-73660000D01*
X79945000Y-57150000D02*
X78486000Y-57150000D01*
X82804000Y-57150000D02*
X79945000Y-57150000D01*
X57785000Y-53340000D02*
X58420000Y-53975000D01*
X119380000Y-62230000D02*
X119380000Y-54610000D01*
X78486000Y-57150000D02*
X78486000Y-55880000D01*
X74995000Y-55880000D02*
X73025000Y-55880000D01*
X82804000Y-62230000D02*
X119380000Y-62230000D01*
X58420000Y-53975000D02*
X62230000Y-53975000D01*
X62230000Y-53975000D02*
X62230000Y-52705000D01*
X73025000Y-55880000D02*
X73025000Y-52705000D01*
X82804000Y-62230000D02*
X82804000Y-57150000D01*
X119380000Y-54610000D02*
X123190000Y-54610000D01*
X83439000Y-76835000D02*
X82804000Y-76200000D01*
X73025000Y-52705000D02*
X71882000Y-52705000D01*
X78486000Y-55880000D02*
X74995000Y-55880000D01*
X54575000Y-53340000D02*
X57785000Y-53340000D01*
X62230000Y-52705000D02*
X71882000Y-52705000D01*
X85155000Y-76835000D02*
X83439000Y-76835000D01*
X120015000Y-62865000D02*
X120015000Y-57150000D01*
X43180000Y-62865000D02*
X49100000Y-62865000D01*
X39800000Y-61595000D02*
X43180000Y-61595000D01*
X73660000Y-62865000D02*
X120015000Y-62865000D01*
X43180000Y-61595000D02*
X43180000Y-62865000D01*
X74995000Y-58420000D02*
X73660000Y-58420000D01*
X120015000Y-57150000D02*
X123190000Y-57150000D01*
X49100000Y-62865000D02*
X73660000Y-62865000D01*
X90105000Y-58420000D02*
X87884000Y-58420000D01*
X87884000Y-57150000D02*
X85155000Y-57150000D01*
X83185000Y-53340000D02*
X79945000Y-53340000D01*
X83185000Y-57150000D02*
X83185000Y-53340000D01*
X87884000Y-58420000D02*
X87884000Y-57150000D01*
X85155000Y-57150000D02*
X83185000Y-57150000D01*
X57785000Y-54610000D02*
X58420000Y-55245000D01*
X82042000Y-61595000D02*
X62738000Y-61595000D01*
X58420000Y-55245000D02*
X62738000Y-55245000D01*
X87376000Y-59055000D02*
X91440000Y-59055000D01*
X91440000Y-53340000D02*
X90105000Y-53340000D01*
X62865000Y-53340000D02*
X64835000Y-53340000D01*
X85155000Y-58420000D02*
X87376000Y-58420000D01*
X87376000Y-58420000D02*
X87376000Y-59055000D01*
X83566000Y-61595000D02*
X83566000Y-58420000D01*
X62738000Y-61595000D02*
X62738000Y-60452000D01*
X62738000Y-55245000D02*
X62865000Y-55245000D01*
X83566000Y-58420000D02*
X85155000Y-58420000D01*
X54575000Y-54610000D02*
X57785000Y-54610000D01*
X91440000Y-59055000D02*
X91440000Y-53340000D01*
X62865000Y-55245000D02*
X62865000Y-53340000D01*
X85090000Y-49657000D02*
X85090000Y-52005000D01*
X71247000Y-54610000D02*
X72390000Y-54610000D01*
X72390000Y-49657000D02*
X85090000Y-49657000D01*
X85090000Y-52005000D02*
X85155000Y-52070000D01*
X69785000Y-54610000D02*
X71247000Y-54610000D01*
X72390000Y-55880000D02*
X69785000Y-55880000D01*
X77470000Y-56515000D02*
X72390000Y-56515000D01*
X72390000Y-56515000D02*
X72390000Y-55880000D01*
X83802500Y-55880000D02*
X85155000Y-55880000D01*
X82169000Y-57785000D02*
X77470000Y-57785000D01*
X77470000Y-57785000D02*
X77470000Y-56515000D01*
X68580000Y-44958000D02*
X71120000Y-44958000D01*
X76454000Y-50292000D02*
X76454000Y-53340000D01*
X71120000Y-44958000D02*
X71120000Y-50292000D01*
X76454000Y-53340000D02*
X74995000Y-53340000D01*
X66802000Y-36195000D02*
X66802000Y-40767000D01*
X65405000Y-36195000D02*
X63754000Y-36195000D01*
X71120000Y-50292000D02*
X76454000Y-50292000D01*
X65405000Y-36195000D02*
X66802000Y-36195000D01*
X54575000Y-58420000D02*
X57785000Y-58420000D01*
X57785000Y-58420000D02*
X58420000Y-59055000D01*
X58420000Y-59055000D02*
X67310000Y-59055000D01*
X67310000Y-59055000D02*
X67310000Y-57150000D01*
X67310000Y-57150000D02*
X69785000Y-57150000D01*
X64835000Y-55880000D02*
X63373000Y-55880000D01*
X63373000Y-56515000D02*
X58420000Y-56515000D01*
X57785000Y-55880000D02*
X54575000Y-55880000D01*
X63373000Y-55880000D02*
X63373000Y-56515000D01*
X58420000Y-56515000D02*
X57785000Y-55880000D01*
X64835000Y-54610000D02*
X63373000Y-54610000D01*
X63373000Y-54610000D02*
X63373000Y-55880000D01*
X66675000Y-57150000D02*
X66675000Y-53340000D01*
X64835000Y-58420000D02*
X66675000Y-58420000D01*
X66675000Y-53340000D02*
X69785000Y-53340000D01*
X66675000Y-58420000D02*
X66675000Y-57150000D01*
X64835000Y-57150000D02*
X66675000Y-57150000D01*
X74995000Y-54610000D02*
X73660000Y-54610000D01*
X66802000Y-52070000D02*
X64835000Y-52070000D01*
X73660000Y-51308000D02*
X66802000Y-51308000D01*
X77470000Y-59690000D02*
X79945000Y-59690000D01*
X66802000Y-51308000D02*
X66802000Y-52070000D01*
X73660000Y-54610000D02*
X73660000Y-51308000D01*
X77470000Y-54610000D02*
X74995000Y-54610000D01*
X74995000Y-78105000D02*
X73279000Y-78105000D01*
X115570000Y-64770000D02*
X120523000Y-64770000D01*
X120523000Y-64770000D02*
X120650000Y-64897000D01*
X39800000Y-73025000D02*
X39878000Y-72947000D01*
X39878000Y-66802000D02*
X115570000Y-66802000D01*
X115570000Y-66802000D02*
X115570000Y-64770000D01*
X120650000Y-64897000D02*
X120650000Y-59690000D01*
X120650000Y-59690000D02*
X123190000Y-59690000D01*
X39878000Y-72947000D02*
X39878000Y-66802000D01*
G04 #@! TA.AperFunction,Conductor*
G36*
X33401000Y-27940001D02*
G01*
X33401000Y-30381000D01*
X33382093Y-30439191D01*
X33332593Y-30475155D01*
X33302000Y-30480000D01*
X25650500Y-30480000D01*
X25650500Y-29563000D01*
X25669407Y-29504809D01*
X25718907Y-29468845D01*
X25749500Y-29464000D01*
X26189336Y-29464000D01*
X26222033Y-29469555D01*
X26262301Y-29483646D01*
X26292725Y-29486499D01*
X26292727Y-29486500D01*
X26292734Y-29486500D01*
X27301273Y-29486500D01*
X27301273Y-29486499D01*
X27331699Y-29483646D01*
X27371966Y-29469555D01*
X27404664Y-29464000D01*
X28348336Y-29464000D01*
X28381033Y-29469555D01*
X28421301Y-29483646D01*
X28451725Y-29486499D01*
X28451727Y-29486500D01*
X28451734Y-29486500D01*
X29460273Y-29486500D01*
X29460273Y-29486499D01*
X29490699Y-29483646D01*
X29530966Y-29469555D01*
X29563664Y-29464000D01*
X30537890Y-29464000D01*
X30570587Y-29469555D01*
X30682301Y-29508646D01*
X30712725Y-29511499D01*
X30712727Y-29511500D01*
X30712734Y-29511500D01*
X31771273Y-29511500D01*
X31771273Y-29511499D01*
X31801699Y-29508646D01*
X31913412Y-29469555D01*
X31946110Y-29464000D01*
X32384999Y-29464000D01*
X32385000Y-29464000D01*
X32385000Y-25749500D01*
X32403907Y-25691309D01*
X32453407Y-25655345D01*
X32484000Y-25650500D01*
X33401000Y-25650500D01*
X33401000Y-27940001D01*
G37*
G04 #@! TD.AperFunction*
G04 #@! TA.AperFunction,Conductor*
G36*
X125734309Y-25650877D02*
G01*
X125898409Y-25665233D01*
X125915389Y-25668226D01*
X126070332Y-25709743D01*
X126086536Y-25715641D01*
X126231902Y-25783427D01*
X126246842Y-25792053D01*
X126378223Y-25884047D01*
X126391443Y-25895139D01*
X126504860Y-26008556D01*
X126515952Y-26021776D01*
X126607946Y-26153157D01*
X126616574Y-26168101D01*
X126669562Y-26281734D01*
X126684354Y-26313454D01*
X126690257Y-26329671D01*
X126731771Y-26484603D01*
X126734767Y-26501598D01*
X126749123Y-26665690D01*
X126749500Y-26674318D01*
X126749500Y-100325681D01*
X126749123Y-100334309D01*
X126734767Y-100498401D01*
X126731771Y-100515396D01*
X126690257Y-100670328D01*
X126684354Y-100686545D01*
X126616574Y-100831898D01*
X126607946Y-100846842D01*
X126515952Y-100978223D01*
X126504860Y-100991443D01*
X126391443Y-101104860D01*
X126378223Y-101115952D01*
X126246842Y-101207946D01*
X126231898Y-101216574D01*
X126086545Y-101284354D01*
X126070328Y-101290257D01*
X125915396Y-101331771D01*
X125898401Y-101334767D01*
X125734309Y-101349123D01*
X125725681Y-101349500D01*
X26674319Y-101349500D01*
X26670000Y-101349311D01*
X26670000Y-99060000D01*
X26670001Y-99060000D01*
X27007331Y-99060000D01*
X27065522Y-99078907D01*
X27077334Y-99088996D01*
X27147655Y-99159316D01*
X27147658Y-99159318D01*
X27296875Y-99251356D01*
X27463306Y-99306506D01*
X27566013Y-99316999D01*
X27778498Y-99316999D01*
X27778500Y-99316998D01*
X27778500Y-99060000D01*
X28278500Y-99060000D01*
X28278500Y-99316998D01*
X28278501Y-99316999D01*
X28490986Y-99316999D01*
X28593687Y-99306507D01*
X28593699Y-99306504D01*
X28760124Y-99251356D01*
X28909341Y-99159318D01*
X28909344Y-99159316D01*
X28979666Y-99088996D01*
X29034183Y-99061219D01*
X29049669Y-99060000D01*
X120649999Y-99060000D01*
X120650000Y-99060000D01*
X123104341Y-99060000D01*
X123124935Y-99295400D01*
X123186098Y-99523667D01*
X123285959Y-99737818D01*
X123285963Y-99737826D01*
X123285964Y-99737828D01*
X123285965Y-99737829D01*
X123421505Y-99931401D01*
X123588599Y-100098495D01*
X123782171Y-100234035D01*
X123782172Y-100234035D01*
X123782173Y-100234036D01*
X123782181Y-100234040D01*
X123996333Y-100333901D01*
X123996337Y-100333903D01*
X124224592Y-100395063D01*
X124224596Y-100395063D01*
X124224599Y-100395064D01*
X124401026Y-100410500D01*
X124401034Y-100410500D01*
X124518974Y-100410500D01*
X124695400Y-100395064D01*
X124695401Y-100395063D01*
X124695408Y-100395063D01*
X124923663Y-100333903D01*
X125137829Y-100234035D01*
X125331401Y-100098495D01*
X125498495Y-99931401D01*
X125634035Y-99737830D01*
X125733903Y-99523663D01*
X125795063Y-99295408D01*
X125815659Y-99060000D01*
X125811455Y-99011953D01*
X125795064Y-98824599D01*
X125795063Y-98824596D01*
X125795063Y-98824592D01*
X125733903Y-98596337D01*
X125634035Y-98382171D01*
X125498495Y-98188599D01*
X125331401Y-98021505D01*
X125331397Y-98021502D01*
X125331396Y-98021501D01*
X125137826Y-97885963D01*
X125137818Y-97885959D01*
X124923666Y-97786098D01*
X124923667Y-97786098D01*
X124758913Y-97741953D01*
X124695408Y-97724937D01*
X124695407Y-97724936D01*
X124695400Y-97724935D01*
X124518974Y-97709500D01*
X124518966Y-97709500D01*
X124401034Y-97709500D01*
X124401026Y-97709500D01*
X124224599Y-97724935D01*
X123996332Y-97786098D01*
X123782181Y-97885959D01*
X123782173Y-97885963D01*
X123588603Y-98021501D01*
X123421501Y-98188603D01*
X123285964Y-98382171D01*
X123186097Y-98596337D01*
X123124935Y-98824599D01*
X123104341Y-99059995D01*
X123104341Y-99060000D01*
X120650000Y-99060000D01*
X124460000Y-95250000D01*
X124460000Y-41439500D01*
X124478907Y-41381309D01*
X124528407Y-41345345D01*
X124559000Y-41340500D01*
X125164273Y-41340500D01*
X125164273Y-41340499D01*
X125194699Y-41337646D01*
X125322882Y-41292793D01*
X125432150Y-41212150D01*
X125512793Y-41102882D01*
X125557646Y-40974699D01*
X125560499Y-40944273D01*
X125560500Y-40944273D01*
X125560500Y-40335727D01*
X125560499Y-40335725D01*
X125557646Y-40305305D01*
X125557646Y-40305301D01*
X125512793Y-40177118D01*
X125442984Y-40082530D01*
X125432154Y-40067855D01*
X125432152Y-40067853D01*
X125432150Y-40067850D01*
X125432146Y-40067847D01*
X125432144Y-40067845D01*
X125322883Y-39987207D01*
X125194703Y-39942355D01*
X125194694Y-39942353D01*
X125164274Y-39939500D01*
X125164266Y-39939500D01*
X124559000Y-39939500D01*
X124500809Y-39920593D01*
X124464845Y-39871093D01*
X124460000Y-39840500D01*
X124460000Y-32799500D01*
X124478907Y-32741309D01*
X124528407Y-32705345D01*
X124559000Y-32700500D01*
X125164273Y-32700500D01*
X125164273Y-32700499D01*
X125194699Y-32697646D01*
X125322882Y-32652793D01*
X125432150Y-32572150D01*
X125512793Y-32462882D01*
X125557646Y-32334699D01*
X125560499Y-32304273D01*
X125560500Y-32304273D01*
X125560500Y-31695727D01*
X125560499Y-31695725D01*
X125557646Y-31665305D01*
X125557646Y-31665301D01*
X125512793Y-31537118D01*
X125480403Y-31493231D01*
X125432154Y-31427855D01*
X125432152Y-31427853D01*
X125432150Y-31427850D01*
X125432146Y-31427847D01*
X125432144Y-31427845D01*
X125322883Y-31347207D01*
X125194703Y-31302355D01*
X125194694Y-31302353D01*
X125164274Y-31299500D01*
X125164266Y-31299500D01*
X124050508Y-31299500D01*
X123992317Y-31280593D01*
X123980504Y-31270504D01*
X120650000Y-27940000D01*
X123104341Y-27940000D01*
X123124935Y-28175400D01*
X123186098Y-28403667D01*
X123285959Y-28617818D01*
X123285963Y-28617826D01*
X123415511Y-28802842D01*
X123421505Y-28811401D01*
X123588599Y-28978495D01*
X123782171Y-29114035D01*
X123782172Y-29114035D01*
X123782173Y-29114036D01*
X123782181Y-29114040D01*
X123996333Y-29213901D01*
X123996337Y-29213903D01*
X124224592Y-29275063D01*
X124224596Y-29275063D01*
X124224599Y-29275064D01*
X124401026Y-29290500D01*
X124401034Y-29290500D01*
X124518974Y-29290500D01*
X124695400Y-29275064D01*
X124695401Y-29275063D01*
X124695408Y-29275063D01*
X124923663Y-29213903D01*
X125137829Y-29114035D01*
X125331401Y-28978495D01*
X125498495Y-28811401D01*
X125634035Y-28617830D01*
X125733903Y-28403663D01*
X125795063Y-28175408D01*
X125795264Y-28173118D01*
X125815659Y-27940000D01*
X125815659Y-27939995D01*
X125795064Y-27704599D01*
X125795063Y-27704596D01*
X125795063Y-27704592D01*
X125733903Y-27476337D01*
X125693866Y-27390477D01*
X125634040Y-27262181D01*
X125634036Y-27262173D01*
X125498498Y-27068603D01*
X125498497Y-27068602D01*
X125498495Y-27068599D01*
X125331401Y-26901505D01*
X125331397Y-26901502D01*
X125331396Y-26901501D01*
X125137826Y-26765963D01*
X125137818Y-26765959D01*
X124923666Y-26666098D01*
X124923667Y-26666098D01*
X124846144Y-26645326D01*
X124695408Y-26604937D01*
X124695407Y-26604936D01*
X124695400Y-26604935D01*
X124518974Y-26589500D01*
X124518966Y-26589500D01*
X124401034Y-26589500D01*
X124401026Y-26589500D01*
X124224599Y-26604935D01*
X123996332Y-26666098D01*
X123782181Y-26765959D01*
X123782173Y-26765963D01*
X123588603Y-26901501D01*
X123421501Y-27068603D01*
X123285964Y-27262171D01*
X123186097Y-27476337D01*
X123124935Y-27704599D01*
X123104341Y-27939995D01*
X123104341Y-27940000D01*
X120650000Y-27940000D01*
X120649999Y-27940000D01*
X33401001Y-27940000D01*
X33401000Y-27940000D01*
X33401000Y-25650500D01*
X125685830Y-25650500D01*
X125725681Y-25650500D01*
X125734309Y-25650877D01*
G37*
G04 #@! TD.AperFunction*
G04 #@! TA.AperFunction,Conductor*
G36*
X26670000Y-30480001D02*
G01*
X26670000Y-31870500D01*
X26651093Y-31928691D01*
X26601593Y-31964655D01*
X26571000Y-31969500D01*
X26435252Y-31969500D01*
X26435251Y-31969500D01*
X26435241Y-31969501D01*
X26376772Y-31981132D01*
X26376766Y-31981134D01*
X26310451Y-32025445D01*
X26310445Y-32025451D01*
X26266134Y-32091766D01*
X26266132Y-32091772D01*
X26254501Y-32150241D01*
X26254500Y-32150253D01*
X26254500Y-33889746D01*
X26254501Y-33889758D01*
X26266132Y-33948227D01*
X26266133Y-33948231D01*
X26310448Y-34014552D01*
X26376769Y-34058867D01*
X26421231Y-34067711D01*
X26435241Y-34070498D01*
X26435246Y-34070498D01*
X26435252Y-34070500D01*
X26435253Y-34070500D01*
X26571000Y-34070500D01*
X26629191Y-34089407D01*
X26665155Y-34138907D01*
X26670000Y-34169500D01*
X26670000Y-34410500D01*
X26651093Y-34468691D01*
X26601593Y-34504655D01*
X26571000Y-34509500D01*
X26435252Y-34509500D01*
X26435251Y-34509500D01*
X26435241Y-34509501D01*
X26376772Y-34521132D01*
X26376766Y-34521134D01*
X26310451Y-34565445D01*
X26310445Y-34565451D01*
X26266134Y-34631766D01*
X26266132Y-34631772D01*
X26254501Y-34690241D01*
X26254500Y-34690253D01*
X26254500Y-36429746D01*
X26254501Y-36429758D01*
X26266132Y-36488227D01*
X26266133Y-36488231D01*
X26310448Y-36554552D01*
X26376769Y-36598867D01*
X26421231Y-36607711D01*
X26435241Y-36610498D01*
X26435246Y-36610498D01*
X26435252Y-36610500D01*
X26435253Y-36610500D01*
X26571000Y-36610500D01*
X26629191Y-36629407D01*
X26665155Y-36678907D01*
X26670000Y-36709500D01*
X26670000Y-36950500D01*
X26651093Y-37008691D01*
X26601593Y-37044655D01*
X26571000Y-37049500D01*
X26435252Y-37049500D01*
X26435251Y-37049500D01*
X26435241Y-37049501D01*
X26376772Y-37061132D01*
X26376766Y-37061134D01*
X26310451Y-37105445D01*
X26310445Y-37105451D01*
X26266134Y-37171766D01*
X26266132Y-37171772D01*
X26254501Y-37230241D01*
X26254500Y-37230253D01*
X26254500Y-38969746D01*
X26254501Y-38969758D01*
X26266132Y-39028227D01*
X26266133Y-39028231D01*
X26310448Y-39094552D01*
X26376769Y-39138867D01*
X26421231Y-39147711D01*
X26435241Y-39150498D01*
X26435246Y-39150498D01*
X26435252Y-39150500D01*
X26435253Y-39150500D01*
X26571000Y-39150500D01*
X26629191Y-39169407D01*
X26665155Y-39218907D01*
X26670000Y-39249500D01*
X26670000Y-39490500D01*
X26651093Y-39548691D01*
X26601593Y-39584655D01*
X26571000Y-39589500D01*
X26435252Y-39589500D01*
X26435251Y-39589500D01*
X26435241Y-39589501D01*
X26376772Y-39601132D01*
X26376766Y-39601134D01*
X26310451Y-39645445D01*
X26310445Y-39645451D01*
X26266134Y-39711766D01*
X26266132Y-39711772D01*
X26254501Y-39770241D01*
X26254500Y-39770253D01*
X26254500Y-41509746D01*
X26254501Y-41509758D01*
X26266132Y-41568227D01*
X26266133Y-41568231D01*
X26310448Y-41634552D01*
X26376769Y-41678867D01*
X26421231Y-41687711D01*
X26435241Y-41690498D01*
X26435246Y-41690498D01*
X26435252Y-41690500D01*
X26435253Y-41690500D01*
X26571000Y-41690500D01*
X26629191Y-41709407D01*
X26665155Y-41758907D01*
X26670000Y-41789500D01*
X26670000Y-42030500D01*
X26651093Y-42088691D01*
X26601593Y-42124655D01*
X26571000Y-42129500D01*
X26435252Y-42129500D01*
X26435251Y-42129500D01*
X26435241Y-42129501D01*
X26376772Y-42141132D01*
X26376766Y-42141134D01*
X26310451Y-42185445D01*
X26310445Y-42185451D01*
X26266134Y-42251766D01*
X26266132Y-42251772D01*
X26254501Y-42310241D01*
X26254500Y-42310253D01*
X26254500Y-44049746D01*
X26254501Y-44049758D01*
X26266132Y-44108227D01*
X26266133Y-44108231D01*
X26310448Y-44174552D01*
X26376769Y-44218867D01*
X26421231Y-44227711D01*
X26435241Y-44230498D01*
X26435246Y-44230498D01*
X26435252Y-44230500D01*
X26435253Y-44230500D01*
X26571000Y-44230500D01*
X26629191Y-44249407D01*
X26665155Y-44298907D01*
X26670000Y-44329500D01*
X26670000Y-44570500D01*
X26651093Y-44628691D01*
X26601593Y-44664655D01*
X26571000Y-44669500D01*
X26435252Y-44669500D01*
X26435251Y-44669500D01*
X26435241Y-44669501D01*
X26376772Y-44681132D01*
X26376766Y-44681134D01*
X26310451Y-44725445D01*
X26310445Y-44725451D01*
X26266134Y-44791766D01*
X26266132Y-44791772D01*
X26254501Y-44850241D01*
X26254500Y-44850253D01*
X26254500Y-46589746D01*
X26254501Y-46589758D01*
X26266132Y-46648227D01*
X26266133Y-46648231D01*
X26310448Y-46714552D01*
X26376769Y-46758867D01*
X26421231Y-46767711D01*
X26435241Y-46770498D01*
X26435246Y-46770498D01*
X26435252Y-46770500D01*
X26435253Y-46770500D01*
X26571000Y-46770500D01*
X26629191Y-46789407D01*
X26665155Y-46838907D01*
X26670000Y-46869500D01*
X26670000Y-47110500D01*
X26651093Y-47168691D01*
X26601593Y-47204655D01*
X26571000Y-47209500D01*
X26435252Y-47209500D01*
X26435251Y-47209500D01*
X26435241Y-47209501D01*
X26376772Y-47221132D01*
X26376766Y-47221134D01*
X26310451Y-47265445D01*
X26310445Y-47265451D01*
X26266134Y-47331766D01*
X26266132Y-47331772D01*
X26254501Y-47390241D01*
X26254500Y-47390253D01*
X26254500Y-49129746D01*
X26254501Y-49129758D01*
X26266132Y-49188227D01*
X26266133Y-49188231D01*
X26310448Y-49254552D01*
X26376769Y-49298867D01*
X26421231Y-49307711D01*
X26435241Y-49310498D01*
X26435246Y-49310498D01*
X26435252Y-49310500D01*
X26435253Y-49310500D01*
X26571000Y-49310500D01*
X26629191Y-49329407D01*
X26665155Y-49378907D01*
X26670000Y-49409500D01*
X26670000Y-49650500D01*
X26651093Y-49708691D01*
X26601593Y-49744655D01*
X26571000Y-49749500D01*
X26435252Y-49749500D01*
X26435251Y-49749500D01*
X26435241Y-49749501D01*
X26376772Y-49761132D01*
X26376766Y-49761134D01*
X26310451Y-49805445D01*
X26310445Y-49805451D01*
X26266134Y-49871766D01*
X26266132Y-49871772D01*
X26254501Y-49930241D01*
X26254500Y-49930253D01*
X26254500Y-51669746D01*
X26254501Y-51669758D01*
X26266132Y-51728227D01*
X26266133Y-51728231D01*
X26310448Y-51794552D01*
X26376769Y-51838867D01*
X26421231Y-51847711D01*
X26435241Y-51850498D01*
X26435246Y-51850498D01*
X26435252Y-51850500D01*
X26435253Y-51850500D01*
X26571000Y-51850500D01*
X26629191Y-51869407D01*
X26665155Y-51918907D01*
X26670000Y-51949500D01*
X26670000Y-52190500D01*
X26651093Y-52248691D01*
X26601593Y-52284655D01*
X26571000Y-52289500D01*
X26435252Y-52289500D01*
X26435251Y-52289500D01*
X26435241Y-52289501D01*
X26376772Y-52301132D01*
X26376766Y-52301134D01*
X26310451Y-52345445D01*
X26310445Y-52345451D01*
X26266134Y-52411766D01*
X26266132Y-52411772D01*
X26254501Y-52470241D01*
X26254500Y-52470253D01*
X26254500Y-54209746D01*
X26254501Y-54209758D01*
X26266132Y-54268227D01*
X26266133Y-54268231D01*
X26310448Y-54334552D01*
X26376769Y-54378867D01*
X26421231Y-54387711D01*
X26435241Y-54390498D01*
X26435246Y-54390498D01*
X26435252Y-54390500D01*
X26435253Y-54390500D01*
X26571000Y-54390500D01*
X26629191Y-54409407D01*
X26665155Y-54458907D01*
X26670000Y-54489500D01*
X26670000Y-54730500D01*
X26651093Y-54788691D01*
X26601593Y-54824655D01*
X26571000Y-54829500D01*
X26435252Y-54829500D01*
X26435251Y-54829500D01*
X26435241Y-54829501D01*
X26376772Y-54841132D01*
X26376766Y-54841134D01*
X26310451Y-54885445D01*
X26310445Y-54885451D01*
X26266134Y-54951766D01*
X26266132Y-54951772D01*
X26254501Y-55010241D01*
X26254500Y-55010253D01*
X26254500Y-56749746D01*
X26254501Y-56749758D01*
X26266132Y-56808227D01*
X26266133Y-56808231D01*
X26310448Y-56874552D01*
X26376769Y-56918867D01*
X26421231Y-56927711D01*
X26435241Y-56930498D01*
X26435246Y-56930498D01*
X26435252Y-56930500D01*
X26435253Y-56930500D01*
X26571000Y-56930500D01*
X26629191Y-56949407D01*
X26665155Y-56998907D01*
X26670000Y-57029500D01*
X26670000Y-57270500D01*
X26651093Y-57328691D01*
X26601593Y-57364655D01*
X26571000Y-57369500D01*
X26435252Y-57369500D01*
X26435251Y-57369500D01*
X26435241Y-57369501D01*
X26376772Y-57381132D01*
X26376766Y-57381134D01*
X26310451Y-57425445D01*
X26310445Y-57425451D01*
X26266134Y-57491766D01*
X26266132Y-57491772D01*
X26254501Y-57550241D01*
X26254500Y-57550253D01*
X26254500Y-59289746D01*
X26254501Y-59289758D01*
X26266132Y-59348227D01*
X26266133Y-59348231D01*
X26310448Y-59414552D01*
X26376769Y-59458867D01*
X26421231Y-59467711D01*
X26435241Y-59470498D01*
X26435246Y-59470498D01*
X26435252Y-59470500D01*
X26435253Y-59470500D01*
X26571000Y-59470500D01*
X26629191Y-59489407D01*
X26665155Y-59538907D01*
X26670000Y-59569500D01*
X26670000Y-59810500D01*
X26651093Y-59868691D01*
X26601593Y-59904655D01*
X26571000Y-59909500D01*
X26435252Y-59909500D01*
X26435251Y-59909500D01*
X26435241Y-59909501D01*
X26376772Y-59921132D01*
X26376766Y-59921134D01*
X26310451Y-59965445D01*
X26310445Y-59965451D01*
X26266134Y-60031766D01*
X26266132Y-60031772D01*
X26254501Y-60090241D01*
X26254500Y-60090253D01*
X26254500Y-61829746D01*
X26254501Y-61829758D01*
X26266132Y-61888227D01*
X26266133Y-61888231D01*
X26310448Y-61954552D01*
X26376769Y-61998867D01*
X26421231Y-62007711D01*
X26435241Y-62010498D01*
X26435246Y-62010498D01*
X26435252Y-62010500D01*
X26435253Y-62010500D01*
X26571000Y-62010500D01*
X26629191Y-62029407D01*
X26665155Y-62078907D01*
X26670000Y-62109500D01*
X26670000Y-62350500D01*
X26651093Y-62408691D01*
X26601593Y-62444655D01*
X26571000Y-62449500D01*
X26435252Y-62449500D01*
X26435251Y-62449500D01*
X26435241Y-62449501D01*
X26376772Y-62461132D01*
X26376766Y-62461134D01*
X26310451Y-62505445D01*
X26310445Y-62505451D01*
X26266134Y-62571766D01*
X26266132Y-62571772D01*
X26254501Y-62630241D01*
X26254500Y-62630253D01*
X26254500Y-64369746D01*
X26254501Y-64369758D01*
X26266132Y-64428227D01*
X26266133Y-64428231D01*
X26310448Y-64494552D01*
X26376769Y-64538867D01*
X26421231Y-64547711D01*
X26435241Y-64550498D01*
X26435246Y-64550498D01*
X26435252Y-64550500D01*
X26435253Y-64550500D01*
X26571000Y-64550500D01*
X26629191Y-64569407D01*
X26665155Y-64618907D01*
X26670000Y-64649500D01*
X26670000Y-64890500D01*
X26651093Y-64948691D01*
X26601593Y-64984655D01*
X26571000Y-64989500D01*
X26435252Y-64989500D01*
X26435251Y-64989500D01*
X26435241Y-64989501D01*
X26376772Y-65001132D01*
X26376766Y-65001134D01*
X26310451Y-65045445D01*
X26310445Y-65045451D01*
X26266134Y-65111766D01*
X26266132Y-65111772D01*
X26254501Y-65170241D01*
X26254500Y-65170253D01*
X26254500Y-66909746D01*
X26254501Y-66909758D01*
X26266132Y-66968227D01*
X26266133Y-66968231D01*
X26310448Y-67034552D01*
X26376769Y-67078867D01*
X26421231Y-67087711D01*
X26435241Y-67090498D01*
X26435246Y-67090498D01*
X26435252Y-67090500D01*
X26435253Y-67090500D01*
X26571000Y-67090500D01*
X26629191Y-67109407D01*
X26665155Y-67158907D01*
X26670000Y-67189500D01*
X26670000Y-67430500D01*
X26651093Y-67488691D01*
X26601593Y-67524655D01*
X26571000Y-67529500D01*
X26435252Y-67529500D01*
X26435251Y-67529500D01*
X26435241Y-67529501D01*
X26376772Y-67541132D01*
X26376766Y-67541134D01*
X26310451Y-67585445D01*
X26310445Y-67585451D01*
X26266134Y-67651766D01*
X26266132Y-67651772D01*
X26254501Y-67710241D01*
X26254500Y-67710253D01*
X26254500Y-69449746D01*
X26254501Y-69449758D01*
X26266132Y-69508227D01*
X26266133Y-69508231D01*
X26310448Y-69574552D01*
X26376769Y-69618867D01*
X26421231Y-69627711D01*
X26435241Y-69630498D01*
X26435246Y-69630498D01*
X26435252Y-69630500D01*
X26435253Y-69630500D01*
X26571000Y-69630500D01*
X26629191Y-69649407D01*
X26665155Y-69698907D01*
X26670000Y-69729500D01*
X26670000Y-69970500D01*
X26651093Y-70028691D01*
X26601593Y-70064655D01*
X26571000Y-70069500D01*
X26435252Y-70069500D01*
X26435251Y-70069500D01*
X26435241Y-70069501D01*
X26376772Y-70081132D01*
X26376766Y-70081134D01*
X26310451Y-70125445D01*
X26310445Y-70125451D01*
X26266134Y-70191766D01*
X26266132Y-70191772D01*
X26254501Y-70250241D01*
X26254500Y-70250253D01*
X26254500Y-71989746D01*
X26254501Y-71989758D01*
X26266132Y-72048227D01*
X26266133Y-72048231D01*
X26310448Y-72114552D01*
X26376769Y-72158867D01*
X26421231Y-72167711D01*
X26435241Y-72170498D01*
X26435246Y-72170498D01*
X26435252Y-72170500D01*
X26435253Y-72170500D01*
X26571000Y-72170500D01*
X26629191Y-72189407D01*
X26665155Y-72238907D01*
X26670000Y-72269500D01*
X26670000Y-72510500D01*
X26651093Y-72568691D01*
X26601593Y-72604655D01*
X26571000Y-72609500D01*
X26435252Y-72609500D01*
X26435251Y-72609500D01*
X26435241Y-72609501D01*
X26376772Y-72621132D01*
X26376766Y-72621134D01*
X26310451Y-72665445D01*
X26310445Y-72665451D01*
X26266134Y-72731766D01*
X26266132Y-72731772D01*
X26254501Y-72790241D01*
X26254500Y-72790253D01*
X26254500Y-74529746D01*
X26254501Y-74529758D01*
X26266132Y-74588227D01*
X26266133Y-74588231D01*
X26310448Y-74654552D01*
X26376769Y-74698867D01*
X26421231Y-74707711D01*
X26435241Y-74710498D01*
X26435246Y-74710498D01*
X26435252Y-74710500D01*
X26435253Y-74710500D01*
X26571000Y-74710500D01*
X26629191Y-74729407D01*
X26665155Y-74778907D01*
X26670000Y-74809500D01*
X26670000Y-75050500D01*
X26651093Y-75108691D01*
X26601593Y-75144655D01*
X26571000Y-75149500D01*
X26435252Y-75149500D01*
X26435251Y-75149500D01*
X26435241Y-75149501D01*
X26376772Y-75161132D01*
X26376766Y-75161134D01*
X26310451Y-75205445D01*
X26310445Y-75205451D01*
X26266134Y-75271766D01*
X26266132Y-75271772D01*
X26254501Y-75330241D01*
X26254500Y-75330253D01*
X26254500Y-77069746D01*
X26254501Y-77069758D01*
X26266132Y-77128227D01*
X26266133Y-77128231D01*
X26310448Y-77194552D01*
X26376769Y-77238867D01*
X26421231Y-77247711D01*
X26435241Y-77250498D01*
X26435246Y-77250498D01*
X26435252Y-77250500D01*
X26435253Y-77250500D01*
X26571000Y-77250500D01*
X26629191Y-77269407D01*
X26665155Y-77318907D01*
X26670000Y-77349500D01*
X26670000Y-77590500D01*
X26651093Y-77648691D01*
X26601593Y-77684655D01*
X26571000Y-77689500D01*
X26435252Y-77689500D01*
X26435251Y-77689500D01*
X26435241Y-77689501D01*
X26376772Y-77701132D01*
X26376766Y-77701134D01*
X26310451Y-77745445D01*
X26310445Y-77745451D01*
X26266134Y-77811766D01*
X26266132Y-77811772D01*
X26254501Y-77870241D01*
X26254500Y-77870253D01*
X26254500Y-79609746D01*
X26254501Y-79609758D01*
X26266132Y-79668227D01*
X26266133Y-79668231D01*
X26310448Y-79734552D01*
X26376769Y-79778867D01*
X26421231Y-79787711D01*
X26435241Y-79790498D01*
X26435246Y-79790498D01*
X26435252Y-79790500D01*
X26435253Y-79790500D01*
X26571000Y-79790500D01*
X26629191Y-79809407D01*
X26665155Y-79858907D01*
X26670000Y-79889500D01*
X26670000Y-80130500D01*
X26651093Y-80188691D01*
X26601593Y-80224655D01*
X26571000Y-80229500D01*
X26435252Y-80229500D01*
X26435251Y-80229500D01*
X26435241Y-80229501D01*
X26376772Y-80241132D01*
X26376766Y-80241134D01*
X26310451Y-80285445D01*
X26310445Y-80285451D01*
X26266134Y-80351766D01*
X26266132Y-80351772D01*
X26254501Y-80410241D01*
X26254500Y-80410253D01*
X26254500Y-82149746D01*
X26254501Y-82149758D01*
X26266132Y-82208227D01*
X26266133Y-82208231D01*
X26310448Y-82274552D01*
X26376769Y-82318867D01*
X26421231Y-82327711D01*
X26435241Y-82330498D01*
X26435246Y-82330498D01*
X26435252Y-82330500D01*
X26435253Y-82330500D01*
X26571000Y-82330500D01*
X26629191Y-82349407D01*
X26665155Y-82398907D01*
X26670000Y-82429500D01*
X26670000Y-82670500D01*
X26651093Y-82728691D01*
X26601593Y-82764655D01*
X26571000Y-82769500D01*
X26435252Y-82769500D01*
X26435251Y-82769500D01*
X26435241Y-82769501D01*
X26376772Y-82781132D01*
X26376766Y-82781134D01*
X26310451Y-82825445D01*
X26310445Y-82825451D01*
X26266134Y-82891766D01*
X26266132Y-82891772D01*
X26254501Y-82950241D01*
X26254500Y-82950253D01*
X26254500Y-84689746D01*
X26254501Y-84689758D01*
X26266132Y-84748227D01*
X26266133Y-84748231D01*
X26310448Y-84814552D01*
X26376769Y-84858867D01*
X26421231Y-84867711D01*
X26435241Y-84870498D01*
X26435246Y-84870498D01*
X26435252Y-84870500D01*
X26435253Y-84870500D01*
X26571000Y-84870500D01*
X26629191Y-84889407D01*
X26665155Y-84938907D01*
X26670000Y-84969500D01*
X26670000Y-85210500D01*
X26651093Y-85268691D01*
X26601593Y-85304655D01*
X26571000Y-85309500D01*
X26435252Y-85309500D01*
X26435251Y-85309500D01*
X26435241Y-85309501D01*
X26376772Y-85321132D01*
X26376766Y-85321134D01*
X26310451Y-85365445D01*
X26310445Y-85365451D01*
X26266134Y-85431766D01*
X26266132Y-85431772D01*
X26254501Y-85490241D01*
X26254500Y-85490253D01*
X26254500Y-87229746D01*
X26254501Y-87229758D01*
X26266132Y-87288227D01*
X26266133Y-87288231D01*
X26310448Y-87354552D01*
X26376769Y-87398867D01*
X26421231Y-87407711D01*
X26435241Y-87410498D01*
X26435246Y-87410498D01*
X26435252Y-87410500D01*
X26435253Y-87410500D01*
X26571000Y-87410500D01*
X26629191Y-87429407D01*
X26665155Y-87478907D01*
X26670000Y-87509500D01*
X26670000Y-87750500D01*
X26651093Y-87808691D01*
X26601593Y-87844655D01*
X26571000Y-87849500D01*
X26435252Y-87849500D01*
X26435251Y-87849500D01*
X26435241Y-87849501D01*
X26376772Y-87861132D01*
X26376766Y-87861134D01*
X26310451Y-87905445D01*
X26310445Y-87905451D01*
X26266134Y-87971766D01*
X26266132Y-87971772D01*
X26254501Y-88030241D01*
X26254500Y-88030253D01*
X26254500Y-89769746D01*
X26254501Y-89769758D01*
X26266132Y-89828227D01*
X26266133Y-89828231D01*
X26310448Y-89894552D01*
X26376769Y-89938867D01*
X26421231Y-89947711D01*
X26435241Y-89950498D01*
X26435246Y-89950498D01*
X26435252Y-89950500D01*
X26435253Y-89950500D01*
X26571000Y-89950500D01*
X26629191Y-89969407D01*
X26665155Y-90018907D01*
X26670000Y-90049500D01*
X26670000Y-90290500D01*
X26651093Y-90348691D01*
X26601593Y-90384655D01*
X26571000Y-90389500D01*
X26435252Y-90389500D01*
X26435251Y-90389500D01*
X26435241Y-90389501D01*
X26376772Y-90401132D01*
X26376766Y-90401134D01*
X26310451Y-90445445D01*
X26310445Y-90445451D01*
X26266134Y-90511766D01*
X26266132Y-90511772D01*
X26254501Y-90570241D01*
X26254500Y-90570253D01*
X26254500Y-92309746D01*
X26254501Y-92309758D01*
X26266132Y-92368227D01*
X26266133Y-92368231D01*
X26310448Y-92434552D01*
X26376769Y-92478867D01*
X26421231Y-92487711D01*
X26435241Y-92490498D01*
X26435246Y-92490498D01*
X26435252Y-92490500D01*
X26435253Y-92490500D01*
X26571000Y-92490500D01*
X26629191Y-92509407D01*
X26665155Y-92558907D01*
X26670000Y-92589500D01*
X26670000Y-101349311D01*
X26665691Y-101349123D01*
X26501598Y-101334767D01*
X26484603Y-101331771D01*
X26329671Y-101290257D01*
X26313457Y-101284355D01*
X26168101Y-101216574D01*
X26153157Y-101207946D01*
X26021776Y-101115952D01*
X26008556Y-101104860D01*
X25895139Y-100991443D01*
X25884047Y-100978223D01*
X25792053Y-100846842D01*
X25783427Y-100831902D01*
X25715641Y-100686536D01*
X25709742Y-100670328D01*
X25668226Y-100515389D01*
X25665233Y-100498409D01*
X25650877Y-100334309D01*
X25650500Y-100325681D01*
X25650500Y-30480000D01*
X26670000Y-30480000D01*
X26670000Y-30480001D01*
G37*
G04 #@! TD.AperFunction*
M02*
