G04 #@! TF.GenerationSoftware,KiCad,Pcbnew,7.0.10*
G04 #@! TF.CreationDate,2024-01-23T20:12:11+01:00*
G04 #@! TF.ProjectId,UART,55415254-2e6b-4696-9361-645f70636258,rev?*
G04 #@! TF.SameCoordinates,Original*
G04 #@! TF.FileFunction,Legend,Bot*
G04 #@! TF.FilePolarity,Positive*
%FSLAX46Y46*%
G04 Gerber Fmt 4.6, Leading zero omitted, Abs format (unit mm)*
G04 Created by KiCad (PCBNEW 7.0.10) date 2024-01-23 20:12:11*
%MOMM*%
%LPD*%
G01*
G04 APERTURE LIST*
G04 Aperture macros list*
%AMRoundRect*
0 Rectangle with rounded corners*
0 $1 Rounding radius*
0 $2 $3 $4 $5 $6 $7 $8 $9 X,Y pos of 4 corners*
0 Add a 4 corners polygon primitive as box body*
4,1,4,$2,$3,$4,$5,$6,$7,$8,$9,$2,$3,0*
0 Add four circle primitives for the rounded corners*
1,1,$1+$1,$2,$3*
1,1,$1+$1,$4,$5*
1,1,$1+$1,$6,$7*
1,1,$1+$1,$8,$9*
0 Add four rect primitives between the rounded corners*
20,1,$1+$1,$2,$3,$4,$5,0*
20,1,$1+$1,$4,$5,$6,$7,0*
20,1,$1+$1,$6,$7,$8,$9,0*
20,1,$1+$1,$8,$9,$2,$3,0*%
G04 Aperture macros list end*
%ADD10C,0.150000*%
%ADD11C,0.120000*%
%ADD12C,2.200000*%
%ADD13R,1.700000X1.700000*%
%ADD14O,1.700000X1.700000*%
%ADD15C,1.500000*%
%ADD16C,4.000000*%
%ADD17R,1.600000X1.600000*%
%ADD18C,1.600000*%
%ADD19C,0.650000*%
%ADD20O,2.304000X1.204000*%
%ADD21RoundRect,0.301000X0.701000X-0.301000X0.701000X0.301000X-0.701000X0.301000X-0.701000X-0.301000X0*%
G04 APERTURE END LIST*
D10*
X36132887Y-99947057D02*
X36132887Y-100589914D01*
X36132887Y-100589914D02*
X36175744Y-100718485D01*
X36175744Y-100718485D02*
X36261458Y-100804200D01*
X36261458Y-100804200D02*
X36390030Y-100847057D01*
X36390030Y-100847057D02*
X36475744Y-100847057D01*
X35275744Y-100847057D02*
X35704316Y-100847057D01*
X35704316Y-100847057D02*
X35704316Y-99947057D01*
X34461459Y-100761342D02*
X34504316Y-100804200D01*
X34504316Y-100804200D02*
X34632888Y-100847057D01*
X34632888Y-100847057D02*
X34718602Y-100847057D01*
X34718602Y-100847057D02*
X34847173Y-100804200D01*
X34847173Y-100804200D02*
X34932888Y-100718485D01*
X34932888Y-100718485D02*
X34975745Y-100632771D01*
X34975745Y-100632771D02*
X35018602Y-100461342D01*
X35018602Y-100461342D02*
X35018602Y-100332771D01*
X35018602Y-100332771D02*
X34975745Y-100161342D01*
X34975745Y-100161342D02*
X34932888Y-100075628D01*
X34932888Y-100075628D02*
X34847173Y-99989914D01*
X34847173Y-99989914D02*
X34718602Y-99947057D01*
X34718602Y-99947057D02*
X34632888Y-99947057D01*
X34632888Y-99947057D02*
X34504316Y-99989914D01*
X34504316Y-99989914D02*
X34461459Y-100032771D01*
X33818602Y-99947057D02*
X33818602Y-100589914D01*
X33818602Y-100589914D02*
X33861459Y-100718485D01*
X33861459Y-100718485D02*
X33947173Y-100804200D01*
X33947173Y-100804200D02*
X34075745Y-100847057D01*
X34075745Y-100847057D02*
X34161459Y-100847057D01*
X32961459Y-100847057D02*
X33390031Y-100847057D01*
X33390031Y-100847057D02*
X33390031Y-99947057D01*
X32147174Y-100761342D02*
X32190031Y-100804200D01*
X32190031Y-100804200D02*
X32318603Y-100847057D01*
X32318603Y-100847057D02*
X32404317Y-100847057D01*
X32404317Y-100847057D02*
X32532888Y-100804200D01*
X32532888Y-100804200D02*
X32618603Y-100718485D01*
X32618603Y-100718485D02*
X32661460Y-100632771D01*
X32661460Y-100632771D02*
X32704317Y-100461342D01*
X32704317Y-100461342D02*
X32704317Y-100332771D01*
X32704317Y-100332771D02*
X32661460Y-100161342D01*
X32661460Y-100161342D02*
X32618603Y-100075628D01*
X32618603Y-100075628D02*
X32532888Y-99989914D01*
X32532888Y-99989914D02*
X32404317Y-99947057D01*
X32404317Y-99947057D02*
X32318603Y-99947057D01*
X32318603Y-99947057D02*
X32190031Y-99989914D01*
X32190031Y-99989914D02*
X32147174Y-100032771D01*
X31504317Y-99947057D02*
X31504317Y-100589914D01*
X31504317Y-100589914D02*
X31547174Y-100718485D01*
X31547174Y-100718485D02*
X31632888Y-100804200D01*
X31632888Y-100804200D02*
X31761460Y-100847057D01*
X31761460Y-100847057D02*
X31847174Y-100847057D01*
X30647174Y-100847057D02*
X31075746Y-100847057D01*
X31075746Y-100847057D02*
X31075746Y-99947057D01*
X29832889Y-100761342D02*
X29875746Y-100804200D01*
X29875746Y-100804200D02*
X30004318Y-100847057D01*
X30004318Y-100847057D02*
X30090032Y-100847057D01*
X30090032Y-100847057D02*
X30218603Y-100804200D01*
X30218603Y-100804200D02*
X30304318Y-100718485D01*
X30304318Y-100718485D02*
X30347175Y-100632771D01*
X30347175Y-100632771D02*
X30390032Y-100461342D01*
X30390032Y-100461342D02*
X30390032Y-100332771D01*
X30390032Y-100332771D02*
X30347175Y-100161342D01*
X30347175Y-100161342D02*
X30304318Y-100075628D01*
X30304318Y-100075628D02*
X30218603Y-99989914D01*
X30218603Y-99989914D02*
X30090032Y-99947057D01*
X30090032Y-99947057D02*
X30004318Y-99947057D01*
X30004318Y-99947057D02*
X29875746Y-99989914D01*
X29875746Y-99989914D02*
X29832889Y-100032771D01*
X29190032Y-99947057D02*
X29190032Y-100589914D01*
X29190032Y-100589914D02*
X29232889Y-100718485D01*
X29232889Y-100718485D02*
X29318603Y-100804200D01*
X29318603Y-100804200D02*
X29447175Y-100847057D01*
X29447175Y-100847057D02*
X29532889Y-100847057D01*
X28332889Y-100847057D02*
X28761461Y-100847057D01*
X28761461Y-100847057D02*
X28761461Y-99947057D01*
X27518604Y-100761342D02*
X27561461Y-100804200D01*
X27561461Y-100804200D02*
X27690033Y-100847057D01*
X27690033Y-100847057D02*
X27775747Y-100847057D01*
X27775747Y-100847057D02*
X27904318Y-100804200D01*
X27904318Y-100804200D02*
X27990033Y-100718485D01*
X27990033Y-100718485D02*
X28032890Y-100632771D01*
X28032890Y-100632771D02*
X28075747Y-100461342D01*
X28075747Y-100461342D02*
X28075747Y-100332771D01*
X28075747Y-100332771D02*
X28032890Y-100161342D01*
X28032890Y-100161342D02*
X27990033Y-100075628D01*
X27990033Y-100075628D02*
X27904318Y-99989914D01*
X27904318Y-99989914D02*
X27775747Y-99947057D01*
X27775747Y-99947057D02*
X27690033Y-99947057D01*
X27690033Y-99947057D02*
X27561461Y-99989914D01*
X27561461Y-99989914D02*
X27518604Y-100032771D01*
X123999523Y-41574819D02*
X123999523Y-42289104D01*
X123999523Y-42289104D02*
X124047142Y-42431961D01*
X124047142Y-42431961D02*
X124142380Y-42527200D01*
X124142380Y-42527200D02*
X124285237Y-42574819D01*
X124285237Y-42574819D02*
X124380475Y-42574819D01*
X122999523Y-42574819D02*
X123570951Y-42574819D01*
X123285237Y-42574819D02*
X123285237Y-41574819D01*
X123285237Y-41574819D02*
X123380475Y-41717676D01*
X123380475Y-41717676D02*
X123475713Y-41812914D01*
X123475713Y-41812914D02*
X123570951Y-41860533D01*
X122047142Y-42574819D02*
X122618570Y-42574819D01*
X122332856Y-42574819D02*
X122332856Y-41574819D01*
X122332856Y-41574819D02*
X122428094Y-41717676D01*
X122428094Y-41717676D02*
X122523332Y-41812914D01*
X122523332Y-41812914D02*
X122618570Y-41860533D01*
D11*
X31175000Y-95310000D02*
X25975000Y-95310000D01*
X31175000Y-33020000D02*
X31175000Y-31690000D01*
X31175000Y-31690000D02*
X31175000Y-95310000D01*
X31175000Y-31690000D02*
X29845000Y-31690000D01*
X31175000Y-31690000D02*
X25975000Y-31690000D01*
X25975000Y-31690000D02*
X25975000Y-95310000D01*
X124520000Y-63560000D02*
X121860000Y-63560000D01*
X124520000Y-45720000D02*
X124520000Y-63560000D01*
X124520000Y-45720000D02*
X121860000Y-45720000D01*
X124520000Y-44450000D02*
X124520000Y-43120000D01*
X124520000Y-43120000D02*
X123190000Y-43120000D01*
X121860000Y-45720000D02*
X121860000Y-63560000D01*
%LPC*%
D12*
X124460000Y-27940000D03*
D13*
X60960000Y-96520000D03*
D14*
X60960000Y-93980000D03*
X63500000Y-96520000D03*
X63500000Y-93980000D03*
X66040000Y-96520000D03*
X66040000Y-93980000D03*
X68580000Y-96520000D03*
X68580000Y-93980000D03*
X71120000Y-96520000D03*
X71120000Y-93980000D03*
X73660000Y-96520000D03*
X73660000Y-93980000D03*
X76200000Y-96520000D03*
X76200000Y-93980000D03*
X78740000Y-96520000D03*
X78740000Y-93980000D03*
X81280000Y-96520000D03*
X81280000Y-93980000D03*
D13*
X93980000Y-40640000D03*
D14*
X93980000Y-38100000D03*
X93980000Y-35560000D03*
D15*
X40005000Y-95414000D03*
X40005000Y-90534000D03*
D16*
X119045000Y-93145000D03*
X119045000Y-68145000D03*
D17*
X118745000Y-75105000D03*
D18*
X118745000Y-77875000D03*
X118745000Y-80645000D03*
X118745000Y-83415000D03*
X118745000Y-86185000D03*
X121585000Y-76490000D03*
X121585000Y-79260000D03*
X121585000Y-82030000D03*
X121585000Y-84800000D03*
D13*
X50800000Y-48895000D03*
D14*
X53340000Y-48895000D03*
X55880000Y-48895000D03*
X58420000Y-48895000D03*
X60960000Y-48895000D03*
X63500000Y-48895000D03*
X66040000Y-48895000D03*
X68580000Y-48895000D03*
D13*
X50800000Y-69850000D03*
D14*
X53340000Y-69850000D03*
X55880000Y-69850000D03*
X58420000Y-69850000D03*
X60960000Y-69850000D03*
X63500000Y-69850000D03*
X66040000Y-69850000D03*
X68580000Y-69850000D03*
D19*
X120780000Y-39210000D03*
X120780000Y-33430000D03*
D20*
X120280000Y-40640000D03*
X120280000Y-32000000D03*
D21*
X124460000Y-40640000D03*
X124460000Y-32000000D03*
D12*
X124460000Y-99060000D03*
D13*
X29845000Y-33020000D03*
X27305000Y-33020000D03*
X29845000Y-35560000D03*
X27305000Y-35560000D03*
X29845000Y-38100000D03*
X27305000Y-38100000D03*
X29845000Y-40640000D03*
X27305000Y-40640000D03*
X29845000Y-43180000D03*
X27305000Y-43180000D03*
X29845000Y-45720000D03*
X27305000Y-45720000D03*
X29845000Y-48260000D03*
X27305000Y-48260000D03*
X29845000Y-50800000D03*
X27305000Y-50800000D03*
X29845000Y-53340000D03*
X27305000Y-53340000D03*
X29845000Y-55880000D03*
X27305000Y-55880000D03*
X29845000Y-58420000D03*
X27305000Y-58420000D03*
X29845000Y-60960000D03*
X27305000Y-60960000D03*
X29845000Y-63500000D03*
X27305000Y-63500000D03*
X29845000Y-66040000D03*
X27305000Y-66040000D03*
X29845000Y-68580000D03*
X27305000Y-68580000D03*
X29845000Y-71120000D03*
X27305000Y-71120000D03*
X29845000Y-73660000D03*
X27305000Y-73660000D03*
X29845000Y-76200000D03*
X27305000Y-76200000D03*
X29845000Y-78740000D03*
X27305000Y-78740000D03*
X29845000Y-81280000D03*
X27305000Y-81280000D03*
X29845000Y-83820000D03*
X27305000Y-83820000D03*
X29845000Y-86360000D03*
X27305000Y-86360000D03*
X29845000Y-88900000D03*
X27305000Y-88900000D03*
X29845000Y-91440000D03*
X27305000Y-91440000D03*
X29845000Y-93980000D03*
X27305000Y-93980000D03*
X123190000Y-44450000D03*
D14*
X123190000Y-46990000D03*
X123190000Y-49530000D03*
X123190000Y-52070000D03*
X123190000Y-54610000D03*
X123190000Y-57150000D03*
X123190000Y-59690000D03*
X123190000Y-62230000D03*
%LPD*%
M02*
