M48
; DRILL file {KiCad 7.0.10} date Tuesday, January 23, 2024 at 08:12:18 pm
; FORMAT={-:-/ absolute / metric / decimal}
; #@! TF.CreationDate,2024-01-23T20:12:18+01:00
; #@! TF.GenerationSoftware,Kicad,Pcbnew,7.0.10
; #@! TF.FileFunction,Plated,1,2,PTH
FMAT,2
METRIC
; #@! TA.AperFunction,Plated,PTH,ViaDrill
T1C0.300
; #@! TA.AperFunction,Plated,PTH,ViaDrill
T2C0.500
; #@! TA.AperFunction,Plated,PTH,ComponentDrill
T3C0.600
; #@! TA.AperFunction,Plated,PTH,ComponentDrill
T4C0.800
; #@! TA.AperFunction,Plated,PTH,ComponentDrill
T5C1.000
; #@! TA.AperFunction,Plated,PTH,ComponentDrill
T6C3.200
%
G90
G05
T1
X34.29Y-60.325
X34.798Y-59.055
X35.306Y-57.785
X35.814Y-56.515
X36.322Y-55.245
X36.83Y-53.975
X37.338Y-52.705
X37.846Y-51.435
X38.337Y-56.515
X38.354Y-52.705
X38.354Y-53.975
X38.354Y-55.245
X38.354Y-57.785
X38.354Y-59.055
X38.354Y-60.325
X41.148Y-28.448
X41.148Y-41.275
X41.148Y-44.323
X41.148Y-62.865
X41.148Y-65.786
X41.148Y-84.455
X41.148Y-86.36
X43.942Y-73.152
X43.942Y-81.915
X44.45Y-61.595
X44.45Y-73.787
X44.45Y-80.645
X44.577Y-98.425
X44.958Y-73.152
X44.958Y-79.375
X45.72Y-61.595
X46.228Y-98.552
X47.498Y-90.805
X47.625Y-29.845
X47.625Y-44.323
X47.625Y-51.435
X47.625Y-65.786
X47.625Y-73.025
X47.625Y-84.455
X47.625Y-86.36
X48.26Y-92.71
X48.895Y-92.202
X49.53Y-93.218
X50.8Y-75.565
X52.07Y-34.29
X52.07Y-36.83
X52.578Y-92.202
X52.578Y-93.218
X52.959Y-64.135
X53.086Y-28.575
X53.086Y-39.37
X53.086Y-42.545
X53.086Y-60.96
X53.086Y-82.55
X53.34Y-89.662
X53.34Y-92.71
X53.967Y-85.09
X53.975Y-98.552
X55.77Y-78.105
X55.88Y-97.155
X56.007Y-76.835
X56.007Y-81.28
X57.15Y-76.835
X57.15Y-97.155
X57.277Y-73.787
X57.277Y-74.93
X58.414Y-31.75
X61.214Y-40.513
X61.214Y-42.545
X61.214Y-52.07
X61.214Y-57.785
X61.214Y-64.135
X61.214Y-73.66
X61.214Y-76.2
X61.214Y-85.09
X62.738Y-55.245
X62.738Y-60.452
X63.373Y-81.28
X64.008Y-65.913
X64.77Y-64.135
X64.77Y-98.552
X65.278Y-37.465
X66.04Y-79.375
X66.04Y-82.55
X66.04Y-83.82
X66.167Y-28.702
X66.167Y-40.005
X66.167Y-41.91
X66.167Y-59.69
X66.802Y-40.767
X67.31Y-76.2
X67.31Y-83.312
X68.326Y-52.07
X68.58Y-44.958
X68.58Y-73.66
X68.58Y-83.82
X69.215Y-42.037
X69.85Y-64.135
X71.755Y-48.895
X71.755Y-57.912
X72.39Y-49.657
X72.39Y-54.61
X72.39Y-65.913
X72.39Y-75.057
X73.279Y-66.802
X73.279Y-78.105
X73.66Y-58.42
X73.66Y-62.865
X74.93Y-98.425
X76.454Y-28.702
X76.454Y-59.69
X76.454Y-65.278
X76.454Y-80.645
X76.454Y-81.915
X77.47Y-54.61
X77.47Y-59.69
X78.486Y-52.07
X78.486Y-58.42
X78.486Y-65.278
X78.486Y-74.295
X78.486Y-83.566
X81.407Y-48.895
X81.407Y-55.88
X81.915Y-74.168
X81.915Y-81.915
X82.042Y-61.595
X82.169Y-57.785
X82.804Y-62.23
X82.804Y-76.2
X83.566Y-61.595
X83.693Y-74.295
X83.693Y-79.375
X83.802Y-55.88
X86.593Y-65.405
X86.614Y-28.702
X86.614Y-59.69
X86.614Y-81.915
X86.614Y-98.425
X87.63Y-59.69
X87.63Y-86.36
X87.63Y-96.52
X88.646Y-52.07
X88.646Y-74.295
X88.646Y-83.947
X88.667Y-65.405
X93.98Y-73.025
X94.742Y-72.009
X94.869Y-93.685
X96.774Y-81.915
X98.044Y-89.916
X98.044Y-95.631
X98.679Y-74.295
X98.679Y-83.693
X100.647Y-35.56
X101.981Y-35.687
X101.981Y-97.282
X102.616Y-42.545
X103.124Y-31.496
X103.188Y-28.638
X104.394Y-35.687
X106.045Y-31.496
X111.125Y-85.725
X115.443Y-85.725
X115.57Y-74.295
X115.57Y-79.375
T2
X30.099Y-27.695
T4
X40.005Y-90.534
X40.005Y-95.414
T5
X27.305Y-33.02
X27.305Y-35.56
X27.305Y-38.1
X27.305Y-40.64
X27.305Y-43.18
X27.305Y-45.72
X27.305Y-48.26
X27.305Y-50.8
X27.305Y-53.34
X27.305Y-55.88
X27.305Y-58.42
X27.305Y-60.96
X27.305Y-63.5
X27.305Y-66.04
X27.305Y-68.58
X27.305Y-71.12
X27.305Y-73.66
X27.305Y-76.2
X27.305Y-78.74
X27.305Y-81.28
X27.305Y-83.82
X27.305Y-86.36
X27.305Y-88.9
X27.305Y-91.44
X27.305Y-93.98
X29.845Y-33.02
X29.845Y-35.56
X29.845Y-38.1
X29.845Y-40.64
X29.845Y-43.18
X29.845Y-45.72
X29.845Y-48.26
X29.845Y-50.8
X29.845Y-53.34
X29.845Y-55.88
X29.845Y-58.42
X29.845Y-60.96
X29.845Y-63.5
X29.845Y-66.04
X29.845Y-68.58
X29.845Y-71.12
X29.845Y-73.66
X29.845Y-76.2
X29.845Y-78.74
X29.845Y-81.28
X29.845Y-83.82
X29.845Y-86.36
X29.845Y-88.9
X29.845Y-91.44
X29.845Y-93.98
X50.8Y-48.895
X50.8Y-69.85
X53.34Y-48.895
X53.34Y-69.85
X55.88Y-48.895
X55.88Y-69.85
X58.42Y-48.895
X58.42Y-69.85
X60.96Y-48.895
X60.96Y-69.85
X60.96Y-93.98
X60.96Y-96.52
X63.5Y-48.895
X63.5Y-69.85
X63.5Y-93.98
X63.5Y-96.52
X66.04Y-48.895
X66.04Y-69.85
X66.04Y-93.98
X66.04Y-96.52
X68.58Y-48.895
X68.58Y-69.85
X68.58Y-93.98
X68.58Y-96.52
X71.12Y-93.98
X71.12Y-96.52
X73.66Y-93.98
X73.66Y-96.52
X76.2Y-93.98
X76.2Y-96.52
X78.74Y-93.98
X78.74Y-96.52
X81.28Y-93.98
X81.28Y-96.52
X93.98Y-35.56
X93.98Y-38.1
X93.98Y-40.64
X118.745Y-75.105
X118.745Y-77.875
X118.745Y-80.645
X118.745Y-83.415
X118.745Y-86.185
X121.585Y-76.49
X121.585Y-79.26
X121.585Y-82.03
X121.585Y-84.8
X123.19Y-44.45
X123.19Y-46.99
X123.19Y-49.53
X123.19Y-52.07
X123.19Y-54.61
X123.19Y-57.15
X123.19Y-59.69
X123.19Y-62.23
T6
X119.045Y-68.145
X119.045Y-93.145
T3
X119.73Y-32.0G85X120.83Y-32.0
G05
X119.73Y-40.64G85X120.83Y-40.64
G05
X124.06Y-32.0G85X124.86Y-32.0
G05
X124.06Y-40.64G85X124.86Y-40.64
G05
M30
