G04 #@! TF.GenerationSoftware,KiCad,Pcbnew,7.0.10*
G04 #@! TF.CreationDate,2024-01-23T20:12:11+01:00*
G04 #@! TF.ProjectId,UART,55415254-2e6b-4696-9361-645f70636258,rev?*
G04 #@! TF.SameCoordinates,Original*
G04 #@! TF.FileFunction,Soldermask,Top*
G04 #@! TF.FilePolarity,Negative*
%FSLAX46Y46*%
G04 Gerber Fmt 4.6, Leading zero omitted, Abs format (unit mm)*
G04 Created by KiCad (PCBNEW 7.0.10) date 2024-01-23 20:12:11*
%MOMM*%
%LPD*%
G01*
G04 APERTURE LIST*
G04 Aperture macros list*
%AMRoundRect*
0 Rectangle with rounded corners*
0 $1 Rounding radius*
0 $2 $3 $4 $5 $6 $7 $8 $9 X,Y pos of 4 corners*
0 Add a 4 corners polygon primitive as box body*
4,1,4,$2,$3,$4,$5,$6,$7,$8,$9,$2,$3,0*
0 Add four circle primitives for the rounded corners*
1,1,$1+$1,$2,$3*
1,1,$1+$1,$4,$5*
1,1,$1+$1,$6,$7*
1,1,$1+$1,$8,$9*
0 Add four rect primitives between the rounded corners*
20,1,$1+$1,$2,$3,$4,$5,0*
20,1,$1+$1,$4,$5,$6,$7,0*
20,1,$1+$1,$6,$7,$8,$9,0*
20,1,$1+$1,$8,$9,$2,$3,0*%
%AMFreePoly0*
4,1,19,0.550000,-0.750000,0.000000,-0.750000,0.000000,-0.744911,-0.071157,-0.744911,-0.207708,-0.704816,-0.327430,-0.627875,-0.420627,-0.520320,-0.479746,-0.390866,-0.500000,-0.250000,-0.500000,0.250000,-0.479746,0.390866,-0.420627,0.520320,-0.327430,0.627875,-0.207708,0.704816,-0.071157,0.744911,0.000000,0.744911,0.000000,0.750000,0.550000,0.750000,0.550000,-0.750000,0.550000,-0.750000,
$1*%
%AMFreePoly1*
4,1,19,0.000000,0.744911,0.071157,0.744911,0.207708,0.704816,0.327430,0.627875,0.420627,0.520320,0.479746,0.390866,0.500000,0.250000,0.500000,-0.250000,0.479746,-0.390866,0.420627,-0.520320,0.327430,-0.627875,0.207708,-0.704816,0.071157,-0.744911,0.000000,-0.744911,0.000000,-0.750000,-0.550000,-0.750000,-0.550000,0.750000,0.000000,0.750000,0.000000,0.744911,0.000000,0.744911,
$1*%
%AMFreePoly2*
4,1,19,0.500000,-0.750000,0.000000,-0.750000,0.000000,-0.744911,-0.071157,-0.744911,-0.207708,-0.704816,-0.327430,-0.627875,-0.420627,-0.520320,-0.479746,-0.390866,-0.500000,-0.250000,-0.500000,0.250000,-0.479746,0.390866,-0.420627,0.520320,-0.327430,0.627875,-0.207708,0.704816,-0.071157,0.744911,0.000000,0.744911,0.000000,0.750000,0.500000,0.750000,0.500000,-0.750000,0.500000,-0.750000,
$1*%
%AMFreePoly3*
4,1,19,0.000000,0.744911,0.071157,0.744911,0.207708,0.704816,0.327430,0.627875,0.420627,0.520320,0.479746,0.390866,0.500000,0.250000,0.500000,-0.250000,0.479746,-0.390866,0.420627,-0.520320,0.327430,-0.627875,0.207708,-0.704816,0.071157,-0.744911,0.000000,-0.744911,0.000000,-0.750000,-0.500000,-0.750000,-0.500000,0.750000,0.000000,0.750000,0.000000,0.744911,0.000000,0.744911,
$1*%
G04 Aperture macros list end*
%ADD10C,2.200000*%
%ADD11RoundRect,0.250000X-0.337500X-0.475000X0.337500X-0.475000X0.337500X0.475000X-0.337500X0.475000X0*%
%ADD12RoundRect,0.250000X-0.475000X0.337500X-0.475000X-0.337500X0.475000X-0.337500X0.475000X0.337500X0*%
%ADD13R,1.700000X1.700000*%
%ADD14O,1.700000X1.700000*%
%ADD15RoundRect,0.150000X0.825000X0.150000X-0.825000X0.150000X-0.825000X-0.150000X0.825000X-0.150000X0*%
%ADD16FreePoly0,270.000000*%
%ADD17R,1.500000X1.000000*%
%ADD18FreePoly1,270.000000*%
%ADD19FreePoly2,90.000000*%
%ADD20FreePoly3,90.000000*%
%ADD21RoundRect,0.250000X0.337500X0.475000X-0.337500X0.475000X-0.337500X-0.475000X0.337500X-0.475000X0*%
%ADD22RoundRect,0.250000X0.475000X-0.337500X0.475000X0.337500X-0.475000X0.337500X-0.475000X-0.337500X0*%
%ADD23C,1.500000*%
%ADD24RoundRect,0.250000X-0.350000X-0.450000X0.350000X-0.450000X0.350000X0.450000X-0.350000X0.450000X0*%
%ADD25RoundRect,0.150000X0.725000X0.150000X-0.725000X0.150000X-0.725000X-0.150000X0.725000X-0.150000X0*%
%ADD26R,1.500000X0.600000*%
%ADD27RoundRect,0.250000X-0.450000X0.325000X-0.450000X-0.325000X0.450000X-0.325000X0.450000X0.325000X0*%
%ADD28C,4.000000*%
%ADD29R,1.600000X1.600000*%
%ADD30C,1.600000*%
%ADD31RoundRect,0.150000X0.875000X0.150000X-0.875000X0.150000X-0.875000X-0.150000X0.875000X-0.150000X0*%
%ADD32RoundRect,0.150000X0.150000X-0.725000X0.150000X0.725000X-0.150000X0.725000X-0.150000X-0.725000X0*%
%ADD33RoundRect,0.250000X-0.412500X-0.650000X0.412500X-0.650000X0.412500X0.650000X-0.412500X0.650000X0*%
%ADD34FreePoly2,270.000000*%
%ADD35FreePoly3,270.000000*%
%ADD36RoundRect,0.100000X0.637500X0.100000X-0.637500X0.100000X-0.637500X-0.100000X0.637500X-0.100000X0*%
%ADD37RoundRect,0.250000X-0.450000X0.350000X-0.450000X-0.350000X0.450000X-0.350000X0.450000X0.350000X0*%
%ADD38RoundRect,0.250000X0.350000X0.450000X-0.350000X0.450000X-0.350000X-0.450000X0.350000X-0.450000X0*%
%ADD39R,0.400000X1.200000*%
%ADD40C,0.650000*%
%ADD41RoundRect,0.102000X0.575000X-0.300000X0.575000X0.300000X-0.575000X0.300000X-0.575000X-0.300000X0*%
%ADD42RoundRect,0.102000X0.575000X-0.150000X0.575000X0.150000X-0.575000X0.150000X-0.575000X-0.150000X0*%
%ADD43O,2.304000X1.204000*%
%ADD44RoundRect,0.301000X0.701000X-0.301000X0.701000X0.301000X-0.701000X0.301000X-0.701000X-0.301000X0*%
G04 APERTURE END LIST*
D10*
X124460000Y-27940000D03*
D11*
X43391000Y-65786000D03*
X45466000Y-65786000D03*
D12*
X105029000Y-30458500D03*
X105029000Y-32533500D03*
D13*
X60960000Y-96520000D03*
D14*
X60960000Y-93980000D03*
X63500000Y-96520000D03*
X63500000Y-93980000D03*
X66040000Y-96520000D03*
X66040000Y-93980000D03*
X68580000Y-96520000D03*
X68580000Y-93980000D03*
X71120000Y-96520000D03*
X71120000Y-93980000D03*
X73660000Y-96520000D03*
X73660000Y-93980000D03*
X76200000Y-96520000D03*
X76200000Y-93980000D03*
X78740000Y-96520000D03*
X78740000Y-93980000D03*
X81280000Y-96520000D03*
X81280000Y-93980000D03*
D15*
X69785000Y-59690000D03*
X69785000Y-58420000D03*
X69785000Y-57150000D03*
X69785000Y-55880000D03*
X69785000Y-54610000D03*
X69785000Y-53340000D03*
X69785000Y-52070000D03*
X64835000Y-52070000D03*
X64835000Y-53340000D03*
X64835000Y-54610000D03*
X64835000Y-55880000D03*
X64835000Y-57150000D03*
X64835000Y-58420000D03*
X64835000Y-59690000D03*
D16*
X113665000Y-85695000D03*
D17*
X113665000Y-86995000D03*
D18*
X113665000Y-88295000D03*
D11*
X86571000Y-85090000D03*
X88646000Y-85090000D03*
D19*
X113665000Y-93360000D03*
D20*
X113665000Y-92060000D03*
D11*
X96731000Y-85090000D03*
X98806000Y-85090000D03*
X56134000Y-42545000D03*
X58209000Y-42545000D03*
D13*
X93980000Y-40640000D03*
D14*
X93980000Y-38100000D03*
X93980000Y-35560000D03*
D21*
X100097500Y-88646000D03*
X98022500Y-88646000D03*
D11*
X66251000Y-85090000D03*
X68326000Y-85090000D03*
D22*
X93345000Y-95398500D03*
X93345000Y-93323500D03*
D23*
X40005000Y-95414000D03*
X40005000Y-90534000D03*
D11*
X86592500Y-64135000D03*
X88667500Y-64135000D03*
D24*
X111395000Y-38354000D03*
X113395000Y-38354000D03*
D25*
X69885000Y-82550000D03*
X69885000Y-81280000D03*
X69885000Y-80010000D03*
X69885000Y-78740000D03*
X69885000Y-77470000D03*
X69885000Y-76200000D03*
X69885000Y-74930000D03*
X69885000Y-73660000D03*
X64735000Y-73660000D03*
X64735000Y-74930000D03*
X64735000Y-76200000D03*
X64735000Y-77470000D03*
X64735000Y-78740000D03*
X64735000Y-80010000D03*
X64735000Y-81280000D03*
X64735000Y-82550000D03*
D15*
X79945000Y-59690000D03*
X79945000Y-58420000D03*
X79945000Y-57150000D03*
X79945000Y-55880000D03*
X79945000Y-54610000D03*
X79945000Y-53340000D03*
X79945000Y-52070000D03*
X74995000Y-52070000D03*
X74995000Y-53340000D03*
X74995000Y-54610000D03*
X74995000Y-55880000D03*
X74995000Y-57150000D03*
X74995000Y-58420000D03*
X74995000Y-59690000D03*
D25*
X59725000Y-82550000D03*
X59725000Y-81280000D03*
X59725000Y-80010000D03*
X59725000Y-78740000D03*
X59725000Y-77470000D03*
X59725000Y-76200000D03*
X59725000Y-74930000D03*
X59725000Y-73660000D03*
X54575000Y-73660000D03*
X54575000Y-74930000D03*
X54575000Y-76200000D03*
X54575000Y-77470000D03*
X54575000Y-78740000D03*
X54575000Y-80010000D03*
X54575000Y-81280000D03*
X54575000Y-82550000D03*
D24*
X111379000Y-36449000D03*
X113379000Y-36449000D03*
D11*
X56599000Y-85090000D03*
X58674000Y-85090000D03*
D15*
X90105000Y-59690000D03*
X90105000Y-58420000D03*
X90105000Y-57150000D03*
X90105000Y-55880000D03*
X90105000Y-54610000D03*
X90105000Y-53340000D03*
X90105000Y-52070000D03*
X85155000Y-52070000D03*
X85155000Y-53340000D03*
X85155000Y-54610000D03*
X85155000Y-55880000D03*
X85155000Y-57150000D03*
X85155000Y-58420000D03*
X85155000Y-59690000D03*
D16*
X113665000Y-72995000D03*
D17*
X113665000Y-74295000D03*
D18*
X113665000Y-75595000D03*
D26*
X70854000Y-40005000D03*
X70854000Y-38735000D03*
X70854000Y-37465000D03*
X70854000Y-36195000D03*
X70854000Y-34925000D03*
X70854000Y-33655000D03*
X70854000Y-32385000D03*
X70854000Y-31115000D03*
X63754000Y-31115000D03*
X63754000Y-32385000D03*
X63754000Y-33655000D03*
X63754000Y-34925000D03*
X63754000Y-36195000D03*
X63754000Y-37465000D03*
X63754000Y-38735000D03*
X63754000Y-40005000D03*
D15*
X59619000Y-39370000D03*
X59619000Y-38100000D03*
X59619000Y-36830000D03*
X59619000Y-35560000D03*
X59619000Y-34290000D03*
X59619000Y-33020000D03*
X59619000Y-31750000D03*
X54669000Y-31750000D03*
X54669000Y-33020000D03*
X54669000Y-34290000D03*
X54669000Y-35560000D03*
X54669000Y-36830000D03*
X54669000Y-38100000D03*
X54669000Y-39370000D03*
D11*
X66272500Y-43180000D03*
X68347500Y-43180000D03*
D24*
X111395000Y-34544000D03*
X113395000Y-34544000D03*
D19*
X113665000Y-79404999D03*
D20*
X113665000Y-78104999D03*
D11*
X43391000Y-44323000D03*
X45466000Y-44323000D03*
D27*
X26797000Y-26661000D03*
X26797000Y-28711000D03*
D11*
X56112500Y-64135000D03*
X58187500Y-64135000D03*
X66294000Y-64135000D03*
X68369000Y-64135000D03*
D22*
X35560000Y-96287500D03*
X35560000Y-94212500D03*
D28*
X119045000Y-93145000D03*
X119045000Y-68145000D03*
D29*
X118745000Y-75105000D03*
D30*
X118745000Y-77875000D03*
X118745000Y-80645000D03*
X118745000Y-83415000D03*
X118745000Y-86185000D03*
X121585000Y-76490000D03*
X121585000Y-79260000D03*
X121585000Y-82030000D03*
X121585000Y-84800000D03*
D13*
X50800000Y-48895000D03*
D14*
X53340000Y-48895000D03*
X55880000Y-48895000D03*
X58420000Y-48895000D03*
X60960000Y-48895000D03*
X63500000Y-48895000D03*
X66040000Y-48895000D03*
X68580000Y-48895000D03*
D12*
X46228000Y-92434500D03*
X46228000Y-94509500D03*
D15*
X90105000Y-81915000D03*
X90105000Y-80645000D03*
X90105000Y-79375000D03*
X90105000Y-78105000D03*
X90105000Y-76835000D03*
X90105000Y-75565000D03*
X90105000Y-74295000D03*
X85155000Y-74295000D03*
X85155000Y-75565000D03*
X85155000Y-76835000D03*
X85155000Y-78105000D03*
X85155000Y-79375000D03*
X85155000Y-80645000D03*
X85155000Y-81915000D03*
D31*
X49100000Y-84455000D03*
X49100000Y-83185000D03*
X49100000Y-81915000D03*
X49100000Y-80645000D03*
X49100000Y-79375000D03*
X49100000Y-78105000D03*
X49100000Y-76835000D03*
X49100000Y-75565000D03*
X49100000Y-74295000D03*
X49100000Y-73025000D03*
X39800000Y-73025000D03*
X39800000Y-74295000D03*
X39800000Y-75565000D03*
X39800000Y-76835000D03*
X39800000Y-78105000D03*
X39800000Y-79375000D03*
X39800000Y-80645000D03*
X39800000Y-81915000D03*
X39800000Y-83185000D03*
X39800000Y-84455000D03*
D15*
X79945000Y-81915000D03*
X79945000Y-80645000D03*
X79945000Y-79375000D03*
X79945000Y-78105000D03*
X79945000Y-76835000D03*
X79945000Y-75565000D03*
X79945000Y-74295000D03*
X74995000Y-74295000D03*
X74995000Y-75565000D03*
X74995000Y-76835000D03*
X74995000Y-78105000D03*
X74995000Y-79375000D03*
X74995000Y-80645000D03*
X74995000Y-81915000D03*
D31*
X49100000Y-41275000D03*
X49100000Y-40005000D03*
X49100000Y-38735000D03*
X49100000Y-37465000D03*
X49100000Y-36195000D03*
X49100000Y-34925000D03*
X49100000Y-33655000D03*
X49100000Y-32385000D03*
X49100000Y-31115000D03*
X49100000Y-29845000D03*
X39800000Y-29845000D03*
X39800000Y-31115000D03*
X39800000Y-32385000D03*
X39800000Y-33655000D03*
X39800000Y-34925000D03*
X39800000Y-36195000D03*
X39800000Y-37465000D03*
X39800000Y-38735000D03*
X39800000Y-40005000D03*
X39800000Y-41275000D03*
D32*
X48260000Y-95920000D03*
X49530000Y-95920000D03*
X50800000Y-95920000D03*
X52070000Y-95920000D03*
X53340000Y-95920000D03*
X54610000Y-95920000D03*
X55880000Y-95920000D03*
X57150000Y-95920000D03*
X57150000Y-90770000D03*
X55880000Y-90770000D03*
X54610000Y-90770000D03*
X53340000Y-90770000D03*
X52070000Y-90770000D03*
X50800000Y-90770000D03*
X49530000Y-90770000D03*
X48260000Y-90770000D03*
D11*
X76411000Y-85090000D03*
X78486000Y-85090000D03*
D33*
X28028500Y-97917000D03*
X31153500Y-97917000D03*
D34*
X113665000Y-68565000D03*
D35*
X113665000Y-69865000D03*
D31*
X49100000Y-62865000D03*
X49100000Y-61595000D03*
X49100000Y-60325000D03*
X49100000Y-59055000D03*
X49100000Y-57785000D03*
X49100000Y-56515000D03*
X49100000Y-55245000D03*
X49100000Y-53975000D03*
X49100000Y-52705000D03*
X49100000Y-51435000D03*
X39800000Y-51435000D03*
X39800000Y-52705000D03*
X39800000Y-53975000D03*
X39800000Y-55245000D03*
X39800000Y-56515000D03*
X39800000Y-57785000D03*
X39800000Y-59055000D03*
X39800000Y-60325000D03*
X39800000Y-61595000D03*
X39800000Y-62865000D03*
D22*
X105410000Y-91969500D03*
X105410000Y-89894500D03*
D12*
X35560000Y-89640500D03*
X35560000Y-91715500D03*
D11*
X43391000Y-87249000D03*
X45466000Y-87249000D03*
D24*
X49165000Y-87646000D03*
X51165000Y-87646000D03*
D12*
X116205000Y-37316500D03*
X116205000Y-39391500D03*
X31242000Y-26648500D03*
X31242000Y-28723500D03*
D36*
X101922500Y-94985000D03*
X101922500Y-94335000D03*
X101922500Y-93685000D03*
X101922500Y-93035000D03*
X101922500Y-92385000D03*
X101922500Y-91735000D03*
X101922500Y-91085000D03*
X101922500Y-90435000D03*
X96197500Y-90435000D03*
X96197500Y-91085000D03*
X96197500Y-91735000D03*
X96197500Y-92385000D03*
X96197500Y-93035000D03*
X96197500Y-93685000D03*
X96197500Y-94335000D03*
X96197500Y-94985000D03*
D12*
X105410000Y-93704500D03*
X105410000Y-95779500D03*
D21*
X100097500Y-96774000D03*
X98022500Y-96774000D03*
D22*
X107061000Y-32533500D03*
X107061000Y-30458500D03*
D37*
X28956000Y-26686000D03*
X28956000Y-28686000D03*
D13*
X50800000Y-69850000D03*
D14*
X53340000Y-69850000D03*
X55880000Y-69850000D03*
X58420000Y-69850000D03*
X60960000Y-69850000D03*
X63500000Y-69850000D03*
X66040000Y-69850000D03*
X68580000Y-69850000D03*
D38*
X55610000Y-87630000D03*
X53610000Y-87630000D03*
X113395000Y-32639000D03*
X111395000Y-32639000D03*
D34*
X113665000Y-81914999D03*
D35*
X113665000Y-83214999D03*
D39*
X100647500Y-39684000D03*
X101282500Y-39684000D03*
X101917500Y-39684000D03*
X102552500Y-39684000D03*
X103187500Y-39684000D03*
X103822500Y-39684000D03*
X104457500Y-39684000D03*
X105092500Y-39684000D03*
X105727500Y-39684000D03*
X106362500Y-39684000D03*
X106362500Y-34484000D03*
X105727500Y-34484000D03*
X105092500Y-34484000D03*
X104457500Y-34484000D03*
X103822500Y-34484000D03*
X103187500Y-34484000D03*
X102552500Y-34484000D03*
X101917500Y-34484000D03*
X101282500Y-34484000D03*
X100647500Y-34484000D03*
D22*
X116205000Y-33676500D03*
X116205000Y-31601500D03*
D15*
X100265000Y-81915000D03*
X100265000Y-80645000D03*
X100265000Y-79375000D03*
X100265000Y-78105000D03*
X100265000Y-76835000D03*
X100265000Y-75565000D03*
X100265000Y-74295000D03*
X95315000Y-74295000D03*
X95315000Y-75565000D03*
X95315000Y-76835000D03*
X95315000Y-78105000D03*
X95315000Y-79375000D03*
X95315000Y-80645000D03*
X95315000Y-81915000D03*
D40*
X120780000Y-39210000D03*
X120780000Y-33430000D03*
D41*
X119705000Y-39520000D03*
X119705000Y-38720000D03*
D42*
X119705000Y-37570000D03*
X119705000Y-36570000D03*
X119705000Y-36070000D03*
X119705000Y-35070000D03*
D41*
X119705000Y-33120000D03*
X119705000Y-33920000D03*
D42*
X119705000Y-34570000D03*
X119705000Y-35570000D03*
X119705000Y-37070000D03*
X119705000Y-38070000D03*
D43*
X120280000Y-40640000D03*
X120280000Y-32000000D03*
D44*
X124460000Y-40640000D03*
X124460000Y-32000000D03*
D25*
X59725000Y-60960000D03*
X59725000Y-59690000D03*
X59725000Y-58420000D03*
X59725000Y-57150000D03*
X59725000Y-55880000D03*
X59725000Y-54610000D03*
X59725000Y-53340000D03*
X59725000Y-52070000D03*
X54575000Y-52070000D03*
X54575000Y-53340000D03*
X54575000Y-54610000D03*
X54575000Y-55880000D03*
X54575000Y-57150000D03*
X54575000Y-58420000D03*
X54575000Y-59690000D03*
X54575000Y-60960000D03*
D10*
X124460000Y-99060000D03*
D11*
X76432500Y-64135000D03*
X78507500Y-64135000D03*
D13*
X29845000Y-33020000D03*
X27305000Y-33020000D03*
X29845000Y-35560000D03*
X27305000Y-35560000D03*
X29845000Y-38100000D03*
X27305000Y-38100000D03*
X29845000Y-40640000D03*
X27305000Y-40640000D03*
X29845000Y-43180000D03*
X27305000Y-43180000D03*
X29845000Y-45720000D03*
X27305000Y-45720000D03*
X29845000Y-48260000D03*
X27305000Y-48260000D03*
X29845000Y-50800000D03*
X27305000Y-50800000D03*
X29845000Y-53340000D03*
X27305000Y-53340000D03*
X29845000Y-55880000D03*
X27305000Y-55880000D03*
X29845000Y-58420000D03*
X27305000Y-58420000D03*
X29845000Y-60960000D03*
X27305000Y-60960000D03*
X29845000Y-63500000D03*
X27305000Y-63500000D03*
X29845000Y-66040000D03*
X27305000Y-66040000D03*
X29845000Y-68580000D03*
X27305000Y-68580000D03*
X29845000Y-71120000D03*
X27305000Y-71120000D03*
X29845000Y-73660000D03*
X27305000Y-73660000D03*
X29845000Y-76200000D03*
X27305000Y-76200000D03*
X29845000Y-78740000D03*
X27305000Y-78740000D03*
X29845000Y-81280000D03*
X27305000Y-81280000D03*
X29845000Y-83820000D03*
X27305000Y-83820000D03*
X29845000Y-86360000D03*
X27305000Y-86360000D03*
X29845000Y-88900000D03*
X27305000Y-88900000D03*
X29845000Y-91440000D03*
X27305000Y-91440000D03*
X29845000Y-93980000D03*
X27305000Y-93980000D03*
X123190000Y-44450000D03*
D14*
X123190000Y-46990000D03*
X123190000Y-49530000D03*
X123190000Y-52070000D03*
X123190000Y-54610000D03*
X123190000Y-57150000D03*
X123190000Y-59690000D03*
X123190000Y-62230000D03*
M02*
