M48
; DRILL file {KiCad 7.0.10} date Thursday, January 04, 2024 at 10:09:35 am
; FORMAT={-:-/ absolute / metric / decimal}
; #@! TF.CreationDate,2024-01-04T10:09:35+01:00
; #@! TF.GenerationSoftware,Kicad,Pcbnew,7.0.10
; #@! TF.FileFunction,Plated,1,4,PTH
FMAT,2
METRIC
; #@! TA.AperFunction,Plated,PTH,ViaDrill
T1C0.300
; #@! TA.AperFunction,Plated,PTH,ViaDrill
T2C0.500
; #@! TA.AperFunction,Plated,PTH,ComponentDrill
T3C1.000
%
G90
G05
T1
X31.877Y-31.496
X34.417Y-62.23
X34.417Y-65.405
X34.417Y-80.01
X34.417Y-83.185
X34.417Y-97.79
X35.687Y-37.592
X36.322Y-35.052
X36.957Y-34.544
X36.957Y-38.608
X37.592Y-37.592
X38.227Y-38.608
X38.862Y-37.846
X39.37Y-34.544
X39.751Y-37.846
X40.132Y-28.448
X40.132Y-35.052
X42.037Y-68.58
X42.037Y-79.375
X42.545Y-38.354
X43.307Y-38.354
X43.307Y-61.722
X43.942Y-28.448
X43.942Y-52.07
X43.942Y-53.34
X43.942Y-54.61
X43.942Y-55.88
X43.942Y-57.15
X43.942Y-58.42
X43.942Y-59.69
X43.942Y-60.96
X43.942Y-69.85
X43.942Y-71.12
X43.942Y-72.39
X43.942Y-73.66
X43.942Y-74.93
X43.942Y-76.2
X43.942Y-77.47
X43.942Y-78.74
X43.942Y-87.63
X43.942Y-88.9
X43.942Y-90.17
X43.942Y-91.44
X43.942Y-92.71
X43.942Y-93.98
X43.942Y-95.25
X43.942Y-96.52
X44.577Y-37.465
X44.704Y-50.038
X45.466Y-65.405
X45.466Y-83.185
X45.466Y-98.679
X46.482Y-28.448
X46.863Y-50.8
X46.863Y-53.34
X46.863Y-55.88
X46.863Y-58.42
X46.863Y-60.96
X46.863Y-68.58
X46.863Y-71.12
X46.863Y-73.66
X46.863Y-76.2
X46.863Y-78.74
X46.863Y-86.36
X46.863Y-88.9
X46.863Y-91.44
X46.863Y-93.98
X46.863Y-96.52
X49.022Y-37.592
X49.657Y-35.052
X50.292Y-34.544
X50.292Y-38.608
X50.927Y-37.592
X51.562Y-38.608
X52.197Y-37.846
X52.324Y-45.72
X52.705Y-34.544
X52.959Y-46.355
X53.086Y-37.846
X53.467Y-28.448
X53.467Y-35.052
X53.467Y-50.038
X53.467Y-61.595
X53.467Y-79.375
X53.467Y-97.155
X53.594Y-45.72
X53.975Y-50.8
X53.975Y-68.58
X53.975Y-80.899
X54.229Y-46.355
X54.737Y-62.23
X54.737Y-65.405
X54.737Y-80.01
X54.737Y-83.185
X54.737Y-97.79
X55.372Y-45.72
X55.88Y-38.354
X56.007Y-46.355
X56.642Y-38.354
X56.642Y-45.72
X57.277Y-28.448
X57.277Y-46.355
X57.785Y-33.401
X58.293Y-37.846
X58.42Y-45.72
X59.055Y-46.355
X59.69Y-45.72
X59.817Y-28.448
X60.325Y-46.355
X61.468Y-45.72
X62.103Y-46.355
X62.357Y-37.592
X62.738Y-45.72
X62.992Y-35.052
X63.373Y-46.355
X63.627Y-34.544
X63.627Y-38.608
X64.262Y-37.592
X64.262Y-52.07
X64.262Y-53.34
X64.262Y-54.61
X64.262Y-55.88
X64.262Y-57.15
X64.262Y-58.42
X64.262Y-59.69
X64.262Y-60.96
X64.262Y-62.23
X64.262Y-69.85
X64.262Y-71.12
X64.262Y-72.39
X64.262Y-73.66
X64.262Y-74.93
X64.262Y-76.2
X64.262Y-77.47
X64.262Y-78.74
X64.262Y-80.01
X64.262Y-87.63
X64.262Y-88.9
X64.262Y-90.17
X64.262Y-91.44
X64.262Y-92.71
X64.262Y-93.98
X64.262Y-95.25
X64.262Y-96.52
X64.262Y-97.79
X64.516Y-45.72
X64.897Y-38.608
X65.151Y-46.355
X65.532Y-37.846
X65.786Y-45.72
X65.786Y-65.405
X65.786Y-83.185
X65.786Y-98.679
X66.04Y-34.544
X66.421Y-37.846
X66.421Y-46.355
X66.802Y-28.448
X66.802Y-35.052
X67.183Y-50.8
X67.183Y-53.34
X67.183Y-55.88
X67.183Y-58.42
X67.183Y-60.96
X67.183Y-62.23
X67.183Y-71.12
X67.183Y-73.66
X67.183Y-76.2
X67.183Y-78.74
X67.183Y-86.36
X67.183Y-88.9
X67.183Y-91.44
X67.183Y-93.98
X67.183Y-96.52
X67.437Y-68.58
X67.564Y-45.72
X68.072Y-50.8
X68.199Y-46.355
X68.834Y-45.72
X69.215Y-38.354
X69.469Y-46.355
X69.977Y-38.354
X70.612Y-28.448
X70.866Y-34.29
X71.374Y-37.846
X73.152Y-28.448
X75.057Y-50.8
X75.057Y-62.23
X75.057Y-65.405
X75.057Y-68.58
X75.057Y-80.01
X75.057Y-83.185
X75.057Y-86.36
X75.057Y-97.79
X75.692Y-37.592
X76.327Y-35.052
X76.962Y-34.544
X76.962Y-38.608
X77.597Y-37.592
X78.232Y-38.608
X78.232Y-58.42
X78.232Y-59.69
X78.232Y-71.12
X78.232Y-72.39
X78.232Y-76.2
X78.232Y-77.47
X78.232Y-88.9
X78.232Y-90.17
X78.232Y-93.98
X78.232Y-95.25
X78.232Y-96.52
X78.232Y-97.79
X78.74Y-54.61
X78.867Y-37.846
X78.994Y-53.34
X79.375Y-34.544
X79.756Y-37.846
X80.137Y-28.448
X80.137Y-35.052
X80.645Y-91.44
X80.645Y-92.71
X81.661Y-80.264
X82.169Y-80.899
X82.55Y-38.354
X83.312Y-38.354
X83.566Y-73.66
X83.566Y-74.93
X83.947Y-28.448
X84.328Y-34.417
X84.328Y-60.96
X84.328Y-62.23
X84.455Y-69.85
X84.455Y-87.63
X84.709Y-52.07
X85.09Y-37.846
X86.106Y-65.405
X86.106Y-83.185
X86.106Y-98.679
X86.487Y-28.448
X87.503Y-50.8
X87.503Y-86.36
X87.63Y-55.88
X87.63Y-57.15
X87.63Y-68.58
X89.027Y-37.592
X89.662Y-35.052
X90.297Y-34.544
X90.297Y-38.608
X90.932Y-37.592
X91.567Y-38.608
X92.202Y-37.846
X92.71Y-34.544
X93.091Y-37.846
X93.472Y-28.448
X93.472Y-35.052
X95.123Y-90.17
X95.25Y-72.39
X95.885Y-38.354
X96.647Y-38.354
X97.282Y-28.448
X97.79Y-34.798
X98.171Y-54.61
X98.171Y-55.88
X98.171Y-57.15
X98.171Y-59.69
X98.171Y-63.5
X98.171Y-77.47
X98.171Y-81.28
X98.171Y-95.25
X99.822Y-28.448
X100.203Y-52.07
X100.203Y-63.5
X100.203Y-69.85
X100.203Y-81.28
X100.203Y-87.63
X100.203Y-98.552
X102.362Y-37.592
X102.997Y-35.052
X103.632Y-34.544
X103.632Y-38.608
X104.267Y-37.592
X104.267Y-53.34
X104.267Y-79.375
X104.902Y-38.608
X105.537Y-37.846
X106.045Y-34.544
X106.426Y-37.846
X106.807Y-28.448
X106.807Y-35.052
X107.95Y-38.481
X108.331Y-59.69
X108.331Y-63.5
X108.331Y-77.47
X108.331Y-81.28
X109.22Y-39.751
X109.982Y-38.481
X109.982Y-39.751
X110.363Y-52.07
X110.363Y-57.15
X110.363Y-58.42
X110.363Y-63.5
X110.363Y-69.85
X110.363Y-81.28
X110.363Y-98.552
X110.617Y-28.448
X113.157Y-28.448
X114.3Y-76.2
X114.3Y-78.74
X114.3Y-81.28
X114.3Y-83.82
X114.3Y-86.36
X114.3Y-88.9
X114.3Y-91.44
X120.142Y-48.514
X120.142Y-50.546
X120.65Y-76.2
X120.65Y-78.74
X120.65Y-88.9
X120.65Y-91.44
X121.158Y-51.054
X121.412Y-48.768
X121.412Y-50.292
X122.428Y-51.054
T2
X30.099Y-27.695
T3
X27.305Y-33.02
X27.305Y-35.56
X27.305Y-38.1
X27.305Y-40.64
X27.305Y-43.18
X27.305Y-45.72
X27.305Y-48.26
X27.305Y-50.8
X27.305Y-53.34
X27.305Y-55.88
X27.305Y-58.42
X27.305Y-60.96
X27.305Y-63.5
X27.305Y-66.04
X27.305Y-68.58
X27.305Y-71.12
X27.305Y-73.66
X27.305Y-76.2
X27.305Y-78.74
X27.305Y-81.28
X27.305Y-83.82
X27.305Y-86.36
X27.305Y-88.9
X27.305Y-91.44
X27.305Y-93.98
X29.845Y-33.02
X29.845Y-35.56
X29.845Y-38.1
X29.845Y-40.64
X29.845Y-43.18
X29.845Y-45.72
X29.845Y-48.26
X29.845Y-50.8
X29.845Y-53.34
X29.845Y-55.88
X29.845Y-58.42
X29.845Y-60.96
X29.845Y-63.5
X29.845Y-66.04
X29.845Y-68.58
X29.845Y-71.12
X29.845Y-73.66
X29.845Y-76.2
X29.845Y-78.74
X29.845Y-81.28
X29.845Y-83.82
X29.845Y-86.36
X29.845Y-88.9
X29.845Y-91.44
X29.845Y-93.98
X49.657Y-52.07
X49.657Y-54.61
X49.657Y-57.15
X49.657Y-59.69
X49.657Y-69.85
X49.657Y-72.39
X49.657Y-74.93
X49.657Y-77.47
X49.657Y-87.63
X49.657Y-90.17
X49.657Y-92.71
X49.657Y-95.25
X52.197Y-52.07
X52.197Y-54.61
X52.197Y-57.15
X52.197Y-59.69
X52.197Y-69.85
X52.197Y-72.39
X52.197Y-74.93
X52.197Y-77.47
X52.197Y-87.63
X52.197Y-90.17
X52.197Y-92.71
X52.197Y-95.25
X69.977Y-52.07
X69.977Y-54.61
X69.977Y-57.15
X69.977Y-59.69
X69.977Y-69.85
X69.977Y-72.39
X69.977Y-74.93
X69.977Y-77.47
X69.977Y-87.63
X69.977Y-90.17
X69.977Y-92.71
X69.977Y-95.25
X72.517Y-52.07
X72.517Y-54.61
X72.517Y-57.15
X72.517Y-59.69
X72.517Y-69.85
X72.517Y-72.39
X72.517Y-74.93
X72.517Y-77.47
X72.517Y-87.63
X72.517Y-90.17
X72.517Y-92.71
X72.517Y-95.25
X90.297Y-52.07
X90.297Y-54.61
X90.297Y-57.15
X90.297Y-59.69
X90.297Y-69.85
X90.297Y-72.39
X90.297Y-74.93
X90.297Y-77.47
X90.297Y-87.63
X90.297Y-90.17
X90.297Y-92.71
X90.297Y-95.25
X92.837Y-52.07
X92.837Y-54.61
X92.837Y-57.15
X92.837Y-59.69
X92.837Y-69.85
X92.837Y-72.39
X92.837Y-74.93
X92.837Y-77.47
X92.837Y-87.63
X92.837Y-90.17
X92.837Y-92.71
X92.837Y-95.25
X123.19Y-54.61
X123.19Y-57.15
X123.19Y-59.69
X123.19Y-62.23
X123.19Y-64.77
X123.19Y-67.31
X123.19Y-69.85
X123.19Y-72.39
M30
