G04 #@! TF.GenerationSoftware,KiCad,Pcbnew,7.0.10*
G04 #@! TF.CreationDate,2024-01-04T10:09:30+01:00*
G04 #@! TF.ProjectId,LatchedSubtractor,4c617463-6865-4645-9375-627472616374,rev?*
G04 #@! TF.SameCoordinates,Original*
G04 #@! TF.FileFunction,Paste,Top*
G04 #@! TF.FilePolarity,Positive*
%FSLAX46Y46*%
G04 Gerber Fmt 4.6, Leading zero omitted, Abs format (unit mm)*
G04 Created by KiCad (PCBNEW 7.0.10) date 2024-01-04 10:09:30*
%MOMM*%
%LPD*%
G01*
G04 APERTURE LIST*
G04 Aperture macros list*
%AMRoundRect*
0 Rectangle with rounded corners*
0 $1 Rounding radius*
0 $2 $3 $4 $5 $6 $7 $8 $9 X,Y pos of 4 corners*
0 Add a 4 corners polygon primitive as box body*
4,1,4,$2,$3,$4,$5,$6,$7,$8,$9,$2,$3,0*
0 Add four circle primitives for the rounded corners*
1,1,$1+$1,$2,$3*
1,1,$1+$1,$4,$5*
1,1,$1+$1,$6,$7*
1,1,$1+$1,$8,$9*
0 Add four rect primitives between the rounded corners*
20,1,$1+$1,$2,$3,$4,$5,0*
20,1,$1+$1,$4,$5,$6,$7,0*
20,1,$1+$1,$6,$7,$8,$9,0*
20,1,$1+$1,$8,$9,$2,$3,0*%
G04 Aperture macros list end*
%ADD10RoundRect,0.150000X-0.875000X-0.150000X0.875000X-0.150000X0.875000X0.150000X-0.875000X0.150000X0*%
%ADD11RoundRect,0.250000X-0.475000X0.337500X-0.475000X-0.337500X0.475000X-0.337500X0.475000X0.337500X0*%
%ADD12RoundRect,0.250000X-0.350000X-0.450000X0.350000X-0.450000X0.350000X0.450000X-0.350000X0.450000X0*%
%ADD13RoundRect,0.250000X-0.325000X-0.450000X0.325000X-0.450000X0.325000X0.450000X-0.325000X0.450000X0*%
%ADD14RoundRect,0.150000X-0.825000X-0.150000X0.825000X-0.150000X0.825000X0.150000X-0.825000X0.150000X0*%
%ADD15RoundRect,0.137500X0.137500X-0.662500X0.137500X0.662500X-0.137500X0.662500X-0.137500X-0.662500X0*%
%ADD16RoundRect,0.250000X0.337500X0.475000X-0.337500X0.475000X-0.337500X-0.475000X0.337500X-0.475000X0*%
%ADD17RoundRect,0.250000X-0.450000X0.325000X-0.450000X-0.325000X0.450000X-0.325000X0.450000X0.325000X0*%
%ADD18RoundRect,0.250000X-0.450000X0.350000X-0.450000X-0.350000X0.450000X-0.350000X0.450000X0.350000X0*%
%ADD19RoundRect,0.250000X-0.412500X-0.650000X0.412500X-0.650000X0.412500X0.650000X-0.412500X0.650000X0*%
G04 APERTURE END LIST*
D10*
X76757000Y-68580000D03*
X76757000Y-69850000D03*
X76757000Y-71120000D03*
X76757000Y-72390000D03*
X76757000Y-73660000D03*
X76757000Y-74930000D03*
X76757000Y-76200000D03*
X76757000Y-77470000D03*
X76757000Y-78740000D03*
X76757000Y-80010000D03*
X86057000Y-80010000D03*
X86057000Y-78740000D03*
X86057000Y-77470000D03*
X86057000Y-76200000D03*
X86057000Y-74930000D03*
X86057000Y-73660000D03*
X86057000Y-72390000D03*
X86057000Y-71120000D03*
X86057000Y-69850000D03*
X86057000Y-68580000D03*
D11*
X34163000Y-31982500D03*
X34163000Y-34057500D03*
D10*
X56437000Y-68580000D03*
X56437000Y-69850000D03*
X56437000Y-71120000D03*
X56437000Y-72390000D03*
X56437000Y-73660000D03*
X56437000Y-74930000D03*
X56437000Y-76200000D03*
X56437000Y-77470000D03*
X56437000Y-78740000D03*
X56437000Y-80010000D03*
X65737000Y-80010000D03*
X65737000Y-78740000D03*
X65737000Y-77470000D03*
X65737000Y-76200000D03*
X65737000Y-74930000D03*
X65737000Y-73660000D03*
X65737000Y-72390000D03*
X65737000Y-71120000D03*
X65737000Y-69850000D03*
X65737000Y-68580000D03*
D12*
X115840000Y-81280000D03*
X117840000Y-81280000D03*
D13*
X119625000Y-83820000D03*
X121675000Y-83820000D03*
D14*
X106934000Y-52070000D03*
X106934000Y-53340000D03*
X106934000Y-54610000D03*
X106934000Y-55880000D03*
X106934000Y-57150000D03*
X106934000Y-58420000D03*
X106934000Y-59690000D03*
X111884000Y-59690000D03*
X111884000Y-58420000D03*
X111884000Y-57150000D03*
X111884000Y-55880000D03*
X111884000Y-54610000D03*
X111884000Y-53340000D03*
X111884000Y-52070000D03*
D12*
X115840000Y-88900000D03*
X117840000Y-88900000D03*
D13*
X119625000Y-86360000D03*
X121675000Y-86360000D03*
D10*
X56437000Y-86360000D03*
X56437000Y-87630000D03*
X56437000Y-88900000D03*
X56437000Y-90170000D03*
X56437000Y-91440000D03*
X56437000Y-92710000D03*
X56437000Y-93980000D03*
X56437000Y-95250000D03*
X56437000Y-96520000D03*
X56437000Y-97790000D03*
X65737000Y-97790000D03*
X65737000Y-96520000D03*
X65737000Y-95250000D03*
X65737000Y-93980000D03*
X65737000Y-92710000D03*
X65737000Y-91440000D03*
X65737000Y-90170000D03*
X65737000Y-88900000D03*
X65737000Y-87630000D03*
X65737000Y-86360000D03*
D15*
X62992000Y-36270000D03*
X64262000Y-36270000D03*
X65532000Y-36270000D03*
X66802000Y-36270000D03*
X68072000Y-36270000D03*
X69342000Y-36270000D03*
X70612000Y-36270000D03*
X71882000Y-36270000D03*
X71882000Y-29770000D03*
X70612000Y-29770000D03*
X69342000Y-29770000D03*
X68072000Y-29770000D03*
X66802000Y-29770000D03*
X65532000Y-29770000D03*
X64262000Y-29770000D03*
X62992000Y-29770000D03*
D13*
X119625000Y-78740000D03*
X121675000Y-78740000D03*
X119625000Y-88900000D03*
X121675000Y-88900000D03*
D16*
X100203000Y-64770000D03*
X98128000Y-64770000D03*
X110384500Y-82550000D03*
X108309500Y-82550000D03*
D15*
X49657000Y-36270000D03*
X50927000Y-36270000D03*
X52197000Y-36270000D03*
X53467000Y-36270000D03*
X54737000Y-36270000D03*
X56007000Y-36270000D03*
X57277000Y-36270000D03*
X58547000Y-36270000D03*
X58547000Y-29770000D03*
X57277000Y-29770000D03*
X56007000Y-29770000D03*
X54737000Y-29770000D03*
X53467000Y-29770000D03*
X52197000Y-29770000D03*
X50927000Y-29770000D03*
X49657000Y-29770000D03*
D10*
X76757000Y-86360000D03*
X76757000Y-87630000D03*
X76757000Y-88900000D03*
X76757000Y-90170000D03*
X76757000Y-91440000D03*
X76757000Y-92710000D03*
X76757000Y-93980000D03*
X76757000Y-95250000D03*
X76757000Y-96520000D03*
X76757000Y-97790000D03*
X86057000Y-97790000D03*
X86057000Y-96520000D03*
X86057000Y-95250000D03*
X86057000Y-93980000D03*
X86057000Y-92710000D03*
X86057000Y-91440000D03*
X86057000Y-90170000D03*
X86057000Y-88900000D03*
X86057000Y-87630000D03*
X86057000Y-86360000D03*
D16*
X62124500Y-83185000D03*
X60049500Y-83185000D03*
D17*
X26797000Y-26661000D03*
X26797000Y-28711000D03*
D10*
X76757000Y-50800000D03*
X76757000Y-52070000D03*
X76757000Y-53340000D03*
X76757000Y-54610000D03*
X76757000Y-55880000D03*
X76757000Y-57150000D03*
X76757000Y-58420000D03*
X76757000Y-59690000D03*
X76757000Y-60960000D03*
X76757000Y-62230000D03*
X86057000Y-62230000D03*
X86057000Y-60960000D03*
X86057000Y-59690000D03*
X86057000Y-58420000D03*
X86057000Y-57150000D03*
X86057000Y-55880000D03*
X86057000Y-54610000D03*
X86057000Y-53340000D03*
X86057000Y-52070000D03*
X86057000Y-50800000D03*
D12*
X115840000Y-78740000D03*
X117840000Y-78740000D03*
X115840000Y-91440000D03*
X117840000Y-91440000D03*
D10*
X36117000Y-50800000D03*
X36117000Y-52070000D03*
X36117000Y-53340000D03*
X36117000Y-54610000D03*
X36117000Y-55880000D03*
X36117000Y-57150000D03*
X36117000Y-58420000D03*
X36117000Y-59690000D03*
X36117000Y-60960000D03*
X36117000Y-62230000D03*
X45417000Y-62230000D03*
X45417000Y-60960000D03*
X45417000Y-59690000D03*
X45417000Y-58420000D03*
X45417000Y-57150000D03*
X45417000Y-55880000D03*
X45417000Y-54610000D03*
X45417000Y-53340000D03*
X45417000Y-52070000D03*
X45417000Y-50800000D03*
D14*
X96712000Y-52070000D03*
X96712000Y-53340000D03*
X96712000Y-54610000D03*
X96712000Y-55880000D03*
X96712000Y-57150000D03*
X96712000Y-58420000D03*
X96712000Y-59690000D03*
X101662000Y-59690000D03*
X101662000Y-58420000D03*
X101662000Y-57150000D03*
X101662000Y-55880000D03*
X101662000Y-54610000D03*
X101662000Y-53340000D03*
X101662000Y-52070000D03*
D18*
X28956000Y-26711000D03*
X28956000Y-28711000D03*
D15*
X36322000Y-36270000D03*
X37592000Y-36270000D03*
X38862000Y-36270000D03*
X40132000Y-36270000D03*
X41402000Y-36270000D03*
X42672000Y-36270000D03*
X43942000Y-36270000D03*
X45212000Y-36270000D03*
X45212000Y-29770000D03*
X43942000Y-29770000D03*
X42672000Y-29770000D03*
X41402000Y-29770000D03*
X40132000Y-29770000D03*
X38862000Y-29770000D03*
X37592000Y-29770000D03*
X36322000Y-29770000D03*
D11*
X47498000Y-31982500D03*
X47498000Y-34057500D03*
D16*
X41804500Y-83185000D03*
X39729500Y-83185000D03*
X82444500Y-65405000D03*
X80369500Y-65405000D03*
D14*
X96712000Y-87630000D03*
X96712000Y-88900000D03*
X96712000Y-90170000D03*
X96712000Y-91440000D03*
X96712000Y-92710000D03*
X96712000Y-93980000D03*
X96712000Y-95250000D03*
X101662000Y-95250000D03*
X101662000Y-93980000D03*
X101662000Y-92710000D03*
X101662000Y-91440000D03*
X101662000Y-90170000D03*
X101662000Y-88900000D03*
X101662000Y-87630000D03*
D16*
X82444500Y-83185000D03*
X80369500Y-83185000D03*
X41804500Y-65405000D03*
X39729500Y-65405000D03*
D10*
X56437000Y-50800000D03*
X56437000Y-52070000D03*
X56437000Y-53340000D03*
X56437000Y-54610000D03*
X56437000Y-55880000D03*
X56437000Y-57150000D03*
X56437000Y-58420000D03*
X56437000Y-59690000D03*
X56437000Y-60960000D03*
X56437000Y-62230000D03*
X65737000Y-62230000D03*
X65737000Y-60960000D03*
X65737000Y-59690000D03*
X65737000Y-58420000D03*
X65737000Y-57150000D03*
X65737000Y-55880000D03*
X65737000Y-54610000D03*
X65737000Y-53340000D03*
X65737000Y-52070000D03*
X65737000Y-50800000D03*
X36117000Y-86360000D03*
X36117000Y-87630000D03*
X36117000Y-88900000D03*
X36117000Y-90170000D03*
X36117000Y-91440000D03*
X36117000Y-92710000D03*
X36117000Y-93980000D03*
X36117000Y-95250000D03*
X36117000Y-96520000D03*
X36117000Y-97790000D03*
X45417000Y-97790000D03*
X45417000Y-96520000D03*
X45417000Y-95250000D03*
X45417000Y-93980000D03*
X45417000Y-92710000D03*
X45417000Y-91440000D03*
X45417000Y-90170000D03*
X45417000Y-88900000D03*
X45417000Y-87630000D03*
X45417000Y-86360000D03*
D16*
X110384500Y-64770000D03*
X108309500Y-64770000D03*
D14*
X106872000Y-69850000D03*
X106872000Y-71120000D03*
X106872000Y-72390000D03*
X106872000Y-73660000D03*
X106872000Y-74930000D03*
X106872000Y-76200000D03*
X106872000Y-77470000D03*
X111822000Y-77470000D03*
X111822000Y-76200000D03*
X111822000Y-74930000D03*
X111822000Y-73660000D03*
X111822000Y-72390000D03*
X111822000Y-71120000D03*
X111822000Y-69850000D03*
D11*
X60833000Y-31982500D03*
X60833000Y-34057500D03*
D16*
X100224500Y-82550000D03*
X98149500Y-82550000D03*
D10*
X36117000Y-68580000D03*
X36117000Y-69850000D03*
X36117000Y-71120000D03*
X36117000Y-72390000D03*
X36117000Y-73660000D03*
X36117000Y-74930000D03*
X36117000Y-76200000D03*
X36117000Y-77470000D03*
X36117000Y-78740000D03*
X36117000Y-80010000D03*
X45417000Y-80010000D03*
X45417000Y-78740000D03*
X45417000Y-77470000D03*
X45417000Y-76200000D03*
X45417000Y-74930000D03*
X45417000Y-73660000D03*
X45417000Y-72390000D03*
X45417000Y-71120000D03*
X45417000Y-69850000D03*
X45417000Y-68580000D03*
D15*
X102997000Y-36270000D03*
X104267000Y-36270000D03*
X105537000Y-36270000D03*
X106807000Y-36270000D03*
X108077000Y-36270000D03*
X109347000Y-36270000D03*
X110617000Y-36270000D03*
X111887000Y-36270000D03*
X111887000Y-29770000D03*
X110617000Y-29770000D03*
X109347000Y-29770000D03*
X108077000Y-29770000D03*
X106807000Y-29770000D03*
X105537000Y-29770000D03*
X104267000Y-29770000D03*
X102997000Y-29770000D03*
D12*
X115840000Y-86360000D03*
X117840000Y-86360000D03*
D15*
X89662000Y-36270000D03*
X90932000Y-36270000D03*
X92202000Y-36270000D03*
X93472000Y-36270000D03*
X94742000Y-36270000D03*
X96012000Y-36270000D03*
X97282000Y-36270000D03*
X98552000Y-36270000D03*
X98552000Y-29770000D03*
X97282000Y-29770000D03*
X96012000Y-29770000D03*
X94742000Y-29770000D03*
X93472000Y-29770000D03*
X92202000Y-29770000D03*
X90932000Y-29770000D03*
X89662000Y-29770000D03*
D16*
X62124500Y-65405000D03*
X60049500Y-65405000D03*
D15*
X76327000Y-36270000D03*
X77597000Y-36270000D03*
X78867000Y-36270000D03*
X80137000Y-36270000D03*
X81407000Y-36270000D03*
X82677000Y-36270000D03*
X83947000Y-36270000D03*
X85217000Y-36270000D03*
X85217000Y-29770000D03*
X83947000Y-29770000D03*
X82677000Y-29770000D03*
X81407000Y-29770000D03*
X80137000Y-29770000D03*
X78867000Y-29770000D03*
X77597000Y-29770000D03*
X76327000Y-29770000D03*
D11*
X31242000Y-26636000D03*
X31242000Y-28711000D03*
D19*
X28028500Y-97917000D03*
X31153500Y-97917000D03*
D13*
X119625000Y-81280000D03*
X121675000Y-81280000D03*
D11*
X87503000Y-31982500D03*
X87503000Y-34057500D03*
X100838000Y-31982500D03*
X100838000Y-34057500D03*
D13*
X119625000Y-76200000D03*
X121675000Y-76200000D03*
D12*
X115840000Y-76200000D03*
X117840000Y-76200000D03*
D13*
X119625000Y-91440000D03*
X121675000Y-91440000D03*
D14*
X96712000Y-69850000D03*
X96712000Y-71120000D03*
X96712000Y-72390000D03*
X96712000Y-73660000D03*
X96712000Y-74930000D03*
X96712000Y-76200000D03*
X96712000Y-77470000D03*
X101662000Y-77470000D03*
X101662000Y-76200000D03*
X101662000Y-74930000D03*
X101662000Y-73660000D03*
X101662000Y-72390000D03*
X101662000Y-71120000D03*
X101662000Y-69850000D03*
D12*
X115840000Y-83820000D03*
X117840000Y-83820000D03*
D11*
X74168000Y-31982500D03*
X74168000Y-34057500D03*
M02*
