G04 #@! TF.GenerationSoftware,KiCad,Pcbnew,7.0.10*
G04 #@! TF.CreationDate,2024-01-04T10:09:30+01:00*
G04 #@! TF.ProjectId,LatchedSubtractor,4c617463-6865-4645-9375-627472616374,rev?*
G04 #@! TF.SameCoordinates,Original*
G04 #@! TF.FileFunction,Copper,L1,Top*
G04 #@! TF.FilePolarity,Positive*
%FSLAX46Y46*%
G04 Gerber Fmt 4.6, Leading zero omitted, Abs format (unit mm)*
G04 Created by KiCad (PCBNEW 7.0.10) date 2024-01-04 10:09:30*
%MOMM*%
%LPD*%
G01*
G04 APERTURE LIST*
G04 Aperture macros list*
%AMRoundRect*
0 Rectangle with rounded corners*
0 $1 Rounding radius*
0 $2 $3 $4 $5 $6 $7 $8 $9 X,Y pos of 4 corners*
0 Add a 4 corners polygon primitive as box body*
4,1,4,$2,$3,$4,$5,$6,$7,$8,$9,$2,$3,0*
0 Add four circle primitives for the rounded corners*
1,1,$1+$1,$2,$3*
1,1,$1+$1,$4,$5*
1,1,$1+$1,$6,$7*
1,1,$1+$1,$8,$9*
0 Add four rect primitives between the rounded corners*
20,1,$1+$1,$2,$3,$4,$5,0*
20,1,$1+$1,$4,$5,$6,$7,0*
20,1,$1+$1,$6,$7,$8,$9,0*
20,1,$1+$1,$8,$9,$2,$3,0*%
G04 Aperture macros list end*
G04 #@! TA.AperFunction,ComponentPad*
%ADD10R,1.700000X1.700000*%
G04 #@! TD*
G04 #@! TA.AperFunction,ComponentPad*
%ADD11O,1.700000X1.700000*%
G04 #@! TD*
G04 #@! TA.AperFunction,SMDPad,CuDef*
%ADD12RoundRect,0.150000X-0.875000X-0.150000X0.875000X-0.150000X0.875000X0.150000X-0.875000X0.150000X0*%
G04 #@! TD*
G04 #@! TA.AperFunction,SMDPad,CuDef*
%ADD13RoundRect,0.250000X-0.475000X0.337500X-0.475000X-0.337500X0.475000X-0.337500X0.475000X0.337500X0*%
G04 #@! TD*
G04 #@! TA.AperFunction,SMDPad,CuDef*
%ADD14RoundRect,0.250000X-0.350000X-0.450000X0.350000X-0.450000X0.350000X0.450000X-0.350000X0.450000X0*%
G04 #@! TD*
G04 #@! TA.AperFunction,SMDPad,CuDef*
%ADD15RoundRect,0.250000X-0.325000X-0.450000X0.325000X-0.450000X0.325000X0.450000X-0.325000X0.450000X0*%
G04 #@! TD*
G04 #@! TA.AperFunction,SMDPad,CuDef*
%ADD16RoundRect,0.150000X-0.825000X-0.150000X0.825000X-0.150000X0.825000X0.150000X-0.825000X0.150000X0*%
G04 #@! TD*
G04 #@! TA.AperFunction,SMDPad,CuDef*
%ADD17RoundRect,0.137500X0.137500X-0.662500X0.137500X0.662500X-0.137500X0.662500X-0.137500X-0.662500X0*%
G04 #@! TD*
G04 #@! TA.AperFunction,SMDPad,CuDef*
%ADD18RoundRect,0.250000X0.337500X0.475000X-0.337500X0.475000X-0.337500X-0.475000X0.337500X-0.475000X0*%
G04 #@! TD*
G04 #@! TA.AperFunction,SMDPad,CuDef*
%ADD19RoundRect,0.250000X-0.450000X0.325000X-0.450000X-0.325000X0.450000X-0.325000X0.450000X0.325000X0*%
G04 #@! TD*
G04 #@! TA.AperFunction,SMDPad,CuDef*
%ADD20RoundRect,0.250000X-0.450000X0.350000X-0.450000X-0.350000X0.450000X-0.350000X0.450000X0.350000X0*%
G04 #@! TD*
G04 #@! TA.AperFunction,SMDPad,CuDef*
%ADD21RoundRect,0.250000X-0.412500X-0.650000X0.412500X-0.650000X0.412500X0.650000X-0.412500X0.650000X0*%
G04 #@! TD*
G04 #@! TA.AperFunction,ViaPad*
%ADD22C,0.600000*%
G04 #@! TD*
G04 #@! TA.AperFunction,ViaPad*
%ADD23C,0.900000*%
G04 #@! TD*
G04 #@! TA.AperFunction,Conductor*
%ADD24C,0.400000*%
G04 #@! TD*
G04 #@! TA.AperFunction,Conductor*
%ADD25C,0.127000*%
G04 #@! TD*
G04 #@! TA.AperFunction,Conductor*
%ADD26C,0.406400*%
G04 #@! TD*
G04 #@! TA.AperFunction,Conductor*
%ADD27C,1.500000*%
G04 #@! TD*
G04 APERTURE END LIST*
D10*
X90297000Y-52070000D03*
D11*
X92837000Y-52070000D03*
X90297000Y-54610000D03*
X92837000Y-54610000D03*
X90297000Y-57150000D03*
X92837000Y-57150000D03*
X90297000Y-59690000D03*
X92837000Y-59690000D03*
D12*
X76757000Y-68580000D03*
X76757000Y-69850000D03*
X76757000Y-71120000D03*
X76757000Y-72390000D03*
X76757000Y-73660000D03*
X76757000Y-74930000D03*
X76757000Y-76200000D03*
X76757000Y-77470000D03*
X76757000Y-78740000D03*
X76757000Y-80010000D03*
X86057000Y-80010000D03*
X86057000Y-78740000D03*
X86057000Y-77470000D03*
X86057000Y-76200000D03*
X86057000Y-74930000D03*
X86057000Y-73660000D03*
X86057000Y-72390000D03*
X86057000Y-71120000D03*
X86057000Y-69850000D03*
X86057000Y-68580000D03*
D13*
X34163000Y-31982500D03*
X34163000Y-34057500D03*
D12*
X56437000Y-68580000D03*
X56437000Y-69850000D03*
X56437000Y-71120000D03*
X56437000Y-72390000D03*
X56437000Y-73660000D03*
X56437000Y-74930000D03*
X56437000Y-76200000D03*
X56437000Y-77470000D03*
X56437000Y-78740000D03*
X56437000Y-80010000D03*
X65737000Y-80010000D03*
X65737000Y-78740000D03*
X65737000Y-77470000D03*
X65737000Y-76200000D03*
X65737000Y-74930000D03*
X65737000Y-73660000D03*
X65737000Y-72390000D03*
X65737000Y-71120000D03*
X65737000Y-69850000D03*
X65737000Y-68580000D03*
D14*
X115840000Y-81280000D03*
X117840000Y-81280000D03*
D15*
X119625000Y-83820000D03*
X121675000Y-83820000D03*
D16*
X106934000Y-52070000D03*
X106934000Y-53340000D03*
X106934000Y-54610000D03*
X106934000Y-55880000D03*
X106934000Y-57150000D03*
X106934000Y-58420000D03*
X106934000Y-59690000D03*
X111884000Y-59690000D03*
X111884000Y-58420000D03*
X111884000Y-57150000D03*
X111884000Y-55880000D03*
X111884000Y-54610000D03*
X111884000Y-53340000D03*
X111884000Y-52070000D03*
D14*
X115840000Y-88900000D03*
X117840000Y-88900000D03*
D15*
X119625000Y-86360000D03*
X121675000Y-86360000D03*
D12*
X56437000Y-86360000D03*
X56437000Y-87630000D03*
X56437000Y-88900000D03*
X56437000Y-90170000D03*
X56437000Y-91440000D03*
X56437000Y-92710000D03*
X56437000Y-93980000D03*
X56437000Y-95250000D03*
X56437000Y-96520000D03*
X56437000Y-97790000D03*
X65737000Y-97790000D03*
X65737000Y-96520000D03*
X65737000Y-95250000D03*
X65737000Y-93980000D03*
X65737000Y-92710000D03*
X65737000Y-91440000D03*
X65737000Y-90170000D03*
X65737000Y-88900000D03*
X65737000Y-87630000D03*
X65737000Y-86360000D03*
D17*
X62992000Y-36270000D03*
X64262000Y-36270000D03*
X65532000Y-36270000D03*
X66802000Y-36270000D03*
X68072000Y-36270000D03*
X69342000Y-36270000D03*
X70612000Y-36270000D03*
X71882000Y-36270000D03*
X71882000Y-29770000D03*
X70612000Y-29770000D03*
X69342000Y-29770000D03*
X68072000Y-29770000D03*
X66802000Y-29770000D03*
X65532000Y-29770000D03*
X64262000Y-29770000D03*
X62992000Y-29770000D03*
D10*
X90297000Y-87630000D03*
D11*
X92837000Y-87630000D03*
X90297000Y-90170000D03*
X92837000Y-90170000D03*
X90297000Y-92710000D03*
X92837000Y-92710000D03*
X90297000Y-95250000D03*
X92837000Y-95250000D03*
D15*
X119625000Y-78740000D03*
X121675000Y-78740000D03*
X119625000Y-88900000D03*
X121675000Y-88900000D03*
D18*
X100203000Y-64770000D03*
X98128000Y-64770000D03*
X110384500Y-82550000D03*
X108309500Y-82550000D03*
D17*
X49657000Y-36270000D03*
X50927000Y-36270000D03*
X52197000Y-36270000D03*
X53467000Y-36270000D03*
X54737000Y-36270000D03*
X56007000Y-36270000D03*
X57277000Y-36270000D03*
X58547000Y-36270000D03*
X58547000Y-29770000D03*
X57277000Y-29770000D03*
X56007000Y-29770000D03*
X54737000Y-29770000D03*
X53467000Y-29770000D03*
X52197000Y-29770000D03*
X50927000Y-29770000D03*
X49657000Y-29770000D03*
D12*
X76757000Y-86360000D03*
X76757000Y-87630000D03*
X76757000Y-88900000D03*
X76757000Y-90170000D03*
X76757000Y-91440000D03*
X76757000Y-92710000D03*
X76757000Y-93980000D03*
X76757000Y-95250000D03*
X76757000Y-96520000D03*
X76757000Y-97790000D03*
X86057000Y-97790000D03*
X86057000Y-96520000D03*
X86057000Y-95250000D03*
X86057000Y-93980000D03*
X86057000Y-92710000D03*
X86057000Y-91440000D03*
X86057000Y-90170000D03*
X86057000Y-88900000D03*
X86057000Y-87630000D03*
X86057000Y-86360000D03*
D18*
X62124500Y-83185000D03*
X60049500Y-83185000D03*
D19*
X26797000Y-26661000D03*
X26797000Y-28711000D03*
D10*
X49657000Y-69850000D03*
D11*
X52197000Y-69850000D03*
X49657000Y-72390000D03*
X52197000Y-72390000D03*
X49657000Y-74930000D03*
X52197000Y-74930000D03*
X49657000Y-77470000D03*
X52197000Y-77470000D03*
D10*
X90297000Y-69850000D03*
D11*
X92837000Y-69850000D03*
X90297000Y-72390000D03*
X92837000Y-72390000D03*
X90297000Y-74930000D03*
X92837000Y-74930000D03*
X90297000Y-77470000D03*
X92837000Y-77470000D03*
D12*
X76757000Y-50800000D03*
X76757000Y-52070000D03*
X76757000Y-53340000D03*
X76757000Y-54610000D03*
X76757000Y-55880000D03*
X76757000Y-57150000D03*
X76757000Y-58420000D03*
X76757000Y-59690000D03*
X76757000Y-60960000D03*
X76757000Y-62230000D03*
X86057000Y-62230000D03*
X86057000Y-60960000D03*
X86057000Y-59690000D03*
X86057000Y-58420000D03*
X86057000Y-57150000D03*
X86057000Y-55880000D03*
X86057000Y-54610000D03*
X86057000Y-53340000D03*
X86057000Y-52070000D03*
X86057000Y-50800000D03*
D14*
X115840000Y-78740000D03*
X117840000Y-78740000D03*
X115840000Y-91440000D03*
X117840000Y-91440000D03*
D12*
X36117000Y-50800000D03*
X36117000Y-52070000D03*
X36117000Y-53340000D03*
X36117000Y-54610000D03*
X36117000Y-55880000D03*
X36117000Y-57150000D03*
X36117000Y-58420000D03*
X36117000Y-59690000D03*
X36117000Y-60960000D03*
X36117000Y-62230000D03*
X45417000Y-62230000D03*
X45417000Y-60960000D03*
X45417000Y-59690000D03*
X45417000Y-58420000D03*
X45417000Y-57150000D03*
X45417000Y-55880000D03*
X45417000Y-54610000D03*
X45417000Y-53340000D03*
X45417000Y-52070000D03*
X45417000Y-50800000D03*
D16*
X96712000Y-52070000D03*
X96712000Y-53340000D03*
X96712000Y-54610000D03*
X96712000Y-55880000D03*
X96712000Y-57150000D03*
X96712000Y-58420000D03*
X96712000Y-59690000D03*
X101662000Y-59690000D03*
X101662000Y-58420000D03*
X101662000Y-57150000D03*
X101662000Y-55880000D03*
X101662000Y-54610000D03*
X101662000Y-53340000D03*
X101662000Y-52070000D03*
D20*
X28956000Y-26711000D03*
X28956000Y-28711000D03*
D17*
X36322000Y-36270000D03*
X37592000Y-36270000D03*
X38862000Y-36270000D03*
X40132000Y-36270000D03*
X41402000Y-36270000D03*
X42672000Y-36270000D03*
X43942000Y-36270000D03*
X45212000Y-36270000D03*
X45212000Y-29770000D03*
X43942000Y-29770000D03*
X42672000Y-29770000D03*
X41402000Y-29770000D03*
X40132000Y-29770000D03*
X38862000Y-29770000D03*
X37592000Y-29770000D03*
X36322000Y-29770000D03*
D13*
X47498000Y-31982500D03*
X47498000Y-34057500D03*
D18*
X41804500Y-83185000D03*
X39729500Y-83185000D03*
D10*
X49657000Y-87630000D03*
D11*
X52197000Y-87630000D03*
X49657000Y-90170000D03*
X52197000Y-90170000D03*
X49657000Y-92710000D03*
X52197000Y-92710000D03*
X49657000Y-95250000D03*
X52197000Y-95250000D03*
D10*
X69977000Y-69850000D03*
D11*
X72517000Y-69850000D03*
X69977000Y-72390000D03*
X72517000Y-72390000D03*
X69977000Y-74930000D03*
X72517000Y-74930000D03*
X69977000Y-77470000D03*
X72517000Y-77470000D03*
D18*
X82444500Y-65405000D03*
X80369500Y-65405000D03*
D16*
X96712000Y-87630000D03*
X96712000Y-88900000D03*
X96712000Y-90170000D03*
X96712000Y-91440000D03*
X96712000Y-92710000D03*
X96712000Y-93980000D03*
X96712000Y-95250000D03*
X101662000Y-95250000D03*
X101662000Y-93980000D03*
X101662000Y-92710000D03*
X101662000Y-91440000D03*
X101662000Y-90170000D03*
X101662000Y-88900000D03*
X101662000Y-87630000D03*
D18*
X82444500Y-83185000D03*
X80369500Y-83185000D03*
X41804500Y-65405000D03*
X39729500Y-65405000D03*
D12*
X56437000Y-50800000D03*
X56437000Y-52070000D03*
X56437000Y-53340000D03*
X56437000Y-54610000D03*
X56437000Y-55880000D03*
X56437000Y-57150000D03*
X56437000Y-58420000D03*
X56437000Y-59690000D03*
X56437000Y-60960000D03*
X56437000Y-62230000D03*
X65737000Y-62230000D03*
X65737000Y-60960000D03*
X65737000Y-59690000D03*
X65737000Y-58420000D03*
X65737000Y-57150000D03*
X65737000Y-55880000D03*
X65737000Y-54610000D03*
X65737000Y-53340000D03*
X65737000Y-52070000D03*
X65737000Y-50800000D03*
X36117000Y-86360000D03*
X36117000Y-87630000D03*
X36117000Y-88900000D03*
X36117000Y-90170000D03*
X36117000Y-91440000D03*
X36117000Y-92710000D03*
X36117000Y-93980000D03*
X36117000Y-95250000D03*
X36117000Y-96520000D03*
X36117000Y-97790000D03*
X45417000Y-97790000D03*
X45417000Y-96520000D03*
X45417000Y-95250000D03*
X45417000Y-93980000D03*
X45417000Y-92710000D03*
X45417000Y-91440000D03*
X45417000Y-90170000D03*
X45417000Y-88900000D03*
X45417000Y-87630000D03*
X45417000Y-86360000D03*
D18*
X110384500Y-64770000D03*
X108309500Y-64770000D03*
D10*
X69977000Y-87630000D03*
D11*
X72517000Y-87630000D03*
X69977000Y-90170000D03*
X72517000Y-90170000D03*
X69977000Y-92710000D03*
X72517000Y-92710000D03*
X69977000Y-95250000D03*
X72517000Y-95250000D03*
D10*
X49657000Y-52070000D03*
D11*
X52197000Y-52070000D03*
X49657000Y-54610000D03*
X52197000Y-54610000D03*
X49657000Y-57150000D03*
X52197000Y-57150000D03*
X49657000Y-59690000D03*
X52197000Y-59690000D03*
D16*
X106872000Y-69850000D03*
X106872000Y-71120000D03*
X106872000Y-72390000D03*
X106872000Y-73660000D03*
X106872000Y-74930000D03*
X106872000Y-76200000D03*
X106872000Y-77470000D03*
X111822000Y-77470000D03*
X111822000Y-76200000D03*
X111822000Y-74930000D03*
X111822000Y-73660000D03*
X111822000Y-72390000D03*
X111822000Y-71120000D03*
X111822000Y-69850000D03*
D13*
X60833000Y-31982500D03*
X60833000Y-34057500D03*
D18*
X100224500Y-82550000D03*
X98149500Y-82550000D03*
D12*
X36117000Y-68580000D03*
X36117000Y-69850000D03*
X36117000Y-71120000D03*
X36117000Y-72390000D03*
X36117000Y-73660000D03*
X36117000Y-74930000D03*
X36117000Y-76200000D03*
X36117000Y-77470000D03*
X36117000Y-78740000D03*
X36117000Y-80010000D03*
X45417000Y-80010000D03*
X45417000Y-78740000D03*
X45417000Y-77470000D03*
X45417000Y-76200000D03*
X45417000Y-74930000D03*
X45417000Y-73660000D03*
X45417000Y-72390000D03*
X45417000Y-71120000D03*
X45417000Y-69850000D03*
X45417000Y-68580000D03*
D17*
X102997000Y-36270000D03*
X104267000Y-36270000D03*
X105537000Y-36270000D03*
X106807000Y-36270000D03*
X108077000Y-36270000D03*
X109347000Y-36270000D03*
X110617000Y-36270000D03*
X111887000Y-36270000D03*
X111887000Y-29770000D03*
X110617000Y-29770000D03*
X109347000Y-29770000D03*
X108077000Y-29770000D03*
X106807000Y-29770000D03*
X105537000Y-29770000D03*
X104267000Y-29770000D03*
X102997000Y-29770000D03*
D14*
X115840000Y-86360000D03*
X117840000Y-86360000D03*
D17*
X89662000Y-36270000D03*
X90932000Y-36270000D03*
X92202000Y-36270000D03*
X93472000Y-36270000D03*
X94742000Y-36270000D03*
X96012000Y-36270000D03*
X97282000Y-36270000D03*
X98552000Y-36270000D03*
X98552000Y-29770000D03*
X97282000Y-29770000D03*
X96012000Y-29770000D03*
X94742000Y-29770000D03*
X93472000Y-29770000D03*
X92202000Y-29770000D03*
X90932000Y-29770000D03*
X89662000Y-29770000D03*
D18*
X62124500Y-65405000D03*
X60049500Y-65405000D03*
D17*
X76327000Y-36270000D03*
X77597000Y-36270000D03*
X78867000Y-36270000D03*
X80137000Y-36270000D03*
X81407000Y-36270000D03*
X82677000Y-36270000D03*
X83947000Y-36270000D03*
X85217000Y-36270000D03*
X85217000Y-29770000D03*
X83947000Y-29770000D03*
X82677000Y-29770000D03*
X81407000Y-29770000D03*
X80137000Y-29770000D03*
X78867000Y-29770000D03*
X77597000Y-29770000D03*
X76327000Y-29770000D03*
D13*
X31242000Y-26636000D03*
X31242000Y-28711000D03*
D21*
X28028500Y-97917000D03*
X31153500Y-97917000D03*
D15*
X119625000Y-81280000D03*
X121675000Y-81280000D03*
D13*
X87503000Y-31982500D03*
X87503000Y-34057500D03*
X100838000Y-31982500D03*
X100838000Y-34057500D03*
D10*
X69977000Y-52070000D03*
D11*
X72517000Y-52070000D03*
X69977000Y-54610000D03*
X72517000Y-54610000D03*
X69977000Y-57150000D03*
X72517000Y-57150000D03*
X69977000Y-59690000D03*
X72517000Y-59690000D03*
D15*
X119625000Y-76200000D03*
X121675000Y-76200000D03*
D14*
X115840000Y-76200000D03*
X117840000Y-76200000D03*
D15*
X119625000Y-91440000D03*
X121675000Y-91440000D03*
D16*
X96712000Y-69850000D03*
X96712000Y-71120000D03*
X96712000Y-72390000D03*
X96712000Y-73660000D03*
X96712000Y-74930000D03*
X96712000Y-76200000D03*
X96712000Y-77470000D03*
X101662000Y-77470000D03*
X101662000Y-76200000D03*
X101662000Y-74930000D03*
X101662000Y-73660000D03*
X101662000Y-72390000D03*
X101662000Y-71120000D03*
X101662000Y-69850000D03*
D14*
X115840000Y-83820000D03*
X117840000Y-83820000D03*
D13*
X74168000Y-31982500D03*
X74168000Y-34057500D03*
D10*
X29845000Y-33020000D03*
D11*
X27305000Y-33020000D03*
X29845000Y-35560000D03*
X27305000Y-35560000D03*
X29845000Y-38100000D03*
X27305000Y-38100000D03*
X29845000Y-40640000D03*
X27305000Y-40640000D03*
X29845000Y-43180000D03*
X27305000Y-43180000D03*
X29845000Y-45720000D03*
X27305000Y-45720000D03*
X29845000Y-48260000D03*
X27305000Y-48260000D03*
X29845000Y-50800000D03*
X27305000Y-50800000D03*
X29845000Y-53340000D03*
X27305000Y-53340000D03*
X29845000Y-55880000D03*
X27305000Y-55880000D03*
X29845000Y-58420000D03*
X27305000Y-58420000D03*
X29845000Y-60960000D03*
X27305000Y-60960000D03*
X29845000Y-63500000D03*
X27305000Y-63500000D03*
X29845000Y-66040000D03*
X27305000Y-66040000D03*
X29845000Y-68580000D03*
X27305000Y-68580000D03*
X29845000Y-71120000D03*
X27305000Y-71120000D03*
X29845000Y-73660000D03*
X27305000Y-73660000D03*
X29845000Y-76200000D03*
X27305000Y-76200000D03*
X29845000Y-78740000D03*
X27305000Y-78740000D03*
X29845000Y-81280000D03*
X27305000Y-81280000D03*
X29845000Y-83820000D03*
X27305000Y-83820000D03*
X29845000Y-86360000D03*
X27305000Y-86360000D03*
X29845000Y-88900000D03*
X27305000Y-88900000D03*
X29845000Y-91440000D03*
X27305000Y-91440000D03*
X29845000Y-93980000D03*
X27305000Y-93980000D03*
D10*
X123190000Y-54610000D03*
D11*
X123190000Y-57150000D03*
X123190000Y-59690000D03*
X123190000Y-62230000D03*
X123190000Y-64770000D03*
X123190000Y-67310000D03*
X123190000Y-69850000D03*
X123190000Y-72390000D03*
D22*
X45466000Y-83185000D03*
X100203000Y-69850000D03*
X110363000Y-69850000D03*
X87503000Y-50800000D03*
X110363000Y-57150000D03*
X110363000Y-52070000D03*
X100203000Y-63500000D03*
X87503000Y-86360000D03*
X100203000Y-81280000D03*
X46863000Y-50800000D03*
X100203000Y-98552000D03*
X100203000Y-52070000D03*
X86106000Y-65405000D03*
X65786000Y-65405000D03*
X67183000Y-50800000D03*
X87630000Y-68580000D03*
X100203000Y-87630000D03*
X86106000Y-98679000D03*
X65786000Y-83185000D03*
X45466000Y-98679000D03*
X110363000Y-98552000D03*
X65786000Y-98679000D03*
X46863000Y-68580000D03*
X45466000Y-65405000D03*
X46863000Y-86360000D03*
X67183000Y-86360000D03*
X110363000Y-58420000D03*
X110363000Y-81280000D03*
X86106000Y-83185000D03*
X67437000Y-68580000D03*
X110363000Y-63500000D03*
X99822000Y-28448000D03*
X75057000Y-86360000D03*
X75057000Y-68580000D03*
X98171000Y-57150000D03*
X108331000Y-81280000D03*
X59817000Y-28448000D03*
X54737000Y-80010000D03*
X34417000Y-65405000D03*
D23*
X30099000Y-27695000D03*
D22*
X34417000Y-97790000D03*
X54737000Y-65405000D03*
X54737000Y-62230000D03*
X98171000Y-55880000D03*
X34417000Y-83185000D03*
X73152000Y-28448000D03*
X75057000Y-97790000D03*
X113157000Y-28448000D03*
X98171000Y-63500000D03*
X75057000Y-50800000D03*
X98171000Y-81280000D03*
X108331000Y-63500000D03*
X86487000Y-28448000D03*
X98171000Y-77470000D03*
X54737000Y-97790000D03*
X98171000Y-95250000D03*
X34417000Y-62230000D03*
X120650000Y-91440000D03*
X75057000Y-80010000D03*
X108331000Y-59690000D03*
X98171000Y-59690000D03*
X31877000Y-31496000D03*
X120650000Y-78740000D03*
X75057000Y-83185000D03*
X108331000Y-77470000D03*
X98171000Y-54610000D03*
X75057000Y-62230000D03*
X54737000Y-83185000D03*
X120650000Y-88900000D03*
X34417000Y-80010000D03*
X75057000Y-65405000D03*
X46482000Y-28448000D03*
X120650000Y-76200000D03*
X43942000Y-52070000D03*
X106426000Y-37846000D03*
X105537000Y-37846000D03*
X46863000Y-53340000D03*
X43942000Y-53340000D03*
X104902000Y-38608000D03*
X43942000Y-54610000D03*
X43942000Y-55880000D03*
X106045000Y-34544000D03*
X46863000Y-55880000D03*
X103632000Y-38608000D03*
X103632000Y-34544000D03*
X43942000Y-57150000D03*
X93091000Y-37846000D03*
X46863000Y-58420000D03*
X43942000Y-58420000D03*
X92202000Y-37846000D03*
X91567000Y-38608000D03*
X43942000Y-59690000D03*
X92710000Y-34544000D03*
X90297000Y-34544000D03*
X43942000Y-60960000D03*
X46863000Y-60960000D03*
X90297000Y-38608000D03*
X43942000Y-69850000D03*
X79756000Y-37846000D03*
X43942000Y-71120000D03*
X46863000Y-71120000D03*
X78867000Y-37846000D03*
X43942000Y-72390000D03*
X78232000Y-38608000D03*
X46863000Y-73660000D03*
X76962000Y-38608000D03*
X79375000Y-34544000D03*
X76962000Y-34544000D03*
X43942000Y-73660000D03*
X43942000Y-74930000D03*
X66421000Y-37846000D03*
X46863000Y-76200000D03*
X43942000Y-76200000D03*
X65532000Y-37846000D03*
X43942000Y-77470000D03*
X64897000Y-38608000D03*
X66040000Y-34544000D03*
X63627000Y-38608000D03*
X63627000Y-34544000D03*
X43942000Y-78740000D03*
X46863000Y-78740000D03*
X53086000Y-37846000D03*
X43942000Y-87630000D03*
X46863000Y-88900000D03*
X52197000Y-37846000D03*
X43942000Y-88900000D03*
X43942000Y-90170000D03*
X51562000Y-38608000D03*
X52705000Y-34544000D03*
X46863000Y-91440000D03*
X43942000Y-91440000D03*
X50292000Y-34544000D03*
X50292000Y-38608000D03*
X39751000Y-37846000D03*
X43942000Y-92710000D03*
X46863000Y-93980000D03*
X43942000Y-93980000D03*
X38862000Y-37846000D03*
X38227000Y-38608000D03*
X43942000Y-95250000D03*
X36957000Y-38608000D03*
X46863000Y-96520000D03*
X43942000Y-96520000D03*
X36957000Y-34544000D03*
X39370000Y-34544000D03*
X64262000Y-52070000D03*
X69469000Y-46355000D03*
X104267000Y-37592000D03*
X68834000Y-45720000D03*
X67183000Y-53340000D03*
X109982000Y-39751000D03*
X64262000Y-53340000D03*
X64262000Y-54610000D03*
X68199000Y-46355000D03*
X102362000Y-37592000D03*
X109220000Y-39751000D03*
X67183000Y-55880000D03*
X67564001Y-45720000D03*
X64262000Y-55880000D03*
X64262000Y-57150000D03*
X66421000Y-46355000D03*
X90932000Y-37592000D03*
X67183000Y-58420000D03*
X65786000Y-45720000D03*
X64262000Y-58420000D03*
X96647000Y-38354000D03*
X95885000Y-38354000D03*
X64262000Y-59690000D03*
X65151000Y-46355000D03*
X89027000Y-37592000D03*
X67183000Y-60960000D03*
X64262000Y-60960000D03*
X64516000Y-45720000D03*
X64262000Y-69850000D03*
X63372999Y-46355000D03*
X64262000Y-71120000D03*
X62737999Y-45720000D03*
X77597000Y-37592000D03*
X83312000Y-38354000D03*
X67183000Y-71120000D03*
X82550000Y-38354000D03*
X62102999Y-46355000D03*
X64262000Y-72390000D03*
X75692000Y-37592000D03*
X61468000Y-45720000D03*
X67183000Y-73660000D03*
X64262000Y-73660000D03*
X60325000Y-46355000D03*
X64262000Y-74930000D03*
X67183000Y-76200000D03*
X59690000Y-45719999D03*
X64262000Y-76200000D03*
X69977000Y-38354000D03*
X64262000Y-37592000D03*
X59055000Y-46354999D03*
X62357000Y-37592000D03*
X64262000Y-77470000D03*
X69215000Y-38354000D03*
X58420000Y-45719999D03*
X64262000Y-78740000D03*
X67183000Y-78740000D03*
X57277000Y-46355000D03*
X64262000Y-87630000D03*
X50927000Y-37592000D03*
X64262000Y-88900000D03*
X67183000Y-88900000D03*
X56642000Y-38354000D03*
X56642000Y-45720000D03*
X55880000Y-38354000D03*
X56006999Y-46355000D03*
X49022000Y-37592000D03*
X64262000Y-90170000D03*
X67183000Y-91440000D03*
X64262000Y-91440000D03*
X55372000Y-45720000D03*
X54229000Y-46355000D03*
X64262000Y-92710000D03*
X64262000Y-93980000D03*
X53594000Y-45720000D03*
X67183000Y-93980000D03*
X43307000Y-38354000D03*
X37592000Y-37592000D03*
X52958999Y-46355000D03*
X35687000Y-37592000D03*
X64262000Y-95250000D03*
X42545000Y-38354000D03*
X67183000Y-96520000D03*
X64262000Y-96520000D03*
X52324000Y-45720000D03*
X109982000Y-38481000D03*
X107950000Y-38481000D03*
X120142000Y-48514000D03*
X120142000Y-50546000D03*
X114300000Y-88900000D03*
X42037000Y-79375000D03*
X121412000Y-50292000D03*
X43307000Y-61722000D03*
X114300000Y-81280000D03*
X42037000Y-68580000D03*
X44704000Y-50038000D03*
X121412000Y-48768000D03*
X53467000Y-97155000D03*
X53467000Y-79375000D03*
X114300000Y-76200000D03*
X53467000Y-61595000D03*
X53467000Y-50038000D03*
X53975000Y-80899000D03*
X114300000Y-83820000D03*
X121158000Y-51054000D03*
X122428000Y-51054000D03*
X53975000Y-50800000D03*
X53975000Y-68580000D03*
X67183000Y-62230000D03*
X64262000Y-97790000D03*
X68072000Y-50800000D03*
X114300000Y-78740000D03*
X64262000Y-80010000D03*
X64262000Y-62230000D03*
X114300000Y-86360000D03*
X84455000Y-87630000D03*
X84709000Y-52070000D03*
X84455000Y-69850000D03*
X114300000Y-91440000D03*
X84328000Y-62230000D03*
X97282000Y-28448000D03*
X84328000Y-60960000D03*
X93472000Y-28448000D03*
X89662000Y-35052000D03*
X78232000Y-59690000D03*
X95250000Y-72390000D03*
X93472000Y-35052000D03*
X78232000Y-58420000D03*
X95123000Y-90170000D03*
X87630000Y-57150000D03*
X110617000Y-28448000D03*
X106807000Y-28448000D03*
X87630000Y-55880000D03*
X78740000Y-54610000D03*
X102997000Y-35052000D03*
X78994000Y-53340000D03*
X106807000Y-35052000D03*
X70612000Y-28448000D03*
X82169000Y-80899000D03*
X81661000Y-80264000D03*
X66802000Y-28448000D03*
X62992000Y-35052000D03*
X78232000Y-77470000D03*
X78232000Y-76200000D03*
X66802000Y-35052000D03*
X83947000Y-28448000D03*
X83566000Y-74930000D03*
X83566000Y-73660000D03*
X80137000Y-28448000D03*
X76327000Y-35052000D03*
X78232000Y-72390000D03*
X78232000Y-71120000D03*
X80137000Y-35052000D03*
X104267000Y-79375000D03*
X78232000Y-97790000D03*
X104267000Y-53340000D03*
X43942000Y-28448000D03*
X40132000Y-28448000D03*
X78232000Y-96520000D03*
X36322000Y-35052000D03*
X78232000Y-95250000D03*
X40132000Y-35052000D03*
X78232000Y-93980000D03*
X57277000Y-28448000D03*
X80645000Y-92710000D03*
X80645000Y-91440000D03*
X53467000Y-28448000D03*
X78232000Y-90170000D03*
X49657000Y-35052000D03*
X78232000Y-88900000D03*
X53467000Y-35052000D03*
X97790000Y-34798000D03*
X85090000Y-37846000D03*
X71374000Y-37846000D03*
X84328000Y-34417000D03*
X70866000Y-34290000D03*
X58293000Y-37846000D03*
X44577000Y-37465000D03*
X57785000Y-33401000D03*
D24*
X26527000Y-97917000D02*
X26400000Y-98044000D01*
D25*
X121675000Y-83820000D02*
X125095000Y-83820000D01*
D24*
X67437000Y-68580000D02*
X65737000Y-68580000D01*
X45466000Y-65405000D02*
X41804500Y-65405000D01*
X100838000Y-31982500D02*
X102997000Y-31982500D01*
X86057000Y-68580000D02*
X87630000Y-68580000D01*
X89662000Y-29770000D02*
X89662000Y-26924000D01*
X110384500Y-64770000D02*
X110384500Y-63521500D01*
X100224500Y-81301500D02*
X100203000Y-81280000D01*
X110363000Y-69850000D02*
X111822000Y-69850000D01*
X46863000Y-86360000D02*
X45417000Y-86360000D01*
D25*
X31242000Y-26500000D02*
X29031000Y-26500000D01*
D24*
X62992000Y-31982500D02*
X62992000Y-29770000D01*
D26*
X31242000Y-26500000D02*
X32723000Y-26500000D01*
D24*
X45466000Y-83185000D02*
X41804500Y-83185000D01*
X28028500Y-97917000D02*
X26527000Y-97917000D01*
D27*
X27305000Y-93980000D02*
X26400000Y-94885000D01*
D24*
X45466000Y-65405000D02*
X45417000Y-65454000D01*
X110363000Y-98552000D02*
X110363000Y-100203000D01*
D25*
X121675000Y-86360000D02*
X125095000Y-86360000D01*
D24*
X67183000Y-86360000D02*
X65737000Y-86360000D01*
X74168000Y-31982500D02*
X76327000Y-31982500D01*
D27*
X26400000Y-94885000D02*
X26400000Y-98044000D01*
D24*
X60833000Y-31982500D02*
X62992000Y-31982500D01*
D25*
X29031000Y-26500000D02*
X28956000Y-26575000D01*
D24*
X65737000Y-83234000D02*
X65786000Y-83185000D01*
X46863000Y-68580000D02*
X45417000Y-68580000D01*
D27*
X26400000Y-98044000D02*
X26400000Y-98695000D01*
D24*
X100203000Y-64770000D02*
X100203000Y-63500000D01*
X76327000Y-29770000D02*
X76327000Y-26924000D01*
X82444500Y-83185000D02*
X86106000Y-83185000D01*
X45417000Y-83234000D02*
X45466000Y-83185000D01*
X102997000Y-31982500D02*
X102997000Y-29770000D01*
X36322000Y-29770000D02*
X36322000Y-26670000D01*
X110384500Y-82550000D02*
X110384500Y-81301500D01*
X49657000Y-29770000D02*
X49657000Y-26797000D01*
X87503000Y-31982500D02*
X89662000Y-31982500D01*
X100203000Y-87630000D02*
X101662000Y-87630000D01*
X45417000Y-50800000D02*
X46863000Y-50800000D01*
X65786000Y-98679000D02*
X65786000Y-100330000D01*
D27*
X26400000Y-98695000D02*
X26400000Y-100441000D01*
D24*
X86057000Y-86360000D02*
X87503000Y-86360000D01*
X76327000Y-31982500D02*
X76327000Y-29770000D01*
X100203000Y-98552000D02*
X100203000Y-100330000D01*
X62992000Y-29770000D02*
X62992000Y-26797000D01*
X89662000Y-31982500D02*
X89662000Y-29770000D01*
X65737000Y-50800000D02*
X67183000Y-50800000D01*
X101662000Y-69850000D02*
X100203000Y-69850000D01*
X102997000Y-29770000D02*
X102997000Y-26924000D01*
X47498000Y-31982500D02*
X49657000Y-31982500D01*
X110384500Y-81301500D02*
X110363000Y-81280000D01*
D25*
X111884000Y-58420000D02*
X110363000Y-58420000D01*
D24*
X36322000Y-31982500D02*
X36322000Y-29770000D01*
X110384500Y-63521500D02*
X110363000Y-63500000D01*
X62124500Y-83185000D02*
X65786000Y-83185000D01*
D25*
X121675000Y-81280000D02*
X125095000Y-81280000D01*
D24*
X100224500Y-82550000D02*
X100224500Y-81301500D01*
X82444500Y-65405000D02*
X86106000Y-65405000D01*
X86106000Y-98679000D02*
X86106000Y-100330000D01*
D25*
X111884000Y-57150000D02*
X110363000Y-57150000D01*
D24*
X86057000Y-50800000D02*
X87503000Y-50800000D01*
X101662000Y-52070000D02*
X100203000Y-52070000D01*
X34163000Y-31982500D02*
X36322000Y-31982500D01*
X45466000Y-98679000D02*
X45466000Y-100330000D01*
X111884000Y-52070000D02*
X110363000Y-52070000D01*
X62124500Y-65405000D02*
X65786000Y-65405000D01*
X49657000Y-31982500D02*
X49657000Y-29770000D01*
X29845000Y-93980000D02*
X29845000Y-97917000D01*
X86487000Y-30988000D02*
X86487000Y-28448000D01*
X60833000Y-34057500D02*
X58568500Y-34057500D01*
X39729500Y-83185000D02*
X34417000Y-83185000D01*
D25*
X98171000Y-57150000D02*
X96712000Y-57150000D01*
D26*
X31115000Y-28711000D02*
X30099000Y-27695000D01*
D24*
X76757000Y-86360000D02*
X75057000Y-86360000D01*
X75057000Y-80010000D02*
X76757000Y-80010000D01*
X47498000Y-34057500D02*
X45233500Y-34057500D01*
X54737000Y-80010000D02*
X56437000Y-80010000D01*
X87503000Y-34057500D02*
X85238500Y-34057500D01*
X111887000Y-36270000D02*
X111887000Y-30988000D01*
X76757000Y-68580000D02*
X75057000Y-68580000D01*
X29845000Y-97917000D02*
X31153500Y-97917000D01*
X60049500Y-65405000D02*
X54737000Y-65405000D01*
X113157000Y-30988000D02*
X113157000Y-28448000D01*
D25*
X119625000Y-91440000D02*
X120650000Y-91440000D01*
D24*
X45212000Y-31115000D02*
X46482000Y-31115000D01*
X71903500Y-34057500D02*
X71882000Y-34036000D01*
X85217000Y-34036000D02*
X85217000Y-30988000D01*
X98128000Y-64770000D02*
X98128000Y-63543000D01*
X85217000Y-36270000D02*
X85217000Y-34036000D01*
D25*
X96712000Y-54610000D02*
X98171000Y-54610000D01*
X26670000Y-26661000D02*
X26670000Y-27695000D01*
D24*
X34417000Y-65405000D02*
X39729500Y-65405000D01*
X96712000Y-77470000D02*
X98171000Y-77470000D01*
X108309500Y-82550000D02*
X108309500Y-81301500D01*
X85217000Y-30988000D02*
X86487000Y-30988000D01*
X45212000Y-36270000D02*
X45212000Y-34036000D01*
X54737000Y-62230000D02*
X56437000Y-62230000D01*
X98149500Y-82550000D02*
X98149500Y-81301500D01*
X73152000Y-30988000D02*
X73152000Y-28448000D01*
D25*
X108331000Y-55880000D02*
X108331000Y-57150000D01*
X29993500Y-94128500D02*
X29845000Y-93980000D01*
D24*
X75057000Y-62230000D02*
X76757000Y-62230000D01*
X58547000Y-36270000D02*
X58547000Y-34036000D01*
X96712000Y-95250000D02*
X98171000Y-95250000D01*
X98128000Y-63543000D02*
X98171000Y-63500000D01*
X74168000Y-34057500D02*
X71903500Y-34057500D01*
X71882000Y-34036000D02*
X71882000Y-30988000D01*
X98573500Y-34057500D02*
X98552000Y-34036000D01*
X59817000Y-30988000D02*
X59817000Y-28448000D01*
D25*
X98171000Y-55880000D02*
X96712000Y-55880000D01*
X120650000Y-76200000D02*
X119625000Y-76200000D01*
X108331000Y-57150000D02*
X108331000Y-59690000D01*
D24*
X96712000Y-59690000D02*
X98171000Y-59690000D01*
X71882000Y-30988000D02*
X73152000Y-30988000D01*
D25*
X106934000Y-57150000D02*
X108331000Y-57150000D01*
X119625000Y-78740000D02*
X120650000Y-78740000D01*
D24*
X111887000Y-30988000D02*
X113157000Y-30988000D01*
X108309500Y-63521500D02*
X108331000Y-63500000D01*
X45212000Y-34036000D02*
X45212000Y-31115000D01*
X108331000Y-59690000D02*
X106934000Y-59690000D01*
X98552000Y-36270000D02*
X98552000Y-34036000D01*
X80369500Y-65405000D02*
X75057000Y-65405000D01*
X58547000Y-30988000D02*
X59817000Y-30988000D01*
X58547000Y-34036000D02*
X58547000Y-30988000D01*
D25*
X119625000Y-88900000D02*
X120650000Y-88900000D01*
X26670000Y-27695000D02*
X30099000Y-27695000D01*
D24*
X31898500Y-34057500D02*
X31877000Y-34036000D01*
X71882000Y-36270000D02*
X71882000Y-34036000D01*
X46482000Y-31115000D02*
X46482000Y-28448000D01*
X76757000Y-50800000D02*
X75057000Y-50800000D01*
X100838000Y-34057500D02*
X98573500Y-34057500D01*
X98149500Y-81301500D02*
X98171000Y-81280000D01*
X108309500Y-81301500D02*
X108331000Y-81280000D01*
X85238500Y-34057500D02*
X85217000Y-34036000D01*
X45233500Y-34057500D02*
X45212000Y-34036000D01*
X34417000Y-62230000D02*
X36117000Y-62230000D01*
D25*
X106934000Y-55880000D02*
X108331000Y-55880000D01*
D24*
X60049500Y-83185000D02*
X54737000Y-83185000D01*
X106872000Y-77470000D02*
X108331000Y-77470000D01*
X31877000Y-34036000D02*
X31877000Y-31496000D01*
X76757000Y-97790000D02*
X75057000Y-97790000D01*
X108309500Y-64770000D02*
X108309500Y-63521500D01*
X98552000Y-34036000D02*
X98552000Y-30988000D01*
X98552000Y-30988000D02*
X99822000Y-30988000D01*
X56437000Y-97790000D02*
X54737000Y-97790000D01*
X99822000Y-30988000D02*
X99822000Y-28448000D01*
X58568500Y-34057500D02*
X58547000Y-34036000D01*
X80369500Y-83185000D02*
X75057000Y-83185000D01*
D25*
X31242000Y-28575000D02*
X31115000Y-28575000D01*
D24*
X34163000Y-34057500D02*
X31898500Y-34057500D01*
X36117000Y-97790000D02*
X34417000Y-97790000D01*
D25*
X26670000Y-26525000D02*
X26779000Y-26525000D01*
D24*
X34417000Y-80010000D02*
X36117000Y-80010000D01*
D25*
X45417000Y-52070000D02*
X43942000Y-52070000D01*
X108077000Y-36270000D02*
X108077000Y-37846000D01*
X45417000Y-52070000D02*
X49657000Y-52070000D01*
X108077000Y-37846000D02*
X106426000Y-37846000D01*
X45417000Y-53340000D02*
X46863000Y-53340000D01*
X105537000Y-37846000D02*
X105537000Y-36270000D01*
X45417000Y-53340000D02*
X43942000Y-53340000D01*
X105537000Y-29770000D02*
X105537000Y-34544000D01*
X45417000Y-54610000D02*
X43942000Y-54610000D01*
X105537000Y-34544000D02*
X104902000Y-34544000D01*
X104902000Y-38608000D02*
X104902000Y-34544000D01*
X45417000Y-54610000D02*
X49657000Y-54610000D01*
X108077000Y-34544000D02*
X106045000Y-34544000D01*
X103632000Y-38608000D02*
X103632000Y-34544000D01*
X108077000Y-29770000D02*
X108077000Y-34544000D01*
X45417000Y-55880000D02*
X46863000Y-55880000D01*
X45417000Y-55880000D02*
X43942000Y-55880000D01*
X45417000Y-57150000D02*
X43942000Y-57150000D01*
X94742000Y-36270000D02*
X94742000Y-37846000D01*
X45417000Y-57150000D02*
X49657000Y-57150000D01*
X94742000Y-37846000D02*
X93091000Y-37846000D01*
X92202000Y-37846000D02*
X92202000Y-36270000D01*
X45417000Y-58420000D02*
X43942000Y-58420000D01*
X45417000Y-58420000D02*
X46863000Y-58420000D01*
X45417000Y-59690000D02*
X43942000Y-59690000D01*
X92202000Y-29770000D02*
X92202000Y-34544000D01*
X91567000Y-38608000D02*
X91567000Y-34544000D01*
X92202000Y-34544000D02*
X91567000Y-34544000D01*
X45417000Y-59690000D02*
X49657000Y-59690000D01*
X90297000Y-38608000D02*
X90297000Y-34544000D01*
X46863000Y-60960000D02*
X45417000Y-60960000D01*
X94742000Y-34544000D02*
X92710000Y-34544000D01*
X94742000Y-29770000D02*
X94742000Y-34544000D01*
X45417000Y-60960000D02*
X43942000Y-60960000D01*
X81407000Y-36270000D02*
X81407000Y-37846000D01*
X45417000Y-69850000D02*
X43942000Y-69850000D01*
X81407000Y-37846000D02*
X79756000Y-37846000D01*
X45417000Y-69850000D02*
X49657000Y-69850000D01*
X78867000Y-37846000D02*
X78867000Y-36270000D01*
X45417000Y-71120000D02*
X43942000Y-71120000D01*
X45417000Y-71120000D02*
X46863000Y-71120000D01*
X78867000Y-34544000D02*
X78232000Y-34544000D01*
X78867000Y-29770000D02*
X78867000Y-34544000D01*
X78232000Y-38608000D02*
X78232000Y-34544000D01*
X45417000Y-72390000D02*
X49657000Y-72390000D01*
X45417000Y-72390000D02*
X43942000Y-72390000D01*
X76962000Y-38608000D02*
X76962000Y-34544000D01*
X45417000Y-73660000D02*
X43942000Y-73660000D01*
X81407000Y-29770000D02*
X81407000Y-34544000D01*
X45417000Y-73660000D02*
X46863000Y-73660000D01*
X81407000Y-34544000D02*
X79375000Y-34544000D01*
X68072000Y-36270000D02*
X68072000Y-37846000D01*
X45417000Y-74930000D02*
X43942000Y-74930000D01*
X45417000Y-74930000D02*
X49657000Y-74930000D01*
X68072000Y-37846000D02*
X66421000Y-37846000D01*
X45417000Y-76200000D02*
X43942000Y-76200000D01*
X45417000Y-76200000D02*
X46863000Y-76200000D01*
X65532000Y-37846000D02*
X65532000Y-36270000D01*
X65532000Y-34544000D02*
X64897000Y-34544000D01*
X45417000Y-77470000D02*
X49657000Y-77470000D01*
X65532000Y-29770000D02*
X65532000Y-34544000D01*
X64897000Y-38608000D02*
X64897000Y-34544000D01*
X45417000Y-77470000D02*
X43942000Y-77470000D01*
X45417000Y-78740000D02*
X43942000Y-78740000D01*
X63627000Y-38608000D02*
X63627000Y-34544000D01*
X46863000Y-78740000D02*
X45417000Y-78740000D01*
X68072000Y-29770000D02*
X68072000Y-34544000D01*
X68072000Y-34544000D02*
X66040000Y-34544000D01*
X45417000Y-87630000D02*
X43942000Y-87630000D01*
X54737000Y-37846000D02*
X53086000Y-37846000D01*
X45417000Y-87630000D02*
X49657000Y-87630000D01*
X54737000Y-36270000D02*
X54737000Y-37846000D01*
X45417000Y-88900000D02*
X43942000Y-88900000D01*
X45417000Y-88900000D02*
X46863000Y-88900000D01*
X52197000Y-37846000D02*
X52197000Y-36270000D01*
X51562000Y-38608000D02*
X51562000Y-34544000D01*
X45417000Y-90170000D02*
X43942000Y-90170000D01*
X45417000Y-90170000D02*
X49657000Y-90170000D01*
X52197000Y-34544000D02*
X51562000Y-34544000D01*
X52197000Y-29770000D02*
X52197000Y-34544000D01*
X50292000Y-38608000D02*
X50292000Y-34544000D01*
X45417000Y-91440000D02*
X43942000Y-91440000D01*
X54737000Y-29770000D02*
X54737000Y-34544000D01*
X45417000Y-91440000D02*
X46863000Y-91440000D01*
X54737000Y-34544000D02*
X52705000Y-34544000D01*
X41402000Y-36270000D02*
X41402000Y-37846000D01*
X45417000Y-92710000D02*
X49657000Y-92710000D01*
X41402000Y-37846000D02*
X39751000Y-37846000D01*
X45417000Y-92710000D02*
X43942000Y-92710000D01*
X45417000Y-93980000D02*
X43942000Y-93980000D01*
X38862000Y-37846000D02*
X38862000Y-36270000D01*
X45417000Y-93980000D02*
X46863000Y-93980000D01*
X38227000Y-38608000D02*
X38227000Y-34544000D01*
X45417000Y-95250000D02*
X43942000Y-95250000D01*
X45417000Y-95250000D02*
X49657000Y-95250000D01*
X38862000Y-34544000D02*
X38862000Y-29770000D01*
X38227000Y-34544000D02*
X38862000Y-34544000D01*
X41402000Y-29770000D02*
X41402000Y-34544000D01*
X46863000Y-96520000D02*
X45417000Y-96520000D01*
X36957000Y-38608000D02*
X36957000Y-34544000D01*
X45417000Y-96520000D02*
X43942000Y-96520000D01*
X41402000Y-34544000D02*
X39370000Y-34544000D01*
X110617000Y-43688000D02*
X69469000Y-43688000D01*
X110617000Y-39243000D02*
X110617000Y-43688000D01*
X65737000Y-52070000D02*
X64262000Y-52070000D01*
X109347000Y-39243000D02*
X110617000Y-39243000D01*
X65737000Y-52070000D02*
X69977000Y-52070000D01*
X69469000Y-43688000D02*
X69469000Y-46355000D01*
X109347000Y-36270000D02*
X109347000Y-39243000D01*
X68834000Y-43434000D02*
X68834000Y-45720000D01*
X104267000Y-36270000D02*
X104267000Y-37592000D01*
X109982000Y-43434000D02*
X68834000Y-43434000D01*
X109982000Y-39751000D02*
X109982000Y-43434000D01*
X65737000Y-53340000D02*
X64262000Y-53340000D01*
X65737000Y-53340000D02*
X67183000Y-53340000D01*
X102362000Y-37592000D02*
X102362000Y-32893000D01*
X102362000Y-32893000D02*
X104267000Y-32893000D01*
X104267000Y-32893000D02*
X104267000Y-29770000D01*
X109220000Y-39751000D02*
X109220000Y-43180000D01*
X109220000Y-43180000D02*
X68326000Y-43180000D01*
X68326000Y-46228000D02*
X68199000Y-46355000D01*
X68326000Y-43180000D02*
X68326000Y-46228000D01*
X65737000Y-54610000D02*
X69977000Y-54610000D01*
X65737000Y-54610000D02*
X64262000Y-54610000D01*
X67564001Y-45720000D02*
X67564000Y-42926000D01*
X65737000Y-55880000D02*
X67183000Y-55880000D01*
X108712000Y-42926000D02*
X108712000Y-34544000D01*
X65737000Y-55880000D02*
X64262000Y-55880000D01*
X67564000Y-42926000D02*
X108712000Y-42926000D01*
X109347000Y-34544000D02*
X109347000Y-29770000D01*
X108712000Y-34544000D02*
X109347000Y-34544000D01*
X96012000Y-36270000D02*
X96012000Y-37846000D01*
X96012000Y-37846000D02*
X97282000Y-37846000D01*
X97282000Y-37846000D02*
X97282000Y-42545000D01*
X65737000Y-57150000D02*
X69977000Y-57150000D01*
X66421000Y-42545000D02*
X66421000Y-46482000D01*
X97282000Y-42545000D02*
X66421000Y-42545000D01*
X65737000Y-57150000D02*
X64262000Y-57150000D01*
X65786000Y-42164000D02*
X96647000Y-42164000D01*
X65737000Y-58420000D02*
X67183000Y-58420000D01*
X65737000Y-58420000D02*
X64262000Y-58420000D01*
X90932000Y-36270000D02*
X90932000Y-37592000D01*
X65786000Y-45847000D02*
X65786000Y-42164000D01*
X96647000Y-42164000D02*
X96647000Y-38354000D01*
X65737000Y-59690000D02*
X64262000Y-59690000D01*
X95885000Y-38354000D02*
X95885000Y-41910000D01*
X65737000Y-59690000D02*
X69977000Y-59690000D01*
X90932000Y-32893000D02*
X90932000Y-29770000D01*
X89027000Y-32893000D02*
X90932000Y-32893000D01*
X89027000Y-37592000D02*
X89027000Y-32893000D01*
X95885000Y-41910000D02*
X65151000Y-41910000D01*
X65151000Y-41910000D02*
X65151000Y-46482000D01*
X64516000Y-41656000D02*
X95377000Y-41656000D01*
X64516000Y-45847000D02*
X64516000Y-41656000D01*
X96012000Y-34544000D02*
X96012000Y-29770000D01*
X95377000Y-34544000D02*
X96012000Y-34544000D01*
X65737000Y-60960000D02*
X64262000Y-60960000D01*
X95377000Y-41656000D02*
X95377000Y-34544000D01*
X67183000Y-60960000D02*
X65737000Y-60960000D01*
X65737000Y-69850000D02*
X64262000Y-69850000D01*
X83947000Y-37846000D02*
X82677000Y-37846000D01*
X83947000Y-41275000D02*
X83947000Y-37846000D01*
X63372999Y-46545501D02*
X63372999Y-41275000D01*
X82677000Y-37846000D02*
X82677000Y-36270000D01*
X65737000Y-69850000D02*
X69977000Y-69850000D01*
X63372999Y-41275000D02*
X83947000Y-41275000D01*
X83312000Y-41021000D02*
X83312000Y-38354000D01*
X62737999Y-41021000D02*
X83312000Y-41021000D01*
X62737999Y-45974000D02*
X62737999Y-41021000D01*
X65737000Y-71120000D02*
X67183000Y-71120000D01*
X65737000Y-71120000D02*
X64262000Y-71120000D01*
X77597000Y-36270000D02*
X77597000Y-37592000D01*
X62102999Y-46545500D02*
X62102999Y-40767000D01*
X75692000Y-32893000D02*
X77597000Y-32893000D01*
X82550000Y-40767000D02*
X82550000Y-38354000D01*
X62102999Y-40767000D02*
X82550000Y-40767000D01*
X65737000Y-72390000D02*
X64262000Y-72390000D01*
X75692000Y-37592000D02*
X75692000Y-32893000D01*
X65737000Y-72390000D02*
X69977000Y-72390000D01*
X77597000Y-32893000D02*
X77597000Y-29770000D01*
X82042000Y-34544000D02*
X82677000Y-34544000D01*
X65737000Y-73660000D02*
X67183000Y-73660000D01*
X61468000Y-45974000D02*
X61467999Y-40513000D01*
X61467999Y-40513000D02*
X82042000Y-40513000D01*
X82677000Y-34544000D02*
X82677000Y-29770000D01*
X65737000Y-73660000D02*
X64262000Y-73660000D01*
X82042000Y-40513000D02*
X82042000Y-34544000D01*
X60325000Y-39878000D02*
X70612000Y-39878000D01*
X70612000Y-37846000D02*
X69342000Y-37846000D01*
X65737000Y-74930000D02*
X64262000Y-74930000D01*
X60325000Y-46482000D02*
X60325000Y-39878000D01*
X70612000Y-39878000D02*
X70612000Y-37846000D01*
X65737000Y-74930000D02*
X69977000Y-74930000D01*
X69342000Y-37846000D02*
X69342000Y-36270000D01*
X69977000Y-39624000D02*
X69977000Y-38354000D01*
X65737000Y-76200000D02*
X67183000Y-76200000D01*
X59690000Y-39624000D02*
X69977000Y-39624000D01*
X65737000Y-76200000D02*
X64262000Y-76200000D01*
X64262000Y-36270000D02*
X64262000Y-37592000D01*
X59690000Y-45846999D02*
X59690000Y-39624000D01*
X65737000Y-77470000D02*
X64262000Y-77470000D01*
X69215000Y-38354000D02*
X69215000Y-39370000D01*
X62357000Y-32893000D02*
X64262000Y-32893000D01*
X59055000Y-39370000D02*
X59055000Y-46481999D01*
X69215000Y-39370000D02*
X59055000Y-39370000D01*
X65737000Y-77470000D02*
X69977000Y-77470000D01*
X62357000Y-37592000D02*
X62357000Y-32893000D01*
X64262000Y-32893000D02*
X64262000Y-29770000D01*
X68707000Y-39116000D02*
X68707000Y-34544000D01*
X58420000Y-39116000D02*
X68707000Y-39116000D01*
X65737000Y-78740000D02*
X64262000Y-78740000D01*
X58420000Y-45846999D02*
X58420000Y-39116000D01*
X68707000Y-34544000D02*
X69342000Y-34544000D01*
X69342000Y-34544000D02*
X69342000Y-29770000D01*
X67183000Y-78740000D02*
X65737000Y-78740000D01*
X57277000Y-37846000D02*
X56007000Y-37846000D01*
X57277000Y-37846000D02*
X57277000Y-46228000D01*
X56007000Y-37846000D02*
X56007000Y-36270000D01*
X65737000Y-87630000D02*
X64262000Y-87630000D01*
X65737000Y-87630000D02*
X69977000Y-87630000D01*
X56642000Y-38354000D02*
X56642000Y-45847000D01*
X65737000Y-88900000D02*
X64262000Y-88900000D01*
X65737000Y-88900000D02*
X67183000Y-88900000D01*
X50927000Y-36270000D02*
X50927000Y-37592000D01*
X49022000Y-32893000D02*
X50927000Y-32893000D01*
X56007000Y-45212000D02*
X56006999Y-46355000D01*
X55880000Y-45085000D02*
X56007000Y-45212000D01*
X65737000Y-90170000D02*
X64262000Y-90170000D01*
X55880000Y-38354000D02*
X55880000Y-45212000D01*
X65737000Y-90170000D02*
X69977000Y-90170000D01*
X50927000Y-32893000D02*
X50927000Y-29770000D01*
X49022000Y-37592000D02*
X49022000Y-32893000D01*
X56388000Y-51435000D02*
X53848000Y-51435000D01*
X76708000Y-52021000D02*
X76708000Y-51435000D01*
X34798000Y-51435000D02*
X47879000Y-51435000D01*
X34798000Y-52070000D02*
X31115000Y-52070000D01*
X53848000Y-51435000D02*
X53340000Y-50927000D01*
X68707000Y-50927000D02*
X68199000Y-51435000D01*
X76708000Y-51435000D02*
X74168000Y-51435000D01*
X31115000Y-62230000D02*
X28575000Y-62230000D01*
X48387000Y-50927000D02*
X47879000Y-51435000D01*
X36117000Y-52070000D02*
X34798000Y-52070000D01*
X56388000Y-51435000D02*
X56388000Y-52021000D01*
X73660000Y-50927000D02*
X68707000Y-50927000D01*
X55118000Y-51435000D02*
X68199000Y-51435000D01*
X53340000Y-50927000D02*
X48387000Y-50927000D01*
X31115000Y-52070000D02*
X31115000Y-62230000D01*
X28575000Y-62230000D02*
X27305000Y-63500000D01*
X74168000Y-51435000D02*
X73660000Y-50927000D01*
X34798000Y-52070000D02*
X34798000Y-51435000D01*
X31369000Y-52705000D02*
X31369000Y-63500000D01*
X76708000Y-52705000D02*
X76708000Y-53291000D01*
X73762500Y-53110500D02*
X68731500Y-53110500D01*
X31369000Y-63500000D02*
X29845000Y-63500000D01*
X34798000Y-52705000D02*
X31369000Y-52705000D01*
X68731500Y-53110500D02*
X68326000Y-52705000D01*
X36117000Y-53340000D02*
X34798000Y-53340000D01*
X53442500Y-53110500D02*
X48411500Y-53110500D01*
X48411500Y-53110500D02*
X48006000Y-52705000D01*
X34798000Y-53340000D02*
X34798000Y-52705000D01*
X76708000Y-52705000D02*
X74168000Y-52705000D01*
X56388000Y-52705000D02*
X53848000Y-52705000D01*
X34798000Y-52705000D02*
X48006000Y-52705000D01*
X55118000Y-52705000D02*
X68326000Y-52705000D01*
X74168000Y-52705000D02*
X73762500Y-53110500D01*
X53848000Y-52705000D02*
X53442500Y-53110500D01*
X56388000Y-53291000D02*
X56388000Y-52705000D01*
X56388000Y-53975000D02*
X53975000Y-53975000D01*
X68707000Y-53467000D02*
X68199000Y-53975000D01*
X76708000Y-53975000D02*
X74295000Y-53975000D01*
X34798000Y-54610000D02*
X34798000Y-53975000D01*
X53467000Y-53467000D02*
X48387000Y-53467000D01*
X74295000Y-53975000D02*
X73787000Y-53467000D01*
X53975000Y-53975000D02*
X53467000Y-53467000D01*
X34798000Y-54610000D02*
X31623000Y-54610000D01*
X36117000Y-54610000D02*
X34798000Y-54610000D01*
X31623000Y-64770000D02*
X28575000Y-64770000D01*
X56388000Y-54561000D02*
X56388000Y-53975000D01*
X48387000Y-53467000D02*
X47879000Y-53975000D01*
X76708000Y-54561000D02*
X76708000Y-53975000D01*
X34798000Y-53975000D02*
X47879000Y-53975000D01*
X73787000Y-53467000D02*
X68707000Y-53467000D01*
X28575000Y-64770000D02*
X27305000Y-66040000D01*
X31623000Y-54610000D02*
X31623000Y-64770000D01*
X55118000Y-53975000D02*
X68199000Y-53975000D01*
X68707000Y-55753000D02*
X68199000Y-55245000D01*
X53975000Y-55245000D02*
X53467000Y-55753000D01*
X48387000Y-55753000D02*
X47879000Y-55245000D01*
X34798000Y-55880000D02*
X34798000Y-55245000D01*
X76708000Y-55245000D02*
X74295000Y-55245000D01*
X36117000Y-55880000D02*
X34798000Y-55880000D01*
X31877000Y-66040000D02*
X29845000Y-66040000D01*
X36117000Y-55880000D02*
X31877000Y-55880000D01*
X55118000Y-55245000D02*
X68199000Y-55245000D01*
X34798000Y-55245000D02*
X47879000Y-55245000D01*
X56388000Y-55245000D02*
X53975000Y-55245000D01*
X53467000Y-55753000D02*
X48387000Y-55753000D01*
X73787000Y-55753000D02*
X68707000Y-55753000D01*
X56388000Y-55831000D02*
X56388000Y-55245000D01*
X76708000Y-55831000D02*
X76708000Y-55245000D01*
X31877000Y-55880000D02*
X31877000Y-66040000D01*
X74295000Y-55245000D02*
X73787000Y-55753000D01*
X34798000Y-56515000D02*
X47879000Y-56515000D01*
X32131000Y-57150000D02*
X32131000Y-67310000D01*
X34798000Y-57150000D02*
X32131000Y-57150000D01*
X53948745Y-56515000D02*
X53440745Y-56007000D01*
X28575000Y-67310000D02*
X27305000Y-68580000D01*
X74268745Y-56515000D02*
X73760745Y-56007000D01*
X32131000Y-67310000D02*
X28575000Y-67310000D01*
X56388000Y-57101000D02*
X56388000Y-56515000D01*
X76708000Y-57101000D02*
X76708000Y-56515000D01*
X34798000Y-57150000D02*
X34798000Y-56515000D01*
X68707000Y-56007000D02*
X68199000Y-56515000D01*
X48387000Y-56007000D02*
X47879000Y-56515000D01*
X55118000Y-56515000D02*
X68199000Y-56515000D01*
X73760745Y-56007000D02*
X68707000Y-56007000D01*
X56388000Y-56515000D02*
X53948745Y-56515000D01*
X36117000Y-57150000D02*
X34798000Y-57150000D01*
X76708000Y-56515000D02*
X74268745Y-56515000D01*
X53440745Y-56007000D02*
X48387000Y-56007000D01*
X74295000Y-57785000D02*
X73787000Y-58293000D01*
X55118000Y-57785000D02*
X68199000Y-57785000D01*
X48387000Y-58293000D02*
X47879000Y-57785000D01*
X76708000Y-57785000D02*
X74295000Y-57785000D01*
X68707000Y-58293000D02*
X68199000Y-57785000D01*
X56388000Y-58371000D02*
X56388000Y-57785000D01*
X34798000Y-58420000D02*
X34798000Y-57785000D01*
X34798000Y-57785000D02*
X47879000Y-57785000D01*
X73787000Y-58293000D02*
X68707000Y-58293000D01*
X56388000Y-57785000D02*
X53975000Y-57785000D01*
X76708000Y-57785000D02*
X76708000Y-58371000D01*
X53975000Y-57785000D02*
X53467000Y-58293000D01*
X32385000Y-68580000D02*
X29845000Y-68580000D01*
X36117000Y-58420000D02*
X34798000Y-58420000D01*
X32385000Y-58420000D02*
X32385000Y-68580000D01*
X53467000Y-58293000D02*
X48387000Y-58293000D01*
X34798000Y-58420000D02*
X32385000Y-58420000D01*
X32639000Y-69215000D02*
X32639000Y-59690000D01*
X76708000Y-59055000D02*
X74295000Y-59055000D01*
X34798000Y-59690000D02*
X34798000Y-59055000D01*
X28575000Y-69850000D02*
X31242000Y-69850000D01*
X55118000Y-59055000D02*
X68135500Y-59055000D01*
X32639000Y-59690000D02*
X34798000Y-59690000D01*
X31242000Y-69215000D02*
X32639000Y-69215000D01*
X34798000Y-59055000D02*
X47815500Y-59055000D01*
X31242000Y-69850000D02*
X31242000Y-69215000D01*
X53467000Y-58547000D02*
X48323500Y-58547000D01*
X73787000Y-58547000D02*
X68643500Y-58547000D01*
X53975000Y-59055000D02*
X53467000Y-58547000D01*
X76708000Y-59641000D02*
X76708000Y-59055000D01*
X48323500Y-58547000D02*
X47815500Y-59055000D01*
X36117000Y-59690000D02*
X34798000Y-59690000D01*
X27305000Y-71120000D02*
X28575000Y-69850000D01*
X74295000Y-59055000D02*
X73787000Y-58547000D01*
X56388000Y-59055000D02*
X53975000Y-59055000D01*
X56388000Y-59641000D02*
X56388000Y-59055000D01*
X68643500Y-58547000D02*
X68135500Y-59055000D01*
X47498000Y-60325000D02*
X48006000Y-60833000D01*
X29845000Y-71120000D02*
X31623000Y-71120000D01*
X53975000Y-60325000D02*
X56388000Y-60325000D01*
X32893000Y-69596000D02*
X32893000Y-60960000D01*
X68707000Y-60833000D02*
X73787000Y-60833000D01*
X31623000Y-69596000D02*
X32893000Y-69596000D01*
X34798000Y-60325000D02*
X47498000Y-60325000D01*
X34798000Y-60960000D02*
X34798000Y-60325000D01*
X76708000Y-60325000D02*
X76708000Y-60911000D01*
X53467000Y-60833000D02*
X53975000Y-60325000D01*
X56388000Y-60911000D02*
X56388000Y-60325000D01*
X36117000Y-60960000D02*
X34798000Y-60960000D01*
X32893000Y-60960000D02*
X34798000Y-60960000D01*
X74295000Y-60325000D02*
X76708000Y-60325000D01*
X56388000Y-60325000D02*
X68199000Y-60325000D01*
X31623000Y-71120000D02*
X31623000Y-69596000D01*
X68199000Y-60325000D02*
X68707000Y-60833000D01*
X48006000Y-60833000D02*
X53467000Y-60833000D01*
X73787000Y-60833000D02*
X74295000Y-60325000D01*
X28575000Y-72390000D02*
X27305000Y-73660000D01*
X36117000Y-69850000D02*
X34798000Y-69850000D01*
X53848000Y-69215000D02*
X53340000Y-68707000D01*
X76708000Y-69801000D02*
X76708000Y-69215000D01*
X76708000Y-69215000D02*
X74168000Y-69215000D01*
X74168000Y-69215000D02*
X73660000Y-68707000D01*
X34798000Y-69850000D02*
X31877000Y-69850000D01*
X53340000Y-68707000D02*
X48387000Y-68707000D01*
X48387000Y-68707000D02*
X47879000Y-69215000D01*
X55118000Y-69215000D02*
X68199000Y-69215000D01*
X56388000Y-69801000D02*
X56388000Y-69215000D01*
X56388000Y-69215000D02*
X53848000Y-69215000D01*
X68707000Y-68707000D02*
X68199000Y-69215000D01*
X34798000Y-69215000D02*
X47879000Y-69215000D01*
X31877000Y-69850000D02*
X31877000Y-72390000D01*
X34798000Y-69850000D02*
X34798000Y-69215000D01*
X31877000Y-72390000D02*
X28575000Y-72390000D01*
X73660000Y-68707000D02*
X68707000Y-68707000D01*
X55118000Y-70485000D02*
X68326000Y-70485000D01*
X56388000Y-70485000D02*
X53848000Y-70485000D01*
X76708000Y-71071000D02*
X76708000Y-70485000D01*
X76708000Y-70485000D02*
X74168000Y-70485000D01*
X53848000Y-70485000D02*
X53442500Y-70890500D01*
X48411500Y-70890500D02*
X48006000Y-70485000D01*
X32131000Y-73660000D02*
X29845000Y-73660000D01*
X56388000Y-70485000D02*
X56388000Y-71071000D01*
X36117000Y-71120000D02*
X34798000Y-71120000D01*
X32131000Y-71120000D02*
X32131000Y-73660000D01*
X73762500Y-70890500D02*
X68731500Y-70890500D01*
X34798000Y-71120000D02*
X34798000Y-70485000D01*
X34798000Y-71120000D02*
X32131000Y-71120000D01*
X74168000Y-70485000D02*
X73762500Y-70890500D01*
X34798000Y-70485000D02*
X48006000Y-70485000D01*
X53442500Y-70890500D02*
X48411500Y-70890500D01*
X68731500Y-70890500D02*
X68326000Y-70485000D01*
X74295000Y-71755000D02*
X73787000Y-71247000D01*
X36117000Y-72390000D02*
X34798000Y-72390000D01*
X56388000Y-71755000D02*
X53975000Y-71755000D01*
X76708000Y-72341000D02*
X76708000Y-71755000D01*
X32385000Y-72390000D02*
X32385000Y-74930000D01*
X53467000Y-71247000D02*
X48387000Y-71247000D01*
X34798000Y-71755000D02*
X47879000Y-71755000D01*
X34798000Y-72390000D02*
X34798000Y-71755000D01*
X76708000Y-71755000D02*
X74295000Y-71755000D01*
X32385000Y-74930000D02*
X28575000Y-74930000D01*
X34798000Y-72390000D02*
X32385000Y-72390000D01*
X56388000Y-72341000D02*
X56388000Y-71755000D01*
X68707000Y-71247000D02*
X68199000Y-71755000D01*
X48387000Y-71247000D02*
X47879000Y-71755000D01*
X53975000Y-71755000D02*
X53467000Y-71247000D01*
X73787000Y-71247000D02*
X68707000Y-71247000D01*
X55118000Y-71755000D02*
X68199000Y-71755000D01*
X28575000Y-74930000D02*
X27305000Y-76200000D01*
X76708000Y-73611000D02*
X76708000Y-73025000D01*
X32639000Y-73660000D02*
X32639000Y-76200000D01*
X48387000Y-73533000D02*
X47879000Y-73025000D01*
X34798000Y-73660000D02*
X32639000Y-73660000D01*
X68707000Y-73533000D02*
X68199000Y-73025000D01*
X73787000Y-73533000D02*
X68707000Y-73533000D01*
X76708000Y-73025000D02*
X74295000Y-73025000D01*
X56388000Y-73611000D02*
X56388000Y-73025000D01*
X55118000Y-73025000D02*
X68199000Y-73025000D01*
X36117000Y-73660000D02*
X34798000Y-73660000D01*
X32639000Y-76200000D02*
X29845000Y-76200000D01*
X53467000Y-73533000D02*
X48387000Y-73533000D01*
X56134000Y-73025000D02*
X53975000Y-73025000D01*
X34798000Y-73025000D02*
X47879000Y-73025000D01*
X74295000Y-73025000D02*
X73787000Y-73533000D01*
X34798000Y-73660000D02*
X34798000Y-73025000D01*
X56388000Y-73025000D02*
X56134000Y-73025000D01*
X53975000Y-73025000D02*
X53467000Y-73533000D01*
X68707000Y-73787000D02*
X68199000Y-74295000D01*
X32893000Y-74930000D02*
X32893000Y-77470000D01*
X36117000Y-74930000D02*
X34798000Y-74930000D01*
X34798000Y-74930000D02*
X32893000Y-74930000D01*
X76708000Y-74295000D02*
X74268745Y-74295000D01*
X53440745Y-73787000D02*
X48387000Y-73787000D01*
X73760745Y-73787000D02*
X68707000Y-73787000D01*
X56388000Y-74881000D02*
X56388000Y-74295000D01*
X34798000Y-74295000D02*
X47879000Y-74295000D01*
X34798000Y-74930000D02*
X34798000Y-74295000D01*
X56388000Y-74295000D02*
X53948745Y-74295000D01*
X48387000Y-73787000D02*
X47879000Y-74295000D01*
X74268745Y-74295000D02*
X73760745Y-73787000D01*
X53948745Y-74295000D02*
X53440745Y-73787000D01*
X28575000Y-77470000D02*
X27305000Y-78740000D01*
X76708000Y-74881000D02*
X76708000Y-74295000D01*
X32893000Y-77470000D02*
X28575000Y-77470000D01*
X55118000Y-74295000D02*
X68199000Y-74295000D01*
X53467000Y-76073000D02*
X48387000Y-76073000D01*
X34798000Y-76200000D02*
X33147000Y-76200000D01*
X76708000Y-76151000D02*
X76708000Y-75565000D01*
X56388000Y-76151000D02*
X56388000Y-75565000D01*
X48387000Y-76073000D02*
X47879000Y-75565000D01*
X56388000Y-75565000D02*
X53975000Y-75565000D01*
X53975000Y-75565000D02*
X53467000Y-76073000D01*
X33147000Y-76200000D02*
X33147000Y-78740000D01*
X34798000Y-76200000D02*
X34798000Y-75565000D01*
X73787000Y-76073000D02*
X68707000Y-76073000D01*
X68707000Y-76073000D02*
X68199000Y-75565000D01*
X33147000Y-78740000D02*
X29845000Y-78740000D01*
X74295000Y-75565000D02*
X73787000Y-76073000D01*
X36117000Y-76200000D02*
X34798000Y-76200000D01*
X34798000Y-75565000D02*
X47879000Y-75565000D01*
X55118000Y-75565000D02*
X68199000Y-75565000D01*
X76708000Y-75565000D02*
X74295000Y-75565000D01*
X76708000Y-77421000D02*
X76708000Y-76835000D01*
X33401000Y-80010000D02*
X28575000Y-80010000D01*
X56388000Y-76835000D02*
X53975000Y-76835000D01*
X55118000Y-76835000D02*
X68135500Y-76835000D01*
X34798000Y-77470000D02*
X33401000Y-77470000D01*
X53467000Y-76327000D02*
X48323500Y-76327000D01*
X34798000Y-76835000D02*
X47815500Y-76835000D01*
X28575000Y-80010000D02*
X27305000Y-81280000D01*
X53975000Y-76835000D02*
X53467000Y-76327000D01*
X36117000Y-77470000D02*
X34798000Y-77470000D01*
X34798000Y-77470000D02*
X34798000Y-76835000D01*
X48323500Y-76327000D02*
X47815500Y-76835000D01*
X76708000Y-76835000D02*
X74295000Y-76835000D01*
X74295000Y-76835000D02*
X73787000Y-76327000D01*
X33401000Y-77470000D02*
X33401000Y-80010000D01*
X56388000Y-76835000D02*
X56388000Y-77421000D01*
X73787000Y-76327000D02*
X68643500Y-76327000D01*
X68643500Y-76327000D02*
X68135500Y-76835000D01*
X53467000Y-78613000D02*
X53975000Y-78105000D01*
X68199000Y-78105000D02*
X68707000Y-78613000D01*
X34798000Y-78740000D02*
X33655000Y-78740000D01*
X33655000Y-78740000D02*
X33655000Y-81280000D01*
X34798000Y-78740000D02*
X34798000Y-78105000D01*
X56388000Y-78691000D02*
X56388000Y-78105000D01*
X73787000Y-78613000D02*
X74295000Y-78105000D01*
X33655000Y-81280000D02*
X29845000Y-81280000D01*
X74295000Y-78105000D02*
X76708000Y-78105000D01*
X76708000Y-78105000D02*
X76708000Y-78691000D01*
X53975000Y-78105000D02*
X68199000Y-78105000D01*
X48387000Y-78613000D02*
X53467000Y-78613000D01*
X36117000Y-78740000D02*
X34798000Y-78740000D01*
X68707000Y-78613000D02*
X73787000Y-78613000D01*
X34798000Y-78105000D02*
X47879000Y-78105000D01*
X47879000Y-78105000D02*
X48387000Y-78613000D01*
X34798000Y-86995000D02*
X34798000Y-87630000D01*
X73660000Y-86487000D02*
X68707000Y-86487000D01*
X56388000Y-86995000D02*
X56388000Y-87581000D01*
X32766000Y-82550000D02*
X28575000Y-82550000D01*
X53340000Y-86487000D02*
X48387000Y-86487000D01*
X68707000Y-86487000D02*
X68199000Y-86995000D01*
X76757000Y-87630000D02*
X74803000Y-87630000D01*
X56261000Y-86995000D02*
X53848000Y-86995000D01*
X74168000Y-86995000D02*
X73660000Y-86487000D01*
X74803000Y-87630000D02*
X74168000Y-86995000D01*
X32766000Y-86995000D02*
X32766000Y-82550000D01*
X48387000Y-86487000D02*
X47879000Y-86995000D01*
X34798000Y-86995000D02*
X32766000Y-86995000D01*
X34798000Y-87630000D02*
X36117000Y-87630000D01*
X47879000Y-86995000D02*
X34798000Y-86995000D01*
X53848000Y-86995000D02*
X53340000Y-86487000D01*
X28575000Y-82550000D02*
X27305000Y-83820000D01*
X68199000Y-86995000D02*
X55118000Y-86995000D01*
X56388000Y-86995000D02*
X56261000Y-86995000D01*
X68731500Y-88670500D02*
X68326000Y-88265000D01*
X34798000Y-88265000D02*
X34798000Y-88900000D01*
X32512000Y-88265000D02*
X32512000Y-83820000D01*
X34798000Y-88265000D02*
X32512000Y-88265000D01*
X74446500Y-88670500D02*
X68731500Y-88670500D01*
X74676000Y-88900000D02*
X74446500Y-88670500D01*
X56388000Y-88265000D02*
X56388000Y-88851000D01*
X76757000Y-88900000D02*
X74676000Y-88900000D01*
X53848000Y-88265000D02*
X53442500Y-88670500D01*
X48006000Y-88265000D02*
X34798000Y-88265000D01*
X48411500Y-88670500D02*
X48006000Y-88265000D01*
X56388000Y-88265000D02*
X53848000Y-88265000D01*
X53442500Y-88670500D02*
X48411500Y-88670500D01*
X68326000Y-88265000D02*
X55118000Y-88265000D01*
X34798000Y-88900000D02*
X36117000Y-88900000D01*
X32512000Y-83820000D02*
X29845000Y-83820000D01*
X48387000Y-89027000D02*
X47879000Y-89535000D01*
X34798000Y-90170000D02*
X36117000Y-90170000D01*
X74295000Y-89535000D02*
X74930000Y-90170000D01*
X56388000Y-89535000D02*
X53975000Y-89535000D01*
X53975000Y-89535000D02*
X53467000Y-89027000D01*
X68199000Y-89535000D02*
X55118000Y-89535000D01*
X73787000Y-89027000D02*
X68707000Y-89027000D01*
X56388000Y-89535000D02*
X56388000Y-90121000D01*
X34798000Y-89535000D02*
X34798000Y-90170000D01*
X74295000Y-89535000D02*
X73787000Y-89027000D01*
X28575000Y-85090000D02*
X27305000Y-86360000D01*
X32258000Y-89535000D02*
X32258000Y-85090000D01*
X32258000Y-85090000D02*
X28575000Y-85090000D01*
X47879000Y-89535000D02*
X34798000Y-89535000D01*
X34798000Y-89535000D02*
X32258000Y-89535000D01*
X53467000Y-89027000D02*
X48387000Y-89027000D01*
X68707000Y-89027000D02*
X68199000Y-89535000D01*
X74930000Y-90170000D02*
X76757000Y-90170000D01*
X68199000Y-90805000D02*
X55118000Y-90805000D01*
X74803000Y-91313000D02*
X68707000Y-91313000D01*
X56388000Y-90805000D02*
X53975000Y-90805000D01*
X56388000Y-90805000D02*
X56388000Y-91391000D01*
X76757000Y-91440000D02*
X74930000Y-91440000D01*
X48387000Y-91313000D02*
X47879000Y-90805000D01*
X53467000Y-91313000D02*
X48387000Y-91313000D01*
X68707000Y-91313000D02*
X68199000Y-90805000D01*
X74930000Y-91440000D02*
X74803000Y-91313000D01*
X34798000Y-91440000D02*
X36117000Y-91440000D01*
X53975000Y-90805000D02*
X53467000Y-91313000D01*
X34798000Y-90805000D02*
X34798000Y-91440000D01*
X47879000Y-90805000D02*
X34798000Y-90805000D01*
X32004000Y-86360000D02*
X29845000Y-86360000D01*
X34798000Y-90805000D02*
X32004000Y-90805000D01*
X32004000Y-90805000D02*
X32004000Y-86360000D01*
X48387000Y-91567000D02*
X47879000Y-92075000D01*
X47879000Y-92075000D02*
X34798000Y-92075000D01*
X56388000Y-92075000D02*
X56388000Y-92661000D01*
X31750000Y-87630000D02*
X28575000Y-87630000D01*
X68199000Y-92075000D02*
X68707000Y-91567000D01*
X53948745Y-92075000D02*
X53440745Y-91567000D01*
X31750000Y-92075000D02*
X31750000Y-87630000D01*
X68707000Y-91567000D02*
X73780436Y-91567000D01*
X73780436Y-91567000D02*
X74923436Y-92710000D01*
X28575000Y-87630000D02*
X27305000Y-88900000D01*
X55118000Y-92075000D02*
X68199000Y-92075000D01*
X34798000Y-92075000D02*
X34798000Y-92710000D01*
X34798000Y-92710000D02*
X36117000Y-92710000D01*
X56388000Y-92075000D02*
X53948745Y-92075000D01*
X53440745Y-91567000D02*
X48387000Y-91567000D01*
X74923436Y-92710000D02*
X76757000Y-92710000D01*
X34798000Y-92075000D02*
X31750000Y-92075000D01*
X56261000Y-93345000D02*
X53975000Y-93345000D01*
X75057000Y-93980000D02*
X76757000Y-93980000D01*
X53467000Y-93853000D02*
X48387000Y-93853000D01*
X56388000Y-93345000D02*
X56261000Y-93345000D01*
X31496000Y-88900000D02*
X29845000Y-88900000D01*
X68707000Y-93853000D02*
X74930000Y-93853000D01*
X76630000Y-93853000D02*
X76757000Y-93980000D01*
X53975000Y-93345000D02*
X53467000Y-93853000D01*
X48387000Y-93853000D02*
X47879000Y-93345000D01*
X47879000Y-93345000D02*
X34798000Y-93345000D01*
X68199000Y-93345000D02*
X68707000Y-93853000D01*
X34798000Y-93980000D02*
X36117000Y-93980000D01*
X31496000Y-93345000D02*
X31496000Y-88900000D01*
X34798000Y-93345000D02*
X34798000Y-93980000D01*
X74930000Y-93853000D02*
X75057000Y-93980000D01*
X55118000Y-93345000D02*
X68199000Y-93345000D01*
X34798000Y-93345000D02*
X31496000Y-93345000D01*
X56388000Y-93345000D02*
X56388000Y-93931000D01*
X53975000Y-94615000D02*
X53467000Y-94107000D01*
X68135500Y-94615000D02*
X68643500Y-94107000D01*
X56388000Y-94615000D02*
X56388000Y-95201000D01*
X28575000Y-90170000D02*
X27305000Y-91440000D01*
X56388000Y-94615000D02*
X53975000Y-94615000D01*
X31242000Y-90170000D02*
X28575000Y-90170000D01*
X55118000Y-94615000D02*
X68135500Y-94615000D01*
X48323500Y-94107000D02*
X47815500Y-94615000D01*
X31242000Y-94615000D02*
X31242000Y-90170000D01*
X68643500Y-94107000D02*
X73787000Y-94107000D01*
X34798000Y-94615000D02*
X31242000Y-94615000D01*
X53467000Y-94107000D02*
X48323500Y-94107000D01*
X74930000Y-95250000D02*
X76757000Y-95250000D01*
X34798000Y-94615000D02*
X34798000Y-95250000D01*
X73787000Y-94107000D02*
X74930000Y-95250000D01*
X47815500Y-94615000D02*
X34798000Y-94615000D01*
X34798000Y-95250000D02*
X36117000Y-95250000D01*
X68072000Y-95885000D02*
X55118000Y-95885000D01*
X46921672Y-95885000D02*
X47429672Y-96393000D01*
X36117000Y-96520000D02*
X34798000Y-96520000D01*
X34798000Y-96520000D02*
X34798000Y-95885000D01*
X56388000Y-95885000D02*
X56388000Y-96471000D01*
X34798000Y-95885000D02*
X30988000Y-95885000D01*
X75057000Y-96520000D02*
X74930000Y-96393000D01*
X30988000Y-91440000D02*
X29845000Y-91440000D01*
X56388000Y-95885000D02*
X53975000Y-95885000D01*
X74930000Y-96393000D02*
X68580000Y-96393000D01*
X47429672Y-96393000D02*
X53467000Y-96393000D01*
X34798000Y-95885000D02*
X46921672Y-95885000D01*
X76757000Y-96520000D02*
X75057000Y-96520000D01*
X30988000Y-95885000D02*
X30988000Y-91440000D01*
X53467000Y-96393000D02*
X53975000Y-95885000D01*
X68580000Y-96393000D02*
X68072000Y-95885000D01*
X65737000Y-91440000D02*
X64262000Y-91440000D01*
X65737000Y-91440000D02*
X67183000Y-91440000D01*
X55372000Y-34544000D02*
X55372000Y-45847000D01*
X56007000Y-29770000D02*
X56007000Y-34544000D01*
X56007000Y-34544000D02*
X55372000Y-34544000D01*
X42672000Y-37846000D02*
X42672000Y-36270000D01*
X54229000Y-46355000D02*
X54229000Y-44577000D01*
X43942000Y-44577000D02*
X43942000Y-37846000D01*
X65737000Y-92710000D02*
X69977000Y-92710000D01*
X54229000Y-44577000D02*
X43942000Y-44577000D01*
X65737000Y-92710000D02*
X64262000Y-92710000D01*
X43942000Y-37846000D02*
X42672000Y-37846000D01*
X65737000Y-93980000D02*
X67183000Y-93980000D01*
X53594000Y-45720000D02*
X53594000Y-44831000D01*
X37592000Y-36270000D02*
X37592000Y-37592000D01*
X53594000Y-44831000D02*
X43307000Y-44831000D01*
X65737000Y-93980000D02*
X64262000Y-93980000D01*
X43307000Y-44831000D02*
X43307000Y-38354000D01*
X42545000Y-45085000D02*
X42545000Y-38354000D01*
X65737000Y-95250000D02*
X69977000Y-95250000D01*
X37592000Y-32893000D02*
X37592000Y-29770000D01*
X65737000Y-95250000D02*
X64262000Y-95250000D01*
X52959000Y-45085000D02*
X42545000Y-45085000D01*
X35687000Y-37592000D02*
X35687000Y-32893000D01*
X35687000Y-32893000D02*
X37592000Y-32893000D01*
X52958999Y-46355000D02*
X52959000Y-45085000D01*
X42037000Y-45339000D02*
X42037000Y-34544000D01*
X52324000Y-45720000D02*
X52324000Y-45339000D01*
X52324000Y-45339000D02*
X42037000Y-45339000D01*
X42037000Y-34544000D02*
X42672000Y-34544000D01*
X42672000Y-34544000D02*
X42672000Y-29770000D01*
X65737000Y-96520000D02*
X64262000Y-96520000D01*
X67183000Y-96520000D02*
X65737000Y-96520000D01*
X109982000Y-32131000D02*
X109982000Y-37338000D01*
X111887000Y-29770000D02*
X111887000Y-30226000D01*
X101600000Y-37465000D02*
X97282000Y-37465000D01*
X107950000Y-39370000D02*
X101600000Y-39370000D01*
X109982000Y-37338000D02*
X109982000Y-38481000D01*
X107950000Y-38481000D02*
X107950000Y-39370000D01*
X97282000Y-37465000D02*
X97282000Y-36270000D01*
X101600000Y-39370000D02*
X101600000Y-37465000D01*
X111887000Y-30226000D02*
X109982000Y-32131000D01*
X120142000Y-67310000D02*
X120142000Y-50546000D01*
X115840000Y-88900000D02*
X114300000Y-88900000D01*
X120142000Y-48514000D02*
X120142000Y-37465000D01*
X110617000Y-36270000D02*
X110617000Y-37465000D01*
X110617000Y-37465000D02*
X120142000Y-37465000D01*
X120142000Y-67310000D02*
X123190000Y-67310000D01*
X121666000Y-59690000D02*
X121666000Y-50546000D01*
X44196000Y-50038000D02*
X44704000Y-50038000D01*
X40767000Y-61722000D02*
X43307000Y-61722000D01*
X36117000Y-50800000D02*
X44196000Y-50800000D01*
X42037000Y-79375000D02*
X40767000Y-79375000D01*
X45720000Y-49022000D02*
X121158000Y-49022000D01*
X44704000Y-50038000D02*
X45720000Y-49022000D01*
X121666000Y-50546000D02*
X121412000Y-50292000D01*
X36117000Y-68580000D02*
X40767000Y-68580000D01*
X42037000Y-68580000D02*
X40767000Y-68580000D01*
X40767000Y-79375000D02*
X40767000Y-86360000D01*
X123190000Y-59690000D02*
X121666000Y-59690000D01*
X40767000Y-66675000D02*
X40767000Y-61722000D01*
X40767000Y-86360000D02*
X36117000Y-86360000D01*
X115840000Y-81280000D02*
X114300000Y-81280000D01*
X44196000Y-50800000D02*
X44196000Y-50038000D01*
X121158000Y-49022000D02*
X121412000Y-48768000D01*
X40767000Y-68580000D02*
X40767000Y-66675000D01*
X45417000Y-80010000D02*
X50927000Y-80010000D01*
X50927000Y-62230000D02*
X50927000Y-61595000D01*
X123190000Y-49276000D02*
X54229000Y-49276000D01*
X50927000Y-79375000D02*
X53467000Y-79375000D01*
X45417000Y-62230000D02*
X50927000Y-62230000D01*
X50927000Y-80010000D02*
X50927000Y-79375000D01*
X50927000Y-61595000D02*
X53467000Y-61595000D01*
X45417000Y-97790000D02*
X53467000Y-97790000D01*
X53467000Y-97790000D02*
X53467000Y-97155000D01*
X123190000Y-54610000D02*
X123190000Y-49276000D01*
X115840000Y-76200000D02*
X114300000Y-76200000D01*
X54229000Y-49276000D02*
X53467000Y-50038000D01*
X61087000Y-50800000D02*
X56437000Y-50800000D01*
X123190000Y-62230000D02*
X121158000Y-62230000D01*
X53975000Y-81153000D02*
X53975000Y-80899000D01*
X53975000Y-86360000D02*
X53975000Y-81153000D01*
X122428000Y-49530000D02*
X61087000Y-49530000D01*
X53975000Y-50800000D02*
X56437000Y-50800000D01*
X115840000Y-83820000D02*
X114300000Y-83820000D01*
X121158000Y-62230000D02*
X121158000Y-51054000D01*
X53975000Y-68580000D02*
X56437000Y-68580000D01*
X122428000Y-51054000D02*
X122428000Y-49530000D01*
X56437000Y-86360000D02*
X53975000Y-86360000D01*
X61087000Y-49530000D02*
X61087000Y-50800000D01*
X121920000Y-49784000D02*
X68072000Y-49784000D01*
X65737000Y-62230000D02*
X67183000Y-62230000D01*
X123190000Y-57150000D02*
X121920000Y-57150000D01*
X64262000Y-80010000D02*
X65737000Y-80010000D01*
X64262000Y-62230000D02*
X65737000Y-62230000D01*
X121920000Y-57150000D02*
X121920000Y-49784000D01*
X68072000Y-49784000D02*
X68072000Y-50800000D01*
X115840000Y-78740000D02*
X114300000Y-78740000D01*
X65737000Y-97790000D02*
X64262000Y-97790000D01*
X115840000Y-86360000D02*
X114300000Y-86360000D01*
X120650000Y-64770000D02*
X120650000Y-50038000D01*
X84455000Y-69850000D02*
X86057000Y-69850000D01*
X86057000Y-87630000D02*
X84455000Y-87630000D01*
X123190000Y-64770000D02*
X120650000Y-64770000D01*
X120650000Y-50038000D02*
X84709000Y-50038000D01*
X84709000Y-50038000D02*
X84709000Y-52070000D01*
X84709000Y-52070000D02*
X86057000Y-52070000D01*
X111884000Y-55880000D02*
X113411000Y-55880000D01*
X115840000Y-91440000D02*
X114300000Y-91440000D01*
X113411000Y-69850000D02*
X123190000Y-69850000D01*
X113411000Y-69850000D02*
X113411000Y-55880000D01*
X86057000Y-62230000D02*
X90297000Y-62230000D01*
X101662000Y-58420000D02*
X99568000Y-58420000D01*
X97282000Y-29770000D02*
X97282000Y-28448000D01*
X90297000Y-62230000D02*
X92837000Y-59690000D01*
X99568000Y-58420000D02*
X98933000Y-59055000D01*
X93472000Y-59055000D02*
X92837000Y-59690000D01*
X98933000Y-59055000D02*
X93472000Y-59055000D01*
X86057000Y-62230000D02*
X84328000Y-62230000D01*
X101662000Y-57150000D02*
X99568000Y-57150000D01*
X98933000Y-57785000D02*
X94742000Y-57785000D01*
X86057000Y-60960000D02*
X89027000Y-60960000D01*
X94742000Y-57785000D02*
X94107000Y-58420000D01*
X94107000Y-58420000D02*
X91948000Y-58420000D01*
X89027000Y-60960000D02*
X90297000Y-59690000D01*
X84328000Y-60960000D02*
X86057000Y-60960000D01*
X99568000Y-57150000D02*
X98933000Y-57785000D01*
X93472000Y-29770000D02*
X93472000Y-28448000D01*
X91948000Y-58420000D02*
X90678000Y-59690000D01*
X90678000Y-59690000D02*
X90297000Y-59690000D01*
X86057000Y-59690000D02*
X87757000Y-59690000D01*
X89027000Y-58420000D02*
X91249500Y-58420000D01*
X91249500Y-58420000D02*
X92519500Y-57150000D01*
X96712000Y-72390000D02*
X95250000Y-72390000D01*
X78232000Y-59690000D02*
X86057000Y-59690000D01*
X92519500Y-57150000D02*
X92837000Y-57150000D01*
X89662000Y-36270000D02*
X89662000Y-35052000D01*
X87757000Y-59690000D02*
X89027000Y-58420000D01*
X90551000Y-57150000D02*
X90297000Y-57150000D01*
X94107000Y-55880000D02*
X91821000Y-55880000D01*
X99822000Y-55880000D02*
X99187000Y-56515000D01*
X87630000Y-58420000D02*
X88900000Y-57150000D01*
X86057000Y-58420000D02*
X87630000Y-58420000D01*
X88900000Y-57150000D02*
X90297000Y-57150000D01*
X91821000Y-55880000D02*
X90551000Y-57150000D01*
X99187000Y-56515000D02*
X94742000Y-56515000D01*
X78232000Y-58420000D02*
X86057000Y-58420000D01*
X94742000Y-56515000D02*
X94107000Y-55880000D01*
X101662000Y-55880000D02*
X99822000Y-55880000D01*
X93472000Y-36270000D02*
X93472000Y-35052000D01*
X92456000Y-54610000D02*
X92837000Y-54610000D01*
X89027000Y-55880000D02*
X91186000Y-55880000D01*
X110617000Y-29770000D02*
X110617000Y-28448000D01*
X86057000Y-57150000D02*
X87630000Y-57150000D01*
X91186000Y-55880000D02*
X92456000Y-54610000D01*
X87630000Y-57150000D02*
X87757000Y-57150000D01*
X96712000Y-90170000D02*
X95123000Y-90170000D01*
X87757000Y-57150000D02*
X89027000Y-55880000D01*
X91948000Y-53340000D02*
X90678000Y-54610000D01*
X86057000Y-55880000D02*
X87630000Y-55880000D01*
X106807000Y-29770000D02*
X106807000Y-28448000D01*
X96712000Y-53340000D02*
X91948000Y-53340000D01*
X88900000Y-54610000D02*
X90297000Y-54610000D01*
X90678000Y-54610000D02*
X90297000Y-54610000D01*
X87630000Y-55880000D02*
X88900000Y-54610000D01*
X88900000Y-53340000D02*
X91186000Y-53340000D01*
X99187000Y-53340000D02*
X98552000Y-52705000D01*
X102997000Y-36270000D02*
X102997000Y-35052000D01*
X78740000Y-54610000D02*
X86057000Y-54610000D01*
X91186000Y-53340000D02*
X92456000Y-52070000D01*
X86057000Y-54610000D02*
X87630000Y-54610000D01*
X93472000Y-52705000D02*
X92837000Y-52070000D01*
X101662000Y-53340000D02*
X99187000Y-53340000D01*
X87630000Y-54610000D02*
X88900000Y-53340000D01*
X98552000Y-52705000D02*
X93472000Y-52705000D01*
X92456000Y-52070000D02*
X92837000Y-52070000D01*
X106807000Y-36270000D02*
X106807000Y-35052000D01*
X86057000Y-53340000D02*
X87630000Y-53340000D01*
X95377000Y-52070000D02*
X94107000Y-50800000D01*
X78994000Y-53340000D02*
X86057000Y-53340000D01*
X88900000Y-52070000D02*
X90297000Y-52070000D01*
X95377000Y-52070000D02*
X96712000Y-52070000D01*
X94107000Y-50800000D02*
X91567000Y-50800000D01*
X91567000Y-50800000D02*
X90297000Y-52070000D01*
X87630000Y-53340000D02*
X88900000Y-52070000D01*
X101662000Y-76200000D02*
X99822000Y-76200000D01*
X82169000Y-80010000D02*
X86057000Y-80010000D01*
X93472000Y-76835000D02*
X92837000Y-77470000D01*
X99822000Y-76200000D02*
X99187000Y-76835000D01*
X70612000Y-29770000D02*
X70612000Y-28448000D01*
X82169000Y-80899000D02*
X82169000Y-80010000D01*
X90297000Y-80010000D02*
X92837000Y-77470000D01*
X86057000Y-80010000D02*
X90297000Y-80010000D01*
X99187000Y-76835000D02*
X93472000Y-76835000D01*
X94107000Y-76200000D02*
X91948000Y-76200000D01*
X90678000Y-77470000D02*
X90297000Y-77470000D01*
X99187000Y-75565000D02*
X94742000Y-75565000D01*
X101662000Y-74930000D02*
X99822000Y-74930000D01*
X81661000Y-80264000D02*
X81661000Y-78740000D01*
X81661000Y-78740000D02*
X86057000Y-78740000D01*
X89027000Y-78740000D02*
X90297000Y-77470000D01*
X94742000Y-75565000D02*
X94107000Y-76200000D01*
X86057000Y-78740000D02*
X89027000Y-78740000D01*
X91948000Y-76200000D02*
X90678000Y-77470000D01*
X99822000Y-74930000D02*
X99187000Y-75565000D01*
X66802000Y-29770000D02*
X66802000Y-28448000D01*
X89027000Y-76200000D02*
X91186000Y-76200000D01*
X86057000Y-77470000D02*
X87757000Y-77470000D01*
X91186000Y-76200000D02*
X92456000Y-74930000D01*
X78232000Y-77470000D02*
X86057000Y-77470000D01*
X87757000Y-77470000D02*
X89027000Y-76200000D01*
X62992000Y-36270000D02*
X62992000Y-35052000D01*
X92456000Y-74930000D02*
X92837000Y-74930000D01*
X96712000Y-74930000D02*
X92837000Y-74930000D01*
X87630000Y-76200000D02*
X88900000Y-74930000D01*
X88900000Y-74930000D02*
X90297000Y-74930000D01*
X86057000Y-76200000D02*
X87630000Y-76200000D01*
X93472000Y-73660000D02*
X91821000Y-73660000D01*
X101662000Y-73660000D02*
X99822000Y-73660000D01*
X90551000Y-74930000D02*
X90297000Y-74930000D01*
X99187000Y-74295000D02*
X94107000Y-74295000D01*
X78232000Y-76200000D02*
X86057000Y-76200000D01*
X91821000Y-73660000D02*
X90551000Y-74930000D01*
X66802000Y-36270000D02*
X66802000Y-35052000D01*
X94107000Y-74295000D02*
X93472000Y-73660000D01*
X99822000Y-73660000D02*
X99187000Y-74295000D01*
X94107000Y-72390000D02*
X92837000Y-72390000D01*
X89027000Y-73660000D02*
X91186000Y-73660000D01*
X95377000Y-73660000D02*
X94107000Y-72390000D01*
X87757000Y-74930000D02*
X89027000Y-73660000D01*
X92456000Y-72390000D02*
X92837000Y-72390000D01*
X91186000Y-73660000D02*
X92456000Y-72390000D01*
X83947000Y-29770000D02*
X83947000Y-28448000D01*
X96712000Y-73660000D02*
X95377000Y-73660000D01*
X83566000Y-74930000D02*
X86057000Y-74930000D01*
X86057000Y-74930000D02*
X87757000Y-74930000D01*
X91821000Y-71120000D02*
X90551000Y-72390000D01*
X86057000Y-73660000D02*
X87630000Y-73660000D01*
X80137000Y-29770000D02*
X80137000Y-28448000D01*
X88900000Y-72390000D02*
X90297000Y-72390000D01*
X90551000Y-72390000D02*
X90297000Y-72390000D01*
X83566000Y-73660000D02*
X86057000Y-73660000D01*
X87630000Y-73660000D02*
X88900000Y-72390000D01*
X96712000Y-71120000D02*
X91821000Y-71120000D01*
X78232000Y-72390000D02*
X86057000Y-72390000D01*
X91186000Y-71120000D02*
X92456000Y-69850000D01*
X87630000Y-72390000D02*
X88900000Y-71120000D01*
X99822000Y-71120000D02*
X99187000Y-70485000D01*
X76327000Y-36270000D02*
X76327000Y-35052000D01*
X88900000Y-71120000D02*
X91186000Y-71120000D01*
X86057000Y-72390000D02*
X87630000Y-72390000D01*
X101662000Y-71120000D02*
X99822000Y-71120000D01*
X92456000Y-69850000D02*
X92837000Y-69850000D01*
X99187000Y-70485000D02*
X93472000Y-70485000D01*
X93472000Y-70485000D02*
X92837000Y-69850000D01*
X95315000Y-68453000D02*
X91694000Y-68453000D01*
X88900000Y-69850000D02*
X90297000Y-69850000D01*
X96712000Y-69850000D02*
X95315000Y-68453000D01*
X86057000Y-71120000D02*
X87630000Y-71120000D01*
X91694000Y-68453000D02*
X90297000Y-69850000D01*
X78232000Y-71120000D02*
X86057000Y-71120000D01*
X80137000Y-36270000D02*
X80137000Y-35052000D01*
X87630000Y-71120000D02*
X88900000Y-69850000D01*
X106934000Y-53340000D02*
X106934000Y-52070000D01*
X86057000Y-97790000D02*
X90297000Y-97790000D01*
X93472000Y-94615000D02*
X99187000Y-94615000D01*
X99187000Y-94615000D02*
X99822000Y-93980000D01*
X90297000Y-97790000D02*
X104267000Y-97790000D01*
X78232000Y-97790000D02*
X86057000Y-97790000D01*
X92837000Y-95250000D02*
X93472000Y-94615000D01*
X99822000Y-93980000D02*
X101662000Y-93980000D01*
X104267000Y-53340000D02*
X106934000Y-53340000D01*
X90297000Y-97790000D02*
X92837000Y-95250000D01*
X104267000Y-97790000D02*
X104267000Y-79375000D01*
X43942000Y-29770000D02*
X43942000Y-28448000D01*
X90551000Y-95250000D02*
X91821000Y-93980000D01*
X86057000Y-96520000D02*
X89027000Y-96520000D01*
X90297000Y-95250000D02*
X90551000Y-95250000D01*
X94869000Y-93345000D02*
X99187000Y-93345000D01*
X78232000Y-96520000D02*
X86057000Y-96520000D01*
X40132000Y-29770000D02*
X40132000Y-28448000D01*
X99187000Y-93345000D02*
X99822000Y-92710000D01*
X99822000Y-92710000D02*
X101662000Y-92710000D01*
X94234000Y-93980000D02*
X94869000Y-93345000D01*
X89027000Y-96520000D02*
X90297000Y-95250000D01*
X91821000Y-93980000D02*
X94234000Y-93980000D01*
X92837000Y-92710000D02*
X96712000Y-92710000D01*
X78232000Y-95250000D02*
X86057000Y-95250000D01*
X89027000Y-93980000D02*
X91313000Y-93980000D01*
X92583000Y-92710000D02*
X92837000Y-92710000D01*
X86057000Y-95250000D02*
X87757000Y-95250000D01*
X91313000Y-93980000D02*
X92583000Y-92710000D01*
X36322000Y-36270000D02*
X36322000Y-35052000D01*
X87757000Y-95250000D02*
X89027000Y-93980000D01*
X99822000Y-91440000D02*
X99187000Y-92075000D01*
X90551000Y-92710000D02*
X90297000Y-92710000D01*
X99187000Y-92075000D02*
X94773750Y-92075000D01*
X78232000Y-93980000D02*
X86057000Y-93980000D01*
X94773750Y-92075000D02*
X94138750Y-91440000D01*
X94138750Y-91440000D02*
X91821000Y-91440000D01*
X88900000Y-92710000D02*
X90297000Y-92710000D01*
X87630000Y-93980000D02*
X88900000Y-92710000D01*
X101662000Y-91440000D02*
X99822000Y-91440000D01*
X86057000Y-93980000D02*
X87630000Y-93980000D01*
X40132000Y-36270000D02*
X40132000Y-35052000D01*
X91821000Y-91440000D02*
X90551000Y-92710000D01*
X86057000Y-92710000D02*
X87757000Y-92710000D01*
X96712000Y-91440000D02*
X95377000Y-91440000D01*
X57277000Y-29770000D02*
X57277000Y-28448000D01*
X94107000Y-90170000D02*
X92837000Y-90170000D01*
X92583000Y-90170000D02*
X92837000Y-90170000D01*
X87757000Y-92710000D02*
X89027000Y-91440000D01*
X80645000Y-92710000D02*
X86057000Y-92710000D01*
X91313000Y-91440000D02*
X92583000Y-90170000D01*
X89027000Y-91440000D02*
X91313000Y-91440000D01*
X95377000Y-91440000D02*
X94107000Y-90170000D01*
X90678000Y-90170000D02*
X90297000Y-90170000D01*
X91948000Y-88900000D02*
X90678000Y-90170000D01*
X53467000Y-29770000D02*
X53467000Y-28448000D01*
X80645000Y-91440000D02*
X86057000Y-91440000D01*
X86057000Y-91440000D02*
X87630000Y-91440000D01*
X96712000Y-88900000D02*
X91948000Y-88900000D01*
X88900000Y-90170000D02*
X90297000Y-90170000D01*
X87630000Y-91440000D02*
X88900000Y-90170000D01*
X78232000Y-90170000D02*
X86057000Y-90170000D01*
X87630000Y-90170000D02*
X88900000Y-88900000D01*
X99060000Y-88265000D02*
X93472000Y-88265000D01*
X91313000Y-88900000D02*
X92583000Y-87630000D01*
X99695000Y-88900000D02*
X99060000Y-88265000D01*
X92583000Y-87630000D02*
X92837000Y-87630000D01*
X101662000Y-88900000D02*
X99695000Y-88900000D01*
X49657000Y-36270000D02*
X49657000Y-35052000D01*
X93472000Y-88265000D02*
X92837000Y-87630000D01*
X86057000Y-90170000D02*
X87630000Y-90170000D01*
X88900000Y-88900000D02*
X91313000Y-88900000D01*
X93853000Y-86360000D02*
X91567000Y-86360000D01*
X95123000Y-87630000D02*
X93853000Y-86360000D01*
X78232000Y-88900000D02*
X86057000Y-88900000D01*
X96712000Y-87630000D02*
X95123000Y-87630000D01*
X53467000Y-36270000D02*
X53467000Y-35052000D01*
X88900000Y-87630000D02*
X90297000Y-87630000D01*
X86057000Y-88900000D02*
X87630000Y-88900000D01*
X91567000Y-86360000D02*
X90297000Y-87630000D01*
X87630000Y-88900000D02*
X88900000Y-87630000D01*
X105537000Y-54610000D02*
X105537000Y-69850000D01*
X105537000Y-69850000D02*
X106872000Y-69850000D01*
X101662000Y-54610000D02*
X105537000Y-54610000D01*
X105156000Y-71120000D02*
X105156000Y-59690000D01*
X105156000Y-59690000D02*
X101662000Y-59690000D01*
X106872000Y-71120000D02*
X105156000Y-71120000D01*
X106872000Y-73660000D02*
X102997000Y-73660000D01*
X102997000Y-75565000D02*
X99822000Y-75565000D01*
X102997000Y-73660000D02*
X102997000Y-75565000D01*
X99822000Y-75565000D02*
X99187000Y-76200000D01*
X99187000Y-76200000D02*
X96712000Y-76200000D01*
X103378000Y-77470000D02*
X101662000Y-77470000D01*
X106872000Y-74930000D02*
X103378000Y-74930000D01*
X103378000Y-74930000D02*
X103378000Y-77470000D01*
X106872000Y-72390000D02*
X101662000Y-72390000D01*
X102997000Y-90170000D02*
X102997000Y-77978000D01*
X102997000Y-77978000D02*
X104013000Y-77978000D01*
X104013000Y-77978000D02*
X104013000Y-76200000D01*
X104013000Y-76200000D02*
X106872000Y-76200000D01*
X101662000Y-90170000D02*
X102997000Y-90170000D01*
X111822000Y-72390000D02*
X108966000Y-72390000D01*
X108966000Y-78359000D02*
X103378000Y-78359000D01*
X99822000Y-93345000D02*
X99187000Y-93980000D01*
X103378000Y-78359000D02*
X103378000Y-93345000D01*
X103378000Y-93345000D02*
X99822000Y-93345000D01*
X108966000Y-72390000D02*
X108966000Y-78359000D01*
X99187000Y-93980000D02*
X96712000Y-93980000D01*
X101662000Y-95250000D02*
X103759000Y-95250000D01*
X103759000Y-78740000D02*
X109347000Y-78740000D01*
X109347000Y-73660000D02*
X111822000Y-73660000D01*
X109347000Y-78740000D02*
X109347000Y-73660000D01*
X103759000Y-95250000D02*
X103759000Y-78740000D01*
X26670000Y-28575000D02*
X28956000Y-28575000D01*
X121666000Y-74930000D02*
X121666000Y-76191000D01*
X117840000Y-74946000D02*
X117856000Y-74930000D01*
X117840000Y-76200000D02*
X117840000Y-74946000D01*
X117856000Y-74930000D02*
X121666000Y-74930000D01*
X121666000Y-76191000D02*
X121675000Y-76200000D01*
X121666000Y-78731000D02*
X121675000Y-78740000D01*
X117840000Y-78740000D02*
X119110000Y-77470000D01*
X119110000Y-77470000D02*
X121666000Y-77470000D01*
X121666000Y-77470000D02*
X121666000Y-78731000D01*
X117840000Y-88900000D02*
X117856000Y-88884000D01*
X121666000Y-88891000D02*
X121675000Y-88900000D01*
X117856000Y-87630000D02*
X121666000Y-87630000D01*
X117856000Y-88884000D02*
X117856000Y-87630000D01*
X121666000Y-87630000D02*
X121666000Y-88891000D01*
X117840000Y-91440000D02*
X117840000Y-90186000D01*
X117856000Y-90170000D02*
X121666000Y-90170000D01*
X117840000Y-90186000D02*
X117856000Y-90170000D01*
X121666000Y-90170000D02*
X121666000Y-91431000D01*
X121666000Y-91431000D02*
X121675000Y-91440000D01*
X83947000Y-36703000D02*
X85090000Y-37846000D01*
X98552000Y-30226000D02*
X98552000Y-29770000D01*
X83947000Y-36270000D02*
X83947000Y-36703000D01*
X98552000Y-29770000D02*
X98552000Y-30353000D01*
X97790000Y-30988000D02*
X98552000Y-30226000D01*
X97790000Y-34798000D02*
X97790000Y-30988000D01*
X84328000Y-34417000D02*
X84328000Y-31115000D01*
X70612000Y-37084000D02*
X71374000Y-37846000D01*
X70612000Y-36270000D02*
X70612000Y-37084000D01*
X85217000Y-30226000D02*
X85217000Y-29770000D01*
X84328000Y-31115000D02*
X85217000Y-30226000D01*
X70866000Y-34290000D02*
X70866000Y-31242000D01*
X57277000Y-36270000D02*
X57277000Y-36830000D01*
X57277000Y-36830000D02*
X58293000Y-37846000D01*
X71882000Y-30226000D02*
X71882000Y-29770000D01*
X70866000Y-31242000D02*
X71882000Y-30226000D01*
X57785000Y-30988000D02*
X58547000Y-30226000D01*
X43942000Y-36830000D02*
X44577000Y-37465000D01*
X57785000Y-33401000D02*
X57785000Y-30988000D01*
X58547000Y-30226000D02*
X58547000Y-29770000D01*
X43942000Y-36270000D02*
X43942000Y-36830000D01*
X113157000Y-77470000D02*
X113157000Y-60960000D01*
X113157000Y-60960000D02*
X109347000Y-60960000D01*
X109347000Y-54610000D02*
X111884000Y-54610000D01*
X111822000Y-77470000D02*
X113157000Y-77470000D01*
X109347000Y-60960000D02*
X109347000Y-54610000D01*
X108712000Y-53340000D02*
X111884000Y-53340000D01*
X108712000Y-54610000D02*
X108712000Y-53340000D01*
X106934000Y-54610000D02*
X108712000Y-54610000D01*
X117840000Y-81280000D02*
X119625000Y-81280000D01*
X117840000Y-83820000D02*
X119625000Y-83820000D01*
X117840000Y-86360000D02*
X119625000Y-86360000D01*
G04 #@! TA.AperFunction,Conductor*
G36*
X33401000Y-27940001D02*
G01*
X33401000Y-30381000D01*
X33382093Y-30439191D01*
X33332593Y-30475155D01*
X33302000Y-30480000D01*
X25700500Y-30480000D01*
X25700500Y-29563000D01*
X25719407Y-29504809D01*
X25768907Y-29468845D01*
X25799500Y-29464000D01*
X26189336Y-29464000D01*
X26222033Y-29469555D01*
X26262301Y-29483646D01*
X26292725Y-29486499D01*
X26292727Y-29486500D01*
X26292734Y-29486500D01*
X27301273Y-29486500D01*
X27301273Y-29486499D01*
X27331699Y-29483646D01*
X27371966Y-29469555D01*
X27404664Y-29464000D01*
X28276890Y-29464000D01*
X28309587Y-29469555D01*
X28421301Y-29508646D01*
X28451725Y-29511499D01*
X28451727Y-29511500D01*
X28451734Y-29511500D01*
X29460273Y-29511500D01*
X29460273Y-29511499D01*
X29490699Y-29508646D01*
X29602412Y-29469555D01*
X29635110Y-29464000D01*
X30573613Y-29464000D01*
X30606310Y-29469555D01*
X30682301Y-29496146D01*
X30712725Y-29498999D01*
X30712727Y-29499000D01*
X30712734Y-29499000D01*
X31771273Y-29499000D01*
X31771273Y-29498999D01*
X31801699Y-29496146D01*
X31877689Y-29469555D01*
X31910387Y-29464000D01*
X32384999Y-29464000D01*
X32385000Y-29464000D01*
X32385000Y-25799500D01*
X32403907Y-25741309D01*
X32453407Y-25705345D01*
X32484000Y-25700500D01*
X33401000Y-25700500D01*
X33401000Y-27940001D01*
G37*
G04 #@! TD.AperFunction*
G04 #@! TA.AperFunction,Conductor*
G36*
X26670000Y-30480001D02*
G01*
X26670000Y-32135334D01*
X26651093Y-32193525D01*
X26633805Y-32211862D01*
X26558592Y-32273587D01*
X26427316Y-32433547D01*
X26329768Y-32616045D01*
X26269699Y-32814065D01*
X26269698Y-32814070D01*
X26249417Y-33019996D01*
X26249417Y-33020003D01*
X26269698Y-33225929D01*
X26269699Y-33225934D01*
X26329768Y-33423954D01*
X26427316Y-33606452D01*
X26558585Y-33766404D01*
X26558590Y-33766410D01*
X26633805Y-33828137D01*
X26666792Y-33879666D01*
X26670000Y-33904664D01*
X26670000Y-34675334D01*
X26651093Y-34733525D01*
X26633805Y-34751862D01*
X26558592Y-34813587D01*
X26427316Y-34973547D01*
X26329768Y-35156045D01*
X26269699Y-35354065D01*
X26269698Y-35354070D01*
X26249417Y-35559996D01*
X26249417Y-35560003D01*
X26269698Y-35765929D01*
X26269699Y-35765934D01*
X26329768Y-35963954D01*
X26427316Y-36146452D01*
X26558585Y-36306404D01*
X26558590Y-36306410D01*
X26633805Y-36368137D01*
X26666792Y-36419666D01*
X26670000Y-36444664D01*
X26670000Y-37215334D01*
X26651093Y-37273525D01*
X26633805Y-37291862D01*
X26558592Y-37353587D01*
X26427316Y-37513547D01*
X26329768Y-37696045D01*
X26269699Y-37894065D01*
X26269698Y-37894070D01*
X26249417Y-38099996D01*
X26249417Y-38100003D01*
X26269698Y-38305929D01*
X26269699Y-38305934D01*
X26329768Y-38503954D01*
X26427316Y-38686452D01*
X26558585Y-38846404D01*
X26558590Y-38846410D01*
X26633805Y-38908137D01*
X26666792Y-38959666D01*
X26670000Y-38984664D01*
X26670000Y-39755334D01*
X26651093Y-39813525D01*
X26633805Y-39831862D01*
X26558592Y-39893587D01*
X26427316Y-40053547D01*
X26329768Y-40236045D01*
X26269699Y-40434065D01*
X26269698Y-40434070D01*
X26249417Y-40639996D01*
X26249417Y-40640003D01*
X26269698Y-40845929D01*
X26269699Y-40845934D01*
X26329768Y-41043954D01*
X26427316Y-41226452D01*
X26558585Y-41386404D01*
X26558590Y-41386410D01*
X26633805Y-41448137D01*
X26666792Y-41499666D01*
X26670000Y-41524664D01*
X26670000Y-42295334D01*
X26651093Y-42353525D01*
X26633805Y-42371862D01*
X26558592Y-42433587D01*
X26427316Y-42593547D01*
X26329768Y-42776045D01*
X26269699Y-42974065D01*
X26269698Y-42974070D01*
X26249417Y-43179996D01*
X26249417Y-43180003D01*
X26269698Y-43385929D01*
X26269699Y-43385934D01*
X26329768Y-43583954D01*
X26427316Y-43766452D01*
X26558585Y-43926404D01*
X26558590Y-43926410D01*
X26633805Y-43988137D01*
X26666792Y-44039666D01*
X26670000Y-44064664D01*
X26670000Y-44835334D01*
X26651093Y-44893525D01*
X26633805Y-44911862D01*
X26558592Y-44973587D01*
X26427316Y-45133547D01*
X26329768Y-45316045D01*
X26269699Y-45514065D01*
X26269698Y-45514070D01*
X26249417Y-45719996D01*
X26249417Y-45720003D01*
X26269698Y-45925929D01*
X26269699Y-45925934D01*
X26329768Y-46123954D01*
X26427316Y-46306452D01*
X26558585Y-46466404D01*
X26558590Y-46466410D01*
X26633805Y-46528137D01*
X26666792Y-46579666D01*
X26670000Y-46604664D01*
X26670000Y-47375334D01*
X26651093Y-47433525D01*
X26633805Y-47451862D01*
X26558592Y-47513587D01*
X26427316Y-47673547D01*
X26329768Y-47856045D01*
X26269699Y-48054065D01*
X26269698Y-48054070D01*
X26249417Y-48259996D01*
X26249417Y-48260003D01*
X26269698Y-48465929D01*
X26269699Y-48465934D01*
X26329768Y-48663954D01*
X26427316Y-48846452D01*
X26558585Y-49006404D01*
X26558590Y-49006410D01*
X26633805Y-49068137D01*
X26666792Y-49119666D01*
X26670000Y-49144664D01*
X26670000Y-49915334D01*
X26651093Y-49973525D01*
X26633805Y-49991862D01*
X26558592Y-50053587D01*
X26427316Y-50213547D01*
X26329768Y-50396045D01*
X26269699Y-50594065D01*
X26269698Y-50594070D01*
X26249417Y-50799996D01*
X26249417Y-50800003D01*
X26269698Y-51005929D01*
X26269699Y-51005934D01*
X26329768Y-51203954D01*
X26427316Y-51386452D01*
X26558585Y-51546404D01*
X26558590Y-51546410D01*
X26633805Y-51608137D01*
X26666792Y-51659666D01*
X26670000Y-51684664D01*
X26670000Y-52455334D01*
X26651093Y-52513525D01*
X26633805Y-52531862D01*
X26558592Y-52593587D01*
X26427316Y-52753547D01*
X26329768Y-52936045D01*
X26269699Y-53134065D01*
X26269698Y-53134070D01*
X26249417Y-53339996D01*
X26249417Y-53340003D01*
X26269698Y-53545929D01*
X26269699Y-53545934D01*
X26329768Y-53743954D01*
X26427316Y-53926452D01*
X26558585Y-54086404D01*
X26558590Y-54086410D01*
X26633805Y-54148137D01*
X26666792Y-54199666D01*
X26670000Y-54224664D01*
X26670000Y-54995334D01*
X26651093Y-55053525D01*
X26633805Y-55071862D01*
X26558592Y-55133587D01*
X26427316Y-55293547D01*
X26329768Y-55476045D01*
X26269699Y-55674065D01*
X26269698Y-55674070D01*
X26249417Y-55879996D01*
X26249417Y-55880003D01*
X26269698Y-56085929D01*
X26269699Y-56085934D01*
X26329768Y-56283954D01*
X26427316Y-56466452D01*
X26558585Y-56626404D01*
X26558590Y-56626410D01*
X26633805Y-56688137D01*
X26666792Y-56739666D01*
X26670000Y-56764664D01*
X26670000Y-57535334D01*
X26651093Y-57593525D01*
X26633805Y-57611862D01*
X26558592Y-57673587D01*
X26427316Y-57833547D01*
X26329768Y-58016045D01*
X26269699Y-58214065D01*
X26269698Y-58214070D01*
X26249417Y-58419996D01*
X26249417Y-58420003D01*
X26269698Y-58625929D01*
X26269699Y-58625934D01*
X26329768Y-58823954D01*
X26427316Y-59006452D01*
X26558585Y-59166404D01*
X26558590Y-59166410D01*
X26633805Y-59228137D01*
X26666792Y-59279666D01*
X26670000Y-59304664D01*
X26670000Y-60075334D01*
X26651093Y-60133525D01*
X26633805Y-60151862D01*
X26558592Y-60213587D01*
X26427316Y-60373547D01*
X26329768Y-60556045D01*
X26269699Y-60754065D01*
X26269698Y-60754070D01*
X26249417Y-60959996D01*
X26249417Y-60960003D01*
X26269698Y-61165929D01*
X26269699Y-61165934D01*
X26329768Y-61363954D01*
X26427316Y-61546452D01*
X26558585Y-61706404D01*
X26558590Y-61706410D01*
X26633805Y-61768137D01*
X26666792Y-61819666D01*
X26670000Y-61844664D01*
X26670000Y-62615334D01*
X26651093Y-62673525D01*
X26633805Y-62691862D01*
X26558592Y-62753587D01*
X26427316Y-62913547D01*
X26329768Y-63096045D01*
X26269699Y-63294065D01*
X26269698Y-63294070D01*
X26249417Y-63499996D01*
X26249417Y-63500003D01*
X26269698Y-63705929D01*
X26269699Y-63705934D01*
X26329768Y-63903954D01*
X26427316Y-64086452D01*
X26558585Y-64246404D01*
X26558590Y-64246410D01*
X26633805Y-64308137D01*
X26666792Y-64359666D01*
X26670000Y-64384664D01*
X26670000Y-65155334D01*
X26651093Y-65213525D01*
X26633805Y-65231862D01*
X26558592Y-65293587D01*
X26427316Y-65453547D01*
X26329768Y-65636045D01*
X26269699Y-65834065D01*
X26269698Y-65834070D01*
X26249417Y-66039996D01*
X26249417Y-66040003D01*
X26269698Y-66245929D01*
X26269699Y-66245934D01*
X26329768Y-66443954D01*
X26427316Y-66626452D01*
X26558585Y-66786404D01*
X26558590Y-66786410D01*
X26633805Y-66848137D01*
X26666792Y-66899666D01*
X26670000Y-66924664D01*
X26670000Y-67695334D01*
X26651093Y-67753525D01*
X26633805Y-67771862D01*
X26558592Y-67833587D01*
X26427316Y-67993547D01*
X26329768Y-68176045D01*
X26269699Y-68374065D01*
X26269698Y-68374070D01*
X26249417Y-68579996D01*
X26249417Y-68580003D01*
X26269698Y-68785929D01*
X26269699Y-68785934D01*
X26329768Y-68983954D01*
X26427316Y-69166452D01*
X26558585Y-69326404D01*
X26558590Y-69326410D01*
X26633805Y-69388137D01*
X26666792Y-69439666D01*
X26670000Y-69464664D01*
X26670000Y-70235334D01*
X26651093Y-70293525D01*
X26633805Y-70311862D01*
X26558592Y-70373587D01*
X26427316Y-70533547D01*
X26329768Y-70716045D01*
X26269699Y-70914065D01*
X26269698Y-70914070D01*
X26249417Y-71119996D01*
X26249417Y-71120003D01*
X26269698Y-71325929D01*
X26269699Y-71325934D01*
X26329768Y-71523954D01*
X26427316Y-71706452D01*
X26558585Y-71866404D01*
X26558590Y-71866410D01*
X26633805Y-71928137D01*
X26666792Y-71979666D01*
X26670000Y-72004664D01*
X26670000Y-72775334D01*
X26651093Y-72833525D01*
X26633805Y-72851862D01*
X26558592Y-72913587D01*
X26427316Y-73073547D01*
X26329768Y-73256045D01*
X26269699Y-73454065D01*
X26269698Y-73454070D01*
X26249417Y-73659996D01*
X26249417Y-73660003D01*
X26269698Y-73865929D01*
X26269699Y-73865934D01*
X26329768Y-74063954D01*
X26427316Y-74246452D01*
X26558585Y-74406404D01*
X26558590Y-74406410D01*
X26633805Y-74468137D01*
X26666792Y-74519666D01*
X26670000Y-74544664D01*
X26670000Y-75315334D01*
X26651093Y-75373525D01*
X26633805Y-75391862D01*
X26558592Y-75453587D01*
X26427316Y-75613547D01*
X26329768Y-75796045D01*
X26269699Y-75994065D01*
X26269698Y-75994070D01*
X26249417Y-76199996D01*
X26249417Y-76200003D01*
X26269698Y-76405929D01*
X26269699Y-76405934D01*
X26329768Y-76603954D01*
X26427316Y-76786452D01*
X26558585Y-76946404D01*
X26558590Y-76946410D01*
X26633805Y-77008137D01*
X26666792Y-77059666D01*
X26670000Y-77084664D01*
X26670000Y-77855334D01*
X26651093Y-77913525D01*
X26633805Y-77931862D01*
X26558592Y-77993587D01*
X26427316Y-78153547D01*
X26329768Y-78336045D01*
X26269699Y-78534065D01*
X26269698Y-78534070D01*
X26249417Y-78739996D01*
X26249417Y-78740003D01*
X26269698Y-78945929D01*
X26269699Y-78945934D01*
X26329768Y-79143954D01*
X26427316Y-79326452D01*
X26558585Y-79486404D01*
X26558590Y-79486410D01*
X26633805Y-79548137D01*
X26666792Y-79599666D01*
X26670000Y-79624664D01*
X26670000Y-80395334D01*
X26651093Y-80453525D01*
X26633805Y-80471862D01*
X26558592Y-80533587D01*
X26427316Y-80693547D01*
X26329768Y-80876045D01*
X26269699Y-81074065D01*
X26269698Y-81074070D01*
X26249417Y-81279996D01*
X26249417Y-81280003D01*
X26269698Y-81485929D01*
X26269699Y-81485934D01*
X26329768Y-81683954D01*
X26427316Y-81866452D01*
X26558585Y-82026404D01*
X26558590Y-82026410D01*
X26633805Y-82088137D01*
X26666792Y-82139666D01*
X26670000Y-82164664D01*
X26670000Y-82935334D01*
X26651093Y-82993525D01*
X26633805Y-83011862D01*
X26558592Y-83073587D01*
X26427316Y-83233547D01*
X26329768Y-83416045D01*
X26269699Y-83614065D01*
X26269698Y-83614070D01*
X26249417Y-83819996D01*
X26249417Y-83820003D01*
X26269698Y-84025929D01*
X26269699Y-84025934D01*
X26329768Y-84223954D01*
X26427316Y-84406452D01*
X26558585Y-84566404D01*
X26558590Y-84566410D01*
X26633805Y-84628137D01*
X26666792Y-84679666D01*
X26670000Y-84704664D01*
X26670000Y-85475334D01*
X26651093Y-85533525D01*
X26633805Y-85551862D01*
X26558592Y-85613587D01*
X26427316Y-85773547D01*
X26329768Y-85956045D01*
X26269699Y-86154065D01*
X26269698Y-86154070D01*
X26249417Y-86359996D01*
X26249417Y-86360003D01*
X26269698Y-86565929D01*
X26269699Y-86565934D01*
X26329768Y-86763954D01*
X26427316Y-86946452D01*
X26558585Y-87106404D01*
X26558590Y-87106410D01*
X26633805Y-87168137D01*
X26666792Y-87219666D01*
X26670000Y-87244664D01*
X26670000Y-88015334D01*
X26651093Y-88073525D01*
X26633805Y-88091862D01*
X26558592Y-88153587D01*
X26427316Y-88313547D01*
X26329768Y-88496045D01*
X26269699Y-88694065D01*
X26269698Y-88694070D01*
X26249417Y-88899996D01*
X26249417Y-88900003D01*
X26269698Y-89105929D01*
X26269699Y-89105934D01*
X26329768Y-89303954D01*
X26427316Y-89486452D01*
X26558585Y-89646404D01*
X26558590Y-89646410D01*
X26633805Y-89708137D01*
X26666792Y-89759666D01*
X26670000Y-89784664D01*
X26670000Y-90555334D01*
X26651093Y-90613525D01*
X26633805Y-90631862D01*
X26558592Y-90693587D01*
X26427316Y-90853547D01*
X26329768Y-91036045D01*
X26269699Y-91234065D01*
X26269698Y-91234070D01*
X26249417Y-91439996D01*
X26249417Y-91440003D01*
X26269698Y-91645929D01*
X26269699Y-91645934D01*
X26329768Y-91843954D01*
X26427316Y-92026452D01*
X26558585Y-92186404D01*
X26558590Y-92186410D01*
X26633805Y-92248137D01*
X26666792Y-92299666D01*
X26670000Y-92324664D01*
X26670000Y-101299500D01*
X26404861Y-101299500D01*
X26395157Y-101299023D01*
X26273237Y-101287014D01*
X26254203Y-101283228D01*
X26141645Y-101249084D01*
X26123714Y-101241657D01*
X26019977Y-101186208D01*
X26003841Y-101175426D01*
X25912916Y-101100806D01*
X25899193Y-101087083D01*
X25824573Y-100996158D01*
X25813791Y-100980022D01*
X25758342Y-100876285D01*
X25750915Y-100858354D01*
X25716771Y-100745796D01*
X25712985Y-100726762D01*
X25700977Y-100604842D01*
X25700500Y-100595138D01*
X25700500Y-30480000D01*
X26670000Y-30480000D01*
X26670000Y-30480001D01*
G37*
G04 #@! TD.AperFunction*
G04 #@! TA.AperFunction,Conductor*
G36*
X126004842Y-25700976D02*
G01*
X126126764Y-25712985D01*
X126145794Y-25716770D01*
X126151133Y-25718390D01*
X126258354Y-25750915D01*
X126276285Y-25758342D01*
X126380022Y-25813791D01*
X126396158Y-25824573D01*
X126487083Y-25899193D01*
X126500806Y-25912916D01*
X126575426Y-26003841D01*
X126586208Y-26019977D01*
X126641657Y-26123714D01*
X126649084Y-26141645D01*
X126683228Y-26254203D01*
X126687014Y-26273237D01*
X126699023Y-26395157D01*
X126699500Y-26404861D01*
X126699500Y-100595138D01*
X126699023Y-100604842D01*
X126687014Y-100726762D01*
X126683228Y-100745796D01*
X126649084Y-100858354D01*
X126641657Y-100876285D01*
X126586208Y-100980022D01*
X126575426Y-100996158D01*
X126500806Y-101087083D01*
X126487083Y-101100806D01*
X126396158Y-101175426D01*
X126380022Y-101186208D01*
X126276285Y-101241657D01*
X126258354Y-101249084D01*
X126145796Y-101283228D01*
X126126763Y-101287014D01*
X126020719Y-101297459D01*
X126004841Y-101299023D01*
X125995139Y-101299500D01*
X26670000Y-101299500D01*
X26670000Y-99060000D01*
X120650000Y-99060000D01*
X123154532Y-99060000D01*
X123174363Y-99286684D01*
X123233262Y-99506500D01*
X123329426Y-99712723D01*
X123329434Y-99712737D01*
X123459946Y-99899130D01*
X123459947Y-99899132D01*
X123459950Y-99899135D01*
X123459953Y-99899139D01*
X123620861Y-100060047D01*
X123620864Y-100060049D01*
X123620867Y-100060052D01*
X123620869Y-100060053D01*
X123745131Y-100147061D01*
X123807266Y-100190568D01*
X123807272Y-100190571D01*
X123807276Y-100190573D01*
X124013500Y-100286737D01*
X124013504Y-100286739D01*
X124233308Y-100345635D01*
X124233312Y-100345635D01*
X124233315Y-100345636D01*
X124403208Y-100360500D01*
X124403216Y-100360500D01*
X124516792Y-100360500D01*
X124686684Y-100345636D01*
X124686685Y-100345635D01*
X124686692Y-100345635D01*
X124906496Y-100286739D01*
X125112734Y-100190568D01*
X125299139Y-100060047D01*
X125460047Y-99899139D01*
X125590568Y-99712734D01*
X125686739Y-99506496D01*
X125745635Y-99286692D01*
X125765468Y-99060000D01*
X125745635Y-98833308D01*
X125686739Y-98613504D01*
X125590568Y-98407266D01*
X125508808Y-98290500D01*
X125460053Y-98220869D01*
X125460052Y-98220867D01*
X125460049Y-98220864D01*
X125460047Y-98220861D01*
X125299139Y-98059953D01*
X125299135Y-98059950D01*
X125299132Y-98059947D01*
X125299130Y-98059946D01*
X125112737Y-97929434D01*
X125112736Y-97929433D01*
X125112734Y-97929432D01*
X125112731Y-97929430D01*
X125112723Y-97929426D01*
X124906499Y-97833262D01*
X124906500Y-97833262D01*
X124745043Y-97790000D01*
X124686692Y-97774365D01*
X124686691Y-97774364D01*
X124686684Y-97774363D01*
X124516792Y-97759500D01*
X124516784Y-97759500D01*
X124403216Y-97759500D01*
X124403208Y-97759500D01*
X124233315Y-97774363D01*
X124013499Y-97833262D01*
X123807276Y-97929426D01*
X123807262Y-97929434D01*
X123620869Y-98059946D01*
X123620867Y-98059947D01*
X123459947Y-98220867D01*
X123459946Y-98220869D01*
X123329434Y-98407262D01*
X123329426Y-98407276D01*
X123233262Y-98613499D01*
X123174363Y-98833315D01*
X123154532Y-99059996D01*
X123154532Y-99060000D01*
X120650000Y-99060000D01*
X124460000Y-95250000D01*
X124460000Y-31750000D01*
X120650000Y-27940000D01*
X123154532Y-27940000D01*
X123174363Y-28166684D01*
X123174364Y-28166691D01*
X123174365Y-28166692D01*
X123207084Y-28288801D01*
X123233262Y-28386500D01*
X123329426Y-28592723D01*
X123329434Y-28592737D01*
X123459946Y-28779130D01*
X123459947Y-28779132D01*
X123459950Y-28779135D01*
X123459953Y-28779139D01*
X123620861Y-28940047D01*
X123620864Y-28940049D01*
X123620867Y-28940052D01*
X123620869Y-28940053D01*
X123733147Y-29018670D01*
X123807266Y-29070568D01*
X123807272Y-29070571D01*
X123807276Y-29070573D01*
X124013500Y-29166737D01*
X124013504Y-29166739D01*
X124233308Y-29225635D01*
X124233312Y-29225635D01*
X124233315Y-29225636D01*
X124403208Y-29240500D01*
X124403216Y-29240500D01*
X124516792Y-29240500D01*
X124686684Y-29225636D01*
X124686685Y-29225635D01*
X124686692Y-29225635D01*
X124906496Y-29166739D01*
X125112734Y-29070568D01*
X125299139Y-28940047D01*
X125460047Y-28779139D01*
X125590568Y-28592734D01*
X125686739Y-28386496D01*
X125745635Y-28166692D01*
X125746167Y-28160618D01*
X125765468Y-27940000D01*
X125765468Y-27939996D01*
X125745636Y-27713315D01*
X125745635Y-27713312D01*
X125745635Y-27713308D01*
X125686739Y-27493504D01*
X125686737Y-27493499D01*
X125590573Y-27287276D01*
X125590571Y-27287272D01*
X125590568Y-27287266D01*
X125547061Y-27225131D01*
X125460053Y-27100869D01*
X125460052Y-27100867D01*
X125460049Y-27100864D01*
X125460047Y-27100861D01*
X125299139Y-26939953D01*
X125299135Y-26939950D01*
X125299132Y-26939947D01*
X125299130Y-26939946D01*
X125112737Y-26809434D01*
X125112736Y-26809433D01*
X125112734Y-26809432D01*
X125112731Y-26809430D01*
X125112723Y-26809426D01*
X124906499Y-26713262D01*
X124906500Y-26713262D01*
X124833228Y-26693629D01*
X124686692Y-26654365D01*
X124686691Y-26654364D01*
X124686684Y-26654363D01*
X124516792Y-26639500D01*
X124516784Y-26639500D01*
X124403216Y-26639500D01*
X124403208Y-26639500D01*
X124233315Y-26654363D01*
X124013499Y-26713262D01*
X123807276Y-26809426D01*
X123807262Y-26809434D01*
X123620869Y-26939946D01*
X123620867Y-26939947D01*
X123459947Y-27100867D01*
X123459946Y-27100869D01*
X123329434Y-27287262D01*
X123329426Y-27287276D01*
X123233262Y-27493499D01*
X123174363Y-27713315D01*
X123154532Y-27939996D01*
X123154532Y-27940000D01*
X120650000Y-27940000D01*
X120649999Y-27940000D01*
X33401001Y-27940000D01*
X33401000Y-27940000D01*
X33401000Y-25700500D01*
X125952405Y-25700500D01*
X125995139Y-25700500D01*
X126004842Y-25700976D01*
G37*
G04 #@! TD.AperFunction*
M02*
