G04 #@! TF.GenerationSoftware,KiCad,Pcbnew,7.0.10*
G04 #@! TF.CreationDate,2024-01-04T10:09:30+01:00*
G04 #@! TF.ProjectId,LatchedSubtractor,4c617463-6865-4645-9375-627472616374,rev?*
G04 #@! TF.SameCoordinates,Original*
G04 #@! TF.FileFunction,Legend,Bot*
G04 #@! TF.FilePolarity,Positive*
%FSLAX46Y46*%
G04 Gerber Fmt 4.6, Leading zero omitted, Abs format (unit mm)*
G04 Created by KiCad (PCBNEW 7.0.10) date 2024-01-04 10:09:30*
%MOMM*%
%LPD*%
G01*
G04 APERTURE LIST*
%ADD10C,0.150000*%
%ADD11C,0.120000*%
%ADD12R,1.700000X1.700000*%
%ADD13O,1.700000X1.700000*%
%ADD14C,2.200000*%
G04 APERTURE END LIST*
D10*
X36080506Y-99834819D02*
X36080506Y-100549104D01*
X36080506Y-100549104D02*
X36128125Y-100691961D01*
X36128125Y-100691961D02*
X36223363Y-100787200D01*
X36223363Y-100787200D02*
X36366220Y-100834819D01*
X36366220Y-100834819D02*
X36461458Y-100834819D01*
X35128125Y-100834819D02*
X35604315Y-100834819D01*
X35604315Y-100834819D02*
X35604315Y-99834819D01*
X34223363Y-100739580D02*
X34270982Y-100787200D01*
X34270982Y-100787200D02*
X34413839Y-100834819D01*
X34413839Y-100834819D02*
X34509077Y-100834819D01*
X34509077Y-100834819D02*
X34651934Y-100787200D01*
X34651934Y-100787200D02*
X34747172Y-100691961D01*
X34747172Y-100691961D02*
X34794791Y-100596723D01*
X34794791Y-100596723D02*
X34842410Y-100406247D01*
X34842410Y-100406247D02*
X34842410Y-100263390D01*
X34842410Y-100263390D02*
X34794791Y-100072914D01*
X34794791Y-100072914D02*
X34747172Y-99977676D01*
X34747172Y-99977676D02*
X34651934Y-99882438D01*
X34651934Y-99882438D02*
X34509077Y-99834819D01*
X34509077Y-99834819D02*
X34413839Y-99834819D01*
X34413839Y-99834819D02*
X34270982Y-99882438D01*
X34270982Y-99882438D02*
X34223363Y-99930057D01*
X33509077Y-99834819D02*
X33509077Y-100549104D01*
X33509077Y-100549104D02*
X33556696Y-100691961D01*
X33556696Y-100691961D02*
X33651934Y-100787200D01*
X33651934Y-100787200D02*
X33794791Y-100834819D01*
X33794791Y-100834819D02*
X33890029Y-100834819D01*
X32556696Y-100834819D02*
X33032886Y-100834819D01*
X33032886Y-100834819D02*
X33032886Y-99834819D01*
X31651934Y-100739580D02*
X31699553Y-100787200D01*
X31699553Y-100787200D02*
X31842410Y-100834819D01*
X31842410Y-100834819D02*
X31937648Y-100834819D01*
X31937648Y-100834819D02*
X32080505Y-100787200D01*
X32080505Y-100787200D02*
X32175743Y-100691961D01*
X32175743Y-100691961D02*
X32223362Y-100596723D01*
X32223362Y-100596723D02*
X32270981Y-100406247D01*
X32270981Y-100406247D02*
X32270981Y-100263390D01*
X32270981Y-100263390D02*
X32223362Y-100072914D01*
X32223362Y-100072914D02*
X32175743Y-99977676D01*
X32175743Y-99977676D02*
X32080505Y-99882438D01*
X32080505Y-99882438D02*
X31937648Y-99834819D01*
X31937648Y-99834819D02*
X31842410Y-99834819D01*
X31842410Y-99834819D02*
X31699553Y-99882438D01*
X31699553Y-99882438D02*
X31651934Y-99930057D01*
X30937648Y-99834819D02*
X30937648Y-100549104D01*
X30937648Y-100549104D02*
X30985267Y-100691961D01*
X30985267Y-100691961D02*
X31080505Y-100787200D01*
X31080505Y-100787200D02*
X31223362Y-100834819D01*
X31223362Y-100834819D02*
X31318600Y-100834819D01*
X29985267Y-100834819D02*
X30461457Y-100834819D01*
X30461457Y-100834819D02*
X30461457Y-99834819D01*
X29080505Y-100739580D02*
X29128124Y-100787200D01*
X29128124Y-100787200D02*
X29270981Y-100834819D01*
X29270981Y-100834819D02*
X29366219Y-100834819D01*
X29366219Y-100834819D02*
X29509076Y-100787200D01*
X29509076Y-100787200D02*
X29604314Y-100691961D01*
X29604314Y-100691961D02*
X29651933Y-100596723D01*
X29651933Y-100596723D02*
X29699552Y-100406247D01*
X29699552Y-100406247D02*
X29699552Y-100263390D01*
X29699552Y-100263390D02*
X29651933Y-100072914D01*
X29651933Y-100072914D02*
X29604314Y-99977676D01*
X29604314Y-99977676D02*
X29509076Y-99882438D01*
X29509076Y-99882438D02*
X29366219Y-99834819D01*
X29366219Y-99834819D02*
X29270981Y-99834819D01*
X29270981Y-99834819D02*
X29128124Y-99882438D01*
X29128124Y-99882438D02*
X29080505Y-99930057D01*
X28366219Y-99834819D02*
X28366219Y-100549104D01*
X28366219Y-100549104D02*
X28413838Y-100691961D01*
X28413838Y-100691961D02*
X28509076Y-100787200D01*
X28509076Y-100787200D02*
X28651933Y-100834819D01*
X28651933Y-100834819D02*
X28747171Y-100834819D01*
X27413838Y-100834819D02*
X27890028Y-100834819D01*
X27890028Y-100834819D02*
X27890028Y-99834819D01*
X26509076Y-100739580D02*
X26556695Y-100787200D01*
X26556695Y-100787200D02*
X26699552Y-100834819D01*
X26699552Y-100834819D02*
X26794790Y-100834819D01*
X26794790Y-100834819D02*
X26937647Y-100787200D01*
X26937647Y-100787200D02*
X27032885Y-100691961D01*
X27032885Y-100691961D02*
X27080504Y-100596723D01*
X27080504Y-100596723D02*
X27128123Y-100406247D01*
X27128123Y-100406247D02*
X27128123Y-100263390D01*
X27128123Y-100263390D02*
X27080504Y-100072914D01*
X27080504Y-100072914D02*
X27032885Y-99977676D01*
X27032885Y-99977676D02*
X26937647Y-99882438D01*
X26937647Y-99882438D02*
X26794790Y-99834819D01*
X26794790Y-99834819D02*
X26699552Y-99834819D01*
X26699552Y-99834819D02*
X26556695Y-99882438D01*
X26556695Y-99882438D02*
X26509076Y-99930057D01*
D11*
X31175000Y-95310000D02*
X25975000Y-95310000D01*
X31175000Y-34290000D02*
X31175000Y-95310000D01*
X31175000Y-34290000D02*
X28575000Y-34290000D01*
X31175000Y-33020000D02*
X31175000Y-31690000D01*
X31175000Y-31690000D02*
X29845000Y-31690000D01*
X28575000Y-34290000D02*
X28575000Y-31690000D01*
X28575000Y-31690000D02*
X25975000Y-31690000D01*
X25975000Y-31690000D02*
X25975000Y-95310000D01*
X124520000Y-73720000D02*
X121860000Y-73720000D01*
X124520000Y-55880000D02*
X124520000Y-73720000D01*
X124520000Y-55880000D02*
X121860000Y-55880000D01*
X124520000Y-54610000D02*
X124520000Y-53280000D01*
X124520000Y-53280000D02*
X123190000Y-53280000D01*
X121860000Y-55880000D02*
X121860000Y-73720000D01*
%LPC*%
D12*
X90297000Y-52070000D03*
D13*
X92837000Y-52070000D03*
X90297000Y-54610000D03*
X92837000Y-54610000D03*
X90297000Y-57150000D03*
X92837000Y-57150000D03*
X90297000Y-59690000D03*
X92837000Y-59690000D03*
D12*
X90297000Y-87630000D03*
D13*
X92837000Y-87630000D03*
X90297000Y-90170000D03*
X92837000Y-90170000D03*
X90297000Y-92710000D03*
X92837000Y-92710000D03*
X90297000Y-95250000D03*
X92837000Y-95250000D03*
D12*
X49657000Y-69850000D03*
D13*
X52197000Y-69850000D03*
X49657000Y-72390000D03*
X52197000Y-72390000D03*
X49657000Y-74930000D03*
X52197000Y-74930000D03*
X49657000Y-77470000D03*
X52197000Y-77470000D03*
D12*
X90297000Y-69850000D03*
D13*
X92837000Y-69850000D03*
X90297000Y-72390000D03*
X92837000Y-72390000D03*
X90297000Y-74930000D03*
X92837000Y-74930000D03*
X90297000Y-77470000D03*
X92837000Y-77470000D03*
D12*
X49657000Y-87630000D03*
D13*
X52197000Y-87630000D03*
X49657000Y-90170000D03*
X52197000Y-90170000D03*
X49657000Y-92710000D03*
X52197000Y-92710000D03*
X49657000Y-95250000D03*
X52197000Y-95250000D03*
D12*
X69977000Y-69850000D03*
D13*
X72517000Y-69850000D03*
X69977000Y-72390000D03*
X72517000Y-72390000D03*
X69977000Y-74930000D03*
X72517000Y-74930000D03*
X69977000Y-77470000D03*
X72517000Y-77470000D03*
D12*
X69977000Y-87630000D03*
D13*
X72517000Y-87630000D03*
X69977000Y-90170000D03*
X72517000Y-90170000D03*
X69977000Y-92710000D03*
X72517000Y-92710000D03*
X69977000Y-95250000D03*
X72517000Y-95250000D03*
D12*
X49657000Y-52070000D03*
D13*
X52197000Y-52070000D03*
X49657000Y-54610000D03*
X52197000Y-54610000D03*
X49657000Y-57150000D03*
X52197000Y-57150000D03*
X49657000Y-59690000D03*
X52197000Y-59690000D03*
D14*
X124460000Y-99060000D03*
X124460000Y-27940000D03*
D12*
X69977000Y-52070000D03*
D13*
X72517000Y-52070000D03*
X69977000Y-54610000D03*
X72517000Y-54610000D03*
X69977000Y-57150000D03*
X72517000Y-57150000D03*
X69977000Y-59690000D03*
X72517000Y-59690000D03*
D12*
X29845000Y-33020000D03*
D13*
X27305000Y-33020000D03*
X29845000Y-35560000D03*
X27305000Y-35560000D03*
X29845000Y-38100000D03*
X27305000Y-38100000D03*
X29845000Y-40640000D03*
X27305000Y-40640000D03*
X29845000Y-43180000D03*
X27305000Y-43180000D03*
X29845000Y-45720000D03*
X27305000Y-45720000D03*
X29845000Y-48260000D03*
X27305000Y-48260000D03*
X29845000Y-50800000D03*
X27305000Y-50800000D03*
X29845000Y-53340000D03*
X27305000Y-53340000D03*
X29845000Y-55880000D03*
X27305000Y-55880000D03*
X29845000Y-58420000D03*
X27305000Y-58420000D03*
X29845000Y-60960000D03*
X27305000Y-60960000D03*
X29845000Y-63500000D03*
X27305000Y-63500000D03*
X29845000Y-66040000D03*
X27305000Y-66040000D03*
X29845000Y-68580000D03*
X27305000Y-68580000D03*
X29845000Y-71120000D03*
X27305000Y-71120000D03*
X29845000Y-73660000D03*
X27305000Y-73660000D03*
X29845000Y-76200000D03*
X27305000Y-76200000D03*
X29845000Y-78740000D03*
X27305000Y-78740000D03*
X29845000Y-81280000D03*
X27305000Y-81280000D03*
X29845000Y-83820000D03*
X27305000Y-83820000D03*
X29845000Y-86360000D03*
X27305000Y-86360000D03*
X29845000Y-88900000D03*
X27305000Y-88900000D03*
X29845000Y-91440000D03*
X27305000Y-91440000D03*
X29845000Y-93980000D03*
X27305000Y-93980000D03*
D12*
X123190000Y-54610000D03*
D13*
X123190000Y-57150000D03*
X123190000Y-59690000D03*
X123190000Y-62230000D03*
X123190000Y-64770000D03*
X123190000Y-67310000D03*
X123190000Y-69850000D03*
X123190000Y-72390000D03*
%LPD*%
M02*
