M48
; DRILL file {KiCad 7.0.7} date 2024 January 02, Tuesday 13:56:53
; FORMAT={-:-/ absolute / metric / decimal}
; #@! TF.CreationDate,2024-01-02T13:56:53+01:00
; #@! TF.GenerationSoftware,Kicad,Pcbnew,7.0.7
; #@! TF.FileFunction,Plated,1,2,PTH
FMAT,2
METRIC
; #@! TA.AperFunction,Plated,PTH,ViaDrill
T1C0.300
; #@! TA.AperFunction,Plated,PTH,ComponentDrill
T2C1.000
%
G90
G05
T1
X150.622Y-78.74
X150.622Y-82.042
X150.622Y-160.274
X150.622Y-163.576
X150.622Y-242.824
X150.622Y-246.126
X150.622Y-324.104
X150.622Y-327.406
X152.4Y-79.756
X152.4Y-81.026
X152.4Y-161.29
X152.4Y-162.56
X152.4Y-243.84
X152.4Y-245.11
X152.4Y-325.12
X152.4Y-326.39
X154.178Y-78.74
X154.178Y-82.042
X154.178Y-160.274
X154.178Y-163.576
X154.178Y-242.824
X154.178Y-246.126
X154.178Y-324.104
X154.178Y-327.406
X156.083Y-89.027
X156.083Y-171.577
X156.083Y-254.127
X156.464Y-254.889
X156.464Y-89.789
X156.464Y-172.339
X156.845Y-256.667
X156.845Y-91.567
X156.845Y-174.117
X157.226Y-257.429
X157.226Y-92.329
X157.226Y-174.879
X157.607Y-94.107
X157.607Y-176.657
X157.607Y-259.207
X157.988Y-94.869
X157.988Y-177.419
X157.988Y-259.969
X158.369Y-96.647
X158.369Y-179.197
X158.369Y-261.747
X158.75Y-262.509
X158.75Y-97.409
X158.75Y-179.959
X159.131Y-99.187
X159.131Y-181.737
X159.131Y-264.287
X159.512Y-265.049
X159.512Y-99.949
X159.512Y-182.499
X159.893Y-266.827
X159.893Y-101.727
X159.893Y-184.277
X160.274Y-102.489
X160.274Y-185.039
X160.274Y-267.589
X160.655Y-104.267
X160.655Y-186.817
X160.655Y-269.367
X161.036Y-270.129
X161.036Y-105.029
X161.036Y-187.579
X161.417Y-271.907
X161.417Y-106.807
X161.417Y-189.357
X161.798Y-107.569
X161.798Y-190.119
X161.798Y-272.669
X162.179Y-274.447
X162.179Y-109.347
X162.179Y-191.897
X162.56Y-275.209
X162.56Y-110.109
X162.56Y-192.659
X162.941Y-111.887
X162.941Y-194.437
X162.941Y-276.987
X163.322Y-277.749
X163.322Y-112.649
X163.322Y-195.199
X163.703Y-114.427
X163.703Y-196.977
X163.703Y-279.527
X164.084Y-115.189
X164.084Y-197.739
X164.084Y-280.289
X164.465Y-282.067
X164.465Y-116.967
X164.465Y-199.517
X164.846Y-282.829
X164.846Y-117.729
X164.846Y-200.279
X165.227Y-119.507
X165.227Y-202.057
X165.227Y-284.607
X165.608Y-120.269
X165.608Y-202.819
X165.608Y-285.369
X165.989Y-122.047
X165.989Y-204.597
X165.989Y-287.147
X166.37Y-122.809
X166.37Y-205.359
X166.37Y-287.909
X166.751Y-124.587
X166.751Y-207.137
X166.751Y-289.687
X167.132Y-125.349
X167.132Y-207.899
X167.132Y-290.449
X167.513Y-292.227
X167.513Y-127.127
X167.513Y-209.677
X167.894Y-292.989
X167.894Y-127.889
X167.894Y-210.439
X168.275Y-129.667
X168.275Y-212.217
X168.275Y-294.767
X168.656Y-295.529
X168.656Y-130.429
X168.656Y-212.979
X169.037Y-297.307
X169.037Y-132.207
X169.037Y-214.757
X169.418Y-298.069
X169.418Y-132.969
X169.418Y-215.519
X169.799Y-134.747
X169.799Y-217.297
X169.799Y-299.847
X170.18Y-135.509
X170.18Y-218.059
X170.18Y-300.609
X170.561Y-302.387
X170.561Y-137.287
X170.561Y-219.837
X170.942Y-138.049
X170.942Y-220.599
X170.942Y-303.149
X171.323Y-304.927
X171.323Y-139.827
X171.323Y-222.377
X171.704Y-305.689
X171.704Y-140.589
X171.704Y-223.139
X172.085Y-142.367
X172.085Y-224.917
X172.085Y-307.467
X172.466Y-143.129
X172.466Y-225.679
X172.466Y-308.229
X172.847Y-144.907
X172.847Y-227.457
X172.847Y-310.007
X173.228Y-145.669
X173.228Y-228.219
X173.228Y-310.769
X173.609Y-312.547
X173.609Y-147.447
X173.609Y-229.997
X173.99Y-313.309
X173.99Y-148.209
X173.99Y-230.759
X176.022Y-78.74
X176.022Y-82.042
X176.022Y-160.274
X176.022Y-163.576
X176.022Y-242.824
X176.022Y-246.126
X176.022Y-324.104
X176.022Y-327.406
X177.8Y-79.756
X177.8Y-81.026
X177.8Y-161.29
X177.8Y-162.56
X177.8Y-243.84
X177.8Y-245.11
X177.8Y-325.12
X177.8Y-326.39
X179.578Y-78.74
X179.578Y-82.042
X179.578Y-160.274
X179.578Y-163.576
X179.578Y-242.824
X179.578Y-246.126
X179.578Y-324.104
X179.578Y-327.406
T2
X151.13Y-69.825
X151.13Y-172.72
X151.13Y-175.26
X151.13Y-177.8
X151.13Y-180.34
X151.13Y-182.88
X151.13Y-185.42
X151.13Y-187.96
X151.13Y-190.5
X151.13Y-193.04
X151.13Y-195.58
X151.13Y-198.12
X151.13Y-200.66
X151.13Y-203.2
X151.13Y-205.74
X151.13Y-208.28
X151.13Y-210.82
X151.13Y-213.36
X151.13Y-215.9
X151.13Y-218.44
X151.13Y-220.98
X151.13Y-223.52
X151.13Y-226.06
X151.13Y-228.6
X151.13Y-231.14
X151.13Y-233.68
X151.13Y-255.27
X151.13Y-257.81
X151.13Y-260.35
X151.13Y-262.89
X151.13Y-265.43
X151.13Y-267.97
X151.13Y-270.51
X151.13Y-273.05
X151.13Y-275.59
X151.13Y-278.13
X151.13Y-280.67
X151.13Y-283.21
X151.13Y-285.75
X151.13Y-288.29
X151.13Y-290.83
X151.13Y-293.37
X151.13Y-295.91
X151.13Y-298.45
X151.13Y-300.99
X151.13Y-303.53
X151.13Y-306.07
X151.13Y-308.61
X151.13Y-311.15
X151.13Y-313.69
X151.13Y-316.23
X151.13Y-334.01
X151.13Y-336.55
X151.13Y-90.17
X151.13Y-92.71
X151.13Y-95.25
X151.13Y-97.79
X151.13Y-100.33
X151.13Y-102.87
X151.13Y-105.41
X151.13Y-107.95
X151.13Y-110.49
X151.13Y-113.03
X151.13Y-115.57
X151.13Y-118.11
X151.13Y-120.65
X151.13Y-123.19
X151.13Y-125.73
X151.13Y-128.27
X151.13Y-130.81
X151.13Y-133.35
X151.13Y-135.89
X151.13Y-138.43
X151.13Y-140.97
X151.13Y-143.51
X151.13Y-146.05
X151.13Y-148.59
X151.13Y-151.13
X151.15Y-72.365
X153.67Y-69.825
X153.67Y-90.17
X153.67Y-92.71
X153.67Y-95.25
X153.67Y-97.79
X153.67Y-100.33
X153.67Y-102.87
X153.67Y-105.41
X153.67Y-107.95
X153.67Y-110.49
X153.67Y-113.03
X153.67Y-115.57
X153.67Y-118.11
X153.67Y-120.65
X153.67Y-123.19
X153.67Y-125.73
X153.67Y-128.27
X153.67Y-130.81
X153.67Y-133.35
X153.67Y-135.89
X153.67Y-138.43
X153.67Y-140.97
X153.67Y-143.51
X153.67Y-146.05
X153.67Y-148.59
X153.67Y-151.13
X153.67Y-172.72
X153.67Y-175.26
X153.67Y-177.8
X153.67Y-180.34
X153.67Y-182.88
X153.67Y-185.42
X153.67Y-187.96
X153.67Y-190.5
X153.67Y-193.04
X153.67Y-195.58
X153.67Y-198.12
X153.67Y-200.66
X153.67Y-203.2
X153.67Y-205.74
X153.67Y-208.28
X153.67Y-210.82
X153.67Y-213.36
X153.67Y-215.9
X153.67Y-218.44
X153.67Y-220.98
X153.67Y-223.52
X153.67Y-226.06
X153.67Y-228.6
X153.67Y-231.14
X153.67Y-233.68
X153.67Y-255.27
X153.67Y-257.81
X153.67Y-260.35
X153.67Y-262.89
X153.67Y-265.43
X153.67Y-267.97
X153.67Y-270.51
X153.67Y-273.05
X153.67Y-275.59
X153.67Y-278.13
X153.67Y-280.67
X153.67Y-283.21
X153.67Y-285.75
X153.67Y-288.29
X153.67Y-290.83
X153.67Y-293.37
X153.67Y-295.91
X153.67Y-298.45
X153.67Y-300.99
X153.67Y-303.53
X153.67Y-306.07
X153.67Y-308.61
X153.67Y-311.15
X153.67Y-313.69
X153.67Y-316.23
X153.67Y-334.01
X153.67Y-336.55
X153.69Y-72.365
X156.21Y-69.825
X156.21Y-334.01
X156.21Y-336.55
X156.23Y-72.365
X158.75Y-69.825
X158.75Y-334.01
X158.75Y-336.55
X158.77Y-72.365
X161.29Y-69.825
X161.29Y-334.01
X161.29Y-336.55
X161.31Y-72.365
X163.83Y-69.825
X163.83Y-334.01
X163.83Y-336.55
X163.85Y-72.365
X166.37Y-69.825
X166.37Y-334.01
X166.37Y-336.55
X166.39Y-72.365
X168.91Y-69.825
X168.91Y-334.01
X168.91Y-336.55
X168.93Y-72.365
X171.45Y-69.825
X171.45Y-334.01
X171.45Y-336.55
X171.47Y-72.365
X173.99Y-69.825
X173.99Y-334.01
X173.99Y-336.55
X174.01Y-72.365
X176.53Y-69.825
X176.53Y-90.17
X176.53Y-92.71
X176.53Y-95.25
X176.53Y-97.79
X176.53Y-100.33
X176.53Y-102.87
X176.53Y-105.41
X176.53Y-107.95
X176.53Y-110.49
X176.53Y-113.03
X176.53Y-115.57
X176.53Y-118.11
X176.53Y-120.65
X176.53Y-123.19
X176.53Y-125.73
X176.53Y-128.27
X176.53Y-130.81
X176.53Y-133.35
X176.53Y-135.89
X176.53Y-138.43
X176.53Y-140.97
X176.53Y-143.51
X176.53Y-146.05
X176.53Y-148.59
X176.53Y-151.13
X176.53Y-172.72
X176.53Y-175.26
X176.53Y-177.8
X176.53Y-180.34
X176.53Y-182.88
X176.53Y-185.42
X176.53Y-187.96
X176.53Y-190.5
X176.53Y-193.04
X176.53Y-195.58
X176.53Y-198.12
X176.53Y-200.66
X176.53Y-203.2
X176.53Y-205.74
X176.53Y-208.28
X176.53Y-210.82
X176.53Y-213.36
X176.53Y-215.9
X176.53Y-218.44
X176.53Y-220.98
X176.53Y-223.52
X176.53Y-226.06
X176.53Y-228.6
X176.53Y-231.14
X176.53Y-233.68
X176.53Y-255.27
X176.53Y-257.81
X176.53Y-260.35
X176.53Y-262.89
X176.53Y-265.43
X176.53Y-267.97
X176.53Y-270.51
X176.53Y-273.05
X176.53Y-275.59
X176.53Y-278.13
X176.53Y-280.67
X176.53Y-283.21
X176.53Y-285.75
X176.53Y-288.29
X176.53Y-290.83
X176.53Y-293.37
X176.53Y-295.91
X176.53Y-298.45
X176.53Y-300.99
X176.53Y-303.53
X176.53Y-306.07
X176.53Y-308.61
X176.53Y-311.15
X176.53Y-313.69
X176.53Y-316.23
X176.53Y-334.01
X176.53Y-336.55
X176.55Y-72.365
X179.07Y-69.825
X179.07Y-90.17
X179.07Y-92.71
X179.07Y-95.25
X179.07Y-97.79
X179.07Y-100.33
X179.07Y-102.87
X179.07Y-105.41
X179.07Y-107.95
X179.07Y-110.49
X179.07Y-113.03
X179.07Y-115.57
X179.07Y-118.11
X179.07Y-120.65
X179.07Y-123.19
X179.07Y-125.73
X179.07Y-128.27
X179.07Y-130.81
X179.07Y-133.35
X179.07Y-135.89
X179.07Y-138.43
X179.07Y-140.97
X179.07Y-143.51
X179.07Y-146.05
X179.07Y-148.59
X179.07Y-151.13
X179.07Y-172.72
X179.07Y-175.26
X179.07Y-177.8
X179.07Y-180.34
X179.07Y-182.88
X179.07Y-185.42
X179.07Y-187.96
X179.07Y-190.5
X179.07Y-193.04
X179.07Y-195.58
X179.07Y-198.12
X179.07Y-200.66
X179.07Y-203.2
X179.07Y-205.74
X179.07Y-208.28
X179.07Y-210.82
X179.07Y-213.36
X179.07Y-215.9
X179.07Y-218.44
X179.07Y-220.98
X179.07Y-223.52
X179.07Y-226.06
X179.07Y-228.6
X179.07Y-231.14
X179.07Y-233.68
X179.07Y-255.27
X179.07Y-257.81
X179.07Y-260.35
X179.07Y-262.89
X179.07Y-265.43
X179.07Y-267.97
X179.07Y-270.51
X179.07Y-273.05
X179.07Y-275.59
X179.07Y-278.13
X179.07Y-280.67
X179.07Y-283.21
X179.07Y-285.75
X179.07Y-288.29
X179.07Y-290.83
X179.07Y-293.37
X179.07Y-295.91
X179.07Y-298.45
X179.07Y-300.99
X179.07Y-303.53
X179.07Y-306.07
X179.07Y-308.61
X179.07Y-311.15
X179.07Y-313.69
X179.07Y-316.23
X179.07Y-334.01
X179.07Y-336.55
X179.09Y-72.365
T0
M30
