G04 #@! TF.GenerationSoftware,KiCad,Pcbnew,7.0.7*
G04 #@! TF.CreationDate,2024-01-02T13:56:30+01:00*
G04 #@! TF.ProjectId,Backplane,4261636b-706c-4616-9e65-2e6b69636164,rev?*
G04 #@! TF.SameCoordinates,Original*
G04 #@! TF.FileFunction,Soldermask,Top*
G04 #@! TF.FilePolarity,Negative*
%FSLAX46Y46*%
G04 Gerber Fmt 4.6, Leading zero omitted, Abs format (unit mm)*
G04 Created by KiCad (PCBNEW 7.0.7) date 2024-01-02 13:56:30*
%MOMM*%
%LPD*%
G01*
G04 APERTURE LIST*
%ADD10R,1.700000X1.700000*%
%ADD11O,1.700000X1.700000*%
%ADD12C,2.200000*%
G04 APERTURE END LIST*
D10*
X176530000Y-172720000D03*
D11*
X176530000Y-175260000D03*
X176530000Y-177800000D03*
X176530000Y-180340000D03*
X176530000Y-182880000D03*
X176530000Y-185420000D03*
X176530000Y-187960000D03*
X176530000Y-190500000D03*
X176530000Y-193040000D03*
X176530000Y-195580000D03*
X176530000Y-198120000D03*
X176530000Y-200660000D03*
X176530000Y-203200000D03*
X176530000Y-205740000D03*
X176530000Y-208280000D03*
X176530000Y-210820000D03*
X176530000Y-213360000D03*
X176530000Y-215900000D03*
X176530000Y-218440000D03*
X176530000Y-220980000D03*
X176530000Y-223520000D03*
X176530000Y-226060000D03*
X176530000Y-228600000D03*
X176530000Y-231140000D03*
X176530000Y-233680000D03*
D10*
X179070000Y-90170000D03*
D11*
X179070000Y-92710000D03*
X179070000Y-95250000D03*
X179070000Y-97790000D03*
X179070000Y-100330000D03*
X179070000Y-102870000D03*
X179070000Y-105410000D03*
X179070000Y-107950000D03*
X179070000Y-110490000D03*
X179070000Y-113030000D03*
X179070000Y-115570000D03*
X179070000Y-118110000D03*
X179070000Y-120650000D03*
X179070000Y-123190000D03*
X179070000Y-125730000D03*
X179070000Y-128270000D03*
X179070000Y-130810000D03*
X179070000Y-133350000D03*
X179070000Y-135890000D03*
X179070000Y-138430000D03*
X179070000Y-140970000D03*
X179070000Y-143510000D03*
X179070000Y-146050000D03*
X179070000Y-148590000D03*
X179070000Y-151130000D03*
D12*
X153035000Y-66040000D03*
X177165000Y-66040000D03*
X177165000Y-250190000D03*
X153035000Y-238760000D03*
D10*
X151130000Y-334010000D03*
D11*
X153670000Y-334010000D03*
X156210000Y-334010000D03*
X158750000Y-334010000D03*
X161290000Y-334010000D03*
X163830000Y-334010000D03*
X166370000Y-334010000D03*
X168910000Y-334010000D03*
X171450000Y-334010000D03*
X173990000Y-334010000D03*
X176530000Y-334010000D03*
X179070000Y-334010000D03*
D10*
X176530000Y-90170000D03*
D11*
X176530000Y-92710000D03*
X176530000Y-95250000D03*
X176530000Y-97790000D03*
X176530000Y-100330000D03*
X176530000Y-102870000D03*
X176530000Y-105410000D03*
X176530000Y-107950000D03*
X176530000Y-110490000D03*
X176530000Y-113030000D03*
X176530000Y-115570000D03*
X176530000Y-118110000D03*
X176530000Y-120650000D03*
X176530000Y-123190000D03*
X176530000Y-125730000D03*
X176530000Y-128270000D03*
X176530000Y-130810000D03*
X176530000Y-133350000D03*
X176530000Y-135890000D03*
X176530000Y-138430000D03*
X176530000Y-140970000D03*
X176530000Y-143510000D03*
X176530000Y-146050000D03*
X176530000Y-148590000D03*
X176530000Y-151130000D03*
D10*
X151130000Y-336550000D03*
D11*
X153670000Y-336550000D03*
X156210000Y-336550000D03*
X158750000Y-336550000D03*
X161290000Y-336550000D03*
X163830000Y-336550000D03*
X166370000Y-336550000D03*
X168910000Y-336550000D03*
X171450000Y-336550000D03*
X173990000Y-336550000D03*
X176530000Y-336550000D03*
X179070000Y-336550000D03*
D10*
X151130000Y-172720000D03*
D11*
X151130000Y-175260000D03*
X151130000Y-177800000D03*
X151130000Y-180340000D03*
X151130000Y-182880000D03*
X151130000Y-185420000D03*
X151130000Y-187960000D03*
X151130000Y-190500000D03*
X151130000Y-193040000D03*
X151130000Y-195580000D03*
X151130000Y-198120000D03*
X151130000Y-200660000D03*
X151130000Y-203200000D03*
X151130000Y-205740000D03*
X151130000Y-208280000D03*
X151130000Y-210820000D03*
X151130000Y-213360000D03*
X151130000Y-215900000D03*
X151130000Y-218440000D03*
X151130000Y-220980000D03*
X151130000Y-223520000D03*
X151130000Y-226060000D03*
X151130000Y-228600000D03*
X151130000Y-231140000D03*
X151130000Y-233680000D03*
D12*
X153035000Y-167640000D03*
D10*
X153670000Y-255270000D03*
D11*
X153670000Y-257810000D03*
X153670000Y-260350000D03*
X153670000Y-262890000D03*
X153670000Y-265430000D03*
X153670000Y-267970000D03*
X153670000Y-270510000D03*
X153670000Y-273050000D03*
X153670000Y-275590000D03*
X153670000Y-278130000D03*
X153670000Y-280670000D03*
X153670000Y-283210000D03*
X153670000Y-285750000D03*
X153670000Y-288290000D03*
X153670000Y-290830000D03*
X153670000Y-293370000D03*
X153670000Y-295910000D03*
X153670000Y-298450000D03*
X153670000Y-300990000D03*
X153670000Y-303530000D03*
X153670000Y-306070000D03*
X153670000Y-308610000D03*
X153670000Y-311150000D03*
X153670000Y-313690000D03*
X153670000Y-316230000D03*
D12*
X153035000Y-250190000D03*
X153035000Y-156210000D03*
X153035000Y-85090000D03*
D10*
X176530000Y-255270000D03*
D11*
X176530000Y-257810000D03*
X176530000Y-260350000D03*
X176530000Y-262890000D03*
X176530000Y-265430000D03*
X176530000Y-267970000D03*
X176530000Y-270510000D03*
X176530000Y-273050000D03*
X176530000Y-275590000D03*
X176530000Y-278130000D03*
X176530000Y-280670000D03*
X176530000Y-283210000D03*
X176530000Y-285750000D03*
X176530000Y-288290000D03*
X176530000Y-290830000D03*
X176530000Y-293370000D03*
X176530000Y-295910000D03*
X176530000Y-298450000D03*
X176530000Y-300990000D03*
X176530000Y-303530000D03*
X176530000Y-306070000D03*
X176530000Y-308610000D03*
X176530000Y-311150000D03*
X176530000Y-313690000D03*
X176530000Y-316230000D03*
D12*
X177165000Y-167640000D03*
D10*
X151130000Y-69825000D03*
D11*
X153670000Y-69825000D03*
X156210000Y-69825000D03*
X158750000Y-69825000D03*
X161290000Y-69825000D03*
X163830000Y-69825000D03*
X166370000Y-69825000D03*
X168910000Y-69825000D03*
X171450000Y-69825000D03*
X173990000Y-69825000D03*
X176530000Y-69825000D03*
X179070000Y-69825000D03*
D12*
X153035000Y-340360000D03*
D10*
X179070000Y-172720001D03*
D11*
X179070000Y-175260001D03*
X179070000Y-177800001D03*
X179070000Y-180340001D03*
X179070000Y-182880001D03*
X179070000Y-185420001D03*
X179070000Y-187960001D03*
X179070000Y-190500001D03*
X179070000Y-193040001D03*
X179070000Y-195580001D03*
X179070000Y-198120001D03*
X179070000Y-200660001D03*
X179070000Y-203200001D03*
X179070000Y-205740001D03*
X179070000Y-208280001D03*
X179070000Y-210820001D03*
X179070000Y-213360001D03*
X179070000Y-215900001D03*
X179070000Y-218440001D03*
X179070000Y-220980001D03*
X179070000Y-223520001D03*
X179070000Y-226060001D03*
X179070000Y-228600001D03*
X179070000Y-231140001D03*
X179070000Y-233680001D03*
D10*
X153670000Y-172719999D03*
D11*
X153670000Y-175259999D03*
X153670000Y-177799999D03*
X153670000Y-180339999D03*
X153670000Y-182879999D03*
X153670000Y-185419999D03*
X153670000Y-187959999D03*
X153670000Y-190499999D03*
X153670000Y-193039999D03*
X153670000Y-195579999D03*
X153670000Y-198119999D03*
X153670000Y-200659999D03*
X153670000Y-203199999D03*
X153670000Y-205739999D03*
X153670000Y-208279999D03*
X153670000Y-210819999D03*
X153670000Y-213359999D03*
X153670000Y-215899999D03*
X153670000Y-218439999D03*
X153670000Y-220979999D03*
X153670000Y-223519999D03*
X153670000Y-226059999D03*
X153670000Y-228599999D03*
X153670000Y-231139999D03*
X153670000Y-233679999D03*
D12*
X177165000Y-340360000D03*
X177165000Y-156210000D03*
D10*
X179070000Y-255270000D03*
D11*
X179070000Y-257810000D03*
X179070000Y-260350000D03*
X179070000Y-262890000D03*
X179070000Y-265430000D03*
X179070000Y-267970000D03*
X179070000Y-270510000D03*
X179070000Y-273050000D03*
X179070000Y-275590000D03*
X179070000Y-278130000D03*
X179070000Y-280670000D03*
X179070000Y-283210000D03*
X179070000Y-285750000D03*
X179070000Y-288290000D03*
X179070000Y-290830000D03*
X179070000Y-293370000D03*
X179070000Y-295910000D03*
X179070000Y-298450000D03*
X179070000Y-300990000D03*
X179070000Y-303530000D03*
X179070000Y-306070000D03*
X179070000Y-308610000D03*
X179070000Y-311150000D03*
X179070000Y-313690000D03*
X179070000Y-316230000D03*
D10*
X153670000Y-90169999D03*
D11*
X153670000Y-92709999D03*
X153670000Y-95249999D03*
X153670000Y-97789999D03*
X153670000Y-100329999D03*
X153670000Y-102869999D03*
X153670000Y-105409999D03*
X153670000Y-107949999D03*
X153670000Y-110489999D03*
X153670000Y-113029999D03*
X153670000Y-115569999D03*
X153670000Y-118109999D03*
X153670000Y-120649999D03*
X153670000Y-123189999D03*
X153670000Y-125729999D03*
X153670000Y-128269999D03*
X153670000Y-130809999D03*
X153670000Y-133349999D03*
X153670000Y-135889999D03*
X153670000Y-138429999D03*
X153670000Y-140969999D03*
X153670000Y-143509999D03*
X153670000Y-146049999D03*
X153670000Y-148589999D03*
X153670000Y-151129999D03*
D10*
X151130001Y-90170000D03*
D11*
X151130001Y-92710000D03*
X151130001Y-95250000D03*
X151130001Y-97790000D03*
X151130001Y-100330000D03*
X151130001Y-102870000D03*
X151130001Y-105410000D03*
X151130001Y-107950000D03*
X151130001Y-110490000D03*
X151130001Y-113030000D03*
X151130001Y-115570000D03*
X151130001Y-118110000D03*
X151130001Y-120650000D03*
X151130001Y-123190000D03*
X151130001Y-125730000D03*
X151130001Y-128270000D03*
X151130001Y-130810000D03*
X151130001Y-133350000D03*
X151130001Y-135890000D03*
X151130001Y-138430000D03*
X151130001Y-140970000D03*
X151130001Y-143510000D03*
X151130001Y-146050000D03*
X151130001Y-148590000D03*
X151130001Y-151130000D03*
D12*
X177165000Y-238760000D03*
D10*
X151130000Y-255270000D03*
D11*
X151130000Y-257810000D03*
X151130000Y-260350000D03*
X151130000Y-262890000D03*
X151130000Y-265430000D03*
X151130000Y-267970000D03*
X151130000Y-270510000D03*
X151130000Y-273050000D03*
X151130000Y-275590000D03*
X151130000Y-278130000D03*
X151130000Y-280670000D03*
X151130000Y-283210000D03*
X151130000Y-285750000D03*
X151130000Y-288290000D03*
X151130000Y-290830000D03*
X151130000Y-293370000D03*
X151130000Y-295910000D03*
X151130000Y-298450000D03*
X151130000Y-300990000D03*
X151130000Y-303530000D03*
X151130000Y-306070000D03*
X151130000Y-308610000D03*
X151130000Y-311150000D03*
X151130000Y-313690000D03*
X151130000Y-316230000D03*
D12*
X153035000Y-321310000D03*
D10*
X151150000Y-72365000D03*
D11*
X153690000Y-72365000D03*
X156230000Y-72365000D03*
X158770000Y-72365000D03*
X161310000Y-72365000D03*
X163850000Y-72365000D03*
X166390000Y-72365000D03*
X168930000Y-72365000D03*
X171470000Y-72365000D03*
X174010000Y-72365000D03*
X176550000Y-72365000D03*
X179090000Y-72365000D03*
D12*
X177165000Y-85090000D03*
X177165000Y-321310000D03*
M02*
