G04 #@! TF.GenerationSoftware,KiCad,Pcbnew,7.0.7*
G04 #@! TF.CreationDate,2024-01-02T13:56:30+01:00*
G04 #@! TF.ProjectId,Backplane,4261636b-706c-4616-9e65-2e6b69636164,rev?*
G04 #@! TF.SameCoordinates,Original*
G04 #@! TF.FileFunction,Soldermask,Bot*
G04 #@! TF.FilePolarity,Negative*
%FSLAX46Y46*%
G04 Gerber Fmt 4.6, Leading zero omitted, Abs format (unit mm)*
G04 Created by KiCad (PCBNEW 7.0.7) date 2024-01-02 13:56:30*
%MOMM*%
%LPD*%
G01*
G04 APERTURE LIST*
%ADD10C,0.150000*%
%ADD11C,0.100000*%
%ADD12C,0.200000*%
%ADD13R,1.700000X1.700000*%
%ADD14O,1.700000X1.700000*%
%ADD15C,2.200000*%
G04 APERTURE END LIST*
D10*
X174548800Y-88442800D02*
X175463200Y-88442800D01*
X175463200Y-149402800D01*
X174548800Y-149402800D01*
X174548800Y-88442800D01*
G36*
X174548800Y-88442800D02*
G01*
X175463200Y-88442800D01*
X175463200Y-149402800D01*
X174548800Y-149402800D01*
X174548800Y-88442800D01*
G37*
X154736800Y-171246800D02*
X155651200Y-171246800D01*
X155651200Y-232206800D01*
X154736800Y-232206800D01*
X154736800Y-171246800D01*
G36*
X154736800Y-171246800D02*
G01*
X155651200Y-171246800D01*
X155651200Y-232206800D01*
X154736800Y-232206800D01*
X154736800Y-171246800D01*
G37*
D11*
X174752000Y-323850000D02*
X180340000Y-323850000D01*
X180340000Y-327660000D01*
X174752000Y-327660000D01*
X174752000Y-323850000D01*
G36*
X174752000Y-323850000D02*
G01*
X180340000Y-323850000D01*
X180340000Y-327660000D01*
X174752000Y-327660000D01*
X174752000Y-323850000D01*
G37*
X149860000Y-242570000D02*
X155448000Y-242570000D01*
X155448000Y-246380000D01*
X149860000Y-246380000D01*
X149860000Y-242570000D01*
G36*
X149860000Y-242570000D02*
G01*
X155448000Y-242570000D01*
X155448000Y-246380000D01*
X149860000Y-246380000D01*
X149860000Y-242570000D01*
G37*
X174752000Y-160020000D02*
X180340000Y-160020000D01*
X180340000Y-163830000D01*
X174752000Y-163830000D01*
X174752000Y-160020000D01*
G36*
X174752000Y-160020000D02*
G01*
X180340000Y-160020000D01*
X180340000Y-163830000D01*
X174752000Y-163830000D01*
X174752000Y-160020000D01*
G37*
D10*
X174548800Y-253492000D02*
X175463200Y-253492000D01*
X175463200Y-314452000D01*
X174548800Y-314452000D01*
X174548800Y-253492000D01*
G36*
X174548800Y-253492000D02*
G01*
X175463200Y-253492000D01*
X175463200Y-314452000D01*
X174548800Y-314452000D01*
X174548800Y-253492000D01*
G37*
D11*
X174752000Y-242570000D02*
X180340000Y-242570000D01*
X180340000Y-246380000D01*
X174752000Y-246380000D01*
X174752000Y-242570000D01*
G36*
X174752000Y-242570000D02*
G01*
X180340000Y-242570000D01*
X180340000Y-246380000D01*
X174752000Y-246380000D01*
X174752000Y-242570000D01*
G37*
D10*
X154736800Y-88442800D02*
X155651200Y-88442800D01*
X155651200Y-149402800D01*
X154736800Y-149402800D01*
X154736800Y-88442800D01*
G36*
X154736800Y-88442800D02*
G01*
X155651200Y-88442800D01*
X155651200Y-149402800D01*
X154736800Y-149402800D01*
X154736800Y-88442800D01*
G37*
D11*
X149860000Y-160020000D02*
X155448000Y-160020000D01*
X155448000Y-163830000D01*
X149860000Y-163830000D01*
X149860000Y-160020000D01*
G36*
X149860000Y-160020000D02*
G01*
X155448000Y-160020000D01*
X155448000Y-163830000D01*
X149860000Y-163830000D01*
X149860000Y-160020000D01*
G37*
X174752000Y-78486000D02*
X180340000Y-78486000D01*
X180340000Y-82296000D01*
X174752000Y-82296000D01*
X174752000Y-78486000D01*
G36*
X174752000Y-78486000D02*
G01*
X180340000Y-78486000D01*
X180340000Y-82296000D01*
X174752000Y-82296000D01*
X174752000Y-78486000D01*
G37*
D10*
X154736800Y-253492000D02*
X155651200Y-253492000D01*
X155651200Y-314452000D01*
X154736800Y-314452000D01*
X154736800Y-253492000D01*
G36*
X154736800Y-253492000D02*
G01*
X155651200Y-253492000D01*
X155651200Y-314452000D01*
X154736800Y-314452000D01*
X154736800Y-253492000D01*
G37*
D11*
X149860000Y-323850000D02*
X155448000Y-323850000D01*
X155448000Y-327660000D01*
X149860000Y-327660000D01*
X149860000Y-323850000D01*
G36*
X149860000Y-323850000D02*
G01*
X155448000Y-323850000D01*
X155448000Y-327660000D01*
X149860000Y-327660000D01*
X149860000Y-323850000D01*
G37*
X149860000Y-78486000D02*
X155448000Y-78486000D01*
X155448000Y-82296000D01*
X149860000Y-82296000D01*
X149860000Y-78486000D01*
G36*
X149860000Y-78486000D02*
G01*
X155448000Y-78486000D01*
X155448000Y-82296000D01*
X149860000Y-82296000D01*
X149860000Y-78486000D01*
G37*
D10*
X174548800Y-171246800D02*
X175463200Y-171246800D01*
X175463200Y-232206800D01*
X174548800Y-232206800D01*
X174548800Y-171246800D01*
G36*
X174548800Y-171246800D02*
G01*
X175463200Y-171246800D01*
X175463200Y-232206800D01*
X174548800Y-232206800D01*
X174548800Y-171246800D01*
G37*
D12*
G36*
X172645687Y-325559528D02*
G01*
X171770321Y-325559528D01*
X171770321Y-325630359D01*
X171770540Y-325660307D01*
X171771198Y-325689824D01*
X171772295Y-325718910D01*
X171773831Y-325747565D01*
X171775806Y-325775788D01*
X171778220Y-325803580D01*
X171781073Y-325830941D01*
X171784364Y-325857871D01*
X171788095Y-325884370D01*
X171792264Y-325910437D01*
X171796872Y-325936073D01*
X171801919Y-325961277D01*
X171807405Y-325986051D01*
X171813330Y-326010393D01*
X171819694Y-326034304D01*
X171826496Y-326057784D01*
X171833629Y-326079193D01*
X171841349Y-326100435D01*
X171849657Y-326121508D01*
X171858553Y-326142414D01*
X171868037Y-326163152D01*
X171878108Y-326183722D01*
X171888767Y-326204123D01*
X171900013Y-326224357D01*
X171911848Y-326244424D01*
X171924270Y-326264322D01*
X171937280Y-326284052D01*
X171950877Y-326303614D01*
X171965062Y-326323009D01*
X171979835Y-326342235D01*
X171995196Y-326361294D01*
X172011144Y-326380184D01*
X172029679Y-326400861D01*
X172048526Y-326420881D01*
X172067686Y-326440245D01*
X172087157Y-326458953D01*
X172106940Y-326477004D01*
X172127035Y-326494398D01*
X172147442Y-326511137D01*
X172168162Y-326527219D01*
X172189193Y-326542644D01*
X172210536Y-326557413D01*
X172232191Y-326571526D01*
X172254158Y-326584982D01*
X172276437Y-326597782D01*
X172299028Y-326609925D01*
X172321931Y-326621412D01*
X172345146Y-326632243D01*
X172368673Y-326642417D01*
X172392512Y-326651935D01*
X172416663Y-326660797D01*
X172441126Y-326669002D01*
X172465901Y-326676550D01*
X172490988Y-326683442D01*
X172516387Y-326689678D01*
X172542097Y-326695258D01*
X172568120Y-326700181D01*
X172594455Y-326704447D01*
X172621102Y-326708058D01*
X172648061Y-326711011D01*
X172675331Y-326713309D01*
X172702914Y-326714950D01*
X172730809Y-326715934D01*
X172759016Y-326716263D01*
X172786582Y-326715946D01*
X172813900Y-326714996D01*
X172840968Y-326713412D01*
X172867788Y-326711195D01*
X172894358Y-326708344D01*
X172920680Y-326704859D01*
X172946752Y-326700742D01*
X172972575Y-326695990D01*
X172998150Y-326690606D01*
X173023475Y-326684587D01*
X173048552Y-326677936D01*
X173073379Y-326670650D01*
X173097957Y-326662731D01*
X173122287Y-326654179D01*
X173146367Y-326644993D01*
X173170198Y-326635174D01*
X173193781Y-326624721D01*
X173217114Y-326613635D01*
X173240198Y-326601915D01*
X173263034Y-326589562D01*
X173285620Y-326576575D01*
X173307957Y-326562954D01*
X173330045Y-326548701D01*
X173351885Y-326533813D01*
X173373475Y-326518292D01*
X173394816Y-326502138D01*
X173415908Y-326485350D01*
X173436751Y-326467929D01*
X173457345Y-326449874D01*
X173477691Y-326431185D01*
X173497787Y-326411863D01*
X173517634Y-326391908D01*
X173537078Y-326371448D01*
X173555906Y-326350734D01*
X173574115Y-326329766D01*
X173591708Y-326308545D01*
X173608683Y-326287070D01*
X173625042Y-326265341D01*
X173640782Y-326243358D01*
X173655906Y-326221121D01*
X173670412Y-326198631D01*
X173684301Y-326175887D01*
X173697573Y-326152889D01*
X173710227Y-326129637D01*
X173722264Y-326106132D01*
X173733684Y-326082372D01*
X173744486Y-326058359D01*
X173754672Y-326034092D01*
X173764239Y-326009572D01*
X173773190Y-325984797D01*
X173781523Y-325959769D01*
X173789240Y-325934487D01*
X173796338Y-325908951D01*
X173802820Y-325883162D01*
X173808684Y-325857118D01*
X173813931Y-325830821D01*
X173818561Y-325804270D01*
X173822573Y-325777466D01*
X173825968Y-325750407D01*
X173828746Y-325723095D01*
X173830906Y-325695529D01*
X173832450Y-325667709D01*
X173833375Y-325639635D01*
X173833684Y-325611308D01*
X173833370Y-325582351D01*
X173832429Y-325553670D01*
X173830859Y-325525267D01*
X173828662Y-325497140D01*
X173825837Y-325469289D01*
X173822384Y-325441716D01*
X173818303Y-325414419D01*
X173813595Y-325387398D01*
X173808259Y-325360655D01*
X173802295Y-325334188D01*
X173795703Y-325307997D01*
X173788484Y-325282084D01*
X173780637Y-325256447D01*
X173772162Y-325231087D01*
X173763059Y-325206003D01*
X173753328Y-325181196D01*
X173742970Y-325156666D01*
X173731984Y-325132413D01*
X173720370Y-325108436D01*
X173708128Y-325084736D01*
X173695258Y-325061312D01*
X173681761Y-325038165D01*
X173667636Y-325015295D01*
X173652883Y-324992702D01*
X173637503Y-324970385D01*
X173621494Y-324948345D01*
X173604858Y-324926582D01*
X173587594Y-324905095D01*
X173569702Y-324883885D01*
X173551183Y-324862952D01*
X173532036Y-324842295D01*
X173512260Y-324821915D01*
X173492036Y-324801900D01*
X173471541Y-324782519D01*
X173450774Y-324763775D01*
X173429737Y-324745665D01*
X173408429Y-324728192D01*
X173386849Y-324711353D01*
X173364999Y-324695150D01*
X173342878Y-324679583D01*
X173320486Y-324664650D01*
X173297823Y-324650354D01*
X173274889Y-324636692D01*
X173251684Y-324623666D01*
X173228208Y-324611276D01*
X173204461Y-324599521D01*
X173180443Y-324588401D01*
X173156154Y-324577916D01*
X173131595Y-324568068D01*
X173106764Y-324558854D01*
X173081662Y-324550276D01*
X173056290Y-324542333D01*
X173030646Y-324535026D01*
X173004731Y-324528354D01*
X172978546Y-324522318D01*
X172952090Y-324516917D01*
X172925362Y-324512151D01*
X172898364Y-324508021D01*
X172871094Y-324504526D01*
X172843554Y-324501667D01*
X172815743Y-324499443D01*
X172787661Y-324497854D01*
X172759307Y-324496901D01*
X172730683Y-324496584D01*
X172699855Y-324496990D01*
X172669287Y-324498209D01*
X172638978Y-324500242D01*
X172608928Y-324503087D01*
X172579138Y-324506744D01*
X172549608Y-324511215D01*
X172520337Y-324516499D01*
X172491325Y-324522595D01*
X172462573Y-324529505D01*
X172434081Y-324537227D01*
X172405848Y-324545762D01*
X172377875Y-324555110D01*
X172350161Y-324565271D01*
X172322706Y-324576245D01*
X172295511Y-324588032D01*
X172268576Y-324600631D01*
X172242957Y-324614083D01*
X172217392Y-324628551D01*
X172191880Y-324644034D01*
X172166421Y-324660532D01*
X172141016Y-324678045D01*
X172115665Y-324696573D01*
X172090366Y-324716116D01*
X172065122Y-324736674D01*
X172039930Y-324758248D01*
X172014792Y-324780836D01*
X171989708Y-324804440D01*
X171964677Y-324829059D01*
X171939699Y-324854693D01*
X171914775Y-324881342D01*
X171889904Y-324909007D01*
X171865087Y-324937686D01*
X172092721Y-325154574D01*
X172109135Y-325133326D01*
X172125770Y-325112753D01*
X172142627Y-325092854D01*
X172159705Y-325073630D01*
X172177004Y-325055081D01*
X172194525Y-325037206D01*
X172212266Y-325020005D01*
X172230230Y-325003479D01*
X172248414Y-324987628D01*
X172266820Y-324972451D01*
X172285448Y-324957948D01*
X172304296Y-324944120D01*
X172323366Y-324930967D01*
X172342658Y-324918488D01*
X172362171Y-324906684D01*
X172381905Y-324895554D01*
X172401860Y-324885099D01*
X172422037Y-324875318D01*
X172442435Y-324866212D01*
X172463054Y-324857781D01*
X172483895Y-324850024D01*
X172504957Y-324842941D01*
X172526241Y-324836533D01*
X172547745Y-324830799D01*
X172569472Y-324825740D01*
X172591419Y-324821356D01*
X172613588Y-324817646D01*
X172635978Y-324814611D01*
X172658590Y-324812250D01*
X172681423Y-324810563D01*
X172704477Y-324809552D01*
X172727752Y-324809214D01*
X172748651Y-324809441D01*
X172769339Y-324810119D01*
X172789814Y-324811249D01*
X172810078Y-324812832D01*
X172830129Y-324814867D01*
X172849969Y-324817355D01*
X172869597Y-324820294D01*
X172889014Y-324823686D01*
X172908218Y-324827530D01*
X172945992Y-324836574D01*
X172982919Y-324847428D01*
X173018998Y-324860090D01*
X173054230Y-324874562D01*
X173088615Y-324890842D01*
X173122152Y-324908931D01*
X173154843Y-324928830D01*
X173186686Y-324950537D01*
X173217682Y-324974053D01*
X173232862Y-324986489D01*
X173247830Y-324999378D01*
X173262587Y-325012718D01*
X173277132Y-325026511D01*
X173291465Y-325040757D01*
X173305470Y-325055065D01*
X173319030Y-325069598D01*
X173332146Y-325084355D01*
X173344817Y-325099337D01*
X173368825Y-325129972D01*
X173391055Y-325161504D01*
X173411507Y-325193933D01*
X173430180Y-325227259D01*
X173447074Y-325261482D01*
X173462191Y-325296601D01*
X173475529Y-325332617D01*
X173487088Y-325369530D01*
X173496869Y-325407340D01*
X173501093Y-325426582D01*
X173504872Y-325446047D01*
X173508207Y-325465737D01*
X173511097Y-325485651D01*
X173513542Y-325505789D01*
X173515543Y-325526151D01*
X173517099Y-325546738D01*
X173518210Y-325567548D01*
X173518877Y-325588583D01*
X173519099Y-325609842D01*
X173518852Y-325631824D01*
X173518109Y-325653560D01*
X173516871Y-325675051D01*
X173515138Y-325696297D01*
X173512910Y-325717297D01*
X173510186Y-325738053D01*
X173506968Y-325758563D01*
X173503254Y-325778828D01*
X173499045Y-325798848D01*
X173494341Y-325818622D01*
X173489142Y-325838152D01*
X173483447Y-325857436D01*
X173477258Y-325876475D01*
X173470573Y-325895269D01*
X173463393Y-325913817D01*
X173455718Y-325932121D01*
X173447548Y-325950179D01*
X173438883Y-325967992D01*
X173429722Y-325985560D01*
X173420066Y-326002883D01*
X173409916Y-326019960D01*
X173399270Y-326036792D01*
X173388128Y-326053379D01*
X173376492Y-326069721D01*
X173364360Y-326085818D01*
X173351734Y-326101669D01*
X173338612Y-326117276D01*
X173324995Y-326132637D01*
X173310883Y-326147753D01*
X173296275Y-326162623D01*
X173281173Y-326177249D01*
X173265575Y-326191629D01*
X173250699Y-326204672D01*
X173235745Y-326217301D01*
X173205606Y-326241317D01*
X173175158Y-326263677D01*
X173144400Y-326284380D01*
X173113334Y-326303427D01*
X173081958Y-326320818D01*
X173050273Y-326336553D01*
X173018279Y-326350631D01*
X172985976Y-326363053D01*
X172953364Y-326373819D01*
X172920443Y-326382928D01*
X172887213Y-326390382D01*
X172853673Y-326396179D01*
X172819824Y-326400319D01*
X172785667Y-326402804D01*
X172751200Y-326403632D01*
X172721896Y-326403023D01*
X172692971Y-326401197D01*
X172664423Y-326398153D01*
X172636253Y-326393893D01*
X172608461Y-326388414D01*
X172581046Y-326381719D01*
X172554010Y-326373805D01*
X172527351Y-326364675D01*
X172501070Y-326354327D01*
X172475167Y-326342762D01*
X172449642Y-326329979D01*
X172424494Y-326315979D01*
X172399725Y-326300762D01*
X172375333Y-326284327D01*
X172351319Y-326266674D01*
X172327683Y-326247805D01*
X172304823Y-326227962D01*
X172283261Y-326207634D01*
X172262996Y-326186822D01*
X172244030Y-326165525D01*
X172226360Y-326143744D01*
X172209988Y-326121478D01*
X172194914Y-326098727D01*
X172181137Y-326075491D01*
X172168658Y-326051771D01*
X172157476Y-326027566D01*
X172147592Y-326002877D01*
X172139005Y-325977703D01*
X172131716Y-325952044D01*
X172125724Y-325925900D01*
X172121030Y-325899272D01*
X172117634Y-325872159D01*
X172645687Y-325872159D01*
X172645687Y-325559528D01*
G37*
G36*
X171381486Y-326685000D02*
G01*
X171381486Y-324415006D01*
X169849595Y-326036290D01*
X169849595Y-324559110D01*
X169535010Y-324559110D01*
X169535010Y-326813960D01*
X171066901Y-325196584D01*
X171066901Y-326685000D01*
X171381486Y-326685000D01*
G37*
G36*
X169019169Y-326685000D02*
G01*
X168583440Y-326685000D01*
X168563555Y-326684942D01*
X168543955Y-326684769D01*
X168505610Y-326684076D01*
X168468407Y-326682922D01*
X168432345Y-326681305D01*
X168397424Y-326679227D01*
X168363644Y-326676688D01*
X168331005Y-326673686D01*
X168299508Y-326670223D01*
X168269151Y-326666298D01*
X168239935Y-326661911D01*
X168211861Y-326657062D01*
X168184927Y-326651752D01*
X168159135Y-326645980D01*
X168134483Y-326639746D01*
X168110973Y-326633050D01*
X168088604Y-326625893D01*
X168065282Y-326618087D01*
X168042091Y-326609567D01*
X168019029Y-326600333D01*
X167996097Y-326590386D01*
X167973294Y-326579725D01*
X167950622Y-326568351D01*
X167928079Y-326556263D01*
X167905666Y-326543461D01*
X167883383Y-326529945D01*
X167861229Y-326515716D01*
X167839205Y-326500774D01*
X167817311Y-326485117D01*
X167795547Y-326468747D01*
X167773912Y-326451664D01*
X167752407Y-326433866D01*
X167731032Y-326415355D01*
X167710145Y-326396243D01*
X167689921Y-326376765D01*
X167670360Y-326356920D01*
X167651463Y-326336709D01*
X167633228Y-326316132D01*
X167615656Y-326295188D01*
X167598748Y-326273878D01*
X167582502Y-326252201D01*
X167566920Y-326230158D01*
X167552000Y-326207749D01*
X167537744Y-326184973D01*
X167524151Y-326161831D01*
X167511221Y-326138323D01*
X167498954Y-326114448D01*
X167487350Y-326090207D01*
X167476409Y-326065600D01*
X167466131Y-326040626D01*
X167456517Y-326015286D01*
X167447565Y-325989579D01*
X167439277Y-325963506D01*
X167431651Y-325937067D01*
X167424689Y-325910261D01*
X167418390Y-325883089D01*
X167412753Y-325855551D01*
X167407780Y-325827646D01*
X167403470Y-325799375D01*
X167399823Y-325770737D01*
X167396839Y-325741734D01*
X167394519Y-325712363D01*
X167392861Y-325682627D01*
X167391866Y-325652524D01*
X167391540Y-325622543D01*
X167706120Y-325622543D01*
X167706351Y-325643758D01*
X167707045Y-325664723D01*
X167708202Y-325685436D01*
X167709821Y-325705899D01*
X167711904Y-325726110D01*
X167714449Y-325746071D01*
X167717456Y-325765781D01*
X167720927Y-325785239D01*
X167729256Y-325823404D01*
X167739436Y-325860565D01*
X167751467Y-325896723D01*
X167765348Y-325931877D01*
X167781081Y-325966027D01*
X167798665Y-325999173D01*
X167818099Y-326031316D01*
X167839385Y-326062455D01*
X167862521Y-326092590D01*
X167887508Y-326121722D01*
X167914346Y-326149850D01*
X167928459Y-326163538D01*
X167943035Y-326176974D01*
X167957554Y-326189641D01*
X167979741Y-326207824D01*
X168002417Y-326225029D01*
X168025582Y-326241255D01*
X168049237Y-326256502D01*
X168073381Y-326270770D01*
X168098015Y-326284060D01*
X168123138Y-326296370D01*
X168148751Y-326307702D01*
X168174853Y-326318054D01*
X168201444Y-326327428D01*
X168210460Y-326330193D01*
X168238355Y-326337961D01*
X168257658Y-326342701D01*
X168277526Y-326347090D01*
X168297958Y-326351127D01*
X168318955Y-326354814D01*
X168340517Y-326358149D01*
X168362644Y-326361133D01*
X168385336Y-326363767D01*
X168408592Y-326366049D01*
X168432414Y-326367980D01*
X168456800Y-326369560D01*
X168481751Y-326370789D01*
X168507267Y-326371666D01*
X168533347Y-326372193D01*
X168559993Y-326372369D01*
X168704584Y-326372369D01*
X168704584Y-324871741D01*
X168559993Y-324871741D01*
X168534573Y-324871928D01*
X168509543Y-324872489D01*
X168484904Y-324873424D01*
X168460654Y-324874733D01*
X168436795Y-324876416D01*
X168413327Y-324878473D01*
X168390248Y-324880904D01*
X168367560Y-324883709D01*
X168345262Y-324886887D01*
X168323354Y-324890440D01*
X168301836Y-324894367D01*
X168280708Y-324898668D01*
X168259971Y-324903343D01*
X168239624Y-324908392D01*
X168219667Y-324913815D01*
X168200101Y-324919612D01*
X168180924Y-324925783D01*
X168162138Y-324932328D01*
X168125736Y-324946540D01*
X168090896Y-324962248D01*
X168057616Y-324979452D01*
X168025896Y-324998152D01*
X167995738Y-325018347D01*
X167967141Y-325040039D01*
X167940104Y-325063227D01*
X167925709Y-325076728D01*
X167911770Y-325090485D01*
X167885264Y-325118769D01*
X167860586Y-325148080D01*
X167837736Y-325178418D01*
X167816714Y-325209782D01*
X167797520Y-325242173D01*
X167780154Y-325275590D01*
X167764616Y-325310034D01*
X167750906Y-325345505D01*
X167739024Y-325382002D01*
X167728970Y-325419526D01*
X167724628Y-325438673D01*
X167720744Y-325458076D01*
X167717316Y-325477736D01*
X167714346Y-325497653D01*
X167711832Y-325517826D01*
X167709776Y-325538256D01*
X167708176Y-325558943D01*
X167707034Y-325579886D01*
X167706348Y-325601086D01*
X167706120Y-325622543D01*
X167391540Y-325622543D01*
X167391535Y-325622055D01*
X167391853Y-325591678D01*
X167392807Y-325561671D01*
X167394398Y-325532033D01*
X167396626Y-325502765D01*
X167399489Y-325473866D01*
X167402989Y-325445335D01*
X167407126Y-325417174D01*
X167411898Y-325389383D01*
X167417308Y-325361960D01*
X167423353Y-325334907D01*
X167430035Y-325308223D01*
X167437353Y-325281908D01*
X167445308Y-325255963D01*
X167453899Y-325230386D01*
X167463126Y-325205179D01*
X167472990Y-325180341D01*
X167483490Y-325155873D01*
X167494626Y-325131773D01*
X167506399Y-325108043D01*
X167518808Y-325084682D01*
X167531854Y-325061690D01*
X167545536Y-325039068D01*
X167559854Y-325016815D01*
X167574808Y-324994931D01*
X167590399Y-324973416D01*
X167606627Y-324952270D01*
X167623491Y-324931494D01*
X167640991Y-324911087D01*
X167659127Y-324891049D01*
X167677900Y-324871380D01*
X167697309Y-324852080D01*
X167717355Y-324833150D01*
X167737646Y-324814924D01*
X167758220Y-324797369D01*
X167779076Y-324780485D01*
X167800214Y-324764274D01*
X167821635Y-324748734D01*
X167843338Y-324733866D01*
X167865324Y-324719669D01*
X167887592Y-324706144D01*
X167910142Y-324693291D01*
X167932975Y-324681109D01*
X167956091Y-324669599D01*
X167979488Y-324658761D01*
X168003168Y-324648594D01*
X168027131Y-324639099D01*
X168051376Y-324630276D01*
X168075903Y-324622124D01*
X168087543Y-324618248D01*
X168111605Y-324610863D01*
X168136709Y-324603971D01*
X168162854Y-324597571D01*
X168190041Y-324591663D01*
X168218271Y-324586248D01*
X168247542Y-324581325D01*
X168277854Y-324576894D01*
X168309209Y-324572956D01*
X168341606Y-324569510D01*
X168375044Y-324566556D01*
X168409524Y-324564094D01*
X168445046Y-324562125D01*
X168481610Y-324560648D01*
X168519216Y-324559664D01*
X168557864Y-324559171D01*
X168577578Y-324559110D01*
X169019169Y-324559110D01*
X169019169Y-326685000D01*
G37*
G36*
X172518687Y-80322528D02*
G01*
X171643321Y-80322528D01*
X171643321Y-80393359D01*
X171643540Y-80423307D01*
X171644198Y-80452824D01*
X171645295Y-80481910D01*
X171646831Y-80510565D01*
X171648806Y-80538788D01*
X171651220Y-80566580D01*
X171654073Y-80593941D01*
X171657364Y-80620871D01*
X171661095Y-80647370D01*
X171665264Y-80673437D01*
X171669872Y-80699073D01*
X171674919Y-80724277D01*
X171680405Y-80749051D01*
X171686330Y-80773393D01*
X171692694Y-80797304D01*
X171699496Y-80820784D01*
X171706629Y-80842193D01*
X171714349Y-80863435D01*
X171722657Y-80884508D01*
X171731553Y-80905414D01*
X171741037Y-80926152D01*
X171751108Y-80946722D01*
X171761767Y-80967123D01*
X171773013Y-80987357D01*
X171784848Y-81007424D01*
X171797270Y-81027322D01*
X171810280Y-81047052D01*
X171823877Y-81066614D01*
X171838062Y-81086009D01*
X171852835Y-81105235D01*
X171868196Y-81124294D01*
X171884144Y-81143184D01*
X171902679Y-81163861D01*
X171921526Y-81183881D01*
X171940686Y-81203245D01*
X171960157Y-81221953D01*
X171979940Y-81240004D01*
X172000035Y-81257398D01*
X172020442Y-81274137D01*
X172041162Y-81290219D01*
X172062193Y-81305644D01*
X172083536Y-81320413D01*
X172105191Y-81334526D01*
X172127158Y-81347982D01*
X172149437Y-81360782D01*
X172172028Y-81372925D01*
X172194931Y-81384412D01*
X172218146Y-81395243D01*
X172241673Y-81405417D01*
X172265512Y-81414935D01*
X172289663Y-81423797D01*
X172314126Y-81432002D01*
X172338901Y-81439550D01*
X172363988Y-81446442D01*
X172389387Y-81452678D01*
X172415097Y-81458258D01*
X172441120Y-81463181D01*
X172467455Y-81467447D01*
X172494102Y-81471058D01*
X172521061Y-81474011D01*
X172548331Y-81476309D01*
X172575914Y-81477950D01*
X172603809Y-81478934D01*
X172632016Y-81479263D01*
X172659582Y-81478946D01*
X172686900Y-81477996D01*
X172713968Y-81476412D01*
X172740788Y-81474195D01*
X172767358Y-81471344D01*
X172793680Y-81467859D01*
X172819752Y-81463742D01*
X172845575Y-81458990D01*
X172871150Y-81453606D01*
X172896475Y-81447587D01*
X172921552Y-81440936D01*
X172946379Y-81433650D01*
X172970957Y-81425731D01*
X172995287Y-81417179D01*
X173019367Y-81407993D01*
X173043198Y-81398174D01*
X173066781Y-81387721D01*
X173090114Y-81376635D01*
X173113198Y-81364915D01*
X173136034Y-81352562D01*
X173158620Y-81339575D01*
X173180957Y-81325954D01*
X173203045Y-81311701D01*
X173224885Y-81296813D01*
X173246475Y-81281292D01*
X173267816Y-81265138D01*
X173288908Y-81248350D01*
X173309751Y-81230929D01*
X173330345Y-81212874D01*
X173350691Y-81194185D01*
X173370787Y-81174863D01*
X173390634Y-81154908D01*
X173410078Y-81134448D01*
X173428906Y-81113734D01*
X173447115Y-81092766D01*
X173464708Y-81071545D01*
X173481683Y-81050070D01*
X173498042Y-81028341D01*
X173513782Y-81006358D01*
X173528906Y-80984121D01*
X173543412Y-80961631D01*
X173557301Y-80938887D01*
X173570573Y-80915889D01*
X173583227Y-80892637D01*
X173595264Y-80869132D01*
X173606684Y-80845372D01*
X173617486Y-80821359D01*
X173627672Y-80797092D01*
X173637239Y-80772572D01*
X173646190Y-80747797D01*
X173654523Y-80722769D01*
X173662240Y-80697487D01*
X173669338Y-80671951D01*
X173675820Y-80646162D01*
X173681684Y-80620118D01*
X173686931Y-80593821D01*
X173691561Y-80567270D01*
X173695573Y-80540466D01*
X173698968Y-80513407D01*
X173701746Y-80486095D01*
X173703906Y-80458529D01*
X173705450Y-80430709D01*
X173706375Y-80402635D01*
X173706684Y-80374308D01*
X173706370Y-80345351D01*
X173705429Y-80316670D01*
X173703859Y-80288267D01*
X173701662Y-80260140D01*
X173698837Y-80232289D01*
X173695384Y-80204716D01*
X173691303Y-80177419D01*
X173686595Y-80150398D01*
X173681259Y-80123655D01*
X173675295Y-80097188D01*
X173668703Y-80070997D01*
X173661484Y-80045084D01*
X173653637Y-80019447D01*
X173645162Y-79994087D01*
X173636059Y-79969003D01*
X173626328Y-79944196D01*
X173615970Y-79919666D01*
X173604984Y-79895413D01*
X173593370Y-79871436D01*
X173581128Y-79847736D01*
X173568258Y-79824312D01*
X173554761Y-79801165D01*
X173540636Y-79778295D01*
X173525883Y-79755702D01*
X173510503Y-79733385D01*
X173494494Y-79711345D01*
X173477858Y-79689582D01*
X173460594Y-79668095D01*
X173442702Y-79646885D01*
X173424183Y-79625952D01*
X173405036Y-79605295D01*
X173385260Y-79584915D01*
X173365036Y-79564900D01*
X173344541Y-79545519D01*
X173323774Y-79526775D01*
X173302737Y-79508665D01*
X173281429Y-79491192D01*
X173259849Y-79474353D01*
X173237999Y-79458150D01*
X173215878Y-79442583D01*
X173193486Y-79427650D01*
X173170823Y-79413354D01*
X173147889Y-79399692D01*
X173124684Y-79386666D01*
X173101208Y-79374276D01*
X173077461Y-79362521D01*
X173053443Y-79351401D01*
X173029154Y-79340916D01*
X173004595Y-79331068D01*
X172979764Y-79321854D01*
X172954662Y-79313276D01*
X172929290Y-79305333D01*
X172903646Y-79298026D01*
X172877731Y-79291354D01*
X172851546Y-79285318D01*
X172825090Y-79279917D01*
X172798362Y-79275151D01*
X172771364Y-79271021D01*
X172744094Y-79267526D01*
X172716554Y-79264667D01*
X172688743Y-79262443D01*
X172660661Y-79260854D01*
X172632307Y-79259901D01*
X172603683Y-79259584D01*
X172572855Y-79259990D01*
X172542287Y-79261209D01*
X172511978Y-79263242D01*
X172481928Y-79266087D01*
X172452138Y-79269744D01*
X172422608Y-79274215D01*
X172393337Y-79279499D01*
X172364325Y-79285595D01*
X172335573Y-79292505D01*
X172307081Y-79300227D01*
X172278848Y-79308762D01*
X172250875Y-79318110D01*
X172223161Y-79328271D01*
X172195706Y-79339245D01*
X172168511Y-79351032D01*
X172141576Y-79363631D01*
X172115957Y-79377083D01*
X172090392Y-79391551D01*
X172064880Y-79407034D01*
X172039421Y-79423532D01*
X172014016Y-79441045D01*
X171988665Y-79459573D01*
X171963366Y-79479116D01*
X171938122Y-79499674D01*
X171912930Y-79521248D01*
X171887792Y-79543836D01*
X171862708Y-79567440D01*
X171837677Y-79592059D01*
X171812699Y-79617693D01*
X171787775Y-79644342D01*
X171762904Y-79672007D01*
X171738087Y-79700686D01*
X171965721Y-79917574D01*
X171982135Y-79896326D01*
X171998770Y-79875753D01*
X172015627Y-79855854D01*
X172032705Y-79836630D01*
X172050004Y-79818081D01*
X172067525Y-79800206D01*
X172085266Y-79783005D01*
X172103230Y-79766479D01*
X172121414Y-79750628D01*
X172139820Y-79735451D01*
X172158448Y-79720948D01*
X172177296Y-79707120D01*
X172196366Y-79693967D01*
X172215658Y-79681488D01*
X172235171Y-79669684D01*
X172254905Y-79658554D01*
X172274860Y-79648099D01*
X172295037Y-79638318D01*
X172315435Y-79629212D01*
X172336054Y-79620781D01*
X172356895Y-79613024D01*
X172377957Y-79605941D01*
X172399241Y-79599533D01*
X172420745Y-79593799D01*
X172442472Y-79588740D01*
X172464419Y-79584356D01*
X172486588Y-79580646D01*
X172508978Y-79577611D01*
X172531590Y-79575250D01*
X172554423Y-79573563D01*
X172577477Y-79572552D01*
X172600752Y-79572214D01*
X172621651Y-79572441D01*
X172642339Y-79573119D01*
X172662814Y-79574249D01*
X172683078Y-79575832D01*
X172703129Y-79577867D01*
X172722969Y-79580355D01*
X172742597Y-79583294D01*
X172762014Y-79586686D01*
X172781218Y-79590530D01*
X172818992Y-79599574D01*
X172855919Y-79610428D01*
X172891998Y-79623090D01*
X172927230Y-79637562D01*
X172961615Y-79653842D01*
X172995152Y-79671931D01*
X173027843Y-79691830D01*
X173059686Y-79713537D01*
X173090682Y-79737053D01*
X173105862Y-79749489D01*
X173120830Y-79762378D01*
X173135587Y-79775718D01*
X173150132Y-79789511D01*
X173164465Y-79803757D01*
X173178470Y-79818065D01*
X173192030Y-79832598D01*
X173205146Y-79847355D01*
X173217817Y-79862337D01*
X173241825Y-79892972D01*
X173264055Y-79924504D01*
X173284507Y-79956933D01*
X173303180Y-79990259D01*
X173320074Y-80024482D01*
X173335191Y-80059601D01*
X173348529Y-80095617D01*
X173360088Y-80132530D01*
X173369869Y-80170340D01*
X173374093Y-80189582D01*
X173377872Y-80209047D01*
X173381207Y-80228737D01*
X173384097Y-80248651D01*
X173386542Y-80268789D01*
X173388543Y-80289151D01*
X173390099Y-80309738D01*
X173391210Y-80330548D01*
X173391877Y-80351583D01*
X173392099Y-80372842D01*
X173391852Y-80394824D01*
X173391109Y-80416560D01*
X173389871Y-80438051D01*
X173388138Y-80459297D01*
X173385910Y-80480297D01*
X173383186Y-80501053D01*
X173379968Y-80521563D01*
X173376254Y-80541828D01*
X173372045Y-80561848D01*
X173367341Y-80581622D01*
X173362142Y-80601152D01*
X173356447Y-80620436D01*
X173350258Y-80639475D01*
X173343573Y-80658269D01*
X173336393Y-80676817D01*
X173328718Y-80695121D01*
X173320548Y-80713179D01*
X173311883Y-80730992D01*
X173302722Y-80748560D01*
X173293066Y-80765883D01*
X173282916Y-80782960D01*
X173272270Y-80799792D01*
X173261128Y-80816379D01*
X173249492Y-80832721D01*
X173237360Y-80848818D01*
X173224734Y-80864669D01*
X173211612Y-80880276D01*
X173197995Y-80895637D01*
X173183883Y-80910753D01*
X173169275Y-80925623D01*
X173154173Y-80940249D01*
X173138575Y-80954629D01*
X173123699Y-80967672D01*
X173108745Y-80980301D01*
X173078606Y-81004317D01*
X173048158Y-81026677D01*
X173017400Y-81047380D01*
X172986334Y-81066427D01*
X172954958Y-81083818D01*
X172923273Y-81099553D01*
X172891279Y-81113631D01*
X172858976Y-81126053D01*
X172826364Y-81136819D01*
X172793443Y-81145928D01*
X172760213Y-81153382D01*
X172726673Y-81159179D01*
X172692824Y-81163319D01*
X172658667Y-81165804D01*
X172624200Y-81166632D01*
X172594896Y-81166023D01*
X172565971Y-81164197D01*
X172537423Y-81161153D01*
X172509253Y-81156893D01*
X172481461Y-81151414D01*
X172454046Y-81144719D01*
X172427010Y-81136805D01*
X172400351Y-81127675D01*
X172374070Y-81117327D01*
X172348167Y-81105762D01*
X172322642Y-81092979D01*
X172297494Y-81078979D01*
X172272725Y-81063762D01*
X172248333Y-81047327D01*
X172224319Y-81029674D01*
X172200683Y-81010805D01*
X172177823Y-80990962D01*
X172156261Y-80970634D01*
X172135996Y-80949822D01*
X172117030Y-80928525D01*
X172099360Y-80906744D01*
X172082988Y-80884478D01*
X172067914Y-80861727D01*
X172054137Y-80838491D01*
X172041658Y-80814771D01*
X172030476Y-80790566D01*
X172020592Y-80765877D01*
X172012005Y-80740703D01*
X172004716Y-80715044D01*
X171998724Y-80688900D01*
X171994030Y-80662272D01*
X171990634Y-80635159D01*
X172518687Y-80635159D01*
X172518687Y-80322528D01*
G37*
G36*
X171254486Y-81448000D02*
G01*
X171254486Y-79178006D01*
X169722595Y-80799290D01*
X169722595Y-79322110D01*
X169408010Y-79322110D01*
X169408010Y-81576960D01*
X170939901Y-79959584D01*
X170939901Y-81448000D01*
X171254486Y-81448000D01*
G37*
G36*
X168892169Y-81448000D02*
G01*
X168456440Y-81448000D01*
X168436555Y-81447942D01*
X168416955Y-81447769D01*
X168378610Y-81447076D01*
X168341407Y-81445922D01*
X168305345Y-81444305D01*
X168270424Y-81442227D01*
X168236644Y-81439688D01*
X168204005Y-81436686D01*
X168172508Y-81433223D01*
X168142151Y-81429298D01*
X168112935Y-81424911D01*
X168084861Y-81420062D01*
X168057927Y-81414752D01*
X168032135Y-81408980D01*
X168007483Y-81402746D01*
X167983973Y-81396050D01*
X167961604Y-81388893D01*
X167938282Y-81381087D01*
X167915091Y-81372567D01*
X167892029Y-81363333D01*
X167869097Y-81353386D01*
X167846294Y-81342725D01*
X167823622Y-81331351D01*
X167801079Y-81319263D01*
X167778666Y-81306461D01*
X167756383Y-81292945D01*
X167734229Y-81278716D01*
X167712205Y-81263774D01*
X167690311Y-81248117D01*
X167668547Y-81231747D01*
X167646912Y-81214664D01*
X167625407Y-81196866D01*
X167604032Y-81178355D01*
X167583145Y-81159243D01*
X167562921Y-81139765D01*
X167543360Y-81119920D01*
X167524463Y-81099709D01*
X167506228Y-81079132D01*
X167488656Y-81058188D01*
X167471748Y-81036878D01*
X167455502Y-81015201D01*
X167439920Y-80993158D01*
X167425000Y-80970749D01*
X167410744Y-80947973D01*
X167397151Y-80924831D01*
X167384221Y-80901323D01*
X167371954Y-80877448D01*
X167360350Y-80853207D01*
X167349409Y-80828600D01*
X167339131Y-80803626D01*
X167329517Y-80778286D01*
X167320565Y-80752579D01*
X167312277Y-80726506D01*
X167304651Y-80700067D01*
X167297689Y-80673261D01*
X167291390Y-80646089D01*
X167285753Y-80618551D01*
X167280780Y-80590646D01*
X167276470Y-80562375D01*
X167272823Y-80533737D01*
X167269839Y-80504734D01*
X167267519Y-80475363D01*
X167265861Y-80445627D01*
X167264866Y-80415524D01*
X167264540Y-80385543D01*
X167579120Y-80385543D01*
X167579351Y-80406758D01*
X167580045Y-80427723D01*
X167581202Y-80448436D01*
X167582821Y-80468899D01*
X167584904Y-80489110D01*
X167587449Y-80509071D01*
X167590456Y-80528781D01*
X167593927Y-80548239D01*
X167602256Y-80586404D01*
X167612436Y-80623565D01*
X167624467Y-80659723D01*
X167638348Y-80694877D01*
X167654081Y-80729027D01*
X167671665Y-80762173D01*
X167691099Y-80794316D01*
X167712385Y-80825455D01*
X167735521Y-80855590D01*
X167760508Y-80884722D01*
X167787346Y-80912850D01*
X167801459Y-80926538D01*
X167816035Y-80939974D01*
X167830554Y-80952641D01*
X167852741Y-80970824D01*
X167875417Y-80988029D01*
X167898582Y-81004255D01*
X167922237Y-81019502D01*
X167946381Y-81033770D01*
X167971015Y-81047060D01*
X167996138Y-81059370D01*
X168021751Y-81070702D01*
X168047853Y-81081054D01*
X168074444Y-81090428D01*
X168083460Y-81093193D01*
X168111355Y-81100961D01*
X168130658Y-81105701D01*
X168150526Y-81110090D01*
X168170958Y-81114127D01*
X168191955Y-81117814D01*
X168213517Y-81121149D01*
X168235644Y-81124133D01*
X168258336Y-81126767D01*
X168281592Y-81129049D01*
X168305414Y-81130980D01*
X168329800Y-81132560D01*
X168354751Y-81133789D01*
X168380267Y-81134666D01*
X168406347Y-81135193D01*
X168432993Y-81135369D01*
X168577584Y-81135369D01*
X168577584Y-79634741D01*
X168432993Y-79634741D01*
X168407573Y-79634928D01*
X168382543Y-79635489D01*
X168357904Y-79636424D01*
X168333654Y-79637733D01*
X168309795Y-79639416D01*
X168286327Y-79641473D01*
X168263248Y-79643904D01*
X168240560Y-79646709D01*
X168218262Y-79649887D01*
X168196354Y-79653440D01*
X168174836Y-79657367D01*
X168153708Y-79661668D01*
X168132971Y-79666343D01*
X168112624Y-79671392D01*
X168092667Y-79676815D01*
X168073101Y-79682612D01*
X168053924Y-79688783D01*
X168035138Y-79695328D01*
X167998736Y-79709540D01*
X167963896Y-79725248D01*
X167930616Y-79742452D01*
X167898896Y-79761152D01*
X167868738Y-79781347D01*
X167840141Y-79803039D01*
X167813104Y-79826227D01*
X167798709Y-79839728D01*
X167784770Y-79853485D01*
X167758264Y-79881769D01*
X167733586Y-79911080D01*
X167710736Y-79941418D01*
X167689714Y-79972782D01*
X167670520Y-80005173D01*
X167653154Y-80038590D01*
X167637616Y-80073034D01*
X167623906Y-80108505D01*
X167612024Y-80145002D01*
X167601970Y-80182526D01*
X167597628Y-80201673D01*
X167593744Y-80221076D01*
X167590316Y-80240736D01*
X167587346Y-80260653D01*
X167584832Y-80280826D01*
X167582776Y-80301256D01*
X167581176Y-80321943D01*
X167580034Y-80342886D01*
X167579348Y-80364086D01*
X167579120Y-80385543D01*
X167264540Y-80385543D01*
X167264535Y-80385055D01*
X167264853Y-80354678D01*
X167265807Y-80324671D01*
X167267398Y-80295033D01*
X167269626Y-80265765D01*
X167272489Y-80236866D01*
X167275989Y-80208335D01*
X167280126Y-80180174D01*
X167284898Y-80152383D01*
X167290308Y-80124960D01*
X167296353Y-80097907D01*
X167303035Y-80071223D01*
X167310353Y-80044908D01*
X167318308Y-80018963D01*
X167326899Y-79993386D01*
X167336126Y-79968179D01*
X167345990Y-79943341D01*
X167356490Y-79918873D01*
X167367626Y-79894773D01*
X167379399Y-79871043D01*
X167391808Y-79847682D01*
X167404854Y-79824690D01*
X167418536Y-79802068D01*
X167432854Y-79779815D01*
X167447808Y-79757931D01*
X167463399Y-79736416D01*
X167479627Y-79715270D01*
X167496491Y-79694494D01*
X167513991Y-79674087D01*
X167532127Y-79654049D01*
X167550900Y-79634380D01*
X167570309Y-79615080D01*
X167590355Y-79596150D01*
X167610646Y-79577924D01*
X167631220Y-79560369D01*
X167652076Y-79543485D01*
X167673214Y-79527274D01*
X167694635Y-79511734D01*
X167716338Y-79496866D01*
X167738324Y-79482669D01*
X167760592Y-79469144D01*
X167783142Y-79456291D01*
X167805975Y-79444109D01*
X167829091Y-79432599D01*
X167852488Y-79421761D01*
X167876168Y-79411594D01*
X167900131Y-79402099D01*
X167924376Y-79393276D01*
X167948903Y-79385124D01*
X167960543Y-79381248D01*
X167984605Y-79373863D01*
X168009709Y-79366971D01*
X168035854Y-79360571D01*
X168063041Y-79354663D01*
X168091271Y-79349248D01*
X168120542Y-79344325D01*
X168150854Y-79339894D01*
X168182209Y-79335956D01*
X168214606Y-79332510D01*
X168248044Y-79329556D01*
X168282524Y-79327094D01*
X168318046Y-79325125D01*
X168354610Y-79323648D01*
X168392216Y-79322664D01*
X168430864Y-79322171D01*
X168450578Y-79322110D01*
X168892169Y-79322110D01*
X168892169Y-81448000D01*
G37*
G36*
X160428317Y-80474936D02*
G01*
X160428317Y-80197476D01*
X160403856Y-80197295D01*
X160380423Y-80196751D01*
X160358015Y-80195845D01*
X160336634Y-80194576D01*
X160316280Y-80192944D01*
X160287674Y-80189817D01*
X160261377Y-80185875D01*
X160237390Y-80181116D01*
X160215713Y-80175542D01*
X160196346Y-80169152D01*
X160174116Y-80159363D01*
X160160138Y-80151070D01*
X160138227Y-80134898D01*
X160118470Y-80116975D01*
X160100869Y-80097300D01*
X160085423Y-80075874D01*
X160072132Y-80052695D01*
X160060997Y-80027766D01*
X160052017Y-80001084D01*
X160045192Y-79972651D01*
X160041839Y-79952722D01*
X160039444Y-79932015D01*
X160038007Y-79910529D01*
X160037528Y-79888265D01*
X160038314Y-79862616D01*
X160040671Y-79837878D01*
X160044600Y-79814050D01*
X160050099Y-79791132D01*
X160057170Y-79769125D01*
X160065813Y-79748027D01*
X160076027Y-79727840D01*
X160087812Y-79708563D01*
X160101169Y-79690196D01*
X160116096Y-79672739D01*
X160126921Y-79661607D01*
X160143959Y-79645632D01*
X160161915Y-79631228D01*
X160180790Y-79618395D01*
X160200583Y-79607134D01*
X160221296Y-79597443D01*
X160242927Y-79589325D01*
X160265477Y-79582777D01*
X160288946Y-79577801D01*
X160313333Y-79574397D01*
X160338640Y-79572564D01*
X160356021Y-79572214D01*
X160380052Y-79572803D01*
X160403053Y-79574567D01*
X160425024Y-79577508D01*
X160445964Y-79581625D01*
X160465873Y-79586919D01*
X160484752Y-79593389D01*
X160508322Y-79603846D01*
X160530059Y-79616394D01*
X160549965Y-79631033D01*
X160559231Y-79639137D01*
X160575901Y-79657448D01*
X160587682Y-79673094D01*
X160598844Y-79690380D01*
X160609389Y-79709307D01*
X160619315Y-79729873D01*
X160628623Y-79752080D01*
X160637313Y-79775926D01*
X160645384Y-79801413D01*
X160652837Y-79828540D01*
X160657463Y-79847535D01*
X160661813Y-79867260D01*
X160979329Y-79867260D01*
X160972757Y-79830816D01*
X160965377Y-79795613D01*
X160957187Y-79761650D01*
X160948188Y-79728927D01*
X160938380Y-79697444D01*
X160927763Y-79667202D01*
X160916337Y-79638200D01*
X160904102Y-79610438D01*
X160891058Y-79583917D01*
X160877205Y-79558636D01*
X160862543Y-79534595D01*
X160847071Y-79511795D01*
X160830791Y-79490235D01*
X160813702Y-79469915D01*
X160795803Y-79450835D01*
X160777096Y-79432996D01*
X160757507Y-79416256D01*
X160736964Y-79400596D01*
X160715466Y-79386016D01*
X160693015Y-79372515D01*
X160669610Y-79360095D01*
X160645250Y-79348755D01*
X160619937Y-79338495D01*
X160593669Y-79329315D01*
X160566448Y-79321215D01*
X160538272Y-79314195D01*
X160509142Y-79308255D01*
X160479058Y-79303395D01*
X160448021Y-79299615D01*
X160416029Y-79296915D01*
X160383082Y-79295295D01*
X160349182Y-79294755D01*
X160314962Y-79295403D01*
X160281542Y-79297350D01*
X160248924Y-79300593D01*
X160217108Y-79305135D01*
X160186093Y-79310974D01*
X160155879Y-79318110D01*
X160126467Y-79326544D01*
X160097856Y-79336276D01*
X160070047Y-79347305D01*
X160043039Y-79359632D01*
X160016833Y-79373256D01*
X159991428Y-79388177D01*
X159966824Y-79404397D01*
X159943022Y-79421913D01*
X159920021Y-79440728D01*
X159897822Y-79460840D01*
X159876645Y-79481671D01*
X159856835Y-79503254D01*
X159838390Y-79525589D01*
X159821312Y-79548676D01*
X159805601Y-79572514D01*
X159791255Y-79597104D01*
X159778276Y-79622446D01*
X159766663Y-79648540D01*
X159756416Y-79675386D01*
X159747536Y-79702984D01*
X159740022Y-79731333D01*
X159733874Y-79760434D01*
X159729092Y-79790287D01*
X159725676Y-79820892D01*
X159723627Y-79852248D01*
X159722944Y-79884357D01*
X159723858Y-79920367D01*
X159726600Y-79955370D01*
X159731170Y-79989366D01*
X159737568Y-80022354D01*
X159745794Y-80054335D01*
X159755848Y-80085308D01*
X159767730Y-80115273D01*
X159781440Y-80144231D01*
X159796978Y-80172182D01*
X159814344Y-80199125D01*
X159833538Y-80225060D01*
X159854560Y-80249988D01*
X159877410Y-80273909D01*
X159902088Y-80296822D01*
X159928594Y-80318727D01*
X159956928Y-80339625D01*
X159925045Y-80359548D01*
X159895219Y-80380971D01*
X159867450Y-80403894D01*
X159841737Y-80428316D01*
X159818082Y-80454238D01*
X159796484Y-80481660D01*
X159776942Y-80510582D01*
X159759458Y-80541004D01*
X159744031Y-80572925D01*
X159730660Y-80606346D01*
X159719347Y-80641267D01*
X159710090Y-80677688D01*
X159702891Y-80715609D01*
X159700063Y-80735131D01*
X159697748Y-80755029D01*
X159695949Y-80775302D01*
X159694663Y-80795949D01*
X159693892Y-80816972D01*
X159693635Y-80838369D01*
X159694381Y-80873260D01*
X159696619Y-80907345D01*
X159700349Y-80940625D01*
X159705572Y-80973100D01*
X159712287Y-81004769D01*
X159720494Y-81035634D01*
X159730193Y-81065693D01*
X159741384Y-81094946D01*
X159754067Y-81123395D01*
X159768243Y-81151038D01*
X159783911Y-81177876D01*
X159801071Y-81203909D01*
X159819723Y-81229137D01*
X159839867Y-81253559D01*
X159861504Y-81277176D01*
X159884632Y-81299988D01*
X159908866Y-81321697D01*
X159933939Y-81342006D01*
X159959852Y-81360914D01*
X159986604Y-81378421D01*
X160014196Y-81394527D01*
X160042627Y-81409234D01*
X160071898Y-81422539D01*
X160102009Y-81434444D01*
X160132959Y-81444948D01*
X160164748Y-81454052D01*
X160197378Y-81461755D01*
X160230847Y-81468058D01*
X160265155Y-81472960D01*
X160300303Y-81476461D01*
X160336291Y-81478562D01*
X160373118Y-81479263D01*
X160396679Y-81478994D01*
X160419858Y-81478188D01*
X160442654Y-81476845D01*
X160465068Y-81474965D01*
X160487099Y-81472548D01*
X160508747Y-81469594D01*
X160530013Y-81466103D01*
X160550896Y-81462074D01*
X160571397Y-81457508D01*
X160591515Y-81452405D01*
X160611251Y-81446765D01*
X160630604Y-81440588D01*
X160649574Y-81433874D01*
X160668162Y-81426623D01*
X160686367Y-81418834D01*
X160704189Y-81410508D01*
X160721629Y-81401645D01*
X160755362Y-81382308D01*
X160787563Y-81360822D01*
X160818235Y-81337188D01*
X160847376Y-81311405D01*
X160861373Y-81297708D01*
X160874987Y-81283474D01*
X160888219Y-81268702D01*
X160901068Y-81253394D01*
X160913534Y-81237548D01*
X160925618Y-81221165D01*
X160937319Y-81204245D01*
X160951118Y-81181848D01*
X160963938Y-81157889D01*
X160975779Y-81132366D01*
X160986641Y-81105281D01*
X160993338Y-81086356D01*
X160999601Y-81066736D01*
X161005429Y-81046422D01*
X161010821Y-81025414D01*
X161015778Y-81003710D01*
X161020301Y-80981312D01*
X161024388Y-80958220D01*
X161028040Y-80934433D01*
X161031257Y-80909952D01*
X161034039Y-80884775D01*
X160726293Y-80884775D01*
X160721017Y-80912991D01*
X160714530Y-80939936D01*
X160706832Y-80965610D01*
X160697923Y-80990014D01*
X160687804Y-81013146D01*
X160676473Y-81035008D01*
X160663933Y-81055599D01*
X160650181Y-81074919D01*
X160635219Y-81092968D01*
X160619046Y-81109746D01*
X160607591Y-81120226D01*
X160589412Y-81134804D01*
X160570228Y-81147949D01*
X160550039Y-81159660D01*
X160528846Y-81169937D01*
X160506648Y-81178779D01*
X160483445Y-81186188D01*
X160459238Y-81192163D01*
X160434026Y-81196704D01*
X160407810Y-81199811D01*
X160380589Y-81201484D01*
X160361883Y-81201803D01*
X160333674Y-81200897D01*
X160306384Y-81198179D01*
X160280013Y-81193650D01*
X160254561Y-81187308D01*
X160230028Y-81179155D01*
X160206413Y-81169191D01*
X160183717Y-81157414D01*
X160161940Y-81143826D01*
X160141081Y-81128425D01*
X160121142Y-81111213D01*
X160108359Y-81098732D01*
X160090463Y-81078459D01*
X160074327Y-81057207D01*
X160059952Y-81034976D01*
X160047336Y-81011767D01*
X160036481Y-80987578D01*
X160027387Y-80962410D01*
X160020052Y-80936264D01*
X160014478Y-80909139D01*
X160010664Y-80881035D01*
X160008610Y-80851952D01*
X160008219Y-80832019D01*
X160008803Y-80805698D01*
X160010555Y-80780346D01*
X160013474Y-80755964D01*
X160017562Y-80732551D01*
X160022817Y-80710108D01*
X160029239Y-80688633D01*
X160036830Y-80668128D01*
X160045588Y-80648593D01*
X160055515Y-80630026D01*
X160066609Y-80612429D01*
X160078870Y-80595802D01*
X160092300Y-80580144D01*
X160106897Y-80565455D01*
X160122662Y-80551735D01*
X160139595Y-80538985D01*
X160157696Y-80527204D01*
X160174932Y-80517863D01*
X160193852Y-80509441D01*
X160214454Y-80501938D01*
X160236739Y-80495353D01*
X160260707Y-80489687D01*
X160286358Y-80484940D01*
X160313693Y-80481112D01*
X160342710Y-80478203D01*
X160362990Y-80476774D01*
X160384017Y-80475753D01*
X160405793Y-80475140D01*
X160428317Y-80474936D01*
G37*
G36*
X159076189Y-79322110D02*
G01*
X158492448Y-80792452D01*
X157900404Y-79322110D01*
X157551625Y-79322110D01*
X158499287Y-81602849D01*
X159424967Y-79322110D01*
X159076189Y-79322110D01*
G37*
G36*
X156807661Y-80474936D02*
G01*
X156807661Y-80197476D01*
X156783201Y-80197295D01*
X156759767Y-80196751D01*
X156737359Y-80195845D01*
X156715978Y-80194576D01*
X156695624Y-80192944D01*
X156667018Y-80189817D01*
X156640721Y-80185875D01*
X156616734Y-80181116D01*
X156595057Y-80175542D01*
X156575690Y-80169152D01*
X156553460Y-80159363D01*
X156539482Y-80151070D01*
X156517571Y-80134898D01*
X156497814Y-80116975D01*
X156480213Y-80097300D01*
X156464767Y-80075874D01*
X156451476Y-80052695D01*
X156440341Y-80027766D01*
X156431361Y-80001084D01*
X156424536Y-79972651D01*
X156421183Y-79952722D01*
X156418788Y-79932015D01*
X156417351Y-79910529D01*
X156416872Y-79888265D01*
X156417658Y-79862616D01*
X156420015Y-79837878D01*
X156423944Y-79814050D01*
X156429443Y-79791132D01*
X156436514Y-79769125D01*
X156445157Y-79748027D01*
X156455371Y-79727840D01*
X156467156Y-79708563D01*
X156480513Y-79690196D01*
X156495440Y-79672739D01*
X156506265Y-79661607D01*
X156523303Y-79645632D01*
X156541259Y-79631228D01*
X156560134Y-79618395D01*
X156579927Y-79607134D01*
X156600640Y-79597443D01*
X156622271Y-79589325D01*
X156644821Y-79582777D01*
X156668290Y-79577801D01*
X156692678Y-79574397D01*
X156717984Y-79572564D01*
X156735365Y-79572214D01*
X156759396Y-79572803D01*
X156782397Y-79574567D01*
X156804368Y-79577508D01*
X156825308Y-79581625D01*
X156845217Y-79586919D01*
X156864096Y-79593389D01*
X156887666Y-79603846D01*
X156909403Y-79616394D01*
X156929309Y-79631033D01*
X156938575Y-79639137D01*
X156955245Y-79657448D01*
X156967026Y-79673094D01*
X156978188Y-79690380D01*
X156988733Y-79709307D01*
X156998659Y-79729873D01*
X157007967Y-79752080D01*
X157016657Y-79775926D01*
X157024728Y-79801413D01*
X157032181Y-79828540D01*
X157036807Y-79847535D01*
X157041157Y-79867260D01*
X157358673Y-79867260D01*
X157352101Y-79830816D01*
X157344721Y-79795613D01*
X157336531Y-79761650D01*
X157327532Y-79728927D01*
X157317724Y-79697444D01*
X157307107Y-79667202D01*
X157295681Y-79638200D01*
X157283446Y-79610438D01*
X157270402Y-79583917D01*
X157256549Y-79558636D01*
X157241887Y-79534595D01*
X157226415Y-79511795D01*
X157210135Y-79490235D01*
X157193046Y-79469915D01*
X157175147Y-79450835D01*
X157156440Y-79432996D01*
X157136851Y-79416256D01*
X157116308Y-79400596D01*
X157094810Y-79386016D01*
X157072359Y-79372515D01*
X157048954Y-79360095D01*
X157024594Y-79348755D01*
X156999281Y-79338495D01*
X156973013Y-79329315D01*
X156945792Y-79321215D01*
X156917616Y-79314195D01*
X156888486Y-79308255D01*
X156858403Y-79303395D01*
X156827365Y-79299615D01*
X156795373Y-79296915D01*
X156762427Y-79295295D01*
X156728526Y-79294755D01*
X156694306Y-79295403D01*
X156660886Y-79297350D01*
X156628268Y-79300593D01*
X156596452Y-79305135D01*
X156565437Y-79310974D01*
X156535223Y-79318110D01*
X156505811Y-79326544D01*
X156477200Y-79336276D01*
X156449391Y-79347305D01*
X156422383Y-79359632D01*
X156396177Y-79373256D01*
X156370772Y-79388177D01*
X156346168Y-79404397D01*
X156322366Y-79421913D01*
X156299365Y-79440728D01*
X156277166Y-79460840D01*
X156255989Y-79481671D01*
X156236179Y-79503254D01*
X156217734Y-79525589D01*
X156200657Y-79548676D01*
X156184945Y-79572514D01*
X156170599Y-79597104D01*
X156157620Y-79622446D01*
X156146007Y-79648540D01*
X156135760Y-79675386D01*
X156126880Y-79702984D01*
X156119366Y-79731333D01*
X156113218Y-79760434D01*
X156108436Y-79790287D01*
X156105020Y-79820892D01*
X156102971Y-79852248D01*
X156102288Y-79884357D01*
X156103202Y-79920367D01*
X156105944Y-79955370D01*
X156110514Y-79989366D01*
X156116912Y-80022354D01*
X156125138Y-80054335D01*
X156135192Y-80085308D01*
X156147074Y-80115273D01*
X156160784Y-80144231D01*
X156176322Y-80172182D01*
X156193688Y-80199125D01*
X156212882Y-80225060D01*
X156233904Y-80249988D01*
X156256754Y-80273909D01*
X156281432Y-80296822D01*
X156307938Y-80318727D01*
X156336272Y-80339625D01*
X156304389Y-80359548D01*
X156274563Y-80380971D01*
X156246794Y-80403894D01*
X156221081Y-80428316D01*
X156197426Y-80454238D01*
X156175828Y-80481660D01*
X156156286Y-80510582D01*
X156138802Y-80541004D01*
X156123375Y-80572925D01*
X156110004Y-80606346D01*
X156098691Y-80641267D01*
X156089434Y-80677688D01*
X156082235Y-80715609D01*
X156079407Y-80735131D01*
X156077093Y-80755029D01*
X156075293Y-80775302D01*
X156074007Y-80795949D01*
X156073236Y-80816972D01*
X156072979Y-80838369D01*
X156073725Y-80873260D01*
X156075963Y-80907345D01*
X156079693Y-80940625D01*
X156084916Y-80973100D01*
X156091631Y-81004769D01*
X156099838Y-81035634D01*
X156109537Y-81065693D01*
X156120728Y-81094946D01*
X156133411Y-81123395D01*
X156147587Y-81151038D01*
X156163255Y-81177876D01*
X156180415Y-81203909D01*
X156199067Y-81229137D01*
X156219211Y-81253559D01*
X156240848Y-81277176D01*
X156263976Y-81299988D01*
X156288210Y-81321697D01*
X156313283Y-81342006D01*
X156339196Y-81360914D01*
X156365948Y-81378421D01*
X156393540Y-81394527D01*
X156421971Y-81409234D01*
X156451242Y-81422539D01*
X156481353Y-81434444D01*
X156512303Y-81444948D01*
X156544092Y-81454052D01*
X156576722Y-81461755D01*
X156610191Y-81468058D01*
X156644499Y-81472960D01*
X156679647Y-81476461D01*
X156715635Y-81478562D01*
X156752462Y-81479263D01*
X156776023Y-81478994D01*
X156799202Y-81478188D01*
X156821998Y-81476845D01*
X156844412Y-81474965D01*
X156866443Y-81472548D01*
X156888091Y-81469594D01*
X156909357Y-81466103D01*
X156930240Y-81462074D01*
X156950741Y-81457508D01*
X156970859Y-81452405D01*
X156990595Y-81446765D01*
X157009948Y-81440588D01*
X157028918Y-81433874D01*
X157047506Y-81426623D01*
X157065711Y-81418834D01*
X157083533Y-81410508D01*
X157100973Y-81401645D01*
X157134706Y-81382308D01*
X157166907Y-81360822D01*
X157197579Y-81337188D01*
X157226720Y-81311405D01*
X157240717Y-81297708D01*
X157254331Y-81283474D01*
X157267563Y-81268702D01*
X157280412Y-81253394D01*
X157292878Y-81237548D01*
X157304962Y-81221165D01*
X157316663Y-81204245D01*
X157330462Y-81181848D01*
X157343282Y-81157889D01*
X157355123Y-81132366D01*
X157365985Y-81105281D01*
X157372683Y-81086356D01*
X157378945Y-81066736D01*
X157384773Y-81046422D01*
X157390165Y-81025414D01*
X157395122Y-81003710D01*
X157399645Y-80981312D01*
X157403732Y-80958220D01*
X157407384Y-80934433D01*
X157410601Y-80909952D01*
X157413383Y-80884775D01*
X157105637Y-80884775D01*
X157100361Y-80912991D01*
X157093874Y-80939936D01*
X157086176Y-80965610D01*
X157077267Y-80990014D01*
X157067148Y-81013146D01*
X157055818Y-81035008D01*
X157043277Y-81055599D01*
X157029525Y-81074919D01*
X157014563Y-81092968D01*
X156998390Y-81109746D01*
X156986935Y-81120226D01*
X156968756Y-81134804D01*
X156949572Y-81147949D01*
X156929383Y-81159660D01*
X156908190Y-81169937D01*
X156885992Y-81178779D01*
X156862789Y-81186188D01*
X156838582Y-81192163D01*
X156813370Y-81196704D01*
X156787154Y-81199811D01*
X156759933Y-81201484D01*
X156741227Y-81201803D01*
X156713018Y-81200897D01*
X156685729Y-81198179D01*
X156659357Y-81193650D01*
X156633905Y-81187308D01*
X156609372Y-81179155D01*
X156585757Y-81169191D01*
X156563061Y-81157414D01*
X156541284Y-81143826D01*
X156520425Y-81128425D01*
X156500486Y-81111213D01*
X156487703Y-81098732D01*
X156469807Y-81078459D01*
X156453671Y-81057207D01*
X156439296Y-81034976D01*
X156426680Y-81011767D01*
X156415825Y-80987578D01*
X156406731Y-80962410D01*
X156399396Y-80936264D01*
X156393822Y-80909139D01*
X156390008Y-80881035D01*
X156387955Y-80851952D01*
X156387563Y-80832019D01*
X156388147Y-80805698D01*
X156389899Y-80780346D01*
X156392818Y-80755964D01*
X156396906Y-80732551D01*
X156402161Y-80710108D01*
X156408584Y-80688633D01*
X156416174Y-80668128D01*
X156424933Y-80648593D01*
X156434859Y-80630026D01*
X156445953Y-80612429D01*
X156458214Y-80595802D01*
X156471644Y-80580144D01*
X156486241Y-80565455D01*
X156502006Y-80551735D01*
X156518939Y-80538985D01*
X156537040Y-80527204D01*
X156554276Y-80517863D01*
X156573196Y-80509441D01*
X156593798Y-80501938D01*
X156616083Y-80495353D01*
X156640051Y-80489687D01*
X156665703Y-80484940D01*
X156693037Y-80481112D01*
X156722054Y-80478203D01*
X156742334Y-80476774D01*
X156763362Y-80475753D01*
X156785137Y-80475140D01*
X156807661Y-80474936D01*
G37*
G36*
X172772687Y-161983528D02*
G01*
X171897321Y-161983528D01*
X171897321Y-162054359D01*
X171897540Y-162084307D01*
X171898198Y-162113824D01*
X171899295Y-162142910D01*
X171900831Y-162171565D01*
X171902806Y-162199788D01*
X171905220Y-162227580D01*
X171908073Y-162254941D01*
X171911364Y-162281871D01*
X171915095Y-162308370D01*
X171919264Y-162334437D01*
X171923872Y-162360073D01*
X171928919Y-162385277D01*
X171934405Y-162410051D01*
X171940330Y-162434393D01*
X171946694Y-162458304D01*
X171953496Y-162481784D01*
X171960629Y-162503193D01*
X171968349Y-162524435D01*
X171976657Y-162545508D01*
X171985553Y-162566414D01*
X171995037Y-162587152D01*
X172005108Y-162607722D01*
X172015767Y-162628123D01*
X172027013Y-162648357D01*
X172038848Y-162668424D01*
X172051270Y-162688322D01*
X172064280Y-162708052D01*
X172077877Y-162727614D01*
X172092062Y-162747009D01*
X172106835Y-162766235D01*
X172122196Y-162785294D01*
X172138144Y-162804184D01*
X172156679Y-162824861D01*
X172175526Y-162844881D01*
X172194686Y-162864245D01*
X172214157Y-162882953D01*
X172233940Y-162901004D01*
X172254035Y-162918398D01*
X172274442Y-162935137D01*
X172295162Y-162951219D01*
X172316193Y-162966644D01*
X172337536Y-162981413D01*
X172359191Y-162995526D01*
X172381158Y-163008982D01*
X172403437Y-163021782D01*
X172426028Y-163033925D01*
X172448931Y-163045412D01*
X172472146Y-163056243D01*
X172495673Y-163066417D01*
X172519512Y-163075935D01*
X172543663Y-163084797D01*
X172568126Y-163093002D01*
X172592901Y-163100550D01*
X172617988Y-163107442D01*
X172643387Y-163113678D01*
X172669097Y-163119258D01*
X172695120Y-163124181D01*
X172721455Y-163128447D01*
X172748102Y-163132058D01*
X172775061Y-163135011D01*
X172802331Y-163137309D01*
X172829914Y-163138950D01*
X172857809Y-163139934D01*
X172886016Y-163140263D01*
X172913582Y-163139946D01*
X172940900Y-163138996D01*
X172967968Y-163137412D01*
X172994788Y-163135195D01*
X173021358Y-163132344D01*
X173047680Y-163128859D01*
X173073752Y-163124742D01*
X173099575Y-163119990D01*
X173125150Y-163114606D01*
X173150475Y-163108587D01*
X173175552Y-163101936D01*
X173200379Y-163094650D01*
X173224957Y-163086731D01*
X173249287Y-163078179D01*
X173273367Y-163068993D01*
X173297198Y-163059174D01*
X173320781Y-163048721D01*
X173344114Y-163037635D01*
X173367198Y-163025915D01*
X173390034Y-163013562D01*
X173412620Y-163000575D01*
X173434957Y-162986954D01*
X173457045Y-162972701D01*
X173478885Y-162957813D01*
X173500475Y-162942292D01*
X173521816Y-162926138D01*
X173542908Y-162909350D01*
X173563751Y-162891929D01*
X173584345Y-162873874D01*
X173604691Y-162855185D01*
X173624787Y-162835863D01*
X173644634Y-162815908D01*
X173664078Y-162795448D01*
X173682906Y-162774734D01*
X173701115Y-162753766D01*
X173718708Y-162732545D01*
X173735683Y-162711070D01*
X173752042Y-162689341D01*
X173767782Y-162667358D01*
X173782906Y-162645121D01*
X173797412Y-162622631D01*
X173811301Y-162599887D01*
X173824573Y-162576889D01*
X173837227Y-162553637D01*
X173849264Y-162530132D01*
X173860684Y-162506372D01*
X173871486Y-162482359D01*
X173881672Y-162458092D01*
X173891239Y-162433572D01*
X173900190Y-162408797D01*
X173908523Y-162383769D01*
X173916240Y-162358487D01*
X173923338Y-162332951D01*
X173929820Y-162307162D01*
X173935684Y-162281118D01*
X173940931Y-162254821D01*
X173945561Y-162228270D01*
X173949573Y-162201466D01*
X173952968Y-162174407D01*
X173955746Y-162147095D01*
X173957906Y-162119529D01*
X173959450Y-162091709D01*
X173960375Y-162063635D01*
X173960684Y-162035308D01*
X173960370Y-162006351D01*
X173959429Y-161977670D01*
X173957859Y-161949267D01*
X173955662Y-161921140D01*
X173952837Y-161893289D01*
X173949384Y-161865716D01*
X173945303Y-161838419D01*
X173940595Y-161811398D01*
X173935259Y-161784655D01*
X173929295Y-161758188D01*
X173922703Y-161731997D01*
X173915484Y-161706084D01*
X173907637Y-161680447D01*
X173899162Y-161655087D01*
X173890059Y-161630003D01*
X173880328Y-161605196D01*
X173869970Y-161580666D01*
X173858984Y-161556413D01*
X173847370Y-161532436D01*
X173835128Y-161508736D01*
X173822258Y-161485312D01*
X173808761Y-161462165D01*
X173794636Y-161439295D01*
X173779883Y-161416702D01*
X173764503Y-161394385D01*
X173748494Y-161372345D01*
X173731858Y-161350582D01*
X173714594Y-161329095D01*
X173696702Y-161307885D01*
X173678183Y-161286952D01*
X173659036Y-161266295D01*
X173639260Y-161245915D01*
X173619036Y-161225900D01*
X173598541Y-161206519D01*
X173577774Y-161187775D01*
X173556737Y-161169665D01*
X173535429Y-161152192D01*
X173513849Y-161135353D01*
X173491999Y-161119150D01*
X173469878Y-161103583D01*
X173447486Y-161088650D01*
X173424823Y-161074354D01*
X173401889Y-161060692D01*
X173378684Y-161047666D01*
X173355208Y-161035276D01*
X173331461Y-161023521D01*
X173307443Y-161012401D01*
X173283154Y-161001916D01*
X173258595Y-160992068D01*
X173233764Y-160982854D01*
X173208662Y-160974276D01*
X173183290Y-160966333D01*
X173157646Y-160959026D01*
X173131731Y-160952354D01*
X173105546Y-160946318D01*
X173079090Y-160940917D01*
X173052362Y-160936151D01*
X173025364Y-160932021D01*
X172998094Y-160928526D01*
X172970554Y-160925667D01*
X172942743Y-160923443D01*
X172914661Y-160921854D01*
X172886307Y-160920901D01*
X172857683Y-160920584D01*
X172826855Y-160920990D01*
X172796287Y-160922209D01*
X172765978Y-160924242D01*
X172735928Y-160927087D01*
X172706138Y-160930744D01*
X172676608Y-160935215D01*
X172647337Y-160940499D01*
X172618325Y-160946595D01*
X172589573Y-160953505D01*
X172561081Y-160961227D01*
X172532848Y-160969762D01*
X172504875Y-160979110D01*
X172477161Y-160989271D01*
X172449706Y-161000245D01*
X172422511Y-161012032D01*
X172395576Y-161024631D01*
X172369957Y-161038083D01*
X172344392Y-161052551D01*
X172318880Y-161068034D01*
X172293421Y-161084532D01*
X172268016Y-161102045D01*
X172242665Y-161120573D01*
X172217366Y-161140116D01*
X172192122Y-161160674D01*
X172166930Y-161182248D01*
X172141792Y-161204836D01*
X172116708Y-161228440D01*
X172091677Y-161253059D01*
X172066699Y-161278693D01*
X172041775Y-161305342D01*
X172016904Y-161333007D01*
X171992087Y-161361686D01*
X172219721Y-161578574D01*
X172236135Y-161557326D01*
X172252770Y-161536753D01*
X172269627Y-161516854D01*
X172286705Y-161497630D01*
X172304004Y-161479081D01*
X172321525Y-161461206D01*
X172339266Y-161444005D01*
X172357230Y-161427479D01*
X172375414Y-161411628D01*
X172393820Y-161396451D01*
X172412448Y-161381948D01*
X172431296Y-161368120D01*
X172450366Y-161354967D01*
X172469658Y-161342488D01*
X172489171Y-161330684D01*
X172508905Y-161319554D01*
X172528860Y-161309099D01*
X172549037Y-161299318D01*
X172569435Y-161290212D01*
X172590054Y-161281781D01*
X172610895Y-161274024D01*
X172631957Y-161266941D01*
X172653241Y-161260533D01*
X172674745Y-161254799D01*
X172696472Y-161249740D01*
X172718419Y-161245356D01*
X172740588Y-161241646D01*
X172762978Y-161238611D01*
X172785590Y-161236250D01*
X172808423Y-161234563D01*
X172831477Y-161233552D01*
X172854752Y-161233214D01*
X172875651Y-161233441D01*
X172896339Y-161234119D01*
X172916814Y-161235249D01*
X172937078Y-161236832D01*
X172957129Y-161238867D01*
X172976969Y-161241355D01*
X172996597Y-161244294D01*
X173016014Y-161247686D01*
X173035218Y-161251530D01*
X173072992Y-161260574D01*
X173109919Y-161271428D01*
X173145998Y-161284090D01*
X173181230Y-161298562D01*
X173215615Y-161314842D01*
X173249152Y-161332931D01*
X173281843Y-161352830D01*
X173313686Y-161374537D01*
X173344682Y-161398053D01*
X173359862Y-161410489D01*
X173374830Y-161423378D01*
X173389587Y-161436718D01*
X173404132Y-161450511D01*
X173418465Y-161464757D01*
X173432470Y-161479065D01*
X173446030Y-161493598D01*
X173459146Y-161508355D01*
X173471817Y-161523337D01*
X173495825Y-161553972D01*
X173518055Y-161585504D01*
X173538507Y-161617933D01*
X173557180Y-161651259D01*
X173574074Y-161685482D01*
X173589191Y-161720601D01*
X173602529Y-161756617D01*
X173614088Y-161793530D01*
X173623869Y-161831340D01*
X173628093Y-161850582D01*
X173631872Y-161870047D01*
X173635207Y-161889737D01*
X173638097Y-161909651D01*
X173640542Y-161929789D01*
X173642543Y-161950151D01*
X173644099Y-161970738D01*
X173645210Y-161991548D01*
X173645877Y-162012583D01*
X173646099Y-162033842D01*
X173645852Y-162055824D01*
X173645109Y-162077560D01*
X173643871Y-162099051D01*
X173642138Y-162120297D01*
X173639910Y-162141297D01*
X173637186Y-162162053D01*
X173633968Y-162182563D01*
X173630254Y-162202828D01*
X173626045Y-162222848D01*
X173621341Y-162242622D01*
X173616142Y-162262152D01*
X173610447Y-162281436D01*
X173604258Y-162300475D01*
X173597573Y-162319269D01*
X173590393Y-162337817D01*
X173582718Y-162356121D01*
X173574548Y-162374179D01*
X173565883Y-162391992D01*
X173556722Y-162409560D01*
X173547066Y-162426883D01*
X173536916Y-162443960D01*
X173526270Y-162460792D01*
X173515128Y-162477379D01*
X173503492Y-162493721D01*
X173491360Y-162509818D01*
X173478734Y-162525669D01*
X173465612Y-162541276D01*
X173451995Y-162556637D01*
X173437883Y-162571753D01*
X173423275Y-162586623D01*
X173408173Y-162601249D01*
X173392575Y-162615629D01*
X173377699Y-162628672D01*
X173362745Y-162641301D01*
X173332606Y-162665317D01*
X173302158Y-162687677D01*
X173271400Y-162708380D01*
X173240334Y-162727427D01*
X173208958Y-162744818D01*
X173177273Y-162760553D01*
X173145279Y-162774631D01*
X173112976Y-162787053D01*
X173080364Y-162797819D01*
X173047443Y-162806928D01*
X173014213Y-162814382D01*
X172980673Y-162820179D01*
X172946824Y-162824319D01*
X172912667Y-162826804D01*
X172878200Y-162827632D01*
X172848896Y-162827023D01*
X172819971Y-162825197D01*
X172791423Y-162822153D01*
X172763253Y-162817893D01*
X172735461Y-162812414D01*
X172708046Y-162805719D01*
X172681010Y-162797805D01*
X172654351Y-162788675D01*
X172628070Y-162778327D01*
X172602167Y-162766762D01*
X172576642Y-162753979D01*
X172551494Y-162739979D01*
X172526725Y-162724762D01*
X172502333Y-162708327D01*
X172478319Y-162690674D01*
X172454683Y-162671805D01*
X172431823Y-162651962D01*
X172410261Y-162631634D01*
X172389996Y-162610822D01*
X172371030Y-162589525D01*
X172353360Y-162567744D01*
X172336988Y-162545478D01*
X172321914Y-162522727D01*
X172308137Y-162499491D01*
X172295658Y-162475771D01*
X172284476Y-162451566D01*
X172274592Y-162426877D01*
X172266005Y-162401703D01*
X172258716Y-162376044D01*
X172252724Y-162349900D01*
X172248030Y-162323272D01*
X172244634Y-162296159D01*
X172772687Y-162296159D01*
X172772687Y-161983528D01*
G37*
G36*
X171508486Y-163109000D02*
G01*
X171508486Y-160839006D01*
X169976595Y-162460290D01*
X169976595Y-160983110D01*
X169662010Y-160983110D01*
X169662010Y-163237960D01*
X171193901Y-161620584D01*
X171193901Y-163109000D01*
X171508486Y-163109000D01*
G37*
G36*
X169146169Y-163109000D02*
G01*
X168710440Y-163109000D01*
X168690555Y-163108942D01*
X168670955Y-163108769D01*
X168632610Y-163108076D01*
X168595407Y-163106922D01*
X168559345Y-163105305D01*
X168524424Y-163103227D01*
X168490644Y-163100688D01*
X168458005Y-163097686D01*
X168426508Y-163094223D01*
X168396151Y-163090298D01*
X168366935Y-163085911D01*
X168338861Y-163081062D01*
X168311927Y-163075752D01*
X168286135Y-163069980D01*
X168261483Y-163063746D01*
X168237973Y-163057050D01*
X168215604Y-163049893D01*
X168192282Y-163042087D01*
X168169091Y-163033567D01*
X168146029Y-163024333D01*
X168123097Y-163014386D01*
X168100294Y-163003725D01*
X168077622Y-162992351D01*
X168055079Y-162980263D01*
X168032666Y-162967461D01*
X168010383Y-162953945D01*
X167988229Y-162939716D01*
X167966205Y-162924774D01*
X167944311Y-162909117D01*
X167922547Y-162892747D01*
X167900912Y-162875664D01*
X167879407Y-162857866D01*
X167858032Y-162839355D01*
X167837145Y-162820243D01*
X167816921Y-162800765D01*
X167797360Y-162780920D01*
X167778463Y-162760709D01*
X167760228Y-162740132D01*
X167742656Y-162719188D01*
X167725748Y-162697878D01*
X167709502Y-162676201D01*
X167693920Y-162654158D01*
X167679000Y-162631749D01*
X167664744Y-162608973D01*
X167651151Y-162585831D01*
X167638221Y-162562323D01*
X167625954Y-162538448D01*
X167614350Y-162514207D01*
X167603409Y-162489600D01*
X167593131Y-162464626D01*
X167583517Y-162439286D01*
X167574565Y-162413579D01*
X167566277Y-162387506D01*
X167558651Y-162361067D01*
X167551689Y-162334261D01*
X167545390Y-162307089D01*
X167539753Y-162279551D01*
X167534780Y-162251646D01*
X167530470Y-162223375D01*
X167526823Y-162194737D01*
X167523839Y-162165734D01*
X167521519Y-162136363D01*
X167519861Y-162106627D01*
X167518866Y-162076524D01*
X167518540Y-162046543D01*
X167833120Y-162046543D01*
X167833351Y-162067758D01*
X167834045Y-162088723D01*
X167835202Y-162109436D01*
X167836821Y-162129899D01*
X167838904Y-162150110D01*
X167841449Y-162170071D01*
X167844456Y-162189781D01*
X167847927Y-162209239D01*
X167856256Y-162247404D01*
X167866436Y-162284565D01*
X167878467Y-162320723D01*
X167892348Y-162355877D01*
X167908081Y-162390027D01*
X167925665Y-162423173D01*
X167945099Y-162455316D01*
X167966385Y-162486455D01*
X167989521Y-162516590D01*
X168014508Y-162545722D01*
X168041346Y-162573850D01*
X168055459Y-162587538D01*
X168070035Y-162600974D01*
X168084554Y-162613641D01*
X168106741Y-162631824D01*
X168129417Y-162649029D01*
X168152582Y-162665255D01*
X168176237Y-162680502D01*
X168200381Y-162694770D01*
X168225015Y-162708060D01*
X168250138Y-162720370D01*
X168275751Y-162731702D01*
X168301853Y-162742054D01*
X168328444Y-162751428D01*
X168337460Y-162754193D01*
X168365355Y-162761961D01*
X168384658Y-162766701D01*
X168404526Y-162771090D01*
X168424958Y-162775127D01*
X168445955Y-162778814D01*
X168467517Y-162782149D01*
X168489644Y-162785133D01*
X168512336Y-162787767D01*
X168535592Y-162790049D01*
X168559414Y-162791980D01*
X168583800Y-162793560D01*
X168608751Y-162794789D01*
X168634267Y-162795666D01*
X168660347Y-162796193D01*
X168686993Y-162796369D01*
X168831584Y-162796369D01*
X168831584Y-161295741D01*
X168686993Y-161295741D01*
X168661573Y-161295928D01*
X168636543Y-161296489D01*
X168611904Y-161297424D01*
X168587654Y-161298733D01*
X168563795Y-161300416D01*
X168540327Y-161302473D01*
X168517248Y-161304904D01*
X168494560Y-161307709D01*
X168472262Y-161310887D01*
X168450354Y-161314440D01*
X168428836Y-161318367D01*
X168407708Y-161322668D01*
X168386971Y-161327343D01*
X168366624Y-161332392D01*
X168346667Y-161337815D01*
X168327101Y-161343612D01*
X168307924Y-161349783D01*
X168289138Y-161356328D01*
X168252736Y-161370540D01*
X168217896Y-161386248D01*
X168184616Y-161403452D01*
X168152896Y-161422152D01*
X168122738Y-161442347D01*
X168094141Y-161464039D01*
X168067104Y-161487227D01*
X168052709Y-161500728D01*
X168038770Y-161514485D01*
X168012264Y-161542769D01*
X167987586Y-161572080D01*
X167964736Y-161602418D01*
X167943714Y-161633782D01*
X167924520Y-161666173D01*
X167907154Y-161699590D01*
X167891616Y-161734034D01*
X167877906Y-161769505D01*
X167866024Y-161806002D01*
X167855970Y-161843526D01*
X167851628Y-161862673D01*
X167847744Y-161882076D01*
X167844316Y-161901736D01*
X167841346Y-161921653D01*
X167838832Y-161941826D01*
X167836776Y-161962256D01*
X167835176Y-161982943D01*
X167834034Y-162003886D01*
X167833348Y-162025086D01*
X167833120Y-162046543D01*
X167518540Y-162046543D01*
X167518535Y-162046055D01*
X167518853Y-162015678D01*
X167519807Y-161985671D01*
X167521398Y-161956033D01*
X167523626Y-161926765D01*
X167526489Y-161897866D01*
X167529989Y-161869335D01*
X167534126Y-161841174D01*
X167538898Y-161813383D01*
X167544308Y-161785960D01*
X167550353Y-161758907D01*
X167557035Y-161732223D01*
X167564353Y-161705908D01*
X167572308Y-161679963D01*
X167580899Y-161654386D01*
X167590126Y-161629179D01*
X167599990Y-161604341D01*
X167610490Y-161579873D01*
X167621626Y-161555773D01*
X167633399Y-161532043D01*
X167645808Y-161508682D01*
X167658854Y-161485690D01*
X167672536Y-161463068D01*
X167686854Y-161440815D01*
X167701808Y-161418931D01*
X167717399Y-161397416D01*
X167733627Y-161376270D01*
X167750491Y-161355494D01*
X167767991Y-161335087D01*
X167786127Y-161315049D01*
X167804900Y-161295380D01*
X167824309Y-161276080D01*
X167844355Y-161257150D01*
X167864646Y-161238924D01*
X167885220Y-161221369D01*
X167906076Y-161204485D01*
X167927214Y-161188274D01*
X167948635Y-161172734D01*
X167970338Y-161157866D01*
X167992324Y-161143669D01*
X168014592Y-161130144D01*
X168037142Y-161117291D01*
X168059975Y-161105109D01*
X168083091Y-161093599D01*
X168106488Y-161082761D01*
X168130168Y-161072594D01*
X168154131Y-161063099D01*
X168178376Y-161054276D01*
X168202903Y-161046124D01*
X168214543Y-161042248D01*
X168238605Y-161034863D01*
X168263709Y-161027971D01*
X168289854Y-161021571D01*
X168317041Y-161015663D01*
X168345271Y-161010248D01*
X168374542Y-161005325D01*
X168404854Y-161000894D01*
X168436209Y-160996956D01*
X168468606Y-160993510D01*
X168502044Y-160990556D01*
X168536524Y-160988094D01*
X168572046Y-160986125D01*
X168608610Y-160984648D01*
X168646216Y-160983664D01*
X168684864Y-160983171D01*
X168704578Y-160983110D01*
X169146169Y-160983110D01*
X169146169Y-163109000D01*
G37*
G36*
X160682317Y-162135936D02*
G01*
X160682317Y-161858476D01*
X160657856Y-161858295D01*
X160634423Y-161857751D01*
X160612015Y-161856845D01*
X160590634Y-161855576D01*
X160570280Y-161853944D01*
X160541674Y-161850817D01*
X160515377Y-161846875D01*
X160491390Y-161842116D01*
X160469713Y-161836542D01*
X160450346Y-161830152D01*
X160428116Y-161820363D01*
X160414138Y-161812070D01*
X160392227Y-161795898D01*
X160372470Y-161777975D01*
X160354869Y-161758300D01*
X160339423Y-161736874D01*
X160326132Y-161713695D01*
X160314997Y-161688766D01*
X160306017Y-161662084D01*
X160299192Y-161633651D01*
X160295839Y-161613722D01*
X160293444Y-161593015D01*
X160292007Y-161571529D01*
X160291528Y-161549265D01*
X160292314Y-161523616D01*
X160294671Y-161498878D01*
X160298600Y-161475050D01*
X160304099Y-161452132D01*
X160311170Y-161430125D01*
X160319813Y-161409027D01*
X160330027Y-161388840D01*
X160341812Y-161369563D01*
X160355169Y-161351196D01*
X160370096Y-161333739D01*
X160380921Y-161322607D01*
X160397959Y-161306632D01*
X160415915Y-161292228D01*
X160434790Y-161279395D01*
X160454583Y-161268134D01*
X160475296Y-161258443D01*
X160496927Y-161250325D01*
X160519477Y-161243777D01*
X160542946Y-161238801D01*
X160567333Y-161235397D01*
X160592640Y-161233564D01*
X160610021Y-161233214D01*
X160634052Y-161233803D01*
X160657053Y-161235567D01*
X160679024Y-161238508D01*
X160699964Y-161242625D01*
X160719873Y-161247919D01*
X160738752Y-161254389D01*
X160762322Y-161264846D01*
X160784059Y-161277394D01*
X160803965Y-161292033D01*
X160813231Y-161300137D01*
X160829901Y-161318448D01*
X160841682Y-161334094D01*
X160852844Y-161351380D01*
X160863389Y-161370307D01*
X160873315Y-161390873D01*
X160882623Y-161413080D01*
X160891313Y-161436926D01*
X160899384Y-161462413D01*
X160906837Y-161489540D01*
X160911463Y-161508535D01*
X160915813Y-161528260D01*
X161233329Y-161528260D01*
X161226757Y-161491816D01*
X161219377Y-161456613D01*
X161211187Y-161422650D01*
X161202188Y-161389927D01*
X161192380Y-161358444D01*
X161181763Y-161328202D01*
X161170337Y-161299200D01*
X161158102Y-161271438D01*
X161145058Y-161244917D01*
X161131205Y-161219636D01*
X161116543Y-161195595D01*
X161101071Y-161172795D01*
X161084791Y-161151235D01*
X161067702Y-161130915D01*
X161049803Y-161111835D01*
X161031096Y-161093996D01*
X161011507Y-161077256D01*
X160990964Y-161061596D01*
X160969466Y-161047016D01*
X160947015Y-161033515D01*
X160923610Y-161021095D01*
X160899250Y-161009755D01*
X160873937Y-160999495D01*
X160847669Y-160990315D01*
X160820448Y-160982215D01*
X160792272Y-160975195D01*
X160763142Y-160969255D01*
X160733058Y-160964395D01*
X160702021Y-160960615D01*
X160670029Y-160957915D01*
X160637082Y-160956295D01*
X160603182Y-160955755D01*
X160568962Y-160956403D01*
X160535542Y-160958350D01*
X160502924Y-160961593D01*
X160471108Y-160966135D01*
X160440093Y-160971974D01*
X160409879Y-160979110D01*
X160380467Y-160987544D01*
X160351856Y-160997276D01*
X160324047Y-161008305D01*
X160297039Y-161020632D01*
X160270833Y-161034256D01*
X160245428Y-161049177D01*
X160220824Y-161065397D01*
X160197022Y-161082913D01*
X160174021Y-161101728D01*
X160151822Y-161121840D01*
X160130645Y-161142671D01*
X160110835Y-161164254D01*
X160092390Y-161186589D01*
X160075312Y-161209676D01*
X160059601Y-161233514D01*
X160045255Y-161258104D01*
X160032276Y-161283446D01*
X160020663Y-161309540D01*
X160010416Y-161336386D01*
X160001536Y-161363984D01*
X159994022Y-161392333D01*
X159987874Y-161421434D01*
X159983092Y-161451287D01*
X159979676Y-161481892D01*
X159977627Y-161513248D01*
X159976944Y-161545357D01*
X159977858Y-161581367D01*
X159980600Y-161616370D01*
X159985170Y-161650366D01*
X159991568Y-161683354D01*
X159999794Y-161715335D01*
X160009848Y-161746308D01*
X160021730Y-161776273D01*
X160035440Y-161805231D01*
X160050978Y-161833182D01*
X160068344Y-161860125D01*
X160087538Y-161886060D01*
X160108560Y-161910988D01*
X160131410Y-161934909D01*
X160156088Y-161957822D01*
X160182594Y-161979727D01*
X160210928Y-162000625D01*
X160179045Y-162020548D01*
X160149219Y-162041971D01*
X160121450Y-162064894D01*
X160095737Y-162089316D01*
X160072082Y-162115238D01*
X160050484Y-162142660D01*
X160030942Y-162171582D01*
X160013458Y-162202004D01*
X159998031Y-162233925D01*
X159984660Y-162267346D01*
X159973347Y-162302267D01*
X159964090Y-162338688D01*
X159956891Y-162376609D01*
X159954063Y-162396131D01*
X159951748Y-162416029D01*
X159949949Y-162436302D01*
X159948663Y-162456949D01*
X159947892Y-162477972D01*
X159947635Y-162499369D01*
X159948381Y-162534260D01*
X159950619Y-162568345D01*
X159954349Y-162601625D01*
X159959572Y-162634100D01*
X159966287Y-162665769D01*
X159974494Y-162696634D01*
X159984193Y-162726693D01*
X159995384Y-162755946D01*
X160008067Y-162784395D01*
X160022243Y-162812038D01*
X160037911Y-162838876D01*
X160055071Y-162864909D01*
X160073723Y-162890137D01*
X160093867Y-162914559D01*
X160115504Y-162938176D01*
X160138632Y-162960988D01*
X160162866Y-162982697D01*
X160187939Y-163003006D01*
X160213852Y-163021914D01*
X160240604Y-163039421D01*
X160268196Y-163055527D01*
X160296627Y-163070234D01*
X160325898Y-163083539D01*
X160356009Y-163095444D01*
X160386959Y-163105948D01*
X160418748Y-163115052D01*
X160451378Y-163122755D01*
X160484847Y-163129058D01*
X160519155Y-163133960D01*
X160554303Y-163137461D01*
X160590291Y-163139562D01*
X160627118Y-163140263D01*
X160650679Y-163139994D01*
X160673858Y-163139188D01*
X160696654Y-163137845D01*
X160719068Y-163135965D01*
X160741099Y-163133548D01*
X160762747Y-163130594D01*
X160784013Y-163127103D01*
X160804896Y-163123074D01*
X160825397Y-163118508D01*
X160845515Y-163113405D01*
X160865251Y-163107765D01*
X160884604Y-163101588D01*
X160903574Y-163094874D01*
X160922162Y-163087623D01*
X160940367Y-163079834D01*
X160958189Y-163071508D01*
X160975629Y-163062645D01*
X161009362Y-163043308D01*
X161041563Y-163021822D01*
X161072235Y-162998188D01*
X161101376Y-162972405D01*
X161115373Y-162958708D01*
X161128987Y-162944474D01*
X161142219Y-162929702D01*
X161155068Y-162914394D01*
X161167534Y-162898548D01*
X161179618Y-162882165D01*
X161191319Y-162865245D01*
X161205118Y-162842848D01*
X161217938Y-162818889D01*
X161229779Y-162793366D01*
X161240641Y-162766281D01*
X161247338Y-162747356D01*
X161253601Y-162727736D01*
X161259429Y-162707422D01*
X161264821Y-162686414D01*
X161269778Y-162664710D01*
X161274301Y-162642312D01*
X161278388Y-162619220D01*
X161282040Y-162595433D01*
X161285257Y-162570952D01*
X161288039Y-162545775D01*
X160980293Y-162545775D01*
X160975017Y-162573991D01*
X160968530Y-162600936D01*
X160960832Y-162626610D01*
X160951923Y-162651014D01*
X160941804Y-162674146D01*
X160930473Y-162696008D01*
X160917933Y-162716599D01*
X160904181Y-162735919D01*
X160889219Y-162753968D01*
X160873046Y-162770746D01*
X160861591Y-162781226D01*
X160843412Y-162795804D01*
X160824228Y-162808949D01*
X160804039Y-162820660D01*
X160782846Y-162830937D01*
X160760648Y-162839779D01*
X160737445Y-162847188D01*
X160713238Y-162853163D01*
X160688026Y-162857704D01*
X160661810Y-162860811D01*
X160634589Y-162862484D01*
X160615883Y-162862803D01*
X160587674Y-162861897D01*
X160560384Y-162859179D01*
X160534013Y-162854650D01*
X160508561Y-162848308D01*
X160484028Y-162840155D01*
X160460413Y-162830191D01*
X160437717Y-162818414D01*
X160415940Y-162804826D01*
X160395081Y-162789425D01*
X160375142Y-162772213D01*
X160362359Y-162759732D01*
X160344463Y-162739459D01*
X160328327Y-162718207D01*
X160313952Y-162695976D01*
X160301336Y-162672767D01*
X160290481Y-162648578D01*
X160281387Y-162623410D01*
X160274052Y-162597264D01*
X160268478Y-162570139D01*
X160264664Y-162542035D01*
X160262610Y-162512952D01*
X160262219Y-162493019D01*
X160262803Y-162466698D01*
X160264555Y-162441346D01*
X160267474Y-162416964D01*
X160271562Y-162393551D01*
X160276817Y-162371108D01*
X160283239Y-162349633D01*
X160290830Y-162329128D01*
X160299588Y-162309593D01*
X160309515Y-162291026D01*
X160320609Y-162273429D01*
X160332870Y-162256802D01*
X160346300Y-162241144D01*
X160360897Y-162226455D01*
X160376662Y-162212735D01*
X160393595Y-162199985D01*
X160411696Y-162188204D01*
X160428932Y-162178863D01*
X160447852Y-162170441D01*
X160468454Y-162162938D01*
X160490739Y-162156353D01*
X160514707Y-162150687D01*
X160540358Y-162145940D01*
X160567693Y-162142112D01*
X160596710Y-162139203D01*
X160616990Y-162137774D01*
X160638017Y-162136753D01*
X160659793Y-162136140D01*
X160682317Y-162135936D01*
G37*
G36*
X159330189Y-160983110D02*
G01*
X158746448Y-162453452D01*
X158154404Y-160983110D01*
X157805625Y-160983110D01*
X158753287Y-163263849D01*
X159678967Y-160983110D01*
X159330189Y-160983110D01*
G37*
G36*
X157061661Y-162135936D02*
G01*
X157061661Y-161858476D01*
X157037201Y-161858295D01*
X157013767Y-161857751D01*
X156991359Y-161856845D01*
X156969978Y-161855576D01*
X156949624Y-161853944D01*
X156921018Y-161850817D01*
X156894721Y-161846875D01*
X156870734Y-161842116D01*
X156849057Y-161836542D01*
X156829690Y-161830152D01*
X156807460Y-161820363D01*
X156793482Y-161812070D01*
X156771571Y-161795898D01*
X156751814Y-161777975D01*
X156734213Y-161758300D01*
X156718767Y-161736874D01*
X156705476Y-161713695D01*
X156694341Y-161688766D01*
X156685361Y-161662084D01*
X156678536Y-161633651D01*
X156675183Y-161613722D01*
X156672788Y-161593015D01*
X156671351Y-161571529D01*
X156670872Y-161549265D01*
X156671658Y-161523616D01*
X156674015Y-161498878D01*
X156677944Y-161475050D01*
X156683443Y-161452132D01*
X156690514Y-161430125D01*
X156699157Y-161409027D01*
X156709371Y-161388840D01*
X156721156Y-161369563D01*
X156734513Y-161351196D01*
X156749440Y-161333739D01*
X156760265Y-161322607D01*
X156777303Y-161306632D01*
X156795259Y-161292228D01*
X156814134Y-161279395D01*
X156833927Y-161268134D01*
X156854640Y-161258443D01*
X156876271Y-161250325D01*
X156898821Y-161243777D01*
X156922290Y-161238801D01*
X156946678Y-161235397D01*
X156971984Y-161233564D01*
X156989365Y-161233214D01*
X157013396Y-161233803D01*
X157036397Y-161235567D01*
X157058368Y-161238508D01*
X157079308Y-161242625D01*
X157099217Y-161247919D01*
X157118096Y-161254389D01*
X157141666Y-161264846D01*
X157163403Y-161277394D01*
X157183309Y-161292033D01*
X157192575Y-161300137D01*
X157209245Y-161318448D01*
X157221026Y-161334094D01*
X157232188Y-161351380D01*
X157242733Y-161370307D01*
X157252659Y-161390873D01*
X157261967Y-161413080D01*
X157270657Y-161436926D01*
X157278728Y-161462413D01*
X157286181Y-161489540D01*
X157290807Y-161508535D01*
X157295157Y-161528260D01*
X157612673Y-161528260D01*
X157606101Y-161491816D01*
X157598721Y-161456613D01*
X157590531Y-161422650D01*
X157581532Y-161389927D01*
X157571724Y-161358444D01*
X157561107Y-161328202D01*
X157549681Y-161299200D01*
X157537446Y-161271438D01*
X157524402Y-161244917D01*
X157510549Y-161219636D01*
X157495887Y-161195595D01*
X157480415Y-161172795D01*
X157464135Y-161151235D01*
X157447046Y-161130915D01*
X157429147Y-161111835D01*
X157410440Y-161093996D01*
X157390851Y-161077256D01*
X157370308Y-161061596D01*
X157348810Y-161047016D01*
X157326359Y-161033515D01*
X157302954Y-161021095D01*
X157278594Y-161009755D01*
X157253281Y-160999495D01*
X157227013Y-160990315D01*
X157199792Y-160982215D01*
X157171616Y-160975195D01*
X157142486Y-160969255D01*
X157112403Y-160964395D01*
X157081365Y-160960615D01*
X157049373Y-160957915D01*
X157016427Y-160956295D01*
X156982526Y-160955755D01*
X156948306Y-160956403D01*
X156914886Y-160958350D01*
X156882268Y-160961593D01*
X156850452Y-160966135D01*
X156819437Y-160971974D01*
X156789223Y-160979110D01*
X156759811Y-160987544D01*
X156731200Y-160997276D01*
X156703391Y-161008305D01*
X156676383Y-161020632D01*
X156650177Y-161034256D01*
X156624772Y-161049177D01*
X156600168Y-161065397D01*
X156576366Y-161082913D01*
X156553365Y-161101728D01*
X156531166Y-161121840D01*
X156509989Y-161142671D01*
X156490179Y-161164254D01*
X156471734Y-161186589D01*
X156454657Y-161209676D01*
X156438945Y-161233514D01*
X156424599Y-161258104D01*
X156411620Y-161283446D01*
X156400007Y-161309540D01*
X156389760Y-161336386D01*
X156380880Y-161363984D01*
X156373366Y-161392333D01*
X156367218Y-161421434D01*
X156362436Y-161451287D01*
X156359020Y-161481892D01*
X156356971Y-161513248D01*
X156356288Y-161545357D01*
X156357202Y-161581367D01*
X156359944Y-161616370D01*
X156364514Y-161650366D01*
X156370912Y-161683354D01*
X156379138Y-161715335D01*
X156389192Y-161746308D01*
X156401074Y-161776273D01*
X156414784Y-161805231D01*
X156430322Y-161833182D01*
X156447688Y-161860125D01*
X156466882Y-161886060D01*
X156487904Y-161910988D01*
X156510754Y-161934909D01*
X156535432Y-161957822D01*
X156561938Y-161979727D01*
X156590272Y-162000625D01*
X156558389Y-162020548D01*
X156528563Y-162041971D01*
X156500794Y-162064894D01*
X156475081Y-162089316D01*
X156451426Y-162115238D01*
X156429828Y-162142660D01*
X156410286Y-162171582D01*
X156392802Y-162202004D01*
X156377375Y-162233925D01*
X156364004Y-162267346D01*
X156352691Y-162302267D01*
X156343434Y-162338688D01*
X156336235Y-162376609D01*
X156333407Y-162396131D01*
X156331093Y-162416029D01*
X156329293Y-162436302D01*
X156328007Y-162456949D01*
X156327236Y-162477972D01*
X156326979Y-162499369D01*
X156327725Y-162534260D01*
X156329963Y-162568345D01*
X156333693Y-162601625D01*
X156338916Y-162634100D01*
X156345631Y-162665769D01*
X156353838Y-162696634D01*
X156363537Y-162726693D01*
X156374728Y-162755946D01*
X156387411Y-162784395D01*
X156401587Y-162812038D01*
X156417255Y-162838876D01*
X156434415Y-162864909D01*
X156453067Y-162890137D01*
X156473211Y-162914559D01*
X156494848Y-162938176D01*
X156517976Y-162960988D01*
X156542210Y-162982697D01*
X156567283Y-163003006D01*
X156593196Y-163021914D01*
X156619948Y-163039421D01*
X156647540Y-163055527D01*
X156675971Y-163070234D01*
X156705242Y-163083539D01*
X156735353Y-163095444D01*
X156766303Y-163105948D01*
X156798092Y-163115052D01*
X156830722Y-163122755D01*
X156864191Y-163129058D01*
X156898499Y-163133960D01*
X156933647Y-163137461D01*
X156969635Y-163139562D01*
X157006462Y-163140263D01*
X157030023Y-163139994D01*
X157053202Y-163139188D01*
X157075998Y-163137845D01*
X157098412Y-163135965D01*
X157120443Y-163133548D01*
X157142091Y-163130594D01*
X157163357Y-163127103D01*
X157184240Y-163123074D01*
X157204741Y-163118508D01*
X157224859Y-163113405D01*
X157244595Y-163107765D01*
X157263948Y-163101588D01*
X157282918Y-163094874D01*
X157301506Y-163087623D01*
X157319711Y-163079834D01*
X157337533Y-163071508D01*
X157354973Y-163062645D01*
X157388706Y-163043308D01*
X157420907Y-163021822D01*
X157451579Y-162998188D01*
X157480720Y-162972405D01*
X157494717Y-162958708D01*
X157508331Y-162944474D01*
X157521563Y-162929702D01*
X157534412Y-162914394D01*
X157546878Y-162898548D01*
X157558962Y-162882165D01*
X157570663Y-162865245D01*
X157584462Y-162842848D01*
X157597282Y-162818889D01*
X157609123Y-162793366D01*
X157619985Y-162766281D01*
X157626683Y-162747356D01*
X157632945Y-162727736D01*
X157638773Y-162707422D01*
X157644165Y-162686414D01*
X157649122Y-162664710D01*
X157653645Y-162642312D01*
X157657732Y-162619220D01*
X157661384Y-162595433D01*
X157664601Y-162570952D01*
X157667383Y-162545775D01*
X157359637Y-162545775D01*
X157354361Y-162573991D01*
X157347874Y-162600936D01*
X157340176Y-162626610D01*
X157331267Y-162651014D01*
X157321148Y-162674146D01*
X157309818Y-162696008D01*
X157297277Y-162716599D01*
X157283525Y-162735919D01*
X157268563Y-162753968D01*
X157252390Y-162770746D01*
X157240935Y-162781226D01*
X157222756Y-162795804D01*
X157203572Y-162808949D01*
X157183383Y-162820660D01*
X157162190Y-162830937D01*
X157139992Y-162839779D01*
X157116789Y-162847188D01*
X157092582Y-162853163D01*
X157067370Y-162857704D01*
X157041154Y-162860811D01*
X157013933Y-162862484D01*
X156995227Y-162862803D01*
X156967018Y-162861897D01*
X156939729Y-162859179D01*
X156913357Y-162854650D01*
X156887905Y-162848308D01*
X156863372Y-162840155D01*
X156839757Y-162830191D01*
X156817061Y-162818414D01*
X156795284Y-162804826D01*
X156774425Y-162789425D01*
X156754486Y-162772213D01*
X156741703Y-162759732D01*
X156723807Y-162739459D01*
X156707671Y-162718207D01*
X156693296Y-162695976D01*
X156680680Y-162672767D01*
X156669825Y-162648578D01*
X156660731Y-162623410D01*
X156653396Y-162597264D01*
X156647822Y-162570139D01*
X156644008Y-162542035D01*
X156641955Y-162512952D01*
X156641563Y-162493019D01*
X156642147Y-162466698D01*
X156643899Y-162441346D01*
X156646818Y-162416964D01*
X156650906Y-162393551D01*
X156656161Y-162371108D01*
X156662584Y-162349633D01*
X156670174Y-162329128D01*
X156678933Y-162309593D01*
X156688859Y-162291026D01*
X156699953Y-162273429D01*
X156712214Y-162256802D01*
X156725644Y-162241144D01*
X156740241Y-162226455D01*
X156756006Y-162212735D01*
X156772939Y-162199985D01*
X156791040Y-162188204D01*
X156808276Y-162178863D01*
X156827196Y-162170441D01*
X156847798Y-162162938D01*
X156870083Y-162156353D01*
X156894051Y-162150687D01*
X156919703Y-162145940D01*
X156947037Y-162142112D01*
X156976054Y-162139203D01*
X156996334Y-162137774D01*
X157017362Y-162136753D01*
X157039137Y-162136140D01*
X157061661Y-162135936D01*
G37*
G36*
X160555317Y-244558936D02*
G01*
X160555317Y-244281476D01*
X160530856Y-244281295D01*
X160507423Y-244280751D01*
X160485015Y-244279845D01*
X160463634Y-244278576D01*
X160443280Y-244276944D01*
X160414674Y-244273817D01*
X160388377Y-244269875D01*
X160364390Y-244265116D01*
X160342713Y-244259542D01*
X160323346Y-244253152D01*
X160301116Y-244243363D01*
X160287138Y-244235070D01*
X160265227Y-244218898D01*
X160245470Y-244200975D01*
X160227869Y-244181300D01*
X160212423Y-244159874D01*
X160199132Y-244136695D01*
X160187997Y-244111766D01*
X160179017Y-244085084D01*
X160172192Y-244056651D01*
X160168839Y-244036722D01*
X160166444Y-244016015D01*
X160165007Y-243994529D01*
X160164528Y-243972265D01*
X160165314Y-243946616D01*
X160167671Y-243921878D01*
X160171600Y-243898050D01*
X160177099Y-243875132D01*
X160184170Y-243853125D01*
X160192813Y-243832027D01*
X160203027Y-243811840D01*
X160214812Y-243792563D01*
X160228169Y-243774196D01*
X160243096Y-243756739D01*
X160253921Y-243745607D01*
X160270959Y-243729632D01*
X160288915Y-243715228D01*
X160307790Y-243702395D01*
X160327583Y-243691134D01*
X160348296Y-243681443D01*
X160369927Y-243673325D01*
X160392477Y-243666777D01*
X160415946Y-243661801D01*
X160440333Y-243658397D01*
X160465640Y-243656564D01*
X160483021Y-243656214D01*
X160507052Y-243656803D01*
X160530053Y-243658567D01*
X160552024Y-243661508D01*
X160572964Y-243665625D01*
X160592873Y-243670919D01*
X160611752Y-243677389D01*
X160635322Y-243687846D01*
X160657059Y-243700394D01*
X160676965Y-243715033D01*
X160686231Y-243723137D01*
X160702901Y-243741448D01*
X160714682Y-243757094D01*
X160725844Y-243774380D01*
X160736389Y-243793307D01*
X160746315Y-243813873D01*
X160755623Y-243836080D01*
X160764313Y-243859926D01*
X160772384Y-243885413D01*
X160779837Y-243912540D01*
X160784463Y-243931535D01*
X160788813Y-243951260D01*
X161106329Y-243951260D01*
X161099757Y-243914816D01*
X161092377Y-243879613D01*
X161084187Y-243845650D01*
X161075188Y-243812927D01*
X161065380Y-243781444D01*
X161054763Y-243751202D01*
X161043337Y-243722200D01*
X161031102Y-243694438D01*
X161018058Y-243667917D01*
X161004205Y-243642636D01*
X160989543Y-243618595D01*
X160974071Y-243595795D01*
X160957791Y-243574235D01*
X160940702Y-243553915D01*
X160922803Y-243534835D01*
X160904096Y-243516996D01*
X160884507Y-243500256D01*
X160863964Y-243484596D01*
X160842466Y-243470016D01*
X160820015Y-243456515D01*
X160796610Y-243444095D01*
X160772250Y-243432755D01*
X160746937Y-243422495D01*
X160720669Y-243413315D01*
X160693448Y-243405215D01*
X160665272Y-243398195D01*
X160636142Y-243392255D01*
X160606058Y-243387395D01*
X160575021Y-243383615D01*
X160543029Y-243380915D01*
X160510082Y-243379295D01*
X160476182Y-243378755D01*
X160441962Y-243379403D01*
X160408542Y-243381350D01*
X160375924Y-243384593D01*
X160344108Y-243389135D01*
X160313093Y-243394974D01*
X160282879Y-243402110D01*
X160253467Y-243410544D01*
X160224856Y-243420276D01*
X160197047Y-243431305D01*
X160170039Y-243443632D01*
X160143833Y-243457256D01*
X160118428Y-243472177D01*
X160093824Y-243488397D01*
X160070022Y-243505913D01*
X160047021Y-243524728D01*
X160024822Y-243544840D01*
X160003645Y-243565671D01*
X159983835Y-243587254D01*
X159965390Y-243609589D01*
X159948312Y-243632676D01*
X159932601Y-243656514D01*
X159918255Y-243681104D01*
X159905276Y-243706446D01*
X159893663Y-243732540D01*
X159883416Y-243759386D01*
X159874536Y-243786984D01*
X159867022Y-243815333D01*
X159860874Y-243844434D01*
X159856092Y-243874287D01*
X159852676Y-243904892D01*
X159850627Y-243936248D01*
X159849944Y-243968357D01*
X159850858Y-244004367D01*
X159853600Y-244039370D01*
X159858170Y-244073366D01*
X159864568Y-244106354D01*
X159872794Y-244138335D01*
X159882848Y-244169308D01*
X159894730Y-244199273D01*
X159908440Y-244228231D01*
X159923978Y-244256182D01*
X159941344Y-244283125D01*
X159960538Y-244309060D01*
X159981560Y-244333988D01*
X160004410Y-244357909D01*
X160029088Y-244380822D01*
X160055594Y-244402727D01*
X160083928Y-244423625D01*
X160052045Y-244443548D01*
X160022219Y-244464971D01*
X159994450Y-244487894D01*
X159968737Y-244512316D01*
X159945082Y-244538238D01*
X159923484Y-244565660D01*
X159903942Y-244594582D01*
X159886458Y-244625004D01*
X159871031Y-244656925D01*
X159857660Y-244690346D01*
X159846347Y-244725267D01*
X159837090Y-244761688D01*
X159829891Y-244799609D01*
X159827063Y-244819131D01*
X159824748Y-244839029D01*
X159822949Y-244859302D01*
X159821663Y-244879949D01*
X159820892Y-244900972D01*
X159820635Y-244922369D01*
X159821381Y-244957260D01*
X159823619Y-244991345D01*
X159827349Y-245024625D01*
X159832572Y-245057100D01*
X159839287Y-245088769D01*
X159847494Y-245119634D01*
X159857193Y-245149693D01*
X159868384Y-245178946D01*
X159881067Y-245207395D01*
X159895243Y-245235038D01*
X159910911Y-245261876D01*
X159928071Y-245287909D01*
X159946723Y-245313137D01*
X159966867Y-245337559D01*
X159988504Y-245361176D01*
X160011632Y-245383988D01*
X160035866Y-245405697D01*
X160060939Y-245426006D01*
X160086852Y-245444914D01*
X160113604Y-245462421D01*
X160141196Y-245478527D01*
X160169627Y-245493234D01*
X160198898Y-245506539D01*
X160229009Y-245518444D01*
X160259959Y-245528948D01*
X160291748Y-245538052D01*
X160324378Y-245545755D01*
X160357847Y-245552058D01*
X160392155Y-245556960D01*
X160427303Y-245560461D01*
X160463291Y-245562562D01*
X160500118Y-245563263D01*
X160523679Y-245562994D01*
X160546858Y-245562188D01*
X160569654Y-245560845D01*
X160592068Y-245558965D01*
X160614099Y-245556548D01*
X160635747Y-245553594D01*
X160657013Y-245550103D01*
X160677896Y-245546074D01*
X160698397Y-245541508D01*
X160718515Y-245536405D01*
X160738251Y-245530765D01*
X160757604Y-245524588D01*
X160776574Y-245517874D01*
X160795162Y-245510623D01*
X160813367Y-245502834D01*
X160831189Y-245494508D01*
X160848629Y-245485645D01*
X160882362Y-245466308D01*
X160914563Y-245444822D01*
X160945235Y-245421188D01*
X160974376Y-245395405D01*
X160988373Y-245381708D01*
X161001987Y-245367474D01*
X161015219Y-245352702D01*
X161028068Y-245337394D01*
X161040534Y-245321548D01*
X161052618Y-245305165D01*
X161064319Y-245288245D01*
X161078118Y-245265848D01*
X161090938Y-245241889D01*
X161102779Y-245216366D01*
X161113641Y-245189281D01*
X161120338Y-245170356D01*
X161126601Y-245150736D01*
X161132429Y-245130422D01*
X161137821Y-245109414D01*
X161142778Y-245087710D01*
X161147301Y-245065312D01*
X161151388Y-245042220D01*
X161155040Y-245018433D01*
X161158257Y-244993952D01*
X161161039Y-244968775D01*
X160853293Y-244968775D01*
X160848017Y-244996991D01*
X160841530Y-245023936D01*
X160833832Y-245049610D01*
X160824923Y-245074014D01*
X160814804Y-245097146D01*
X160803473Y-245119008D01*
X160790933Y-245139599D01*
X160777181Y-245158919D01*
X160762219Y-245176968D01*
X160746046Y-245193746D01*
X160734591Y-245204226D01*
X160716412Y-245218804D01*
X160697228Y-245231949D01*
X160677039Y-245243660D01*
X160655846Y-245253937D01*
X160633648Y-245262779D01*
X160610445Y-245270188D01*
X160586238Y-245276163D01*
X160561026Y-245280704D01*
X160534810Y-245283811D01*
X160507589Y-245285484D01*
X160488883Y-245285803D01*
X160460674Y-245284897D01*
X160433384Y-245282179D01*
X160407013Y-245277650D01*
X160381561Y-245271308D01*
X160357028Y-245263155D01*
X160333413Y-245253191D01*
X160310717Y-245241414D01*
X160288940Y-245227826D01*
X160268081Y-245212425D01*
X160248142Y-245195213D01*
X160235359Y-245182732D01*
X160217463Y-245162459D01*
X160201327Y-245141207D01*
X160186952Y-245118976D01*
X160174336Y-245095767D01*
X160163481Y-245071578D01*
X160154387Y-245046410D01*
X160147052Y-245020264D01*
X160141478Y-244993139D01*
X160137664Y-244965035D01*
X160135610Y-244935952D01*
X160135219Y-244916019D01*
X160135803Y-244889698D01*
X160137555Y-244864346D01*
X160140474Y-244839964D01*
X160144562Y-244816551D01*
X160149817Y-244794108D01*
X160156239Y-244772633D01*
X160163830Y-244752128D01*
X160172588Y-244732593D01*
X160182515Y-244714026D01*
X160193609Y-244696429D01*
X160205870Y-244679802D01*
X160219300Y-244664144D01*
X160233897Y-244649455D01*
X160249662Y-244635735D01*
X160266595Y-244622985D01*
X160284696Y-244611204D01*
X160301932Y-244601863D01*
X160320852Y-244593441D01*
X160341454Y-244585938D01*
X160363739Y-244579353D01*
X160387707Y-244573687D01*
X160413358Y-244568940D01*
X160440693Y-244565112D01*
X160469710Y-244562203D01*
X160489990Y-244560774D01*
X160511017Y-244559753D01*
X160532793Y-244559140D01*
X160555317Y-244558936D01*
G37*
G36*
X159203189Y-243406110D02*
G01*
X158619448Y-244876452D01*
X158027404Y-243406110D01*
X157678625Y-243406110D01*
X158626287Y-245686849D01*
X159551967Y-243406110D01*
X159203189Y-243406110D01*
G37*
G36*
X156934661Y-244558936D02*
G01*
X156934661Y-244281476D01*
X156910201Y-244281295D01*
X156886767Y-244280751D01*
X156864359Y-244279845D01*
X156842978Y-244278576D01*
X156822624Y-244276944D01*
X156794018Y-244273817D01*
X156767721Y-244269875D01*
X156743734Y-244265116D01*
X156722057Y-244259542D01*
X156702690Y-244253152D01*
X156680460Y-244243363D01*
X156666482Y-244235070D01*
X156644571Y-244218898D01*
X156624814Y-244200975D01*
X156607213Y-244181300D01*
X156591767Y-244159874D01*
X156578476Y-244136695D01*
X156567341Y-244111766D01*
X156558361Y-244085084D01*
X156551536Y-244056651D01*
X156548183Y-244036722D01*
X156545788Y-244016015D01*
X156544351Y-243994529D01*
X156543872Y-243972265D01*
X156544658Y-243946616D01*
X156547015Y-243921878D01*
X156550944Y-243898050D01*
X156556443Y-243875132D01*
X156563514Y-243853125D01*
X156572157Y-243832027D01*
X156582371Y-243811840D01*
X156594156Y-243792563D01*
X156607513Y-243774196D01*
X156622440Y-243756739D01*
X156633265Y-243745607D01*
X156650303Y-243729632D01*
X156668259Y-243715228D01*
X156687134Y-243702395D01*
X156706927Y-243691134D01*
X156727640Y-243681443D01*
X156749271Y-243673325D01*
X156771821Y-243666777D01*
X156795290Y-243661801D01*
X156819678Y-243658397D01*
X156844984Y-243656564D01*
X156862365Y-243656214D01*
X156886396Y-243656803D01*
X156909397Y-243658567D01*
X156931368Y-243661508D01*
X156952308Y-243665625D01*
X156972217Y-243670919D01*
X156991096Y-243677389D01*
X157014666Y-243687846D01*
X157036403Y-243700394D01*
X157056309Y-243715033D01*
X157065575Y-243723137D01*
X157082245Y-243741448D01*
X157094026Y-243757094D01*
X157105188Y-243774380D01*
X157115733Y-243793307D01*
X157125659Y-243813873D01*
X157134967Y-243836080D01*
X157143657Y-243859926D01*
X157151728Y-243885413D01*
X157159181Y-243912540D01*
X157163807Y-243931535D01*
X157168157Y-243951260D01*
X157485673Y-243951260D01*
X157479101Y-243914816D01*
X157471721Y-243879613D01*
X157463531Y-243845650D01*
X157454532Y-243812927D01*
X157444724Y-243781444D01*
X157434107Y-243751202D01*
X157422681Y-243722200D01*
X157410446Y-243694438D01*
X157397402Y-243667917D01*
X157383549Y-243642636D01*
X157368887Y-243618595D01*
X157353415Y-243595795D01*
X157337135Y-243574235D01*
X157320046Y-243553915D01*
X157302147Y-243534835D01*
X157283440Y-243516996D01*
X157263851Y-243500256D01*
X157243308Y-243484596D01*
X157221810Y-243470016D01*
X157199359Y-243456515D01*
X157175954Y-243444095D01*
X157151594Y-243432755D01*
X157126281Y-243422495D01*
X157100013Y-243413315D01*
X157072792Y-243405215D01*
X157044616Y-243398195D01*
X157015486Y-243392255D01*
X156985403Y-243387395D01*
X156954365Y-243383615D01*
X156922373Y-243380915D01*
X156889427Y-243379295D01*
X156855526Y-243378755D01*
X156821306Y-243379403D01*
X156787886Y-243381350D01*
X156755268Y-243384593D01*
X156723452Y-243389135D01*
X156692437Y-243394974D01*
X156662223Y-243402110D01*
X156632811Y-243410544D01*
X156604200Y-243420276D01*
X156576391Y-243431305D01*
X156549383Y-243443632D01*
X156523177Y-243457256D01*
X156497772Y-243472177D01*
X156473168Y-243488397D01*
X156449366Y-243505913D01*
X156426365Y-243524728D01*
X156404166Y-243544840D01*
X156382989Y-243565671D01*
X156363179Y-243587254D01*
X156344734Y-243609589D01*
X156327657Y-243632676D01*
X156311945Y-243656514D01*
X156297599Y-243681104D01*
X156284620Y-243706446D01*
X156273007Y-243732540D01*
X156262760Y-243759386D01*
X156253880Y-243786984D01*
X156246366Y-243815333D01*
X156240218Y-243844434D01*
X156235436Y-243874287D01*
X156232020Y-243904892D01*
X156229971Y-243936248D01*
X156229288Y-243968357D01*
X156230202Y-244004367D01*
X156232944Y-244039370D01*
X156237514Y-244073366D01*
X156243912Y-244106354D01*
X156252138Y-244138335D01*
X156262192Y-244169308D01*
X156274074Y-244199273D01*
X156287784Y-244228231D01*
X156303322Y-244256182D01*
X156320688Y-244283125D01*
X156339882Y-244309060D01*
X156360904Y-244333988D01*
X156383754Y-244357909D01*
X156408432Y-244380822D01*
X156434938Y-244402727D01*
X156463272Y-244423625D01*
X156431389Y-244443548D01*
X156401563Y-244464971D01*
X156373794Y-244487894D01*
X156348081Y-244512316D01*
X156324426Y-244538238D01*
X156302828Y-244565660D01*
X156283286Y-244594582D01*
X156265802Y-244625004D01*
X156250375Y-244656925D01*
X156237004Y-244690346D01*
X156225691Y-244725267D01*
X156216434Y-244761688D01*
X156209235Y-244799609D01*
X156206407Y-244819131D01*
X156204093Y-244839029D01*
X156202293Y-244859302D01*
X156201007Y-244879949D01*
X156200236Y-244900972D01*
X156199979Y-244922369D01*
X156200725Y-244957260D01*
X156202963Y-244991345D01*
X156206693Y-245024625D01*
X156211916Y-245057100D01*
X156218631Y-245088769D01*
X156226838Y-245119634D01*
X156236537Y-245149693D01*
X156247728Y-245178946D01*
X156260411Y-245207395D01*
X156274587Y-245235038D01*
X156290255Y-245261876D01*
X156307415Y-245287909D01*
X156326067Y-245313137D01*
X156346211Y-245337559D01*
X156367848Y-245361176D01*
X156390976Y-245383988D01*
X156415210Y-245405697D01*
X156440283Y-245426006D01*
X156466196Y-245444914D01*
X156492948Y-245462421D01*
X156520540Y-245478527D01*
X156548971Y-245493234D01*
X156578242Y-245506539D01*
X156608353Y-245518444D01*
X156639303Y-245528948D01*
X156671092Y-245538052D01*
X156703722Y-245545755D01*
X156737191Y-245552058D01*
X156771499Y-245556960D01*
X156806647Y-245560461D01*
X156842635Y-245562562D01*
X156879462Y-245563263D01*
X156903023Y-245562994D01*
X156926202Y-245562188D01*
X156948998Y-245560845D01*
X156971412Y-245558965D01*
X156993443Y-245556548D01*
X157015091Y-245553594D01*
X157036357Y-245550103D01*
X157057240Y-245546074D01*
X157077741Y-245541508D01*
X157097859Y-245536405D01*
X157117595Y-245530765D01*
X157136948Y-245524588D01*
X157155918Y-245517874D01*
X157174506Y-245510623D01*
X157192711Y-245502834D01*
X157210533Y-245494508D01*
X157227973Y-245485645D01*
X157261706Y-245466308D01*
X157293907Y-245444822D01*
X157324579Y-245421188D01*
X157353720Y-245395405D01*
X157367717Y-245381708D01*
X157381331Y-245367474D01*
X157394563Y-245352702D01*
X157407412Y-245337394D01*
X157419878Y-245321548D01*
X157431962Y-245305165D01*
X157443663Y-245288245D01*
X157457462Y-245265848D01*
X157470282Y-245241889D01*
X157482123Y-245216366D01*
X157492985Y-245189281D01*
X157499683Y-245170356D01*
X157505945Y-245150736D01*
X157511773Y-245130422D01*
X157517165Y-245109414D01*
X157522122Y-245087710D01*
X157526645Y-245065312D01*
X157530732Y-245042220D01*
X157534384Y-245018433D01*
X157537601Y-244993952D01*
X157540383Y-244968775D01*
X157232637Y-244968775D01*
X157227361Y-244996991D01*
X157220874Y-245023936D01*
X157213176Y-245049610D01*
X157204267Y-245074014D01*
X157194148Y-245097146D01*
X157182818Y-245119008D01*
X157170277Y-245139599D01*
X157156525Y-245158919D01*
X157141563Y-245176968D01*
X157125390Y-245193746D01*
X157113935Y-245204226D01*
X157095756Y-245218804D01*
X157076572Y-245231949D01*
X157056383Y-245243660D01*
X157035190Y-245253937D01*
X157012992Y-245262779D01*
X156989789Y-245270188D01*
X156965582Y-245276163D01*
X156940370Y-245280704D01*
X156914154Y-245283811D01*
X156886933Y-245285484D01*
X156868227Y-245285803D01*
X156840018Y-245284897D01*
X156812729Y-245282179D01*
X156786357Y-245277650D01*
X156760905Y-245271308D01*
X156736372Y-245263155D01*
X156712757Y-245253191D01*
X156690061Y-245241414D01*
X156668284Y-245227826D01*
X156647425Y-245212425D01*
X156627486Y-245195213D01*
X156614703Y-245182732D01*
X156596807Y-245162459D01*
X156580671Y-245141207D01*
X156566296Y-245118976D01*
X156553680Y-245095767D01*
X156542825Y-245071578D01*
X156533731Y-245046410D01*
X156526396Y-245020264D01*
X156520822Y-244993139D01*
X156517008Y-244965035D01*
X156514955Y-244935952D01*
X156514563Y-244916019D01*
X156515147Y-244889698D01*
X156516899Y-244864346D01*
X156519818Y-244839964D01*
X156523906Y-244816551D01*
X156529161Y-244794108D01*
X156535584Y-244772633D01*
X156543174Y-244752128D01*
X156551933Y-244732593D01*
X156561859Y-244714026D01*
X156572953Y-244696429D01*
X156585214Y-244679802D01*
X156598644Y-244664144D01*
X156613241Y-244649455D01*
X156629006Y-244635735D01*
X156645939Y-244622985D01*
X156664040Y-244611204D01*
X156681276Y-244601863D01*
X156700196Y-244593441D01*
X156720798Y-244585938D01*
X156743083Y-244579353D01*
X156767051Y-244573687D01*
X156792703Y-244568940D01*
X156820037Y-244565112D01*
X156849054Y-244562203D01*
X156869334Y-244560774D01*
X156890362Y-244559753D01*
X156912137Y-244559140D01*
X156934661Y-244558936D01*
G37*
G36*
X172645687Y-244406528D02*
G01*
X171770321Y-244406528D01*
X171770321Y-244477359D01*
X171770540Y-244507307D01*
X171771198Y-244536824D01*
X171772295Y-244565910D01*
X171773831Y-244594565D01*
X171775806Y-244622788D01*
X171778220Y-244650580D01*
X171781073Y-244677941D01*
X171784364Y-244704871D01*
X171788095Y-244731370D01*
X171792264Y-244757437D01*
X171796872Y-244783073D01*
X171801919Y-244808277D01*
X171807405Y-244833051D01*
X171813330Y-244857393D01*
X171819694Y-244881304D01*
X171826496Y-244904784D01*
X171833629Y-244926193D01*
X171841349Y-244947435D01*
X171849657Y-244968508D01*
X171858553Y-244989414D01*
X171868037Y-245010152D01*
X171878108Y-245030722D01*
X171888767Y-245051123D01*
X171900013Y-245071357D01*
X171911848Y-245091424D01*
X171924270Y-245111322D01*
X171937280Y-245131052D01*
X171950877Y-245150614D01*
X171965062Y-245170009D01*
X171979835Y-245189235D01*
X171995196Y-245208294D01*
X172011144Y-245227184D01*
X172029679Y-245247861D01*
X172048526Y-245267881D01*
X172067686Y-245287245D01*
X172087157Y-245305953D01*
X172106940Y-245324004D01*
X172127035Y-245341398D01*
X172147442Y-245358137D01*
X172168162Y-245374219D01*
X172189193Y-245389644D01*
X172210536Y-245404413D01*
X172232191Y-245418526D01*
X172254158Y-245431982D01*
X172276437Y-245444782D01*
X172299028Y-245456925D01*
X172321931Y-245468412D01*
X172345146Y-245479243D01*
X172368673Y-245489417D01*
X172392512Y-245498935D01*
X172416663Y-245507797D01*
X172441126Y-245516002D01*
X172465901Y-245523550D01*
X172490988Y-245530442D01*
X172516387Y-245536678D01*
X172542097Y-245542258D01*
X172568120Y-245547181D01*
X172594455Y-245551447D01*
X172621102Y-245555058D01*
X172648061Y-245558011D01*
X172675331Y-245560309D01*
X172702914Y-245561950D01*
X172730809Y-245562934D01*
X172759016Y-245563263D01*
X172786582Y-245562946D01*
X172813900Y-245561996D01*
X172840968Y-245560412D01*
X172867788Y-245558195D01*
X172894358Y-245555344D01*
X172920680Y-245551859D01*
X172946752Y-245547742D01*
X172972575Y-245542990D01*
X172998150Y-245537606D01*
X173023475Y-245531587D01*
X173048552Y-245524936D01*
X173073379Y-245517650D01*
X173097957Y-245509731D01*
X173122287Y-245501179D01*
X173146367Y-245491993D01*
X173170198Y-245482174D01*
X173193781Y-245471721D01*
X173217114Y-245460635D01*
X173240198Y-245448915D01*
X173263034Y-245436562D01*
X173285620Y-245423575D01*
X173307957Y-245409954D01*
X173330045Y-245395701D01*
X173351885Y-245380813D01*
X173373475Y-245365292D01*
X173394816Y-245349138D01*
X173415908Y-245332350D01*
X173436751Y-245314929D01*
X173457345Y-245296874D01*
X173477691Y-245278185D01*
X173497787Y-245258863D01*
X173517634Y-245238908D01*
X173537078Y-245218448D01*
X173555906Y-245197734D01*
X173574115Y-245176766D01*
X173591708Y-245155545D01*
X173608683Y-245134070D01*
X173625042Y-245112341D01*
X173640782Y-245090358D01*
X173655906Y-245068121D01*
X173670412Y-245045631D01*
X173684301Y-245022887D01*
X173697573Y-244999889D01*
X173710227Y-244976637D01*
X173722264Y-244953132D01*
X173733684Y-244929372D01*
X173744486Y-244905359D01*
X173754672Y-244881092D01*
X173764239Y-244856572D01*
X173773190Y-244831797D01*
X173781523Y-244806769D01*
X173789240Y-244781487D01*
X173796338Y-244755951D01*
X173802820Y-244730162D01*
X173808684Y-244704118D01*
X173813931Y-244677821D01*
X173818561Y-244651270D01*
X173822573Y-244624466D01*
X173825968Y-244597407D01*
X173828746Y-244570095D01*
X173830906Y-244542529D01*
X173832450Y-244514709D01*
X173833375Y-244486635D01*
X173833684Y-244458308D01*
X173833370Y-244429351D01*
X173832429Y-244400670D01*
X173830859Y-244372267D01*
X173828662Y-244344140D01*
X173825837Y-244316289D01*
X173822384Y-244288716D01*
X173818303Y-244261419D01*
X173813595Y-244234398D01*
X173808259Y-244207655D01*
X173802295Y-244181188D01*
X173795703Y-244154997D01*
X173788484Y-244129084D01*
X173780637Y-244103447D01*
X173772162Y-244078087D01*
X173763059Y-244053003D01*
X173753328Y-244028196D01*
X173742970Y-244003666D01*
X173731984Y-243979413D01*
X173720370Y-243955436D01*
X173708128Y-243931736D01*
X173695258Y-243908312D01*
X173681761Y-243885165D01*
X173667636Y-243862295D01*
X173652883Y-243839702D01*
X173637503Y-243817385D01*
X173621494Y-243795345D01*
X173604858Y-243773582D01*
X173587594Y-243752095D01*
X173569702Y-243730885D01*
X173551183Y-243709952D01*
X173532036Y-243689295D01*
X173512260Y-243668915D01*
X173492036Y-243648900D01*
X173471541Y-243629519D01*
X173450774Y-243610775D01*
X173429737Y-243592665D01*
X173408429Y-243575192D01*
X173386849Y-243558353D01*
X173364999Y-243542150D01*
X173342878Y-243526583D01*
X173320486Y-243511650D01*
X173297823Y-243497354D01*
X173274889Y-243483692D01*
X173251684Y-243470666D01*
X173228208Y-243458276D01*
X173204461Y-243446521D01*
X173180443Y-243435401D01*
X173156154Y-243424916D01*
X173131595Y-243415068D01*
X173106764Y-243405854D01*
X173081662Y-243397276D01*
X173056290Y-243389333D01*
X173030646Y-243382026D01*
X173004731Y-243375354D01*
X172978546Y-243369318D01*
X172952090Y-243363917D01*
X172925362Y-243359151D01*
X172898364Y-243355021D01*
X172871094Y-243351526D01*
X172843554Y-243348667D01*
X172815743Y-243346443D01*
X172787661Y-243344854D01*
X172759307Y-243343901D01*
X172730683Y-243343584D01*
X172699855Y-243343990D01*
X172669287Y-243345209D01*
X172638978Y-243347242D01*
X172608928Y-243350087D01*
X172579138Y-243353744D01*
X172549608Y-243358215D01*
X172520337Y-243363499D01*
X172491325Y-243369595D01*
X172462573Y-243376505D01*
X172434081Y-243384227D01*
X172405848Y-243392762D01*
X172377875Y-243402110D01*
X172350161Y-243412271D01*
X172322706Y-243423245D01*
X172295511Y-243435032D01*
X172268576Y-243447631D01*
X172242957Y-243461083D01*
X172217392Y-243475551D01*
X172191880Y-243491034D01*
X172166421Y-243507532D01*
X172141016Y-243525045D01*
X172115665Y-243543573D01*
X172090366Y-243563116D01*
X172065122Y-243583674D01*
X172039930Y-243605248D01*
X172014792Y-243627836D01*
X171989708Y-243651440D01*
X171964677Y-243676059D01*
X171939699Y-243701693D01*
X171914775Y-243728342D01*
X171889904Y-243756007D01*
X171865087Y-243784686D01*
X172092721Y-244001574D01*
X172109135Y-243980326D01*
X172125770Y-243959753D01*
X172142627Y-243939854D01*
X172159705Y-243920630D01*
X172177004Y-243902081D01*
X172194525Y-243884206D01*
X172212266Y-243867005D01*
X172230230Y-243850479D01*
X172248414Y-243834628D01*
X172266820Y-243819451D01*
X172285448Y-243804948D01*
X172304296Y-243791120D01*
X172323366Y-243777967D01*
X172342658Y-243765488D01*
X172362171Y-243753684D01*
X172381905Y-243742554D01*
X172401860Y-243732099D01*
X172422037Y-243722318D01*
X172442435Y-243713212D01*
X172463054Y-243704781D01*
X172483895Y-243697024D01*
X172504957Y-243689941D01*
X172526241Y-243683533D01*
X172547745Y-243677799D01*
X172569472Y-243672740D01*
X172591419Y-243668356D01*
X172613588Y-243664646D01*
X172635978Y-243661611D01*
X172658590Y-243659250D01*
X172681423Y-243657563D01*
X172704477Y-243656552D01*
X172727752Y-243656214D01*
X172748651Y-243656441D01*
X172769339Y-243657119D01*
X172789814Y-243658249D01*
X172810078Y-243659832D01*
X172830129Y-243661867D01*
X172849969Y-243664355D01*
X172869597Y-243667294D01*
X172889014Y-243670686D01*
X172908218Y-243674530D01*
X172945992Y-243683574D01*
X172982919Y-243694428D01*
X173018998Y-243707090D01*
X173054230Y-243721562D01*
X173088615Y-243737842D01*
X173122152Y-243755931D01*
X173154843Y-243775830D01*
X173186686Y-243797537D01*
X173217682Y-243821053D01*
X173232862Y-243833489D01*
X173247830Y-243846378D01*
X173262587Y-243859718D01*
X173277132Y-243873511D01*
X173291465Y-243887757D01*
X173305470Y-243902065D01*
X173319030Y-243916598D01*
X173332146Y-243931355D01*
X173344817Y-243946337D01*
X173368825Y-243976972D01*
X173391055Y-244008504D01*
X173411507Y-244040933D01*
X173430180Y-244074259D01*
X173447074Y-244108482D01*
X173462191Y-244143601D01*
X173475529Y-244179617D01*
X173487088Y-244216530D01*
X173496869Y-244254340D01*
X173501093Y-244273582D01*
X173504872Y-244293047D01*
X173508207Y-244312737D01*
X173511097Y-244332651D01*
X173513542Y-244352789D01*
X173515543Y-244373151D01*
X173517099Y-244393738D01*
X173518210Y-244414548D01*
X173518877Y-244435583D01*
X173519099Y-244456842D01*
X173518852Y-244478824D01*
X173518109Y-244500560D01*
X173516871Y-244522051D01*
X173515138Y-244543297D01*
X173512910Y-244564297D01*
X173510186Y-244585053D01*
X173506968Y-244605563D01*
X173503254Y-244625828D01*
X173499045Y-244645848D01*
X173494341Y-244665622D01*
X173489142Y-244685152D01*
X173483447Y-244704436D01*
X173477258Y-244723475D01*
X173470573Y-244742269D01*
X173463393Y-244760817D01*
X173455718Y-244779121D01*
X173447548Y-244797179D01*
X173438883Y-244814992D01*
X173429722Y-244832560D01*
X173420066Y-244849883D01*
X173409916Y-244866960D01*
X173399270Y-244883792D01*
X173388128Y-244900379D01*
X173376492Y-244916721D01*
X173364360Y-244932818D01*
X173351734Y-244948669D01*
X173338612Y-244964276D01*
X173324995Y-244979637D01*
X173310883Y-244994753D01*
X173296275Y-245009623D01*
X173281173Y-245024249D01*
X173265575Y-245038629D01*
X173250699Y-245051672D01*
X173235745Y-245064301D01*
X173205606Y-245088317D01*
X173175158Y-245110677D01*
X173144400Y-245131380D01*
X173113334Y-245150427D01*
X173081958Y-245167818D01*
X173050273Y-245183553D01*
X173018279Y-245197631D01*
X172985976Y-245210053D01*
X172953364Y-245220819D01*
X172920443Y-245229928D01*
X172887213Y-245237382D01*
X172853673Y-245243179D01*
X172819824Y-245247319D01*
X172785667Y-245249804D01*
X172751200Y-245250632D01*
X172721896Y-245250023D01*
X172692971Y-245248197D01*
X172664423Y-245245153D01*
X172636253Y-245240893D01*
X172608461Y-245235414D01*
X172581046Y-245228719D01*
X172554010Y-245220805D01*
X172527351Y-245211675D01*
X172501070Y-245201327D01*
X172475167Y-245189762D01*
X172449642Y-245176979D01*
X172424494Y-245162979D01*
X172399725Y-245147762D01*
X172375333Y-245131327D01*
X172351319Y-245113674D01*
X172327683Y-245094805D01*
X172304823Y-245074962D01*
X172283261Y-245054634D01*
X172262996Y-245033822D01*
X172244030Y-245012525D01*
X172226360Y-244990744D01*
X172209988Y-244968478D01*
X172194914Y-244945727D01*
X172181137Y-244922491D01*
X172168658Y-244898771D01*
X172157476Y-244874566D01*
X172147592Y-244849877D01*
X172139005Y-244824703D01*
X172131716Y-244799044D01*
X172125724Y-244772900D01*
X172121030Y-244746272D01*
X172117634Y-244719159D01*
X172645687Y-244719159D01*
X172645687Y-244406528D01*
G37*
G36*
X171381486Y-245532000D02*
G01*
X171381486Y-243262006D01*
X169849595Y-244883290D01*
X169849595Y-243406110D01*
X169535010Y-243406110D01*
X169535010Y-245660960D01*
X171066901Y-244043584D01*
X171066901Y-245532000D01*
X171381486Y-245532000D01*
G37*
G36*
X169019169Y-245532000D02*
G01*
X168583440Y-245532000D01*
X168563555Y-245531942D01*
X168543955Y-245531769D01*
X168505610Y-245531076D01*
X168468407Y-245529922D01*
X168432345Y-245528305D01*
X168397424Y-245526227D01*
X168363644Y-245523688D01*
X168331005Y-245520686D01*
X168299508Y-245517223D01*
X168269151Y-245513298D01*
X168239935Y-245508911D01*
X168211861Y-245504062D01*
X168184927Y-245498752D01*
X168159135Y-245492980D01*
X168134483Y-245486746D01*
X168110973Y-245480050D01*
X168088604Y-245472893D01*
X168065282Y-245465087D01*
X168042091Y-245456567D01*
X168019029Y-245447333D01*
X167996097Y-245437386D01*
X167973294Y-245426725D01*
X167950622Y-245415351D01*
X167928079Y-245403263D01*
X167905666Y-245390461D01*
X167883383Y-245376945D01*
X167861229Y-245362716D01*
X167839205Y-245347774D01*
X167817311Y-245332117D01*
X167795547Y-245315747D01*
X167773912Y-245298664D01*
X167752407Y-245280866D01*
X167731032Y-245262355D01*
X167710145Y-245243243D01*
X167689921Y-245223765D01*
X167670360Y-245203920D01*
X167651463Y-245183709D01*
X167633228Y-245163132D01*
X167615656Y-245142188D01*
X167598748Y-245120878D01*
X167582502Y-245099201D01*
X167566920Y-245077158D01*
X167552000Y-245054749D01*
X167537744Y-245031973D01*
X167524151Y-245008831D01*
X167511221Y-244985323D01*
X167498954Y-244961448D01*
X167487350Y-244937207D01*
X167476409Y-244912600D01*
X167466131Y-244887626D01*
X167456517Y-244862286D01*
X167447565Y-244836579D01*
X167439277Y-244810506D01*
X167431651Y-244784067D01*
X167424689Y-244757261D01*
X167418390Y-244730089D01*
X167412753Y-244702551D01*
X167407780Y-244674646D01*
X167403470Y-244646375D01*
X167399823Y-244617737D01*
X167396839Y-244588734D01*
X167394519Y-244559363D01*
X167392861Y-244529627D01*
X167391866Y-244499524D01*
X167391540Y-244469543D01*
X167706120Y-244469543D01*
X167706351Y-244490758D01*
X167707045Y-244511723D01*
X167708202Y-244532436D01*
X167709821Y-244552899D01*
X167711904Y-244573110D01*
X167714449Y-244593071D01*
X167717456Y-244612781D01*
X167720927Y-244632239D01*
X167729256Y-244670404D01*
X167739436Y-244707565D01*
X167751467Y-244743723D01*
X167765348Y-244778877D01*
X167781081Y-244813027D01*
X167798665Y-244846173D01*
X167818099Y-244878316D01*
X167839385Y-244909455D01*
X167862521Y-244939590D01*
X167887508Y-244968722D01*
X167914346Y-244996850D01*
X167928459Y-245010538D01*
X167943035Y-245023974D01*
X167957554Y-245036641D01*
X167979741Y-245054824D01*
X168002417Y-245072029D01*
X168025582Y-245088255D01*
X168049237Y-245103502D01*
X168073381Y-245117770D01*
X168098015Y-245131060D01*
X168123138Y-245143370D01*
X168148751Y-245154702D01*
X168174853Y-245165054D01*
X168201444Y-245174428D01*
X168210460Y-245177193D01*
X168238355Y-245184961D01*
X168257658Y-245189701D01*
X168277526Y-245194090D01*
X168297958Y-245198127D01*
X168318955Y-245201814D01*
X168340517Y-245205149D01*
X168362644Y-245208133D01*
X168385336Y-245210767D01*
X168408592Y-245213049D01*
X168432414Y-245214980D01*
X168456800Y-245216560D01*
X168481751Y-245217789D01*
X168507267Y-245218666D01*
X168533347Y-245219193D01*
X168559993Y-245219369D01*
X168704584Y-245219369D01*
X168704584Y-243718741D01*
X168559993Y-243718741D01*
X168534573Y-243718928D01*
X168509543Y-243719489D01*
X168484904Y-243720424D01*
X168460654Y-243721733D01*
X168436795Y-243723416D01*
X168413327Y-243725473D01*
X168390248Y-243727904D01*
X168367560Y-243730709D01*
X168345262Y-243733887D01*
X168323354Y-243737440D01*
X168301836Y-243741367D01*
X168280708Y-243745668D01*
X168259971Y-243750343D01*
X168239624Y-243755392D01*
X168219667Y-243760815D01*
X168200101Y-243766612D01*
X168180924Y-243772783D01*
X168162138Y-243779328D01*
X168125736Y-243793540D01*
X168090896Y-243809248D01*
X168057616Y-243826452D01*
X168025896Y-243845152D01*
X167995738Y-243865347D01*
X167967141Y-243887039D01*
X167940104Y-243910227D01*
X167925709Y-243923728D01*
X167911770Y-243937485D01*
X167885264Y-243965769D01*
X167860586Y-243995080D01*
X167837736Y-244025418D01*
X167816714Y-244056782D01*
X167797520Y-244089173D01*
X167780154Y-244122590D01*
X167764616Y-244157034D01*
X167750906Y-244192505D01*
X167739024Y-244229002D01*
X167728970Y-244266526D01*
X167724628Y-244285673D01*
X167720744Y-244305076D01*
X167717316Y-244324736D01*
X167714346Y-244344653D01*
X167711832Y-244364826D01*
X167709776Y-244385256D01*
X167708176Y-244405943D01*
X167707034Y-244426886D01*
X167706348Y-244448086D01*
X167706120Y-244469543D01*
X167391540Y-244469543D01*
X167391535Y-244469055D01*
X167391853Y-244438678D01*
X167392807Y-244408671D01*
X167394398Y-244379033D01*
X167396626Y-244349765D01*
X167399489Y-244320866D01*
X167402989Y-244292335D01*
X167407126Y-244264174D01*
X167411898Y-244236383D01*
X167417308Y-244208960D01*
X167423353Y-244181907D01*
X167430035Y-244155223D01*
X167437353Y-244128908D01*
X167445308Y-244102963D01*
X167453899Y-244077386D01*
X167463126Y-244052179D01*
X167472990Y-244027341D01*
X167483490Y-244002873D01*
X167494626Y-243978773D01*
X167506399Y-243955043D01*
X167518808Y-243931682D01*
X167531854Y-243908690D01*
X167545536Y-243886068D01*
X167559854Y-243863815D01*
X167574808Y-243841931D01*
X167590399Y-243820416D01*
X167606627Y-243799270D01*
X167623491Y-243778494D01*
X167640991Y-243758087D01*
X167659127Y-243738049D01*
X167677900Y-243718380D01*
X167697309Y-243699080D01*
X167717355Y-243680150D01*
X167737646Y-243661924D01*
X167758220Y-243644369D01*
X167779076Y-243627485D01*
X167800214Y-243611274D01*
X167821635Y-243595734D01*
X167843338Y-243580866D01*
X167865324Y-243566669D01*
X167887592Y-243553144D01*
X167910142Y-243540291D01*
X167932975Y-243528109D01*
X167956091Y-243516599D01*
X167979488Y-243505761D01*
X168003168Y-243495594D01*
X168027131Y-243486099D01*
X168051376Y-243477276D01*
X168075903Y-243469124D01*
X168087543Y-243465248D01*
X168111605Y-243457863D01*
X168136709Y-243450971D01*
X168162854Y-243444571D01*
X168190041Y-243438663D01*
X168218271Y-243433248D01*
X168247542Y-243428325D01*
X168277854Y-243423894D01*
X168309209Y-243419956D01*
X168341606Y-243416510D01*
X168375044Y-243413556D01*
X168409524Y-243411094D01*
X168445046Y-243409125D01*
X168481610Y-243407648D01*
X168519216Y-243406664D01*
X168557864Y-243406171D01*
X168577578Y-243406110D01*
X169019169Y-243406110D01*
X169019169Y-245532000D01*
G37*
G36*
X160555317Y-325711936D02*
G01*
X160555317Y-325434476D01*
X160530856Y-325434295D01*
X160507423Y-325433751D01*
X160485015Y-325432845D01*
X160463634Y-325431576D01*
X160443280Y-325429944D01*
X160414674Y-325426817D01*
X160388377Y-325422875D01*
X160364390Y-325418116D01*
X160342713Y-325412542D01*
X160323346Y-325406152D01*
X160301116Y-325396363D01*
X160287138Y-325388070D01*
X160265227Y-325371898D01*
X160245470Y-325353975D01*
X160227869Y-325334300D01*
X160212423Y-325312874D01*
X160199132Y-325289695D01*
X160187997Y-325264766D01*
X160179017Y-325238084D01*
X160172192Y-325209651D01*
X160168839Y-325189722D01*
X160166444Y-325169015D01*
X160165007Y-325147529D01*
X160164528Y-325125265D01*
X160165314Y-325099616D01*
X160167671Y-325074878D01*
X160171600Y-325051050D01*
X160177099Y-325028132D01*
X160184170Y-325006125D01*
X160192813Y-324985027D01*
X160203027Y-324964840D01*
X160214812Y-324945563D01*
X160228169Y-324927196D01*
X160243096Y-324909739D01*
X160253921Y-324898607D01*
X160270959Y-324882632D01*
X160288915Y-324868228D01*
X160307790Y-324855395D01*
X160327583Y-324844134D01*
X160348296Y-324834443D01*
X160369927Y-324826325D01*
X160392477Y-324819777D01*
X160415946Y-324814801D01*
X160440333Y-324811397D01*
X160465640Y-324809564D01*
X160483021Y-324809214D01*
X160507052Y-324809803D01*
X160530053Y-324811567D01*
X160552024Y-324814508D01*
X160572964Y-324818625D01*
X160592873Y-324823919D01*
X160611752Y-324830389D01*
X160635322Y-324840846D01*
X160657059Y-324853394D01*
X160676965Y-324868033D01*
X160686231Y-324876137D01*
X160702901Y-324894448D01*
X160714682Y-324910094D01*
X160725844Y-324927380D01*
X160736389Y-324946307D01*
X160746315Y-324966873D01*
X160755623Y-324989080D01*
X160764313Y-325012926D01*
X160772384Y-325038413D01*
X160779837Y-325065540D01*
X160784463Y-325084535D01*
X160788813Y-325104260D01*
X161106329Y-325104260D01*
X161099757Y-325067816D01*
X161092377Y-325032613D01*
X161084187Y-324998650D01*
X161075188Y-324965927D01*
X161065380Y-324934444D01*
X161054763Y-324904202D01*
X161043337Y-324875200D01*
X161031102Y-324847438D01*
X161018058Y-324820917D01*
X161004205Y-324795636D01*
X160989543Y-324771595D01*
X160974071Y-324748795D01*
X160957791Y-324727235D01*
X160940702Y-324706915D01*
X160922803Y-324687835D01*
X160904096Y-324669996D01*
X160884507Y-324653256D01*
X160863964Y-324637596D01*
X160842466Y-324623016D01*
X160820015Y-324609515D01*
X160796610Y-324597095D01*
X160772250Y-324585755D01*
X160746937Y-324575495D01*
X160720669Y-324566315D01*
X160693448Y-324558215D01*
X160665272Y-324551195D01*
X160636142Y-324545255D01*
X160606058Y-324540395D01*
X160575021Y-324536615D01*
X160543029Y-324533915D01*
X160510082Y-324532295D01*
X160476182Y-324531755D01*
X160441962Y-324532403D01*
X160408542Y-324534350D01*
X160375924Y-324537593D01*
X160344108Y-324542135D01*
X160313093Y-324547974D01*
X160282879Y-324555110D01*
X160253467Y-324563544D01*
X160224856Y-324573276D01*
X160197047Y-324584305D01*
X160170039Y-324596632D01*
X160143833Y-324610256D01*
X160118428Y-324625177D01*
X160093824Y-324641397D01*
X160070022Y-324658913D01*
X160047021Y-324677728D01*
X160024822Y-324697840D01*
X160003645Y-324718671D01*
X159983835Y-324740254D01*
X159965390Y-324762589D01*
X159948312Y-324785676D01*
X159932601Y-324809514D01*
X159918255Y-324834104D01*
X159905276Y-324859446D01*
X159893663Y-324885540D01*
X159883416Y-324912386D01*
X159874536Y-324939984D01*
X159867022Y-324968333D01*
X159860874Y-324997434D01*
X159856092Y-325027287D01*
X159852676Y-325057892D01*
X159850627Y-325089248D01*
X159849944Y-325121357D01*
X159850858Y-325157367D01*
X159853600Y-325192370D01*
X159858170Y-325226366D01*
X159864568Y-325259354D01*
X159872794Y-325291335D01*
X159882848Y-325322308D01*
X159894730Y-325352273D01*
X159908440Y-325381231D01*
X159923978Y-325409182D01*
X159941344Y-325436125D01*
X159960538Y-325462060D01*
X159981560Y-325486988D01*
X160004410Y-325510909D01*
X160029088Y-325533822D01*
X160055594Y-325555727D01*
X160083928Y-325576625D01*
X160052045Y-325596548D01*
X160022219Y-325617971D01*
X159994450Y-325640894D01*
X159968737Y-325665316D01*
X159945082Y-325691238D01*
X159923484Y-325718660D01*
X159903942Y-325747582D01*
X159886458Y-325778004D01*
X159871031Y-325809925D01*
X159857660Y-325843346D01*
X159846347Y-325878267D01*
X159837090Y-325914688D01*
X159829891Y-325952609D01*
X159827063Y-325972131D01*
X159824748Y-325992029D01*
X159822949Y-326012302D01*
X159821663Y-326032949D01*
X159820892Y-326053972D01*
X159820635Y-326075369D01*
X159821381Y-326110260D01*
X159823619Y-326144345D01*
X159827349Y-326177625D01*
X159832572Y-326210100D01*
X159839287Y-326241769D01*
X159847494Y-326272634D01*
X159857193Y-326302693D01*
X159868384Y-326331946D01*
X159881067Y-326360395D01*
X159895243Y-326388038D01*
X159910911Y-326414876D01*
X159928071Y-326440909D01*
X159946723Y-326466137D01*
X159966867Y-326490559D01*
X159988504Y-326514176D01*
X160011632Y-326536988D01*
X160035866Y-326558697D01*
X160060939Y-326579006D01*
X160086852Y-326597914D01*
X160113604Y-326615421D01*
X160141196Y-326631527D01*
X160169627Y-326646234D01*
X160198898Y-326659539D01*
X160229009Y-326671444D01*
X160259959Y-326681948D01*
X160291748Y-326691052D01*
X160324378Y-326698755D01*
X160357847Y-326705058D01*
X160392155Y-326709960D01*
X160427303Y-326713461D01*
X160463291Y-326715562D01*
X160500118Y-326716263D01*
X160523679Y-326715994D01*
X160546858Y-326715188D01*
X160569654Y-326713845D01*
X160592068Y-326711965D01*
X160614099Y-326709548D01*
X160635747Y-326706594D01*
X160657013Y-326703103D01*
X160677896Y-326699074D01*
X160698397Y-326694508D01*
X160718515Y-326689405D01*
X160738251Y-326683765D01*
X160757604Y-326677588D01*
X160776574Y-326670874D01*
X160795162Y-326663623D01*
X160813367Y-326655834D01*
X160831189Y-326647508D01*
X160848629Y-326638645D01*
X160882362Y-326619308D01*
X160914563Y-326597822D01*
X160945235Y-326574188D01*
X160974376Y-326548405D01*
X160988373Y-326534708D01*
X161001987Y-326520474D01*
X161015219Y-326505702D01*
X161028068Y-326490394D01*
X161040534Y-326474548D01*
X161052618Y-326458165D01*
X161064319Y-326441245D01*
X161078118Y-326418848D01*
X161090938Y-326394889D01*
X161102779Y-326369366D01*
X161113641Y-326342281D01*
X161120338Y-326323356D01*
X161126601Y-326303736D01*
X161132429Y-326283422D01*
X161137821Y-326262414D01*
X161142778Y-326240710D01*
X161147301Y-326218312D01*
X161151388Y-326195220D01*
X161155040Y-326171433D01*
X161158257Y-326146952D01*
X161161039Y-326121775D01*
X160853293Y-326121775D01*
X160848017Y-326149991D01*
X160841530Y-326176936D01*
X160833832Y-326202610D01*
X160824923Y-326227014D01*
X160814804Y-326250146D01*
X160803473Y-326272008D01*
X160790933Y-326292599D01*
X160777181Y-326311919D01*
X160762219Y-326329968D01*
X160746046Y-326346746D01*
X160734591Y-326357226D01*
X160716412Y-326371804D01*
X160697228Y-326384949D01*
X160677039Y-326396660D01*
X160655846Y-326406937D01*
X160633648Y-326415779D01*
X160610445Y-326423188D01*
X160586238Y-326429163D01*
X160561026Y-326433704D01*
X160534810Y-326436811D01*
X160507589Y-326438484D01*
X160488883Y-326438803D01*
X160460674Y-326437897D01*
X160433384Y-326435179D01*
X160407013Y-326430650D01*
X160381561Y-326424308D01*
X160357028Y-326416155D01*
X160333413Y-326406191D01*
X160310717Y-326394414D01*
X160288940Y-326380826D01*
X160268081Y-326365425D01*
X160248142Y-326348213D01*
X160235359Y-326335732D01*
X160217463Y-326315459D01*
X160201327Y-326294207D01*
X160186952Y-326271976D01*
X160174336Y-326248767D01*
X160163481Y-326224578D01*
X160154387Y-326199410D01*
X160147052Y-326173264D01*
X160141478Y-326146139D01*
X160137664Y-326118035D01*
X160135610Y-326088952D01*
X160135219Y-326069019D01*
X160135803Y-326042698D01*
X160137555Y-326017346D01*
X160140474Y-325992964D01*
X160144562Y-325969551D01*
X160149817Y-325947108D01*
X160156239Y-325925633D01*
X160163830Y-325905128D01*
X160172588Y-325885593D01*
X160182515Y-325867026D01*
X160193609Y-325849429D01*
X160205870Y-325832802D01*
X160219300Y-325817144D01*
X160233897Y-325802455D01*
X160249662Y-325788735D01*
X160266595Y-325775985D01*
X160284696Y-325764204D01*
X160301932Y-325754863D01*
X160320852Y-325746441D01*
X160341454Y-325738938D01*
X160363739Y-325732353D01*
X160387707Y-325726687D01*
X160413358Y-325721940D01*
X160440693Y-325718112D01*
X160469710Y-325715203D01*
X160489990Y-325713774D01*
X160511017Y-325712753D01*
X160532793Y-325712140D01*
X160555317Y-325711936D01*
G37*
G36*
X159203189Y-324559110D02*
G01*
X158619448Y-326029452D01*
X158027404Y-324559110D01*
X157678625Y-324559110D01*
X158626287Y-326839849D01*
X159551967Y-324559110D01*
X159203189Y-324559110D01*
G37*
G36*
X156934661Y-325711936D02*
G01*
X156934661Y-325434476D01*
X156910201Y-325434295D01*
X156886767Y-325433751D01*
X156864359Y-325432845D01*
X156842978Y-325431576D01*
X156822624Y-325429944D01*
X156794018Y-325426817D01*
X156767721Y-325422875D01*
X156743734Y-325418116D01*
X156722057Y-325412542D01*
X156702690Y-325406152D01*
X156680460Y-325396363D01*
X156666482Y-325388070D01*
X156644571Y-325371898D01*
X156624814Y-325353975D01*
X156607213Y-325334300D01*
X156591767Y-325312874D01*
X156578476Y-325289695D01*
X156567341Y-325264766D01*
X156558361Y-325238084D01*
X156551536Y-325209651D01*
X156548183Y-325189722D01*
X156545788Y-325169015D01*
X156544351Y-325147529D01*
X156543872Y-325125265D01*
X156544658Y-325099616D01*
X156547015Y-325074878D01*
X156550944Y-325051050D01*
X156556443Y-325028132D01*
X156563514Y-325006125D01*
X156572157Y-324985027D01*
X156582371Y-324964840D01*
X156594156Y-324945563D01*
X156607513Y-324927196D01*
X156622440Y-324909739D01*
X156633265Y-324898607D01*
X156650303Y-324882632D01*
X156668259Y-324868228D01*
X156687134Y-324855395D01*
X156706927Y-324844134D01*
X156727640Y-324834443D01*
X156749271Y-324826325D01*
X156771821Y-324819777D01*
X156795290Y-324814801D01*
X156819678Y-324811397D01*
X156844984Y-324809564D01*
X156862365Y-324809214D01*
X156886396Y-324809803D01*
X156909397Y-324811567D01*
X156931368Y-324814508D01*
X156952308Y-324818625D01*
X156972217Y-324823919D01*
X156991096Y-324830389D01*
X157014666Y-324840846D01*
X157036403Y-324853394D01*
X157056309Y-324868033D01*
X157065575Y-324876137D01*
X157082245Y-324894448D01*
X157094026Y-324910094D01*
X157105188Y-324927380D01*
X157115733Y-324946307D01*
X157125659Y-324966873D01*
X157134967Y-324989080D01*
X157143657Y-325012926D01*
X157151728Y-325038413D01*
X157159181Y-325065540D01*
X157163807Y-325084535D01*
X157168157Y-325104260D01*
X157485673Y-325104260D01*
X157479101Y-325067816D01*
X157471721Y-325032613D01*
X157463531Y-324998650D01*
X157454532Y-324965927D01*
X157444724Y-324934444D01*
X157434107Y-324904202D01*
X157422681Y-324875200D01*
X157410446Y-324847438D01*
X157397402Y-324820917D01*
X157383549Y-324795636D01*
X157368887Y-324771595D01*
X157353415Y-324748795D01*
X157337135Y-324727235D01*
X157320046Y-324706915D01*
X157302147Y-324687835D01*
X157283440Y-324669996D01*
X157263851Y-324653256D01*
X157243308Y-324637596D01*
X157221810Y-324623016D01*
X157199359Y-324609515D01*
X157175954Y-324597095D01*
X157151594Y-324585755D01*
X157126281Y-324575495D01*
X157100013Y-324566315D01*
X157072792Y-324558215D01*
X157044616Y-324551195D01*
X157015486Y-324545255D01*
X156985403Y-324540395D01*
X156954365Y-324536615D01*
X156922373Y-324533915D01*
X156889427Y-324532295D01*
X156855526Y-324531755D01*
X156821306Y-324532403D01*
X156787886Y-324534350D01*
X156755268Y-324537593D01*
X156723452Y-324542135D01*
X156692437Y-324547974D01*
X156662223Y-324555110D01*
X156632811Y-324563544D01*
X156604200Y-324573276D01*
X156576391Y-324584305D01*
X156549383Y-324596632D01*
X156523177Y-324610256D01*
X156497772Y-324625177D01*
X156473168Y-324641397D01*
X156449366Y-324658913D01*
X156426365Y-324677728D01*
X156404166Y-324697840D01*
X156382989Y-324718671D01*
X156363179Y-324740254D01*
X156344734Y-324762589D01*
X156327657Y-324785676D01*
X156311945Y-324809514D01*
X156297599Y-324834104D01*
X156284620Y-324859446D01*
X156273007Y-324885540D01*
X156262760Y-324912386D01*
X156253880Y-324939984D01*
X156246366Y-324968333D01*
X156240218Y-324997434D01*
X156235436Y-325027287D01*
X156232020Y-325057892D01*
X156229971Y-325089248D01*
X156229288Y-325121357D01*
X156230202Y-325157367D01*
X156232944Y-325192370D01*
X156237514Y-325226366D01*
X156243912Y-325259354D01*
X156252138Y-325291335D01*
X156262192Y-325322308D01*
X156274074Y-325352273D01*
X156287784Y-325381231D01*
X156303322Y-325409182D01*
X156320688Y-325436125D01*
X156339882Y-325462060D01*
X156360904Y-325486988D01*
X156383754Y-325510909D01*
X156408432Y-325533822D01*
X156434938Y-325555727D01*
X156463272Y-325576625D01*
X156431389Y-325596548D01*
X156401563Y-325617971D01*
X156373794Y-325640894D01*
X156348081Y-325665316D01*
X156324426Y-325691238D01*
X156302828Y-325718660D01*
X156283286Y-325747582D01*
X156265802Y-325778004D01*
X156250375Y-325809925D01*
X156237004Y-325843346D01*
X156225691Y-325878267D01*
X156216434Y-325914688D01*
X156209235Y-325952609D01*
X156206407Y-325972131D01*
X156204093Y-325992029D01*
X156202293Y-326012302D01*
X156201007Y-326032949D01*
X156200236Y-326053972D01*
X156199979Y-326075369D01*
X156200725Y-326110260D01*
X156202963Y-326144345D01*
X156206693Y-326177625D01*
X156211916Y-326210100D01*
X156218631Y-326241769D01*
X156226838Y-326272634D01*
X156236537Y-326302693D01*
X156247728Y-326331946D01*
X156260411Y-326360395D01*
X156274587Y-326388038D01*
X156290255Y-326414876D01*
X156307415Y-326440909D01*
X156326067Y-326466137D01*
X156346211Y-326490559D01*
X156367848Y-326514176D01*
X156390976Y-326536988D01*
X156415210Y-326558697D01*
X156440283Y-326579006D01*
X156466196Y-326597914D01*
X156492948Y-326615421D01*
X156520540Y-326631527D01*
X156548971Y-326646234D01*
X156578242Y-326659539D01*
X156608353Y-326671444D01*
X156639303Y-326681948D01*
X156671092Y-326691052D01*
X156703722Y-326698755D01*
X156737191Y-326705058D01*
X156771499Y-326709960D01*
X156806647Y-326713461D01*
X156842635Y-326715562D01*
X156879462Y-326716263D01*
X156903023Y-326715994D01*
X156926202Y-326715188D01*
X156948998Y-326713845D01*
X156971412Y-326711965D01*
X156993443Y-326709548D01*
X157015091Y-326706594D01*
X157036357Y-326703103D01*
X157057240Y-326699074D01*
X157077741Y-326694508D01*
X157097859Y-326689405D01*
X157117595Y-326683765D01*
X157136948Y-326677588D01*
X157155918Y-326670874D01*
X157174506Y-326663623D01*
X157192711Y-326655834D01*
X157210533Y-326647508D01*
X157227973Y-326638645D01*
X157261706Y-326619308D01*
X157293907Y-326597822D01*
X157324579Y-326574188D01*
X157353720Y-326548405D01*
X157367717Y-326534708D01*
X157381331Y-326520474D01*
X157394563Y-326505702D01*
X157407412Y-326490394D01*
X157419878Y-326474548D01*
X157431962Y-326458165D01*
X157443663Y-326441245D01*
X157457462Y-326418848D01*
X157470282Y-326394889D01*
X157482123Y-326369366D01*
X157492985Y-326342281D01*
X157499683Y-326323356D01*
X157505945Y-326303736D01*
X157511773Y-326283422D01*
X157517165Y-326262414D01*
X157522122Y-326240710D01*
X157526645Y-326218312D01*
X157530732Y-326195220D01*
X157534384Y-326171433D01*
X157537601Y-326146952D01*
X157540383Y-326121775D01*
X157232637Y-326121775D01*
X157227361Y-326149991D01*
X157220874Y-326176936D01*
X157213176Y-326202610D01*
X157204267Y-326227014D01*
X157194148Y-326250146D01*
X157182818Y-326272008D01*
X157170277Y-326292599D01*
X157156525Y-326311919D01*
X157141563Y-326329968D01*
X157125390Y-326346746D01*
X157113935Y-326357226D01*
X157095756Y-326371804D01*
X157076572Y-326384949D01*
X157056383Y-326396660D01*
X157035190Y-326406937D01*
X157012992Y-326415779D01*
X156989789Y-326423188D01*
X156965582Y-326429163D01*
X156940370Y-326433704D01*
X156914154Y-326436811D01*
X156886933Y-326438484D01*
X156868227Y-326438803D01*
X156840018Y-326437897D01*
X156812729Y-326435179D01*
X156786357Y-326430650D01*
X156760905Y-326424308D01*
X156736372Y-326416155D01*
X156712757Y-326406191D01*
X156690061Y-326394414D01*
X156668284Y-326380826D01*
X156647425Y-326365425D01*
X156627486Y-326348213D01*
X156614703Y-326335732D01*
X156596807Y-326315459D01*
X156580671Y-326294207D01*
X156566296Y-326271976D01*
X156553680Y-326248767D01*
X156542825Y-326224578D01*
X156533731Y-326199410D01*
X156526396Y-326173264D01*
X156520822Y-326146139D01*
X156517008Y-326118035D01*
X156514955Y-326088952D01*
X156514563Y-326069019D01*
X156515147Y-326042698D01*
X156516899Y-326017346D01*
X156519818Y-325992964D01*
X156523906Y-325969551D01*
X156529161Y-325947108D01*
X156535584Y-325925633D01*
X156543174Y-325905128D01*
X156551933Y-325885593D01*
X156561859Y-325867026D01*
X156572953Y-325849429D01*
X156585214Y-325832802D01*
X156598644Y-325817144D01*
X156613241Y-325802455D01*
X156629006Y-325788735D01*
X156645939Y-325775985D01*
X156664040Y-325764204D01*
X156681276Y-325754863D01*
X156700196Y-325746441D01*
X156720798Y-325738938D01*
X156743083Y-325732353D01*
X156767051Y-325726687D01*
X156792703Y-325721940D01*
X156820037Y-325718112D01*
X156849054Y-325715203D01*
X156869334Y-325713774D01*
X156890362Y-325712753D01*
X156912137Y-325712140D01*
X156934661Y-325711936D01*
G37*
D13*
X176530000Y-172720000D03*
D14*
X176530000Y-175260000D03*
X176530000Y-177800000D03*
X176530000Y-180340000D03*
X176530000Y-182880000D03*
X176530000Y-185420000D03*
X176530000Y-187960000D03*
X176530000Y-190500000D03*
X176530000Y-193040000D03*
X176530000Y-195580000D03*
X176530000Y-198120000D03*
X176530000Y-200660000D03*
X176530000Y-203200000D03*
X176530000Y-205740000D03*
X176530000Y-208280000D03*
X176530000Y-210820000D03*
X176530000Y-213360000D03*
X176530000Y-215900000D03*
X176530000Y-218440000D03*
X176530000Y-220980000D03*
X176530000Y-223520000D03*
X176530000Y-226060000D03*
X176530000Y-228600000D03*
X176530000Y-231140000D03*
X176530000Y-233680000D03*
D13*
X179070000Y-90170000D03*
D14*
X179070000Y-92710000D03*
X179070000Y-95250000D03*
X179070000Y-97790000D03*
X179070000Y-100330000D03*
X179070000Y-102870000D03*
X179070000Y-105410000D03*
X179070000Y-107950000D03*
X179070000Y-110490000D03*
X179070000Y-113030000D03*
X179070000Y-115570000D03*
X179070000Y-118110000D03*
X179070000Y-120650000D03*
X179070000Y-123190000D03*
X179070000Y-125730000D03*
X179070000Y-128270000D03*
X179070000Y-130810000D03*
X179070000Y-133350000D03*
X179070000Y-135890000D03*
X179070000Y-138430000D03*
X179070000Y-140970000D03*
X179070000Y-143510000D03*
X179070000Y-146050000D03*
X179070000Y-148590000D03*
X179070000Y-151130000D03*
D15*
X153035000Y-66040000D03*
X177165000Y-66040000D03*
X177165000Y-250190000D03*
X153035000Y-238760000D03*
D13*
X151130000Y-334010000D03*
D14*
X153670000Y-334010000D03*
X156210000Y-334010000D03*
X158750000Y-334010000D03*
X161290000Y-334010000D03*
X163830000Y-334010000D03*
X166370000Y-334010000D03*
X168910000Y-334010000D03*
X171450000Y-334010000D03*
X173990000Y-334010000D03*
X176530000Y-334010000D03*
X179070000Y-334010000D03*
D13*
X176530000Y-90170000D03*
D14*
X176530000Y-92710000D03*
X176530000Y-95250000D03*
X176530000Y-97790000D03*
X176530000Y-100330000D03*
X176530000Y-102870000D03*
X176530000Y-105410000D03*
X176530000Y-107950000D03*
X176530000Y-110490000D03*
X176530000Y-113030000D03*
X176530000Y-115570000D03*
X176530000Y-118110000D03*
X176530000Y-120650000D03*
X176530000Y-123190000D03*
X176530000Y-125730000D03*
X176530000Y-128270000D03*
X176530000Y-130810000D03*
X176530000Y-133350000D03*
X176530000Y-135890000D03*
X176530000Y-138430000D03*
X176530000Y-140970000D03*
X176530000Y-143510000D03*
X176530000Y-146050000D03*
X176530000Y-148590000D03*
X176530000Y-151130000D03*
D13*
X151130000Y-336550000D03*
D14*
X153670000Y-336550000D03*
X156210000Y-336550000D03*
X158750000Y-336550000D03*
X161290000Y-336550000D03*
X163830000Y-336550000D03*
X166370000Y-336550000D03*
X168910000Y-336550000D03*
X171450000Y-336550000D03*
X173990000Y-336550000D03*
X176530000Y-336550000D03*
X179070000Y-336550000D03*
D13*
X151130000Y-172720000D03*
D14*
X151130000Y-175260000D03*
X151130000Y-177800000D03*
X151130000Y-180340000D03*
X151130000Y-182880000D03*
X151130000Y-185420000D03*
X151130000Y-187960000D03*
X151130000Y-190500000D03*
X151130000Y-193040000D03*
X151130000Y-195580000D03*
X151130000Y-198120000D03*
X151130000Y-200660000D03*
X151130000Y-203200000D03*
X151130000Y-205740000D03*
X151130000Y-208280000D03*
X151130000Y-210820000D03*
X151130000Y-213360000D03*
X151130000Y-215900000D03*
X151130000Y-218440000D03*
X151130000Y-220980000D03*
X151130000Y-223520000D03*
X151130000Y-226060000D03*
X151130000Y-228600000D03*
X151130000Y-231140000D03*
X151130000Y-233680000D03*
D15*
X153035000Y-167640000D03*
D13*
X153670000Y-255270000D03*
D14*
X153670000Y-257810000D03*
X153670000Y-260350000D03*
X153670000Y-262890000D03*
X153670000Y-265430000D03*
X153670000Y-267970000D03*
X153670000Y-270510000D03*
X153670000Y-273050000D03*
X153670000Y-275590000D03*
X153670000Y-278130000D03*
X153670000Y-280670000D03*
X153670000Y-283210000D03*
X153670000Y-285750000D03*
X153670000Y-288290000D03*
X153670000Y-290830000D03*
X153670000Y-293370000D03*
X153670000Y-295910000D03*
X153670000Y-298450000D03*
X153670000Y-300990000D03*
X153670000Y-303530000D03*
X153670000Y-306070000D03*
X153670000Y-308610000D03*
X153670000Y-311150000D03*
X153670000Y-313690000D03*
X153670000Y-316230000D03*
D15*
X153035000Y-250190000D03*
X153035000Y-156210000D03*
X153035000Y-85090000D03*
D13*
X176530000Y-255270000D03*
D14*
X176530000Y-257810000D03*
X176530000Y-260350000D03*
X176530000Y-262890000D03*
X176530000Y-265430000D03*
X176530000Y-267970000D03*
X176530000Y-270510000D03*
X176530000Y-273050000D03*
X176530000Y-275590000D03*
X176530000Y-278130000D03*
X176530000Y-280670000D03*
X176530000Y-283210000D03*
X176530000Y-285750000D03*
X176530000Y-288290000D03*
X176530000Y-290830000D03*
X176530000Y-293370000D03*
X176530000Y-295910000D03*
X176530000Y-298450000D03*
X176530000Y-300990000D03*
X176530000Y-303530000D03*
X176530000Y-306070000D03*
X176530000Y-308610000D03*
X176530000Y-311150000D03*
X176530000Y-313690000D03*
X176530000Y-316230000D03*
D15*
X177165000Y-167640000D03*
D13*
X151130000Y-69825000D03*
D14*
X153670000Y-69825000D03*
X156210000Y-69825000D03*
X158750000Y-69825000D03*
X161290000Y-69825000D03*
X163830000Y-69825000D03*
X166370000Y-69825000D03*
X168910000Y-69825000D03*
X171450000Y-69825000D03*
X173990000Y-69825000D03*
X176530000Y-69825000D03*
X179070000Y-69825000D03*
D15*
X153035000Y-340360000D03*
D13*
X179070000Y-172720001D03*
D14*
X179070000Y-175260001D03*
X179070000Y-177800001D03*
X179070000Y-180340001D03*
X179070000Y-182880001D03*
X179070000Y-185420001D03*
X179070000Y-187960001D03*
X179070000Y-190500001D03*
X179070000Y-193040001D03*
X179070000Y-195580001D03*
X179070000Y-198120001D03*
X179070000Y-200660001D03*
X179070000Y-203200001D03*
X179070000Y-205740001D03*
X179070000Y-208280001D03*
X179070000Y-210820001D03*
X179070000Y-213360001D03*
X179070000Y-215900001D03*
X179070000Y-218440001D03*
X179070000Y-220980001D03*
X179070000Y-223520001D03*
X179070000Y-226060001D03*
X179070000Y-228600001D03*
X179070000Y-231140001D03*
X179070000Y-233680001D03*
D13*
X153670000Y-172719999D03*
D14*
X153670000Y-175259999D03*
X153670000Y-177799999D03*
X153670000Y-180339999D03*
X153670000Y-182879999D03*
X153670000Y-185419999D03*
X153670000Y-187959999D03*
X153670000Y-190499999D03*
X153670000Y-193039999D03*
X153670000Y-195579999D03*
X153670000Y-198119999D03*
X153670000Y-200659999D03*
X153670000Y-203199999D03*
X153670000Y-205739999D03*
X153670000Y-208279999D03*
X153670000Y-210819999D03*
X153670000Y-213359999D03*
X153670000Y-215899999D03*
X153670000Y-218439999D03*
X153670000Y-220979999D03*
X153670000Y-223519999D03*
X153670000Y-226059999D03*
X153670000Y-228599999D03*
X153670000Y-231139999D03*
X153670000Y-233679999D03*
D15*
X177165000Y-340360000D03*
X177165000Y-156210000D03*
D13*
X179070000Y-255270000D03*
D14*
X179070000Y-257810000D03*
X179070000Y-260350000D03*
X179070000Y-262890000D03*
X179070000Y-265430000D03*
X179070000Y-267970000D03*
X179070000Y-270510000D03*
X179070000Y-273050000D03*
X179070000Y-275590000D03*
X179070000Y-278130000D03*
X179070000Y-280670000D03*
X179070000Y-283210000D03*
X179070000Y-285750000D03*
X179070000Y-288290000D03*
X179070000Y-290830000D03*
X179070000Y-293370000D03*
X179070000Y-295910000D03*
X179070000Y-298450000D03*
X179070000Y-300990000D03*
X179070000Y-303530000D03*
X179070000Y-306070000D03*
X179070000Y-308610000D03*
X179070000Y-311150000D03*
X179070000Y-313690000D03*
X179070000Y-316230000D03*
D13*
X153670000Y-90169999D03*
D14*
X153670000Y-92709999D03*
X153670000Y-95249999D03*
X153670000Y-97789999D03*
X153670000Y-100329999D03*
X153670000Y-102869999D03*
X153670000Y-105409999D03*
X153670000Y-107949999D03*
X153670000Y-110489999D03*
X153670000Y-113029999D03*
X153670000Y-115569999D03*
X153670000Y-118109999D03*
X153670000Y-120649999D03*
X153670000Y-123189999D03*
X153670000Y-125729999D03*
X153670000Y-128269999D03*
X153670000Y-130809999D03*
X153670000Y-133349999D03*
X153670000Y-135889999D03*
X153670000Y-138429999D03*
X153670000Y-140969999D03*
X153670000Y-143509999D03*
X153670000Y-146049999D03*
X153670000Y-148589999D03*
X153670000Y-151129999D03*
D13*
X151130001Y-90170000D03*
D14*
X151130001Y-92710000D03*
X151130001Y-95250000D03*
X151130001Y-97790000D03*
X151130001Y-100330000D03*
X151130001Y-102870000D03*
X151130001Y-105410000D03*
X151130001Y-107950000D03*
X151130001Y-110490000D03*
X151130001Y-113030000D03*
X151130001Y-115570000D03*
X151130001Y-118110000D03*
X151130001Y-120650000D03*
X151130001Y-123190000D03*
X151130001Y-125730000D03*
X151130001Y-128270000D03*
X151130001Y-130810000D03*
X151130001Y-133350000D03*
X151130001Y-135890000D03*
X151130001Y-138430000D03*
X151130001Y-140970000D03*
X151130001Y-143510000D03*
X151130001Y-146050000D03*
X151130001Y-148590000D03*
X151130001Y-151130000D03*
D15*
X177165000Y-238760000D03*
D13*
X151130000Y-255270000D03*
D14*
X151130000Y-257810000D03*
X151130000Y-260350000D03*
X151130000Y-262890000D03*
X151130000Y-265430000D03*
X151130000Y-267970000D03*
X151130000Y-270510000D03*
X151130000Y-273050000D03*
X151130000Y-275590000D03*
X151130000Y-278130000D03*
X151130000Y-280670000D03*
X151130000Y-283210000D03*
X151130000Y-285750000D03*
X151130000Y-288290000D03*
X151130000Y-290830000D03*
X151130000Y-293370000D03*
X151130000Y-295910000D03*
X151130000Y-298450000D03*
X151130000Y-300990000D03*
X151130000Y-303530000D03*
X151130000Y-306070000D03*
X151130000Y-308610000D03*
X151130000Y-311150000D03*
X151130000Y-313690000D03*
X151130000Y-316230000D03*
D15*
X153035000Y-321310000D03*
D13*
X151150000Y-72365000D03*
D14*
X153690000Y-72365000D03*
X156230000Y-72365000D03*
X158770000Y-72365000D03*
X161310000Y-72365000D03*
X163850000Y-72365000D03*
X166390000Y-72365000D03*
X168930000Y-72365000D03*
X171470000Y-72365000D03*
X174010000Y-72365000D03*
X176550000Y-72365000D03*
X179090000Y-72365000D03*
D15*
X177165000Y-85090000D03*
X177165000Y-321310000D03*
M02*
