G04 #@! TF.GenerationSoftware,KiCad,Pcbnew,7.0.7*
G04 #@! TF.CreationDate,2024-01-02T13:56:30+01:00*
G04 #@! TF.ProjectId,Backplane,4261636b-706c-4616-9e65-2e6b69636164,rev?*
G04 #@! TF.SameCoordinates,Original*
G04 #@! TF.FileFunction,Copper,L1,Top*
G04 #@! TF.FilePolarity,Positive*
%FSLAX46Y46*%
G04 Gerber Fmt 4.6, Leading zero omitted, Abs format (unit mm)*
G04 Created by KiCad (PCBNEW 7.0.7) date 2024-01-02 13:56:30*
%MOMM*%
%LPD*%
G01*
G04 APERTURE LIST*
G04 #@! TA.AperFunction,ComponentPad*
%ADD10R,1.700000X1.700000*%
G04 #@! TD*
G04 #@! TA.AperFunction,ComponentPad*
%ADD11O,1.700000X1.700000*%
G04 #@! TD*
G04 #@! TA.AperFunction,ViaPad*
%ADD12C,0.600000*%
G04 #@! TD*
G04 #@! TA.AperFunction,Conductor*
%ADD13C,0.127000*%
G04 #@! TD*
G04 #@! TA.AperFunction,Conductor*
%ADD14C,0.800000*%
G04 #@! TD*
G04 #@! TA.AperFunction,Conductor*
%ADD15C,0.750000*%
G04 #@! TD*
G04 #@! TA.AperFunction,Conductor*
%ADD16C,1.000000*%
G04 #@! TD*
G04 APERTURE END LIST*
D10*
X176530000Y-172720000D03*
D11*
X176530000Y-175260000D03*
X176530000Y-177800000D03*
X176530000Y-180340000D03*
X176530000Y-182880000D03*
X176530000Y-185420000D03*
X176530000Y-187960000D03*
X176530000Y-190500000D03*
X176530000Y-193040000D03*
X176530000Y-195580000D03*
X176530000Y-198120000D03*
X176530000Y-200660000D03*
X176530000Y-203200000D03*
X176530000Y-205740000D03*
X176530000Y-208280000D03*
X176530000Y-210820000D03*
X176530000Y-213360000D03*
X176530000Y-215900000D03*
X176530000Y-218440000D03*
X176530000Y-220980000D03*
X176530000Y-223520000D03*
X176530000Y-226060000D03*
X176530000Y-228600000D03*
X176530000Y-231140000D03*
X176530000Y-233680000D03*
D10*
X179070000Y-90170000D03*
D11*
X179070000Y-92710000D03*
X179070000Y-95250000D03*
X179070000Y-97790000D03*
X179070000Y-100330000D03*
X179070000Y-102870000D03*
X179070000Y-105410000D03*
X179070000Y-107950000D03*
X179070000Y-110490000D03*
X179070000Y-113030000D03*
X179070000Y-115570000D03*
X179070000Y-118110000D03*
X179070000Y-120650000D03*
X179070000Y-123190000D03*
X179070000Y-125730000D03*
X179070000Y-128270000D03*
X179070000Y-130810000D03*
X179070000Y-133350000D03*
X179070000Y-135890000D03*
X179070000Y-138430000D03*
X179070000Y-140970000D03*
X179070000Y-143510000D03*
X179070000Y-146050000D03*
X179070000Y-148590000D03*
X179070000Y-151130000D03*
D10*
X151130000Y-334010000D03*
D11*
X153670000Y-334010000D03*
X156210000Y-334010000D03*
X158750000Y-334010000D03*
X161290000Y-334010000D03*
X163830000Y-334010000D03*
X166370000Y-334010000D03*
X168910000Y-334010000D03*
X171450000Y-334010000D03*
X173990000Y-334010000D03*
X176530000Y-334010000D03*
X179070000Y-334010000D03*
D10*
X176530000Y-90170000D03*
D11*
X176530000Y-92710000D03*
X176530000Y-95250000D03*
X176530000Y-97790000D03*
X176530000Y-100330000D03*
X176530000Y-102870000D03*
X176530000Y-105410000D03*
X176530000Y-107950000D03*
X176530000Y-110490000D03*
X176530000Y-113030000D03*
X176530000Y-115570000D03*
X176530000Y-118110000D03*
X176530000Y-120650000D03*
X176530000Y-123190000D03*
X176530000Y-125730000D03*
X176530000Y-128270000D03*
X176530000Y-130810000D03*
X176530000Y-133350000D03*
X176530000Y-135890000D03*
X176530000Y-138430000D03*
X176530000Y-140970000D03*
X176530000Y-143510000D03*
X176530000Y-146050000D03*
X176530000Y-148590000D03*
X176530000Y-151130000D03*
D10*
X151130000Y-336550000D03*
D11*
X153670000Y-336550000D03*
X156210000Y-336550000D03*
X158750000Y-336550000D03*
X161290000Y-336550000D03*
X163830000Y-336550000D03*
X166370000Y-336550000D03*
X168910000Y-336550000D03*
X171450000Y-336550000D03*
X173990000Y-336550000D03*
X176530000Y-336550000D03*
X179070000Y-336550000D03*
D10*
X151130000Y-172720000D03*
D11*
X151130000Y-175260000D03*
X151130000Y-177800000D03*
X151130000Y-180340000D03*
X151130000Y-182880000D03*
X151130000Y-185420000D03*
X151130000Y-187960000D03*
X151130000Y-190500000D03*
X151130000Y-193040000D03*
X151130000Y-195580000D03*
X151130000Y-198120000D03*
X151130000Y-200660000D03*
X151130000Y-203200000D03*
X151130000Y-205740000D03*
X151130000Y-208280000D03*
X151130000Y-210820000D03*
X151130000Y-213360000D03*
X151130000Y-215900000D03*
X151130000Y-218440000D03*
X151130000Y-220980000D03*
X151130000Y-223520000D03*
X151130000Y-226060000D03*
X151130000Y-228600000D03*
X151130000Y-231140000D03*
X151130000Y-233680000D03*
D10*
X153670000Y-255270000D03*
D11*
X153670000Y-257810000D03*
X153670000Y-260350000D03*
X153670000Y-262890000D03*
X153670000Y-265430000D03*
X153670000Y-267970000D03*
X153670000Y-270510000D03*
X153670000Y-273050000D03*
X153670000Y-275590000D03*
X153670000Y-278130000D03*
X153670000Y-280670000D03*
X153670000Y-283210000D03*
X153670000Y-285750000D03*
X153670000Y-288290000D03*
X153670000Y-290830000D03*
X153670000Y-293370000D03*
X153670000Y-295910000D03*
X153670000Y-298450000D03*
X153670000Y-300990000D03*
X153670000Y-303530000D03*
X153670000Y-306070000D03*
X153670000Y-308610000D03*
X153670000Y-311150000D03*
X153670000Y-313690000D03*
X153670000Y-316230000D03*
D10*
X176530000Y-255270000D03*
D11*
X176530000Y-257810000D03*
X176530000Y-260350000D03*
X176530000Y-262890000D03*
X176530000Y-265430000D03*
X176530000Y-267970000D03*
X176530000Y-270510000D03*
X176530000Y-273050000D03*
X176530000Y-275590000D03*
X176530000Y-278130000D03*
X176530000Y-280670000D03*
X176530000Y-283210000D03*
X176530000Y-285750000D03*
X176530000Y-288290000D03*
X176530000Y-290830000D03*
X176530000Y-293370000D03*
X176530000Y-295910000D03*
X176530000Y-298450000D03*
X176530000Y-300990000D03*
X176530000Y-303530000D03*
X176530000Y-306070000D03*
X176530000Y-308610000D03*
X176530000Y-311150000D03*
X176530000Y-313690000D03*
X176530000Y-316230000D03*
D10*
X151130000Y-69825000D03*
D11*
X153670000Y-69825000D03*
X156210000Y-69825000D03*
X158750000Y-69825000D03*
X161290000Y-69825000D03*
X163830000Y-69825000D03*
X166370000Y-69825000D03*
X168910000Y-69825000D03*
X171450000Y-69825000D03*
X173990000Y-69825000D03*
X176530000Y-69825000D03*
X179070000Y-69825000D03*
D10*
X179070000Y-172720001D03*
D11*
X179070000Y-175260001D03*
X179070000Y-177800001D03*
X179070000Y-180340001D03*
X179070000Y-182880001D03*
X179070000Y-185420001D03*
X179070000Y-187960001D03*
X179070000Y-190500001D03*
X179070000Y-193040001D03*
X179070000Y-195580001D03*
X179070000Y-198120001D03*
X179070000Y-200660001D03*
X179070000Y-203200001D03*
X179070000Y-205740001D03*
X179070000Y-208280001D03*
X179070000Y-210820001D03*
X179070000Y-213360001D03*
X179070000Y-215900001D03*
X179070000Y-218440001D03*
X179070000Y-220980001D03*
X179070000Y-223520001D03*
X179070000Y-226060001D03*
X179070000Y-228600001D03*
X179070000Y-231140001D03*
X179070000Y-233680001D03*
D10*
X153670000Y-172719999D03*
D11*
X153670000Y-175259999D03*
X153670000Y-177799999D03*
X153670000Y-180339999D03*
X153670000Y-182879999D03*
X153670000Y-185419999D03*
X153670000Y-187959999D03*
X153670000Y-190499999D03*
X153670000Y-193039999D03*
X153670000Y-195579999D03*
X153670000Y-198119999D03*
X153670000Y-200659999D03*
X153670000Y-203199999D03*
X153670000Y-205739999D03*
X153670000Y-208279999D03*
X153670000Y-210819999D03*
X153670000Y-213359999D03*
X153670000Y-215899999D03*
X153670000Y-218439999D03*
X153670000Y-220979999D03*
X153670000Y-223519999D03*
X153670000Y-226059999D03*
X153670000Y-228599999D03*
X153670000Y-231139999D03*
X153670000Y-233679999D03*
D10*
X179070000Y-255270000D03*
D11*
X179070000Y-257810000D03*
X179070000Y-260350000D03*
X179070000Y-262890000D03*
X179070000Y-265430000D03*
X179070000Y-267970000D03*
X179070000Y-270510000D03*
X179070000Y-273050000D03*
X179070000Y-275590000D03*
X179070000Y-278130000D03*
X179070000Y-280670000D03*
X179070000Y-283210000D03*
X179070000Y-285750000D03*
X179070000Y-288290000D03*
X179070000Y-290830000D03*
X179070000Y-293370000D03*
X179070000Y-295910000D03*
X179070000Y-298450000D03*
X179070000Y-300990000D03*
X179070000Y-303530000D03*
X179070000Y-306070000D03*
X179070000Y-308610000D03*
X179070000Y-311150000D03*
X179070000Y-313690000D03*
X179070000Y-316230000D03*
D10*
X153670000Y-90169999D03*
D11*
X153670000Y-92709999D03*
X153670000Y-95249999D03*
X153670000Y-97789999D03*
X153670000Y-100329999D03*
X153670000Y-102869999D03*
X153670000Y-105409999D03*
X153670000Y-107949999D03*
X153670000Y-110489999D03*
X153670000Y-113029999D03*
X153670000Y-115569999D03*
X153670000Y-118109999D03*
X153670000Y-120649999D03*
X153670000Y-123189999D03*
X153670000Y-125729999D03*
X153670000Y-128269999D03*
X153670000Y-130809999D03*
X153670000Y-133349999D03*
X153670000Y-135889999D03*
X153670000Y-138429999D03*
X153670000Y-140969999D03*
X153670000Y-143509999D03*
X153670000Y-146049999D03*
X153670000Y-148589999D03*
X153670000Y-151129999D03*
D10*
X151130001Y-90170000D03*
D11*
X151130001Y-92710000D03*
X151130001Y-95250000D03*
X151130001Y-97790000D03*
X151130001Y-100330000D03*
X151130001Y-102870000D03*
X151130001Y-105410000D03*
X151130001Y-107950000D03*
X151130001Y-110490000D03*
X151130001Y-113030000D03*
X151130001Y-115570000D03*
X151130001Y-118110000D03*
X151130001Y-120650000D03*
X151130001Y-123190000D03*
X151130001Y-125730000D03*
X151130001Y-128270000D03*
X151130001Y-130810000D03*
X151130001Y-133350000D03*
X151130001Y-135890000D03*
X151130001Y-138430000D03*
X151130001Y-140970000D03*
X151130001Y-143510000D03*
X151130001Y-146050000D03*
X151130001Y-148590000D03*
X151130001Y-151130000D03*
D10*
X151130000Y-255270000D03*
D11*
X151130000Y-257810000D03*
X151130000Y-260350000D03*
X151130000Y-262890000D03*
X151130000Y-265430000D03*
X151130000Y-267970000D03*
X151130000Y-270510000D03*
X151130000Y-273050000D03*
X151130000Y-275590000D03*
X151130000Y-278130000D03*
X151130000Y-280670000D03*
X151130000Y-283210000D03*
X151130000Y-285750000D03*
X151130000Y-288290000D03*
X151130000Y-290830000D03*
X151130000Y-293370000D03*
X151130000Y-295910000D03*
X151130000Y-298450000D03*
X151130000Y-300990000D03*
X151130000Y-303530000D03*
X151130000Y-306070000D03*
X151130000Y-308610000D03*
X151130000Y-311150000D03*
X151130000Y-313690000D03*
X151130000Y-316230000D03*
D10*
X151150000Y-72365000D03*
D11*
X153690000Y-72365000D03*
X156230000Y-72365000D03*
X158770000Y-72365000D03*
X161310000Y-72365000D03*
X163850000Y-72365000D03*
X166390000Y-72365000D03*
X168930000Y-72365000D03*
X171470000Y-72365000D03*
X174010000Y-72365000D03*
X176550000Y-72365000D03*
X179090000Y-72365000D03*
D12*
X156464000Y-89789000D03*
X156464000Y-172339000D03*
X156463999Y-254889000D03*
X156083000Y-89027000D03*
X156083000Y-254127000D03*
X156083000Y-171577000D03*
X157226000Y-174879000D03*
X157226000Y-92329000D03*
X157225999Y-257429000D03*
X156845000Y-91567000D03*
X156845000Y-174117000D03*
X156844999Y-256667000D03*
X157988000Y-94869000D03*
X157988000Y-177419000D03*
X157988000Y-259969000D03*
X157607000Y-176657000D03*
X157607000Y-259207000D03*
X157607000Y-94107000D03*
X158750000Y-97409000D03*
X158749999Y-262509000D03*
X158750000Y-179959000D03*
X158369000Y-96647000D03*
X158369000Y-179197000D03*
X158369000Y-261747000D03*
X159512000Y-182499000D03*
X159511999Y-265049000D03*
X159512000Y-99949000D03*
X159131000Y-99187000D03*
X159131000Y-181737000D03*
X159131000Y-264287000D03*
X160274000Y-185039000D03*
X160274000Y-267589000D03*
X160274000Y-102489000D03*
X159893000Y-101727000D03*
X159893000Y-184277000D03*
X159892999Y-266827000D03*
X161035999Y-270129000D03*
X161036000Y-187579000D03*
X161036000Y-105029000D03*
X160655000Y-104267000D03*
X160655000Y-269367000D03*
X160655000Y-186817000D03*
X161798000Y-107569000D03*
X161798000Y-272669000D03*
X161798000Y-190119000D03*
X161417000Y-189357000D03*
X161417000Y-106807000D03*
X161416999Y-271907000D03*
X162560000Y-192659000D03*
X162560000Y-110109000D03*
X162559999Y-275209000D03*
X162178999Y-274447000D03*
X162179000Y-109347000D03*
X162179000Y-191897000D03*
X163322000Y-112649000D03*
X163322000Y-195199000D03*
X163321999Y-277749000D03*
X162941000Y-194437000D03*
X162941000Y-276987000D03*
X162941000Y-111887000D03*
X164084000Y-115189000D03*
X164084000Y-197739000D03*
X164084000Y-280289000D03*
X163703000Y-114427000D03*
X163703000Y-196977000D03*
X163703000Y-279527000D03*
X164846000Y-117729000D03*
X164846000Y-200279000D03*
X164845999Y-282829000D03*
X164465000Y-199517000D03*
X164464999Y-282067000D03*
X164465000Y-116967000D03*
X165608000Y-120269000D03*
X165608000Y-285369000D03*
X165608000Y-202819000D03*
X165227000Y-202057000D03*
X165227000Y-119507000D03*
X165227000Y-284607000D03*
X166370000Y-205359000D03*
X166370000Y-122809000D03*
X166370000Y-287909000D03*
X165989000Y-122047000D03*
X165989000Y-204597000D03*
X165989000Y-287147000D03*
X167132000Y-207899000D03*
X167132000Y-125349000D03*
X167132000Y-290449000D03*
X166751000Y-124587000D03*
X166751000Y-289687000D03*
X166751000Y-207137000D03*
X167893999Y-292989000D03*
X167894000Y-210439000D03*
X167894000Y-127889000D03*
X167512999Y-292227000D03*
X167513000Y-127127000D03*
X167513000Y-209677000D03*
X168656000Y-130429000D03*
X168656000Y-212979000D03*
X168655999Y-295529000D03*
X168275000Y-212217000D03*
X168275000Y-294767000D03*
X168275000Y-129667000D03*
X169417999Y-298069000D03*
X169418000Y-132969000D03*
X169418000Y-215519000D03*
X169037000Y-132207000D03*
X169036999Y-297307000D03*
X169037000Y-214757000D03*
X170180000Y-300609000D03*
X170180000Y-135509000D03*
X170180000Y-218059000D03*
X169799000Y-134747000D03*
X169799000Y-299847000D03*
X169799000Y-217297000D03*
X170942000Y-138049000D03*
X170942000Y-303149000D03*
X170942000Y-220599000D03*
X170561000Y-219837000D03*
X170561000Y-137287000D03*
X170560999Y-302387000D03*
X171703999Y-305689000D03*
X171704000Y-140589000D03*
X171704000Y-223139000D03*
X171322999Y-304927000D03*
X171323000Y-222377000D03*
X171323000Y-139827000D03*
X172466000Y-143129000D03*
X172466000Y-225679000D03*
X172466000Y-308229000D03*
X172085000Y-142367000D03*
X172085000Y-307467000D03*
X172085000Y-224917000D03*
X173228000Y-228219000D03*
X173228000Y-145669000D03*
X173228000Y-310769000D03*
X172847000Y-144907000D03*
X172847000Y-227457000D03*
X172847000Y-310007000D03*
X173990000Y-148209000D03*
X173989999Y-313309000D03*
X173990000Y-230759000D03*
X173609000Y-229997000D03*
X173608999Y-312547000D03*
X173609000Y-147447000D03*
X152400000Y-79756000D03*
X152400000Y-81026000D03*
X152400000Y-162560000D03*
X150622000Y-327406000D03*
X150622000Y-78740000D03*
X154178000Y-163576000D03*
X152400000Y-325120000D03*
X150622000Y-163576000D03*
X150622000Y-246126000D03*
X152400000Y-161290000D03*
X154178000Y-82042000D03*
X152400000Y-245110000D03*
X150622000Y-160274000D03*
X152400000Y-243840000D03*
X150622000Y-82042000D03*
X154178000Y-78740000D03*
X152400000Y-326390000D03*
X154178000Y-242824000D03*
X150622000Y-324104000D03*
X150622000Y-242824000D03*
X154178000Y-324104000D03*
X154178000Y-160274000D03*
X154178000Y-246126000D03*
X154178000Y-327406000D03*
X176022000Y-160274000D03*
X177800000Y-161290000D03*
X179578000Y-78740000D03*
X179578000Y-242824000D03*
X176022000Y-327406000D03*
X176022000Y-324104000D03*
X177800000Y-243840000D03*
X179578000Y-160274000D03*
X177800000Y-245110000D03*
X177800000Y-326390000D03*
X176022000Y-246126000D03*
X179578000Y-163576000D03*
X179578000Y-82042000D03*
X176022000Y-163576000D03*
X176022000Y-82042000D03*
X179578000Y-246126000D03*
X177800000Y-162560000D03*
X179578000Y-324104000D03*
X177800000Y-81026000D03*
X177800000Y-79756000D03*
X179578000Y-327406000D03*
X176022000Y-78740000D03*
X177800000Y-325120000D03*
X176022000Y-242824000D03*
D13*
X156464000Y-174463836D02*
X156464000Y-253746000D01*
X156464000Y-171196000D02*
X156573500Y-171305500D01*
X156573500Y-171848500D02*
X156464000Y-171958000D01*
X156464000Y-171958000D02*
X156464000Y-172339000D01*
X156464000Y-91913836D02*
X156464000Y-171196000D01*
X156464000Y-172373164D02*
X156464000Y-173499500D01*
X156464000Y-88646000D02*
X156464000Y-77724000D01*
X156573500Y-88755500D02*
X156464000Y-88646000D01*
X156354500Y-91804336D02*
X156464000Y-91913836D01*
X156464000Y-253746000D02*
X156573500Y-253855500D01*
X152400000Y-73660000D02*
X152400000Y-71095000D01*
X156464000Y-254508000D02*
X156464000Y-254889000D01*
X156573500Y-89298500D02*
X156573500Y-88755500D01*
X156464000Y-89408000D02*
X156573500Y-89298500D01*
X156354500Y-91313000D02*
X156354500Y-91804336D01*
X156464000Y-173499500D02*
X156354500Y-173609000D01*
X156573500Y-171305500D02*
X156573500Y-171848500D01*
X156464000Y-89789000D02*
X156464000Y-89408000D01*
X156573500Y-254398500D02*
X156464000Y-254508000D01*
X156451746Y-91186000D02*
X156354500Y-91313000D01*
X152400000Y-71095000D02*
X151130000Y-69825000D01*
X156354500Y-174354336D02*
X156464000Y-174463836D01*
X156573500Y-253855500D02*
X156573500Y-254398500D01*
X156464000Y-89823164D02*
X156451746Y-91186000D01*
X156354500Y-173609000D02*
X156354500Y-174354336D01*
X156464000Y-77724000D02*
X152400000Y-73660000D01*
X155973500Y-172576336D02*
X155973500Y-171686500D01*
X151150000Y-73640000D02*
X151150000Y-72365000D01*
X156083000Y-171577000D02*
X156083000Y-171611164D01*
X156083000Y-254127000D02*
X156083000Y-172685836D01*
X155973500Y-90026336D02*
X155973500Y-89505246D01*
X156083000Y-171577000D02*
X156083000Y-90135836D01*
X151130000Y-73660000D02*
X151150000Y-73640000D01*
X155973500Y-171686500D02*
X156083000Y-171577000D01*
X156083000Y-89027000D02*
X156083000Y-78613000D01*
X156083000Y-89395746D02*
X156083000Y-89061164D01*
X156083000Y-172685836D02*
X155973500Y-172576336D01*
X155973500Y-89505246D02*
X156083000Y-89395746D01*
X156083000Y-78613000D02*
X151130000Y-73660000D01*
X156083000Y-90135836D02*
X155973500Y-90026336D01*
X157116500Y-176258500D02*
X157226000Y-176149000D01*
X157226000Y-93599000D02*
X157226000Y-92329000D01*
X157226000Y-177292000D02*
X157116500Y-177182500D01*
X157116500Y-258808500D02*
X157226000Y-258699000D01*
X157226000Y-177292000D02*
X157226000Y-256159000D01*
X157226000Y-94869000D02*
X157116500Y-94759500D01*
X157116500Y-94759500D02*
X157116500Y-93708500D01*
X157226000Y-94869000D02*
X157226000Y-173609000D01*
X157226000Y-258699000D02*
X157225999Y-257429000D01*
X157226000Y-259969000D02*
X157116500Y-259859500D01*
X157335500Y-174769500D02*
X157226000Y-174879000D01*
X157226000Y-256159000D02*
X157335500Y-256268500D01*
X157116500Y-93708500D02*
X157226000Y-93599000D01*
X157116500Y-177182500D02*
X157116500Y-176258500D01*
X157226000Y-92329000D02*
X157335500Y-92219500D01*
X157226000Y-176149000D02*
X157226000Y-174879000D01*
X157116500Y-259859500D02*
X157116500Y-258808500D01*
X157335500Y-256268500D02*
X157335500Y-257319500D01*
X157335500Y-173718500D02*
X157335500Y-174769500D01*
X152400000Y-332740000D02*
X157226000Y-327914000D01*
X157335500Y-257319500D02*
X157226000Y-257429000D01*
X152400000Y-335280000D02*
X152400000Y-332740000D01*
X157226000Y-173609000D02*
X157335500Y-173718500D01*
X151130000Y-336550000D02*
X152400000Y-335280000D01*
X157226000Y-327914000D02*
X157226000Y-259969000D01*
X156735500Y-175116336D02*
X156735500Y-174226500D01*
X151130000Y-332740000D02*
X151130000Y-334010000D01*
X156845000Y-92675836D02*
X156735500Y-92566336D01*
X156735500Y-174226500D02*
X156845000Y-174117000D01*
X156735500Y-92566336D02*
X156735500Y-91676500D01*
X156845000Y-327025000D02*
X151130000Y-332740000D01*
X156845000Y-171831000D02*
X156845000Y-92675836D01*
X156845000Y-255397000D02*
X156954500Y-255287500D01*
X156735499Y-256776500D02*
X156844999Y-256667000D01*
X156845000Y-254381000D02*
X156845000Y-175225836D01*
X156735500Y-257666336D02*
X156845000Y-257775836D01*
X156735500Y-91676500D02*
X156845000Y-91567000D01*
X156845000Y-175225836D02*
X156735500Y-175116336D01*
X156954500Y-172737500D02*
X156954500Y-171940500D01*
X156954500Y-171940500D02*
X156845000Y-171831000D01*
X156845000Y-256667000D02*
X156845000Y-255397000D01*
X156735500Y-257259992D02*
X156735499Y-256776500D01*
X156845000Y-257775836D02*
X156845000Y-327025000D01*
X156954500Y-254490500D02*
X156845000Y-254381000D01*
X156735500Y-257259992D02*
X156735500Y-257666336D01*
X156845000Y-172847000D02*
X156954500Y-172737500D01*
X156954500Y-255287500D02*
X156954500Y-254490500D01*
X156845000Y-91567000D02*
X156845000Y-91601164D01*
X156845000Y-174117000D02*
X156845000Y-172847000D01*
X158097500Y-93903828D02*
X157988000Y-93794328D01*
X157988000Y-177419000D02*
X157988000Y-178884328D01*
X157988000Y-178884328D02*
X157878500Y-178993828D01*
X158097500Y-259859500D02*
X157988000Y-259969000D01*
X157878500Y-96443828D02*
X157878500Y-96850172D01*
X158097500Y-177309500D02*
X157988000Y-177419000D01*
X157988000Y-176344328D02*
X158097500Y-176453828D01*
X157988000Y-179509672D02*
X157988000Y-258894328D01*
X158097500Y-176453828D02*
X158097500Y-177309500D01*
X154940000Y-73660000D02*
X154940000Y-71120000D01*
X157988000Y-96959672D02*
X157988000Y-176344328D01*
X157878500Y-179400172D02*
X157988000Y-179509672D01*
X157988000Y-94869000D02*
X158097500Y-94759500D01*
X154940000Y-71120000D02*
X153670000Y-69850000D01*
X157988000Y-93794328D02*
X157988000Y-76708000D01*
X153670000Y-69850000D02*
X153670000Y-69825000D01*
X157988000Y-76708000D02*
X154940000Y-73660000D01*
X157988000Y-94869000D02*
X157988000Y-96334328D01*
X158097500Y-94759500D02*
X158097500Y-93903828D01*
X157988000Y-258894328D02*
X158097500Y-259003828D01*
X157988000Y-96334328D02*
X157878500Y-96443828D01*
X157878500Y-96850172D02*
X157988000Y-96959672D01*
X158097500Y-259003828D02*
X158097500Y-259859500D01*
X157878500Y-178993828D02*
X157878500Y-179400172D01*
X157716500Y-257632172D02*
X157716500Y-257225828D01*
X157607000Y-92016328D02*
X157607000Y-77597000D01*
X157607000Y-176657000D02*
X157607000Y-175191672D01*
X157607000Y-94107000D02*
X157607000Y-92641672D01*
X157607000Y-259207000D02*
X157607000Y-257741672D01*
X157716500Y-92532172D02*
X157716500Y-92125828D01*
X157607000Y-177731672D02*
X157497500Y-177622172D01*
X157607000Y-175191672D02*
X157716500Y-175082172D01*
X157607000Y-95181672D02*
X157497500Y-95072172D01*
X157497500Y-177622172D02*
X157497500Y-177215828D01*
X157607000Y-174566328D02*
X157607000Y-95181672D01*
X157607000Y-257116328D02*
X157607000Y-177731672D01*
X157716500Y-92125828D02*
X157607000Y-92016328D01*
X157716500Y-257225828D02*
X157607000Y-257116328D01*
X157497500Y-177215828D02*
X157607000Y-177106328D01*
X153670000Y-73660000D02*
X153690000Y-73640000D01*
X153690000Y-73640000D02*
X153690000Y-72365000D01*
X157716500Y-174675828D02*
X157607000Y-174566328D01*
X157607000Y-77597000D02*
X153670000Y-73660000D01*
X157607000Y-94556328D02*
X157607000Y-94107000D01*
X157607000Y-257741672D02*
X157716500Y-257632172D01*
X157497500Y-94665828D02*
X157607000Y-94556328D01*
X157497500Y-95072172D02*
X157497500Y-94665828D01*
X157607000Y-92641672D02*
X157716500Y-92532172D01*
X157607000Y-177106328D02*
X157607000Y-176657000D01*
X157716500Y-175082172D02*
X157716500Y-174675828D01*
X158640500Y-100347500D02*
X158640500Y-98788500D01*
X154940000Y-335280000D02*
X154940000Y-332740000D01*
X158640500Y-181211500D02*
X158750000Y-181102000D01*
X158750000Y-263525000D02*
X158749999Y-262509000D01*
X158640500Y-263634500D02*
X158750000Y-263525000D01*
X158640500Y-264812500D02*
X158640500Y-263634500D01*
X158750000Y-328930000D02*
X158750000Y-264922000D01*
X158750000Y-178884328D02*
X158859500Y-178993828D01*
X158750000Y-182372000D02*
X158640500Y-182262500D01*
X158859500Y-179849500D02*
X158750000Y-179959000D01*
X158750000Y-182372000D02*
X158750000Y-261434328D01*
X158859500Y-178993828D02*
X158859500Y-179849500D01*
X158750000Y-100457000D02*
X158750000Y-178884328D01*
X158750000Y-181102000D02*
X158750000Y-179959000D01*
X153670000Y-336550000D02*
X154940000Y-335280000D01*
X154940000Y-332740000D02*
X158750000Y-328930000D01*
X158750000Y-261434328D02*
X158859500Y-261543828D01*
X158640500Y-98788500D02*
X158750000Y-98679000D01*
X158750000Y-98679000D02*
X158750000Y-97409000D01*
X158859500Y-261543828D02*
X158859500Y-262399500D01*
X158750000Y-100457000D02*
X158640500Y-100347500D01*
X158640500Y-182262500D02*
X158640500Y-181211500D01*
X158750000Y-264922000D02*
X158640500Y-264812500D01*
X158369000Y-179197000D02*
X158369000Y-177731672D01*
X158259500Y-180162172D02*
X158259500Y-179755828D01*
X158369000Y-180271672D02*
X158259500Y-180162172D01*
X158478500Y-177622172D02*
X158478500Y-177215828D01*
X158369000Y-328041000D02*
X153670000Y-332740000D01*
X158369000Y-262821672D02*
X158369000Y-328041000D01*
X158478500Y-259765828D02*
X158369000Y-259656328D01*
X158369000Y-97721672D02*
X158259500Y-97612172D01*
X158369000Y-177731672D02*
X158478500Y-177622172D01*
X158369000Y-262196328D02*
X158259500Y-262305828D01*
X158259500Y-262305828D02*
X158259500Y-262712172D01*
X158259500Y-97205828D02*
X158369000Y-97096328D01*
X158259500Y-262712172D02*
X158369000Y-262821672D01*
X158478500Y-177215828D02*
X158369000Y-177106328D01*
X158369000Y-260281672D02*
X158478500Y-260172172D01*
X158369000Y-261747000D02*
X158369000Y-260281672D01*
X158478500Y-260172172D02*
X158478500Y-259765828D01*
X153670000Y-332740000D02*
X153670000Y-334010000D01*
X158369000Y-97096328D02*
X158369000Y-96647000D01*
X158369000Y-177106328D02*
X158369000Y-97721672D01*
X158369000Y-179646328D02*
X158369000Y-179197000D01*
X158369000Y-259656328D02*
X158369000Y-180271672D01*
X158369000Y-261747000D02*
X158369000Y-262196328D01*
X158259500Y-97612172D02*
X158259500Y-97205828D01*
X158259500Y-179755828D02*
X158369000Y-179646328D01*
X159621500Y-98983828D02*
X159512000Y-98874328D01*
X159402500Y-101964336D02*
X159512000Y-102073836D01*
X159512000Y-181424328D02*
X159621500Y-181533828D01*
X159512000Y-182533164D02*
X159512000Y-183642000D01*
X159512000Y-263974328D02*
X159621500Y-264083828D01*
X159512000Y-101346000D02*
X159402500Y-101455500D01*
X159512000Y-99949000D02*
X159621500Y-99839500D01*
X159621500Y-264939500D02*
X159512000Y-265049000D01*
X157480000Y-73660000D02*
X157480000Y-71120000D01*
X159402500Y-183751500D02*
X159402500Y-184514336D01*
X156210000Y-69850000D02*
X156210000Y-69825000D01*
X159402500Y-184514336D02*
X159512000Y-184623836D01*
X159512000Y-183642000D02*
X159402500Y-183751500D01*
X159402500Y-101455500D02*
X159402500Y-101964336D01*
X159512000Y-75692000D02*
X157480000Y-73660000D01*
X159621500Y-181533828D02*
X159621500Y-182389500D01*
X159621500Y-99839500D02*
X159621500Y-98983828D01*
X159512000Y-98874328D02*
X159512000Y-86487000D01*
X159512000Y-184623836D02*
X159512000Y-263974328D01*
X159621500Y-264083828D02*
X159621500Y-264939500D01*
X159512000Y-99983164D02*
X159512000Y-101346000D01*
X157480000Y-71120000D02*
X156210000Y-69850000D01*
X159512000Y-86487000D02*
X159512000Y-75692000D01*
X159512000Y-102073836D02*
X159512000Y-181424328D01*
X159621500Y-182389500D02*
X159512000Y-182499000D01*
X159131000Y-264287000D02*
X159131000Y-262821672D01*
X159131000Y-97096328D02*
X159131000Y-76581000D01*
X159131000Y-99187000D02*
X159131000Y-97721672D01*
X159131000Y-181737000D02*
X159131000Y-180271672D01*
X156230000Y-73640000D02*
X156230000Y-72365000D01*
X159021500Y-99296500D02*
X159131000Y-99187000D01*
X159240500Y-179755828D02*
X159131000Y-179646328D01*
X159240500Y-97612172D02*
X159240500Y-97205828D01*
X159131000Y-182811672D02*
X159004000Y-182684672D01*
X159004000Y-181898164D02*
X159131000Y-181771164D01*
X159131000Y-180271672D02*
X159240500Y-180162172D01*
X159131000Y-262821672D02*
X159240500Y-262712172D01*
X159240500Y-97205828D02*
X159131000Y-97096328D01*
X159004000Y-182684672D02*
X159004000Y-181898164D01*
X159131000Y-179646328D02*
X159131000Y-100295836D01*
X159131000Y-262196328D02*
X159131000Y-182811672D01*
X159021500Y-100186336D02*
X159021500Y-99296500D01*
X159240500Y-262712172D02*
X159240500Y-262305828D01*
X156210000Y-73660000D02*
X156230000Y-73640000D01*
X159131000Y-99187000D02*
X159131000Y-99221164D01*
X159240500Y-180162172D02*
X159240500Y-179755828D01*
X159240500Y-262305828D02*
X159131000Y-262196328D01*
X159131000Y-100295836D02*
X159021500Y-100186336D01*
X159131000Y-76581000D02*
X156210000Y-73660000D01*
X159131000Y-97721672D02*
X159240500Y-97612172D01*
X160274000Y-104775000D02*
X160164500Y-104665500D01*
X160274000Y-268732000D02*
X160274000Y-267589000D01*
X160383500Y-267479500D02*
X160383500Y-266623828D01*
X160274000Y-183964328D02*
X160383500Y-184073828D01*
X160274000Y-266514328D02*
X160274000Y-187833000D01*
X160274000Y-270002000D02*
X160274000Y-329946000D01*
X160164500Y-187723500D02*
X160164500Y-186309000D01*
X160274000Y-270002000D02*
X160164500Y-269892500D01*
X160383500Y-266623828D02*
X160274000Y-266514328D01*
X160274000Y-267589000D02*
X160383500Y-267479500D01*
X157480000Y-332740000D02*
X157480000Y-335280000D01*
X160383500Y-184073828D02*
X160383500Y-184929500D01*
X160164500Y-268841500D02*
X160274000Y-268732000D01*
X160164500Y-269892500D02*
X160164500Y-268841500D01*
X160383500Y-184929500D02*
X160274000Y-185039000D01*
X160274000Y-187833000D02*
X160164500Y-187723500D01*
X160274000Y-104775000D02*
X160274000Y-183964328D01*
X160164500Y-186309000D02*
X160274000Y-186199500D01*
X160164500Y-104665500D02*
X160164500Y-103868500D01*
X160164500Y-103868500D02*
X160274000Y-103759000D01*
X157480000Y-335280000D02*
X156210000Y-336550000D01*
X160274000Y-103759000D02*
X160274000Y-102489000D01*
X160274000Y-329946000D02*
X157480000Y-332740000D01*
X160274000Y-186199500D02*
X160274000Y-185039000D01*
X159893000Y-265361672D02*
X160002500Y-265252172D01*
X160002500Y-265252172D02*
X160002500Y-264845828D01*
X159893000Y-102835836D02*
X159783500Y-102726336D01*
X159893000Y-102095746D02*
X159893000Y-101761164D01*
X159893000Y-185385836D02*
X159783500Y-185276336D01*
X159783500Y-184386500D02*
X159893000Y-184277000D01*
X159893000Y-329057000D02*
X156210000Y-332740000D01*
X159893000Y-184277000D02*
X159893000Y-182811672D01*
X159783500Y-267419992D02*
X159783500Y-267826336D01*
X160002500Y-182702172D02*
X160002500Y-182295828D01*
X159892999Y-266827000D02*
X159783500Y-267419992D01*
X159783500Y-102726336D02*
X159783500Y-102205246D01*
X159783500Y-267826336D02*
X159893000Y-267935836D01*
X159893000Y-266861164D02*
X159892999Y-266827000D01*
X159893000Y-264736328D02*
X159893000Y-185385836D01*
X156210000Y-332740000D02*
X156210000Y-334010000D01*
X159893000Y-182811672D02*
X160002500Y-182702172D01*
X159783500Y-102205246D02*
X159893000Y-102095746D01*
X159893000Y-266827000D02*
X159893000Y-265361672D01*
X159893000Y-267935836D02*
X159893000Y-329057000D01*
X160002500Y-264845828D02*
X159893000Y-264736328D01*
X159893000Y-182186328D02*
X159893000Y-102835836D01*
X160002500Y-182295828D02*
X159893000Y-182186328D01*
X159783500Y-185276336D02*
X159783500Y-184386500D01*
X161145500Y-187469500D02*
X161036000Y-187579000D01*
X161145500Y-186613828D02*
X161145500Y-187469500D01*
X161145500Y-269163828D02*
X161145500Y-270019500D01*
X161036000Y-187579000D02*
X161036000Y-189044328D01*
X161145500Y-104063828D02*
X161036000Y-103954328D01*
X161036000Y-269054328D02*
X161145500Y-269163828D01*
X161036000Y-189044328D02*
X160926500Y-189153828D01*
X161145500Y-104919500D02*
X161145500Y-104063828D01*
X161036000Y-105029000D02*
X161036000Y-106494328D01*
X158750000Y-69850000D02*
X158750000Y-69825000D01*
X161036000Y-105029000D02*
X161145500Y-104919500D01*
X161145500Y-270019500D02*
X161036000Y-270129000D01*
X160926500Y-106603828D02*
X160926500Y-107010172D01*
X160020000Y-73660000D02*
X160020000Y-71120000D01*
X160926500Y-189560172D02*
X161036000Y-189669672D01*
X161036000Y-103954328D02*
X161036000Y-74676000D01*
X161036000Y-107119672D02*
X161036000Y-186504328D01*
X161036000Y-186504328D02*
X161145500Y-186613828D01*
X160926500Y-189153828D02*
X160926500Y-189560172D01*
X160020000Y-71120000D02*
X158750000Y-69850000D01*
X161036000Y-74676000D02*
X160020000Y-73660000D01*
X161036000Y-106494328D02*
X160926500Y-106603828D01*
X161036000Y-189669672D02*
X161036000Y-269054328D01*
X160926500Y-107010172D02*
X161036000Y-107119672D01*
X160545500Y-105232172D02*
X160545500Y-104825828D01*
X160764500Y-184835828D02*
X160655000Y-184726328D01*
X160655000Y-184726328D02*
X160655000Y-105341672D01*
X158770000Y-73640000D02*
X158770000Y-72365000D01*
X158750000Y-73660000D02*
X158770000Y-73640000D01*
X160655000Y-102176328D02*
X160655000Y-75565000D01*
X160764500Y-102692172D02*
X160764500Y-102285828D01*
X160655000Y-105341672D02*
X160545500Y-105232172D01*
X160655000Y-267276328D02*
X160655000Y-187891672D01*
X160655000Y-104716328D02*
X160655000Y-104267000D01*
X160764500Y-267792172D02*
X160764500Y-267385828D01*
X160655000Y-187266328D02*
X160655000Y-186817000D01*
X160655000Y-185351672D02*
X160764500Y-185242172D01*
X160655000Y-186817000D02*
X160655000Y-185351672D01*
X160545500Y-187782172D02*
X160545500Y-187375828D01*
X160655000Y-104267000D02*
X160655000Y-102801672D01*
X160545500Y-187375828D02*
X160655000Y-187266328D01*
X160655000Y-269367000D02*
X160655000Y-267901672D01*
X160764500Y-267385828D02*
X160655000Y-267276328D01*
X160764500Y-102285828D02*
X160655000Y-102176328D01*
X160655000Y-75565000D02*
X158750000Y-73660000D01*
X160655000Y-267901672D02*
X160764500Y-267792172D01*
X160764500Y-185242172D02*
X160764500Y-184835828D01*
X160655000Y-187891672D02*
X160545500Y-187782172D01*
X160655000Y-102801672D02*
X160764500Y-102692172D01*
X160545500Y-104825828D02*
X160655000Y-104716328D01*
X160020000Y-332740000D02*
X160020000Y-335280000D01*
X161798000Y-110617000D02*
X161798000Y-189044328D01*
X161688499Y-274048501D02*
X161798000Y-273939000D01*
X161688500Y-108821500D02*
X161798000Y-108712000D01*
X161798000Y-191389000D02*
X161798000Y-190119000D01*
X161688500Y-192676500D02*
X161688500Y-191498500D01*
X161798000Y-275209000D02*
X161688499Y-275099499D01*
X161798000Y-330962000D02*
X160020000Y-332740000D01*
X161907500Y-189153828D02*
X161907500Y-190009500D01*
X161798000Y-189044328D02*
X161907500Y-189153828D01*
X161798000Y-192786000D02*
X161798000Y-271594328D01*
X161688499Y-275099499D02*
X161688499Y-274048501D01*
X160020000Y-335280000D02*
X158750000Y-336550000D01*
X161798000Y-271594328D02*
X161907500Y-271703828D01*
X161798000Y-273939000D02*
X161798000Y-272669000D01*
X161798000Y-192786000D02*
X161688500Y-192676500D01*
X161907500Y-271703828D02*
X161907500Y-272559500D01*
X161907500Y-272559500D02*
X161798000Y-272669000D01*
X161688500Y-110507500D02*
X161688500Y-108821500D01*
X161798000Y-110617000D02*
X161688500Y-110507500D01*
X161907500Y-190009500D02*
X161798000Y-190119000D01*
X161798000Y-108712000D02*
X161798000Y-107569000D01*
X161688500Y-191498500D02*
X161798000Y-191389000D01*
X161798000Y-275209000D02*
X161798000Y-330962000D01*
X161307500Y-189915828D02*
X161417000Y-189806328D01*
X161417000Y-330073000D02*
X158750000Y-332740000D01*
X161526500Y-187782172D02*
X161526500Y-187375828D01*
X161307500Y-272465828D02*
X161307500Y-272872172D01*
X161417000Y-187891672D02*
X161526500Y-187782172D01*
X161526500Y-270332172D02*
X161526500Y-269925828D01*
X161417000Y-270441672D02*
X161526500Y-270332172D01*
X161417000Y-189357000D02*
X161417000Y-187891672D01*
X161526500Y-269925828D02*
X161417000Y-269816328D01*
X161526500Y-187375828D02*
X161417000Y-187266328D01*
X161417000Y-269816328D02*
X161417000Y-190431672D01*
X161417000Y-272356328D02*
X161307500Y-272465828D01*
X161307500Y-107365828D02*
X161417000Y-107256328D01*
X161307500Y-190322172D02*
X161307500Y-189915828D01*
X161417000Y-271907000D02*
X161417000Y-272356328D01*
X161417000Y-107881672D02*
X161307500Y-107772172D01*
X161417000Y-187266328D02*
X161417000Y-107881672D01*
X161307500Y-107772172D02*
X161307500Y-107365828D01*
X158750000Y-332740000D02*
X158750000Y-334010000D01*
X161417000Y-107256328D02*
X161417000Y-106807000D01*
X161417000Y-272981672D02*
X161417000Y-330073000D01*
X161417000Y-271907000D02*
X161417000Y-270441672D01*
X161307500Y-272872172D02*
X161417000Y-272981672D01*
X161417000Y-190431672D02*
X161307500Y-190322172D01*
X161417000Y-189806328D02*
X161417000Y-189357000D01*
X162560000Y-194783836D02*
X162560000Y-274134328D01*
X162669500Y-109143828D02*
X162560000Y-109034328D01*
X162560000Y-110109000D02*
X162669500Y-109999500D01*
X162560000Y-109034328D02*
X162560000Y-71120000D01*
X162560000Y-193946500D02*
X162450500Y-194056000D01*
X162560000Y-110143164D02*
X162560000Y-111303246D01*
X162669500Y-191693828D02*
X162669500Y-192549500D01*
X162669500Y-274243828D02*
X162669500Y-275099500D01*
X161290000Y-69850000D02*
X161290000Y-69825000D01*
X162450500Y-194056000D02*
X162450500Y-194674336D01*
X162560000Y-71120000D02*
X161290000Y-69850000D01*
X162669500Y-275099500D02*
X162560000Y-275209000D01*
X162560000Y-274134328D02*
X162669500Y-274243828D01*
X162450500Y-194674336D02*
X162560000Y-194783836D01*
X162669500Y-192549500D02*
X162560000Y-192659000D01*
X162560000Y-112233836D02*
X162560000Y-191584328D01*
X162560000Y-191584328D02*
X162669500Y-191693828D01*
X162450500Y-112124336D02*
X162560000Y-112233836D01*
X162560000Y-192693164D02*
X162560000Y-193946500D01*
X162450500Y-111412746D02*
X162450500Y-112124336D01*
X162669500Y-109999500D02*
X162669500Y-109143828D01*
X162560000Y-111303246D02*
X162450500Y-111412746D01*
X162179000Y-192151000D02*
X162179000Y-191897000D01*
X162288500Y-190322172D02*
X162288500Y-189915828D01*
X162052000Y-109508164D02*
X162179000Y-109381164D01*
X162288500Y-272465828D02*
X162179000Y-272356328D01*
X162179000Y-109347000D02*
X162179000Y-107881672D01*
X161290000Y-73660000D02*
X161310000Y-73640000D01*
X162179000Y-189806328D02*
X162179000Y-110421672D01*
X162179000Y-191897000D02*
X162179000Y-191931164D01*
X162179000Y-110421672D02*
X162052000Y-110294672D01*
X162179000Y-274447000D02*
X162179000Y-272981672D01*
X162052000Y-192878836D02*
X162052000Y-192278000D01*
X162288500Y-107365828D02*
X162179000Y-107256328D01*
X162052000Y-192278000D02*
X162179000Y-192151000D01*
X162179000Y-272356328D02*
X162179000Y-193005836D01*
X161310000Y-73640000D02*
X161310000Y-72365000D01*
X162288500Y-189915828D02*
X162179000Y-189806328D01*
X162179000Y-107881672D02*
X162288500Y-107772172D01*
X162288500Y-272872172D02*
X162288500Y-272465828D01*
X162179000Y-107256328D02*
X162179000Y-74549000D01*
X162179000Y-191897000D02*
X162179000Y-190431672D01*
X162288500Y-107772172D02*
X162288500Y-107365828D01*
X162179000Y-190431672D02*
X162288500Y-190322172D01*
X162052000Y-110294672D02*
X162052000Y-109508164D01*
X162179000Y-193005836D02*
X162052000Y-192878836D01*
X162179000Y-74549000D02*
X161290000Y-73660000D01*
X162179000Y-272981672D02*
X162288500Y-272872172D01*
X163212500Y-279925500D02*
X163212500Y-278874500D01*
X163322000Y-277749000D02*
X163431500Y-277639500D01*
X163322000Y-115697000D02*
X163212500Y-115587500D01*
X161290000Y-336550000D02*
X162560000Y-335280000D01*
X163322000Y-114046000D02*
X163322000Y-112649000D01*
X163212500Y-196773828D02*
X163322000Y-196664328D01*
X162560000Y-332740000D02*
X163322000Y-331978000D01*
X163322000Y-276674328D02*
X163322000Y-197612000D01*
X163431500Y-276783828D02*
X163322000Y-276674328D01*
X163322000Y-197612000D02*
X163212500Y-197502500D01*
X162560000Y-335280000D02*
X162560000Y-332740000D01*
X163322000Y-196664328D02*
X163322000Y-195199000D01*
X163431500Y-277639500D02*
X163431500Y-276783828D01*
X163212500Y-278874500D02*
X163322000Y-278765000D01*
X163431500Y-195089500D02*
X163322000Y-195199000D01*
X163322000Y-194124328D02*
X163431500Y-194233828D01*
X163322000Y-331978000D02*
X163322000Y-280035000D01*
X163322000Y-278765000D02*
X163321999Y-277749000D01*
X163212500Y-115587500D02*
X163212500Y-114155500D01*
X163322000Y-115697000D02*
X163322000Y-194124328D01*
X163431500Y-194233828D02*
X163431500Y-195089500D01*
X163212500Y-114155500D02*
X163322000Y-114046000D01*
X163322000Y-280035000D02*
X163212500Y-279925500D01*
X163212500Y-197502500D02*
X163212500Y-196773828D01*
X162941000Y-195545836D02*
X162831500Y-195436336D01*
X163050500Y-192862172D02*
X163050500Y-192455828D01*
X162941000Y-194437000D02*
X162941000Y-192971672D01*
X162831500Y-195436336D02*
X162831500Y-194546500D01*
X162831500Y-112886336D02*
X162831500Y-112365246D01*
X162831500Y-112365246D02*
X162941000Y-112255746D01*
X162831500Y-194546500D02*
X162941000Y-194437000D01*
X162941000Y-276987000D02*
X162941000Y-275521672D01*
X162941000Y-277436327D02*
X162831499Y-277545828D01*
X162941000Y-112255746D02*
X162941000Y-111921164D01*
X161290000Y-332740000D02*
X161290000Y-334010000D01*
X162941000Y-112995836D02*
X162831500Y-112886336D01*
X162941000Y-192346328D02*
X162941000Y-112995836D01*
X162941000Y-277021164D02*
X162941000Y-276987000D01*
X162941000Y-331089000D02*
X161290000Y-332740000D01*
X162941000Y-275521672D02*
X163050500Y-275412172D01*
X163050500Y-192455828D02*
X162941000Y-192346328D01*
X162941000Y-276987000D02*
X162941000Y-277436327D01*
X163050500Y-275005828D02*
X162941000Y-274896328D01*
X162941000Y-274896328D02*
X162941000Y-195545836D01*
X162831499Y-277545828D02*
X162831499Y-277952172D01*
X162941000Y-192971672D02*
X163050500Y-192862172D01*
X162941000Y-278061673D02*
X162941000Y-331089000D01*
X162831499Y-277952172D02*
X162941000Y-278061673D01*
X163050500Y-275412172D02*
X163050500Y-275005828D01*
X164193500Y-115079500D02*
X164084000Y-115189000D01*
X164084000Y-74803000D02*
X164084000Y-114114328D01*
X164084000Y-114114328D02*
X164193500Y-114223828D01*
X164193500Y-280179500D02*
X164084000Y-280289000D01*
X164193500Y-196773828D02*
X164193500Y-197629500D01*
X164084000Y-116654328D02*
X163974500Y-116763828D01*
X163974500Y-199313828D02*
X163974500Y-199720172D01*
X164084000Y-279214328D02*
X164193500Y-279323828D01*
X164084000Y-199829672D02*
X164084000Y-279214328D01*
X165100000Y-73787000D02*
X164084000Y-74803000D01*
X163974500Y-199720172D02*
X164084000Y-199829672D01*
X163974500Y-116763828D02*
X163974500Y-117170172D01*
X163974500Y-117170172D02*
X164084000Y-117279672D01*
X164084000Y-117279672D02*
X164084000Y-196664328D01*
X164084000Y-197739000D02*
X164084000Y-199204328D01*
X164084000Y-196664328D02*
X164193500Y-196773828D01*
X164084000Y-199204328D02*
X163974500Y-199313828D01*
X163830000Y-69881750D02*
X165100000Y-71151750D01*
X163830000Y-69825000D02*
X163830000Y-69881750D01*
X164193500Y-279323828D02*
X164193500Y-280179500D01*
X164084000Y-115189000D02*
X164084000Y-116654328D01*
X165100000Y-71151750D02*
X165100000Y-73787000D01*
X164193500Y-197629500D02*
X164084000Y-197739000D01*
X164193500Y-114223828D02*
X164193500Y-115079500D01*
X163703000Y-196977000D02*
X163703000Y-195511672D01*
X163593500Y-115392172D02*
X163593500Y-114985828D01*
X163703000Y-195511672D02*
X163812500Y-195402172D01*
X163703000Y-114876328D02*
X163703000Y-114427000D01*
X163812500Y-112445828D02*
X163703000Y-112336328D01*
X163703000Y-277436328D02*
X163703000Y-198051672D01*
X163593500Y-114985828D02*
X163703000Y-114876328D01*
X163703000Y-114427000D02*
X163703000Y-112961672D01*
X163703000Y-198051672D02*
X163593500Y-197942172D01*
X163703000Y-278061672D02*
X163812500Y-277952172D01*
X163703000Y-112336328D02*
X163703000Y-72512000D01*
X163703000Y-115501672D02*
X163593500Y-115392172D01*
X163703000Y-197426328D02*
X163703000Y-196977000D01*
X163812500Y-277952172D02*
X163812500Y-277545828D01*
X163593500Y-197535828D02*
X163703000Y-197426328D01*
X163812500Y-195402172D02*
X163812500Y-194995828D01*
X163593500Y-197942172D02*
X163593500Y-197535828D01*
X163703000Y-194886328D02*
X163703000Y-115501672D01*
X163812500Y-277545828D02*
X163703000Y-277436328D01*
X163703000Y-279527000D02*
X163703000Y-278061672D01*
X163812500Y-112852172D02*
X163812500Y-112445828D01*
X163703000Y-72512000D02*
X163850000Y-72365000D01*
X163703000Y-112961672D02*
X163812500Y-112852172D01*
X163812500Y-194995828D02*
X163703000Y-194886328D01*
X164846000Y-332486000D02*
X164846000Y-285496000D01*
X164846000Y-199204328D02*
X164955500Y-199313828D01*
X164846000Y-284099000D02*
X164845999Y-282829000D01*
X164846000Y-201295000D02*
X164846000Y-200279000D01*
X164736500Y-285386500D02*
X164736500Y-284208500D01*
X165100000Y-332740000D02*
X164846000Y-332486000D01*
X164846000Y-202819000D02*
X164736500Y-202709500D01*
X164736500Y-120286500D02*
X164736500Y-118981500D01*
X165100000Y-335280000D02*
X165100000Y-332740000D01*
X164955500Y-281863828D02*
X164846000Y-281754328D01*
X164736500Y-118981500D02*
X164846000Y-118872000D01*
X164736500Y-202709500D02*
X164736500Y-201404500D01*
X164846000Y-120396000D02*
X164736500Y-120286500D01*
X164955500Y-199313828D02*
X164955500Y-200169500D01*
X164736500Y-201404500D02*
X164846000Y-201295000D01*
X164846000Y-285496000D02*
X164736500Y-285386500D01*
X164846000Y-281754328D02*
X164846000Y-202819000D01*
X163830000Y-336550000D02*
X165100000Y-335280000D01*
X164846000Y-120396000D02*
X164846000Y-199204328D01*
X164955500Y-282719500D02*
X164955500Y-281863828D01*
X164846000Y-118872000D02*
X164846000Y-117729000D01*
X164736500Y-284208500D02*
X164846000Y-284099000D01*
X164465000Y-197426328D02*
X164465000Y-118041672D01*
X164465000Y-282516328D02*
X164355500Y-282625828D01*
X164574500Y-197535828D02*
X164465000Y-197426328D01*
X164465000Y-118041672D02*
X164355500Y-117932172D01*
X164465000Y-199517000D02*
X164465000Y-199966328D01*
X164465000Y-200591672D02*
X164465000Y-279976328D01*
X164465000Y-279976328D02*
X164574500Y-280085828D01*
X164355500Y-200075828D02*
X164355500Y-200482172D01*
X164465000Y-199517000D02*
X164465000Y-198051672D01*
X164355500Y-117525828D02*
X164465000Y-117416328D01*
X164465000Y-198051672D02*
X164574500Y-197942172D01*
X164355500Y-282625828D02*
X164355500Y-283032172D01*
X164465000Y-280601672D02*
X164465000Y-282067000D01*
X164465000Y-332105000D02*
X163830000Y-332740000D01*
X164465000Y-117416328D02*
X164465000Y-116967000D01*
X164355500Y-200482172D02*
X164465000Y-200591672D01*
X164465000Y-199966328D02*
X164355500Y-200075828D01*
X164574500Y-280085828D02*
X164574500Y-280492172D01*
X164465000Y-283141672D02*
X164465000Y-332105000D01*
X164355500Y-117932172D02*
X164355500Y-117525828D01*
X164465000Y-282067000D02*
X164465000Y-282516328D01*
X163830000Y-332740000D02*
X163830000Y-334010000D01*
X164574500Y-280492172D02*
X164465000Y-280601672D01*
X164355500Y-283032172D02*
X164465000Y-283141672D01*
X164574500Y-197942172D02*
X164574500Y-197535828D01*
X165717500Y-284403828D02*
X165608000Y-284294328D01*
X165498500Y-204216000D02*
X165608000Y-204106500D01*
X165608000Y-122393836D02*
X165608000Y-201744328D01*
X165608000Y-120269000D02*
X165717500Y-120159500D01*
X165608000Y-119194328D02*
X165608000Y-75692000D01*
X165608000Y-204106500D02*
X165608000Y-202853164D01*
X165717500Y-285259500D02*
X165717500Y-284403828D01*
X165608000Y-121653746D02*
X165498500Y-121763246D01*
X165498500Y-122284336D02*
X165608000Y-122393836D01*
X165608000Y-201744328D02*
X165717500Y-201853828D01*
X165608000Y-284294328D02*
X165608000Y-204943836D01*
X165498500Y-121763246D02*
X165498500Y-122284336D01*
X167640000Y-73660000D02*
X167640000Y-71120000D01*
X165717500Y-119303828D02*
X165608000Y-119194328D01*
X165717500Y-202709500D02*
X165608000Y-202819000D01*
X165608000Y-204943836D02*
X165498500Y-204834336D01*
X166370000Y-69850000D02*
X166370000Y-69825000D01*
X165608000Y-285369000D02*
X165717500Y-285259500D01*
X167640000Y-71120000D02*
X166370000Y-69850000D01*
X165608000Y-75692000D02*
X167640000Y-73660000D01*
X165498500Y-204834336D02*
X165498500Y-204216000D01*
X165717500Y-201853828D02*
X165717500Y-202709500D01*
X165608000Y-120303164D02*
X165608000Y-121653746D01*
X165717500Y-120159500D02*
X165717500Y-119303828D01*
X165117500Y-202166500D02*
X165117500Y-203327000D01*
X165227000Y-119507000D02*
X165227000Y-118041672D01*
X165227000Y-74803000D02*
X166390000Y-73640000D01*
X165227000Y-202057000D02*
X165117500Y-202166500D01*
X165336500Y-282625828D02*
X165336500Y-283032172D01*
X165227000Y-283141672D02*
X165227000Y-284607000D01*
X165100000Y-120015000D02*
X165227000Y-119888000D01*
X165117500Y-203327000D02*
X165227000Y-203436500D01*
X165117500Y-120506336D02*
X165100000Y-120015000D01*
X165336500Y-200482172D02*
X165336500Y-200075828D01*
X165336500Y-117525828D02*
X165227000Y-117416328D01*
X165227000Y-117416328D02*
X165227000Y-74803000D01*
X165227000Y-203436500D02*
X165227000Y-282516328D01*
X165227000Y-282516328D02*
X165336500Y-282625828D01*
X165227000Y-202057000D02*
X165227000Y-200591672D01*
X165336500Y-117932172D02*
X165336500Y-117525828D01*
X165227000Y-118041672D02*
X165336500Y-117932172D01*
X165227000Y-119888000D02*
X165227000Y-119541164D01*
X165227000Y-199966328D02*
X165227000Y-120615836D01*
X165336500Y-283032172D02*
X165227000Y-283141672D01*
X166390000Y-73640000D02*
X166390000Y-72365000D01*
X165336500Y-200075828D02*
X165227000Y-199966328D01*
X165227000Y-120615836D02*
X165117500Y-120506336D01*
X165227000Y-202091164D02*
X165227000Y-202057000D01*
X165227000Y-200591672D02*
X165336500Y-200482172D01*
X166370000Y-287909000D02*
X166479500Y-287799500D01*
X166370000Y-125857000D02*
X166260500Y-125747500D01*
X166370000Y-124079000D02*
X166370000Y-122809000D01*
X166370000Y-286834328D02*
X166370000Y-208407000D01*
X166370000Y-331470000D02*
X167640000Y-332740000D01*
X166260500Y-289034500D02*
X166370000Y-288925000D01*
X167640000Y-335280000D02*
X166370000Y-336550000D01*
X166260500Y-124188500D02*
X166370000Y-124079000D01*
X166370000Y-290449000D02*
X166260500Y-290339500D01*
X166260500Y-125747500D02*
X166260500Y-124188500D01*
X166370000Y-208407000D02*
X166260500Y-208297500D01*
X167640000Y-332740000D02*
X167640000Y-335280000D01*
X166479500Y-204393828D02*
X166479500Y-205249500D01*
X166260500Y-208297500D02*
X166260500Y-206611500D01*
X166370000Y-206502000D02*
X166370000Y-205359000D01*
X166479500Y-286943828D02*
X166370000Y-286834328D01*
X166479500Y-287799500D02*
X166479500Y-286943828D01*
X166370000Y-288925000D02*
X166370000Y-287909000D01*
X166370000Y-204284328D02*
X166479500Y-204393828D01*
X166370000Y-290449000D02*
X166370000Y-331470000D01*
X166260500Y-206611500D02*
X166370000Y-206502000D01*
X166479500Y-205249500D02*
X166370000Y-205359000D01*
X166370000Y-125857000D02*
X166370000Y-204284328D01*
X166260500Y-290339500D02*
X166260500Y-289034500D01*
X165989000Y-202506328D02*
X165989000Y-123155836D01*
X165879500Y-122537500D02*
X165989000Y-122428000D01*
X165879500Y-205155828D02*
X165879500Y-205562172D01*
X165989000Y-285681672D02*
X165989000Y-287147000D01*
X165879500Y-287290664D02*
X165879500Y-288434500D01*
X165989000Y-332359000D02*
X166370000Y-332740000D01*
X165989000Y-288544000D02*
X165989000Y-332359000D01*
X165879500Y-123046336D02*
X165879500Y-122537500D01*
X165879500Y-288434500D02*
X165989000Y-288544000D01*
X165989000Y-205671672D02*
X165989000Y-285056328D01*
X165989000Y-122428000D02*
X165989000Y-122081164D01*
X166370000Y-332740000D02*
X166370000Y-334010000D01*
X165989000Y-123155836D02*
X165879500Y-123046336D01*
X165989000Y-285056328D02*
X166098500Y-285165828D01*
X165989000Y-204631164D02*
X165989000Y-205046328D01*
X166098500Y-202615828D02*
X165989000Y-202506328D01*
X166098500Y-285572172D02*
X165989000Y-285681672D01*
X166098500Y-203022172D02*
X166098500Y-202615828D01*
X165989000Y-205046328D02*
X165879500Y-205155828D01*
X165989000Y-287181164D02*
X165879500Y-287290664D01*
X165879500Y-205562172D02*
X165989000Y-205671672D01*
X165989000Y-203131672D02*
X166098500Y-203022172D01*
X165989000Y-204597000D02*
X165989000Y-203131672D01*
X166098500Y-285165828D02*
X166098500Y-285572172D01*
X167241500Y-124383828D02*
X167132000Y-124274328D01*
X167132000Y-76708000D02*
X170180000Y-73660000D01*
X167022500Y-126923828D02*
X167022500Y-127330172D01*
X167132000Y-124274328D02*
X167132000Y-76708000D01*
X167132000Y-125349000D02*
X167132000Y-126814328D01*
X167241500Y-290339500D02*
X167241500Y-289483828D01*
X167132000Y-206824328D02*
X167241500Y-206933828D01*
X167132000Y-127439672D02*
X167132000Y-206824328D01*
X167132000Y-289374328D02*
X167132000Y-209989672D01*
X167022500Y-209473828D02*
X167132000Y-209364328D01*
X167241500Y-289483828D02*
X167132000Y-289374328D01*
X167132000Y-209364328D02*
X167132000Y-207899000D01*
X167132000Y-125349000D02*
X167241500Y-125239500D01*
X167132000Y-209989672D02*
X167022500Y-209880172D01*
X170180000Y-73660000D02*
X170180000Y-71120000D01*
X167132000Y-290449000D02*
X167241500Y-290339500D01*
X167022500Y-209880172D02*
X167022500Y-209473828D01*
X167241500Y-206933828D02*
X167241500Y-207789500D01*
X170180000Y-71120000D02*
X168910000Y-69850000D01*
X167241500Y-207789500D02*
X167132000Y-207899000D01*
X167022500Y-127330172D02*
X167132000Y-127439672D01*
X168910000Y-69850000D02*
X168910000Y-69825000D01*
X167241500Y-125239500D02*
X167241500Y-124383828D01*
X167132000Y-126814328D02*
X167022500Y-126923828D01*
X166751000Y-207137000D02*
X166751000Y-207586328D01*
X166860500Y-123012172D02*
X166860500Y-122605828D01*
X166751000Y-205671672D02*
X166860500Y-205562172D01*
X166751000Y-122496328D02*
X166751000Y-75819000D01*
X166751000Y-205046328D02*
X166751000Y-125661672D01*
X166860500Y-122605828D02*
X166751000Y-122496328D01*
X166860500Y-288112172D02*
X166751000Y-288221672D01*
X166751000Y-75819000D02*
X168930000Y-73640000D01*
X166751000Y-123121672D02*
X166860500Y-123012172D01*
X166751000Y-287596328D02*
X166860500Y-287705828D01*
X166860500Y-205155828D02*
X166751000Y-205046328D01*
X166641500Y-207695828D02*
X166641500Y-208102172D01*
X166641500Y-125552172D02*
X166641500Y-125145828D01*
X166641500Y-208102172D02*
X166751000Y-208211672D01*
X166751000Y-208211672D02*
X166751000Y-287596328D01*
X166860500Y-287705828D02*
X166860500Y-288112172D01*
X166751000Y-207586328D02*
X166641500Y-207695828D01*
X166751000Y-288221672D02*
X166751000Y-289687000D01*
X166751000Y-125036328D02*
X166751000Y-124587000D01*
X166751000Y-125661672D02*
X166641500Y-125552172D01*
X166751000Y-124587000D02*
X166751000Y-123121672D01*
X166860500Y-205562172D02*
X166860500Y-205155828D01*
X166641500Y-125145828D02*
X166751000Y-125036328D01*
X168930000Y-73640000D02*
X168930000Y-72365000D01*
X166751000Y-207137000D02*
X166751000Y-205671672D01*
X167894000Y-131064000D02*
X167784500Y-130954500D01*
X167784500Y-129268500D02*
X167894000Y-129159000D01*
X167784500Y-295292500D02*
X167784500Y-294368500D01*
X167894000Y-330454000D02*
X167894000Y-295402000D01*
X168910000Y-336550000D02*
X170180000Y-335280000D01*
X167894000Y-209364328D02*
X168003500Y-209473828D01*
X167894000Y-295402000D02*
X167784500Y-295292500D01*
X167784500Y-130954500D02*
X167784500Y-129268500D01*
X167784500Y-294368500D02*
X167894000Y-294259000D01*
X168003500Y-209473828D02*
X168003500Y-210329500D01*
X167894000Y-294259000D02*
X167893999Y-292989000D01*
X168003500Y-292023828D02*
X167894000Y-291914328D01*
X167894000Y-129159000D02*
X167894000Y-127889000D01*
X167894000Y-131064000D02*
X167894000Y-209364328D01*
X167784500Y-211818500D02*
X167894000Y-211709000D01*
X170180000Y-332740000D02*
X167894000Y-330454000D01*
X170180000Y-335280000D02*
X170180000Y-332740000D01*
X168003500Y-292879500D02*
X168003500Y-292023828D01*
X167784500Y-212996500D02*
X167784500Y-211818500D01*
X167894000Y-213106000D02*
X167784500Y-212996500D01*
X167894000Y-291914328D02*
X167894000Y-213106000D01*
X167894000Y-211709000D02*
X167894000Y-210439000D01*
X167513000Y-292676328D02*
X167403500Y-292785828D01*
X167622500Y-290245828D02*
X167622500Y-290652172D01*
X167513000Y-331343000D02*
X168910000Y-332740000D01*
X167403500Y-293192172D02*
X167513000Y-293301672D01*
X167513000Y-210751672D02*
X167513000Y-290136328D01*
X167403500Y-127685828D02*
X167513000Y-127576328D01*
X167513000Y-209677000D02*
X167513000Y-210126328D01*
X167403500Y-210235828D02*
X167403500Y-210642172D01*
X167622500Y-207695828D02*
X167513000Y-207586328D01*
X167513000Y-290761672D02*
X167513000Y-292227000D01*
X167513000Y-290136328D02*
X167622500Y-290245828D01*
X167513000Y-292227000D02*
X167513000Y-292676328D01*
X167513000Y-128201672D02*
X167403500Y-128092172D01*
X167403500Y-128092172D02*
X167403500Y-127685828D01*
X167403500Y-292785828D02*
X167403500Y-293192172D01*
X167513000Y-293301672D02*
X167513000Y-331343000D01*
X167513000Y-208211672D02*
X167622500Y-208102172D01*
X167513000Y-127576328D02*
X167513000Y-127127000D01*
X167513000Y-207586328D02*
X167513000Y-128201672D01*
X167513000Y-210126328D02*
X167403500Y-210235828D01*
X168910000Y-332740000D02*
X168910000Y-334010000D01*
X167403500Y-210642172D02*
X167513000Y-210751672D01*
X167622500Y-208102172D02*
X167622500Y-207695828D01*
X167622500Y-290652172D02*
X167513000Y-290761672D01*
X167513000Y-209677000D02*
X167513000Y-208211672D01*
X171450000Y-69850000D02*
X171450000Y-69825000D01*
X168656000Y-295529000D02*
X168765500Y-295419500D01*
X168656000Y-132553836D02*
X168656000Y-211904328D01*
X172720000Y-71120000D02*
X171450000Y-69850000D01*
X168765500Y-212013828D02*
X168765500Y-212869500D01*
X168656000Y-294454328D02*
X168656000Y-215069672D01*
X168656000Y-130463164D02*
X168656000Y-131813746D01*
X168765500Y-129463828D02*
X168656000Y-129354328D01*
X168656000Y-130429000D02*
X168765500Y-130319500D01*
X168765500Y-294563828D02*
X168656000Y-294454328D01*
X168656000Y-211904328D02*
X168765500Y-212013828D01*
X168765500Y-212869500D02*
X168656000Y-212979000D01*
X168765500Y-130319500D02*
X168765500Y-129463828D01*
X168546500Y-214960172D02*
X168546500Y-214553828D01*
X168656000Y-131813746D02*
X168546500Y-131923246D01*
X168656000Y-77724000D02*
X172720000Y-73660000D01*
X168656000Y-215069672D02*
X168546500Y-214960172D01*
X172720000Y-73660000D02*
X172720000Y-71120000D01*
X168656000Y-129354328D02*
X168656000Y-77724000D01*
X168546500Y-214553828D02*
X168656000Y-214444328D01*
X168765500Y-295419500D02*
X168765500Y-294563828D01*
X168546500Y-132444336D02*
X168656000Y-132553836D01*
X168546500Y-131923246D02*
X168546500Y-132444336D01*
X168656000Y-214444328D02*
X168656000Y-213013164D01*
X168275000Y-76962000D02*
X171450000Y-73787000D01*
X168275000Y-213291672D02*
X168275000Y-292676328D01*
X168165500Y-130175000D02*
X168275000Y-130065500D01*
X168275000Y-293301672D02*
X168275000Y-294767000D01*
X168275000Y-212251164D02*
X168275000Y-212666328D01*
X168275000Y-210751672D02*
X168384500Y-210642172D01*
X168165500Y-212775828D02*
X168165500Y-213182172D01*
X168384500Y-210642172D02*
X168384500Y-210235828D01*
X168384500Y-210235828D02*
X168275000Y-210126328D01*
X168275000Y-212217000D02*
X168275000Y-210751672D01*
X168275000Y-129667000D02*
X168275000Y-128201672D01*
X168275000Y-212666328D02*
X168165500Y-212775828D01*
X171450000Y-73787000D02*
X171450000Y-72385000D01*
X168275000Y-292676328D02*
X168384500Y-292785828D01*
X168275000Y-127576328D02*
X168275000Y-76962000D01*
X168165500Y-130666336D02*
X168165500Y-130175000D01*
X168275000Y-130065500D02*
X168275000Y-129701164D01*
X168384500Y-128092172D02*
X168384500Y-127685828D01*
X168275000Y-130775836D02*
X168165500Y-130666336D01*
X168275000Y-128201672D02*
X168384500Y-128092172D01*
X168275000Y-210126328D02*
X168275000Y-130775836D01*
X168384500Y-293192172D02*
X168275000Y-293301672D01*
X168384500Y-127685828D02*
X168275000Y-127576328D01*
X168165500Y-213182172D02*
X168275000Y-213291672D01*
X171450000Y-72385000D02*
X171470000Y-72365000D01*
X168384500Y-292785828D02*
X168384500Y-293192172D01*
X169308500Y-135653500D02*
X169308500Y-134475500D01*
X169418000Y-216662000D02*
X169418000Y-215519000D01*
X169418000Y-135763000D02*
X169418000Y-214444328D01*
X169308500Y-299321500D02*
X169418000Y-299212000D01*
X172720000Y-335280000D02*
X172720000Y-332740000D01*
X169527500Y-214553828D02*
X169527500Y-215409500D01*
X169418000Y-218694000D02*
X169308500Y-218584500D01*
X169418000Y-135763000D02*
X169308500Y-135653500D01*
X169418000Y-300736000D02*
X169308500Y-300626500D01*
X169527500Y-297103828D02*
X169418000Y-296994328D01*
X169308500Y-300626500D02*
X169308500Y-299321500D01*
X169418000Y-298069000D02*
X169527500Y-297959500D01*
X169308500Y-216771500D02*
X169418000Y-216662000D01*
X169308500Y-218584500D02*
X169308500Y-216771500D01*
X172720000Y-332740000D02*
X169418000Y-329438000D01*
X169418000Y-214444328D02*
X169527500Y-214553828D01*
X169418000Y-299212000D02*
X169417999Y-298069000D01*
X169418000Y-296994328D02*
X169418000Y-218694000D01*
X169308500Y-134475500D02*
X169418000Y-134366000D01*
X171450000Y-336550000D02*
X172720000Y-335280000D01*
X169418000Y-134366000D02*
X169418000Y-132969000D01*
X169418000Y-329438000D02*
X169418000Y-300736000D01*
X169527500Y-297959500D02*
X169527500Y-297103828D01*
X169037000Y-298415836D02*
X169037000Y-330327000D01*
X169146500Y-212775828D02*
X169037000Y-212666328D01*
X168927500Y-215756336D02*
X169037000Y-215865836D01*
X168927500Y-298306336D02*
X169037000Y-298415836D01*
X169037000Y-212666328D02*
X169037000Y-133315836D01*
X169037000Y-295841672D02*
X169037000Y-297307000D01*
X171450000Y-332740000D02*
X171450000Y-334010000D01*
X169037000Y-213291672D02*
X169146500Y-213182172D01*
X169037000Y-215028500D02*
X168927500Y-215138000D01*
X168927500Y-297416499D02*
X168927500Y-298306336D01*
X169037000Y-133315836D02*
X168927500Y-133206336D01*
X169036999Y-297307000D02*
X168927500Y-297416499D01*
X169037000Y-132588000D02*
X169037000Y-132241164D01*
X169146500Y-295732172D02*
X169037000Y-295841672D01*
X169146500Y-213182172D02*
X169146500Y-212775828D01*
X169037000Y-297341164D02*
X169036999Y-297307000D01*
X168927500Y-215138000D02*
X168927500Y-215756336D01*
X169037000Y-295216328D02*
X169146500Y-295325828D01*
X168927500Y-133206336D02*
X168927500Y-132697500D01*
X168927500Y-132697500D02*
X169037000Y-132588000D01*
X169037000Y-330327000D02*
X171450000Y-332740000D01*
X169037000Y-215865836D02*
X169037000Y-295216328D01*
X169146500Y-295325828D02*
X169146500Y-295732172D01*
X169037000Y-214757000D02*
X169037000Y-213291672D01*
X169037000Y-214791164D02*
X169037000Y-215028500D01*
X170180000Y-219524328D02*
X170070500Y-219633828D01*
X170180000Y-216984328D02*
X170289500Y-217093828D01*
X170180000Y-135509000D02*
X170180000Y-136974328D01*
X170070500Y-137083828D02*
X170070500Y-137490172D01*
X170070500Y-137490172D02*
X170180000Y-137599672D01*
X170289500Y-300499500D02*
X170180000Y-300609000D01*
X170180000Y-136974328D02*
X170070500Y-137083828D01*
X170180000Y-299534328D02*
X170289500Y-299643828D01*
X170070500Y-219633828D02*
X170070500Y-220040172D01*
X170180000Y-220149672D02*
X170180000Y-299534328D01*
X175260000Y-71095000D02*
X173990000Y-69825000D01*
X170180000Y-78740000D02*
X175260000Y-73660000D01*
X170180000Y-134434328D02*
X170180000Y-78740000D01*
X175260000Y-73660000D02*
X175260000Y-71095000D01*
X170289500Y-135399500D02*
X170289500Y-134543828D01*
X170180000Y-135509000D02*
X170289500Y-135399500D01*
X170289500Y-217093828D02*
X170289500Y-217949500D01*
X170289500Y-134543828D02*
X170180000Y-134434328D01*
X170180000Y-218059000D02*
X170180000Y-219524328D01*
X170070500Y-220040172D02*
X170180000Y-220149672D01*
X170289500Y-217949500D02*
X170180000Y-218059000D01*
X170289500Y-299643828D02*
X170289500Y-300499500D01*
X170180000Y-137599672D02*
X170180000Y-216984328D01*
X169908500Y-298272172D02*
X169799000Y-298381672D01*
X169908500Y-297865828D02*
X169908500Y-298272172D01*
X169799000Y-215206328D02*
X169799000Y-135821672D01*
X169799000Y-135821672D02*
X169689500Y-135712172D01*
X169799000Y-217297000D02*
X169799000Y-215831672D01*
X169799000Y-132656328D02*
X169799000Y-77851000D01*
X169799000Y-217746328D02*
X169689500Y-217855828D01*
X169799000Y-134747000D02*
X169799000Y-133281672D01*
X169908500Y-133172172D02*
X169908500Y-132765828D01*
X169799000Y-77851000D02*
X174010000Y-73640000D01*
X169689500Y-135712172D02*
X169689500Y-135305828D01*
X174010000Y-73640000D02*
X174010000Y-72365000D01*
X169799000Y-218371672D02*
X169799000Y-297756328D01*
X169799000Y-217297000D02*
X169799000Y-217746328D01*
X169689500Y-218262172D02*
X169799000Y-218371672D01*
X169689500Y-135305828D02*
X169799000Y-135196328D01*
X169908500Y-215722172D02*
X169908500Y-215315828D01*
X169908500Y-215315828D02*
X169799000Y-215206328D01*
X169908500Y-132765828D02*
X169799000Y-132656328D01*
X169799000Y-135196328D02*
X169799000Y-134747000D01*
X169689500Y-217855828D02*
X169689500Y-218262172D01*
X169799000Y-215831672D02*
X169908500Y-215722172D01*
X169799000Y-133281672D02*
X169908500Y-133172172D01*
X169799000Y-297756328D02*
X169908500Y-297865828D01*
X169799000Y-298381672D02*
X169799000Y-299847000D01*
X170942000Y-221869000D02*
X170942000Y-220599000D01*
X170942000Y-139319000D02*
X170942000Y-138049000D01*
X170942000Y-223139000D02*
X170832500Y-223029500D01*
X170832500Y-223029500D02*
X170832500Y-221978500D01*
X170942000Y-223139000D02*
X170942000Y-302074328D01*
X175260000Y-332867000D02*
X175260000Y-335280000D01*
X175260000Y-335280000D02*
X173990000Y-336550000D01*
X170832500Y-221978500D02*
X170942000Y-221869000D01*
X171051500Y-219633828D02*
X170942000Y-219524328D01*
X170832499Y-304528501D02*
X170942000Y-304419000D01*
X170942000Y-140716000D02*
X170832500Y-140606500D01*
X171051500Y-302183828D02*
X171051500Y-303039500D01*
X170942000Y-219524328D02*
X170942000Y-140716000D01*
X171051500Y-303039500D02*
X170942000Y-303149000D01*
X170942000Y-220599000D02*
X171051500Y-220489500D01*
X170942000Y-304419000D02*
X170942000Y-303149000D01*
X170942000Y-305689000D02*
X170832499Y-305579499D01*
X170832500Y-140606500D02*
X170832500Y-139428500D01*
X170942000Y-302074328D02*
X171051500Y-302183828D01*
X170832499Y-305579499D02*
X170832499Y-304528501D01*
X170832500Y-139428500D02*
X170942000Y-139319000D01*
X170942000Y-305689000D02*
X170942000Y-328549000D01*
X170942000Y-328549000D02*
X175260000Y-332867000D01*
X171051500Y-220489500D02*
X171051500Y-219633828D01*
X170670500Y-300405828D02*
X170561000Y-300296328D01*
X170451500Y-138252172D02*
X170561000Y-138361672D01*
X170561000Y-302387000D02*
X170561000Y-302836328D01*
X170451500Y-137845828D02*
X170451500Y-138252172D01*
X170561000Y-137287000D02*
X170561000Y-137736328D01*
X170670500Y-217855828D02*
X170670500Y-218262172D01*
X170451500Y-220802172D02*
X170451500Y-220395828D01*
X170561000Y-138361672D02*
X170561000Y-217746328D01*
X170670500Y-300812172D02*
X170670500Y-300405828D01*
X170451500Y-303352172D02*
X170561000Y-303461672D01*
X170451500Y-302945828D02*
X170451500Y-303352172D01*
X170561000Y-329311000D02*
X173990000Y-332740000D01*
X170561000Y-300921672D02*
X170670500Y-300812172D01*
X170561000Y-302836328D02*
X170451500Y-302945828D01*
X170561000Y-300296328D02*
X170561000Y-220911672D01*
X170451500Y-220395828D02*
X170561000Y-220286328D01*
X170561000Y-217746328D02*
X170670500Y-217855828D01*
X170561000Y-303461672D02*
X170561000Y-329311000D01*
X170561000Y-302387000D02*
X170561000Y-300921672D01*
X173990000Y-332740000D02*
X173990000Y-334010000D01*
X170561000Y-220911672D02*
X170451500Y-220802172D01*
X170561000Y-220286328D02*
X170561000Y-219837000D01*
X170561000Y-137736328D02*
X170451500Y-137845828D01*
X170670500Y-218262172D02*
X170561000Y-218371672D01*
X170561000Y-218371672D02*
X170561000Y-219837000D01*
X171704000Y-224536000D02*
X171594500Y-224645500D01*
X171594500Y-224645500D02*
X171594500Y-225154336D01*
X171704000Y-79502000D02*
X177800000Y-73406000D01*
X171813500Y-305579500D02*
X171704000Y-305689000D01*
X171704000Y-304614328D02*
X171813500Y-304723828D01*
X177800000Y-71120000D02*
X176530000Y-69850000D01*
X171594500Y-142019746D02*
X171704000Y-141910246D01*
X171813500Y-139623828D02*
X171704000Y-139514328D01*
X171704000Y-225263836D02*
X171704000Y-304614328D01*
X171594500Y-142604336D02*
X171594500Y-142019746D01*
X171813500Y-222173828D02*
X171704000Y-222064328D01*
X171704000Y-223139000D02*
X171813500Y-223029500D01*
X176530000Y-69850000D02*
X176530000Y-69825000D01*
X171594500Y-225154336D02*
X171704000Y-225263836D01*
X171704000Y-142713836D02*
X171594500Y-142604336D01*
X171813500Y-304723828D02*
X171813500Y-305579500D01*
X171704000Y-139514328D02*
X171704000Y-79502000D01*
X171704000Y-140589000D02*
X171813500Y-140479500D01*
X171813500Y-140479500D02*
X171813500Y-139623828D01*
X171704000Y-222064328D02*
X171704000Y-142713836D01*
X171704000Y-141910246D02*
X171704000Y-140623164D01*
X171813500Y-223029500D02*
X171813500Y-222173828D01*
X177800000Y-73406000D02*
X177800000Y-71120000D01*
X171704000Y-223173164D02*
X171704000Y-224536000D01*
X171196000Y-140335000D02*
X171196000Y-140808836D01*
X171323000Y-139827000D02*
X171323000Y-138361672D01*
X171432500Y-302945828D02*
X171323000Y-302836328D01*
X171213500Y-222486500D02*
X171323000Y-222377000D01*
X171432500Y-137845828D02*
X171323000Y-137736328D01*
X171323000Y-138361672D02*
X171432500Y-138252172D01*
X171432500Y-220395828D02*
X171432500Y-220802172D01*
X176550000Y-73513000D02*
X176550000Y-72365000D01*
X171323000Y-139861164D02*
X171323000Y-140208000D01*
X171196000Y-140808836D02*
X171323000Y-140935836D01*
X171323000Y-140935836D02*
X171323000Y-220286328D01*
X171323000Y-220286328D02*
X171432500Y-220395828D01*
X171323000Y-140208000D02*
X171196000Y-140335000D01*
X171323000Y-303461672D02*
X171432500Y-303352172D01*
X171432500Y-303352172D02*
X171432500Y-302945828D01*
X171323000Y-137736328D02*
X171323000Y-78740000D01*
X171213500Y-223376336D02*
X171213500Y-222486500D01*
X171432500Y-220802172D02*
X171323000Y-220911672D01*
X171323000Y-304927000D02*
X171323000Y-303461672D01*
X171323000Y-223485836D02*
X171213500Y-223376336D01*
X171323000Y-78740000D02*
X176550000Y-73513000D01*
X171323000Y-220911672D02*
X171323000Y-222377000D01*
X171432500Y-138252172D02*
X171432500Y-137845828D01*
X171323000Y-222377000D02*
X171323000Y-222411164D01*
X171323000Y-302836328D02*
X171323000Y-223485836D01*
X172466000Y-225679000D02*
X172575500Y-225569500D01*
X172466000Y-311150000D02*
X172356500Y-311040500D01*
X172466000Y-309499000D02*
X172466000Y-308229000D01*
X172356500Y-309608500D02*
X172466000Y-309499000D01*
X172356500Y-311040500D02*
X172356500Y-309608500D01*
X172466000Y-307154328D02*
X172575500Y-307263828D01*
X172356500Y-145432500D02*
X172356500Y-144508500D01*
X172466000Y-227965000D02*
X172356500Y-227855500D01*
X172466000Y-144399000D02*
X172466000Y-143129000D01*
X172466000Y-327787000D02*
X177800000Y-333121000D01*
X172356500Y-144508500D02*
X172466000Y-144399000D01*
X172466000Y-224604328D02*
X172466000Y-145542000D01*
X172575500Y-307263828D02*
X172575500Y-308119500D01*
X172575500Y-224713828D02*
X172466000Y-224604328D01*
X172466000Y-311150000D02*
X172466000Y-327787000D01*
X172575500Y-308119500D02*
X172466000Y-308229000D01*
X172466000Y-227965000D02*
X172466000Y-307154328D01*
X177800000Y-335280000D02*
X176530000Y-336550000D01*
X172466000Y-145542000D02*
X172356500Y-145432500D01*
X172356500Y-227855500D02*
X172356500Y-226931500D01*
X172356500Y-226931500D02*
X172466000Y-226822000D01*
X172575500Y-225569500D02*
X172575500Y-224713828D01*
X177800000Y-333121000D02*
X177800000Y-335280000D01*
X172466000Y-226822000D02*
X172466000Y-225679000D01*
X172085000Y-305376328D02*
X172085000Y-225991672D01*
X172194500Y-305485828D02*
X172085000Y-305376328D01*
X171975500Y-225882172D02*
X171975500Y-225475828D01*
X172085000Y-328549000D02*
X172085000Y-308575836D01*
X172085000Y-142401164D02*
X172085000Y-142735746D01*
X171975500Y-142845246D02*
X171975500Y-143366336D01*
X172085000Y-142735746D02*
X171975500Y-142845246D01*
X172194500Y-223342172D02*
X172085000Y-223451672D01*
X171975500Y-307576500D02*
X172085000Y-307467000D01*
X172085000Y-225991672D02*
X171975500Y-225882172D01*
X171975500Y-308466336D02*
X171975500Y-307576500D01*
X172085000Y-222826328D02*
X172194500Y-222935828D01*
X172085000Y-143475836D02*
X172085000Y-222826328D01*
X176530000Y-332994000D02*
X172085000Y-328549000D01*
X172194500Y-222935828D02*
X172194500Y-223342172D01*
X172085000Y-308575836D02*
X171975500Y-308466336D01*
X172085000Y-223451672D02*
X172085000Y-224917000D01*
X171975500Y-143366336D02*
X172085000Y-143475836D01*
X172194500Y-305892172D02*
X172194500Y-305485828D01*
X176530000Y-334010000D02*
X176530000Y-332994000D01*
X172085000Y-307467000D02*
X172085000Y-306001672D01*
X172085000Y-225366328D02*
X172085000Y-224951164D01*
X172085000Y-306001672D02*
X172194500Y-305892172D01*
X171975500Y-225475828D02*
X172085000Y-225366328D01*
X173118500Y-147650172D02*
X173118500Y-147243828D01*
X173337500Y-228109500D02*
X173337500Y-227253828D01*
X173228000Y-309694328D02*
X173337500Y-309803828D01*
X173228000Y-228219000D02*
X173228000Y-229684328D01*
X173118500Y-147243828D02*
X173228000Y-147134328D01*
X180340000Y-72771000D02*
X180340000Y-71120000D01*
X173228000Y-145669000D02*
X173337500Y-145559500D01*
X180340000Y-71120000D02*
X179070000Y-69850000D01*
X173228000Y-147134328D02*
X173228000Y-145669000D01*
X173337500Y-144703828D02*
X173228000Y-144594328D01*
X173228000Y-79883000D02*
X180340000Y-72771000D01*
X173228000Y-147759672D02*
X173118500Y-147650172D01*
X173337500Y-309803828D02*
X173337500Y-310659500D01*
X173228000Y-228219000D02*
X173337500Y-228109500D01*
X173337500Y-145559500D02*
X173337500Y-144703828D01*
X173228000Y-227144328D02*
X173228000Y-147759672D01*
X173228000Y-144594328D02*
X173228000Y-79883000D01*
X173228000Y-230309672D02*
X173228000Y-309694328D01*
X173337500Y-310659500D02*
X173228000Y-310769000D01*
X173118500Y-230200172D02*
X173228000Y-230309672D01*
X173118500Y-229793828D02*
X173118500Y-230200172D01*
X179070000Y-69850000D02*
X179070000Y-69825000D01*
X173228000Y-229684328D02*
X173118500Y-229793828D01*
X173337500Y-227253828D02*
X173228000Y-227144328D01*
X179090000Y-73132000D02*
X179090000Y-72365000D01*
X172737500Y-145872172D02*
X172847000Y-145981672D01*
X172956500Y-225475828D02*
X172956500Y-225882172D01*
X172737500Y-145465828D02*
X172737500Y-145872172D01*
X172847000Y-144907000D02*
X172847000Y-145356328D01*
X172956500Y-143332172D02*
X172956500Y-142925828D01*
X172847000Y-142816328D02*
X172847000Y-79375000D01*
X172847000Y-145981672D02*
X172847000Y-225366328D01*
X172956500Y-308025828D02*
X172847000Y-307916328D01*
X172847000Y-307916328D02*
X172847000Y-228531672D01*
X172847000Y-143441672D02*
X172956500Y-143332172D01*
X172847000Y-228531672D02*
X172737500Y-228422172D01*
X172847000Y-225991672D02*
X172847000Y-227457000D01*
X172737500Y-228422172D02*
X172737500Y-228015828D01*
X172847000Y-310007000D02*
X172847000Y-308541672D01*
X172847000Y-145356328D02*
X172737500Y-145465828D01*
X172847000Y-144907000D02*
X172847000Y-143441672D01*
X172847000Y-79375000D02*
X179090000Y-73132000D01*
X172847000Y-227906328D02*
X172847000Y-227457000D01*
X172956500Y-142925828D02*
X172847000Y-142816328D01*
X172847000Y-225366328D02*
X172956500Y-225475828D01*
X172847000Y-308541672D02*
X172956500Y-308432172D01*
X172737500Y-228015828D02*
X172847000Y-227906328D01*
X172956500Y-225882172D02*
X172847000Y-225991672D01*
X172956500Y-308432172D02*
X172956500Y-308025828D01*
X173990000Y-327152000D02*
X180340000Y-333502000D01*
X174099500Y-313199500D02*
X173990000Y-313309000D01*
X174099500Y-312343828D02*
X174099500Y-313199500D01*
X174099500Y-230649500D02*
X174099500Y-229793828D01*
X173990000Y-230759000D02*
X174099500Y-230649500D01*
X173990000Y-313309000D02*
X173990000Y-327152000D01*
X173990000Y-229684328D02*
X173990000Y-148209000D01*
X173990000Y-312234328D02*
X174099500Y-312343828D01*
X180340000Y-335280000D02*
X179070000Y-336550000D01*
X173990000Y-230759000D02*
X173990000Y-312234328D01*
X174099500Y-229793828D02*
X173990000Y-229684328D01*
X180340000Y-333502000D02*
X180340000Y-335280000D01*
X173499500Y-230962172D02*
X173609000Y-231071672D01*
X173499500Y-148005828D02*
X173499500Y-148412172D01*
X173609000Y-229997000D02*
X173609000Y-230446328D01*
X173609000Y-228531672D02*
X173609000Y-229997000D01*
X173718500Y-228422172D02*
X173609000Y-228531672D01*
X173609000Y-312996328D02*
X173499500Y-313105828D01*
X173609000Y-227906328D02*
X173718500Y-228015828D01*
X173718500Y-228015828D02*
X173718500Y-228422172D01*
X173499500Y-313512172D02*
X173609000Y-313621672D01*
X173609000Y-312547000D02*
X173609000Y-312996328D01*
X173718500Y-310565828D02*
X173718500Y-310972172D01*
X173499500Y-230555828D02*
X173499500Y-230962172D01*
X173609000Y-148521672D02*
X173609000Y-227906328D01*
X173718500Y-310972172D02*
X173609000Y-311081672D01*
X173609000Y-147896328D02*
X173499500Y-148005828D01*
X173609000Y-327596500D02*
X179070000Y-333057500D01*
X173609000Y-147447000D02*
X173609000Y-147896328D01*
X173609000Y-311081672D02*
X173609000Y-312547000D01*
X173609000Y-313621672D02*
X173609000Y-327596500D01*
X179070000Y-333057500D02*
X179070000Y-334010000D01*
X173499500Y-313105828D02*
X173499500Y-313512172D01*
X173609000Y-230446328D02*
X173499500Y-230555828D01*
X173609000Y-310456328D02*
X173718500Y-310565828D01*
X173499500Y-148412172D02*
X173609000Y-148521672D01*
X173609000Y-231071672D02*
X173609000Y-310456328D01*
D14*
X155194000Y-233680000D02*
X155194000Y-151130000D01*
D15*
X153670000Y-316230000D02*
X155194000Y-316230000D01*
D16*
X153670000Y-151129999D02*
X155194000Y-151130000D01*
D15*
X155194000Y-316230000D02*
X155194000Y-327406000D01*
D16*
X153670000Y-233679999D02*
X155194000Y-233680000D01*
D14*
X155194000Y-151130000D02*
X155194000Y-78994000D01*
X155194000Y-316230000D02*
X155194000Y-233680000D01*
X175006000Y-88940000D02*
X175006000Y-79375000D01*
X179070000Y-153416000D02*
X175006000Y-153416000D01*
X175006000Y-153416000D02*
X175006000Y-88940000D01*
X179070000Y-235712000D02*
X175006000Y-235712000D01*
X179070000Y-316230000D02*
X179070000Y-318516000D01*
X179070000Y-318516000D02*
X175006000Y-318516000D01*
X175006000Y-318516000D02*
X175006000Y-327152000D01*
X175006000Y-235712000D02*
X175006000Y-153416000D01*
X179070000Y-151130000D02*
X179070000Y-153416000D01*
X179070000Y-233680001D02*
X179070000Y-235712000D01*
X175006000Y-318516000D02*
X175006000Y-235712000D01*
G04 #@! TA.AperFunction,Conductor*
G36*
X180067694Y-323868306D02*
G01*
X180086000Y-323912500D01*
X180086000Y-327597500D01*
X180067694Y-327641694D01*
X180023500Y-327660000D01*
X175068500Y-327660000D01*
X175024306Y-327641694D01*
X175006000Y-327597500D01*
X175006000Y-323912500D01*
X175024306Y-323868306D01*
X175068500Y-323850000D01*
X180023500Y-323850000D01*
X180067694Y-323868306D01*
G37*
G04 #@! TD.AperFunction*
G04 #@! TA.AperFunction,Conductor*
G36*
X155175694Y-78504306D02*
G01*
X155194000Y-78548500D01*
X155194000Y-82233500D01*
X155175694Y-82277694D01*
X155131500Y-82296000D01*
X150176500Y-82296000D01*
X150132306Y-82277694D01*
X150114000Y-82233500D01*
X150114000Y-78548500D01*
X150132306Y-78504306D01*
X150176500Y-78486000D01*
X155131500Y-78486000D01*
X155175694Y-78504306D01*
G37*
G04 #@! TD.AperFunction*
G04 #@! TA.AperFunction,Conductor*
G36*
X180067694Y-78504306D02*
G01*
X180086000Y-78548500D01*
X180086000Y-82233500D01*
X180067694Y-82277694D01*
X180023500Y-82296000D01*
X175068500Y-82296000D01*
X175024306Y-82277694D01*
X175006000Y-82233500D01*
X175006000Y-78548500D01*
X175024306Y-78504306D01*
X175068500Y-78486000D01*
X180023500Y-78486000D01*
X180067694Y-78504306D01*
G37*
G04 #@! TD.AperFunction*
G04 #@! TA.AperFunction,Conductor*
G36*
X155175694Y-160038306D02*
G01*
X155194000Y-160082500D01*
X155194000Y-163767500D01*
X155175694Y-163811694D01*
X155131500Y-163830000D01*
X150176500Y-163830000D01*
X150132306Y-163811694D01*
X150114000Y-163767500D01*
X150114000Y-160082500D01*
X150132306Y-160038306D01*
X150176500Y-160020000D01*
X155131500Y-160020000D01*
X155175694Y-160038306D01*
G37*
G04 #@! TD.AperFunction*
G04 #@! TA.AperFunction,Conductor*
G36*
X155175694Y-242588306D02*
G01*
X155194000Y-242632500D01*
X155194000Y-246317500D01*
X155175694Y-246361694D01*
X155131500Y-246380000D01*
X150176500Y-246380000D01*
X150132306Y-246361694D01*
X150114000Y-246317500D01*
X150114000Y-242632500D01*
X150132306Y-242588306D01*
X150176500Y-242570000D01*
X155131500Y-242570000D01*
X155175694Y-242588306D01*
G37*
G04 #@! TD.AperFunction*
G04 #@! TA.AperFunction,Conductor*
G36*
X155175694Y-323868306D02*
G01*
X155194000Y-323912500D01*
X155194000Y-327597500D01*
X155175694Y-327641694D01*
X155131500Y-327660000D01*
X150176500Y-327660000D01*
X150132306Y-327641694D01*
X150114000Y-327597500D01*
X150114000Y-323912500D01*
X150132306Y-323868306D01*
X150176500Y-323850000D01*
X155131500Y-323850000D01*
X155175694Y-323868306D01*
G37*
G04 #@! TD.AperFunction*
G04 #@! TA.AperFunction,Conductor*
G36*
X180067694Y-160038306D02*
G01*
X180086000Y-160082500D01*
X180086000Y-163767500D01*
X180067694Y-163811694D01*
X180023500Y-163830000D01*
X175068500Y-163830000D01*
X175024306Y-163811694D01*
X175006000Y-163767500D01*
X175006000Y-160082500D01*
X175024306Y-160038306D01*
X175068500Y-160020000D01*
X180023500Y-160020000D01*
X180067694Y-160038306D01*
G37*
G04 #@! TD.AperFunction*
G04 #@! TA.AperFunction,Conductor*
G36*
X180067694Y-242588306D02*
G01*
X180086000Y-242632500D01*
X180086000Y-246317500D01*
X180067694Y-246361694D01*
X180023500Y-246380000D01*
X175068500Y-246380000D01*
X175024306Y-246361694D01*
X175006000Y-246317500D01*
X175006000Y-242632500D01*
X175024306Y-242588306D01*
X175068500Y-242570000D01*
X180023500Y-242570000D01*
X180067694Y-242588306D01*
G37*
G04 #@! TD.AperFunction*
M02*
