M48
; DRILL file {KiCad 7.0.7} date 2024 January 02, Tuesday 14:12:34
; FORMAT={-:-/ absolute / metric / decimal}
; #@! TF.CreationDate,2024-01-02T14:12:34+01:00
; #@! TF.GenerationSoftware,Kicad,Pcbnew,7.0.7
; #@! TF.FileFunction,Plated,1,2,PTH
FMAT,2
METRIC
; #@! TA.AperFunction,Plated,PTH,ComponentDrill
T1C1.000
%
G90
G05
T1
X123.19Y-34.29
X123.19Y-36.83
X123.19Y-39.37
X123.19Y-41.91
X123.19Y-44.45
X123.19Y-46.99
X123.19Y-49.53
X123.19Y-52.07
X123.19Y-54.61
X123.19Y-57.15
X123.19Y-59.69
X123.19Y-62.23
X123.19Y-64.77
X123.19Y-67.31
X123.19Y-69.85
X123.19Y-72.39
X123.19Y-74.93
X123.19Y-77.47
X123.19Y-80.01
X123.19Y-82.55
X123.19Y-85.09
X123.19Y-87.63
X123.19Y-90.17
X123.19Y-92.71
X123.19Y-116.84
X123.19Y-119.38
X123.19Y-121.92
X123.19Y-124.46
X123.19Y-127.0
X123.19Y-129.54
X123.19Y-132.08
X123.19Y-134.62
X123.19Y-137.16
X123.19Y-139.7
X123.19Y-142.24
X123.19Y-144.78
X123.19Y-147.32
X123.19Y-149.86
X123.19Y-152.4
X123.19Y-154.94
X123.19Y-157.48
X123.19Y-160.02
X123.19Y-162.56
X123.19Y-165.1
X123.19Y-167.64
X123.19Y-170.18
X123.19Y-172.72
X123.19Y-175.26
X123.19Y-199.39
X123.19Y-201.93
X123.19Y-204.47
X123.19Y-207.01
X123.19Y-209.55
X123.19Y-212.09
X123.19Y-214.63
X123.19Y-217.17
X123.19Y-219.71
X123.19Y-222.25
X123.19Y-224.79
X123.19Y-227.33
X123.19Y-229.87
X123.19Y-232.41
X123.19Y-234.95
X123.19Y-237.49
X123.19Y-240.03
X123.19Y-242.57
X123.19Y-245.11
X123.19Y-247.65
X123.19Y-250.19
X123.19Y-252.73
X123.19Y-255.27
X123.19Y-257.81
X126.365Y-34.29
X126.365Y-36.83
X126.365Y-39.37
X126.365Y-41.91
X126.365Y-44.45
X126.365Y-46.99
X126.365Y-49.53
X126.365Y-52.07
X126.365Y-54.61
X126.365Y-57.15
X126.365Y-59.69
X126.365Y-62.23
X126.365Y-64.77
X126.365Y-67.31
X126.365Y-69.85
X126.365Y-72.39
X126.365Y-74.93
X126.365Y-77.47
X126.365Y-80.01
X126.365Y-82.55
X126.365Y-85.09
X126.365Y-87.63
X126.365Y-90.17
X126.365Y-92.71
X126.365Y-116.84
X126.365Y-119.38
X126.365Y-121.92
X126.365Y-124.46
X126.365Y-127.0
X126.365Y-129.54
X126.365Y-132.08
X126.365Y-134.62
X126.365Y-137.16
X126.365Y-139.7
X126.365Y-142.24
X126.365Y-144.78
X126.365Y-147.32
X126.365Y-149.86
X126.365Y-152.4
X126.365Y-154.94
X126.365Y-157.48
X126.365Y-160.02
X126.365Y-162.56
X126.365Y-165.1
X126.365Y-167.64
X126.365Y-170.18
X126.365Y-172.72
X126.365Y-175.26
X126.365Y-199.39
X126.365Y-201.93
X126.365Y-204.47
X126.365Y-207.01
X126.365Y-209.55
X126.365Y-212.09
X126.365Y-214.63
X126.365Y-217.17
X126.365Y-219.71
X126.365Y-222.25
X126.365Y-224.79
X126.365Y-227.33
X126.365Y-229.87
X126.365Y-232.41
X126.365Y-234.95
X126.365Y-237.49
X126.365Y-240.03
X126.365Y-242.57
X126.365Y-245.11
X126.365Y-247.65
X126.365Y-250.19
X126.365Y-252.73
X126.365Y-255.27
X126.365Y-257.81
X128.524Y-34.29
X128.524Y-36.83
X128.524Y-39.37
X128.524Y-41.91
X128.524Y-44.45
X128.524Y-46.99
X128.524Y-49.53
X128.524Y-52.07
X128.524Y-54.61
X128.524Y-57.15
X128.524Y-59.69
X128.524Y-62.23
X128.524Y-64.77
X128.524Y-67.31
X128.524Y-69.85
X128.524Y-72.39
X128.524Y-74.93
X128.524Y-77.47
X128.524Y-80.01
X128.524Y-82.55
X128.524Y-85.09
X128.524Y-87.63
X128.524Y-90.17
X128.524Y-92.71
X128.524Y-116.84
X128.524Y-119.38
X128.524Y-121.92
X128.524Y-124.46
X128.524Y-127.0
X128.524Y-129.54
X128.524Y-132.08
X128.524Y-134.62
X128.524Y-137.16
X128.524Y-139.7
X128.524Y-142.24
X128.524Y-144.78
X128.524Y-147.32
X128.524Y-149.86
X128.524Y-152.4
X128.524Y-154.94
X128.524Y-157.48
X128.524Y-160.02
X128.524Y-162.56
X128.524Y-165.1
X128.524Y-167.64
X128.524Y-170.18
X128.524Y-172.72
X128.524Y-175.26
X128.524Y-199.39
X128.524Y-201.93
X128.524Y-204.47
X128.524Y-207.01
X128.524Y-209.55
X128.524Y-212.09
X128.524Y-214.63
X128.524Y-217.17
X128.524Y-219.71
X128.524Y-222.25
X128.524Y-224.79
X128.524Y-227.33
X128.524Y-229.87
X128.524Y-232.41
X128.524Y-234.95
X128.524Y-237.49
X128.524Y-240.03
X128.524Y-242.57
X128.524Y-245.11
X128.524Y-247.65
X128.524Y-250.19
X128.524Y-252.73
X128.524Y-255.27
X128.524Y-257.81
X131.826Y-34.29
X131.826Y-36.83
X131.826Y-39.37
X131.826Y-41.91
X131.826Y-44.45
X131.826Y-46.99
X131.826Y-49.53
X131.826Y-52.07
X131.826Y-54.61
X131.826Y-57.15
X131.826Y-59.69
X131.826Y-62.23
X131.826Y-64.77
X131.826Y-67.31
X131.826Y-69.85
X131.826Y-72.39
X131.826Y-74.93
X131.826Y-77.47
X131.826Y-80.01
X131.826Y-82.55
X131.826Y-85.09
X131.826Y-87.63
X131.826Y-90.17
X131.826Y-92.71
X131.826Y-116.84
X131.826Y-119.38
X131.826Y-121.92
X131.826Y-124.46
X131.826Y-127.0
X131.826Y-129.54
X131.826Y-132.08
X131.826Y-134.62
X131.826Y-137.16
X131.826Y-139.7
X131.826Y-142.24
X131.826Y-144.78
X131.826Y-147.32
X131.826Y-149.86
X131.826Y-152.4
X131.826Y-154.94
X131.826Y-157.48
X131.826Y-160.02
X131.826Y-162.56
X131.826Y-165.1
X131.826Y-167.64
X131.826Y-170.18
X131.826Y-172.72
X131.826Y-175.26
X131.826Y-199.39
X131.826Y-201.93
X131.826Y-204.47
X131.826Y-207.01
X131.826Y-209.55
X131.826Y-212.09
X131.826Y-214.63
X131.826Y-217.17
X131.826Y-219.71
X131.826Y-222.25
X131.826Y-224.79
X131.826Y-227.33
X131.826Y-229.87
X131.826Y-232.41
X131.826Y-234.95
X131.826Y-237.49
X131.826Y-240.03
X131.826Y-242.57
X131.826Y-245.11
X131.826Y-247.65
X131.826Y-250.19
X131.826Y-252.73
X131.826Y-255.27
X131.826Y-257.81
X133.985Y-34.29
X133.985Y-36.83
X133.985Y-39.37
X133.985Y-41.91
X133.985Y-44.45
X133.985Y-46.99
X133.985Y-49.53
X133.985Y-52.07
X133.985Y-54.61
X133.985Y-57.15
X133.985Y-59.69
X133.985Y-62.23
X133.985Y-64.77
X133.985Y-67.31
X133.985Y-69.85
X133.985Y-72.39
X133.985Y-74.93
X133.985Y-77.47
X133.985Y-80.01
X133.985Y-82.55
X133.985Y-85.09
X133.985Y-87.63
X133.985Y-90.17
X133.985Y-92.71
X133.985Y-116.84
X133.985Y-119.38
X133.985Y-121.92
X133.985Y-124.46
X133.985Y-127.0
X133.985Y-129.54
X133.985Y-132.08
X133.985Y-134.62
X133.985Y-137.16
X133.985Y-139.7
X133.985Y-142.24
X133.985Y-144.78
X133.985Y-147.32
X133.985Y-149.86
X133.985Y-152.4
X133.985Y-154.94
X133.985Y-157.48
X133.985Y-160.02
X133.985Y-162.56
X133.985Y-165.1
X133.985Y-167.64
X133.985Y-170.18
X133.985Y-172.72
X133.985Y-175.26
X133.985Y-199.39
X133.985Y-201.93
X133.985Y-204.47
X133.985Y-207.01
X133.985Y-209.55
X133.985Y-212.09
X133.985Y-214.63
X133.985Y-217.17
X133.985Y-219.71
X133.985Y-222.25
X133.985Y-224.79
X133.985Y-227.33
X133.985Y-229.87
X133.985Y-232.41
X133.985Y-234.95
X133.985Y-237.49
X133.985Y-240.03
X133.985Y-242.57
X133.985Y-245.11
X133.985Y-247.65
X133.985Y-250.19
X133.985Y-252.73
X133.985Y-255.27
X133.985Y-257.81
X137.16Y-34.29
X137.16Y-36.83
X137.16Y-39.37
X137.16Y-41.91
X137.16Y-44.45
X137.16Y-46.99
X137.16Y-49.53
X137.16Y-52.07
X137.16Y-54.61
X137.16Y-57.15
X137.16Y-59.69
X137.16Y-62.23
X137.16Y-64.77
X137.16Y-67.31
X137.16Y-69.85
X137.16Y-72.39
X137.16Y-74.93
X137.16Y-77.47
X137.16Y-80.01
X137.16Y-82.55
X137.16Y-85.09
X137.16Y-87.63
X137.16Y-90.17
X137.16Y-92.71
X137.16Y-116.84
X137.16Y-119.38
X137.16Y-121.92
X137.16Y-124.46
X137.16Y-127.0
X137.16Y-129.54
X137.16Y-132.08
X137.16Y-134.62
X137.16Y-137.16
X137.16Y-139.7
X137.16Y-142.24
X137.16Y-144.78
X137.16Y-147.32
X137.16Y-149.86
X137.16Y-152.4
X137.16Y-154.94
X137.16Y-157.48
X137.16Y-160.02
X137.16Y-162.56
X137.16Y-165.1
X137.16Y-167.64
X137.16Y-170.18
X137.16Y-172.72
X137.16Y-175.26
X137.16Y-199.39
X137.16Y-201.93
X137.16Y-204.47
X137.16Y-207.01
X137.16Y-209.55
X137.16Y-212.09
X137.16Y-214.63
X137.16Y-217.17
X137.16Y-219.71
X137.16Y-222.25
X137.16Y-224.79
X137.16Y-227.33
X137.16Y-229.87
X137.16Y-232.41
X137.16Y-234.95
X137.16Y-237.49
X137.16Y-240.03
X137.16Y-242.57
X137.16Y-245.11
X137.16Y-247.65
X137.16Y-250.19
X137.16Y-252.73
X137.16Y-255.27
X137.16Y-257.81
T0
M30
