G04 #@! TF.GenerationSoftware,KiCad,Pcbnew,7.0.7*
G04 #@! TF.CreationDate,2024-01-02T14:12:31+01:00*
G04 #@! TF.ProjectId,Signalling,5369676e-616c-46c6-996e-672e6b696361,rev?*
G04 #@! TF.SameCoordinates,Original*
G04 #@! TF.FileFunction,Soldermask,Bot*
G04 #@! TF.FilePolarity,Negative*
%FSLAX46Y46*%
G04 Gerber Fmt 4.6, Leading zero omitted, Abs format (unit mm)*
G04 Created by KiCad (PCBNEW 7.0.7) date 2024-01-02 14:12:31*
%MOMM*%
%LPD*%
G01*
G04 APERTURE LIST*
%ADD10R,2.000000X2.000000*%
%ADD11C,2.200000*%
G04 APERTURE END LIST*
D10*
X126365000Y-255270000D03*
X131826000Y-222250000D03*
X137160000Y-124460000D03*
X131826000Y-247650000D03*
X131826000Y-34290000D03*
X128524000Y-144780000D03*
X133985000Y-209550000D03*
X123190000Y-64770000D03*
X137160000Y-57150000D03*
X137160000Y-39370000D03*
X128524000Y-34290000D03*
X131826000Y-124460000D03*
X137160000Y-252730000D03*
X128524000Y-92710000D03*
X128524000Y-160020000D03*
D11*
X130175000Y-179070000D03*
D10*
X123190000Y-72390000D03*
X137160000Y-170180000D03*
X128524000Y-85090000D03*
X128524000Y-147320000D03*
X123190000Y-172720000D03*
X123190000Y-127000000D03*
X131826000Y-207010000D03*
X131826000Y-160020000D03*
X131826000Y-217170000D03*
X126365000Y-124460000D03*
X133985000Y-34290000D03*
X133985000Y-85090000D03*
X126365000Y-34290000D03*
X128524000Y-237490000D03*
X137160000Y-119380000D03*
X133985000Y-77470000D03*
X128524000Y-77470000D03*
X123190000Y-134620000D03*
X133985000Y-237490000D03*
X123190000Y-144780000D03*
X131826000Y-90170000D03*
X137160000Y-229870000D03*
X128524000Y-49530000D03*
X133985000Y-154940000D03*
D11*
X130175000Y-261620000D03*
D10*
X123190000Y-162560000D03*
X128524000Y-199390000D03*
X133985000Y-204470000D03*
X123190000Y-54610000D03*
X137160000Y-165100000D03*
X137160000Y-245110000D03*
X137160000Y-257810000D03*
X126365000Y-162560000D03*
X131826000Y-149860000D03*
X131826000Y-224790000D03*
X133985000Y-90170000D03*
X128524000Y-175260000D03*
X137160000Y-167640000D03*
X131826000Y-209550000D03*
X128524000Y-90170000D03*
X123190000Y-154940000D03*
X133985000Y-57150000D03*
X133985000Y-82550000D03*
X137160000Y-224790000D03*
X128524000Y-219710000D03*
X128524000Y-62230000D03*
X126365000Y-46990000D03*
X131826000Y-52070000D03*
X123190000Y-237490000D03*
X131826000Y-67310000D03*
X131826000Y-214630000D03*
X126365000Y-82550000D03*
X128524000Y-72390000D03*
X131826000Y-85090000D03*
X131826000Y-252730000D03*
X128524000Y-167640000D03*
X133985000Y-162560000D03*
X128524000Y-222250000D03*
X133985000Y-46990000D03*
X128524000Y-170180000D03*
X123190000Y-234950000D03*
X126365000Y-207010000D03*
X123190000Y-36830000D03*
X131826000Y-62230000D03*
X131826000Y-134620000D03*
X131826000Y-44450000D03*
X137160000Y-62230000D03*
X137160000Y-67310000D03*
X126365000Y-250190000D03*
X131826000Y-245110000D03*
X133985000Y-212090000D03*
X123190000Y-207010000D03*
X123190000Y-49530000D03*
X133985000Y-92710000D03*
X128524000Y-212090000D03*
X123190000Y-212090000D03*
X133985000Y-127000000D03*
X123190000Y-245110000D03*
X137160000Y-44450000D03*
X131826000Y-170180000D03*
X131826000Y-167640000D03*
X126365000Y-152400000D03*
X131826000Y-219710000D03*
X123190000Y-74930000D03*
X133985000Y-137160000D03*
X123190000Y-152400000D03*
X133985000Y-132080000D03*
X137160000Y-36830000D03*
X137160000Y-160020000D03*
X137160000Y-82550000D03*
X131826000Y-175260000D03*
X123190000Y-165100000D03*
X131826000Y-80010000D03*
X128524000Y-234950000D03*
X123190000Y-62230000D03*
X131826000Y-132080000D03*
X137160000Y-214630000D03*
X131826000Y-36830000D03*
X128524000Y-132080000D03*
X137160000Y-46990000D03*
X123190000Y-222250000D03*
X126365000Y-72390000D03*
X131826000Y-129540000D03*
X126365000Y-229870000D03*
X133985000Y-149860000D03*
X131826000Y-162560000D03*
X133985000Y-222250000D03*
X123190000Y-201930000D03*
X133985000Y-201930000D03*
X126365000Y-142240000D03*
X131826000Y-199390000D03*
X126365000Y-44450000D03*
X128524000Y-41910000D03*
X137160000Y-139700000D03*
X137160000Y-121920000D03*
X123190000Y-232410000D03*
X133985000Y-207010000D03*
X126365000Y-139700000D03*
X128524000Y-209550000D03*
X131826000Y-229870000D03*
X123190000Y-129540000D03*
X128524000Y-54610000D03*
D11*
X130175000Y-195580000D03*
D10*
X131826000Y-144780000D03*
X123190000Y-57150000D03*
X126365000Y-242570000D03*
X137160000Y-209550000D03*
X131826000Y-69850000D03*
X123190000Y-229870000D03*
X126365000Y-170180000D03*
X133985000Y-147320000D03*
X128524000Y-129540000D03*
X131826000Y-139700000D03*
X126365000Y-199390000D03*
X126365000Y-85090000D03*
X128524000Y-162560000D03*
X137160000Y-127000000D03*
X131826000Y-116840000D03*
X126365000Y-219710000D03*
X126365000Y-245110000D03*
X128524000Y-217170000D03*
X133985000Y-129540000D03*
X137160000Y-154940000D03*
X137160000Y-172720000D03*
X123190000Y-124460000D03*
X126365000Y-157480000D03*
X137160000Y-132080000D03*
X133985000Y-74930000D03*
X131826000Y-250190000D03*
X126365000Y-149860000D03*
X137160000Y-129540000D03*
X137160000Y-217170000D03*
D11*
X130175000Y-30480000D03*
D10*
X133985000Y-165100000D03*
X137160000Y-237490000D03*
X131826000Y-154940000D03*
X137160000Y-152400000D03*
X128524000Y-204470000D03*
X131826000Y-232410000D03*
X131826000Y-72390000D03*
X137160000Y-41910000D03*
X131826000Y-87630000D03*
X126365000Y-119380000D03*
X137160000Y-90170000D03*
X126365000Y-172720000D03*
X126365000Y-129540000D03*
X133985000Y-157480000D03*
X137160000Y-204470000D03*
X123190000Y-175260000D03*
X126365000Y-74930000D03*
X128524000Y-214630000D03*
X131826000Y-201930000D03*
X133985000Y-224790000D03*
X123190000Y-199390000D03*
X133985000Y-139700000D03*
X137160000Y-212090000D03*
X123190000Y-44450000D03*
X123190000Y-92710000D03*
X133985000Y-219710000D03*
X128524000Y-134620000D03*
X137160000Y-142240000D03*
X133985000Y-36830000D03*
X128524000Y-224790000D03*
X137160000Y-199390000D03*
X133985000Y-39370000D03*
X123190000Y-67310000D03*
X126365000Y-154940000D03*
X133985000Y-54610000D03*
X137160000Y-219710000D03*
X131826000Y-204470000D03*
X133985000Y-242570000D03*
X126365000Y-54610000D03*
X126365000Y-64770000D03*
X128524000Y-229870000D03*
X133985000Y-227330000D03*
X131826000Y-172720000D03*
X123190000Y-69850000D03*
X126365000Y-137160000D03*
X123190000Y-39370000D03*
X123190000Y-157480000D03*
X133985000Y-144780000D03*
X126365000Y-59690000D03*
X126365000Y-80010000D03*
D11*
X130175000Y-113030000D03*
D10*
X123190000Y-87630000D03*
X123190000Y-77470000D03*
X131826000Y-54610000D03*
X126365000Y-214630000D03*
X128524000Y-59690000D03*
X131826000Y-127000000D03*
X126365000Y-222250000D03*
X131826000Y-39370000D03*
X133985000Y-142240000D03*
X131826000Y-237490000D03*
X128524000Y-69850000D03*
X133985000Y-172720000D03*
X137160000Y-72390000D03*
X137160000Y-240030000D03*
X123190000Y-252730000D03*
X126365000Y-237490000D03*
X126365000Y-132080000D03*
X126365000Y-77470000D03*
X128524000Y-52070000D03*
X123190000Y-82550000D03*
X131826000Y-165100000D03*
X131826000Y-59690000D03*
X133985000Y-217170000D03*
X137160000Y-137160000D03*
X123190000Y-227330000D03*
X123190000Y-224790000D03*
X126365000Y-165100000D03*
X128524000Y-207010000D03*
X128524000Y-257810000D03*
X123190000Y-219710000D03*
X126365000Y-212090000D03*
X126365000Y-227330000D03*
X137160000Y-234950000D03*
X128524000Y-64770000D03*
X131826000Y-227330000D03*
X123190000Y-41910000D03*
X128524000Y-127000000D03*
X133985000Y-247650000D03*
X133985000Y-229870000D03*
D11*
X130175000Y-96520000D03*
D10*
X126365000Y-217170000D03*
X128524000Y-250190000D03*
X137160000Y-116840000D03*
X131826000Y-77470000D03*
X137160000Y-232410000D03*
X128524000Y-232410000D03*
X133985000Y-41910000D03*
X123190000Y-170180000D03*
X133985000Y-170180000D03*
X137160000Y-49530000D03*
X123190000Y-52070000D03*
X137160000Y-247650000D03*
X123190000Y-214630000D03*
X128524000Y-116840000D03*
X123190000Y-217170000D03*
X131826000Y-74930000D03*
X131826000Y-119380000D03*
X126365000Y-209550000D03*
X126365000Y-69850000D03*
X131826000Y-49530000D03*
X133985000Y-119380000D03*
X133985000Y-175260000D03*
X137160000Y-87630000D03*
X123190000Y-80010000D03*
X133985000Y-87630000D03*
X133985000Y-152400000D03*
X128524000Y-157480000D03*
X123190000Y-132080000D03*
X133985000Y-116840000D03*
X133985000Y-167640000D03*
X133985000Y-214630000D03*
X126365000Y-175260000D03*
X131826000Y-212090000D03*
X133985000Y-232410000D03*
X133985000Y-257810000D03*
X133985000Y-67310000D03*
X126365000Y-234950000D03*
X131826000Y-137160000D03*
X128524000Y-57150000D03*
X126365000Y-147320000D03*
X126365000Y-134620000D03*
X128524000Y-172720000D03*
X126365000Y-121920000D03*
X133985000Y-59690000D03*
X126365000Y-160020000D03*
X123190000Y-85090000D03*
X123190000Y-209550000D03*
X137160000Y-54610000D03*
X126365000Y-144780000D03*
X133985000Y-255270000D03*
X126365000Y-36830000D03*
X133985000Y-252730000D03*
X123190000Y-119380000D03*
X126365000Y-240030000D03*
X131826000Y-82550000D03*
X137160000Y-85090000D03*
X123190000Y-167640000D03*
X126365000Y-127000000D03*
X131826000Y-234950000D03*
X131826000Y-157480000D03*
X131826000Y-242570000D03*
X128524000Y-121920000D03*
X123190000Y-90170000D03*
X133985000Y-52070000D03*
X137160000Y-227330000D03*
X137160000Y-255270000D03*
X126365000Y-52070000D03*
X137160000Y-134620000D03*
X128524000Y-46990000D03*
X131826000Y-92710000D03*
X137160000Y-69850000D03*
X133985000Y-49530000D03*
X123190000Y-255270000D03*
X133985000Y-234950000D03*
X137160000Y-157480000D03*
X128524000Y-245110000D03*
X123190000Y-121920000D03*
X137160000Y-59690000D03*
X133985000Y-44450000D03*
X126365000Y-67310000D03*
X137160000Y-222250000D03*
X128524000Y-252730000D03*
X133985000Y-69850000D03*
X126365000Y-62230000D03*
X126365000Y-232410000D03*
X137160000Y-162560000D03*
X133985000Y-250190000D03*
X131826000Y-240030000D03*
X123190000Y-160020000D03*
X137160000Y-149860000D03*
X137160000Y-92710000D03*
X131826000Y-257810000D03*
X128524000Y-137160000D03*
X133985000Y-64770000D03*
X128524000Y-201930000D03*
X133985000Y-199390000D03*
X123190000Y-59690000D03*
X128524000Y-139700000D03*
X128524000Y-74930000D03*
X128524000Y-240030000D03*
X123190000Y-204470000D03*
X126365000Y-41910000D03*
X126365000Y-201930000D03*
X126365000Y-252730000D03*
X131826000Y-147320000D03*
X126365000Y-87630000D03*
X131826000Y-121920000D03*
X137160000Y-77470000D03*
X133985000Y-72390000D03*
X133985000Y-80010000D03*
X123190000Y-116840000D03*
X128524000Y-44450000D03*
X137160000Y-144780000D03*
X128524000Y-247650000D03*
X133985000Y-160020000D03*
X126365000Y-204470000D03*
X128524000Y-39370000D03*
X126365000Y-167640000D03*
X131826000Y-152400000D03*
X131826000Y-64770000D03*
X128524000Y-154940000D03*
X126365000Y-257810000D03*
X126365000Y-92710000D03*
X137160000Y-34290000D03*
X128524000Y-67310000D03*
X126365000Y-49530000D03*
X133985000Y-124460000D03*
X123190000Y-257810000D03*
X137160000Y-52070000D03*
X123190000Y-147320000D03*
X126365000Y-116840000D03*
X123190000Y-240030000D03*
X126365000Y-57150000D03*
X126365000Y-90170000D03*
X128524000Y-124460000D03*
X123190000Y-250190000D03*
X128524000Y-36830000D03*
X123190000Y-139700000D03*
X137160000Y-74930000D03*
X131826000Y-142240000D03*
X131826000Y-57150000D03*
X133985000Y-121920000D03*
X128524000Y-119380000D03*
X123190000Y-247650000D03*
X137160000Y-250190000D03*
X137160000Y-64770000D03*
X123190000Y-142240000D03*
X123190000Y-34290000D03*
X131826000Y-255270000D03*
X131826000Y-46990000D03*
X128524000Y-227330000D03*
X128524000Y-80010000D03*
X137160000Y-207010000D03*
X128524000Y-87630000D03*
X128524000Y-149860000D03*
X128524000Y-255270000D03*
X123190000Y-137160000D03*
X133985000Y-62230000D03*
X128524000Y-142240000D03*
X137160000Y-242570000D03*
X137160000Y-147320000D03*
X123190000Y-242570000D03*
X137160000Y-80010000D03*
X126365000Y-224790000D03*
X128524000Y-152400000D03*
X126365000Y-39370000D03*
X128524000Y-82550000D03*
X133985000Y-245110000D03*
X123190000Y-46990000D03*
X133985000Y-134620000D03*
X131826000Y-41910000D03*
X128524000Y-165100000D03*
X126365000Y-247650000D03*
X128524000Y-242570000D03*
X137160000Y-201930000D03*
X133985000Y-240030000D03*
X123190000Y-149860000D03*
X137160000Y-175260000D03*
M02*
