G04 #@! TF.GenerationSoftware,KiCad,Pcbnew,7.0.7*
G04 #@! TF.CreationDate,2024-01-02T15:09:44+01:00*
G04 #@! TF.ProjectId,ControlPanel,436f6e74-726f-46c5-9061-6e656c2e6b69,rev?*
G04 #@! TF.SameCoordinates,Original*
G04 #@! TF.FileFunction,Copper,L1,Top*
G04 #@! TF.FilePolarity,Positive*
%FSLAX46Y46*%
G04 Gerber Fmt 4.6, Leading zero omitted, Abs format (unit mm)*
G04 Created by KiCad (PCBNEW 7.0.7) date 2024-01-02 15:09:44*
%MOMM*%
%LPD*%
G01*
G04 APERTURE LIST*
G04 Aperture macros list*
%AMRoundRect*
0 Rectangle with rounded corners*
0 $1 Rounding radius*
0 $2 $3 $4 $5 $6 $7 $8 $9 X,Y pos of 4 corners*
0 Add a 4 corners polygon primitive as box body*
4,1,4,$2,$3,$4,$5,$6,$7,$8,$9,$2,$3,0*
0 Add four circle primitives for the rounded corners*
1,1,$1+$1,$2,$3*
1,1,$1+$1,$4,$5*
1,1,$1+$1,$6,$7*
1,1,$1+$1,$8,$9*
0 Add four rect primitives between the rounded corners*
20,1,$1+$1,$2,$3,$4,$5,0*
20,1,$1+$1,$4,$5,$6,$7,0*
20,1,$1+$1,$6,$7,$8,$9,0*
20,1,$1+$1,$8,$9,$2,$3,0*%
G04 Aperture macros list end*
G04 #@! TA.AperFunction,SMDPad,CuDef*
%ADD10RoundRect,0.250000X-0.475000X0.337500X-0.475000X-0.337500X0.475000X-0.337500X0.475000X0.337500X0*%
G04 #@! TD*
G04 #@! TA.AperFunction,SMDPad,CuDef*
%ADD11RoundRect,0.250000X0.475000X-0.337500X0.475000X0.337500X-0.475000X0.337500X-0.475000X-0.337500X0*%
G04 #@! TD*
G04 #@! TA.AperFunction,SMDPad,CuDef*
%ADD12RoundRect,0.150000X-0.725000X-0.150000X0.725000X-0.150000X0.725000X0.150000X-0.725000X0.150000X0*%
G04 #@! TD*
G04 #@! TA.AperFunction,SMDPad,CuDef*
%ADD13RoundRect,0.150000X-0.825000X-0.150000X0.825000X-0.150000X0.825000X0.150000X-0.825000X0.150000X0*%
G04 #@! TD*
G04 #@! TA.AperFunction,ComponentPad*
%ADD14C,1.500000*%
G04 #@! TD*
G04 #@! TA.AperFunction,ComponentPad*
%ADD15O,1.850000X3.048000*%
G04 #@! TD*
G04 #@! TA.AperFunction,SMDPad,CuDef*
%ADD16RoundRect,0.250000X0.450000X-0.350000X0.450000X0.350000X-0.450000X0.350000X-0.450000X-0.350000X0*%
G04 #@! TD*
G04 #@! TA.AperFunction,SMDPad,CuDef*
%ADD17R,1.150000X0.600000*%
G04 #@! TD*
G04 #@! TA.AperFunction,SMDPad,CuDef*
%ADD18R,1.150000X0.300000*%
G04 #@! TD*
G04 #@! TA.AperFunction,ComponentPad*
%ADD19O,2.100000X1.000000*%
G04 #@! TD*
G04 #@! TA.AperFunction,ComponentPad*
%ADD20RoundRect,0.250000X0.650000X-0.250000X0.650000X0.250000X-0.650000X0.250000X-0.650000X-0.250000X0*%
G04 #@! TD*
G04 #@! TA.AperFunction,SMDPad,CuDef*
%ADD21RoundRect,0.250000X-0.450000X0.350000X-0.450000X-0.350000X0.450000X-0.350000X0.450000X0.350000X0*%
G04 #@! TD*
G04 #@! TA.AperFunction,SMDPad,CuDef*
%ADD22RoundRect,0.150000X0.150000X-0.725000X0.150000X0.725000X-0.150000X0.725000X-0.150000X-0.725000X0*%
G04 #@! TD*
G04 #@! TA.AperFunction,SMDPad,CuDef*
%ADD23RoundRect,0.150000X0.150000X-0.825000X0.150000X0.825000X-0.150000X0.825000X-0.150000X-0.825000X0*%
G04 #@! TD*
G04 #@! TA.AperFunction,SMDPad,CuDef*
%ADD24RoundRect,0.250000X-0.337500X-0.475000X0.337500X-0.475000X0.337500X0.475000X-0.337500X0.475000X0*%
G04 #@! TD*
G04 #@! TA.AperFunction,ComponentPad*
%ADD25R,1.700000X1.700000*%
G04 #@! TD*
G04 #@! TA.AperFunction,ComponentPad*
%ADD26O,1.700000X1.700000*%
G04 #@! TD*
G04 #@! TA.AperFunction,SMDPad,CuDef*
%ADD27R,1.200000X0.400000*%
G04 #@! TD*
G04 #@! TA.AperFunction,SMDPad,CuDef*
%ADD28RoundRect,0.250000X-0.450000X0.325000X-0.450000X-0.325000X0.450000X-0.325000X0.450000X0.325000X0*%
G04 #@! TD*
G04 #@! TA.AperFunction,ViaPad*
%ADD29C,0.600000*%
G04 #@! TD*
G04 #@! TA.AperFunction,ViaPad*
%ADD30C,1.500000*%
G04 #@! TD*
G04 #@! TA.AperFunction,ViaPad*
%ADD31C,0.900000*%
G04 #@! TD*
G04 #@! TA.AperFunction,Conductor*
%ADD32C,0.400000*%
G04 #@! TD*
G04 #@! TA.AperFunction,Conductor*
%ADD33C,0.127000*%
G04 #@! TD*
G04 #@! TA.AperFunction,Conductor*
%ADD34C,0.254000*%
G04 #@! TD*
G04 #@! TA.AperFunction,Conductor*
%ADD35C,0.500000*%
G04 #@! TD*
G04 #@! TA.AperFunction,Conductor*
%ADD36C,1.500000*%
G04 #@! TD*
G04 #@! TA.AperFunction,Conductor*
%ADD37C,0.750000*%
G04 #@! TD*
G04 #@! TA.AperFunction,Conductor*
%ADD38C,0.406400*%
G04 #@! TD*
G04 APERTURE END LIST*
D10*
X61595000Y-70104000D03*
X61595000Y-72179000D03*
X70993000Y-80348000D03*
X70993000Y-82423000D03*
X101854000Y-29950500D03*
X101854000Y-32025500D03*
D11*
X87922000Y-50208001D03*
X87922000Y-48133001D03*
D12*
X34763000Y-28956000D03*
X34763000Y-30226000D03*
X34763000Y-31496000D03*
X34763000Y-32766000D03*
X34763000Y-34036000D03*
X34763000Y-35306000D03*
X34763000Y-36576000D03*
X34763000Y-37846000D03*
X39913000Y-37846000D03*
X39913000Y-36576000D03*
X39913000Y-35306000D03*
X39913000Y-34036000D03*
X39913000Y-32766000D03*
X39913000Y-31496000D03*
X39913000Y-30226000D03*
X39913000Y-28956000D03*
D10*
X31242000Y-26648500D03*
X31242000Y-28723500D03*
D13*
X68645000Y-55880000D03*
X68645000Y-57150000D03*
X68645000Y-58420000D03*
X68645000Y-59690000D03*
X68645000Y-60960000D03*
X68645000Y-62230000D03*
X68645000Y-63500000D03*
X73595000Y-63500000D03*
X73595000Y-62230000D03*
X73595000Y-60960000D03*
X73595000Y-59690000D03*
X73595000Y-58420000D03*
X73595000Y-57150000D03*
X73595000Y-55880000D03*
D10*
X42672000Y-40851000D03*
X42672000Y-42926000D03*
D14*
X77470000Y-33655000D03*
X77470000Y-38535000D03*
D15*
X101298000Y-96066000D03*
X101298000Y-83566000D03*
X106298000Y-96066000D03*
X106298000Y-83566000D03*
D13*
X88965000Y-55880000D03*
X88965000Y-57150000D03*
X88965000Y-58420000D03*
X88965000Y-59690000D03*
X88965000Y-60960000D03*
X88965000Y-62230000D03*
X88965000Y-63500000D03*
X93915000Y-63500000D03*
X93915000Y-62230000D03*
X93915000Y-60960000D03*
X93915000Y-59690000D03*
X93915000Y-58420000D03*
X93915000Y-57150000D03*
X93915000Y-55880000D03*
D16*
X103759000Y-82391000D03*
X103759000Y-80391000D03*
D10*
X98552000Y-80348000D03*
X98552000Y-82423000D03*
D17*
X119589500Y-41173000D03*
X119589500Y-40373000D03*
D18*
X119589500Y-39223000D03*
X119589500Y-38223000D03*
X119589500Y-37723000D03*
X119589500Y-36723000D03*
D17*
X119589500Y-34773000D03*
X119589500Y-35573000D03*
D18*
X119589500Y-36223000D03*
X119589500Y-37223000D03*
X119589500Y-38723000D03*
X119589500Y-39723000D03*
D19*
X120164500Y-42293000D03*
X120164500Y-33653000D03*
D20*
X124344500Y-42293000D03*
X124344500Y-33653000D03*
D15*
X115098000Y-96066000D03*
X115098000Y-83566000D03*
X120098000Y-96066000D03*
X120098000Y-83566000D03*
D11*
X112522000Y-31771500D03*
X112522000Y-29696500D03*
D21*
X67691000Y-80391000D03*
X67691000Y-82391000D03*
D22*
X64135000Y-73695000D03*
X65405000Y-73695000D03*
X66675000Y-73695000D03*
X67945000Y-73695000D03*
X69215000Y-73695000D03*
X70485000Y-73695000D03*
X71755000Y-73695000D03*
X73025000Y-73695000D03*
X73025000Y-68545000D03*
X71755000Y-68545000D03*
X70485000Y-68545000D03*
X69215000Y-68545000D03*
X67945000Y-68545000D03*
X66675000Y-68545000D03*
X65405000Y-68545000D03*
X64135000Y-68545000D03*
D16*
X59671501Y-39465000D03*
X59671501Y-37465000D03*
D12*
X34763000Y-64389000D03*
X34763000Y-65659000D03*
X34763000Y-66929000D03*
X34763000Y-68199000D03*
X34763000Y-69469000D03*
X34763000Y-70739000D03*
X34763000Y-72009000D03*
X34763000Y-73279000D03*
X39913000Y-73279000D03*
X39913000Y-72009000D03*
X39913000Y-70739000D03*
X39913000Y-69469000D03*
X39913000Y-68199000D03*
X39913000Y-66929000D03*
X39913000Y-65659000D03*
X39913000Y-64389000D03*
D11*
X84912000Y-50208001D03*
X84912000Y-48133001D03*
D13*
X99125000Y-55880000D03*
X99125000Y-57150000D03*
X99125000Y-58420000D03*
X99125000Y-59690000D03*
X99125000Y-60960000D03*
X99125000Y-62230000D03*
X99125000Y-63500000D03*
X104075000Y-63500000D03*
X104075000Y-62230000D03*
X104075000Y-60960000D03*
X104075000Y-59690000D03*
X104075000Y-58420000D03*
X104075000Y-57150000D03*
X104075000Y-55880000D03*
D21*
X122555000Y-80280000D03*
X122555000Y-82280000D03*
D12*
X34763000Y-52578000D03*
X34763000Y-53848000D03*
X34763000Y-55118000D03*
X34763000Y-56388000D03*
X34763000Y-57658000D03*
X34763000Y-58928000D03*
X34763000Y-60198000D03*
X34763000Y-61468000D03*
X39913000Y-61468000D03*
X39913000Y-60198000D03*
X39913000Y-58928000D03*
X39913000Y-57658000D03*
X39913000Y-56388000D03*
X39913000Y-55118000D03*
X39913000Y-53848000D03*
X39913000Y-52578000D03*
D16*
X116967000Y-35941000D03*
X116967000Y-33941000D03*
D21*
X109093000Y-80423000D03*
X109093000Y-82423000D03*
D15*
X46098000Y-96066000D03*
X46098000Y-83566000D03*
X51098000Y-96066000D03*
X51098000Y-83566000D03*
D12*
X34763000Y-76200000D03*
X34763000Y-77470000D03*
X34763000Y-78740000D03*
X34763000Y-80010000D03*
X34763000Y-81280000D03*
X34763000Y-82550000D03*
X34763000Y-83820000D03*
X34763000Y-85090000D03*
X39913000Y-85090000D03*
X39913000Y-83820000D03*
X39913000Y-82550000D03*
X39913000Y-81280000D03*
X39913000Y-80010000D03*
X39913000Y-78740000D03*
X39913000Y-77470000D03*
X39913000Y-76200000D03*
D16*
X117602000Y-82391000D03*
X117602000Y-80391000D03*
D13*
X48325000Y-55880000D03*
X48325000Y-57150000D03*
X48325000Y-58420000D03*
X48325000Y-59690000D03*
X48325000Y-60960000D03*
X48325000Y-62230000D03*
X48325000Y-63500000D03*
X53275000Y-63500000D03*
X53275000Y-62230000D03*
X53275000Y-60960000D03*
X53275000Y-59690000D03*
X53275000Y-58420000D03*
X53275000Y-57150000D03*
X53275000Y-55880000D03*
D23*
X57150000Y-50735000D03*
X58420000Y-50735000D03*
X59690000Y-50735000D03*
X60960000Y-50735000D03*
X62230000Y-50735000D03*
X63500000Y-50735000D03*
X64770000Y-50735000D03*
X64770000Y-45785000D03*
X63500000Y-45785000D03*
X62230000Y-45785000D03*
X60960000Y-45785000D03*
X59690000Y-45785000D03*
X58420000Y-45785000D03*
X57150000Y-45785000D03*
D15*
X87498000Y-96066000D03*
X87498000Y-83566000D03*
X92498000Y-96066000D03*
X92498000Y-83566000D03*
D16*
X62484000Y-82391000D03*
X62484000Y-80391000D03*
D12*
X34763000Y-88011000D03*
X34763000Y-89281000D03*
X34763000Y-90551000D03*
X34763000Y-91821000D03*
X34763000Y-93091000D03*
X34763000Y-94361000D03*
X34763000Y-95631000D03*
X34763000Y-96901000D03*
X39913000Y-96901000D03*
X39913000Y-95631000D03*
X39913000Y-94361000D03*
X39913000Y-93091000D03*
X39913000Y-91821000D03*
X39913000Y-90551000D03*
X39913000Y-89281000D03*
X39913000Y-88011000D03*
D15*
X59898000Y-96066000D03*
X59898000Y-83566000D03*
X64898000Y-96066000D03*
X64898000Y-83566000D03*
D10*
X57150000Y-80348000D03*
X57150000Y-82423000D03*
D12*
X34763000Y-40767000D03*
X34763000Y-42037000D03*
X34763000Y-43307000D03*
X34763000Y-44577000D03*
X34763000Y-45847000D03*
X34763000Y-47117000D03*
X34763000Y-48387000D03*
X34763000Y-49657000D03*
X39913000Y-49657000D03*
X39913000Y-48387000D03*
X39913000Y-47117000D03*
X39913000Y-45847000D03*
X39913000Y-44577000D03*
X39913000Y-43307000D03*
X39913000Y-42037000D03*
X39913000Y-40767000D03*
D14*
X71119998Y-33655000D03*
X71119998Y-38535000D03*
D10*
X44196000Y-80348000D03*
X44196000Y-82423000D03*
X112395000Y-80348000D03*
X112395000Y-82423000D03*
D24*
X28553500Y-97917000D03*
X30628500Y-97917000D03*
D21*
X81661000Y-80423000D03*
X81661000Y-82423000D03*
D22*
X45085000Y-44485000D03*
X46355000Y-44485000D03*
X47625000Y-44485000D03*
X48895000Y-44485000D03*
X50165000Y-44485000D03*
X51435000Y-44485000D03*
X52705000Y-44485000D03*
X53975000Y-44485000D03*
X53975000Y-39335000D03*
X52705000Y-39335000D03*
X51435000Y-39335000D03*
X50165000Y-39335000D03*
X48895000Y-39335000D03*
X47625000Y-39335000D03*
X46355000Y-39335000D03*
X45085000Y-39335000D03*
D25*
X45720000Y-35560000D03*
D26*
X45720000Y-33020000D03*
X48260000Y-35560000D03*
X48260000Y-33020000D03*
X50800000Y-35560000D03*
X50800000Y-33020000D03*
X53340000Y-35560000D03*
X53340000Y-33020000D03*
X55880000Y-35560000D03*
X55880000Y-33020000D03*
D21*
X28956000Y-26686000D03*
X28956000Y-28686000D03*
D16*
X48641000Y-82391000D03*
X48641000Y-80391000D03*
D11*
X90932000Y-50208000D03*
X90932000Y-48133000D03*
D21*
X53848000Y-80407000D03*
X53848000Y-82407000D03*
X112522000Y-33925000D03*
X112522000Y-35925000D03*
D13*
X108015000Y-55880000D03*
X108015000Y-57150000D03*
X108015000Y-58420000D03*
X108015000Y-59690000D03*
X108015000Y-60960000D03*
X108015000Y-62230000D03*
X108015000Y-63500000D03*
X112965000Y-63500000D03*
X112965000Y-62230000D03*
X112965000Y-60960000D03*
X112965000Y-59690000D03*
X112965000Y-58420000D03*
X112965000Y-57150000D03*
X112965000Y-55880000D03*
D23*
X109220000Y-73657000D03*
X110490000Y-73657000D03*
X111760000Y-73657000D03*
X113030000Y-73657000D03*
X114300000Y-73657000D03*
X115570000Y-73657000D03*
X116840000Y-73657000D03*
X116840000Y-68707000D03*
X115570000Y-68707000D03*
X114300000Y-68707000D03*
X113030000Y-68707000D03*
X111760000Y-68707000D03*
X110490000Y-68707000D03*
X109220000Y-68707000D03*
D11*
X114681000Y-35962500D03*
X114681000Y-33887500D03*
D16*
X116967000Y-41259000D03*
X116967000Y-39259000D03*
D11*
X93942000Y-50208001D03*
X93942000Y-48133001D03*
D27*
X104080000Y-28892500D03*
X104080000Y-29527500D03*
X104080000Y-30162500D03*
X104080000Y-30797500D03*
X104080000Y-31432500D03*
X104080000Y-32067500D03*
X104080000Y-32702500D03*
X104080000Y-33337500D03*
X104080000Y-33972500D03*
X104080000Y-34607500D03*
X109280000Y-34607500D03*
X109280000Y-33972500D03*
X109280000Y-33337500D03*
X109280000Y-32702500D03*
X109280000Y-32067500D03*
X109280000Y-31432500D03*
X109280000Y-30797500D03*
X109280000Y-30162500D03*
X109280000Y-29527500D03*
X109280000Y-28892500D03*
D25*
X65786000Y-33655000D03*
D26*
X65786000Y-36195000D03*
X65786000Y-38735000D03*
D21*
X95504000Y-80423000D03*
X95504000Y-82423000D03*
D16*
X112649000Y-41259000D03*
X112649000Y-39259000D03*
D13*
X58485000Y-55880000D03*
X58485000Y-57150000D03*
X58485000Y-58420000D03*
X58485000Y-59690000D03*
X58485000Y-60960000D03*
X58485000Y-62230000D03*
X58485000Y-63500000D03*
X63435000Y-63500000D03*
X63435000Y-62230000D03*
X63435000Y-60960000D03*
X63435000Y-59690000D03*
X63435000Y-58420000D03*
X63435000Y-57150000D03*
X63435000Y-55880000D03*
D28*
X26797000Y-26661000D03*
X26797000Y-28711000D03*
D10*
X62211499Y-32982500D03*
X62211499Y-35057500D03*
D13*
X78805000Y-55880000D03*
X78805000Y-57150000D03*
X78805000Y-58420000D03*
X78805000Y-59690000D03*
X78805000Y-60960000D03*
X78805000Y-62230000D03*
X78805000Y-63500000D03*
X83755000Y-63500000D03*
X83755000Y-62230000D03*
X83755000Y-60960000D03*
X83755000Y-59690000D03*
X83755000Y-58420000D03*
X83755000Y-57150000D03*
X83755000Y-55880000D03*
D10*
X114808000Y-39221500D03*
X114808000Y-41296500D03*
X84709000Y-80348000D03*
X84709000Y-82423000D03*
D16*
X76200000Y-82391000D03*
X76200000Y-80391000D03*
X59671499Y-35020000D03*
X59671499Y-33020000D03*
D11*
X62211497Y-39502502D03*
X62211497Y-37427502D03*
D15*
X73698000Y-96066000D03*
X73698000Y-83566000D03*
X78698000Y-96066000D03*
X78698000Y-83566000D03*
D16*
X90043000Y-82391000D03*
X90043000Y-80391000D03*
D25*
X123190000Y-52070000D03*
D26*
X123190000Y-54610000D03*
X123190000Y-57150000D03*
X123190000Y-59690000D03*
X123190000Y-62230000D03*
X123190000Y-64770000D03*
X123190000Y-67310000D03*
X123190000Y-69850000D03*
X123190000Y-72390000D03*
X123190000Y-74930000D03*
D25*
X29845000Y-33020000D03*
X27305000Y-33020000D03*
X29845000Y-35560000D03*
X27305000Y-35560000D03*
X29845000Y-38100000D03*
X27305000Y-38100000D03*
X29845000Y-40640000D03*
X27305000Y-40640000D03*
X29845000Y-43180000D03*
X27305000Y-43180000D03*
X29845000Y-45720000D03*
X27305000Y-45720000D03*
X29845000Y-48260000D03*
X27305000Y-48260000D03*
X29845000Y-50800000D03*
X27305000Y-50800000D03*
X29845000Y-53340000D03*
X27305000Y-53340000D03*
X29845000Y-55880000D03*
X27305000Y-55880000D03*
X29845000Y-58420000D03*
X27305000Y-58420000D03*
X29845000Y-60960000D03*
X27305000Y-60960000D03*
X29845000Y-63500000D03*
X27305000Y-63500000D03*
X29845000Y-66040000D03*
X27305000Y-66040000D03*
X29845000Y-68580000D03*
X27305000Y-68580000D03*
X29845000Y-71120000D03*
X27305000Y-71120000D03*
X29845000Y-73660000D03*
X27305000Y-73660000D03*
X29845000Y-76200000D03*
X27305000Y-76200000D03*
X29845000Y-78740000D03*
X27305000Y-78740000D03*
X29845000Y-81280000D03*
X27305000Y-81280000D03*
X29845000Y-83820000D03*
X27305000Y-83820000D03*
X29845000Y-86360000D03*
X27305000Y-86360000D03*
X29845000Y-88900000D03*
X27305000Y-88900000D03*
X29845000Y-91440000D03*
X27305000Y-91440000D03*
X29845000Y-93980000D03*
X27305000Y-93980000D03*
D29*
X36195000Y-83693000D03*
X36195000Y-76200000D03*
X111379000Y-60960000D03*
X36195000Y-52578000D03*
X36195000Y-51054000D03*
X36195000Y-36576000D03*
X63500000Y-54610000D03*
X36195000Y-95631000D03*
D30*
X86360000Y-34290000D03*
D29*
X36195000Y-28956000D03*
X36195000Y-72009000D03*
X36195000Y-60071000D03*
X52705000Y-42672000D03*
X52705000Y-40640000D03*
X36195000Y-87884000D03*
X73533000Y-54610000D03*
X113030000Y-54610000D03*
X83820000Y-54610000D03*
X53340000Y-54610000D03*
X104140000Y-54610000D03*
X36195000Y-48387000D03*
X109855000Y-60960000D03*
X61976000Y-60960000D03*
X36195000Y-64389000D03*
X93980000Y-54610000D03*
X109855000Y-57150000D03*
X36195000Y-40767000D03*
X33528000Y-96901000D03*
X108077000Y-64643000D03*
X99187000Y-64643000D03*
D30*
X88900000Y-34290000D03*
D29*
X48387000Y-64643000D03*
X86868000Y-57785000D03*
X53975000Y-41529000D03*
X78867000Y-64643000D03*
X33528000Y-37846000D03*
X110638500Y-29696500D03*
X68707000Y-64643000D03*
X89027000Y-64643000D03*
X63754000Y-39497000D03*
X34290000Y-74549000D03*
X34290000Y-62230000D03*
D31*
X30099000Y-27695000D03*
D29*
X58420000Y-64643000D03*
X34290000Y-50800000D03*
X34290000Y-85979000D03*
X63754000Y-32982500D03*
X33147000Y-32131000D03*
X33020000Y-41402000D03*
X33020000Y-53340000D03*
X32893000Y-65024000D03*
X33147000Y-74295000D03*
X33401000Y-88646000D03*
X42926000Y-80391000D03*
X119380000Y-78105000D03*
X55499000Y-80391000D03*
X116840000Y-77724000D03*
X114300000Y-78105000D03*
X69342000Y-80391000D03*
X83185000Y-80391000D03*
X113284000Y-78613000D03*
D30*
X99060000Y-31750000D03*
D29*
X38354000Y-80010000D03*
X38354000Y-32766000D03*
D30*
X99060000Y-34290000D03*
D29*
X38354000Y-44577000D03*
X38354000Y-68199000D03*
X38354000Y-56388000D03*
X38354000Y-91821000D03*
X108077000Y-30099000D03*
X37719000Y-69469000D03*
X37719000Y-81280000D03*
D30*
X96520000Y-31750000D03*
D29*
X37719000Y-34036000D03*
X105283000Y-31369000D03*
X37719000Y-45847000D03*
X37719000Y-57658000D03*
X37719000Y-93091000D03*
X37084000Y-58928000D03*
X37084000Y-82550000D03*
X37084000Y-35306000D03*
D30*
X96520000Y-34290000D03*
D29*
X37084000Y-70739000D03*
X37084000Y-47117000D03*
X37084000Y-94361000D03*
X41275000Y-35941000D03*
X100330000Y-30480000D03*
D30*
X93980000Y-31750000D03*
D29*
X41275000Y-43307000D03*
D30*
X91440000Y-34290000D03*
D29*
X100330000Y-29464000D03*
X43180000Y-32639000D03*
X41402000Y-55118000D03*
D30*
X88900000Y-31750000D03*
D29*
X102616000Y-34417000D03*
X43180000Y-31877000D03*
X41275000Y-66929000D03*
X43180000Y-31115000D03*
X105283000Y-28956000D03*
D30*
X91440000Y-31749999D03*
D29*
X41275000Y-78740000D03*
X41275000Y-90551000D03*
D30*
X93980000Y-34290000D03*
D29*
X43180000Y-30353000D03*
X82296000Y-62230000D03*
X85725000Y-62230000D03*
X59690000Y-49276000D03*
X57785000Y-47498000D03*
X60325000Y-60960000D03*
X60325000Y-57785000D03*
X70739000Y-58420000D03*
X70739000Y-61722000D03*
X76962000Y-57150000D03*
X75184000Y-60325000D03*
X65024000Y-58420000D03*
X54864000Y-61595000D03*
X96266000Y-57785000D03*
X95250000Y-57785000D03*
X90424000Y-63500000D03*
X87503000Y-55880000D03*
X106426000Y-57150000D03*
X106426000Y-62230000D03*
X46355000Y-43307000D03*
X45720000Y-37719000D03*
X106553000Y-31242000D03*
X107442000Y-32131000D03*
D32*
X93915000Y-54675000D02*
X93980000Y-54610000D01*
D33*
X66802000Y-60960000D02*
X63435000Y-60960000D01*
X68645000Y-60263000D02*
X68707000Y-60325000D01*
X47625000Y-42672000D02*
X47625000Y-43180000D01*
D32*
X104075000Y-55880000D02*
X104075000Y-54675000D01*
D33*
X47625000Y-44485000D02*
X47625000Y-43180000D01*
D32*
X39913000Y-40767000D02*
X38481000Y-40767000D01*
D33*
X36195000Y-36576000D02*
X39913000Y-36576000D01*
D32*
X36195000Y-64389000D02*
X39913000Y-64389000D01*
D33*
X48895000Y-44485000D02*
X48895000Y-42672000D01*
X45720000Y-42672000D02*
X47625000Y-42672000D01*
X52705000Y-40640000D02*
X45085000Y-40640000D01*
D32*
X36322000Y-88011000D02*
X39913000Y-88011000D01*
D33*
X52705000Y-40640000D02*
X52705000Y-39335000D01*
D34*
X53275000Y-54675000D02*
X53340000Y-54610000D01*
D33*
X51435000Y-42672000D02*
X52705000Y-42672000D01*
X61087000Y-59690000D02*
X61087000Y-60960000D01*
D32*
X38481000Y-39370000D02*
X42672000Y-39370000D01*
D33*
X95504000Y-82423000D02*
X95504000Y-85725000D01*
D35*
X28064250Y-97917000D02*
X26545750Y-97917000D01*
D33*
X67691000Y-82391000D02*
X67691000Y-85725000D01*
X31242000Y-26500000D02*
X29031000Y-26500000D01*
D32*
X104075000Y-54675000D02*
X104140000Y-54610000D01*
D33*
X52705000Y-40640000D02*
X53975000Y-40640000D01*
D32*
X73595000Y-55880000D02*
X73595000Y-54672000D01*
X39913000Y-52578000D02*
X36195000Y-52578000D01*
X42672000Y-40851000D02*
X43858000Y-40851000D01*
X45050000Y-39370000D02*
X45085000Y-39335000D01*
D33*
X45085000Y-44485000D02*
X45085000Y-43307000D01*
D36*
X26400000Y-98695000D02*
X26400000Y-100441000D01*
D32*
X38481000Y-28956000D02*
X36195000Y-28956000D01*
D33*
X83755000Y-54675000D02*
X83820000Y-54610000D01*
D32*
X53275000Y-55880000D02*
X53275000Y-54675000D01*
X39913000Y-76200000D02*
X36195000Y-76200000D01*
D34*
X109280000Y-32067500D02*
X112226000Y-32067500D01*
D33*
X72136000Y-60325000D02*
X72136000Y-60960000D01*
X73595000Y-54672000D02*
X73533000Y-54610000D01*
D32*
X112965000Y-54675000D02*
X113030000Y-54610000D01*
D33*
X67691000Y-85725000D02*
X81661000Y-85725000D01*
D36*
X26400000Y-94885000D02*
X26400000Y-98044000D01*
D33*
X68707000Y-60325000D02*
X72136000Y-60325000D01*
X48895000Y-42672000D02*
X50165000Y-42672000D01*
D36*
X27305000Y-93980000D02*
X26400000Y-94885000D01*
D33*
X45085000Y-40640000D02*
X45085000Y-39335000D01*
D37*
X36195000Y-28956000D02*
X36195000Y-26543000D01*
D33*
X53848000Y-82407000D02*
X53848000Y-85725000D01*
X109855000Y-59690000D02*
X109855000Y-57150000D01*
X51435000Y-44485000D02*
X51435000Y-42672000D01*
X81661000Y-85725000D02*
X95504000Y-85725000D01*
X39913000Y-95631000D02*
X36195000Y-95631000D01*
X112965000Y-60960000D02*
X111379000Y-60960000D01*
D32*
X63435000Y-55880000D02*
X63435000Y-54675000D01*
D33*
X39913000Y-60198000D02*
X36322000Y-60198000D01*
X53975000Y-40640000D02*
X53975000Y-39335000D01*
D32*
X38481000Y-40767000D02*
X38481000Y-39370000D01*
X93915000Y-55880000D02*
X93915000Y-54675000D01*
D33*
X45085000Y-43307000D02*
X45720000Y-42672000D01*
X61976000Y-60960000D02*
X63435000Y-60960000D01*
X81661000Y-82423000D02*
X81661000Y-85725000D01*
D34*
X112226000Y-32067500D02*
X112522000Y-31771500D01*
D33*
X66802000Y-60325000D02*
X66802000Y-60960000D01*
X109093000Y-82423000D02*
X109093000Y-85725000D01*
X36322000Y-83820000D02*
X36195000Y-83693000D01*
X47625000Y-42672000D02*
X48895000Y-42672000D01*
X58485000Y-59690000D02*
X61087000Y-59690000D01*
D32*
X112965000Y-55880000D02*
X112965000Y-54675000D01*
D33*
X52705000Y-42672000D02*
X52705000Y-44485000D01*
D32*
X83755000Y-55880000D02*
X83755000Y-54675000D01*
D33*
X29031000Y-26500000D02*
X28956000Y-26575000D01*
X39913000Y-83820000D02*
X36322000Y-83820000D01*
D32*
X43858000Y-40851000D02*
X44323000Y-40386000D01*
D33*
X66802000Y-60325000D02*
X68707000Y-60325000D01*
D36*
X26400000Y-98044000D02*
X26400000Y-98695000D01*
D32*
X36195000Y-87884000D02*
X36322000Y-88011000D01*
X44323000Y-40386000D02*
X44323000Y-39370000D01*
X39913000Y-28956000D02*
X38481000Y-28956000D01*
D33*
X36322000Y-60198000D02*
X36195000Y-60071000D01*
X61087000Y-60960000D02*
X61976000Y-60960000D01*
D38*
X31242000Y-26500000D02*
X32723000Y-26500000D01*
D32*
X38481000Y-40767000D02*
X36195000Y-40767000D01*
D33*
X63435000Y-54675000D02*
X63500000Y-54610000D01*
D32*
X44323000Y-39370000D02*
X45050000Y-39370000D01*
D33*
X50165000Y-42672000D02*
X51435000Y-42672000D01*
X95504000Y-85725000D02*
X109093000Y-85725000D01*
X72136000Y-60960000D02*
X73595000Y-60960000D01*
X122555000Y-82280000D02*
X122555000Y-85725000D01*
X109855000Y-60960000D02*
X109855000Y-59690000D01*
X109093000Y-85725000D02*
X122555000Y-85725000D01*
X109855000Y-59690000D02*
X108015000Y-59690000D01*
X50165000Y-44485000D02*
X50165000Y-42672000D01*
D32*
X42672000Y-39370000D02*
X44323000Y-39370000D01*
D33*
X53848000Y-85725000D02*
X67691000Y-85725000D01*
X68645000Y-59690000D02*
X68645000Y-60263000D01*
X39913000Y-72009000D02*
X36195000Y-72009000D01*
X39913000Y-48387000D02*
X36195000Y-48387000D01*
D34*
X112522000Y-29696500D02*
X110638500Y-29696500D01*
D33*
X26670000Y-26661000D02*
X26670000Y-27695000D01*
X116967000Y-41259000D02*
X114845500Y-41259000D01*
D37*
X120902000Y-33653000D02*
X122428000Y-35179000D01*
D33*
X72555000Y-82423000D02*
X73698000Y-83566000D01*
X63754000Y-32982500D02*
X63881000Y-32855500D01*
X117840000Y-41259000D02*
X118874000Y-42293000D01*
D32*
X34763000Y-74514000D02*
X34763000Y-73279000D01*
D33*
X62211497Y-39502502D02*
X63748498Y-39502502D01*
X86355000Y-82423000D02*
X87498000Y-83566000D01*
X98552000Y-82423000D02*
X100155000Y-82423000D01*
D34*
X109280000Y-31432500D02*
X110172500Y-31432500D01*
X107251500Y-31432500D02*
X106616500Y-32067500D01*
X88900000Y-57785000D02*
X88900000Y-58355000D01*
X78805000Y-64581000D02*
X78867000Y-64643000D01*
D33*
X116967000Y-41259000D02*
X117840000Y-41259000D01*
X116967000Y-33941000D02*
X118586000Y-33941000D01*
D37*
X108015000Y-64581000D02*
X108077000Y-64643000D01*
D33*
X57150000Y-82423000D02*
X58755000Y-82423000D01*
D32*
X34290000Y-74549000D02*
X34798000Y-74549000D01*
D34*
X88900000Y-57215000D02*
X88965000Y-57150000D01*
D33*
X29993500Y-94128500D02*
X29845000Y-93980000D01*
D32*
X43815000Y-42926000D02*
X42672000Y-42926000D01*
D34*
X110172500Y-31432500D02*
X110617000Y-30988000D01*
D33*
X112395000Y-82423000D02*
X113955000Y-82423000D01*
D32*
X34290000Y-50800000D02*
X34763000Y-50800000D01*
X34763000Y-50800000D02*
X34763000Y-49657000D01*
X48325000Y-64581000D02*
X48387000Y-64643000D01*
D38*
X31115000Y-28711000D02*
X30099000Y-27695000D01*
D34*
X101896000Y-32067500D02*
X101854000Y-32025500D01*
D33*
X114845500Y-41259000D02*
X114808000Y-41296500D01*
X118874000Y-33653000D02*
X120164500Y-33653000D01*
D34*
X106616500Y-32067500D02*
X104080000Y-32067500D01*
D32*
X34763000Y-85979000D02*
X34290000Y-85979000D01*
D37*
X120902000Y-42293000D02*
X120164500Y-42293000D01*
D32*
X119589500Y-41718000D02*
X120164500Y-42293000D01*
D33*
X118874000Y-42293000D02*
X120164500Y-42293000D01*
D37*
X122428000Y-40767000D02*
X120902000Y-42293000D01*
D33*
X58755000Y-82423000D02*
X59898000Y-83566000D01*
D37*
X88965000Y-64581000D02*
X89027000Y-64643000D01*
D32*
X45212000Y-41529000D02*
X43815000Y-42926000D01*
D34*
X88900000Y-57785000D02*
X88900000Y-57215000D01*
D33*
X26670000Y-26525000D02*
X26779000Y-26525000D01*
D32*
X63754000Y-32258000D02*
X63754000Y-32982500D01*
D37*
X122428000Y-35179000D02*
X122428000Y-40767000D01*
D33*
X114681000Y-33887500D02*
X116913500Y-33887500D01*
D32*
X58485000Y-63500000D02*
X58485000Y-64578000D01*
D33*
X44196000Y-82423000D02*
X44955000Y-82423000D01*
X63627000Y-39497000D02*
X63621498Y-39502502D01*
X44955000Y-82423000D02*
X46098000Y-83566000D01*
D34*
X109280000Y-31432500D02*
X107251500Y-31432500D01*
D32*
X78805000Y-63500000D02*
X78805000Y-64581000D01*
D33*
X116913500Y-33887500D02*
X116967000Y-33941000D01*
D35*
X29845000Y-97917000D02*
X31153500Y-97917000D01*
D33*
X118586000Y-33941000D02*
X118874000Y-33653000D01*
X70993000Y-82423000D02*
X72555000Y-82423000D01*
D32*
X34798000Y-74549000D02*
X34763000Y-74514000D01*
D37*
X99125000Y-64581000D02*
X99187000Y-64643000D01*
X108015000Y-63500000D02*
X108015000Y-64581000D01*
X120164500Y-33653000D02*
X120902000Y-33653000D01*
D32*
X68645000Y-63500000D02*
X68645000Y-64581000D01*
X53975000Y-41529000D02*
X45212000Y-41529000D01*
X119589500Y-41173000D02*
X119589500Y-41718000D01*
D34*
X86868000Y-57785000D02*
X88900000Y-57785000D01*
D32*
X34763000Y-62230000D02*
X34290000Y-62230000D01*
D33*
X63754000Y-39497000D02*
X63627000Y-39497000D01*
D34*
X110638500Y-29696500D02*
X110617000Y-29718000D01*
D33*
X100155000Y-82423000D02*
X101298000Y-83566000D01*
X63748498Y-39502502D02*
X63754000Y-39497000D01*
D34*
X110617000Y-30988000D02*
X110617000Y-29718000D01*
D33*
X31242000Y-28575000D02*
X31115000Y-28575000D01*
X84709000Y-82423000D02*
X86355000Y-82423000D01*
D37*
X88965000Y-63500000D02*
X88965000Y-64581000D01*
D34*
X88900000Y-58355000D02*
X88965000Y-58420000D01*
X104080000Y-32067500D02*
X101896000Y-32067500D01*
D37*
X99125000Y-63500000D02*
X99125000Y-64581000D01*
D33*
X26670000Y-27695000D02*
X30099000Y-27695000D01*
D35*
X29845000Y-93980000D02*
X29845000Y-97917000D01*
D32*
X53975000Y-44485000D02*
X53975000Y-41529000D01*
X34763000Y-96901000D02*
X33528000Y-96901000D01*
X34763000Y-61468000D02*
X34763000Y-62230000D01*
D34*
X68645000Y-64581000D02*
X68707000Y-64643000D01*
D33*
X113955000Y-82423000D02*
X115098000Y-83566000D01*
X63754000Y-32982500D02*
X62211499Y-32982500D01*
D32*
X119589500Y-34773000D02*
X119589500Y-34228000D01*
X48325000Y-63500000D02*
X48325000Y-64581000D01*
X34763000Y-85090000D02*
X34763000Y-85979000D01*
D33*
X58485000Y-64578000D02*
X58420000Y-64643000D01*
D32*
X33528000Y-37846000D02*
X34763000Y-37846000D01*
X119589500Y-34228000D02*
X120164500Y-33653000D01*
D33*
X39913000Y-30226000D02*
X36195000Y-30226000D01*
X36195000Y-32131000D02*
X33147000Y-32131000D01*
X36195000Y-30226000D02*
X36195000Y-32131000D01*
X34763000Y-28956000D02*
X33401000Y-28956000D01*
X33401000Y-30988000D02*
X29845000Y-30988000D01*
X33401000Y-28956000D02*
X33401000Y-30988000D01*
X29845000Y-30988000D02*
X29845000Y-33020000D01*
X34763000Y-30226000D02*
X33655000Y-30226000D01*
X30988000Y-34290000D02*
X28575000Y-34290000D01*
X33655000Y-30226000D02*
X33655000Y-31242000D01*
X28575000Y-34290000D02*
X27305000Y-35560000D01*
X33655000Y-31242000D02*
X30988000Y-31242000D01*
X30988000Y-31242000D02*
X30988000Y-34290000D01*
X34763000Y-31496000D02*
X31369000Y-31496000D01*
X31369000Y-35560000D02*
X29845000Y-35560000D01*
X31369000Y-31496000D02*
X31369000Y-35560000D01*
X28575000Y-36830000D02*
X27305000Y-38100000D01*
X31750000Y-32766000D02*
X31750000Y-36830000D01*
X31750000Y-36830000D02*
X28575000Y-36830000D01*
X34763000Y-32766000D02*
X31750000Y-32766000D01*
X34763000Y-34036000D02*
X32131000Y-34036000D01*
X32131000Y-34036000D02*
X32131000Y-38100000D01*
X32131000Y-38100000D02*
X29845000Y-38100000D01*
X28575000Y-39370000D02*
X27305000Y-40640000D01*
X34763000Y-35306000D02*
X32512000Y-35306000D01*
X32512000Y-35306000D02*
X32512000Y-39370000D01*
X32512000Y-39370000D02*
X28575000Y-39370000D01*
X32893000Y-39878000D02*
X30607000Y-39878000D01*
X32893000Y-36576000D02*
X32893000Y-39878000D01*
X30607000Y-39878000D02*
X29845000Y-40640000D01*
X34763000Y-36576000D02*
X32893000Y-36576000D01*
X35941000Y-41402000D02*
X33147000Y-41402000D01*
X36576000Y-42037000D02*
X35941000Y-41402000D01*
X33147000Y-41402000D02*
X33020000Y-41402000D01*
X39913000Y-42037000D02*
X36576000Y-42037000D01*
X31115000Y-43180000D02*
X29845000Y-43180000D01*
X34763000Y-40767000D02*
X31115000Y-40767000D01*
X31115000Y-40767000D02*
X31115000Y-43180000D01*
X31623000Y-44450000D02*
X28575000Y-44450000D01*
X28575000Y-44450000D02*
X27305000Y-45720000D01*
X34763000Y-42037000D02*
X31623000Y-42037000D01*
X31623000Y-42037000D02*
X31623000Y-44450000D01*
X32004000Y-45720000D02*
X29845000Y-45720000D01*
X34763000Y-43307000D02*
X32004000Y-43307000D01*
X32004000Y-43307000D02*
X32004000Y-45720000D01*
X27305000Y-48260000D02*
X28575000Y-46990000D01*
X32385000Y-46990000D02*
X32385000Y-44577000D01*
X32385000Y-44577000D02*
X34763000Y-44577000D01*
X28575000Y-46990000D02*
X32385000Y-46990000D01*
X32766000Y-45847000D02*
X32766000Y-48260000D01*
X34763000Y-45847000D02*
X32766000Y-45847000D01*
X32766000Y-48260000D02*
X29845000Y-48260000D01*
X33147000Y-49530000D02*
X28575000Y-49530000D01*
X34763000Y-47117000D02*
X33147000Y-47117000D01*
X28575000Y-49530000D02*
X27305000Y-50800000D01*
X33147000Y-47117000D02*
X33147000Y-49530000D01*
X33528000Y-50800000D02*
X29845000Y-50800000D01*
X34763000Y-48387000D02*
X33528000Y-48387000D01*
X33528000Y-48387000D02*
X33528000Y-50800000D01*
X37465000Y-53340000D02*
X33020000Y-53340000D01*
X37973000Y-53848000D02*
X37465000Y-53340000D01*
X39913000Y-53848000D02*
X37973000Y-53848000D01*
X31115000Y-52578000D02*
X31115000Y-53340000D01*
X31115000Y-53340000D02*
X29845000Y-53340000D01*
X34763000Y-52578000D02*
X31115000Y-52578000D01*
X31115000Y-53848000D02*
X31115000Y-54610000D01*
X31115000Y-54610000D02*
X28575000Y-54610000D01*
X28575000Y-54610000D02*
X27305000Y-55880000D01*
X34763000Y-53848000D02*
X31115000Y-53848000D01*
X34763000Y-55118000D02*
X31115000Y-55118000D01*
X31115000Y-55118000D02*
X31115000Y-55880000D01*
X31115000Y-55880000D02*
X29845000Y-55880000D01*
X34763000Y-56388000D02*
X31115000Y-56388000D01*
X31115000Y-56388000D02*
X31115000Y-57150000D01*
X31115000Y-57150000D02*
X28575000Y-57150000D01*
X28575000Y-57150000D02*
X27305000Y-58420000D01*
X34763000Y-57658000D02*
X31115000Y-57658000D01*
X31115000Y-57658000D02*
X31115000Y-58420000D01*
X31115000Y-58420000D02*
X29845000Y-58420000D01*
X31115000Y-58928000D02*
X31115000Y-59690000D01*
X34763000Y-58928000D02*
X31115000Y-58928000D01*
X28575000Y-59690000D02*
X27305000Y-60960000D01*
X31115000Y-59690000D02*
X28575000Y-59690000D01*
X31115000Y-60960000D02*
X29845000Y-60960000D01*
X34763000Y-60198000D02*
X31115000Y-60198000D01*
X31115000Y-60198000D02*
X31115000Y-60960000D01*
X36449000Y-65659000D02*
X39913000Y-65659000D01*
X35814000Y-65024000D02*
X36449000Y-65659000D01*
X32893000Y-65024000D02*
X35814000Y-65024000D01*
X31115000Y-64389000D02*
X31115000Y-63500000D01*
X34763000Y-64389000D02*
X31115000Y-64389000D01*
X31115000Y-63500000D02*
X29718000Y-63500000D01*
X28575000Y-64770000D02*
X27305000Y-66040000D01*
X31115000Y-64770000D02*
X28575000Y-64770000D01*
X31115000Y-65659000D02*
X31115000Y-64770000D01*
X34763000Y-65659000D02*
X31115000Y-65659000D01*
X34763000Y-66929000D02*
X31115000Y-66929000D01*
X31115000Y-66929000D02*
X31115000Y-66040000D01*
X31115000Y-66040000D02*
X29845000Y-66040000D01*
X31115000Y-67310000D02*
X28575000Y-67310000D01*
X31115000Y-68199000D02*
X31115000Y-67310000D01*
X28575000Y-67310000D02*
X27305000Y-68580000D01*
X34763000Y-68199000D02*
X31115000Y-68199000D01*
X31115000Y-69469000D02*
X31115000Y-68580000D01*
X34763000Y-69469000D02*
X31115000Y-69469000D01*
X31115000Y-68580000D02*
X29845000Y-68580000D01*
X28575000Y-69850000D02*
X27305000Y-71120000D01*
X31115000Y-69850000D02*
X28575000Y-69850000D01*
X34763000Y-70739000D02*
X31115000Y-70739000D01*
X31115000Y-70739000D02*
X31115000Y-69850000D01*
X31115000Y-72009000D02*
X31115000Y-71120000D01*
X31115000Y-71120000D02*
X29845000Y-71120000D01*
X34763000Y-72009000D02*
X31115000Y-72009000D01*
X33147000Y-76835000D02*
X33147000Y-74295000D01*
X35687000Y-76835000D02*
X33147000Y-76835000D01*
X36322000Y-77470000D02*
X35687000Y-76835000D01*
X39913000Y-77470000D02*
X36322000Y-77470000D01*
X33655000Y-73660000D02*
X29845000Y-73660000D01*
X34763000Y-76200000D02*
X33655000Y-76200000D01*
X33655000Y-76200000D02*
X33655000Y-73660000D01*
X34763000Y-77470000D02*
X32766000Y-77470000D01*
X32766000Y-74930000D02*
X28575000Y-74930000D01*
X32766000Y-77470000D02*
X32766000Y-74930000D01*
X28575000Y-74930000D02*
X27305000Y-76200000D01*
X32385000Y-76200000D02*
X29845000Y-76200000D01*
X34763000Y-78740000D02*
X32385000Y-78740000D01*
X32385000Y-78740000D02*
X32385000Y-76200000D01*
X32004000Y-77470000D02*
X28575000Y-77470000D01*
X28575000Y-77470000D02*
X27305000Y-78740000D01*
X32004000Y-80010000D02*
X32004000Y-77470000D01*
X34763000Y-80010000D02*
X32004000Y-80010000D01*
X31623000Y-81280000D02*
X31623000Y-78740000D01*
X34763000Y-81280000D02*
X31623000Y-81280000D01*
X31623000Y-78740000D02*
X29845000Y-78740000D01*
X34763000Y-82550000D02*
X31369000Y-82550000D01*
X28575000Y-80010000D02*
X27305000Y-81280000D01*
X31369000Y-82550000D02*
X31369000Y-80010000D01*
X31369000Y-80010000D02*
X28575000Y-80010000D01*
X33655000Y-83439000D02*
X31115000Y-83439000D01*
X31115000Y-83439000D02*
X31115000Y-81280000D01*
X33655000Y-83820000D02*
X33655000Y-83439000D01*
X34763000Y-83820000D02*
X33655000Y-83820000D01*
X31115000Y-81280000D02*
X29845000Y-81280000D01*
X36403000Y-89281000D02*
X35768000Y-88646000D01*
X39913000Y-89281000D02*
X36403000Y-89281000D01*
X35768000Y-88646000D02*
X33401000Y-88646000D01*
X34763000Y-88011000D02*
X33274000Y-88011000D01*
X33274000Y-83820000D02*
X29845000Y-83820000D01*
X33274000Y-88011000D02*
X33274000Y-83820000D01*
X32893000Y-89281000D02*
X32893000Y-85090000D01*
X34763000Y-89281000D02*
X32893000Y-89281000D01*
X28575000Y-85090000D02*
X27305000Y-86360000D01*
X32893000Y-85090000D02*
X28575000Y-85090000D01*
X34763000Y-90551000D02*
X32512000Y-90551000D01*
X32512000Y-90551000D02*
X32512000Y-86360000D01*
X32512000Y-86360000D02*
X29845000Y-86360000D01*
X32131000Y-87630000D02*
X28575000Y-87630000D01*
X32131000Y-91821000D02*
X32131000Y-87630000D01*
X34763000Y-91821000D02*
X32131000Y-91821000D01*
X28575000Y-87630000D02*
X27305000Y-88900000D01*
X31750000Y-93091000D02*
X31750000Y-88900000D01*
X34763000Y-93091000D02*
X31750000Y-93091000D01*
X31750000Y-88900000D02*
X29845000Y-88900000D01*
X31369000Y-94361000D02*
X31369000Y-90170000D01*
X34763000Y-94361000D02*
X31369000Y-94361000D01*
X31369000Y-90170000D02*
X28575000Y-90170000D01*
X28575000Y-90170000D02*
X27305000Y-91440000D01*
X34763000Y-95631000D02*
X31115000Y-95631000D01*
X31115000Y-91440000D02*
X29845000Y-91440000D01*
X31115000Y-95631000D02*
X31115000Y-91440000D01*
X44196000Y-80348000D02*
X48598000Y-80348000D01*
X48598000Y-80348000D02*
X48641000Y-80391000D01*
X44196000Y-80348000D02*
X42969000Y-80348000D01*
X42969000Y-80348000D02*
X42926000Y-80391000D01*
X55542000Y-80348000D02*
X55499000Y-80391000D01*
X57150000Y-80348000D02*
X62441000Y-80348000D01*
X57150000Y-80348000D02*
X55542000Y-80348000D01*
X62441000Y-80348000D02*
X62484000Y-80391000D01*
X70993000Y-80348000D02*
X69385000Y-80348000D01*
X70993000Y-80348000D02*
X76157000Y-80348000D01*
X76157000Y-80348000D02*
X76200000Y-80391000D01*
X69385000Y-80348000D02*
X69342000Y-80391000D01*
X84666000Y-80391000D02*
X83185000Y-80391000D01*
X84709000Y-80348000D02*
X90000000Y-80348000D01*
X84328000Y-79967000D02*
X84709000Y-80348000D01*
X84709000Y-80348000D02*
X84666000Y-80391000D01*
X90000000Y-80348000D02*
X90043000Y-80391000D01*
X90170000Y-80264000D02*
X90043000Y-80391000D01*
X103716000Y-80348000D02*
X103759000Y-80391000D01*
X103759000Y-79248000D02*
X116586000Y-79248000D01*
X116586000Y-79248000D02*
X116586000Y-78359000D01*
X103759000Y-80391000D02*
X103759000Y-79248000D01*
X98552000Y-80348000D02*
X103716000Y-80348000D01*
X112395000Y-80348000D02*
X117559000Y-80348000D01*
X117602000Y-80391000D02*
X117602000Y-78740000D01*
X117559000Y-80348000D02*
X117602000Y-80391000D01*
X51098000Y-83566000D02*
X51054000Y-83522000D01*
X48641000Y-82391000D02*
X49923000Y-82391000D01*
X51054000Y-83522000D02*
X51054000Y-80391000D01*
X53832000Y-80391000D02*
X53848000Y-80407000D01*
X51054000Y-80391000D02*
X53832000Y-80391000D01*
X49923000Y-82391000D02*
X51098000Y-83566000D01*
X64897000Y-80391000D02*
X67691000Y-80391000D01*
X63723000Y-82391000D02*
X64898000Y-83566000D01*
X64897000Y-83565000D02*
X64897000Y-80391000D01*
X64898000Y-83566000D02*
X64897000Y-83565000D01*
X62484000Y-82391000D02*
X63723000Y-82391000D01*
X81566000Y-80518000D02*
X81661000Y-80423000D01*
X78698000Y-83566000D02*
X78698000Y-80560000D01*
X78740000Y-80518000D02*
X81566000Y-80518000D01*
X77523000Y-82391000D02*
X78698000Y-83566000D01*
X76200000Y-82391000D02*
X77523000Y-82391000D01*
X78698000Y-80560000D02*
X78740000Y-80518000D01*
X92583000Y-80518000D02*
X95409000Y-80518000D01*
X95409000Y-80518000D02*
X95504000Y-80423000D01*
X92498000Y-80603000D02*
X92583000Y-80518000D01*
X92498000Y-83566000D02*
X92498000Y-80603000D01*
X103759000Y-82391000D02*
X105123000Y-82391000D01*
X106298000Y-83566000D02*
X106298000Y-80519000D01*
X106298000Y-80519000D02*
X106299000Y-80518000D01*
X106299000Y-80518000D02*
X108998000Y-80518000D01*
X108998000Y-80518000D02*
X109093000Y-80423000D01*
X105123000Y-82391000D02*
X106298000Y-83566000D01*
X120098000Y-83566000D02*
X120174000Y-83490000D01*
X117602000Y-82391000D02*
X118923000Y-82391000D01*
X118923000Y-82391000D02*
X120098000Y-83566000D01*
X120174000Y-80280000D02*
X122555000Y-80280000D01*
X120174000Y-83490000D02*
X120174000Y-80280000D01*
X109280000Y-28892500D02*
X108521500Y-28892500D01*
X41148000Y-28321000D02*
X99060000Y-28321000D01*
X39913000Y-31496000D02*
X41148000Y-31496000D01*
X41148000Y-31496000D02*
X41148000Y-28321000D01*
X99060000Y-28321000D02*
X99060000Y-31750000D01*
X107950000Y-28321000D02*
X99060000Y-28321000D01*
X108521500Y-28892500D02*
X107950000Y-28321000D01*
X38354000Y-32766000D02*
X41529000Y-32766000D01*
X41529000Y-32766000D02*
X41529000Y-28702000D01*
X108140500Y-30162500D02*
X108077000Y-30099000D01*
X41529000Y-28702000D02*
X97790000Y-28702000D01*
X38354000Y-44577000D02*
X39913000Y-44577000D01*
X97790000Y-28702000D02*
X97790000Y-34290000D01*
X97790000Y-34290000D02*
X99060000Y-34290000D01*
X39913000Y-91821000D02*
X38354000Y-91821000D01*
X109280000Y-30162500D02*
X108140500Y-30162500D01*
X38354000Y-80010000D02*
X39913000Y-80010000D01*
X38354000Y-68199000D02*
X39913000Y-68199000D01*
X38354000Y-56388000D02*
X39913000Y-56388000D01*
X39913000Y-93091000D02*
X37719000Y-93091000D01*
X37719000Y-57658000D02*
X39913000Y-57658000D01*
X104080000Y-31432500D02*
X105219500Y-31432500D01*
X37719000Y-69469000D02*
X39913000Y-69469000D01*
X41910000Y-34036000D02*
X41910000Y-29083000D01*
X37719000Y-81280000D02*
X39913000Y-81280000D01*
X37719000Y-34036000D02*
X41910000Y-34036000D01*
X105219500Y-31432500D02*
X105283000Y-31369000D01*
X41910000Y-29083000D02*
X96520000Y-29083000D01*
X96520000Y-29083000D02*
X96520000Y-31750000D01*
X37719000Y-45847000D02*
X39913000Y-45847000D01*
X39913000Y-94361000D02*
X37084000Y-94361000D01*
X42291000Y-29464000D02*
X95250000Y-29464000D01*
X101600000Y-33337500D02*
X101600000Y-35433000D01*
X95250000Y-35433000D02*
X95250000Y-34290000D01*
X95250000Y-34290000D02*
X96520000Y-34290000D01*
X37084000Y-82550000D02*
X39913000Y-82550000D01*
X39913000Y-35306000D02*
X42291000Y-35306000D01*
X37084000Y-70739000D02*
X39913000Y-70739000D01*
X95250000Y-29464000D02*
X95250000Y-34290000D01*
X104080000Y-33337500D02*
X101600000Y-33337500D01*
X37084000Y-47117000D02*
X39913000Y-47117000D01*
X101600000Y-35433000D02*
X95250000Y-35433000D01*
X37084000Y-35306000D02*
X39913000Y-35306000D01*
X37084000Y-58928000D02*
X39913000Y-58928000D01*
X42291000Y-35306000D02*
X42291000Y-29464000D01*
X42672000Y-35941000D02*
X42672000Y-29845000D01*
X41275000Y-35941000D02*
X42672000Y-35941000D01*
X102997000Y-30988000D02*
X100330000Y-30988000D01*
X100330000Y-30988000D02*
X100330000Y-30480000D01*
X41275000Y-43307000D02*
X41402000Y-43307000D01*
X39913000Y-43307000D02*
X41275000Y-43307000D01*
X93980000Y-29845000D02*
X93980000Y-31750000D01*
X104080000Y-30797500D02*
X102997000Y-30797500D01*
X42672000Y-29845000D02*
X93980000Y-29845000D01*
X102997000Y-30797500D02*
X102997000Y-30988000D01*
X41402000Y-35814000D02*
X41275000Y-35941000D01*
X44831000Y-31496000D02*
X43688000Y-32639000D01*
X91440000Y-34290000D02*
X90932000Y-34290000D01*
X90170000Y-33020000D02*
X88392000Y-33020000D01*
X103124000Y-29527500D02*
X103124000Y-28829000D01*
X86868000Y-31496000D02*
X44831000Y-31496000D01*
X88392000Y-33020000D02*
X86868000Y-31496000D01*
X104080000Y-29527500D02*
X103124000Y-29527500D01*
X39913000Y-55118000D02*
X41402000Y-55118000D01*
X91440000Y-34290000D02*
X90170000Y-33020000D01*
X100330000Y-28829000D02*
X100330000Y-29464000D01*
X103124000Y-28829000D02*
X100330000Y-28829000D01*
X43688000Y-32639000D02*
X43180000Y-32639000D01*
X88900000Y-31750000D02*
X88138000Y-30988000D01*
X43688000Y-31877000D02*
X43180000Y-31877000D01*
X39913000Y-66929000D02*
X41275000Y-66929000D01*
X88138000Y-30988000D02*
X44577000Y-30988000D01*
X44577000Y-30988000D02*
X43688000Y-31877000D01*
X102616000Y-34417000D02*
X102616000Y-33972500D01*
X102616000Y-33972500D02*
X104080000Y-33972500D01*
X39913000Y-78740000D02*
X41275000Y-78740000D01*
X104080000Y-28892500D02*
X105219500Y-28892500D01*
X44069000Y-30607000D02*
X91440000Y-30607000D01*
X91440000Y-30607000D02*
X91440000Y-31749999D01*
X105219500Y-28892500D02*
X105283000Y-28956000D01*
X43561000Y-31115000D02*
X44069000Y-30607000D01*
X43180000Y-31115000D02*
X43561000Y-31115000D01*
X105283000Y-32702500D02*
X105283000Y-35941000D01*
X104080000Y-32702500D02*
X105283000Y-32702500D01*
X92710000Y-35941000D02*
X92710000Y-34290000D01*
X92710000Y-34290000D02*
X93980000Y-34290000D01*
X39913000Y-90551000D02*
X41275000Y-90551000D01*
X105283000Y-35941000D02*
X92710000Y-35941000D01*
X43561000Y-30226000D02*
X92710000Y-30226000D01*
X43434000Y-30353000D02*
X43561000Y-30226000D01*
X92710000Y-30226000D02*
X92710000Y-34290000D01*
X43180000Y-30353000D02*
X43434000Y-30353000D01*
X50800000Y-55880000D02*
X48325000Y-55880000D01*
X55880000Y-56515000D02*
X50800000Y-56515000D01*
X55880000Y-57150000D02*
X55880000Y-56515000D01*
X50800000Y-56515000D02*
X50800000Y-55880000D01*
X58485000Y-57150000D02*
X55880000Y-57150000D01*
X85725000Y-62230000D02*
X85725000Y-65659000D01*
X83755000Y-62230000D02*
X82296000Y-62230000D01*
X66040000Y-57150000D02*
X66040000Y-55880000D01*
X95758000Y-60960000D02*
X95758000Y-56515000D01*
X58485000Y-55880000D02*
X54737000Y-55880000D01*
X107950000Y-55945000D02*
X108015000Y-55880000D01*
X71120000Y-55880000D02*
X71120000Y-57150000D01*
X95758000Y-53975000D02*
X95758000Y-56515000D01*
X63435000Y-57150000D02*
X66040000Y-57150000D01*
X68645000Y-55880000D02*
X71120000Y-55880000D01*
X107950000Y-56515000D02*
X110490000Y-56515000D01*
X110490000Y-56515000D02*
X110490000Y-57150000D01*
X73595000Y-57150000D02*
X75692000Y-57150000D01*
X110490000Y-57150000D02*
X112965000Y-57150000D01*
X71120000Y-57150000D02*
X73595000Y-57150000D01*
X95758000Y-56515000D02*
X107950000Y-56515000D01*
X58485000Y-55880000D02*
X60960000Y-55880000D01*
X93915000Y-60960000D02*
X95758000Y-60960000D01*
X66040000Y-55880000D02*
X68645000Y-55880000D01*
X60960000Y-55880000D02*
X60960000Y-57150000D01*
X54737000Y-55880000D02*
X54737000Y-53975000D01*
X107950000Y-56515000D02*
X107950000Y-55945000D01*
X75692000Y-53975000D02*
X95758000Y-53975000D01*
X75692000Y-57150000D02*
X75692000Y-53975000D01*
X60960000Y-57150000D02*
X63435000Y-57150000D01*
X68645000Y-58420000D02*
X70231000Y-58420000D01*
X55880000Y-33020000D02*
X57277000Y-33020000D01*
X83755000Y-57150000D02*
X86360000Y-57150000D01*
X57785000Y-43815000D02*
X57785000Y-46736000D01*
X61976000Y-58420000D02*
X61976000Y-59690000D01*
X75819000Y-60325000D02*
X81280000Y-60325000D01*
X91440000Y-59690000D02*
X93915000Y-59690000D01*
X86360000Y-57150000D02*
X86360000Y-56515000D01*
X66040000Y-59690000D02*
X66040000Y-58420000D01*
X58485000Y-58420000D02*
X61976000Y-58420000D01*
X60960000Y-50165000D02*
X60833000Y-50292000D01*
X66040000Y-58420000D02*
X68645000Y-58420000D01*
X75819000Y-59690000D02*
X75819000Y-60325000D01*
X57277000Y-43815000D02*
X57785000Y-43815000D01*
X86360000Y-56515000D02*
X91440000Y-56515000D01*
X57277000Y-33020000D02*
X57277000Y-43815000D01*
X63435000Y-59690000D02*
X66040000Y-59690000D01*
X70231000Y-59690000D02*
X73595000Y-59690000D01*
X61976000Y-59690000D02*
X63435000Y-59690000D01*
X70231000Y-58420000D02*
X70231000Y-59690000D01*
X91440000Y-56515000D02*
X91440000Y-59690000D01*
X45720000Y-33020000D02*
X55880000Y-33020000D01*
X73595000Y-59690000D02*
X75819000Y-59690000D01*
X81280000Y-57150000D02*
X83755000Y-57150000D01*
X57785000Y-46736000D02*
X57785000Y-47498000D01*
X60960000Y-49276000D02*
X60960000Y-50165000D01*
X59690000Y-49276000D02*
X60960000Y-49276000D01*
X81280000Y-60325000D02*
X81280000Y-57150000D01*
X59690000Y-50735000D02*
X59690000Y-49276000D01*
X66802000Y-57785000D02*
X66802000Y-57150000D01*
X70358000Y-57150000D02*
X70358000Y-57785000D01*
X60325000Y-60960000D02*
X58485000Y-60960000D01*
X70358000Y-57785000D02*
X76200000Y-57785000D01*
X66802000Y-57150000D02*
X68645000Y-57150000D01*
X76200000Y-57785000D02*
X76200000Y-55880000D01*
X60325000Y-57785000D02*
X66802000Y-57785000D01*
X76200000Y-55880000D02*
X78805000Y-55880000D01*
X68645000Y-57150000D02*
X70358000Y-57150000D01*
X70739000Y-58420000D02*
X76200000Y-58420000D01*
X66040000Y-61595000D02*
X66040000Y-62230000D01*
X76200000Y-58420000D02*
X76200000Y-59690000D01*
X76200000Y-59690000D02*
X78805000Y-59690000D01*
X70739000Y-61722000D02*
X70612000Y-61595000D01*
X70612000Y-61595000D02*
X66040000Y-61595000D01*
X66040000Y-62230000D02*
X63435000Y-62230000D01*
X71755000Y-61595000D02*
X71755000Y-60960000D01*
X71755000Y-60960000D02*
X68645000Y-60960000D01*
X75184000Y-61595000D02*
X75184000Y-60325000D01*
X76962000Y-57150000D02*
X78805000Y-57150000D01*
X75184000Y-61595000D02*
X71755000Y-61595000D01*
X76200000Y-62230000D02*
X76200000Y-60960000D01*
X73595000Y-62230000D02*
X76200000Y-62230000D01*
X76200000Y-60960000D02*
X78805000Y-60960000D01*
X53275000Y-58420000D02*
X54864000Y-58420000D01*
X63435000Y-58420000D02*
X65024000Y-58420000D01*
X54864000Y-58420000D02*
X54864000Y-61595000D01*
X92202000Y-55245000D02*
X92202000Y-57785000D01*
X96266000Y-57785000D02*
X96266000Y-57150000D01*
X85598000Y-55245000D02*
X92202000Y-55245000D01*
X92202000Y-57785000D02*
X95250000Y-57785000D01*
X96266000Y-57150000D02*
X99125000Y-57150000D01*
X85598000Y-56388000D02*
X85598000Y-55245000D01*
X80645000Y-56388000D02*
X85598000Y-56388000D01*
X80645000Y-58420000D02*
X80645000Y-56388000D01*
X78805000Y-58420000D02*
X80645000Y-58420000D01*
X81280000Y-62865000D02*
X81280000Y-63500000D01*
X53275000Y-57150000D02*
X55499000Y-57150000D01*
X81280000Y-63500000D02*
X83755000Y-63500000D01*
X55499000Y-57150000D02*
X55499000Y-62865000D01*
X55499000Y-62865000D02*
X81280000Y-62865000D01*
X85217000Y-59690000D02*
X83755000Y-59690000D01*
X85217000Y-65532000D02*
X85217000Y-59690000D01*
X50800000Y-58420000D02*
X50800000Y-65532000D01*
X48325000Y-58420000D02*
X50800000Y-58420000D01*
X50800000Y-65532000D02*
X85217000Y-65532000D01*
X86360000Y-58420000D02*
X86360000Y-66040000D01*
X111379000Y-66040000D02*
X111379000Y-62230000D01*
X83755000Y-58420000D02*
X86360000Y-58420000D01*
X86360000Y-66040000D02*
X111379000Y-66040000D01*
X111379000Y-62230000D02*
X112965000Y-62230000D01*
X87503000Y-55880000D02*
X88965000Y-55880000D01*
X93915000Y-63500000D02*
X90424000Y-63500000D01*
X99125000Y-60960000D02*
X96520000Y-60960000D01*
X96520000Y-60960000D02*
X96520000Y-62865000D01*
X96520000Y-62865000D02*
X91440000Y-62865000D01*
X91440000Y-62865000D02*
X91440000Y-60960000D01*
X91440000Y-60960000D02*
X88965000Y-60960000D01*
X59055000Y-53340000D02*
X59055000Y-48641000D01*
X59055000Y-48641000D02*
X60960000Y-48641000D01*
X60960000Y-48641000D02*
X60960000Y-45785000D01*
X108015000Y-58420000D02*
X106045000Y-58420000D01*
X106045000Y-58420000D02*
X106045000Y-57785000D01*
X100838000Y-58420000D02*
X99125000Y-58420000D01*
X100838000Y-57785000D02*
X100838000Y-58420000D01*
X106045000Y-57785000D02*
X100838000Y-57785000D01*
X100838000Y-59690000D02*
X99125000Y-59690000D01*
X106172000Y-60960000D02*
X106172000Y-59055000D01*
X106172000Y-59055000D02*
X100838000Y-59055000D01*
X100838000Y-59055000D02*
X100838000Y-59690000D01*
X108015000Y-60960000D02*
X106172000Y-60960000D01*
X101600000Y-62230000D02*
X101600000Y-62865000D01*
X110490000Y-62865000D02*
X110490000Y-58420000D01*
X99125000Y-62230000D02*
X101600000Y-62230000D01*
X101600000Y-62865000D02*
X110490000Y-62865000D01*
X110490000Y-58420000D02*
X112965000Y-58420000D01*
X106426000Y-57150000D02*
X108015000Y-57150000D01*
X108015000Y-62230000D02*
X106426000Y-62230000D01*
X59944000Y-33020000D02*
X59671499Y-33020000D01*
X65786000Y-36195000D02*
X64643000Y-36195000D01*
X63505500Y-35057500D02*
X62211499Y-35057500D01*
X62846501Y-35290000D02*
X62211497Y-35290002D01*
X58039000Y-33020000D02*
X59671499Y-33020000D01*
X61981500Y-35057500D02*
X59944000Y-33020000D01*
X62211499Y-35057500D02*
X61981500Y-35057500D01*
X58420000Y-43180000D02*
X58039000Y-43180000D01*
X58039000Y-43180000D02*
X58039000Y-33020000D01*
X58420000Y-45785000D02*
X58420000Y-43180000D01*
X64643000Y-36195000D02*
X63505500Y-35057500D01*
X64516000Y-40005000D02*
X69649998Y-40005000D01*
X61985497Y-37427502D02*
X62211497Y-37427502D01*
X62211497Y-37427502D02*
X62954502Y-37427502D01*
X59947999Y-39465000D02*
X61985497Y-37427502D01*
X71119998Y-38535000D02*
X77470000Y-38535000D01*
X59671501Y-39465000D02*
X59947999Y-39465000D01*
X62954502Y-37427502D02*
X64516000Y-38989000D01*
X64516000Y-38989000D02*
X64516000Y-40005000D01*
X69649998Y-40005000D02*
X71119998Y-38535000D01*
X61709001Y-37427499D02*
X62211498Y-37427499D01*
X65786000Y-33655000D02*
X71119998Y-33655000D01*
X65786000Y-33401000D02*
X66076998Y-33110002D01*
X68961000Y-35560000D02*
X75565000Y-35560000D01*
X75565000Y-35560000D02*
X77470000Y-33655000D01*
X65786000Y-38735000D02*
X68961000Y-35560000D01*
X46355000Y-43307000D02*
X46355000Y-44485000D01*
X55118000Y-52197000D02*
X55118000Y-45974000D01*
X46355000Y-46101000D02*
X46355000Y-44485000D01*
X58420000Y-52197000D02*
X55118000Y-52197000D01*
X55118000Y-45974000D02*
X46482000Y-45974000D01*
X58420000Y-50735000D02*
X58420000Y-52197000D01*
X45720000Y-37719000D02*
X45720000Y-35560000D01*
X46482000Y-45974000D02*
X46355000Y-46101000D01*
X48260000Y-36830000D02*
X47625000Y-37465000D01*
X48260000Y-35560000D02*
X48260000Y-36830000D01*
X47625000Y-37465000D02*
X47625000Y-39335000D01*
X26670000Y-28575000D02*
X28956000Y-28575000D01*
D32*
X121539000Y-38989000D02*
X121539000Y-36957000D01*
X119589500Y-40373000D02*
X120155000Y-40373000D01*
X120155000Y-40373000D02*
X121539000Y-38989000D01*
X121539000Y-36957000D02*
X120155000Y-35573000D01*
X120155000Y-35573000D02*
X119589500Y-35573000D01*
D33*
X114643500Y-35925000D02*
X114681000Y-35962500D01*
X114681000Y-37211000D02*
X114681000Y-35962500D01*
X119589500Y-37223000D02*
X119601500Y-37211000D01*
X120523000Y-37211000D02*
X120523000Y-38227000D01*
X112522000Y-35925000D02*
X114643500Y-35925000D01*
X119593500Y-38227000D02*
X119589500Y-38223000D01*
X119589500Y-37223000D02*
X114693000Y-37223000D01*
X120523000Y-38227000D02*
X119593500Y-38227000D01*
X119601500Y-37211000D02*
X120523000Y-37211000D01*
X114693000Y-37223000D02*
X114681000Y-37211000D01*
X114808000Y-37719000D02*
X114808000Y-39221500D01*
X118618000Y-37719000D02*
X114808000Y-37719000D01*
X118630000Y-38723000D02*
X118618000Y-38735000D01*
X118618000Y-37719000D02*
X119585500Y-37719000D01*
X119589500Y-38723000D02*
X118630000Y-38723000D01*
X118618000Y-38735000D02*
X118618000Y-37719000D01*
X112649000Y-39259000D02*
X114770500Y-39259000D01*
X119585500Y-37719000D02*
X119589500Y-37723000D01*
X114770500Y-39259000D02*
X114808000Y-39221500D01*
X116967000Y-39259000D02*
X119553500Y-39259000D01*
X119553500Y-39259000D02*
X119589500Y-39223000D01*
X117249000Y-36223000D02*
X116967000Y-35941000D01*
X119589500Y-36223000D02*
X117249000Y-36223000D01*
D34*
X104080000Y-30162500D02*
X102112512Y-30162500D01*
X108267500Y-32702500D02*
X108204000Y-32766000D01*
X105473500Y-30162500D02*
X106553000Y-31242000D01*
X109280000Y-32702500D02*
X108267500Y-32702500D01*
X104080000Y-30162500D02*
X105473500Y-30162500D01*
X109280000Y-33337500D02*
X108267500Y-33337500D01*
X107569000Y-32131000D02*
X108204000Y-32766000D01*
X107442000Y-32131000D02*
X107569000Y-32131000D01*
X108267500Y-33337500D02*
X108204000Y-33274000D01*
X102112512Y-30162500D02*
X101877256Y-29927244D01*
X108204000Y-32766000D02*
X108204000Y-33274000D01*
D33*
X112474500Y-33972500D02*
X112522000Y-33925000D01*
X109280000Y-33972500D02*
X112474500Y-33972500D01*
X112633000Y-41275000D02*
X112649000Y-41259000D01*
X111506000Y-34607500D02*
X111506000Y-41275000D01*
X109280000Y-34607500D02*
X111506000Y-34607500D01*
X111506000Y-41275000D02*
X112633000Y-41275000D01*
X50800000Y-36322000D02*
X50800000Y-35560000D01*
X48895000Y-39335000D02*
X48895000Y-38227000D01*
X48895000Y-38227000D02*
X50800000Y-36322000D01*
X58420000Y-42545000D02*
X58420000Y-37465000D01*
X59690000Y-45785000D02*
X59690000Y-42545000D01*
X59690000Y-48133000D02*
X57150000Y-48133000D01*
X58420000Y-37465000D02*
X59671501Y-37465000D01*
X59690000Y-45785000D02*
X59690000Y-48133000D01*
X59671501Y-37465000D02*
X59671501Y-35020002D01*
X59671501Y-35020002D02*
X59671499Y-35020000D01*
X59690000Y-42545000D02*
X58420000Y-42545000D01*
X57150000Y-48133000D02*
X57150000Y-50735000D01*
X50165000Y-38227000D02*
X50165000Y-39335000D01*
X53340000Y-35560000D02*
X51943000Y-36957000D01*
X51435000Y-36957000D02*
X50165000Y-38227000D01*
X51943000Y-36957000D02*
X51435000Y-36957000D01*
X52197000Y-37338000D02*
X54102000Y-37338000D01*
X51435000Y-39335000D02*
X51435000Y-38100000D01*
X54102000Y-37338000D02*
X55880000Y-35560000D01*
X51435000Y-38100000D02*
X52197000Y-37338000D01*
G04 #@! TA.AperFunction,Conductor*
G36*
X26670000Y-31870500D02*
G01*
X26651093Y-31928691D01*
X26601593Y-31964655D01*
X26571000Y-31969500D01*
X26435252Y-31969500D01*
X26435251Y-31969500D01*
X26435241Y-31969501D01*
X26376772Y-31981132D01*
X26376766Y-31981134D01*
X26310451Y-32025445D01*
X26310445Y-32025451D01*
X26266134Y-32091766D01*
X26266132Y-32091772D01*
X26254501Y-32150241D01*
X26254500Y-32150253D01*
X26254500Y-33889746D01*
X26254501Y-33889758D01*
X26266132Y-33948227D01*
X26266133Y-33948231D01*
X26310448Y-34014552D01*
X26376769Y-34058867D01*
X26421231Y-34067711D01*
X26435241Y-34070498D01*
X26435246Y-34070498D01*
X26435252Y-34070500D01*
X26435253Y-34070500D01*
X26571000Y-34070500D01*
X26629191Y-34089407D01*
X26665155Y-34138907D01*
X26670000Y-34169500D01*
X26670000Y-34410500D01*
X26651093Y-34468691D01*
X26601593Y-34504655D01*
X26571000Y-34509500D01*
X26435252Y-34509500D01*
X26435251Y-34509500D01*
X26435241Y-34509501D01*
X26376772Y-34521132D01*
X26376766Y-34521134D01*
X26310451Y-34565445D01*
X26310445Y-34565451D01*
X26266134Y-34631766D01*
X26266132Y-34631772D01*
X26254501Y-34690241D01*
X26254500Y-34690253D01*
X26254500Y-36429746D01*
X26254501Y-36429758D01*
X26266132Y-36488227D01*
X26266133Y-36488231D01*
X26310448Y-36554552D01*
X26376769Y-36598867D01*
X26421231Y-36607711D01*
X26435241Y-36610498D01*
X26435246Y-36610498D01*
X26435252Y-36610500D01*
X26435253Y-36610500D01*
X26571000Y-36610500D01*
X26629191Y-36629407D01*
X26665155Y-36678907D01*
X26670000Y-36709500D01*
X26670000Y-36950500D01*
X26651093Y-37008691D01*
X26601593Y-37044655D01*
X26571000Y-37049500D01*
X26435252Y-37049500D01*
X26435251Y-37049500D01*
X26435241Y-37049501D01*
X26376772Y-37061132D01*
X26376766Y-37061134D01*
X26310451Y-37105445D01*
X26310445Y-37105451D01*
X26266134Y-37171766D01*
X26266132Y-37171772D01*
X26254501Y-37230241D01*
X26254500Y-37230253D01*
X26254500Y-38969746D01*
X26254501Y-38969758D01*
X26266132Y-39028227D01*
X26266133Y-39028231D01*
X26310448Y-39094552D01*
X26376769Y-39138867D01*
X26421231Y-39147711D01*
X26435241Y-39150498D01*
X26435246Y-39150498D01*
X26435252Y-39150500D01*
X26435253Y-39150500D01*
X26571000Y-39150500D01*
X26629191Y-39169407D01*
X26665155Y-39218907D01*
X26670000Y-39249500D01*
X26670000Y-39490500D01*
X26651093Y-39548691D01*
X26601593Y-39584655D01*
X26571000Y-39589500D01*
X26435252Y-39589500D01*
X26435251Y-39589500D01*
X26435241Y-39589501D01*
X26376772Y-39601132D01*
X26376766Y-39601134D01*
X26310451Y-39645445D01*
X26310445Y-39645451D01*
X26266134Y-39711766D01*
X26266132Y-39711772D01*
X26254501Y-39770241D01*
X26254500Y-39770253D01*
X26254500Y-41509746D01*
X26254501Y-41509758D01*
X26266132Y-41568227D01*
X26266133Y-41568231D01*
X26310448Y-41634552D01*
X26376769Y-41678867D01*
X26421231Y-41687711D01*
X26435241Y-41690498D01*
X26435246Y-41690498D01*
X26435252Y-41690500D01*
X26435253Y-41690500D01*
X26571000Y-41690500D01*
X26629191Y-41709407D01*
X26665155Y-41758907D01*
X26670000Y-41789500D01*
X26670000Y-42030500D01*
X26651093Y-42088691D01*
X26601593Y-42124655D01*
X26571000Y-42129500D01*
X26435252Y-42129500D01*
X26435251Y-42129500D01*
X26435241Y-42129501D01*
X26376772Y-42141132D01*
X26376766Y-42141134D01*
X26310451Y-42185445D01*
X26310445Y-42185451D01*
X26266134Y-42251766D01*
X26266132Y-42251772D01*
X26254501Y-42310241D01*
X26254500Y-42310253D01*
X26254500Y-44049746D01*
X26254501Y-44049758D01*
X26266132Y-44108227D01*
X26266133Y-44108231D01*
X26310448Y-44174552D01*
X26376769Y-44218867D01*
X26421231Y-44227711D01*
X26435241Y-44230498D01*
X26435246Y-44230498D01*
X26435252Y-44230500D01*
X26435253Y-44230500D01*
X26571000Y-44230500D01*
X26629191Y-44249407D01*
X26665155Y-44298907D01*
X26670000Y-44329500D01*
X26670000Y-44570500D01*
X26651093Y-44628691D01*
X26601593Y-44664655D01*
X26571000Y-44669500D01*
X26435252Y-44669500D01*
X26435251Y-44669500D01*
X26435241Y-44669501D01*
X26376772Y-44681132D01*
X26376766Y-44681134D01*
X26310451Y-44725445D01*
X26310445Y-44725451D01*
X26266134Y-44791766D01*
X26266132Y-44791772D01*
X26254501Y-44850241D01*
X26254500Y-44850253D01*
X26254500Y-46589746D01*
X26254501Y-46589758D01*
X26266132Y-46648227D01*
X26266133Y-46648231D01*
X26310448Y-46714552D01*
X26376769Y-46758867D01*
X26421231Y-46767711D01*
X26435241Y-46770498D01*
X26435246Y-46770498D01*
X26435252Y-46770500D01*
X26435253Y-46770500D01*
X26571000Y-46770500D01*
X26629191Y-46789407D01*
X26665155Y-46838907D01*
X26670000Y-46869500D01*
X26670000Y-47110500D01*
X26651093Y-47168691D01*
X26601593Y-47204655D01*
X26571000Y-47209500D01*
X26435252Y-47209500D01*
X26435251Y-47209500D01*
X26435241Y-47209501D01*
X26376772Y-47221132D01*
X26376766Y-47221134D01*
X26310451Y-47265445D01*
X26310445Y-47265451D01*
X26266134Y-47331766D01*
X26266132Y-47331772D01*
X26254501Y-47390241D01*
X26254500Y-47390253D01*
X26254500Y-49129746D01*
X26254501Y-49129758D01*
X26266132Y-49188227D01*
X26266133Y-49188231D01*
X26310448Y-49254552D01*
X26376769Y-49298867D01*
X26421231Y-49307711D01*
X26435241Y-49310498D01*
X26435246Y-49310498D01*
X26435252Y-49310500D01*
X26435253Y-49310500D01*
X26571000Y-49310500D01*
X26629191Y-49329407D01*
X26665155Y-49378907D01*
X26670000Y-49409500D01*
X26670000Y-49650500D01*
X26651093Y-49708691D01*
X26601593Y-49744655D01*
X26571000Y-49749500D01*
X26435252Y-49749500D01*
X26435251Y-49749500D01*
X26435241Y-49749501D01*
X26376772Y-49761132D01*
X26376766Y-49761134D01*
X26310451Y-49805445D01*
X26310445Y-49805451D01*
X26266134Y-49871766D01*
X26266132Y-49871772D01*
X26254501Y-49930241D01*
X26254500Y-49930253D01*
X26254500Y-51669746D01*
X26254501Y-51669758D01*
X26266132Y-51728227D01*
X26266133Y-51728231D01*
X26310448Y-51794552D01*
X26376769Y-51838867D01*
X26421231Y-51847711D01*
X26435241Y-51850498D01*
X26435246Y-51850498D01*
X26435252Y-51850500D01*
X26435253Y-51850500D01*
X26571000Y-51850500D01*
X26629191Y-51869407D01*
X26665155Y-51918907D01*
X26670000Y-51949500D01*
X26670000Y-52190500D01*
X26651093Y-52248691D01*
X26601593Y-52284655D01*
X26571000Y-52289500D01*
X26435252Y-52289500D01*
X26435251Y-52289500D01*
X26435241Y-52289501D01*
X26376772Y-52301132D01*
X26376766Y-52301134D01*
X26310451Y-52345445D01*
X26310445Y-52345451D01*
X26266134Y-52411766D01*
X26266132Y-52411772D01*
X26254501Y-52470241D01*
X26254500Y-52470253D01*
X26254500Y-54209746D01*
X26254501Y-54209758D01*
X26266132Y-54268227D01*
X26266133Y-54268231D01*
X26310448Y-54334552D01*
X26376769Y-54378867D01*
X26421231Y-54387711D01*
X26435241Y-54390498D01*
X26435246Y-54390498D01*
X26435252Y-54390500D01*
X26435253Y-54390500D01*
X26571000Y-54390500D01*
X26629191Y-54409407D01*
X26665155Y-54458907D01*
X26670000Y-54489500D01*
X26670000Y-54730500D01*
X26651093Y-54788691D01*
X26601593Y-54824655D01*
X26571000Y-54829500D01*
X26435252Y-54829500D01*
X26435251Y-54829500D01*
X26435241Y-54829501D01*
X26376772Y-54841132D01*
X26376766Y-54841134D01*
X26310451Y-54885445D01*
X26310445Y-54885451D01*
X26266134Y-54951766D01*
X26266132Y-54951772D01*
X26254501Y-55010241D01*
X26254500Y-55010253D01*
X26254500Y-56749746D01*
X26254501Y-56749758D01*
X26266132Y-56808227D01*
X26266133Y-56808231D01*
X26310448Y-56874552D01*
X26376769Y-56918867D01*
X26421231Y-56927711D01*
X26435241Y-56930498D01*
X26435246Y-56930498D01*
X26435252Y-56930500D01*
X26435253Y-56930500D01*
X26571000Y-56930500D01*
X26629191Y-56949407D01*
X26665155Y-56998907D01*
X26670000Y-57029500D01*
X26670000Y-57270500D01*
X26651093Y-57328691D01*
X26601593Y-57364655D01*
X26571000Y-57369500D01*
X26435252Y-57369500D01*
X26435251Y-57369500D01*
X26435241Y-57369501D01*
X26376772Y-57381132D01*
X26376766Y-57381134D01*
X26310451Y-57425445D01*
X26310445Y-57425451D01*
X26266134Y-57491766D01*
X26266132Y-57491772D01*
X26254501Y-57550241D01*
X26254500Y-57550253D01*
X26254500Y-59289746D01*
X26254501Y-59289758D01*
X26266132Y-59348227D01*
X26266133Y-59348231D01*
X26310448Y-59414552D01*
X26376769Y-59458867D01*
X26421231Y-59467711D01*
X26435241Y-59470498D01*
X26435246Y-59470498D01*
X26435252Y-59470500D01*
X26435253Y-59470500D01*
X26571000Y-59470500D01*
X26629191Y-59489407D01*
X26665155Y-59538907D01*
X26670000Y-59569500D01*
X26670000Y-59810500D01*
X26651093Y-59868691D01*
X26601593Y-59904655D01*
X26571000Y-59909500D01*
X26435252Y-59909500D01*
X26435251Y-59909500D01*
X26435241Y-59909501D01*
X26376772Y-59921132D01*
X26376766Y-59921134D01*
X26310451Y-59965445D01*
X26310445Y-59965451D01*
X26266134Y-60031766D01*
X26266132Y-60031772D01*
X26254501Y-60090241D01*
X26254500Y-60090253D01*
X26254500Y-61829746D01*
X26254501Y-61829758D01*
X26266132Y-61888227D01*
X26266133Y-61888231D01*
X26310448Y-61954552D01*
X26376769Y-61998867D01*
X26421231Y-62007711D01*
X26435241Y-62010498D01*
X26435246Y-62010498D01*
X26435252Y-62010500D01*
X26435253Y-62010500D01*
X26571000Y-62010500D01*
X26629191Y-62029407D01*
X26665155Y-62078907D01*
X26670000Y-62109500D01*
X26670000Y-62350500D01*
X26651093Y-62408691D01*
X26601593Y-62444655D01*
X26571000Y-62449500D01*
X26435252Y-62449500D01*
X26435251Y-62449500D01*
X26435241Y-62449501D01*
X26376772Y-62461132D01*
X26376766Y-62461134D01*
X26310451Y-62505445D01*
X26310445Y-62505451D01*
X26266134Y-62571766D01*
X26266132Y-62571772D01*
X26254501Y-62630241D01*
X26254500Y-62630253D01*
X26254500Y-64369746D01*
X26254501Y-64369758D01*
X26266132Y-64428227D01*
X26266133Y-64428231D01*
X26310448Y-64494552D01*
X26376769Y-64538867D01*
X26421231Y-64547711D01*
X26435241Y-64550498D01*
X26435246Y-64550498D01*
X26435252Y-64550500D01*
X26435253Y-64550500D01*
X26571000Y-64550500D01*
X26629191Y-64569407D01*
X26665155Y-64618907D01*
X26670000Y-64649500D01*
X26670000Y-64890500D01*
X26651093Y-64948691D01*
X26601593Y-64984655D01*
X26571000Y-64989500D01*
X26435252Y-64989500D01*
X26435251Y-64989500D01*
X26435241Y-64989501D01*
X26376772Y-65001132D01*
X26376766Y-65001134D01*
X26310451Y-65045445D01*
X26310445Y-65045451D01*
X26266134Y-65111766D01*
X26266132Y-65111772D01*
X26254501Y-65170241D01*
X26254500Y-65170253D01*
X26254500Y-66909746D01*
X26254501Y-66909758D01*
X26266132Y-66968227D01*
X26266133Y-66968231D01*
X26310448Y-67034552D01*
X26376769Y-67078867D01*
X26421231Y-67087711D01*
X26435241Y-67090498D01*
X26435246Y-67090498D01*
X26435252Y-67090500D01*
X26435253Y-67090500D01*
X26571000Y-67090500D01*
X26629191Y-67109407D01*
X26665155Y-67158907D01*
X26670000Y-67189500D01*
X26670000Y-67430500D01*
X26651093Y-67488691D01*
X26601593Y-67524655D01*
X26571000Y-67529500D01*
X26435252Y-67529500D01*
X26435251Y-67529500D01*
X26435241Y-67529501D01*
X26376772Y-67541132D01*
X26376766Y-67541134D01*
X26310451Y-67585445D01*
X26310445Y-67585451D01*
X26266134Y-67651766D01*
X26266132Y-67651772D01*
X26254501Y-67710241D01*
X26254500Y-67710253D01*
X26254500Y-69449746D01*
X26254501Y-69449758D01*
X26266132Y-69508227D01*
X26266133Y-69508231D01*
X26310448Y-69574552D01*
X26376769Y-69618867D01*
X26421231Y-69627711D01*
X26435241Y-69630498D01*
X26435246Y-69630498D01*
X26435252Y-69630500D01*
X26435253Y-69630500D01*
X26571000Y-69630500D01*
X26629191Y-69649407D01*
X26665155Y-69698907D01*
X26670000Y-69729500D01*
X26670000Y-69970500D01*
X26651093Y-70028691D01*
X26601593Y-70064655D01*
X26571000Y-70069500D01*
X26435252Y-70069500D01*
X26435251Y-70069500D01*
X26435241Y-70069501D01*
X26376772Y-70081132D01*
X26376766Y-70081134D01*
X26310451Y-70125445D01*
X26310445Y-70125451D01*
X26266134Y-70191766D01*
X26266132Y-70191772D01*
X26254501Y-70250241D01*
X26254500Y-70250253D01*
X26254500Y-71989746D01*
X26254501Y-71989758D01*
X26266132Y-72048227D01*
X26266133Y-72048231D01*
X26310448Y-72114552D01*
X26376769Y-72158867D01*
X26421231Y-72167711D01*
X26435241Y-72170498D01*
X26435246Y-72170498D01*
X26435252Y-72170500D01*
X26435253Y-72170500D01*
X26571000Y-72170500D01*
X26629191Y-72189407D01*
X26665155Y-72238907D01*
X26670000Y-72269500D01*
X26670000Y-72510500D01*
X26651093Y-72568691D01*
X26601593Y-72604655D01*
X26571000Y-72609500D01*
X26435252Y-72609500D01*
X26435251Y-72609500D01*
X26435241Y-72609501D01*
X26376772Y-72621132D01*
X26376766Y-72621134D01*
X26310451Y-72665445D01*
X26310445Y-72665451D01*
X26266134Y-72731766D01*
X26266132Y-72731772D01*
X26254501Y-72790241D01*
X26254500Y-72790253D01*
X26254500Y-74529746D01*
X26254501Y-74529758D01*
X26266132Y-74588227D01*
X26266133Y-74588231D01*
X26310448Y-74654552D01*
X26376769Y-74698867D01*
X26421231Y-74707711D01*
X26435241Y-74710498D01*
X26435246Y-74710498D01*
X26435252Y-74710500D01*
X26435253Y-74710500D01*
X26571000Y-74710500D01*
X26629191Y-74729407D01*
X26665155Y-74778907D01*
X26670000Y-74809500D01*
X26670000Y-75050500D01*
X26651093Y-75108691D01*
X26601593Y-75144655D01*
X26571000Y-75149500D01*
X26435252Y-75149500D01*
X26435251Y-75149500D01*
X26435241Y-75149501D01*
X26376772Y-75161132D01*
X26376766Y-75161134D01*
X26310451Y-75205445D01*
X26310445Y-75205451D01*
X26266134Y-75271766D01*
X26266132Y-75271772D01*
X26254501Y-75330241D01*
X26254500Y-75330253D01*
X26254500Y-77069746D01*
X26254501Y-77069758D01*
X26266132Y-77128227D01*
X26266133Y-77128231D01*
X26310448Y-77194552D01*
X26376769Y-77238867D01*
X26421231Y-77247711D01*
X26435241Y-77250498D01*
X26435246Y-77250498D01*
X26435252Y-77250500D01*
X26435253Y-77250500D01*
X26571000Y-77250500D01*
X26629191Y-77269407D01*
X26665155Y-77318907D01*
X26670000Y-77349500D01*
X26670000Y-77590500D01*
X26651093Y-77648691D01*
X26601593Y-77684655D01*
X26571000Y-77689500D01*
X26435252Y-77689500D01*
X26435251Y-77689500D01*
X26435241Y-77689501D01*
X26376772Y-77701132D01*
X26376766Y-77701134D01*
X26310451Y-77745445D01*
X26310445Y-77745451D01*
X26266134Y-77811766D01*
X26266132Y-77811772D01*
X26254501Y-77870241D01*
X26254500Y-77870253D01*
X26254500Y-79609746D01*
X26254501Y-79609758D01*
X26266132Y-79668227D01*
X26266133Y-79668231D01*
X26310448Y-79734552D01*
X26376769Y-79778867D01*
X26421231Y-79787711D01*
X26435241Y-79790498D01*
X26435246Y-79790498D01*
X26435252Y-79790500D01*
X26435253Y-79790500D01*
X26571000Y-79790500D01*
X26629191Y-79809407D01*
X26665155Y-79858907D01*
X26670000Y-79889500D01*
X26670000Y-80130500D01*
X26651093Y-80188691D01*
X26601593Y-80224655D01*
X26571000Y-80229500D01*
X26435252Y-80229500D01*
X26435251Y-80229500D01*
X26435241Y-80229501D01*
X26376772Y-80241132D01*
X26376766Y-80241134D01*
X26310451Y-80285445D01*
X26310445Y-80285451D01*
X26266134Y-80351766D01*
X26266132Y-80351772D01*
X26254501Y-80410241D01*
X26254500Y-80410253D01*
X26254500Y-82149746D01*
X26254501Y-82149758D01*
X26266132Y-82208227D01*
X26266133Y-82208231D01*
X26310448Y-82274552D01*
X26376769Y-82318867D01*
X26421231Y-82327711D01*
X26435241Y-82330498D01*
X26435246Y-82330498D01*
X26435252Y-82330500D01*
X26435253Y-82330500D01*
X26571000Y-82330500D01*
X26629191Y-82349407D01*
X26665155Y-82398907D01*
X26670000Y-82429500D01*
X26670000Y-82670500D01*
X26651093Y-82728691D01*
X26601593Y-82764655D01*
X26571000Y-82769500D01*
X26435252Y-82769500D01*
X26435251Y-82769500D01*
X26435241Y-82769501D01*
X26376772Y-82781132D01*
X26376766Y-82781134D01*
X26310451Y-82825445D01*
X26310445Y-82825451D01*
X26266134Y-82891766D01*
X26266132Y-82891772D01*
X26254501Y-82950241D01*
X26254500Y-82950253D01*
X26254500Y-84689746D01*
X26254501Y-84689758D01*
X26266132Y-84748227D01*
X26266133Y-84748231D01*
X26310448Y-84814552D01*
X26376769Y-84858867D01*
X26421231Y-84867711D01*
X26435241Y-84870498D01*
X26435246Y-84870498D01*
X26435252Y-84870500D01*
X26435253Y-84870500D01*
X26571000Y-84870500D01*
X26629191Y-84889407D01*
X26665155Y-84938907D01*
X26670000Y-84969500D01*
X26670000Y-85210500D01*
X26651093Y-85268691D01*
X26601593Y-85304655D01*
X26571000Y-85309500D01*
X26435252Y-85309500D01*
X26435251Y-85309500D01*
X26435241Y-85309501D01*
X26376772Y-85321132D01*
X26376766Y-85321134D01*
X26310451Y-85365445D01*
X26310445Y-85365451D01*
X26266134Y-85431766D01*
X26266132Y-85431772D01*
X26254501Y-85490241D01*
X26254500Y-85490253D01*
X26254500Y-87229746D01*
X26254501Y-87229758D01*
X26266132Y-87288227D01*
X26266133Y-87288231D01*
X26310448Y-87354552D01*
X26376769Y-87398867D01*
X26421231Y-87407711D01*
X26435241Y-87410498D01*
X26435246Y-87410498D01*
X26435252Y-87410500D01*
X26435253Y-87410500D01*
X26571000Y-87410500D01*
X26629191Y-87429407D01*
X26665155Y-87478907D01*
X26670000Y-87509500D01*
X26670000Y-87750500D01*
X26651093Y-87808691D01*
X26601593Y-87844655D01*
X26571000Y-87849500D01*
X26435252Y-87849500D01*
X26435251Y-87849500D01*
X26435241Y-87849501D01*
X26376772Y-87861132D01*
X26376766Y-87861134D01*
X26310451Y-87905445D01*
X26310445Y-87905451D01*
X26266134Y-87971766D01*
X26266132Y-87971772D01*
X26254501Y-88030241D01*
X26254500Y-88030253D01*
X26254500Y-89769746D01*
X26254501Y-89769758D01*
X26266132Y-89828227D01*
X26266133Y-89828231D01*
X26310448Y-89894552D01*
X26376769Y-89938867D01*
X26421231Y-89947711D01*
X26435241Y-89950498D01*
X26435246Y-89950498D01*
X26435252Y-89950500D01*
X26435253Y-89950500D01*
X26571000Y-89950500D01*
X26629191Y-89969407D01*
X26665155Y-90018907D01*
X26670000Y-90049500D01*
X26670000Y-90290500D01*
X26651093Y-90348691D01*
X26601593Y-90384655D01*
X26571000Y-90389500D01*
X26435252Y-90389500D01*
X26435251Y-90389500D01*
X26435241Y-90389501D01*
X26376772Y-90401132D01*
X26376766Y-90401134D01*
X26310451Y-90445445D01*
X26310445Y-90445451D01*
X26266134Y-90511766D01*
X26266132Y-90511772D01*
X26254501Y-90570241D01*
X26254500Y-90570253D01*
X26254500Y-92309746D01*
X26254501Y-92309758D01*
X26266132Y-92368227D01*
X26266133Y-92368231D01*
X26310448Y-92434552D01*
X26376769Y-92478867D01*
X26421231Y-92487711D01*
X26435241Y-92490498D01*
X26435246Y-92490498D01*
X26435252Y-92490500D01*
X26435253Y-92490500D01*
X26571000Y-92490500D01*
X26629191Y-92509407D01*
X26665155Y-92558907D01*
X26670000Y-92589500D01*
X26670000Y-101349405D01*
X26667858Y-101349312D01*
X26535219Y-101337708D01*
X26501598Y-101334767D01*
X26484603Y-101331771D01*
X26329671Y-101290257D01*
X26313457Y-101284355D01*
X26168101Y-101216574D01*
X26153157Y-101207946D01*
X26021776Y-101115952D01*
X26008556Y-101104860D01*
X25895139Y-100991443D01*
X25884047Y-100978223D01*
X25792053Y-100846842D01*
X25783427Y-100831902D01*
X25715641Y-100686536D01*
X25709742Y-100670328D01*
X25668226Y-100515389D01*
X25665233Y-100498409D01*
X25650687Y-100332140D01*
X25650500Y-100327841D01*
X25650500Y-30480000D01*
X26670000Y-30480000D01*
X26670000Y-31870500D01*
G37*
G04 #@! TD.AperFunction*
G04 #@! TA.AperFunction,Conductor*
G36*
X33401000Y-27940000D02*
G01*
X33400999Y-27940001D01*
X33401000Y-28605580D01*
X33382093Y-28663771D01*
X33332593Y-28699735D01*
X33321313Y-28702678D01*
X33297994Y-28707316D01*
X33297991Y-28707317D01*
X33210670Y-28765664D01*
X33210664Y-28765670D01*
X33152317Y-28852991D01*
X33152316Y-28852994D01*
X33131828Y-28956000D01*
X33135098Y-28972440D01*
X33137000Y-28991753D01*
X33137000Y-30381000D01*
X33118093Y-30439191D01*
X33068593Y-30475155D01*
X33038000Y-30480000D01*
X25650500Y-30480000D01*
X25650500Y-29563000D01*
X25669407Y-29504809D01*
X25718907Y-29468845D01*
X25749500Y-29464000D01*
X26189336Y-29464000D01*
X26222033Y-29469555D01*
X26262301Y-29483646D01*
X26292725Y-29486499D01*
X26292727Y-29486500D01*
X26292734Y-29486500D01*
X27301273Y-29486500D01*
X27301273Y-29486499D01*
X27331699Y-29483646D01*
X27371966Y-29469555D01*
X27404664Y-29464000D01*
X28348336Y-29464000D01*
X28381033Y-29469555D01*
X28421301Y-29483646D01*
X28451725Y-29486499D01*
X28451727Y-29486500D01*
X28451734Y-29486500D01*
X29460273Y-29486500D01*
X29460273Y-29486499D01*
X29490699Y-29483646D01*
X29530966Y-29469555D01*
X29563664Y-29464000D01*
X30537890Y-29464000D01*
X30570587Y-29469555D01*
X30682301Y-29508646D01*
X30712725Y-29511499D01*
X30712727Y-29511500D01*
X30712734Y-29511500D01*
X31771273Y-29511500D01*
X31771273Y-29511499D01*
X31801699Y-29508646D01*
X31913412Y-29469555D01*
X31946110Y-29464000D01*
X32384999Y-29464000D01*
X32385000Y-29464000D01*
X32385000Y-25749499D01*
X32403907Y-25691309D01*
X32453407Y-25655345D01*
X32484000Y-25650500D01*
X33401000Y-25650500D01*
X33401000Y-27940000D01*
G37*
G04 #@! TD.AperFunction*
G04 #@! TA.AperFunction,Conductor*
G36*
X125732140Y-25650687D02*
G01*
X125898409Y-25665233D01*
X125915389Y-25668226D01*
X126070332Y-25709743D01*
X126086536Y-25715641D01*
X126231902Y-25783427D01*
X126246842Y-25792053D01*
X126378223Y-25884047D01*
X126391443Y-25895139D01*
X126504860Y-26008556D01*
X126515952Y-26021776D01*
X126607946Y-26153157D01*
X126616574Y-26168101D01*
X126669562Y-26281734D01*
X126684354Y-26313454D01*
X126690257Y-26329671D01*
X126731771Y-26484603D01*
X126734767Y-26501598D01*
X126749312Y-26667860D01*
X126749500Y-26672158D01*
X126749500Y-100327841D01*
X126749312Y-100332140D01*
X126739986Y-100438748D01*
X126734767Y-100498401D01*
X126731771Y-100515396D01*
X126690257Y-100670328D01*
X126684354Y-100686545D01*
X126616574Y-100831898D01*
X126607946Y-100846842D01*
X126515952Y-100978223D01*
X126504860Y-100991443D01*
X126391443Y-101104860D01*
X126378223Y-101115952D01*
X126246842Y-101207946D01*
X126231898Y-101216574D01*
X126086545Y-101284354D01*
X126070328Y-101290257D01*
X125915396Y-101331771D01*
X125898401Y-101334767D01*
X125852868Y-101338750D01*
X125732140Y-101349312D01*
X125727841Y-101349500D01*
X26672159Y-101349500D01*
X26670000Y-101349405D01*
X26670000Y-99060000D01*
X26670001Y-99060000D01*
X27842281Y-99060000D01*
X27891618Y-99073990D01*
X27891651Y-99073920D01*
X27892088Y-99074124D01*
X27894250Y-99074737D01*
X27896873Y-99076355D01*
X27896880Y-99076358D01*
X28063306Y-99131506D01*
X28166013Y-99141999D01*
X28303500Y-99141999D01*
X28303500Y-99060000D01*
X28803500Y-99060000D01*
X28803500Y-99141998D01*
X28803501Y-99141999D01*
X28940986Y-99141999D01*
X29043687Y-99131507D01*
X29043699Y-99131504D01*
X29210119Y-99076358D01*
X29210126Y-99076355D01*
X29212750Y-99074737D01*
X29214911Y-99074124D01*
X29215349Y-99073920D01*
X29215381Y-99073990D01*
X29264719Y-99060000D01*
X120649999Y-99060000D01*
X120650000Y-99060000D01*
X123104341Y-99060000D01*
X123124935Y-99295400D01*
X123186098Y-99523667D01*
X123285959Y-99737818D01*
X123285963Y-99737826D01*
X123285964Y-99737828D01*
X123285965Y-99737829D01*
X123421505Y-99931401D01*
X123588599Y-100098495D01*
X123782171Y-100234035D01*
X123782172Y-100234035D01*
X123782173Y-100234036D01*
X123782181Y-100234040D01*
X123996333Y-100333901D01*
X123996337Y-100333903D01*
X124224592Y-100395063D01*
X124224596Y-100395063D01*
X124224599Y-100395064D01*
X124401028Y-100410500D01*
X124401034Y-100410500D01*
X124518972Y-100410500D01*
X124695400Y-100395064D01*
X124695401Y-100395063D01*
X124695408Y-100395063D01*
X124923663Y-100333903D01*
X125137829Y-100234035D01*
X125331401Y-100098495D01*
X125498495Y-99931401D01*
X125634035Y-99737830D01*
X125733903Y-99523663D01*
X125795063Y-99295408D01*
X125815659Y-99060000D01*
X125795063Y-98824592D01*
X125733903Y-98596337D01*
X125733901Y-98596332D01*
X125634040Y-98382181D01*
X125634036Y-98382173D01*
X125626433Y-98371315D01*
X125498495Y-98188599D01*
X125331401Y-98021505D01*
X125331397Y-98021502D01*
X125331396Y-98021501D01*
X125137826Y-97885963D01*
X125137818Y-97885959D01*
X124923666Y-97786098D01*
X124923667Y-97786098D01*
X124840262Y-97763750D01*
X124695408Y-97724937D01*
X124695407Y-97724936D01*
X124695400Y-97724935D01*
X124518972Y-97709500D01*
X124518966Y-97709500D01*
X124401034Y-97709500D01*
X124401028Y-97709500D01*
X124224599Y-97724935D01*
X123996332Y-97786098D01*
X123782181Y-97885959D01*
X123782173Y-97885963D01*
X123588603Y-98021501D01*
X123421501Y-98188603D01*
X123285964Y-98382171D01*
X123186097Y-98596337D01*
X123124935Y-98824599D01*
X123104341Y-99059995D01*
X123104341Y-99060000D01*
X120650000Y-99060000D01*
X124460000Y-95250000D01*
X124460000Y-43092499D01*
X124478907Y-43034309D01*
X124528407Y-42998345D01*
X124559000Y-42993500D01*
X125048773Y-42993500D01*
X125048773Y-42993499D01*
X125079199Y-42990646D01*
X125207382Y-42945793D01*
X125316650Y-42865150D01*
X125397293Y-42755882D01*
X125442146Y-42627699D01*
X125444999Y-42597273D01*
X125445000Y-42597273D01*
X125445000Y-41988726D01*
X125444999Y-41988725D01*
X125442146Y-41958305D01*
X125442146Y-41958301D01*
X125397293Y-41830118D01*
X125376816Y-41802373D01*
X125316654Y-41720855D01*
X125316652Y-41720853D01*
X125316650Y-41720850D01*
X125316646Y-41720847D01*
X125316644Y-41720845D01*
X125207383Y-41640207D01*
X125079203Y-41595355D01*
X125079194Y-41595353D01*
X125048774Y-41592500D01*
X125048766Y-41592500D01*
X124559000Y-41592500D01*
X124500809Y-41573593D01*
X124464845Y-41524093D01*
X124460000Y-41493500D01*
X124460000Y-34452500D01*
X124478907Y-34394309D01*
X124528407Y-34358345D01*
X124559000Y-34353500D01*
X125048773Y-34353500D01*
X125048773Y-34353499D01*
X125079199Y-34350646D01*
X125207382Y-34305793D01*
X125316650Y-34225150D01*
X125397293Y-34115882D01*
X125442146Y-33987699D01*
X125444999Y-33957273D01*
X125445000Y-33957273D01*
X125445000Y-33348726D01*
X125444999Y-33348725D01*
X125443946Y-33337500D01*
X125442146Y-33318301D01*
X125397293Y-33190118D01*
X125384074Y-33172207D01*
X125316654Y-33080855D01*
X125316652Y-33080853D01*
X125316650Y-33080850D01*
X125316646Y-33080847D01*
X125316644Y-33080845D01*
X125207383Y-33000207D01*
X125079203Y-32955355D01*
X125079194Y-32955353D01*
X125048774Y-32952500D01*
X125048766Y-32952500D01*
X124559000Y-32952500D01*
X124500809Y-32933593D01*
X124464845Y-32884093D01*
X124460000Y-32853500D01*
X124460000Y-31750001D01*
X124460000Y-31750000D01*
X120650000Y-27940000D01*
X123104341Y-27940000D01*
X123124935Y-28175400D01*
X123186098Y-28403667D01*
X123285959Y-28617818D01*
X123285963Y-28617826D01*
X123389481Y-28765667D01*
X123421505Y-28811401D01*
X123588599Y-28978495D01*
X123588602Y-28978497D01*
X123588603Y-28978498D01*
X123652906Y-29023523D01*
X123782171Y-29114035D01*
X123782172Y-29114035D01*
X123782173Y-29114036D01*
X123782181Y-29114040D01*
X123870039Y-29155009D01*
X123982376Y-29207393D01*
X123996333Y-29213901D01*
X123996337Y-29213903D01*
X124224592Y-29275063D01*
X124224596Y-29275063D01*
X124224599Y-29275064D01*
X124401028Y-29290500D01*
X124401034Y-29290500D01*
X124518972Y-29290500D01*
X124695400Y-29275064D01*
X124695401Y-29275063D01*
X124695408Y-29275063D01*
X124923663Y-29213903D01*
X125137829Y-29114035D01*
X125331401Y-28978495D01*
X125498495Y-28811401D01*
X125634035Y-28617830D01*
X125733903Y-28403663D01*
X125795063Y-28175408D01*
X125795264Y-28173118D01*
X125815659Y-27940000D01*
X125795063Y-27704592D01*
X125733903Y-27476337D01*
X125693866Y-27390477D01*
X125634040Y-27262181D01*
X125634036Y-27262173D01*
X125498498Y-27068603D01*
X125498497Y-27068602D01*
X125498495Y-27068599D01*
X125331401Y-26901505D01*
X125331397Y-26901502D01*
X125331396Y-26901501D01*
X125137826Y-26765963D01*
X125137818Y-26765959D01*
X124923666Y-26666098D01*
X124923667Y-26666098D01*
X124846140Y-26645325D01*
X124695408Y-26604937D01*
X124695407Y-26604936D01*
X124695400Y-26604935D01*
X124518972Y-26589500D01*
X124518966Y-26589500D01*
X124401034Y-26589500D01*
X124401028Y-26589500D01*
X124224599Y-26604935D01*
X123996332Y-26666098D01*
X123782181Y-26765959D01*
X123782173Y-26765963D01*
X123588603Y-26901501D01*
X123421501Y-27068603D01*
X123285964Y-27262171D01*
X123186097Y-27476337D01*
X123124935Y-27704599D01*
X123104341Y-27939995D01*
X123104341Y-27940000D01*
X120650000Y-27940000D01*
X120649999Y-27940000D01*
X33401001Y-27940000D01*
X33401000Y-27940000D01*
X33401000Y-25650500D01*
X125685830Y-25650500D01*
X125727841Y-25650500D01*
X125732140Y-25650687D01*
G37*
G04 #@! TD.AperFunction*
M02*
