G04 #@! TF.GenerationSoftware,KiCad,Pcbnew,7.0.10*
G04 #@! TF.CreationDate,2024-01-04T22:38:49+01:00*
G04 #@! TF.ProjectId,ControlPanel,436f6e74-726f-46c5-9061-6e656c2e6b69,rev?*
G04 #@! TF.SameCoordinates,Original*
G04 #@! TF.FileFunction,Paste,Top*
G04 #@! TF.FilePolarity,Positive*
%FSLAX46Y46*%
G04 Gerber Fmt 4.6, Leading zero omitted, Abs format (unit mm)*
G04 Created by KiCad (PCBNEW 7.0.10) date 2024-01-04 22:38:49*
%MOMM*%
%LPD*%
G01*
G04 APERTURE LIST*
G04 Aperture macros list*
%AMRoundRect*
0 Rectangle with rounded corners*
0 $1 Rounding radius*
0 $2 $3 $4 $5 $6 $7 $8 $9 X,Y pos of 4 corners*
0 Add a 4 corners polygon primitive as box body*
4,1,4,$2,$3,$4,$5,$6,$7,$8,$9,$2,$3,0*
0 Add four circle primitives for the rounded corners*
1,1,$1+$1,$2,$3*
1,1,$1+$1,$4,$5*
1,1,$1+$1,$6,$7*
1,1,$1+$1,$8,$9*
0 Add four rect primitives between the rounded corners*
20,1,$1+$1,$2,$3,$4,$5,0*
20,1,$1+$1,$4,$5,$6,$7,0*
20,1,$1+$1,$6,$7,$8,$9,0*
20,1,$1+$1,$8,$9,$2,$3,0*%
G04 Aperture macros list end*
%ADD10RoundRect,0.150000X0.150000X-0.825000X0.150000X0.825000X-0.150000X0.825000X-0.150000X-0.825000X0*%
%ADD11RoundRect,0.250000X-0.337500X-0.475000X0.337500X-0.475000X0.337500X0.475000X-0.337500X0.475000X0*%
%ADD12RoundRect,0.250000X-0.475000X0.337500X-0.475000X-0.337500X0.475000X-0.337500X0.475000X0.337500X0*%
%ADD13RoundRect,0.150000X-0.725000X-0.150000X0.725000X-0.150000X0.725000X0.150000X-0.725000X0.150000X0*%
%ADD14RoundRect,0.150000X-0.825000X-0.150000X0.825000X-0.150000X0.825000X0.150000X-0.825000X0.150000X0*%
%ADD15RoundRect,0.250000X0.450000X-0.350000X0.450000X0.350000X-0.450000X0.350000X-0.450000X-0.350000X0*%
%ADD16R,1.150000X0.600000*%
%ADD17R,1.150000X0.300000*%
%ADD18RoundRect,0.250000X0.475000X-0.337500X0.475000X0.337500X-0.475000X0.337500X-0.475000X-0.337500X0*%
%ADD19RoundRect,0.250000X-0.450000X0.350000X-0.450000X-0.350000X0.450000X-0.350000X0.450000X0.350000X0*%
%ADD20RoundRect,0.250000X0.337500X0.475000X-0.337500X0.475000X-0.337500X-0.475000X0.337500X-0.475000X0*%
%ADD21RoundRect,0.250000X0.350000X0.450000X-0.350000X0.450000X-0.350000X-0.450000X0.350000X-0.450000X0*%
%ADD22R,1.219200X0.508000*%
%ADD23RoundRect,0.150000X0.150000X-0.725000X0.150000X0.725000X-0.150000X0.725000X-0.150000X-0.725000X0*%
%ADD24RoundRect,0.250000X-0.350000X-0.450000X0.350000X-0.450000X0.350000X0.450000X-0.350000X0.450000X0*%
%ADD25R,1.200000X0.400000*%
%ADD26RoundRect,0.250000X-0.650000X0.412500X-0.650000X-0.412500X0.650000X-0.412500X0.650000X0.412500X0*%
%ADD27RoundRect,0.250000X-0.450000X0.325000X-0.450000X-0.325000X0.450000X-0.325000X0.450000X0.325000X0*%
%ADD28RoundRect,0.250000X0.650000X-0.412500X0.650000X0.412500X-0.650000X0.412500X-0.650000X-0.412500X0*%
G04 APERTURE END LIST*
D10*
X101600000Y-62165000D03*
X102870000Y-62165000D03*
X104140000Y-62165000D03*
X105410000Y-62165000D03*
X106680000Y-62165000D03*
X107950000Y-62165000D03*
X109220000Y-62165000D03*
X109220000Y-57215000D03*
X107950000Y-57215000D03*
X106680000Y-57215000D03*
X105410000Y-57215000D03*
X104140000Y-57215000D03*
X102870000Y-57215000D03*
X101600000Y-57215000D03*
D11*
X58652500Y-34163000D03*
X60727500Y-34163000D03*
D12*
X70993000Y-80348000D03*
X70993000Y-82423000D03*
X101854000Y-29950500D03*
X101854000Y-32025500D03*
D11*
X50397500Y-34163000D03*
X52472500Y-34163000D03*
D13*
X34763000Y-28956000D03*
X34763000Y-30226000D03*
X34763000Y-31496000D03*
X34763000Y-32766000D03*
X34763000Y-34036000D03*
X34763000Y-35306000D03*
X34763000Y-36576000D03*
X34763000Y-37846000D03*
X39913000Y-37846000D03*
X39913000Y-36576000D03*
X39913000Y-35306000D03*
X39913000Y-34036000D03*
X39913000Y-32766000D03*
X39913000Y-31496000D03*
X39913000Y-30226000D03*
X39913000Y-28956000D03*
D12*
X31242000Y-26648500D03*
X31242000Y-28723500D03*
D11*
X139546000Y-55448000D03*
X141621000Y-55448000D03*
D10*
X67310000Y-76135000D03*
X68580000Y-76135000D03*
X69850000Y-76135000D03*
X71120000Y-76135000D03*
X72390000Y-76135000D03*
X73660000Y-76135000D03*
X74930000Y-76135000D03*
X74930000Y-71185000D03*
X73660000Y-71185000D03*
X72390000Y-71185000D03*
X71120000Y-71185000D03*
X69850000Y-71185000D03*
X68580000Y-71185000D03*
X67310000Y-71185000D03*
D14*
X147701000Y-74295000D03*
X147701000Y-75565000D03*
X147701000Y-76835000D03*
X147701000Y-78105000D03*
X147701000Y-79375000D03*
X147701000Y-80645000D03*
X147701000Y-81915000D03*
X152651000Y-81915000D03*
X152651000Y-80645000D03*
X152651000Y-79375000D03*
X152651000Y-78105000D03*
X152651000Y-76835000D03*
X152651000Y-75565000D03*
X152651000Y-74295000D03*
D15*
X103759000Y-82391000D03*
X103759000Y-80391000D03*
D12*
X98552000Y-80348000D03*
X98552000Y-82423000D03*
D16*
X119589500Y-41173000D03*
X119589500Y-40373000D03*
D17*
X119589500Y-39223000D03*
X119589500Y-38223000D03*
X119589500Y-37723000D03*
X119589500Y-36723000D03*
D16*
X119589500Y-34773000D03*
X119589500Y-35573000D03*
D17*
X119589500Y-36223000D03*
X119589500Y-37223000D03*
X119589500Y-38723000D03*
X119589500Y-39723000D03*
D12*
X119144000Y-72495500D03*
X119144000Y-74570500D03*
D18*
X112522000Y-31771500D03*
X112522000Y-29696500D03*
D19*
X67691000Y-80391000D03*
X67691000Y-82391000D03*
D11*
X139546000Y-61468000D03*
X141621000Y-61468000D03*
X144356000Y-58458000D03*
X146431000Y-58458000D03*
D14*
X52135000Y-36703000D03*
X52135000Y-37973000D03*
X52135000Y-39243000D03*
X52135000Y-40513000D03*
X52135000Y-41783000D03*
X52135000Y-43053000D03*
X52135000Y-44323000D03*
X57085000Y-44323000D03*
X57085000Y-43053000D03*
X57085000Y-41783000D03*
X57085000Y-40513000D03*
X57085000Y-39243000D03*
X57085000Y-37973000D03*
X57085000Y-36703000D03*
D12*
X84328000Y-42926000D03*
X84328000Y-45001000D03*
D13*
X34763000Y-64389000D03*
X34763000Y-65659000D03*
X34763000Y-66929000D03*
X34763000Y-68199000D03*
X34763000Y-69469000D03*
X34763000Y-70739000D03*
X34763000Y-72009000D03*
X34763000Y-73279000D03*
X39913000Y-73279000D03*
X39913000Y-72009000D03*
X39913000Y-70739000D03*
X39913000Y-69469000D03*
X39913000Y-68199000D03*
X39913000Y-66929000D03*
X39913000Y-65659000D03*
X39913000Y-64389000D03*
D20*
X100881000Y-42799000D03*
X98806000Y-42799000D03*
D21*
X101330000Y-65278000D03*
X99330000Y-65278000D03*
D11*
X144356000Y-55448000D03*
X146431000Y-55448000D03*
D19*
X122555000Y-80280000D03*
X122555000Y-82280000D03*
D22*
X98573500Y-44526200D03*
X98573500Y-45466000D03*
X98573500Y-46405800D03*
X100859500Y-46405800D03*
X100859500Y-45466000D03*
X100859500Y-44526200D03*
D13*
X34763000Y-52578000D03*
X34763000Y-53848000D03*
X34763000Y-55118000D03*
X34763000Y-56388000D03*
X34763000Y-57658000D03*
X34763000Y-58928000D03*
X34763000Y-60198000D03*
X34763000Y-61468000D03*
X39913000Y-61468000D03*
X39913000Y-60198000D03*
X39913000Y-58928000D03*
X39913000Y-57658000D03*
X39913000Y-56388000D03*
X39913000Y-55118000D03*
X39913000Y-53848000D03*
X39913000Y-52578000D03*
D15*
X116967000Y-35941000D03*
X116967000Y-33941000D03*
D19*
X109093000Y-80423000D03*
X109093000Y-82423000D03*
D11*
X139546000Y-58458000D03*
X141621000Y-58458000D03*
X134736000Y-61468000D03*
X136811000Y-61468000D03*
D13*
X34763000Y-76200000D03*
X34763000Y-77470000D03*
X34763000Y-78740000D03*
X34763000Y-80010000D03*
X34763000Y-81280000D03*
X34763000Y-82550000D03*
X34763000Y-83820000D03*
X34763000Y-85090000D03*
X39913000Y-85090000D03*
X39913000Y-83820000D03*
X39913000Y-82550000D03*
X39913000Y-81280000D03*
X39913000Y-80010000D03*
X39913000Y-78740000D03*
X39913000Y-77470000D03*
X39913000Y-76200000D03*
D15*
X117602000Y-82391000D03*
X117602000Y-80391000D03*
D10*
X85090000Y-76135000D03*
X86360000Y-76135000D03*
X87630000Y-76135000D03*
X88900000Y-76135000D03*
X90170000Y-76135000D03*
X91440000Y-76135000D03*
X92710000Y-76135000D03*
X92710000Y-71185000D03*
X91440000Y-71185000D03*
X90170000Y-71185000D03*
X88900000Y-71185000D03*
X87630000Y-71185000D03*
X86360000Y-71185000D03*
X85090000Y-71185000D03*
D11*
X144356000Y-61468000D03*
X146431000Y-61468000D03*
D15*
X62484000Y-82391000D03*
X62484000Y-80391000D03*
D13*
X34763000Y-88011000D03*
X34763000Y-89281000D03*
X34763000Y-90551000D03*
X34763000Y-91821000D03*
X34763000Y-93091000D03*
X34763000Y-94361000D03*
X34763000Y-95631000D03*
X34763000Y-96901000D03*
X39913000Y-96901000D03*
X39913000Y-95631000D03*
X39913000Y-94361000D03*
X39913000Y-93091000D03*
X39913000Y-91821000D03*
X39913000Y-90551000D03*
X39913000Y-89281000D03*
X39913000Y-88011000D03*
D12*
X57150000Y-80348000D03*
X57150000Y-82423000D03*
D13*
X34763000Y-40767000D03*
X34763000Y-42037000D03*
X34763000Y-43307000D03*
X34763000Y-44577000D03*
X34763000Y-45847000D03*
X34763000Y-47117000D03*
X34763000Y-48387000D03*
X34763000Y-49657000D03*
X39913000Y-49657000D03*
X39913000Y-48387000D03*
X39913000Y-47117000D03*
X39913000Y-45847000D03*
X39913000Y-44577000D03*
X39913000Y-43307000D03*
X39913000Y-42037000D03*
X39913000Y-40767000D03*
D12*
X44196000Y-80348000D03*
X44196000Y-82423000D03*
X112395000Y-80348000D03*
X112395000Y-82423000D03*
D11*
X28553500Y-97917000D03*
X30628500Y-97917000D03*
D19*
X81661000Y-80423000D03*
X81661000Y-82423000D03*
D23*
X107315000Y-76235000D03*
X108585000Y-76235000D03*
X109855000Y-76235000D03*
X111125000Y-76235000D03*
X112395000Y-76235000D03*
X113665000Y-76235000D03*
X114935000Y-76235000D03*
X116205000Y-76235000D03*
X116205000Y-71085000D03*
X114935000Y-71085000D03*
X113665000Y-71085000D03*
X112395000Y-71085000D03*
X111125000Y-71085000D03*
X109855000Y-71085000D03*
X108585000Y-71085000D03*
X107315000Y-71085000D03*
D11*
X139546000Y-52438000D03*
X141621000Y-52438000D03*
D14*
X136906000Y-73787000D03*
X136906000Y-75057000D03*
X136906000Y-76327000D03*
X136906000Y-77597000D03*
X136906000Y-78867000D03*
X136906000Y-80137000D03*
X136906000Y-81407000D03*
X141856000Y-81407000D03*
X141856000Y-80137000D03*
X141856000Y-78867000D03*
X141856000Y-77597000D03*
X141856000Y-76327000D03*
X141856000Y-75057000D03*
X141856000Y-73787000D03*
D19*
X28956000Y-26686000D03*
X28956000Y-28686000D03*
D11*
X144356000Y-52438000D03*
X146431000Y-52438000D03*
D15*
X48641000Y-82391000D03*
X48641000Y-80391000D03*
D14*
X157991000Y-73406000D03*
X157991000Y-74676000D03*
X157991000Y-75946000D03*
X157991000Y-77216000D03*
X157991000Y-78486000D03*
X157991000Y-79756000D03*
X157991000Y-81026000D03*
X162941000Y-81026000D03*
X162941000Y-79756000D03*
X162941000Y-78486000D03*
X162941000Y-77216000D03*
X162941000Y-75946000D03*
X162941000Y-74676000D03*
X162941000Y-73406000D03*
D21*
X101330000Y-69342000D03*
X99330000Y-69342000D03*
D11*
X66907500Y-34163000D03*
X68982500Y-34163000D03*
D19*
X53848000Y-80407000D03*
X53848000Y-82407000D03*
X112522000Y-33925000D03*
X112522000Y-35925000D03*
D24*
X98822000Y-48514000D03*
X100822000Y-48514000D03*
D18*
X114681000Y-35962500D03*
X114681000Y-33887500D03*
D15*
X116967000Y-41259000D03*
X116967000Y-39259000D03*
D11*
X74930000Y-34163000D03*
X77005000Y-34163000D03*
D14*
X60390000Y-36703000D03*
X60390000Y-37973000D03*
X60390000Y-39243000D03*
X60390000Y-40513000D03*
X60390000Y-41783000D03*
X60390000Y-43053000D03*
X60390000Y-44323000D03*
X65340000Y-44323000D03*
X65340000Y-43053000D03*
X65340000Y-41783000D03*
X65340000Y-40513000D03*
X65340000Y-39243000D03*
X65340000Y-37973000D03*
X65340000Y-36703000D03*
D25*
X104080000Y-28892500D03*
X104080000Y-29527500D03*
X104080000Y-30162500D03*
X104080000Y-30797500D03*
X104080000Y-31432500D03*
X104080000Y-32067500D03*
X104080000Y-32702500D03*
X104080000Y-33337500D03*
X104080000Y-33972500D03*
X104080000Y-34607500D03*
X109280000Y-34607500D03*
X109280000Y-33972500D03*
X109280000Y-33337500D03*
X109280000Y-32702500D03*
X109280000Y-32067500D03*
X109280000Y-31432500D03*
X109280000Y-30797500D03*
X109280000Y-30162500D03*
X109280000Y-29527500D03*
X109280000Y-28892500D03*
D19*
X95504000Y-80423000D03*
X95504000Y-82423000D03*
D26*
X101346000Y-71462500D03*
X101346000Y-74587500D03*
D14*
X68645000Y-36703000D03*
X68645000Y-37973000D03*
X68645000Y-39243000D03*
X68645000Y-40513000D03*
X68645000Y-41783000D03*
X68645000Y-43053000D03*
X68645000Y-44323000D03*
X73595000Y-44323000D03*
X73595000Y-43053000D03*
X73595000Y-41783000D03*
X73595000Y-40513000D03*
X73595000Y-39243000D03*
X73595000Y-37973000D03*
X73595000Y-36703000D03*
D15*
X112649000Y-41259000D03*
X112649000Y-39259000D03*
D27*
X26797000Y-26661000D03*
X26797000Y-28711000D03*
D28*
X99060000Y-60021000D03*
X99060000Y-56896000D03*
D11*
X104351000Y-53975000D03*
X106426000Y-53975000D03*
D14*
X76900000Y-36703000D03*
X76900000Y-37973000D03*
X76900000Y-39243000D03*
X76900000Y-40513000D03*
X76900000Y-41783000D03*
X76900000Y-43053000D03*
X76900000Y-44323000D03*
X81850000Y-44323000D03*
X81850000Y-43053000D03*
X81850000Y-41783000D03*
X81850000Y-40513000D03*
X81850000Y-39243000D03*
X81850000Y-37973000D03*
X81850000Y-36703000D03*
D11*
X134736000Y-58458000D03*
X136811000Y-58458000D03*
D21*
X101330000Y-67310000D03*
X99330000Y-67310000D03*
D14*
X43880000Y-36703000D03*
X43880000Y-37973000D03*
X43880000Y-39243000D03*
X43880000Y-40513000D03*
X43880000Y-41783000D03*
X43880000Y-43053000D03*
X43880000Y-44323000D03*
X48830000Y-44323000D03*
X48830000Y-43053000D03*
X48830000Y-41783000D03*
X48830000Y-40513000D03*
X48830000Y-39243000D03*
X48830000Y-37973000D03*
X48830000Y-36703000D03*
D12*
X114808000Y-39221500D03*
X114808000Y-41296500D03*
X84709000Y-80348000D03*
X84709000Y-82423000D03*
D15*
X76200000Y-82391000D03*
X76200000Y-80391000D03*
X90043000Y-82391000D03*
X90043000Y-80391000D03*
M02*
