G04 #@! TF.GenerationSoftware,KiCad,Pcbnew,7.0.7*
G04 #@! TF.CreationDate,2024-01-02T15:09:44+01:00*
G04 #@! TF.ProjectId,ControlPanel,436f6e74-726f-46c5-9061-6e656c2e6b69,rev?*
G04 #@! TF.SameCoordinates,Original*
G04 #@! TF.FileFunction,Paste,Top*
G04 #@! TF.FilePolarity,Positive*
%FSLAX46Y46*%
G04 Gerber Fmt 4.6, Leading zero omitted, Abs format (unit mm)*
G04 Created by KiCad (PCBNEW 7.0.7) date 2024-01-02 15:09:44*
%MOMM*%
%LPD*%
G01*
G04 APERTURE LIST*
G04 Aperture macros list*
%AMRoundRect*
0 Rectangle with rounded corners*
0 $1 Rounding radius*
0 $2 $3 $4 $5 $6 $7 $8 $9 X,Y pos of 4 corners*
0 Add a 4 corners polygon primitive as box body*
4,1,4,$2,$3,$4,$5,$6,$7,$8,$9,$2,$3,0*
0 Add four circle primitives for the rounded corners*
1,1,$1+$1,$2,$3*
1,1,$1+$1,$4,$5*
1,1,$1+$1,$6,$7*
1,1,$1+$1,$8,$9*
0 Add four rect primitives between the rounded corners*
20,1,$1+$1,$2,$3,$4,$5,0*
20,1,$1+$1,$4,$5,$6,$7,0*
20,1,$1+$1,$6,$7,$8,$9,0*
20,1,$1+$1,$8,$9,$2,$3,0*%
G04 Aperture macros list end*
%ADD10RoundRect,0.250000X-0.475000X0.337500X-0.475000X-0.337500X0.475000X-0.337500X0.475000X0.337500X0*%
%ADD11RoundRect,0.250000X0.475000X-0.337500X0.475000X0.337500X-0.475000X0.337500X-0.475000X-0.337500X0*%
%ADD12RoundRect,0.150000X-0.725000X-0.150000X0.725000X-0.150000X0.725000X0.150000X-0.725000X0.150000X0*%
%ADD13RoundRect,0.150000X-0.825000X-0.150000X0.825000X-0.150000X0.825000X0.150000X-0.825000X0.150000X0*%
%ADD14RoundRect,0.250000X0.450000X-0.350000X0.450000X0.350000X-0.450000X0.350000X-0.450000X-0.350000X0*%
%ADD15R,1.150000X0.600000*%
%ADD16R,1.150000X0.300000*%
%ADD17RoundRect,0.250000X-0.450000X0.350000X-0.450000X-0.350000X0.450000X-0.350000X0.450000X0.350000X0*%
%ADD18RoundRect,0.150000X0.150000X-0.725000X0.150000X0.725000X-0.150000X0.725000X-0.150000X-0.725000X0*%
%ADD19RoundRect,0.150000X0.150000X-0.825000X0.150000X0.825000X-0.150000X0.825000X-0.150000X-0.825000X0*%
%ADD20RoundRect,0.250000X-0.337500X-0.475000X0.337500X-0.475000X0.337500X0.475000X-0.337500X0.475000X0*%
%ADD21R,1.200000X0.400000*%
%ADD22RoundRect,0.250000X-0.450000X0.325000X-0.450000X-0.325000X0.450000X-0.325000X0.450000X0.325000X0*%
G04 APERTURE END LIST*
D10*
X61595000Y-70104000D03*
X61595000Y-72179000D03*
X70993000Y-80348000D03*
X70993000Y-82423000D03*
X101854000Y-29950500D03*
X101854000Y-32025500D03*
D11*
X87922000Y-50208001D03*
X87922000Y-48133001D03*
D12*
X34763000Y-28956000D03*
X34763000Y-30226000D03*
X34763000Y-31496000D03*
X34763000Y-32766000D03*
X34763000Y-34036000D03*
X34763000Y-35306000D03*
X34763000Y-36576000D03*
X34763000Y-37846000D03*
X39913000Y-37846000D03*
X39913000Y-36576000D03*
X39913000Y-35306000D03*
X39913000Y-34036000D03*
X39913000Y-32766000D03*
X39913000Y-31496000D03*
X39913000Y-30226000D03*
X39913000Y-28956000D03*
D10*
X31242000Y-26648500D03*
X31242000Y-28723500D03*
D13*
X68645000Y-55880000D03*
X68645000Y-57150000D03*
X68645000Y-58420000D03*
X68645000Y-59690000D03*
X68645000Y-60960000D03*
X68645000Y-62230000D03*
X68645000Y-63500000D03*
X73595000Y-63500000D03*
X73595000Y-62230000D03*
X73595000Y-60960000D03*
X73595000Y-59690000D03*
X73595000Y-58420000D03*
X73595000Y-57150000D03*
X73595000Y-55880000D03*
D10*
X42672000Y-40851000D03*
X42672000Y-42926000D03*
D13*
X88965000Y-55880000D03*
X88965000Y-57150000D03*
X88965000Y-58420000D03*
X88965000Y-59690000D03*
X88965000Y-60960000D03*
X88965000Y-62230000D03*
X88965000Y-63500000D03*
X93915000Y-63500000D03*
X93915000Y-62230000D03*
X93915000Y-60960000D03*
X93915000Y-59690000D03*
X93915000Y-58420000D03*
X93915000Y-57150000D03*
X93915000Y-55880000D03*
D14*
X103759000Y-82391000D03*
X103759000Y-80391000D03*
D10*
X98552000Y-80348000D03*
X98552000Y-82423000D03*
D15*
X119589500Y-41173000D03*
X119589500Y-40373000D03*
D16*
X119589500Y-39223000D03*
X119589500Y-38223000D03*
X119589500Y-37723000D03*
X119589500Y-36723000D03*
D15*
X119589500Y-34773000D03*
X119589500Y-35573000D03*
D16*
X119589500Y-36223000D03*
X119589500Y-37223000D03*
X119589500Y-38723000D03*
X119589500Y-39723000D03*
D11*
X112522000Y-31771500D03*
X112522000Y-29696500D03*
D17*
X67691000Y-80391000D03*
X67691000Y-82391000D03*
D18*
X64135000Y-73695000D03*
X65405000Y-73695000D03*
X66675000Y-73695000D03*
X67945000Y-73695000D03*
X69215000Y-73695000D03*
X70485000Y-73695000D03*
X71755000Y-73695000D03*
X73025000Y-73695000D03*
X73025000Y-68545000D03*
X71755000Y-68545000D03*
X70485000Y-68545000D03*
X69215000Y-68545000D03*
X67945000Y-68545000D03*
X66675000Y-68545000D03*
X65405000Y-68545000D03*
X64135000Y-68545000D03*
D14*
X59671501Y-39465000D03*
X59671501Y-37465000D03*
D12*
X34763000Y-64389000D03*
X34763000Y-65659000D03*
X34763000Y-66929000D03*
X34763000Y-68199000D03*
X34763000Y-69469000D03*
X34763000Y-70739000D03*
X34763000Y-72009000D03*
X34763000Y-73279000D03*
X39913000Y-73279000D03*
X39913000Y-72009000D03*
X39913000Y-70739000D03*
X39913000Y-69469000D03*
X39913000Y-68199000D03*
X39913000Y-66929000D03*
X39913000Y-65659000D03*
X39913000Y-64389000D03*
D11*
X84912000Y-50208001D03*
X84912000Y-48133001D03*
D13*
X99125000Y-55880000D03*
X99125000Y-57150000D03*
X99125000Y-58420000D03*
X99125000Y-59690000D03*
X99125000Y-60960000D03*
X99125000Y-62230000D03*
X99125000Y-63500000D03*
X104075000Y-63500000D03*
X104075000Y-62230000D03*
X104075000Y-60960000D03*
X104075000Y-59690000D03*
X104075000Y-58420000D03*
X104075000Y-57150000D03*
X104075000Y-55880000D03*
D17*
X122555000Y-80280000D03*
X122555000Y-82280000D03*
D12*
X34763000Y-52578000D03*
X34763000Y-53848000D03*
X34763000Y-55118000D03*
X34763000Y-56388000D03*
X34763000Y-57658000D03*
X34763000Y-58928000D03*
X34763000Y-60198000D03*
X34763000Y-61468000D03*
X39913000Y-61468000D03*
X39913000Y-60198000D03*
X39913000Y-58928000D03*
X39913000Y-57658000D03*
X39913000Y-56388000D03*
X39913000Y-55118000D03*
X39913000Y-53848000D03*
X39913000Y-52578000D03*
D14*
X116967000Y-35941000D03*
X116967000Y-33941000D03*
D17*
X109093000Y-80423000D03*
X109093000Y-82423000D03*
D12*
X34763000Y-76200000D03*
X34763000Y-77470000D03*
X34763000Y-78740000D03*
X34763000Y-80010000D03*
X34763000Y-81280000D03*
X34763000Y-82550000D03*
X34763000Y-83820000D03*
X34763000Y-85090000D03*
X39913000Y-85090000D03*
X39913000Y-83820000D03*
X39913000Y-82550000D03*
X39913000Y-81280000D03*
X39913000Y-80010000D03*
X39913000Y-78740000D03*
X39913000Y-77470000D03*
X39913000Y-76200000D03*
D14*
X117602000Y-82391000D03*
X117602000Y-80391000D03*
D13*
X48325000Y-55880000D03*
X48325000Y-57150000D03*
X48325000Y-58420000D03*
X48325000Y-59690000D03*
X48325000Y-60960000D03*
X48325000Y-62230000D03*
X48325000Y-63500000D03*
X53275000Y-63500000D03*
X53275000Y-62230000D03*
X53275000Y-60960000D03*
X53275000Y-59690000D03*
X53275000Y-58420000D03*
X53275000Y-57150000D03*
X53275000Y-55880000D03*
D19*
X57150000Y-50735000D03*
X58420000Y-50735000D03*
X59690000Y-50735000D03*
X60960000Y-50735000D03*
X62230000Y-50735000D03*
X63500000Y-50735000D03*
X64770000Y-50735000D03*
X64770000Y-45785000D03*
X63500000Y-45785000D03*
X62230000Y-45785000D03*
X60960000Y-45785000D03*
X59690000Y-45785000D03*
X58420000Y-45785000D03*
X57150000Y-45785000D03*
D14*
X62484000Y-82391000D03*
X62484000Y-80391000D03*
D12*
X34763000Y-88011000D03*
X34763000Y-89281000D03*
X34763000Y-90551000D03*
X34763000Y-91821000D03*
X34763000Y-93091000D03*
X34763000Y-94361000D03*
X34763000Y-95631000D03*
X34763000Y-96901000D03*
X39913000Y-96901000D03*
X39913000Y-95631000D03*
X39913000Y-94361000D03*
X39913000Y-93091000D03*
X39913000Y-91821000D03*
X39913000Y-90551000D03*
X39913000Y-89281000D03*
X39913000Y-88011000D03*
D10*
X57150000Y-80348000D03*
X57150000Y-82423000D03*
D12*
X34763000Y-40767000D03*
X34763000Y-42037000D03*
X34763000Y-43307000D03*
X34763000Y-44577000D03*
X34763000Y-45847000D03*
X34763000Y-47117000D03*
X34763000Y-48387000D03*
X34763000Y-49657000D03*
X39913000Y-49657000D03*
X39913000Y-48387000D03*
X39913000Y-47117000D03*
X39913000Y-45847000D03*
X39913000Y-44577000D03*
X39913000Y-43307000D03*
X39913000Y-42037000D03*
X39913000Y-40767000D03*
D10*
X44196000Y-80348000D03*
X44196000Y-82423000D03*
X112395000Y-80348000D03*
X112395000Y-82423000D03*
D20*
X28553500Y-97917000D03*
X30628500Y-97917000D03*
D17*
X81661000Y-80423000D03*
X81661000Y-82423000D03*
D18*
X45085000Y-44485000D03*
X46355000Y-44485000D03*
X47625000Y-44485000D03*
X48895000Y-44485000D03*
X50165000Y-44485000D03*
X51435000Y-44485000D03*
X52705000Y-44485000D03*
X53975000Y-44485000D03*
X53975000Y-39335000D03*
X52705000Y-39335000D03*
X51435000Y-39335000D03*
X50165000Y-39335000D03*
X48895000Y-39335000D03*
X47625000Y-39335000D03*
X46355000Y-39335000D03*
X45085000Y-39335000D03*
D17*
X28956000Y-26686000D03*
X28956000Y-28686000D03*
D14*
X48641000Y-82391000D03*
X48641000Y-80391000D03*
D11*
X90932000Y-50208000D03*
X90932000Y-48133000D03*
D17*
X53848000Y-80407000D03*
X53848000Y-82407000D03*
X112522000Y-33925000D03*
X112522000Y-35925000D03*
D13*
X108015000Y-55880000D03*
X108015000Y-57150000D03*
X108015000Y-58420000D03*
X108015000Y-59690000D03*
X108015000Y-60960000D03*
X108015000Y-62230000D03*
X108015000Y-63500000D03*
X112965000Y-63500000D03*
X112965000Y-62230000D03*
X112965000Y-60960000D03*
X112965000Y-59690000D03*
X112965000Y-58420000D03*
X112965000Y-57150000D03*
X112965000Y-55880000D03*
D19*
X109220000Y-73657000D03*
X110490000Y-73657000D03*
X111760000Y-73657000D03*
X113030000Y-73657000D03*
X114300000Y-73657000D03*
X115570000Y-73657000D03*
X116840000Y-73657000D03*
X116840000Y-68707000D03*
X115570000Y-68707000D03*
X114300000Y-68707000D03*
X113030000Y-68707000D03*
X111760000Y-68707000D03*
X110490000Y-68707000D03*
X109220000Y-68707000D03*
D11*
X114681000Y-35962500D03*
X114681000Y-33887500D03*
D14*
X116967000Y-41259000D03*
X116967000Y-39259000D03*
D11*
X93942000Y-50208001D03*
X93942000Y-48133001D03*
D21*
X104080000Y-28892500D03*
X104080000Y-29527500D03*
X104080000Y-30162500D03*
X104080000Y-30797500D03*
X104080000Y-31432500D03*
X104080000Y-32067500D03*
X104080000Y-32702500D03*
X104080000Y-33337500D03*
X104080000Y-33972500D03*
X104080000Y-34607500D03*
X109280000Y-34607500D03*
X109280000Y-33972500D03*
X109280000Y-33337500D03*
X109280000Y-32702500D03*
X109280000Y-32067500D03*
X109280000Y-31432500D03*
X109280000Y-30797500D03*
X109280000Y-30162500D03*
X109280000Y-29527500D03*
X109280000Y-28892500D03*
D17*
X95504000Y-80423000D03*
X95504000Y-82423000D03*
D14*
X112649000Y-41259000D03*
X112649000Y-39259000D03*
D13*
X58485000Y-55880000D03*
X58485000Y-57150000D03*
X58485000Y-58420000D03*
X58485000Y-59690000D03*
X58485000Y-60960000D03*
X58485000Y-62230000D03*
X58485000Y-63500000D03*
X63435000Y-63500000D03*
X63435000Y-62230000D03*
X63435000Y-60960000D03*
X63435000Y-59690000D03*
X63435000Y-58420000D03*
X63435000Y-57150000D03*
X63435000Y-55880000D03*
D22*
X26797000Y-26661000D03*
X26797000Y-28711000D03*
D10*
X62211499Y-32982500D03*
X62211499Y-35057500D03*
D13*
X78805000Y-55880000D03*
X78805000Y-57150000D03*
X78805000Y-58420000D03*
X78805000Y-59690000D03*
X78805000Y-60960000D03*
X78805000Y-62230000D03*
X78805000Y-63500000D03*
X83755000Y-63500000D03*
X83755000Y-62230000D03*
X83755000Y-60960000D03*
X83755000Y-59690000D03*
X83755000Y-58420000D03*
X83755000Y-57150000D03*
X83755000Y-55880000D03*
D10*
X114808000Y-39221500D03*
X114808000Y-41296500D03*
X84709000Y-80348000D03*
X84709000Y-82423000D03*
D14*
X76200000Y-82391000D03*
X76200000Y-80391000D03*
X59671499Y-35020000D03*
X59671499Y-33020000D03*
D11*
X62211497Y-39502502D03*
X62211497Y-37427502D03*
D14*
X90043000Y-82391000D03*
X90043000Y-80391000D03*
M02*
