G04 #@! TF.GenerationSoftware,KiCad,Pcbnew,7.0.7*
G04 #@! TF.CreationDate,2024-01-02T15:09:44+01:00*
G04 #@! TF.ProjectId,ControlPanel,436f6e74-726f-46c5-9061-6e656c2e6b69,rev?*
G04 #@! TF.SameCoordinates,Original*
G04 #@! TF.FileFunction,Soldermask,Bot*
G04 #@! TF.FilePolarity,Negative*
%FSLAX46Y46*%
G04 Gerber Fmt 4.6, Leading zero omitted, Abs format (unit mm)*
G04 Created by KiCad (PCBNEW 7.0.7) date 2024-01-02 15:09:44*
%MOMM*%
%LPD*%
G01*
G04 APERTURE LIST*
G04 Aperture macros list*
%AMRoundRect*
0 Rectangle with rounded corners*
0 $1 Rounding radius*
0 $2 $3 $4 $5 $6 $7 $8 $9 X,Y pos of 4 corners*
0 Add a 4 corners polygon primitive as box body*
4,1,4,$2,$3,$4,$5,$6,$7,$8,$9,$2,$3,0*
0 Add four circle primitives for the rounded corners*
1,1,$1+$1,$2,$3*
1,1,$1+$1,$4,$5*
1,1,$1+$1,$6,$7*
1,1,$1+$1,$8,$9*
0 Add four rect primitives between the rounded corners*
20,1,$1+$1,$2,$3,$4,$5,0*
20,1,$1+$1,$4,$5,$6,$7,0*
20,1,$1+$1,$6,$7,$8,$9,0*
20,1,$1+$1,$8,$9,$2,$3,0*%
G04 Aperture macros list end*
%ADD10C,0.812000*%
%ADD11C,1.500000*%
%ADD12O,1.850000X3.048000*%
%ADD13C,2.200000*%
%ADD14C,0.650000*%
%ADD15O,2.304000X1.204000*%
%ADD16RoundRect,0.352000X0.650000X-0.250000X0.650000X0.250000X-0.650000X0.250000X-0.650000X-0.250000X0*%
%ADD17R,1.700000X1.700000*%
%ADD18O,1.700000X1.700000*%
%ADD19RoundRect,0.250000X0.337500X0.475000X-0.337500X0.475000X-0.337500X-0.475000X0.337500X-0.475000X0*%
G04 APERTURE END LIST*
D10*
X94386000Y-34290000D02*
G75*
G03*
X94386000Y-34290000I-406000J0D01*
G01*
X99466000Y-31750000D02*
G75*
G03*
X99466000Y-31750000I-406000J0D01*
G01*
X91846000Y-34290000D02*
G75*
G03*
X91846000Y-34290000I-406000J0D01*
G01*
X89306000Y-34290000D02*
G75*
G03*
X89306000Y-34290000I-406000J0D01*
G01*
X94386000Y-31750000D02*
G75*
G03*
X94386000Y-31750000I-406000J0D01*
G01*
X96926000Y-34290000D02*
G75*
G03*
X96926000Y-34290000I-406000J0D01*
G01*
X91846000Y-31750000D02*
G75*
G03*
X91846000Y-31750000I-406000J0D01*
G01*
X99466000Y-34290000D02*
G75*
G03*
X99466000Y-34290000I-406000J0D01*
G01*
X96926000Y-31750000D02*
G75*
G03*
X96926000Y-31750000I-406000J0D01*
G01*
X86766000Y-34290000D02*
G75*
G03*
X86766000Y-34290000I-406000J0D01*
G01*
X89306000Y-31750000D02*
G75*
G03*
X89306000Y-31750000I-406000J0D01*
G01*
D11*
X77470000Y-33655000D03*
X77470000Y-38535000D03*
D12*
X101298000Y-96066000D03*
X101298000Y-83566000D03*
X106298000Y-96066000D03*
X106298000Y-83566000D03*
D13*
X124460000Y-27940000D03*
D14*
X120664500Y-40863000D03*
X120664500Y-35083000D03*
D15*
X120164500Y-42293000D03*
X120164500Y-33653000D03*
D16*
X124344500Y-42293000D03*
X124344500Y-33653000D03*
D12*
X115098000Y-96066000D03*
X115098000Y-83566000D03*
X120098000Y-96066000D03*
X120098000Y-83566000D03*
X46098000Y-96066000D03*
X46098000Y-83566000D03*
X51098000Y-96066000D03*
X51098000Y-83566000D03*
D13*
X124460000Y-99060000D03*
D12*
X87498000Y-96066000D03*
X87498000Y-83566000D03*
X92498000Y-96066000D03*
X92498000Y-83566000D03*
X59898000Y-96066000D03*
X59898000Y-83566000D03*
X64898000Y-96066000D03*
X64898000Y-83566000D03*
D11*
X71119998Y-33655000D03*
X71119998Y-38535000D03*
D17*
X45720000Y-35560000D03*
D18*
X45720000Y-33020000D03*
X48260000Y-35560000D03*
X48260000Y-33020000D03*
X50800000Y-35560000D03*
X50800000Y-33020000D03*
X53340000Y-35560000D03*
X53340000Y-33020000D03*
X55880000Y-35560000D03*
X55880000Y-33020000D03*
D17*
X65786000Y-33655000D03*
D18*
X65786000Y-36195000D03*
X65786000Y-38735000D03*
D12*
X73698000Y-96066000D03*
X73698000Y-83566000D03*
X78698000Y-96066000D03*
X78698000Y-83566000D03*
D19*
X36195000Y-91567000D03*
X34120000Y-91567000D03*
X36216500Y-45847000D03*
X34141500Y-45847000D03*
X36216500Y-56642000D03*
X34141500Y-56642000D03*
X36216500Y-80391000D03*
X34141500Y-80391000D03*
X36216500Y-68580000D03*
X34141500Y-68580000D03*
D17*
X123190000Y-52070000D03*
D18*
X123190000Y-54610000D03*
X123190000Y-57150000D03*
X123190000Y-59690000D03*
X123190000Y-62230000D03*
X123190000Y-64770000D03*
X123190000Y-67310000D03*
X123190000Y-69850000D03*
X123190000Y-72390000D03*
X123190000Y-74930000D03*
D19*
X36343500Y-33655000D03*
X34268500Y-33655000D03*
D17*
X29845000Y-33020000D03*
X27305000Y-33020000D03*
X29845000Y-35560000D03*
X27305000Y-35560000D03*
X29845000Y-38100000D03*
X27305000Y-38100000D03*
X29845000Y-40640000D03*
X27305000Y-40640000D03*
X29845000Y-43180000D03*
X27305000Y-43180000D03*
X29845000Y-45720000D03*
X27305000Y-45720000D03*
X29845000Y-48260000D03*
X27305000Y-48260000D03*
X29845000Y-50800000D03*
X27305000Y-50800000D03*
X29845000Y-53340000D03*
X27305000Y-53340000D03*
X29845000Y-55880000D03*
X27305000Y-55880000D03*
X29845000Y-58420000D03*
X27305000Y-58420000D03*
X29845000Y-60960000D03*
X27305000Y-60960000D03*
X29845000Y-63500000D03*
X27305000Y-63500000D03*
X29845000Y-66040000D03*
X27305000Y-66040000D03*
X29845000Y-68580000D03*
X27305000Y-68580000D03*
X29845000Y-71120000D03*
X27305000Y-71120000D03*
X29845000Y-73660000D03*
X27305000Y-73660000D03*
X29845000Y-76200000D03*
X27305000Y-76200000D03*
X29845000Y-78740000D03*
X27305000Y-78740000D03*
X29845000Y-81280000D03*
X27305000Y-81280000D03*
X29845000Y-83820000D03*
X27305000Y-83820000D03*
X29845000Y-86360000D03*
X27305000Y-86360000D03*
X29845000Y-88900000D03*
X27305000Y-88900000D03*
X29845000Y-91440000D03*
X27305000Y-91440000D03*
X29845000Y-93980000D03*
X27305000Y-93980000D03*
M02*
