G04 #@! TF.GenerationSoftware,KiCad,Pcbnew,7.0.10*
G04 #@! TF.CreationDate,2024-01-05T09:54:04+01:00*
G04 #@! TF.ProjectId,MopSequencer,4d6f7053-6571-4756-956e-6365722e6b69,rev?*
G04 #@! TF.SameCoordinates,Original*
G04 #@! TF.FileFunction,Soldermask,Top*
G04 #@! TF.FilePolarity,Negative*
%FSLAX46Y46*%
G04 Gerber Fmt 4.6, Leading zero omitted, Abs format (unit mm)*
G04 Created by KiCad (PCBNEW 7.0.10) date 2024-01-05 09:54:04*
%MOMM*%
%LPD*%
G01*
G04 APERTURE LIST*
G04 Aperture macros list*
%AMRoundRect*
0 Rectangle with rounded corners*
0 $1 Rounding radius*
0 $2 $3 $4 $5 $6 $7 $8 $9 X,Y pos of 4 corners*
0 Add a 4 corners polygon primitive as box body*
4,1,4,$2,$3,$4,$5,$6,$7,$8,$9,$2,$3,0*
0 Add four circle primitives for the rounded corners*
1,1,$1+$1,$2,$3*
1,1,$1+$1,$4,$5*
1,1,$1+$1,$6,$7*
1,1,$1+$1,$8,$9*
0 Add four rect primitives between the rounded corners*
20,1,$1+$1,$2,$3,$4,$5,0*
20,1,$1+$1,$4,$5,$6,$7,0*
20,1,$1+$1,$6,$7,$8,$9,0*
20,1,$1+$1,$8,$9,$2,$3,0*%
%AMFreePoly0*
4,1,19,0.500000,-0.750000,0.000000,-0.750000,0.000000,-0.744911,-0.071157,-0.744911,-0.207708,-0.704816,-0.327430,-0.627875,-0.420627,-0.520320,-0.479746,-0.390866,-0.500000,-0.250000,-0.500000,0.250000,-0.479746,0.390866,-0.420627,0.520320,-0.327430,0.627875,-0.207708,0.704816,-0.071157,0.744911,0.000000,0.744911,0.000000,0.750000,0.500000,0.750000,0.500000,-0.750000,0.500000,-0.750000,
$1*%
%AMFreePoly1*
4,1,19,0.000000,0.744911,0.071157,0.744911,0.207708,0.704816,0.327430,0.627875,0.420627,0.520320,0.479746,0.390866,0.500000,0.250000,0.500000,-0.250000,0.479746,-0.390866,0.420627,-0.520320,0.327430,-0.627875,0.207708,-0.704816,0.071157,-0.744911,0.000000,-0.744911,0.000000,-0.750000,-0.500000,-0.750000,-0.500000,0.750000,0.000000,0.750000,0.000000,0.744911,0.000000,0.744911,
$1*%
G04 Aperture macros list end*
%ADD10C,0.950000*%
%ADD11C,0.304800*%
%ADD12RoundRect,0.250000X0.412500X0.650000X-0.412500X0.650000X-0.412500X-0.650000X0.412500X-0.650000X0*%
%ADD13R,1.500000X1.800000*%
%ADD14R,1.500000X1.500000*%
%ADD15RoundRect,0.150000X0.150000X-0.825000X0.150000X0.825000X-0.150000X0.825000X-0.150000X-0.825000X0*%
%ADD16FreePoly0,270.000000*%
%ADD17FreePoly1,270.000000*%
%ADD18RoundRect,0.250000X0.325000X0.450000X-0.325000X0.450000X-0.325000X-0.450000X0.325000X-0.450000X0*%
%ADD19RoundRect,0.250000X-0.325000X-0.450000X0.325000X-0.450000X0.325000X0.450000X-0.325000X0.450000X0*%
%ADD20R,1.800000X1.500000*%
%ADD21C,2.200000*%
%ADD22RoundRect,0.250000X0.450000X-0.350000X0.450000X0.350000X-0.450000X0.350000X-0.450000X-0.350000X0*%
%ADD23RoundRect,0.250000X-0.450000X0.350000X-0.450000X-0.350000X0.450000X-0.350000X0.450000X0.350000X0*%
%ADD24RoundRect,0.250000X-0.450000X0.325000X-0.450000X-0.325000X0.450000X-0.325000X0.450000X0.325000X0*%
%ADD25RoundRect,0.150000X0.150000X-0.875000X0.150000X0.875000X-0.150000X0.875000X-0.150000X-0.875000X0*%
%ADD26RoundRect,0.250000X-0.475000X0.337500X-0.475000X-0.337500X0.475000X-0.337500X0.475000X0.337500X0*%
%ADD27R,1.800000X1.800000*%
%ADD28RoundRect,0.137500X0.137500X-0.662500X0.137500X0.662500X-0.137500X0.662500X-0.137500X-0.662500X0*%
%ADD29R,1.700000X1.700000*%
%ADD30R,1.800000X1.700000*%
G04 APERTURE END LIST*
D10*
X107155000Y-87641000D02*
G75*
G03*
X106205000Y-87641000I-475000J0D01*
G01*
X106205000Y-87641000D02*
G75*
G03*
X107155000Y-87641000I475000J0D01*
G01*
D11*
X103479600Y-55270400D02*
X117576600Y-55270400D01*
D10*
X107155000Y-90308000D02*
G75*
G03*
X106205000Y-90308000I-475000J0D01*
G01*
X106205000Y-90308000D02*
G75*
G03*
X107155000Y-90308000I475000J0D01*
G01*
X101429000Y-53340000D02*
G75*
G03*
X100479000Y-53340000I-475000J0D01*
G01*
X100479000Y-53340000D02*
G75*
G03*
X101429000Y-53340000I475000J0D01*
G01*
X119082000Y-67564000D02*
G75*
G03*
X118132000Y-67564000I-475000J0D01*
G01*
X118132000Y-67564000D02*
G75*
G03*
X119082000Y-67564000I475000J0D01*
G01*
X116553000Y-66675000D02*
G75*
G03*
X115603000Y-66675000I-475000J0D01*
G01*
X115603000Y-66675000D02*
G75*
G03*
X116553000Y-66675000I475000J0D01*
G01*
X107144000Y-77724000D02*
G75*
G03*
X106194000Y-77724000I-475000J0D01*
G01*
X106194000Y-77724000D02*
G75*
G03*
X107144000Y-77724000I475000J0D01*
G01*
X107144000Y-75311000D02*
G75*
G03*
X106194000Y-75311000I-475000J0D01*
G01*
X106194000Y-75311000D02*
G75*
G03*
X107144000Y-75311000I475000J0D01*
G01*
X119209000Y-50800000D02*
G75*
G03*
X118259000Y-50800000I-475000J0D01*
G01*
X118259000Y-50800000D02*
G75*
G03*
X119209000Y-50800000I475000J0D01*
G01*
X107144000Y-72771000D02*
G75*
G03*
X106194000Y-72771000I-475000J0D01*
G01*
X106194000Y-72771000D02*
G75*
G03*
X107144000Y-72771000I475000J0D01*
G01*
D12*
X122974500Y-96647000D03*
X119849500Y-96647000D03*
D13*
X68834000Y-67376800D03*
X49276000Y-81346800D03*
X51308000Y-71154800D03*
X66802000Y-95316800D03*
X76200000Y-85124800D03*
X93726000Y-67376800D03*
X99822000Y-57150000D03*
X74168000Y-95316800D03*
D14*
X103505000Y-34290000D03*
X105505000Y-34290000D03*
X107505000Y-34290000D03*
X109505000Y-34290000D03*
X111505000Y-34290000D03*
X113505000Y-34290000D03*
X115505000Y-34290000D03*
X117505000Y-34290000D03*
D15*
X88900000Y-92645000D03*
X90170000Y-92645000D03*
X91440000Y-92645000D03*
X92710000Y-92645000D03*
X93980000Y-92645000D03*
X95250000Y-92645000D03*
X96520000Y-92645000D03*
X97790000Y-92645000D03*
X97790000Y-87695000D03*
X96520000Y-87695000D03*
X95250000Y-87695000D03*
X93980000Y-87695000D03*
X92710000Y-87695000D03*
X91440000Y-87695000D03*
X90170000Y-87695000D03*
X88900000Y-87695000D03*
D13*
X97790000Y-39436800D03*
X87630000Y-67376800D03*
X97790000Y-67376800D03*
X87630000Y-67376800D03*
X80264000Y-39436800D03*
X87680800Y-53390800D03*
X53340000Y-85124800D03*
D16*
X109582855Y-54605400D03*
D17*
X109582855Y-55905400D03*
D13*
X60706000Y-29244800D03*
D18*
X118500000Y-90170000D03*
X116450000Y-90170000D03*
D19*
X30471000Y-48260000D03*
X32521000Y-48260000D03*
D13*
X55372000Y-57184800D03*
X93726000Y-85124800D03*
X89662000Y-85124800D03*
X99822000Y-71120000D03*
X95758000Y-43214800D03*
D20*
X59055001Y-35340800D03*
X59055001Y-33340800D03*
D13*
X80264000Y-53406800D03*
D20*
X45593001Y-91220800D03*
X45593001Y-89220800D03*
D13*
X84328000Y-95316800D03*
D19*
X30471000Y-40640000D03*
X32521000Y-40640000D03*
D13*
X97790000Y-95316800D03*
X70866000Y-57184800D03*
X91694000Y-81346800D03*
X66802000Y-67376800D03*
X78232000Y-29244800D03*
D20*
X72516999Y-63280800D03*
X72516999Y-61280800D03*
D16*
X105954285Y-54605400D03*
D17*
X105954285Y-55905400D03*
D20*
X59055001Y-91220800D03*
X59055001Y-89220800D03*
D13*
X47244000Y-43214800D03*
X84328000Y-67376800D03*
X66802000Y-81346800D03*
X93726000Y-81346800D03*
D19*
X30471000Y-78740000D03*
X32521000Y-78740000D03*
D13*
X78232000Y-95316800D03*
D20*
X100177600Y-91204800D03*
X100177600Y-89204800D03*
D14*
X103505000Y-38100000D03*
X105505000Y-38100000D03*
X107505000Y-38100000D03*
X109505000Y-38100000D03*
X111505000Y-38100000D03*
X113505000Y-38100000D03*
X115505000Y-38100000D03*
X117505000Y-38100000D03*
D13*
X57404000Y-85124800D03*
X97790000Y-81346800D03*
X51308000Y-57184800D03*
D21*
X26670000Y-97790000D03*
D13*
X74168000Y-85124800D03*
X76200000Y-29244800D03*
D20*
X72516999Y-77250800D03*
X72516999Y-75250800D03*
D13*
X97790000Y-81346800D03*
X64770000Y-39436800D03*
X74168000Y-43214800D03*
X99822000Y-85090000D03*
X55372000Y-81346800D03*
X80264000Y-71154800D03*
X76200000Y-43214800D03*
D21*
X26670000Y-26670000D03*
D15*
X75438000Y-64739800D03*
X76708000Y-64739800D03*
X77978000Y-64739800D03*
X79248000Y-64739800D03*
X80518000Y-64739800D03*
X81788000Y-64739800D03*
X83058000Y-64739800D03*
X83058000Y-59789800D03*
X81788000Y-59789800D03*
X80518000Y-59789800D03*
X79248000Y-59789800D03*
X77978000Y-59789800D03*
X76708000Y-59789800D03*
X75438000Y-59789800D03*
D13*
X78232000Y-39436800D03*
D22*
X118745000Y-64738000D03*
X118745000Y-62738000D03*
D13*
X76200000Y-71154800D03*
X89662000Y-67376800D03*
X91694000Y-57184800D03*
X87630000Y-81346800D03*
X62738000Y-57184800D03*
D15*
X61976000Y-36799800D03*
X63246000Y-36799800D03*
X64516000Y-36799800D03*
X65786000Y-36799800D03*
X67056000Y-36799800D03*
X68326000Y-36799800D03*
X69596000Y-36799800D03*
X69596000Y-31849800D03*
X68326000Y-31849800D03*
X67056000Y-31849800D03*
X65786000Y-31849800D03*
X64516000Y-31849800D03*
X63246000Y-31849800D03*
X61976000Y-31849800D03*
D13*
X51308000Y-53406800D03*
X60706000Y-95316800D03*
X70866000Y-43214800D03*
X51308000Y-81346800D03*
D15*
X48514000Y-64739800D03*
X49784000Y-64739800D03*
X51054000Y-64739800D03*
X52324000Y-64739800D03*
X53594000Y-64739800D03*
X54864000Y-64739800D03*
X56134000Y-64739800D03*
X56134000Y-59789800D03*
X54864000Y-59789800D03*
X53594000Y-59789800D03*
X52324000Y-59789800D03*
X51054000Y-59789800D03*
X49784000Y-59789800D03*
X48514000Y-59789800D03*
X61976000Y-50769800D03*
X63246000Y-50769800D03*
X64516000Y-50769800D03*
X65786000Y-50769800D03*
X67056000Y-50769800D03*
X68326000Y-50769800D03*
X69596000Y-50769800D03*
X69596000Y-45819800D03*
X68326000Y-45819800D03*
X67056000Y-45819800D03*
X65786000Y-45819800D03*
X64516000Y-45819800D03*
X63246000Y-45819800D03*
X61976000Y-45819800D03*
D13*
X68834000Y-85124800D03*
D20*
X72517001Y-91220800D03*
X72517001Y-89220800D03*
D13*
X60706000Y-85124800D03*
X60706000Y-53406800D03*
X62738000Y-81346800D03*
X91694000Y-53406800D03*
D23*
X116205000Y-62754000D03*
X116205000Y-64754000D03*
D13*
X93726000Y-85124800D03*
X95758000Y-81346800D03*
D20*
X59055001Y-63280800D03*
X59055001Y-61280800D03*
D13*
X66802000Y-43214800D03*
D20*
X72516999Y-49310800D03*
X72516999Y-47310800D03*
D15*
X88900000Y-36799800D03*
X90170000Y-36799800D03*
X91440000Y-36799800D03*
X92710000Y-36799800D03*
X93980000Y-36799800D03*
X95250000Y-36799800D03*
X96520000Y-36799800D03*
X96520000Y-31849800D03*
X95250000Y-31849800D03*
X93980000Y-31849800D03*
X92710000Y-31849800D03*
X91440000Y-31849800D03*
X90170000Y-31849800D03*
X88900000Y-31849800D03*
D20*
X85979001Y-63280800D03*
X85979001Y-61280800D03*
X59055001Y-49310800D03*
X59055001Y-47310800D03*
D15*
X48514000Y-92679800D03*
X49784000Y-92679800D03*
X51054000Y-92679800D03*
X52324000Y-92679800D03*
X53594000Y-92679800D03*
X54864000Y-92679800D03*
X56134000Y-92679800D03*
X56134000Y-87729800D03*
X54864000Y-87729800D03*
X53594000Y-87729800D03*
X52324000Y-87729800D03*
X51054000Y-87729800D03*
X49784000Y-87729800D03*
X48514000Y-87729800D03*
D19*
X30471000Y-38100000D03*
X32521000Y-38100000D03*
D13*
X57404000Y-95316800D03*
D15*
X75438000Y-92679800D03*
X76708000Y-92679800D03*
X77978000Y-92679800D03*
X79248000Y-92679800D03*
X80518000Y-92679800D03*
X81788000Y-92679800D03*
X83058000Y-92679800D03*
X83058000Y-87729800D03*
X81788000Y-87729800D03*
X80518000Y-87729800D03*
X79248000Y-87729800D03*
X77978000Y-87729800D03*
X76708000Y-87729800D03*
X75438000Y-87729800D03*
D19*
X30471000Y-53340000D03*
X32521000Y-53340000D03*
D13*
X62738000Y-39436800D03*
D23*
X122301000Y-25162000D03*
X122301000Y-27162000D03*
D13*
X49276000Y-39436800D03*
D20*
X99440999Y-35340800D03*
X99440999Y-33340800D03*
D13*
X99771200Y-95300800D03*
X62738000Y-53406800D03*
X89662000Y-71154800D03*
X80264000Y-57184800D03*
X95758000Y-85124800D03*
X97790000Y-95316800D03*
X64770000Y-71154800D03*
D20*
X85979001Y-77250800D03*
X85979001Y-75250800D03*
D13*
X51308000Y-43214800D03*
D16*
X115025710Y-54605400D03*
D17*
X115025710Y-55905400D03*
D13*
X78232000Y-67376800D03*
X74168000Y-81346800D03*
X93726000Y-43214800D03*
X97790000Y-53406800D03*
X80264000Y-67376800D03*
X62738000Y-43214800D03*
D20*
X100177600Y-77234800D03*
X100177600Y-75234800D03*
D15*
X88900000Y-92645000D03*
X90170000Y-92645000D03*
X91440000Y-92645000D03*
X92710000Y-92645000D03*
X93980000Y-92645000D03*
X95250000Y-92645000D03*
X96520000Y-92645000D03*
X97790000Y-92645000D03*
X97790000Y-87695000D03*
X96520000Y-87695000D03*
X95250000Y-87695000D03*
X93980000Y-87695000D03*
X92710000Y-87695000D03*
X91440000Y-87695000D03*
X90170000Y-87695000D03*
X88900000Y-87695000D03*
D13*
X49276000Y-95316800D03*
X70866000Y-53406800D03*
X80264000Y-85124800D03*
X76200000Y-81346800D03*
X91694000Y-67376800D03*
D20*
X100177600Y-91204800D03*
X100177600Y-89204800D03*
D13*
X55372000Y-95316800D03*
X53340000Y-71154800D03*
X80264000Y-29244800D03*
X49276000Y-53406800D03*
X49276000Y-29244800D03*
X62738000Y-95316800D03*
X82296000Y-71154800D03*
D15*
X75438000Y-50769800D03*
X76708000Y-50769800D03*
X77978000Y-50769800D03*
X79248000Y-50769800D03*
X80518000Y-50769800D03*
X81788000Y-50769800D03*
X83058000Y-50769800D03*
X83058000Y-45819800D03*
X81788000Y-45819800D03*
X80518000Y-45819800D03*
X79248000Y-45819800D03*
X77978000Y-45819800D03*
X76708000Y-45819800D03*
X75438000Y-45819800D03*
D13*
X80264000Y-81346800D03*
D14*
X103505000Y-40005000D03*
X105505000Y-40005000D03*
X107505000Y-40005000D03*
X109505000Y-40005000D03*
X111505000Y-40005000D03*
X113505000Y-40005000D03*
X115505000Y-40005000D03*
X117505000Y-40005000D03*
X103505000Y-45720000D03*
X105505000Y-45720000D03*
X107505000Y-45720000D03*
X109505000Y-45720000D03*
X111505000Y-45720000D03*
X113505000Y-45720000D03*
X115505000Y-45720000D03*
X117505000Y-45720000D03*
D13*
X53340000Y-95316800D03*
X53340000Y-81346800D03*
X55372000Y-53406800D03*
X97790000Y-57184800D03*
X89662000Y-57184800D03*
X82296000Y-67376800D03*
X84328000Y-29244800D03*
X87630000Y-71154800D03*
X76200000Y-57184800D03*
X53340000Y-39436800D03*
X99822000Y-57150000D03*
D14*
X103505000Y-47625000D03*
X105505000Y-47625000D03*
X107505000Y-47625000D03*
X109505000Y-47625000D03*
X111505000Y-47625000D03*
X113505000Y-47625000D03*
X115505000Y-47625000D03*
X117505000Y-47625000D03*
D13*
X68834000Y-39436800D03*
X93726000Y-57184800D03*
X47244000Y-85124800D03*
D14*
X103505000Y-43815000D03*
X105505000Y-43815000D03*
X107505000Y-43815000D03*
X109505000Y-43815000D03*
X111505000Y-43815000D03*
X113505000Y-43815000D03*
X115505000Y-43815000D03*
X117505000Y-43815000D03*
D15*
X75438000Y-78709800D03*
X76708000Y-78709800D03*
X77978000Y-78709800D03*
X79248000Y-78709800D03*
X80518000Y-78709800D03*
X81788000Y-78709800D03*
X83058000Y-78709800D03*
X83058000Y-73759800D03*
X81788000Y-73759800D03*
X80518000Y-73759800D03*
X79248000Y-73759800D03*
X77978000Y-73759800D03*
X76708000Y-73759800D03*
X75438000Y-73759800D03*
D13*
X78232000Y-43214800D03*
X60706000Y-39436800D03*
D16*
X113211425Y-54605400D03*
D17*
X113211425Y-55905400D03*
D13*
X53340000Y-43214800D03*
X95758000Y-29244800D03*
X60706000Y-71154800D03*
X87630000Y-71154800D03*
X82296000Y-53406800D03*
X66802000Y-71154800D03*
D19*
X30471000Y-71120000D03*
X32521000Y-71120000D03*
X30471000Y-55880000D03*
X32521000Y-55880000D03*
D13*
X60706000Y-67376800D03*
X64770000Y-57184800D03*
X47244000Y-71154800D03*
X60706000Y-57184800D03*
X76200000Y-95316800D03*
X64770000Y-81346800D03*
X87630000Y-95316800D03*
X95758000Y-53406800D03*
D15*
X61976000Y-78709800D03*
X63246000Y-78709800D03*
X64516000Y-78709800D03*
X65786000Y-78709800D03*
X67056000Y-78709800D03*
X68326000Y-78709800D03*
X69596000Y-78709800D03*
X69596000Y-73759800D03*
X68326000Y-73759800D03*
X67056000Y-73759800D03*
X65786000Y-73759800D03*
X64516000Y-73759800D03*
X63246000Y-73759800D03*
X61976000Y-73759800D03*
D13*
X64770000Y-53406800D03*
X93726000Y-81346800D03*
X62738000Y-67376800D03*
X51308000Y-39436800D03*
X47244000Y-29244800D03*
X87630000Y-95316800D03*
X78232000Y-71154800D03*
X47244000Y-57184800D03*
X91694000Y-85124800D03*
D19*
X30471000Y-60960000D03*
X32521000Y-60960000D03*
D13*
X70866000Y-29244800D03*
D24*
X124333000Y-25137000D03*
X124333000Y-27187000D03*
D13*
X97790000Y-29244800D03*
X68834000Y-29244800D03*
X84328000Y-53406800D03*
D19*
X30471000Y-81280000D03*
X32521000Y-81280000D03*
D13*
X91694000Y-57184800D03*
X60706000Y-43214800D03*
D19*
X30471000Y-50800000D03*
X32521000Y-50800000D03*
D13*
X82296000Y-39436800D03*
D15*
X88900000Y-64705000D03*
X90170000Y-64705000D03*
X91440000Y-64705000D03*
X92710000Y-64705000D03*
X93980000Y-64705000D03*
X95250000Y-64705000D03*
X96520000Y-64705000D03*
X97790000Y-64705000D03*
X97790000Y-59755000D03*
X96520000Y-59755000D03*
X95250000Y-59755000D03*
X93980000Y-59755000D03*
X92710000Y-59755000D03*
X91440000Y-59755000D03*
X90170000Y-59755000D03*
X88900000Y-59755000D03*
D13*
X87630000Y-81346800D03*
X91694000Y-71154800D03*
X70866000Y-71154800D03*
X70866000Y-67376800D03*
X91694000Y-67376800D03*
D18*
X118500000Y-87630000D03*
X116450000Y-87630000D03*
D13*
X99771200Y-95300800D03*
D25*
X104775000Y-59895000D03*
X106045000Y-59895000D03*
X107315000Y-59895000D03*
X108585000Y-59895000D03*
X109855000Y-59895000D03*
X111125000Y-59895000D03*
X112395000Y-59895000D03*
X113665000Y-59895000D03*
X114935000Y-59895000D03*
X116205000Y-59895000D03*
X116205000Y-50595000D03*
X114935000Y-50595000D03*
X113665000Y-50595000D03*
X112395000Y-50595000D03*
X111125000Y-50595000D03*
X109855000Y-50595000D03*
X108585000Y-50595000D03*
X107315000Y-50595000D03*
X106045000Y-50595000D03*
X104775000Y-50595000D03*
D13*
X89662000Y-57184800D03*
X95758000Y-71154800D03*
D19*
X30471000Y-91440000D03*
X32521000Y-91440000D03*
D13*
X89662000Y-43214800D03*
X64770000Y-67376800D03*
D26*
X120015000Y-25124500D03*
X120015000Y-27199500D03*
D13*
X66802000Y-85124800D03*
D20*
X100177600Y-63264800D03*
X100177600Y-61264800D03*
D15*
X48514000Y-78709800D03*
X49784000Y-78709800D03*
X51054000Y-78709800D03*
X52324000Y-78709800D03*
X53594000Y-78709800D03*
X54864000Y-78709800D03*
X56134000Y-78709800D03*
X56134000Y-73759800D03*
X54864000Y-73759800D03*
X53594000Y-73759800D03*
X52324000Y-73759800D03*
X51054000Y-73759800D03*
X49784000Y-73759800D03*
X48514000Y-73759800D03*
X88900000Y-78675000D03*
X90170000Y-78675000D03*
X91440000Y-78675000D03*
X92710000Y-78675000D03*
X93980000Y-78675000D03*
X95250000Y-78675000D03*
X96520000Y-78675000D03*
X97790000Y-78675000D03*
X97790000Y-73725000D03*
X96520000Y-73725000D03*
X95250000Y-73725000D03*
X93980000Y-73725000D03*
X92710000Y-73725000D03*
X91440000Y-73725000D03*
X90170000Y-73725000D03*
X88900000Y-73725000D03*
D13*
X91694000Y-39436800D03*
D15*
X48514000Y-50769800D03*
X49784000Y-50769800D03*
X51054000Y-50769800D03*
X52324000Y-50769800D03*
X53594000Y-50769800D03*
X54864000Y-50769800D03*
X56134000Y-50769800D03*
X56134000Y-45819800D03*
X54864000Y-45819800D03*
X53594000Y-45819800D03*
X52324000Y-45819800D03*
X51054000Y-45819800D03*
X49784000Y-45819800D03*
X48514000Y-45819800D03*
D13*
X87630000Y-57184800D03*
X47244000Y-39436800D03*
X57404000Y-29244800D03*
X74168000Y-57184800D03*
D16*
X104140000Y-54605400D03*
D17*
X104140000Y-55905400D03*
D13*
X97790000Y-85124800D03*
D15*
X61976000Y-64739800D03*
X63246000Y-64739800D03*
X64516000Y-64739800D03*
X65786000Y-64739800D03*
X67056000Y-64739800D03*
X68326000Y-64739800D03*
X69596000Y-64739800D03*
X69596000Y-59789800D03*
X68326000Y-59789800D03*
X67056000Y-59789800D03*
X65786000Y-59789800D03*
X64516000Y-59789800D03*
X63246000Y-59789800D03*
X61976000Y-59789800D03*
D13*
X68834000Y-57184800D03*
D18*
X118500000Y-80010000D03*
X116450000Y-80010000D03*
D13*
X93726000Y-57184800D03*
X78232000Y-85124800D03*
X62738000Y-29244800D03*
X95758000Y-81346800D03*
X84328000Y-39436800D03*
X87630000Y-39436800D03*
X74168000Y-53406800D03*
X82296000Y-29244800D03*
D16*
X111397140Y-54605400D03*
D17*
X111397140Y-55905400D03*
D18*
X118500000Y-85090000D03*
X116450000Y-85090000D03*
D13*
X97790000Y-67376800D03*
D20*
X100177600Y-63264800D03*
X100177600Y-61264800D03*
D13*
X82296000Y-57184800D03*
D20*
X100177600Y-77234800D03*
X100177600Y-75234800D03*
D13*
X95758000Y-67376800D03*
D20*
X72517001Y-77250800D03*
X72517001Y-75250800D03*
D19*
X30471000Y-88900000D03*
X32521000Y-88900000D03*
D13*
X74168000Y-67376800D03*
X55372000Y-39436800D03*
X53340000Y-67376800D03*
D20*
X45593001Y-77250800D03*
X45593001Y-75250800D03*
D13*
X95758000Y-57184800D03*
X76200000Y-39436800D03*
X97790000Y-71154800D03*
X91694000Y-95316800D03*
X74168000Y-29244800D03*
X87630000Y-85124800D03*
X51308000Y-29244800D03*
X97790000Y-57184800D03*
D18*
X118500000Y-77470000D03*
X116450000Y-77470000D03*
D13*
X74168000Y-71154800D03*
X87630000Y-43214800D03*
D20*
X85979001Y-35340800D03*
X85979001Y-33340800D03*
D13*
X95758000Y-67376800D03*
D19*
X30471000Y-33020000D03*
X32521000Y-33020000D03*
D13*
X87630000Y-85124800D03*
X87630000Y-29244800D03*
X70866000Y-39436800D03*
X49276000Y-85124800D03*
D15*
X88900000Y-64705000D03*
X90170000Y-64705000D03*
X91440000Y-64705000D03*
X92710000Y-64705000D03*
X93980000Y-64705000D03*
X95250000Y-64705000D03*
X96520000Y-64705000D03*
X97790000Y-64705000D03*
X97790000Y-59755000D03*
X96520000Y-59755000D03*
X95250000Y-59755000D03*
X93980000Y-59755000D03*
X92710000Y-59755000D03*
X91440000Y-59755000D03*
X90170000Y-59755000D03*
X88900000Y-59755000D03*
D13*
X82296000Y-85124800D03*
D15*
X61976000Y-92679800D03*
X63246000Y-92679800D03*
X64516000Y-92679800D03*
X65786000Y-92679800D03*
X67056000Y-92679800D03*
X68326000Y-92679800D03*
X69596000Y-92679800D03*
X69596000Y-87729800D03*
X68326000Y-87729800D03*
X67056000Y-87729800D03*
X65786000Y-87729800D03*
X64516000Y-87729800D03*
X63246000Y-87729800D03*
X61976000Y-87729800D03*
D20*
X45593001Y-63280800D03*
X45593001Y-61280800D03*
X72517001Y-49310800D03*
X72517001Y-47310800D03*
D13*
X91694000Y-29244800D03*
X55372000Y-67376800D03*
X89662000Y-53406800D03*
X82296000Y-81346800D03*
X93726000Y-67376800D03*
D15*
X88900000Y-78675000D03*
X90170000Y-78675000D03*
X91440000Y-78675000D03*
X92710000Y-78675000D03*
X93980000Y-78675000D03*
X95250000Y-78675000D03*
X96520000Y-78675000D03*
X97790000Y-78675000D03*
X97790000Y-73725000D03*
X96520000Y-73725000D03*
X95250000Y-73725000D03*
X93980000Y-73725000D03*
X92710000Y-73725000D03*
X91440000Y-73725000D03*
X90170000Y-73725000D03*
X88900000Y-73725000D03*
D13*
X93726000Y-71154800D03*
D19*
X30471000Y-63500000D03*
X32521000Y-63500000D03*
D13*
X97790000Y-85124800D03*
X84328000Y-57184800D03*
X53340000Y-29244800D03*
X93726000Y-29244800D03*
X93726000Y-53406800D03*
X70866000Y-85124800D03*
X89662000Y-85124800D03*
D19*
X30471000Y-73660000D03*
X32521000Y-73660000D03*
D18*
X118500000Y-82550000D03*
X116450000Y-82550000D03*
D20*
X72517001Y-63280800D03*
X72517001Y-61280800D03*
D13*
X89662000Y-95316800D03*
X89662000Y-81346800D03*
X89662000Y-39436800D03*
X89662000Y-71154800D03*
X57404000Y-39436800D03*
X64770000Y-43214800D03*
X57404000Y-43214800D03*
X49276000Y-57184800D03*
X62738000Y-71154800D03*
X51308000Y-95316800D03*
X99822000Y-85090000D03*
X64770000Y-29244800D03*
X55372000Y-43214800D03*
D27*
X41910000Y-33020000D03*
X41910000Y-35560000D03*
X41910000Y-38100000D03*
X41910000Y-40640000D03*
X41910000Y-43180000D03*
X41910000Y-45720000D03*
X41910000Y-48260000D03*
X41910000Y-50800000D03*
X41910000Y-53340000D03*
X41910000Y-55880000D03*
X41910000Y-58420000D03*
X41910000Y-60960000D03*
X41910000Y-63500000D03*
X41910000Y-66040000D03*
X41910000Y-68580000D03*
X41910000Y-71120000D03*
X41910000Y-73660000D03*
X41910000Y-76200000D03*
X41910000Y-78740000D03*
X41910000Y-81280000D03*
X41910000Y-83820000D03*
X41910000Y-86360000D03*
X41910000Y-88900000D03*
X41910000Y-91440000D03*
D13*
X49276000Y-67376800D03*
X95758000Y-95316800D03*
D16*
X116839995Y-54605400D03*
D17*
X116839995Y-55905400D03*
D20*
X45593001Y-35340800D03*
X45593001Y-33340800D03*
D13*
X47244000Y-53406800D03*
X64770000Y-95316800D03*
X97790000Y-43214800D03*
X55372000Y-71154800D03*
D19*
X30471000Y-86360000D03*
X32521000Y-86360000D03*
D15*
X48514000Y-36799800D03*
X49784000Y-36799800D03*
X51054000Y-36799800D03*
X52324000Y-36799800D03*
X53594000Y-36799800D03*
X54864000Y-36799800D03*
X56134000Y-36799800D03*
X56134000Y-31849800D03*
X54864000Y-31849800D03*
X53594000Y-31849800D03*
X52324000Y-31849800D03*
X51054000Y-31849800D03*
X49784000Y-31849800D03*
X48514000Y-31849800D03*
D13*
X47244000Y-81346800D03*
X84328000Y-81346800D03*
D20*
X85979001Y-49310800D03*
X85979001Y-47310800D03*
D14*
X103505000Y-36195000D03*
X105505000Y-36195000D03*
X107505000Y-36195000D03*
X109505000Y-36195000D03*
X111505000Y-36195000D03*
X113505000Y-36195000D03*
X115505000Y-36195000D03*
X117505000Y-36195000D03*
D13*
X95758000Y-85124800D03*
X95758000Y-57184800D03*
X93726000Y-95316800D03*
X99771200Y-67360800D03*
X57404000Y-53406800D03*
X51308000Y-67376800D03*
X91694000Y-95316800D03*
X93726000Y-71154800D03*
X66802000Y-57184800D03*
X57404000Y-57184800D03*
X57404000Y-67376800D03*
X70866000Y-95316800D03*
X89662000Y-67376800D03*
X78232000Y-57184800D03*
D19*
X30471000Y-76200000D03*
X32521000Y-76200000D03*
D13*
X91694000Y-71154800D03*
X80264000Y-95316800D03*
X89662000Y-29244800D03*
X76200000Y-53406800D03*
X95758000Y-39436800D03*
X91694000Y-81346800D03*
X99771200Y-81330800D03*
D20*
X72516999Y-35340800D03*
X72516999Y-33340800D03*
X85979001Y-91220800D03*
X85979001Y-89220800D03*
D13*
X70866000Y-81346800D03*
X91694000Y-43214800D03*
X95758000Y-71154800D03*
X78232000Y-53406800D03*
D15*
X88900000Y-50769800D03*
X90170000Y-50769800D03*
X91440000Y-50769800D03*
X92710000Y-50769800D03*
X93980000Y-50769800D03*
X95250000Y-50769800D03*
X96520000Y-50769800D03*
X96520000Y-45819800D03*
X95250000Y-45819800D03*
X93980000Y-45819800D03*
X92710000Y-45819800D03*
X91440000Y-45819800D03*
X90170000Y-45819800D03*
X88900000Y-45819800D03*
D13*
X60706000Y-81346800D03*
D20*
X72516999Y-91220800D03*
X72516999Y-89220800D03*
D13*
X99822000Y-71120000D03*
X57404000Y-81346800D03*
X74168000Y-39436800D03*
D18*
X118500000Y-72390000D03*
X116450000Y-72390000D03*
D19*
X30471000Y-58420000D03*
X32521000Y-58420000D03*
D18*
X118500000Y-74930000D03*
X116450000Y-74930000D03*
D13*
X68834000Y-53406800D03*
D19*
X30471000Y-43180000D03*
X32521000Y-43180000D03*
D13*
X53340000Y-53406800D03*
D19*
X30471000Y-35560000D03*
X32521000Y-35560000D03*
D14*
X103505000Y-32385000D03*
X105505000Y-32385000D03*
X107505000Y-32385000D03*
X109505000Y-32385000D03*
X111505000Y-32385000D03*
X113505000Y-32385000D03*
X115505000Y-32385000D03*
X117505000Y-32385000D03*
D13*
X84328000Y-71154800D03*
X64770000Y-85124800D03*
X57404000Y-71154800D03*
X97790000Y-71154800D03*
D14*
X103505000Y-30480000D03*
X105505000Y-30480000D03*
X107505000Y-30480000D03*
X109505000Y-30480000D03*
X111505000Y-30480000D03*
X113505000Y-30480000D03*
X115505000Y-30480000D03*
X117505000Y-30480000D03*
D13*
X78232000Y-81346800D03*
D19*
X30471000Y-68580000D03*
X32521000Y-68580000D03*
D13*
X66802000Y-39436800D03*
X89662000Y-81346800D03*
D28*
X104775000Y-69925000D03*
X106045000Y-69925000D03*
X107315000Y-69925000D03*
X108585000Y-69925000D03*
X109855000Y-69925000D03*
X111125000Y-69925000D03*
X112395000Y-69925000D03*
X113665000Y-69925000D03*
X113665000Y-63425000D03*
X112395000Y-63425000D03*
X111125000Y-63425000D03*
X109855000Y-63425000D03*
X108585000Y-63425000D03*
X107315000Y-63425000D03*
X106045000Y-63425000D03*
X104775000Y-63425000D03*
D15*
X75438000Y-36799800D03*
X76708000Y-36799800D03*
X77978000Y-36799800D03*
X79248000Y-36799800D03*
X80518000Y-36799800D03*
X81788000Y-36799800D03*
X83058000Y-36799800D03*
X83058000Y-31849800D03*
X81788000Y-31849800D03*
X80518000Y-31849800D03*
X79248000Y-31849800D03*
X77978000Y-31849800D03*
X76708000Y-31849800D03*
X75438000Y-31849800D03*
D19*
X30471000Y-45720000D03*
X32521000Y-45720000D03*
D13*
X99771200Y-67360800D03*
X68834000Y-43214800D03*
X62738000Y-85124800D03*
X68834000Y-71154800D03*
X93726000Y-95316800D03*
X84328000Y-85124800D03*
D14*
X103505000Y-41910000D03*
X105505000Y-41910000D03*
X107505000Y-41910000D03*
X109505000Y-41910000D03*
X111505000Y-41910000D03*
X113505000Y-41910000D03*
X115505000Y-41910000D03*
X117505000Y-41910000D03*
D16*
X107768570Y-54605400D03*
D17*
X107768570Y-55905400D03*
D13*
X80264000Y-43214800D03*
X53340000Y-57184800D03*
X49276000Y-43214800D03*
X84328000Y-43214800D03*
X51308000Y-85124800D03*
X55372000Y-85124800D03*
D20*
X72517001Y-35340800D03*
X72517001Y-33340800D03*
D13*
X93726000Y-39436800D03*
D20*
X99440999Y-49310800D03*
X99440999Y-47310800D03*
D13*
X47244000Y-67376800D03*
X95758000Y-95316800D03*
X47244000Y-95316800D03*
D19*
X30471000Y-83820000D03*
X32521000Y-83820000D03*
D13*
X68834000Y-95316800D03*
X87630000Y-57184800D03*
X76200000Y-67376800D03*
D20*
X85979001Y-91220800D03*
X85979001Y-89220800D03*
D13*
X49276000Y-71154800D03*
X82296000Y-95316800D03*
X66802000Y-29244800D03*
X68834000Y-81346800D03*
D20*
X59055001Y-77250800D03*
X59055001Y-75250800D03*
D13*
X89662000Y-95316800D03*
X66802000Y-53406800D03*
X55372000Y-29244800D03*
D20*
X45593001Y-49310800D03*
X45593001Y-47310800D03*
D13*
X82296000Y-43214800D03*
D19*
X30471000Y-66040000D03*
X32521000Y-66040000D03*
D13*
X99771200Y-81330800D03*
D29*
X123825000Y-31750000D03*
X121285000Y-31750000D03*
X123825000Y-34290000D03*
X121285000Y-34290000D03*
X123825000Y-36830000D03*
X121285000Y-36830000D03*
X123825000Y-39370000D03*
X121285000Y-39370000D03*
X123825000Y-41910000D03*
X121285000Y-41910000D03*
X123825000Y-44450000D03*
X121285000Y-44450000D03*
X123825000Y-46990000D03*
X121285000Y-46990000D03*
X123825000Y-49530000D03*
X121285000Y-49530000D03*
X123825000Y-52070000D03*
X121285000Y-52070000D03*
X123825000Y-54610000D03*
X121285000Y-54610000D03*
X123825000Y-57150000D03*
X121285000Y-57150000D03*
X123825000Y-59690000D03*
X121285000Y-59690000D03*
X123825000Y-62230000D03*
X121285000Y-62230000D03*
X123825000Y-64770000D03*
X121285000Y-64770000D03*
X123825000Y-67310000D03*
X121285000Y-67310000D03*
X123825000Y-69850000D03*
X121285000Y-69850000D03*
X123825000Y-72390000D03*
X121285000Y-72390000D03*
X123825000Y-74930000D03*
X121285000Y-74930000D03*
X123825000Y-77470000D03*
X121285000Y-77470000D03*
X123825000Y-80010000D03*
X121285000Y-80010000D03*
X123825000Y-82550000D03*
X121285000Y-82550000D03*
X123825000Y-85090000D03*
X121285000Y-85090000D03*
X123825000Y-87630000D03*
X121285000Y-87630000D03*
X123825000Y-90170000D03*
X121285000Y-90170000D03*
X123825000Y-92710000D03*
X121285000Y-92710000D03*
D30*
X27940000Y-33020000D03*
X27940000Y-35560000D03*
X27940000Y-38100000D03*
X27940000Y-40640000D03*
X27940000Y-43180000D03*
X27940000Y-45720000D03*
X27940000Y-48260000D03*
X27940000Y-50800000D03*
X27940000Y-53340000D03*
X27940000Y-55880000D03*
X27940000Y-58420000D03*
X27940000Y-60960000D03*
X27940000Y-63500000D03*
X27940000Y-66040000D03*
X27940000Y-68580000D03*
X27940000Y-71120000D03*
X27940000Y-73660000D03*
X27940000Y-76200000D03*
X27940000Y-78740000D03*
X27940000Y-81280000D03*
X27940000Y-83820000D03*
X27940000Y-86360000D03*
X27940000Y-88900000D03*
X27940000Y-91440000D03*
M02*
