G04 #@! TF.GenerationSoftware,KiCad,Pcbnew,7.0.10*
G04 #@! TF.CreationDate,2024-01-05T09:54:04+01:00*
G04 #@! TF.ProjectId,MopSequencer,4d6f7053-6571-4756-956e-6365722e6b69,rev?*
G04 #@! TF.SameCoordinates,Original*
G04 #@! TF.FileFunction,Copper,L2,Bot*
G04 #@! TF.FilePolarity,Positive*
%FSLAX46Y46*%
G04 Gerber Fmt 4.6, Leading zero omitted, Abs format (unit mm)*
G04 Created by KiCad (PCBNEW 7.0.10) date 2024-01-05 09:54:04*
%MOMM*%
%LPD*%
G01*
G04 APERTURE LIST*
G04 Aperture macros list*
%AMRoundRect*
0 Rectangle with rounded corners*
0 $1 Rounding radius*
0 $2 $3 $4 $5 $6 $7 $8 $9 X,Y pos of 4 corners*
0 Add a 4 corners polygon primitive as box body*
4,1,4,$2,$3,$4,$5,$6,$7,$8,$9,$2,$3,0*
0 Add four circle primitives for the rounded corners*
1,1,$1+$1,$2,$3*
1,1,$1+$1,$4,$5*
1,1,$1+$1,$6,$7*
1,1,$1+$1,$8,$9*
0 Add four rect primitives between the rounded corners*
20,1,$1+$1,$2,$3,$4,$5,0*
20,1,$1+$1,$4,$5,$6,$7,0*
20,1,$1+$1,$6,$7,$8,$9,0*
20,1,$1+$1,$8,$9,$2,$3,0*%
G04 Aperture macros list end*
G04 #@! TA.AperFunction,NonConductor*
%ADD10C,1.500000*%
G04 #@! TD*
G04 #@! TA.AperFunction,NonConductor*
%ADD11C,0.762000*%
G04 #@! TD*
G04 #@! TA.AperFunction,ComponentPad*
%ADD12R,1.500000X1.800000*%
G04 #@! TD*
G04 #@! TA.AperFunction,ComponentPad*
%ADD13R,1.500000X1.500000*%
G04 #@! TD*
G04 #@! TA.AperFunction,ComponentPad*
%ADD14R,1.800000X1.500000*%
G04 #@! TD*
G04 #@! TA.AperFunction,ComponentPad*
%ADD15R,1.800000X1.800000*%
G04 #@! TD*
G04 #@! TA.AperFunction,SMDPad,CuDef*
%ADD16RoundRect,0.250000X0.350000X0.450000X-0.350000X0.450000X-0.350000X-0.450000X0.350000X-0.450000X0*%
G04 #@! TD*
G04 #@! TA.AperFunction,SMDPad,CuDef*
%ADD17RoundRect,0.250000X-0.350000X-0.450000X0.350000X-0.450000X0.350000X0.450000X-0.350000X0.450000X0*%
G04 #@! TD*
G04 #@! TA.AperFunction,SMDPad,CuDef*
%ADD18RoundRect,0.250000X-0.337500X-0.475000X0.337500X-0.475000X0.337500X0.475000X-0.337500X0.475000X0*%
G04 #@! TD*
G04 #@! TA.AperFunction,ComponentPad*
%ADD19R,1.700000X1.700000*%
G04 #@! TD*
G04 #@! TA.AperFunction,ComponentPad*
%ADD20R,1.800000X1.700000*%
G04 #@! TD*
G04 #@! TA.AperFunction,ViaPad*
%ADD21C,0.600000*%
G04 #@! TD*
G04 #@! TA.AperFunction,ViaPad*
%ADD22C,0.900000*%
G04 #@! TD*
G04 #@! TA.AperFunction,ViaPad*
%ADD23C,1.800000*%
G04 #@! TD*
G04 #@! TA.AperFunction,Conductor*
%ADD24C,0.127000*%
G04 #@! TD*
G04 #@! TA.AperFunction,Conductor*
%ADD25C,0.400000*%
G04 #@! TD*
G04 #@! TA.AperFunction,Conductor*
%ADD26C,1.500000*%
G04 #@! TD*
G04 #@! TA.AperFunction,Conductor*
%ADD27C,0.254000*%
G04 #@! TD*
G04 #@! TA.AperFunction,Conductor*
%ADD28C,1.000000*%
G04 #@! TD*
G04 APERTURE END LIST*
D10*
X45593000Y-89204800D02*
X72517000Y-89204800D01*
D11*
X45720000Y-77368400D02*
X43942000Y-77317600D01*
X45720000Y-91338400D02*
X43942000Y-91287600D01*
D10*
X45593000Y-63296800D02*
X72517000Y-63296800D01*
X72517000Y-77266800D02*
X99441000Y-77266800D01*
X45593000Y-75234800D02*
X72517000Y-75234800D01*
D11*
X45593000Y-49428400D02*
X43815000Y-49377600D01*
D10*
X45593000Y-77266800D02*
X72517000Y-77266800D01*
X72517000Y-91236800D02*
X99441000Y-91236800D01*
D11*
X45593000Y-63271400D02*
X43815000Y-63220600D01*
D10*
X72517000Y-75234800D02*
X99441000Y-75234800D01*
X72517000Y-47294800D02*
X99441000Y-47294800D01*
X45593000Y-47294800D02*
X72517000Y-47294800D01*
X45593000Y-49326800D02*
X72517000Y-49326800D01*
X72517000Y-89204800D02*
X99441000Y-89204800D01*
X72517000Y-61264800D02*
X99441000Y-61264800D01*
X72517000Y-35356800D02*
X99441000Y-35356800D01*
X72517000Y-33324800D02*
X99441000Y-33324800D01*
X72517000Y-49326800D02*
X99441000Y-49326800D01*
X45593000Y-91236800D02*
X72517000Y-91236800D01*
X45593000Y-35356800D02*
X72517000Y-35356800D01*
X45593000Y-61264800D02*
X72517000Y-61264800D01*
D11*
X45593000Y-35356800D02*
X43815000Y-35306000D01*
D10*
X72517000Y-63296800D02*
X99441000Y-63296800D01*
X45593000Y-33324800D02*
X72517000Y-33324800D01*
D12*
X68834000Y-67376800D03*
X49276000Y-81346800D03*
X51308000Y-71154800D03*
X66802000Y-95316800D03*
X76200000Y-85124800D03*
X93726000Y-67376800D03*
X99822000Y-57150000D03*
X74168000Y-95316800D03*
D13*
X103505000Y-34290000D03*
X105505000Y-34290000D03*
X107505000Y-34290000D03*
X109505000Y-34290000D03*
X111505000Y-34290000D03*
X113505000Y-34290000D03*
X115505000Y-34290000D03*
X117505000Y-34290000D03*
D12*
X97790000Y-39436800D03*
X87630000Y-67376800D03*
X97790000Y-67376800D03*
X87630000Y-67376800D03*
X80264000Y-39436800D03*
X87680800Y-53390800D03*
X53340000Y-85124800D03*
X60706000Y-29244800D03*
X55372000Y-57184800D03*
X93726000Y-85124800D03*
X89662000Y-85124800D03*
X99822000Y-71120000D03*
X95758000Y-43214800D03*
D14*
X59055001Y-35340800D03*
X59055001Y-33340800D03*
D12*
X80264000Y-53406800D03*
D14*
X45593001Y-91220800D03*
X45593001Y-89220800D03*
D12*
X84328000Y-95316800D03*
X97790000Y-95316800D03*
X70866000Y-57184800D03*
X91694000Y-81346800D03*
X66802000Y-67376800D03*
X78232000Y-29244800D03*
D14*
X72516999Y-63280800D03*
X72516999Y-61280800D03*
X59055001Y-91220800D03*
X59055001Y-89220800D03*
D12*
X47244000Y-43214800D03*
X84328000Y-67376800D03*
X66802000Y-81346800D03*
X93726000Y-81346800D03*
X78232000Y-95316800D03*
D14*
X100177600Y-91204800D03*
X100177600Y-89204800D03*
D13*
X103505000Y-38100000D03*
X105505000Y-38100000D03*
X107505000Y-38100000D03*
X109505000Y-38100000D03*
X111505000Y-38100000D03*
X113505000Y-38100000D03*
X115505000Y-38100000D03*
X117505000Y-38100000D03*
D12*
X57404000Y-85124800D03*
X97790000Y-81346800D03*
X51308000Y-57184800D03*
X74168000Y-85124800D03*
X76200000Y-29244800D03*
D14*
X72516999Y-77250800D03*
X72516999Y-75250800D03*
D12*
X97790000Y-81346800D03*
X64770000Y-39436800D03*
X74168000Y-43214800D03*
X99822000Y-85090000D03*
X55372000Y-81346800D03*
X80264000Y-71154800D03*
X76200000Y-43214800D03*
X78232000Y-39436800D03*
X76200000Y-71154800D03*
X89662000Y-67376800D03*
X91694000Y-57184800D03*
X87630000Y-81346800D03*
X62738000Y-57184800D03*
X51308000Y-53406800D03*
X60706000Y-95316800D03*
X70866000Y-43214800D03*
X51308000Y-81346800D03*
X68834000Y-85124800D03*
D14*
X72517001Y-91220800D03*
X72517001Y-89220800D03*
D12*
X60706000Y-85124800D03*
X60706000Y-53406800D03*
X62738000Y-81346800D03*
X91694000Y-53406800D03*
X93726000Y-85124800D03*
X95758000Y-81346800D03*
D14*
X59055001Y-63280800D03*
X59055001Y-61280800D03*
D12*
X66802000Y-43214800D03*
D14*
X72516999Y-49310800D03*
X72516999Y-47310800D03*
X85979001Y-63280800D03*
X85979001Y-61280800D03*
X59055001Y-49310800D03*
X59055001Y-47310800D03*
D12*
X57404000Y-95316800D03*
X62738000Y-39436800D03*
X49276000Y-39436800D03*
D14*
X99440999Y-35340800D03*
X99440999Y-33340800D03*
D12*
X99771200Y-95300800D03*
X62738000Y-53406800D03*
X89662000Y-71154800D03*
X80264000Y-57184800D03*
X95758000Y-85124800D03*
X97790000Y-95316800D03*
X64770000Y-71154800D03*
D14*
X85979001Y-77250800D03*
X85979001Y-75250800D03*
D12*
X51308000Y-43214800D03*
X78232000Y-67376800D03*
X74168000Y-81346800D03*
X93726000Y-43214800D03*
X97790000Y-53406800D03*
X80264000Y-67376800D03*
X62738000Y-43214800D03*
D14*
X100177600Y-77234800D03*
X100177600Y-75234800D03*
D12*
X49276000Y-95316800D03*
X70866000Y-53406800D03*
X80264000Y-85124800D03*
X76200000Y-81346800D03*
X91694000Y-67376800D03*
D14*
X100177600Y-91204800D03*
X100177600Y-89204800D03*
D12*
X55372000Y-95316800D03*
X53340000Y-71154800D03*
X80264000Y-29244800D03*
X49276000Y-53406800D03*
X49276000Y-29244800D03*
X62738000Y-95316800D03*
X82296000Y-71154800D03*
X80264000Y-81346800D03*
D13*
X103505000Y-40005000D03*
X105505000Y-40005000D03*
X107505000Y-40005000D03*
X109505000Y-40005000D03*
X111505000Y-40005000D03*
X113505000Y-40005000D03*
X115505000Y-40005000D03*
X117505000Y-40005000D03*
X103505000Y-45720000D03*
X105505000Y-45720000D03*
X107505000Y-45720000D03*
X109505000Y-45720000D03*
X111505000Y-45720000D03*
X113505000Y-45720000D03*
X115505000Y-45720000D03*
X117505000Y-45720000D03*
D12*
X53340000Y-95316800D03*
X53340000Y-81346800D03*
X55372000Y-53406800D03*
X97790000Y-57184800D03*
X89662000Y-57184800D03*
X82296000Y-67376800D03*
X84328000Y-29244800D03*
X87630000Y-71154800D03*
X76200000Y-57184800D03*
X53340000Y-39436800D03*
X99822000Y-57150000D03*
D13*
X103505000Y-47625000D03*
X105505000Y-47625000D03*
X107505000Y-47625000D03*
X109505000Y-47625000D03*
X111505000Y-47625000D03*
X113505000Y-47625000D03*
X115505000Y-47625000D03*
X117505000Y-47625000D03*
D12*
X68834000Y-39436800D03*
X93726000Y-57184800D03*
X47244000Y-85124800D03*
D13*
X103505000Y-43815000D03*
X105505000Y-43815000D03*
X107505000Y-43815000D03*
X109505000Y-43815000D03*
X111505000Y-43815000D03*
X113505000Y-43815000D03*
X115505000Y-43815000D03*
X117505000Y-43815000D03*
D12*
X78232000Y-43214800D03*
X60706000Y-39436800D03*
X53340000Y-43214800D03*
X95758000Y-29244800D03*
X60706000Y-71154800D03*
X87630000Y-71154800D03*
X82296000Y-53406800D03*
X66802000Y-71154800D03*
X60706000Y-67376800D03*
X64770000Y-57184800D03*
X47244000Y-71154800D03*
X60706000Y-57184800D03*
X76200000Y-95316800D03*
X64770000Y-81346800D03*
X87630000Y-95316800D03*
X95758000Y-53406800D03*
X64770000Y-53406800D03*
X93726000Y-81346800D03*
X62738000Y-67376800D03*
X51308000Y-39436800D03*
X47244000Y-29244800D03*
X87630000Y-95316800D03*
X78232000Y-71154800D03*
X47244000Y-57184800D03*
X91694000Y-85124800D03*
X70866000Y-29244800D03*
X97790000Y-29244800D03*
X68834000Y-29244800D03*
X84328000Y-53406800D03*
X91694000Y-57184800D03*
X60706000Y-43214800D03*
X82296000Y-39436800D03*
X87630000Y-81346800D03*
X91694000Y-71154800D03*
X70866000Y-71154800D03*
X70866000Y-67376800D03*
X91694000Y-67376800D03*
X99771200Y-95300800D03*
X89662000Y-57184800D03*
X95758000Y-71154800D03*
X89662000Y-43214800D03*
X64770000Y-67376800D03*
X66802000Y-85124800D03*
D14*
X100177600Y-63264800D03*
X100177600Y-61264800D03*
D12*
X91694000Y-39436800D03*
X87630000Y-57184800D03*
X47244000Y-39436800D03*
X57404000Y-29244800D03*
X74168000Y-57184800D03*
X97790000Y-85124800D03*
X68834000Y-57184800D03*
X93726000Y-57184800D03*
X78232000Y-85124800D03*
X62738000Y-29244800D03*
X95758000Y-81346800D03*
X84328000Y-39436800D03*
X87630000Y-39436800D03*
X74168000Y-53406800D03*
X82296000Y-29244800D03*
X97790000Y-67376800D03*
D14*
X100177600Y-63264800D03*
X100177600Y-61264800D03*
D12*
X82296000Y-57184800D03*
D14*
X100177600Y-77234800D03*
X100177600Y-75234800D03*
D12*
X95758000Y-67376800D03*
D14*
X72517001Y-77250800D03*
X72517001Y-75250800D03*
D12*
X74168000Y-67376800D03*
X55372000Y-39436800D03*
X53340000Y-67376800D03*
D14*
X45593001Y-77250800D03*
X45593001Y-75250800D03*
D12*
X95758000Y-57184800D03*
X76200000Y-39436800D03*
X97790000Y-71154800D03*
X91694000Y-95316800D03*
X74168000Y-29244800D03*
X87630000Y-85124800D03*
X51308000Y-29244800D03*
X97790000Y-57184800D03*
X74168000Y-71154800D03*
X87630000Y-43214800D03*
D14*
X85979001Y-35340800D03*
X85979001Y-33340800D03*
D12*
X95758000Y-67376800D03*
X87630000Y-85124800D03*
X87630000Y-29244800D03*
X70866000Y-39436800D03*
X49276000Y-85124800D03*
X82296000Y-85124800D03*
D14*
X45593001Y-63280800D03*
X45593001Y-61280800D03*
X72517001Y-49310800D03*
X72517001Y-47310800D03*
D12*
X91694000Y-29244800D03*
X55372000Y-67376800D03*
X89662000Y-53406800D03*
X82296000Y-81346800D03*
X93726000Y-67376800D03*
X93726000Y-71154800D03*
X97790000Y-85124800D03*
X84328000Y-57184800D03*
X53340000Y-29244800D03*
X93726000Y-29244800D03*
X93726000Y-53406800D03*
X70866000Y-85124800D03*
X89662000Y-85124800D03*
D14*
X72517001Y-63280800D03*
X72517001Y-61280800D03*
D12*
X89662000Y-95316800D03*
X89662000Y-81346800D03*
X89662000Y-39436800D03*
X89662000Y-71154800D03*
X57404000Y-39436800D03*
X64770000Y-43214800D03*
X57404000Y-43214800D03*
X49276000Y-57184800D03*
X62738000Y-71154800D03*
X51308000Y-95316800D03*
X99822000Y-85090000D03*
X64770000Y-29244800D03*
X55372000Y-43214800D03*
D15*
X41910000Y-33020000D03*
X41910000Y-35560000D03*
X41910000Y-38100000D03*
X41910000Y-40640000D03*
X41910000Y-43180000D03*
X41910000Y-45720000D03*
X41910000Y-48260000D03*
X41910000Y-50800000D03*
X41910000Y-53340000D03*
X41910000Y-55880000D03*
X41910000Y-58420000D03*
X41910000Y-60960000D03*
X41910000Y-63500000D03*
X41910000Y-66040000D03*
X41910000Y-68580000D03*
X41910000Y-71120000D03*
X41910000Y-73660000D03*
X41910000Y-76200000D03*
X41910000Y-78740000D03*
X41910000Y-81280000D03*
X41910000Y-83820000D03*
X41910000Y-86360000D03*
X41910000Y-88900000D03*
X41910000Y-91440000D03*
D12*
X49276000Y-67376800D03*
X95758000Y-95316800D03*
D14*
X45593001Y-35340800D03*
X45593001Y-33340800D03*
D12*
X47244000Y-53406800D03*
X64770000Y-95316800D03*
X97790000Y-43214800D03*
X55372000Y-71154800D03*
X47244000Y-81346800D03*
X84328000Y-81346800D03*
D14*
X85979001Y-49310800D03*
X85979001Y-47310800D03*
D13*
X103505000Y-36195000D03*
X105505000Y-36195000D03*
X107505000Y-36195000D03*
X109505000Y-36195000D03*
X111505000Y-36195000D03*
X113505000Y-36195000D03*
X115505000Y-36195000D03*
X117505000Y-36195000D03*
D12*
X95758000Y-85124800D03*
X95758000Y-57184800D03*
X93726000Y-95316800D03*
X99771200Y-67360800D03*
X57404000Y-53406800D03*
X51308000Y-67376800D03*
X91694000Y-95316800D03*
X93726000Y-71154800D03*
X66802000Y-57184800D03*
X57404000Y-57184800D03*
X57404000Y-67376800D03*
X70866000Y-95316800D03*
X89662000Y-67376800D03*
X78232000Y-57184800D03*
X91694000Y-71154800D03*
X80264000Y-95316800D03*
X89662000Y-29244800D03*
X76200000Y-53406800D03*
X95758000Y-39436800D03*
X91694000Y-81346800D03*
X99771200Y-81330800D03*
D14*
X72516999Y-35340800D03*
X72516999Y-33340800D03*
X85979001Y-91220800D03*
X85979001Y-89220800D03*
D12*
X70866000Y-81346800D03*
X91694000Y-43214800D03*
X95758000Y-71154800D03*
X78232000Y-53406800D03*
X60706000Y-81346800D03*
D14*
X72516999Y-91220800D03*
X72516999Y-89220800D03*
D12*
X99822000Y-71120000D03*
X57404000Y-81346800D03*
X74168000Y-39436800D03*
X68834000Y-53406800D03*
X53340000Y-53406800D03*
D13*
X103505000Y-32385000D03*
X105505000Y-32385000D03*
X107505000Y-32385000D03*
X109505000Y-32385000D03*
X111505000Y-32385000D03*
X113505000Y-32385000D03*
X115505000Y-32385000D03*
X117505000Y-32385000D03*
D12*
X84328000Y-71154800D03*
X64770000Y-85124800D03*
X57404000Y-71154800D03*
X97790000Y-71154800D03*
D13*
X103505000Y-30480000D03*
X105505000Y-30480000D03*
X107505000Y-30480000D03*
X109505000Y-30480000D03*
X111505000Y-30480000D03*
X113505000Y-30480000D03*
X115505000Y-30480000D03*
X117505000Y-30480000D03*
D12*
X78232000Y-81346800D03*
X66802000Y-39436800D03*
X89662000Y-81346800D03*
X99771200Y-67360800D03*
X68834000Y-43214800D03*
X62738000Y-85124800D03*
X68834000Y-71154800D03*
X93726000Y-95316800D03*
X84328000Y-85124800D03*
D13*
X103505000Y-41910000D03*
X105505000Y-41910000D03*
X107505000Y-41910000D03*
X109505000Y-41910000D03*
X111505000Y-41910000D03*
X113505000Y-41910000D03*
X115505000Y-41910000D03*
X117505000Y-41910000D03*
D12*
X80264000Y-43214800D03*
X53340000Y-57184800D03*
X49276000Y-43214800D03*
X84328000Y-43214800D03*
X51308000Y-85124800D03*
X55372000Y-85124800D03*
D14*
X72517001Y-35340800D03*
X72517001Y-33340800D03*
D12*
X93726000Y-39436800D03*
D14*
X99440999Y-49310800D03*
X99440999Y-47310800D03*
D12*
X47244000Y-67376800D03*
X95758000Y-95316800D03*
X47244000Y-95316800D03*
X68834000Y-95316800D03*
X87630000Y-57184800D03*
X76200000Y-67376800D03*
D14*
X85979001Y-91220800D03*
X85979001Y-89220800D03*
D12*
X49276000Y-71154800D03*
X82296000Y-95316800D03*
X66802000Y-29244800D03*
X68834000Y-81346800D03*
D14*
X59055001Y-77250800D03*
X59055001Y-75250800D03*
D12*
X89662000Y-95316800D03*
X66802000Y-53406800D03*
X55372000Y-29244800D03*
D14*
X45593001Y-49310800D03*
X45593001Y-47310800D03*
D12*
X82296000Y-43214800D03*
X99771200Y-81330800D03*
D16*
X36560000Y-81280000D03*
X34560000Y-81280000D03*
X36560000Y-50800000D03*
X34560000Y-50800000D03*
X118475000Y-85090000D03*
X116475000Y-85090000D03*
D17*
X112665000Y-77470000D03*
X114665000Y-77470000D03*
D16*
X118475000Y-82550000D03*
X116475000Y-82550000D03*
D17*
X30496000Y-91440000D03*
X32496000Y-91440000D03*
X112665000Y-80010000D03*
X114665000Y-80010000D03*
D16*
X36560000Y-43180000D03*
X34560000Y-43180000D03*
X36560000Y-71120000D03*
X34560000Y-71120000D03*
D17*
X30496000Y-71120000D03*
X32496000Y-71120000D03*
D16*
X118475000Y-77470000D03*
X116475000Y-77470000D03*
D17*
X30496000Y-88900000D03*
X32496000Y-88900000D03*
D16*
X36560000Y-78740000D03*
X34560000Y-78740000D03*
X36560000Y-83820000D03*
X34560000Y-83820000D03*
X118475000Y-90170000D03*
X116475000Y-90170000D03*
D17*
X30496000Y-40640000D03*
X32496000Y-40640000D03*
X30496000Y-33020000D03*
X32496000Y-33020000D03*
X30496000Y-50800000D03*
X32496000Y-50800000D03*
X30496000Y-45720000D03*
X32496000Y-45720000D03*
D16*
X36560000Y-91440000D03*
X34560000Y-91440000D03*
X36560000Y-45720000D03*
X34560000Y-45720000D03*
X36560000Y-58420000D03*
X34560000Y-58420000D03*
X118475000Y-74930000D03*
X116475000Y-74930000D03*
D17*
X30496000Y-73660000D03*
X32496000Y-73660000D03*
X30496000Y-83820000D03*
X32496000Y-83820000D03*
X30496000Y-38100000D03*
X32496000Y-38100000D03*
D16*
X36560000Y-73660000D03*
X34560000Y-73660000D03*
X118475000Y-72390000D03*
X116475000Y-72390000D03*
D17*
X30496000Y-35560000D03*
X32496000Y-35560000D03*
D16*
X36560000Y-33020000D03*
X34560000Y-33020000D03*
X118475000Y-87630000D03*
X116475000Y-87630000D03*
D17*
X112665000Y-87630000D03*
X114665000Y-87630000D03*
X30496000Y-78740000D03*
X32496000Y-78740000D03*
D16*
X36560000Y-38100000D03*
X34560000Y-38100000D03*
D17*
X30496000Y-76200000D03*
X32496000Y-76200000D03*
D16*
X36560000Y-35560000D03*
X34560000Y-35560000D03*
X36560000Y-88900000D03*
X34560000Y-88900000D03*
D17*
X30496000Y-86360000D03*
X32496000Y-86360000D03*
D16*
X36560000Y-86360000D03*
X34560000Y-86360000D03*
D17*
X30496000Y-81280000D03*
X32496000Y-81280000D03*
X30496000Y-68580000D03*
X32496000Y-68580000D03*
D16*
X36560000Y-53340000D03*
X34560000Y-53340000D03*
X36560000Y-68580000D03*
X34560000Y-68580000D03*
D17*
X30496000Y-55880000D03*
X32496000Y-55880000D03*
X112665000Y-72390000D03*
X114665000Y-72390000D03*
D18*
X109071500Y-66548000D03*
X111146500Y-66548000D03*
D16*
X36560000Y-40640000D03*
X34560000Y-40640000D03*
D17*
X30496000Y-58420000D03*
X32496000Y-58420000D03*
D16*
X36560000Y-76200000D03*
X34560000Y-76200000D03*
X118475000Y-80010000D03*
X116475000Y-80010000D03*
D17*
X30496000Y-60960000D03*
X32496000Y-60960000D03*
X30496000Y-53340000D03*
X32496000Y-53340000D03*
X30496000Y-63500000D03*
X32496000Y-63500000D03*
D18*
X109071500Y-57785000D03*
X111146500Y-57785000D03*
D16*
X36560000Y-60960000D03*
X34560000Y-60960000D03*
D17*
X112665000Y-90170000D03*
X114665000Y-90170000D03*
D16*
X36560000Y-48260000D03*
X34560000Y-48260000D03*
D19*
X123825000Y-31750000D03*
X121285000Y-31750000D03*
X123825000Y-34290000D03*
X121285000Y-34290000D03*
X123825000Y-36830000D03*
X121285000Y-36830000D03*
X123825000Y-39370000D03*
X121285000Y-39370000D03*
X123825000Y-41910000D03*
X121285000Y-41910000D03*
X123825000Y-44450000D03*
X121285000Y-44450000D03*
X123825000Y-46990000D03*
X121285000Y-46990000D03*
X123825000Y-49530000D03*
X121285000Y-49530000D03*
X123825000Y-52070000D03*
X121285000Y-52070000D03*
X123825000Y-54610000D03*
X121285000Y-54610000D03*
X123825000Y-57150000D03*
X121285000Y-57150000D03*
X123825000Y-59690000D03*
X121285000Y-59690000D03*
X123825000Y-62230000D03*
X121285000Y-62230000D03*
X123825000Y-64770000D03*
X121285000Y-64770000D03*
X123825000Y-67310000D03*
X121285000Y-67310000D03*
X123825000Y-69850000D03*
X121285000Y-69850000D03*
X123825000Y-72390000D03*
X121285000Y-72390000D03*
X123825000Y-74930000D03*
X121285000Y-74930000D03*
X123825000Y-77470000D03*
X121285000Y-77470000D03*
X123825000Y-80010000D03*
X121285000Y-80010000D03*
X123825000Y-82550000D03*
X121285000Y-82550000D03*
X123825000Y-85090000D03*
X121285000Y-85090000D03*
X123825000Y-87630000D03*
X121285000Y-87630000D03*
X123825000Y-90170000D03*
X121285000Y-90170000D03*
X123825000Y-92710000D03*
X121285000Y-92710000D03*
D17*
X112665000Y-82550000D03*
X114665000Y-82550000D03*
D16*
X36560000Y-63500000D03*
X34560000Y-63500000D03*
D20*
X27940000Y-33020000D03*
X27940000Y-35560000D03*
X27940000Y-38100000D03*
X27940000Y-40640000D03*
X27940000Y-43180000D03*
X27940000Y-45720000D03*
X27940000Y-48260000D03*
X27940000Y-50800000D03*
X27940000Y-53340000D03*
X27940000Y-55880000D03*
X27940000Y-58420000D03*
X27940000Y-60960000D03*
X27940000Y-63500000D03*
X27940000Y-66040000D03*
X27940000Y-68580000D03*
X27940000Y-71120000D03*
X27940000Y-73660000D03*
X27940000Y-76200000D03*
X27940000Y-78740000D03*
X27940000Y-81280000D03*
X27940000Y-83820000D03*
X27940000Y-86360000D03*
X27940000Y-88900000D03*
X27940000Y-91440000D03*
D17*
X112665000Y-74930000D03*
X114665000Y-74930000D03*
D16*
X36560000Y-66040000D03*
X34560000Y-66040000D03*
D17*
X30496000Y-43180000D03*
X32496000Y-43180000D03*
D16*
X36560000Y-55880000D03*
X34560000Y-55880000D03*
D17*
X30496000Y-48260000D03*
X32496000Y-48260000D03*
X112665000Y-85090000D03*
X114665000Y-85090000D03*
X30496000Y-66040000D03*
X32496000Y-66040000D03*
D21*
X112649000Y-91821000D03*
X116205000Y-58166000D03*
D22*
X121158000Y-26178000D03*
D21*
X109855000Y-68580000D03*
X113665000Y-68707000D03*
D23*
X116078000Y-66675000D03*
X106680000Y-72771000D03*
X118618000Y-67564000D03*
X106691000Y-87641000D03*
X106680000Y-75311000D03*
X106691000Y-90308000D03*
X106680000Y-77724000D03*
D21*
X102870000Y-66548000D03*
X102870000Y-57785000D03*
X33655000Y-34290000D03*
X33655000Y-36830000D03*
X33655000Y-39370000D03*
X33655000Y-41910000D03*
X33655000Y-44450000D03*
X33655000Y-49530000D03*
X33655000Y-52070000D03*
X33655000Y-54610000D03*
X33655000Y-57150000D03*
X33655000Y-59690000D03*
X33655000Y-62230000D03*
X33655000Y-64770000D03*
X33655000Y-67310000D03*
X33655000Y-69850000D03*
X33655000Y-72390000D03*
X33655000Y-74930000D03*
X33655000Y-77470000D03*
X33655000Y-80010000D03*
X33655000Y-82550000D03*
X33655000Y-85090000D03*
X33655000Y-87630000D03*
X33655000Y-90170000D03*
X33655000Y-92710000D03*
X115570000Y-89281000D03*
X115570000Y-86741000D03*
X115570000Y-84201000D03*
X115570000Y-81661000D03*
X115570000Y-79121000D03*
X115570000Y-76581000D03*
X115570000Y-74041000D03*
X115570000Y-71501000D03*
D23*
X100965000Y-53340000D03*
D21*
X103759000Y-59817000D03*
D23*
X118745000Y-50800000D03*
D21*
X112395000Y-68580000D03*
X114935000Y-61468000D03*
D24*
X112665000Y-90170000D02*
X112665000Y-72390000D01*
X112665000Y-90170000D02*
X112649000Y-90186000D01*
X112649000Y-90186000D02*
X112649000Y-91821000D01*
X36560000Y-91440000D02*
X36560000Y-33020000D01*
D25*
X118475000Y-91805000D02*
X119380000Y-92710000D01*
D24*
X30496000Y-33020000D02*
X30496000Y-91440000D01*
D25*
X115824000Y-57785000D02*
X116205000Y-58166000D01*
D26*
X121285000Y-92837000D02*
X121285000Y-99187000D01*
D27*
X118491000Y-69850000D02*
X118491000Y-72374000D01*
X118475000Y-90170000D02*
X118475000Y-72390000D01*
D25*
X119380000Y-92710000D02*
X121158000Y-92710000D01*
D24*
X109855000Y-69977000D02*
X118491000Y-69977000D01*
X121158000Y-92710000D02*
X121285000Y-92837000D01*
D25*
X111146500Y-66548000D02*
X111125000Y-66569500D01*
X111125000Y-69342000D02*
X113665000Y-69342000D01*
D28*
X43815000Y-25527000D02*
X43815000Y-98425000D01*
D24*
X118491000Y-72374000D02*
X118475000Y-72390000D01*
D25*
X111125000Y-66569500D02*
X111125000Y-69342000D01*
D24*
X30496000Y-91440000D02*
X30496000Y-88900000D01*
D25*
X118475000Y-90170000D02*
X118475000Y-91805000D01*
D24*
X109855000Y-68580000D02*
X109855000Y-69977000D01*
D25*
X113665000Y-69342000D02*
X113665000Y-68707000D01*
X111146500Y-57785000D02*
X115824000Y-57785000D01*
X109071500Y-57785000D02*
X102870000Y-57785000D01*
X109071500Y-66548000D02*
X102870000Y-66548000D01*
D24*
X32496000Y-33020000D02*
X33655000Y-33020000D01*
X33655000Y-33020000D02*
X33655000Y-34290000D01*
X33655000Y-33020000D02*
X34560000Y-33020000D01*
X33655000Y-35560000D02*
X34560000Y-35560000D01*
X32496000Y-35560000D02*
X33655000Y-35560000D01*
X33655000Y-35560000D02*
X33655000Y-36830000D01*
X33655000Y-38100000D02*
X33655000Y-39370000D01*
X33655000Y-38100000D02*
X34560000Y-38100000D01*
X32496000Y-38100000D02*
X33655000Y-38100000D01*
X32496000Y-40640000D02*
X33655000Y-40640000D01*
X33655000Y-40640000D02*
X34560000Y-40640000D01*
X33655000Y-40640000D02*
X33655000Y-41910000D01*
X33655000Y-43180000D02*
X33655000Y-44450000D01*
X33655000Y-43180000D02*
X34560000Y-43180000D01*
X32496000Y-43180000D02*
X33655000Y-43180000D01*
X33655000Y-48260000D02*
X33655000Y-49530000D01*
X32496000Y-48260000D02*
X33655000Y-48260000D01*
X33655000Y-48260000D02*
X34560000Y-48260000D01*
X33655000Y-50800000D02*
X33655000Y-52070000D01*
X33655000Y-50800000D02*
X34560000Y-50800000D01*
X32496000Y-50800000D02*
X33655000Y-50800000D01*
X33655000Y-53340000D02*
X34560000Y-53340000D01*
X33655000Y-53340000D02*
X33655000Y-54610000D01*
X32496000Y-53340000D02*
X33655000Y-53340000D01*
X33655000Y-55880000D02*
X34560000Y-55880000D01*
X32496000Y-55880000D02*
X33655000Y-55880000D01*
X33655000Y-55880000D02*
X33655000Y-57150000D01*
X32496000Y-58420000D02*
X33655000Y-58420000D01*
X33655000Y-58420000D02*
X33655000Y-59690000D01*
X33655000Y-58420000D02*
X34560000Y-58420000D01*
X33655000Y-60960000D02*
X34560000Y-60960000D01*
X33655000Y-60960000D02*
X33655000Y-62230000D01*
X32496000Y-60960000D02*
X33655000Y-60960000D01*
X33655000Y-63500000D02*
X33655000Y-64770000D01*
X33655000Y-63500000D02*
X34560000Y-63500000D01*
X32496000Y-63500000D02*
X33655000Y-63500000D01*
X33655000Y-66040000D02*
X33655000Y-67310000D01*
X32496000Y-66040000D02*
X33655000Y-66040000D01*
X33655000Y-66040000D02*
X34560000Y-66040000D01*
X32496000Y-68580000D02*
X33655000Y-68580000D01*
X33655000Y-68580000D02*
X33655000Y-69850000D01*
X33655000Y-68580000D02*
X34560000Y-68580000D01*
X32496000Y-71120000D02*
X33655000Y-71120000D01*
X33655000Y-71120000D02*
X34560000Y-71120000D01*
X33655000Y-71120000D02*
X33655000Y-72390000D01*
X33655000Y-73660000D02*
X34560000Y-73660000D01*
X32496000Y-73660000D02*
X33655000Y-73660000D01*
X33655000Y-73660000D02*
X33655000Y-74930000D01*
X33655000Y-76200000D02*
X33655000Y-77470000D01*
X33655000Y-76200000D02*
X34560000Y-76200000D01*
X32496000Y-76200000D02*
X33655000Y-76200000D01*
X33655000Y-78740000D02*
X34560000Y-78740000D01*
X32496000Y-78740000D02*
X33655000Y-78740000D01*
X33655000Y-78740000D02*
X33655000Y-80010000D01*
X32496000Y-81280000D02*
X33655000Y-81280000D01*
X33655000Y-81280000D02*
X34560000Y-81280000D01*
X33655000Y-81280000D02*
X33655000Y-82550000D01*
X32496000Y-83820000D02*
X33655000Y-83820000D01*
X33655000Y-83820000D02*
X34560000Y-83820000D01*
X33655000Y-83820000D02*
X33655000Y-85090000D01*
X33655000Y-86360000D02*
X33655000Y-87630000D01*
X32496000Y-86360000D02*
X33655000Y-86360000D01*
X33655000Y-86360000D02*
X34560000Y-86360000D01*
X32496000Y-88900000D02*
X33655000Y-88900000D01*
X33655000Y-88900000D02*
X33655000Y-90170000D01*
X33655000Y-88900000D02*
X34560000Y-88900000D01*
X33655000Y-91440000D02*
X34560000Y-91440000D01*
X32496000Y-91440000D02*
X33655000Y-91440000D01*
X33655000Y-91440000D02*
X33655000Y-92710000D01*
X115570000Y-89281000D02*
X115570000Y-90170000D01*
X114665000Y-90170000D02*
X116475000Y-90170000D01*
X114665000Y-87630000D02*
X116475000Y-87630000D01*
X115570000Y-86741000D02*
X115570000Y-87630000D01*
X114665000Y-85090000D02*
X116475000Y-85090000D01*
X115570000Y-84201000D02*
X115570000Y-85090000D01*
X115570000Y-81661000D02*
X115570000Y-82550000D01*
X114665000Y-82550000D02*
X116475000Y-82550000D01*
X115570000Y-79121000D02*
X115570000Y-80010000D01*
X114665000Y-80010000D02*
X116475000Y-80010000D01*
X114665000Y-77470000D02*
X116475000Y-77470000D01*
X115570000Y-76581000D02*
X115570000Y-77470000D01*
X114665000Y-74930000D02*
X116475000Y-74930000D01*
X115570000Y-74041000D02*
X115570000Y-74930000D01*
X115570000Y-72390000D02*
X116475000Y-72390000D01*
X114665000Y-72390000D02*
X115570000Y-72390000D01*
X115570000Y-71501000D02*
X115570000Y-72390000D01*
X101600000Y-53975000D02*
X100965000Y-53340000D01*
X103759000Y-59817000D02*
X101600000Y-59817000D01*
X101600000Y-59817000D02*
X101600000Y-53975000D01*
X112395000Y-64008000D02*
X114935000Y-61468000D01*
X112395000Y-68580000D02*
X112395000Y-64008000D01*
G04 #@! TA.AperFunction,Conductor*
G36*
X124460000Y-24430688D02*
G01*
X124460000Y-26670000D01*
X30480000Y-26670000D01*
X26670000Y-30480000D01*
X26670000Y-93980000D01*
X30480000Y-97790000D01*
X124460000Y-97790000D01*
X124460000Y-100029311D01*
X124455681Y-100029500D01*
X25404319Y-100029500D01*
X25395691Y-100029123D01*
X25334100Y-100023734D01*
X25240279Y-100015526D01*
X25223285Y-100012530D01*
X25076777Y-99973273D01*
X25060561Y-99967371D01*
X24923097Y-99903271D01*
X24908152Y-99894642D01*
X24783915Y-99807650D01*
X24770695Y-99796558D01*
X24663441Y-99689304D01*
X24652349Y-99676084D01*
X24565357Y-99551847D01*
X24556728Y-99536902D01*
X24492628Y-99399438D01*
X24486726Y-99383222D01*
X24447467Y-99236707D01*
X24444474Y-99219726D01*
X24430877Y-99064309D01*
X24430500Y-99055681D01*
X24430500Y-97790000D01*
X25364532Y-97790000D01*
X25384363Y-98016684D01*
X25443262Y-98236500D01*
X25539426Y-98442723D01*
X25539434Y-98442737D01*
X25669946Y-98629130D01*
X25669947Y-98629132D01*
X25669950Y-98629135D01*
X25669953Y-98629139D01*
X25830861Y-98790047D01*
X25830864Y-98790049D01*
X25830867Y-98790052D01*
X25830869Y-98790053D01*
X25955131Y-98877061D01*
X26017266Y-98920568D01*
X26017272Y-98920571D01*
X26017276Y-98920573D01*
X26223500Y-99016737D01*
X26223504Y-99016739D01*
X26443308Y-99075635D01*
X26443312Y-99075635D01*
X26443315Y-99075636D01*
X26613208Y-99090500D01*
X26613216Y-99090500D01*
X26726792Y-99090500D01*
X26896684Y-99075636D01*
X26896685Y-99075635D01*
X26896692Y-99075635D01*
X27116496Y-99016739D01*
X27322734Y-98920568D01*
X27509139Y-98790047D01*
X27670047Y-98629139D01*
X27800568Y-98442734D01*
X27896739Y-98236496D01*
X27955635Y-98016692D01*
X27975468Y-97790000D01*
X27955635Y-97563308D01*
X27896739Y-97343504D01*
X27800568Y-97137266D01*
X27670053Y-96950869D01*
X27670052Y-96950867D01*
X27670049Y-96950864D01*
X27670047Y-96950861D01*
X27509139Y-96789953D01*
X27509135Y-96789950D01*
X27509132Y-96789947D01*
X27509130Y-96789946D01*
X27322737Y-96659434D01*
X27322736Y-96659433D01*
X27322734Y-96659432D01*
X27322731Y-96659430D01*
X27322723Y-96659426D01*
X27116499Y-96563262D01*
X27116500Y-96563262D01*
X26971020Y-96524281D01*
X26896692Y-96504365D01*
X26896691Y-96504364D01*
X26896684Y-96504363D01*
X26726792Y-96489500D01*
X26726784Y-96489500D01*
X26613216Y-96489500D01*
X26613208Y-96489500D01*
X26443315Y-96504363D01*
X26223499Y-96563262D01*
X26017276Y-96659426D01*
X26017262Y-96659434D01*
X25830869Y-96789946D01*
X25830867Y-96789947D01*
X25669947Y-96950867D01*
X25669946Y-96950869D01*
X25539434Y-97137262D01*
X25539426Y-97137276D01*
X25443262Y-97343499D01*
X25384363Y-97563315D01*
X25364532Y-97789996D01*
X25364532Y-97790000D01*
X24430500Y-97790000D01*
X24430500Y-26670000D01*
X25364532Y-26670000D01*
X25384363Y-26896684D01*
X25443262Y-27116500D01*
X25539426Y-27322723D01*
X25539434Y-27322737D01*
X25669946Y-27509130D01*
X25669947Y-27509132D01*
X25669950Y-27509135D01*
X25669953Y-27509139D01*
X25830861Y-27670047D01*
X25830864Y-27670049D01*
X25830867Y-27670052D01*
X25830869Y-27670053D01*
X25955131Y-27757061D01*
X26017266Y-27800568D01*
X26017272Y-27800571D01*
X26017276Y-27800573D01*
X26223500Y-27896737D01*
X26223504Y-27896739D01*
X26443308Y-27955635D01*
X26443312Y-27955635D01*
X26443315Y-27955636D01*
X26613208Y-27970500D01*
X26613216Y-27970500D01*
X26726792Y-27970500D01*
X26896684Y-27955636D01*
X26896685Y-27955635D01*
X26896692Y-27955635D01*
X27116496Y-27896739D01*
X27322734Y-27800568D01*
X27509139Y-27670047D01*
X27670047Y-27509139D01*
X27800568Y-27322734D01*
X27896739Y-27116496D01*
X27955635Y-26896692D01*
X27975468Y-26670000D01*
X27955635Y-26443308D01*
X27896739Y-26223504D01*
X27800568Y-26017266D01*
X27670053Y-25830869D01*
X27670052Y-25830867D01*
X27670049Y-25830864D01*
X27670047Y-25830861D01*
X27509139Y-25669953D01*
X27509135Y-25669950D01*
X27509132Y-25669947D01*
X27509130Y-25669946D01*
X27322737Y-25539434D01*
X27322736Y-25539433D01*
X27322734Y-25539432D01*
X27322731Y-25539430D01*
X27322723Y-25539426D01*
X27116499Y-25443262D01*
X27116500Y-25443262D01*
X26955043Y-25400000D01*
X26896692Y-25384365D01*
X26896691Y-25384364D01*
X26896684Y-25384363D01*
X26726792Y-25369500D01*
X26726784Y-25369500D01*
X26613216Y-25369500D01*
X26613208Y-25369500D01*
X26443315Y-25384363D01*
X26223499Y-25443262D01*
X26017276Y-25539426D01*
X26017262Y-25539434D01*
X25830869Y-25669946D01*
X25830867Y-25669947D01*
X25669947Y-25830867D01*
X25669946Y-25830869D01*
X25539434Y-26017262D01*
X25539426Y-26017276D01*
X25443262Y-26223499D01*
X25384363Y-26443315D01*
X25364532Y-26669996D01*
X25364532Y-26670000D01*
X24430500Y-26670000D01*
X24430500Y-25404318D01*
X24430877Y-25395690D01*
X24433168Y-25369500D01*
X24444474Y-25240271D01*
X24447467Y-25223294D01*
X24486727Y-25076773D01*
X24492626Y-25060565D01*
X24556732Y-24923088D01*
X24565351Y-24908160D01*
X24652354Y-24783908D01*
X24663435Y-24770701D01*
X24770701Y-24663435D01*
X24783908Y-24652354D01*
X24908160Y-24565351D01*
X24923088Y-24556732D01*
X25060565Y-24492626D01*
X25076773Y-24486727D01*
X25223294Y-24447467D01*
X25240271Y-24444474D01*
X25395691Y-24430877D01*
X25404319Y-24430500D01*
X25447595Y-24430500D01*
X124412405Y-24430500D01*
X124455681Y-24430500D01*
X124460000Y-24430688D01*
G37*
G04 #@! TD.AperFunction*
G04 #@! TA.AperFunction,Conductor*
G36*
X124464309Y-24430877D02*
G01*
X124619726Y-24444474D01*
X124636707Y-24447467D01*
X124783222Y-24486726D01*
X124799437Y-24492627D01*
X124936905Y-24556730D01*
X124951843Y-24565355D01*
X125066184Y-24645417D01*
X125076084Y-24652349D01*
X125089304Y-24663441D01*
X125196558Y-24770695D01*
X125207650Y-24783915D01*
X125294642Y-24908152D01*
X125303271Y-24923097D01*
X125367371Y-25060561D01*
X125373273Y-25076777D01*
X125412530Y-25223285D01*
X125415526Y-25240279D01*
X125429123Y-25395689D01*
X125429500Y-25404318D01*
X125429500Y-99055681D01*
X125429123Y-99064310D01*
X125415526Y-99219720D01*
X125412530Y-99236714D01*
X125373273Y-99383222D01*
X125367371Y-99399438D01*
X125303271Y-99536902D01*
X125294642Y-99551847D01*
X125207650Y-99676084D01*
X125196558Y-99689304D01*
X125089304Y-99796558D01*
X125076084Y-99807650D01*
X124951847Y-99894642D01*
X124936902Y-99903271D01*
X124799438Y-99967371D01*
X124783222Y-99973273D01*
X124636714Y-100012530D01*
X124619720Y-100015526D01*
X124507099Y-100025379D01*
X124464308Y-100029123D01*
X124460000Y-100029311D01*
X124460000Y-93859500D01*
X124478907Y-93801309D01*
X124528407Y-93765345D01*
X124559000Y-93760500D01*
X124694747Y-93760500D01*
X124694748Y-93760500D01*
X124753231Y-93748867D01*
X124819552Y-93704552D01*
X124863867Y-93638231D01*
X124875500Y-93579748D01*
X124875500Y-91840252D01*
X124863867Y-91781769D01*
X124819552Y-91715448D01*
X124819548Y-91715445D01*
X124753233Y-91671134D01*
X124753231Y-91671133D01*
X124753228Y-91671132D01*
X124753227Y-91671132D01*
X124694758Y-91659501D01*
X124694748Y-91659500D01*
X124559000Y-91659500D01*
X124500809Y-91640593D01*
X124464845Y-91591093D01*
X124460000Y-91560500D01*
X124460000Y-91319500D01*
X124478907Y-91261309D01*
X124528407Y-91225345D01*
X124559000Y-91220500D01*
X124694747Y-91220500D01*
X124694748Y-91220500D01*
X124753231Y-91208867D01*
X124819552Y-91164552D01*
X124863867Y-91098231D01*
X124875500Y-91039748D01*
X124875500Y-89300252D01*
X124863867Y-89241769D01*
X124819552Y-89175448D01*
X124819548Y-89175445D01*
X124753233Y-89131134D01*
X124753231Y-89131133D01*
X124753228Y-89131132D01*
X124753227Y-89131132D01*
X124694758Y-89119501D01*
X124694748Y-89119500D01*
X124559000Y-89119500D01*
X124500809Y-89100593D01*
X124464845Y-89051093D01*
X124460000Y-89020500D01*
X124460000Y-88779500D01*
X124478907Y-88721309D01*
X124528407Y-88685345D01*
X124559000Y-88680500D01*
X124694747Y-88680500D01*
X124694748Y-88680500D01*
X124753231Y-88668867D01*
X124819552Y-88624552D01*
X124863867Y-88558231D01*
X124875500Y-88499748D01*
X124875500Y-86760252D01*
X124863867Y-86701769D01*
X124819552Y-86635448D01*
X124819548Y-86635445D01*
X124753233Y-86591134D01*
X124753231Y-86591133D01*
X124753228Y-86591132D01*
X124753227Y-86591132D01*
X124694758Y-86579501D01*
X124694748Y-86579500D01*
X124559000Y-86579500D01*
X124500809Y-86560593D01*
X124464845Y-86511093D01*
X124460000Y-86480500D01*
X124460000Y-86239500D01*
X124478907Y-86181309D01*
X124528407Y-86145345D01*
X124559000Y-86140500D01*
X124694747Y-86140500D01*
X124694748Y-86140500D01*
X124753231Y-86128867D01*
X124819552Y-86084552D01*
X124863867Y-86018231D01*
X124875500Y-85959748D01*
X124875500Y-84220252D01*
X124863867Y-84161769D01*
X124819552Y-84095448D01*
X124819548Y-84095445D01*
X124753233Y-84051134D01*
X124753231Y-84051133D01*
X124753228Y-84051132D01*
X124753227Y-84051132D01*
X124694758Y-84039501D01*
X124694748Y-84039500D01*
X124559000Y-84039500D01*
X124500809Y-84020593D01*
X124464845Y-83971093D01*
X124460000Y-83940500D01*
X124460000Y-83699500D01*
X124478907Y-83641309D01*
X124528407Y-83605345D01*
X124559000Y-83600500D01*
X124694747Y-83600500D01*
X124694748Y-83600500D01*
X124753231Y-83588867D01*
X124819552Y-83544552D01*
X124863867Y-83478231D01*
X124875500Y-83419748D01*
X124875500Y-81680252D01*
X124863867Y-81621769D01*
X124819552Y-81555448D01*
X124819548Y-81555445D01*
X124753233Y-81511134D01*
X124753231Y-81511133D01*
X124753228Y-81511132D01*
X124753227Y-81511132D01*
X124694758Y-81499501D01*
X124694748Y-81499500D01*
X124559000Y-81499500D01*
X124500809Y-81480593D01*
X124464845Y-81431093D01*
X124460000Y-81400500D01*
X124460000Y-81159500D01*
X124478907Y-81101309D01*
X124528407Y-81065345D01*
X124559000Y-81060500D01*
X124694747Y-81060500D01*
X124694748Y-81060500D01*
X124753231Y-81048867D01*
X124819552Y-81004552D01*
X124863867Y-80938231D01*
X124875500Y-80879748D01*
X124875500Y-79140252D01*
X124863867Y-79081769D01*
X124819552Y-79015448D01*
X124819548Y-79015445D01*
X124753233Y-78971134D01*
X124753231Y-78971133D01*
X124753228Y-78971132D01*
X124753227Y-78971132D01*
X124694758Y-78959501D01*
X124694748Y-78959500D01*
X124559000Y-78959500D01*
X124500809Y-78940593D01*
X124464845Y-78891093D01*
X124460000Y-78860500D01*
X124460000Y-78619500D01*
X124478907Y-78561309D01*
X124528407Y-78525345D01*
X124559000Y-78520500D01*
X124694747Y-78520500D01*
X124694748Y-78520500D01*
X124753231Y-78508867D01*
X124819552Y-78464552D01*
X124863867Y-78398231D01*
X124875500Y-78339748D01*
X124875500Y-76600252D01*
X124863867Y-76541769D01*
X124819552Y-76475448D01*
X124819548Y-76475445D01*
X124753233Y-76431134D01*
X124753231Y-76431133D01*
X124753228Y-76431132D01*
X124753227Y-76431132D01*
X124694758Y-76419501D01*
X124694748Y-76419500D01*
X124559000Y-76419500D01*
X124500809Y-76400593D01*
X124464845Y-76351093D01*
X124460000Y-76320500D01*
X124460000Y-76079500D01*
X124478907Y-76021309D01*
X124528407Y-75985345D01*
X124559000Y-75980500D01*
X124694747Y-75980500D01*
X124694748Y-75980500D01*
X124753231Y-75968867D01*
X124819552Y-75924552D01*
X124863867Y-75858231D01*
X124875500Y-75799748D01*
X124875500Y-74060252D01*
X124863867Y-74001769D01*
X124819552Y-73935448D01*
X124819548Y-73935445D01*
X124753233Y-73891134D01*
X124753231Y-73891133D01*
X124753228Y-73891132D01*
X124753227Y-73891132D01*
X124694758Y-73879501D01*
X124694748Y-73879500D01*
X124559000Y-73879500D01*
X124500809Y-73860593D01*
X124464845Y-73811093D01*
X124460000Y-73780500D01*
X124460000Y-73539500D01*
X124478907Y-73481309D01*
X124528407Y-73445345D01*
X124559000Y-73440500D01*
X124694747Y-73440500D01*
X124694748Y-73440500D01*
X124753231Y-73428867D01*
X124819552Y-73384552D01*
X124863867Y-73318231D01*
X124875500Y-73259748D01*
X124875500Y-71520252D01*
X124863867Y-71461769D01*
X124819552Y-71395448D01*
X124819548Y-71395445D01*
X124753233Y-71351134D01*
X124753231Y-71351133D01*
X124753228Y-71351132D01*
X124753227Y-71351132D01*
X124694758Y-71339501D01*
X124694748Y-71339500D01*
X124559000Y-71339500D01*
X124500809Y-71320593D01*
X124464845Y-71271093D01*
X124460000Y-71240500D01*
X124460000Y-70999500D01*
X124478907Y-70941309D01*
X124528407Y-70905345D01*
X124559000Y-70900500D01*
X124694747Y-70900500D01*
X124694748Y-70900500D01*
X124753231Y-70888867D01*
X124819552Y-70844552D01*
X124863867Y-70778231D01*
X124875500Y-70719748D01*
X124875500Y-68980252D01*
X124863867Y-68921769D01*
X124819552Y-68855448D01*
X124819548Y-68855445D01*
X124753233Y-68811134D01*
X124753231Y-68811133D01*
X124753228Y-68811132D01*
X124753227Y-68811132D01*
X124694758Y-68799501D01*
X124694748Y-68799500D01*
X124559000Y-68799500D01*
X124500809Y-68780593D01*
X124464845Y-68731093D01*
X124460000Y-68700500D01*
X124460000Y-68459500D01*
X124478907Y-68401309D01*
X124528407Y-68365345D01*
X124559000Y-68360500D01*
X124694747Y-68360500D01*
X124694748Y-68360500D01*
X124753231Y-68348867D01*
X124819552Y-68304552D01*
X124863867Y-68238231D01*
X124875500Y-68179748D01*
X124875500Y-66440252D01*
X124863867Y-66381769D01*
X124819552Y-66315448D01*
X124819548Y-66315445D01*
X124753233Y-66271134D01*
X124753231Y-66271133D01*
X124753228Y-66271132D01*
X124753227Y-66271132D01*
X124694758Y-66259501D01*
X124694748Y-66259500D01*
X124559000Y-66259500D01*
X124500809Y-66240593D01*
X124464845Y-66191093D01*
X124460000Y-66160500D01*
X124460000Y-65919500D01*
X124478907Y-65861309D01*
X124528407Y-65825345D01*
X124559000Y-65820500D01*
X124694747Y-65820500D01*
X124694748Y-65820500D01*
X124753231Y-65808867D01*
X124819552Y-65764552D01*
X124863867Y-65698231D01*
X124875500Y-65639748D01*
X124875500Y-63900252D01*
X124863867Y-63841769D01*
X124819552Y-63775448D01*
X124819548Y-63775445D01*
X124753233Y-63731134D01*
X124753231Y-63731133D01*
X124753228Y-63731132D01*
X124753227Y-63731132D01*
X124694758Y-63719501D01*
X124694748Y-63719500D01*
X124559000Y-63719500D01*
X124500809Y-63700593D01*
X124464845Y-63651093D01*
X124460000Y-63620500D01*
X124460000Y-63379500D01*
X124478907Y-63321309D01*
X124528407Y-63285345D01*
X124559000Y-63280500D01*
X124694747Y-63280500D01*
X124694748Y-63280500D01*
X124753231Y-63268867D01*
X124819552Y-63224552D01*
X124863867Y-63158231D01*
X124875500Y-63099748D01*
X124875500Y-61360252D01*
X124863867Y-61301769D01*
X124819552Y-61235448D01*
X124819548Y-61235445D01*
X124753233Y-61191134D01*
X124753231Y-61191133D01*
X124753228Y-61191132D01*
X124753227Y-61191132D01*
X124694758Y-61179501D01*
X124694748Y-61179500D01*
X124559000Y-61179500D01*
X124500809Y-61160593D01*
X124464845Y-61111093D01*
X124460000Y-61080500D01*
X124460000Y-60839500D01*
X124478907Y-60781309D01*
X124528407Y-60745345D01*
X124559000Y-60740500D01*
X124694747Y-60740500D01*
X124694748Y-60740500D01*
X124753231Y-60728867D01*
X124819552Y-60684552D01*
X124863867Y-60618231D01*
X124875500Y-60559748D01*
X124875500Y-58820252D01*
X124863867Y-58761769D01*
X124819552Y-58695448D01*
X124819548Y-58695445D01*
X124753233Y-58651134D01*
X124753231Y-58651133D01*
X124753228Y-58651132D01*
X124753227Y-58651132D01*
X124694758Y-58639501D01*
X124694748Y-58639500D01*
X124559000Y-58639500D01*
X124500809Y-58620593D01*
X124464845Y-58571093D01*
X124460000Y-58540500D01*
X124460000Y-58299500D01*
X124478907Y-58241309D01*
X124528407Y-58205345D01*
X124559000Y-58200500D01*
X124694747Y-58200500D01*
X124694748Y-58200500D01*
X124753231Y-58188867D01*
X124819552Y-58144552D01*
X124863867Y-58078231D01*
X124875500Y-58019748D01*
X124875500Y-56280252D01*
X124863867Y-56221769D01*
X124819552Y-56155448D01*
X124819548Y-56155445D01*
X124753233Y-56111134D01*
X124753231Y-56111133D01*
X124753228Y-56111132D01*
X124753227Y-56111132D01*
X124694758Y-56099501D01*
X124694748Y-56099500D01*
X124559000Y-56099500D01*
X124500809Y-56080593D01*
X124464845Y-56031093D01*
X124460000Y-56000500D01*
X124460000Y-55759500D01*
X124478907Y-55701309D01*
X124528407Y-55665345D01*
X124559000Y-55660500D01*
X124694747Y-55660500D01*
X124694748Y-55660500D01*
X124753231Y-55648867D01*
X124819552Y-55604552D01*
X124863867Y-55538231D01*
X124875500Y-55479748D01*
X124875500Y-53740252D01*
X124863867Y-53681769D01*
X124819552Y-53615448D01*
X124819548Y-53615445D01*
X124753233Y-53571134D01*
X124753231Y-53571133D01*
X124753228Y-53571132D01*
X124753227Y-53571132D01*
X124694758Y-53559501D01*
X124694748Y-53559500D01*
X124559000Y-53559500D01*
X124500809Y-53540593D01*
X124464845Y-53491093D01*
X124460000Y-53460500D01*
X124460000Y-53219500D01*
X124478907Y-53161309D01*
X124528407Y-53125345D01*
X124559000Y-53120500D01*
X124694747Y-53120500D01*
X124694748Y-53120500D01*
X124753231Y-53108867D01*
X124819552Y-53064552D01*
X124863867Y-52998231D01*
X124875500Y-52939748D01*
X124875500Y-51200252D01*
X124863867Y-51141769D01*
X124819552Y-51075448D01*
X124819548Y-51075445D01*
X124753233Y-51031134D01*
X124753231Y-51031133D01*
X124753228Y-51031132D01*
X124753227Y-51031132D01*
X124694758Y-51019501D01*
X124694748Y-51019500D01*
X124559000Y-51019500D01*
X124500809Y-51000593D01*
X124464845Y-50951093D01*
X124460000Y-50920500D01*
X124460000Y-50679500D01*
X124478907Y-50621309D01*
X124528407Y-50585345D01*
X124559000Y-50580500D01*
X124694747Y-50580500D01*
X124694748Y-50580500D01*
X124753231Y-50568867D01*
X124819552Y-50524552D01*
X124863867Y-50458231D01*
X124875500Y-50399748D01*
X124875500Y-48660252D01*
X124863867Y-48601769D01*
X124819552Y-48535448D01*
X124819548Y-48535445D01*
X124753233Y-48491134D01*
X124753231Y-48491133D01*
X124753228Y-48491132D01*
X124753227Y-48491132D01*
X124694758Y-48479501D01*
X124694748Y-48479500D01*
X124559000Y-48479500D01*
X124500809Y-48460593D01*
X124464845Y-48411093D01*
X124460000Y-48380500D01*
X124460000Y-48139500D01*
X124478907Y-48081309D01*
X124528407Y-48045345D01*
X124559000Y-48040500D01*
X124694747Y-48040500D01*
X124694748Y-48040500D01*
X124753231Y-48028867D01*
X124819552Y-47984552D01*
X124863867Y-47918231D01*
X124875500Y-47859748D01*
X124875500Y-46120252D01*
X124863867Y-46061769D01*
X124819552Y-45995448D01*
X124819548Y-45995445D01*
X124753233Y-45951134D01*
X124753231Y-45951133D01*
X124753228Y-45951132D01*
X124753227Y-45951132D01*
X124694758Y-45939501D01*
X124694748Y-45939500D01*
X124559000Y-45939500D01*
X124500809Y-45920593D01*
X124464845Y-45871093D01*
X124460000Y-45840500D01*
X124460000Y-45599500D01*
X124478907Y-45541309D01*
X124528407Y-45505345D01*
X124559000Y-45500500D01*
X124694747Y-45500500D01*
X124694748Y-45500500D01*
X124753231Y-45488867D01*
X124819552Y-45444552D01*
X124863867Y-45378231D01*
X124875500Y-45319748D01*
X124875500Y-43580252D01*
X124863867Y-43521769D01*
X124819552Y-43455448D01*
X124819548Y-43455445D01*
X124753233Y-43411134D01*
X124753231Y-43411133D01*
X124753228Y-43411132D01*
X124753227Y-43411132D01*
X124694758Y-43399501D01*
X124694748Y-43399500D01*
X124559000Y-43399500D01*
X124500809Y-43380593D01*
X124464845Y-43331093D01*
X124460000Y-43300500D01*
X124460000Y-43059500D01*
X124478907Y-43001309D01*
X124528407Y-42965345D01*
X124559000Y-42960500D01*
X124694747Y-42960500D01*
X124694748Y-42960500D01*
X124753231Y-42948867D01*
X124819552Y-42904552D01*
X124863867Y-42838231D01*
X124875500Y-42779748D01*
X124875500Y-41040252D01*
X124863867Y-40981769D01*
X124819552Y-40915448D01*
X124819548Y-40915445D01*
X124753233Y-40871134D01*
X124753231Y-40871133D01*
X124753228Y-40871132D01*
X124753227Y-40871132D01*
X124694758Y-40859501D01*
X124694748Y-40859500D01*
X124559000Y-40859500D01*
X124500809Y-40840593D01*
X124464845Y-40791093D01*
X124460000Y-40760500D01*
X124460000Y-40519500D01*
X124478907Y-40461309D01*
X124528407Y-40425345D01*
X124559000Y-40420500D01*
X124694747Y-40420500D01*
X124694748Y-40420500D01*
X124753231Y-40408867D01*
X124819552Y-40364552D01*
X124863867Y-40298231D01*
X124875500Y-40239748D01*
X124875500Y-38500252D01*
X124863867Y-38441769D01*
X124819552Y-38375448D01*
X124819548Y-38375445D01*
X124753233Y-38331134D01*
X124753231Y-38331133D01*
X124753228Y-38331132D01*
X124753227Y-38331132D01*
X124694758Y-38319501D01*
X124694748Y-38319500D01*
X124559000Y-38319500D01*
X124500809Y-38300593D01*
X124464845Y-38251093D01*
X124460000Y-38220500D01*
X124460000Y-37979500D01*
X124478907Y-37921309D01*
X124528407Y-37885345D01*
X124559000Y-37880500D01*
X124694747Y-37880500D01*
X124694748Y-37880500D01*
X124753231Y-37868867D01*
X124819552Y-37824552D01*
X124863867Y-37758231D01*
X124875500Y-37699748D01*
X124875500Y-35960252D01*
X124863867Y-35901769D01*
X124819552Y-35835448D01*
X124819548Y-35835445D01*
X124753233Y-35791134D01*
X124753231Y-35791133D01*
X124753228Y-35791132D01*
X124753227Y-35791132D01*
X124694758Y-35779501D01*
X124694748Y-35779500D01*
X124559000Y-35779500D01*
X124500809Y-35760593D01*
X124464845Y-35711093D01*
X124460000Y-35680500D01*
X124460000Y-35439500D01*
X124478907Y-35381309D01*
X124528407Y-35345345D01*
X124559000Y-35340500D01*
X124694747Y-35340500D01*
X124694748Y-35340500D01*
X124753231Y-35328867D01*
X124819552Y-35284552D01*
X124863867Y-35218231D01*
X124875500Y-35159748D01*
X124875500Y-33420252D01*
X124863867Y-33361769D01*
X124819552Y-33295448D01*
X124819548Y-33295445D01*
X124753233Y-33251134D01*
X124753231Y-33251133D01*
X124753228Y-33251132D01*
X124753227Y-33251132D01*
X124694758Y-33239501D01*
X124694748Y-33239500D01*
X124559000Y-33239500D01*
X124500809Y-33220593D01*
X124464845Y-33171093D01*
X124460000Y-33140500D01*
X124460000Y-32899500D01*
X124478907Y-32841309D01*
X124528407Y-32805345D01*
X124559000Y-32800500D01*
X124694747Y-32800500D01*
X124694748Y-32800500D01*
X124753231Y-32788867D01*
X124819552Y-32744552D01*
X124863867Y-32678231D01*
X124875500Y-32619748D01*
X124875500Y-30880252D01*
X124863867Y-30821769D01*
X124819552Y-30755448D01*
X124819548Y-30755445D01*
X124753233Y-30711134D01*
X124753231Y-30711133D01*
X124753228Y-30711132D01*
X124753227Y-30711132D01*
X124694758Y-30699501D01*
X124694748Y-30699500D01*
X124559000Y-30699500D01*
X124500809Y-30680593D01*
X124464845Y-30631093D01*
X124460000Y-30600500D01*
X124460000Y-26670001D01*
X124460000Y-24430688D01*
X124464309Y-24430877D01*
G37*
G04 #@! TD.AperFunction*
M02*
