G04 #@! TF.GenerationSoftware,KiCad,Pcbnew,7.0.10*
G04 #@! TF.CreationDate,2024-01-05T09:54:04+01:00*
G04 #@! TF.ProjectId,MopSequencer,4d6f7053-6571-4756-956e-6365722e6b69,rev?*
G04 #@! TF.SameCoordinates,Original*
G04 #@! TF.FileFunction,Soldermask,Bot*
G04 #@! TF.FilePolarity,Negative*
%FSLAX46Y46*%
G04 Gerber Fmt 4.6, Leading zero omitted, Abs format (unit mm)*
G04 Created by KiCad (PCBNEW 7.0.10) date 2024-01-05 09:54:04*
%MOMM*%
%LPD*%
G01*
G04 APERTURE LIST*
G04 Aperture macros list*
%AMRoundRect*
0 Rectangle with rounded corners*
0 $1 Rounding radius*
0 $2 $3 $4 $5 $6 $7 $8 $9 X,Y pos of 4 corners*
0 Add a 4 corners polygon primitive as box body*
4,1,4,$2,$3,$4,$5,$6,$7,$8,$9,$2,$3,0*
0 Add four circle primitives for the rounded corners*
1,1,$1+$1,$2,$3*
1,1,$1+$1,$4,$5*
1,1,$1+$1,$6,$7*
1,1,$1+$1,$8,$9*
0 Add four rect primitives between the rounded corners*
20,1,$1+$1,$2,$3,$4,$5,0*
20,1,$1+$1,$4,$5,$6,$7,0*
20,1,$1+$1,$6,$7,$8,$9,0*
20,1,$1+$1,$8,$9,$2,$3,0*%
G04 Aperture macros list end*
%ADD10C,1.500000*%
%ADD11C,0.950000*%
%ADD12R,1.500000X1.800000*%
%ADD13R,1.500000X1.500000*%
%ADD14R,1.800000X1.500000*%
%ADD15C,2.200000*%
%ADD16R,1.800000X1.800000*%
%ADD17RoundRect,0.250000X0.350000X0.450000X-0.350000X0.450000X-0.350000X-0.450000X0.350000X-0.450000X0*%
%ADD18RoundRect,0.250000X-0.350000X-0.450000X0.350000X-0.450000X0.350000X0.450000X-0.350000X0.450000X0*%
%ADD19RoundRect,0.250000X-0.337500X-0.475000X0.337500X-0.475000X0.337500X0.475000X-0.337500X0.475000X0*%
%ADD20R,1.700000X1.700000*%
%ADD21R,1.800000X1.700000*%
G04 APERTURE END LIST*
D10*
X45339000Y-49403000D02*
X72263000Y-49403000D01*
X72517000Y-77343000D02*
X99441000Y-77343000D01*
X45339000Y-35433000D02*
X72263000Y-35433000D01*
D11*
X107144000Y-75311000D02*
G75*
G03*
X106194000Y-75311000I-475000J0D01*
G01*
X106194000Y-75311000D02*
G75*
G03*
X107144000Y-75311000I475000J0D01*
G01*
X107155000Y-87641000D02*
G75*
G03*
X106205000Y-87641000I-475000J0D01*
G01*
X106205000Y-87641000D02*
G75*
G03*
X107155000Y-87641000I475000J0D01*
G01*
D10*
X72644000Y-89281000D02*
X99568000Y-89281000D01*
D11*
X107144000Y-77724000D02*
G75*
G03*
X106194000Y-77724000I-475000J0D01*
G01*
X106194000Y-77724000D02*
G75*
G03*
X107144000Y-77724000I475000J0D01*
G01*
D10*
X72644000Y-61341000D02*
X99568000Y-61341000D01*
X72517000Y-35433000D02*
X99441000Y-35433000D01*
X72644000Y-47371000D02*
X99568000Y-47371000D01*
X72517000Y-91313000D02*
X99441000Y-91313000D01*
X72644000Y-75311000D02*
X99568000Y-75311000D01*
D11*
X119082000Y-67564000D02*
G75*
G03*
X118132000Y-67564000I-475000J0D01*
G01*
X118132000Y-67564000D02*
G75*
G03*
X119082000Y-67564000I475000J0D01*
G01*
D10*
X72644000Y-33401000D02*
X99568000Y-33401000D01*
X45339000Y-77343000D02*
X72263000Y-77343000D01*
X45466000Y-61341000D02*
X72390000Y-61341000D01*
D11*
X119209000Y-50800000D02*
G75*
G03*
X118259000Y-50800000I-475000J0D01*
G01*
X118259000Y-50800000D02*
G75*
G03*
X119209000Y-50800000I475000J0D01*
G01*
D10*
X45466000Y-75311000D02*
X72390000Y-75311000D01*
D11*
X107144000Y-72771000D02*
G75*
G03*
X106194000Y-72771000I-475000J0D01*
G01*
X106194000Y-72771000D02*
G75*
G03*
X107144000Y-72771000I475000J0D01*
G01*
X116553000Y-66675000D02*
G75*
G03*
X115603000Y-66675000I-475000J0D01*
G01*
X115603000Y-66675000D02*
G75*
G03*
X116553000Y-66675000I475000J0D01*
G01*
D10*
X72517000Y-49403000D02*
X99441000Y-49403000D01*
X45466000Y-47371000D02*
X72390000Y-47371000D01*
X45339000Y-63373000D02*
X72263000Y-63373000D01*
D11*
X107155000Y-90308000D02*
G75*
G03*
X106205000Y-90308000I-475000J0D01*
G01*
X106205000Y-90308000D02*
G75*
G03*
X107155000Y-90308000I475000J0D01*
G01*
D10*
X45466000Y-33401000D02*
X72390000Y-33401000D01*
X45339000Y-91313000D02*
X72263000Y-91313000D01*
X45466000Y-89281000D02*
X72390000Y-89281000D01*
D11*
X101429000Y-53340000D02*
G75*
G03*
X100479000Y-53340000I-475000J0D01*
G01*
X100479000Y-53340000D02*
G75*
G03*
X101429000Y-53340000I475000J0D01*
G01*
D10*
X72517000Y-63373000D02*
X99441000Y-63373000D01*
D12*
X68834000Y-67376800D03*
X49276000Y-81346800D03*
X51308000Y-71154800D03*
X66802000Y-95316800D03*
X76200000Y-85124800D03*
X93726000Y-67376800D03*
X99822000Y-57150000D03*
X74168000Y-95316800D03*
D13*
X103505000Y-34290000D03*
X105505000Y-34290000D03*
X107505000Y-34290000D03*
X109505000Y-34290000D03*
X111505000Y-34290000D03*
X113505000Y-34290000D03*
X115505000Y-34290000D03*
X117505000Y-34290000D03*
D12*
X97790000Y-39436800D03*
X87630000Y-67376800D03*
X97790000Y-67376800D03*
X87630000Y-67376800D03*
X80264000Y-39436800D03*
X87680800Y-53390800D03*
X53340000Y-85124800D03*
X60706000Y-29244800D03*
X55372000Y-57184800D03*
X93726000Y-85124800D03*
X89662000Y-85124800D03*
X99822000Y-71120000D03*
X95758000Y-43214800D03*
D14*
X59055001Y-35340800D03*
X59055001Y-33340800D03*
D12*
X80264000Y-53406800D03*
D14*
X45593001Y-91220800D03*
X45593001Y-89220800D03*
D12*
X84328000Y-95316800D03*
X97790000Y-95316800D03*
X70866000Y-57184800D03*
X91694000Y-81346800D03*
X66802000Y-67376800D03*
X78232000Y-29244800D03*
D14*
X72516999Y-63280800D03*
X72516999Y-61280800D03*
X59055001Y-91220800D03*
X59055001Y-89220800D03*
D12*
X47244000Y-43214800D03*
X84328000Y-67376800D03*
X66802000Y-81346800D03*
X93726000Y-81346800D03*
X78232000Y-95316800D03*
D14*
X100177600Y-91204800D03*
X100177600Y-89204800D03*
D13*
X103505000Y-38100000D03*
X105505000Y-38100000D03*
X107505000Y-38100000D03*
X109505000Y-38100000D03*
X111505000Y-38100000D03*
X113505000Y-38100000D03*
X115505000Y-38100000D03*
X117505000Y-38100000D03*
D12*
X57404000Y-85124800D03*
X97790000Y-81346800D03*
X51308000Y-57184800D03*
D15*
X26670000Y-97790000D03*
D12*
X74168000Y-85124800D03*
X76200000Y-29244800D03*
D14*
X72516999Y-77250800D03*
X72516999Y-75250800D03*
D12*
X97790000Y-81346800D03*
X64770000Y-39436800D03*
X74168000Y-43214800D03*
X99822000Y-85090000D03*
X55372000Y-81346800D03*
X80264000Y-71154800D03*
X76200000Y-43214800D03*
D15*
X26670000Y-26670000D03*
D12*
X78232000Y-39436800D03*
X76200000Y-71154800D03*
X89662000Y-67376800D03*
X91694000Y-57184800D03*
X87630000Y-81346800D03*
X62738000Y-57184800D03*
X51308000Y-53406800D03*
X60706000Y-95316800D03*
X70866000Y-43214800D03*
X51308000Y-81346800D03*
X68834000Y-85124800D03*
D14*
X72517001Y-91220800D03*
X72517001Y-89220800D03*
D12*
X60706000Y-85124800D03*
X60706000Y-53406800D03*
X62738000Y-81346800D03*
X91694000Y-53406800D03*
X93726000Y-85124800D03*
X95758000Y-81346800D03*
D14*
X59055001Y-63280800D03*
X59055001Y-61280800D03*
D12*
X66802000Y-43214800D03*
D14*
X72516999Y-49310800D03*
X72516999Y-47310800D03*
X85979001Y-63280800D03*
X85979001Y-61280800D03*
X59055001Y-49310800D03*
X59055001Y-47310800D03*
D12*
X57404000Y-95316800D03*
X62738000Y-39436800D03*
X49276000Y-39436800D03*
D14*
X99440999Y-35340800D03*
X99440999Y-33340800D03*
D12*
X99771200Y-95300800D03*
X62738000Y-53406800D03*
X89662000Y-71154800D03*
X80264000Y-57184800D03*
X95758000Y-85124800D03*
X97790000Y-95316800D03*
X64770000Y-71154800D03*
D14*
X85979001Y-77250800D03*
X85979001Y-75250800D03*
D12*
X51308000Y-43214800D03*
X78232000Y-67376800D03*
X74168000Y-81346800D03*
X93726000Y-43214800D03*
X97790000Y-53406800D03*
X80264000Y-67376800D03*
X62738000Y-43214800D03*
D14*
X100177600Y-77234800D03*
X100177600Y-75234800D03*
D12*
X49276000Y-95316800D03*
X70866000Y-53406800D03*
X80264000Y-85124800D03*
X76200000Y-81346800D03*
X91694000Y-67376800D03*
D14*
X100177600Y-91204800D03*
X100177600Y-89204800D03*
D12*
X55372000Y-95316800D03*
X53340000Y-71154800D03*
X80264000Y-29244800D03*
X49276000Y-53406800D03*
X49276000Y-29244800D03*
X62738000Y-95316800D03*
X82296000Y-71154800D03*
X80264000Y-81346800D03*
D13*
X103505000Y-40005000D03*
X105505000Y-40005000D03*
X107505000Y-40005000D03*
X109505000Y-40005000D03*
X111505000Y-40005000D03*
X113505000Y-40005000D03*
X115505000Y-40005000D03*
X117505000Y-40005000D03*
X103505000Y-45720000D03*
X105505000Y-45720000D03*
X107505000Y-45720000D03*
X109505000Y-45720000D03*
X111505000Y-45720000D03*
X113505000Y-45720000D03*
X115505000Y-45720000D03*
X117505000Y-45720000D03*
D12*
X53340000Y-95316800D03*
X53340000Y-81346800D03*
X55372000Y-53406800D03*
X97790000Y-57184800D03*
X89662000Y-57184800D03*
X82296000Y-67376800D03*
X84328000Y-29244800D03*
X87630000Y-71154800D03*
X76200000Y-57184800D03*
X53340000Y-39436800D03*
X99822000Y-57150000D03*
D13*
X103505000Y-47625000D03*
X105505000Y-47625000D03*
X107505000Y-47625000D03*
X109505000Y-47625000D03*
X111505000Y-47625000D03*
X113505000Y-47625000D03*
X115505000Y-47625000D03*
X117505000Y-47625000D03*
D12*
X68834000Y-39436800D03*
X93726000Y-57184800D03*
X47244000Y-85124800D03*
D13*
X103505000Y-43815000D03*
X105505000Y-43815000D03*
X107505000Y-43815000D03*
X109505000Y-43815000D03*
X111505000Y-43815000D03*
X113505000Y-43815000D03*
X115505000Y-43815000D03*
X117505000Y-43815000D03*
D12*
X78232000Y-43214800D03*
X60706000Y-39436800D03*
X53340000Y-43214800D03*
X95758000Y-29244800D03*
X60706000Y-71154800D03*
X87630000Y-71154800D03*
X82296000Y-53406800D03*
X66802000Y-71154800D03*
X60706000Y-67376800D03*
X64770000Y-57184800D03*
X47244000Y-71154800D03*
X60706000Y-57184800D03*
X76200000Y-95316800D03*
X64770000Y-81346800D03*
X87630000Y-95316800D03*
X95758000Y-53406800D03*
X64770000Y-53406800D03*
X93726000Y-81346800D03*
X62738000Y-67376800D03*
X51308000Y-39436800D03*
X47244000Y-29244800D03*
X87630000Y-95316800D03*
X78232000Y-71154800D03*
X47244000Y-57184800D03*
X91694000Y-85124800D03*
X70866000Y-29244800D03*
X97790000Y-29244800D03*
X68834000Y-29244800D03*
X84328000Y-53406800D03*
X91694000Y-57184800D03*
X60706000Y-43214800D03*
X82296000Y-39436800D03*
X87630000Y-81346800D03*
X91694000Y-71154800D03*
X70866000Y-71154800D03*
X70866000Y-67376800D03*
X91694000Y-67376800D03*
X99771200Y-95300800D03*
X89662000Y-57184800D03*
X95758000Y-71154800D03*
X89662000Y-43214800D03*
X64770000Y-67376800D03*
X66802000Y-85124800D03*
D14*
X100177600Y-63264800D03*
X100177600Y-61264800D03*
D12*
X91694000Y-39436800D03*
X87630000Y-57184800D03*
X47244000Y-39436800D03*
X57404000Y-29244800D03*
X74168000Y-57184800D03*
X97790000Y-85124800D03*
X68834000Y-57184800D03*
X93726000Y-57184800D03*
X78232000Y-85124800D03*
X62738000Y-29244800D03*
X95758000Y-81346800D03*
X84328000Y-39436800D03*
X87630000Y-39436800D03*
X74168000Y-53406800D03*
X82296000Y-29244800D03*
X97790000Y-67376800D03*
D14*
X100177600Y-63264800D03*
X100177600Y-61264800D03*
D12*
X82296000Y-57184800D03*
D14*
X100177600Y-77234800D03*
X100177600Y-75234800D03*
D12*
X95758000Y-67376800D03*
D14*
X72517001Y-77250800D03*
X72517001Y-75250800D03*
D12*
X74168000Y-67376800D03*
X55372000Y-39436800D03*
X53340000Y-67376800D03*
D14*
X45593001Y-77250800D03*
X45593001Y-75250800D03*
D12*
X95758000Y-57184800D03*
X76200000Y-39436800D03*
X97790000Y-71154800D03*
X91694000Y-95316800D03*
X74168000Y-29244800D03*
X87630000Y-85124800D03*
X51308000Y-29244800D03*
X97790000Y-57184800D03*
X74168000Y-71154800D03*
X87630000Y-43214800D03*
D14*
X85979001Y-35340800D03*
X85979001Y-33340800D03*
D12*
X95758000Y-67376800D03*
X87630000Y-85124800D03*
X87630000Y-29244800D03*
X70866000Y-39436800D03*
X49276000Y-85124800D03*
X82296000Y-85124800D03*
D14*
X45593001Y-63280800D03*
X45593001Y-61280800D03*
X72517001Y-49310800D03*
X72517001Y-47310800D03*
D12*
X91694000Y-29244800D03*
X55372000Y-67376800D03*
X89662000Y-53406800D03*
X82296000Y-81346800D03*
X93726000Y-67376800D03*
X93726000Y-71154800D03*
X97790000Y-85124800D03*
X84328000Y-57184800D03*
X53340000Y-29244800D03*
X93726000Y-29244800D03*
X93726000Y-53406800D03*
X70866000Y-85124800D03*
X89662000Y-85124800D03*
D14*
X72517001Y-63280800D03*
X72517001Y-61280800D03*
D12*
X89662000Y-95316800D03*
X89662000Y-81346800D03*
X89662000Y-39436800D03*
X89662000Y-71154800D03*
X57404000Y-39436800D03*
X64770000Y-43214800D03*
X57404000Y-43214800D03*
X49276000Y-57184800D03*
X62738000Y-71154800D03*
X51308000Y-95316800D03*
X99822000Y-85090000D03*
X64770000Y-29244800D03*
X55372000Y-43214800D03*
D16*
X41910000Y-33020000D03*
X41910000Y-35560000D03*
X41910000Y-38100000D03*
X41910000Y-40640000D03*
X41910000Y-43180000D03*
X41910000Y-45720000D03*
X41910000Y-48260000D03*
X41910000Y-50800000D03*
X41910000Y-53340000D03*
X41910000Y-55880000D03*
X41910000Y-58420000D03*
X41910000Y-60960000D03*
X41910000Y-63500000D03*
X41910000Y-66040000D03*
X41910000Y-68580000D03*
X41910000Y-71120000D03*
X41910000Y-73660000D03*
X41910000Y-76200000D03*
X41910000Y-78740000D03*
X41910000Y-81280000D03*
X41910000Y-83820000D03*
X41910000Y-86360000D03*
X41910000Y-88900000D03*
X41910000Y-91440000D03*
D12*
X49276000Y-67376800D03*
X95758000Y-95316800D03*
D14*
X45593001Y-35340800D03*
X45593001Y-33340800D03*
D12*
X47244000Y-53406800D03*
X64770000Y-95316800D03*
X97790000Y-43214800D03*
X55372000Y-71154800D03*
X47244000Y-81346800D03*
X84328000Y-81346800D03*
D14*
X85979001Y-49310800D03*
X85979001Y-47310800D03*
D13*
X103505000Y-36195000D03*
X105505000Y-36195000D03*
X107505000Y-36195000D03*
X109505000Y-36195000D03*
X111505000Y-36195000D03*
X113505000Y-36195000D03*
X115505000Y-36195000D03*
X117505000Y-36195000D03*
D12*
X95758000Y-85124800D03*
X95758000Y-57184800D03*
X93726000Y-95316800D03*
X99771200Y-67360800D03*
X57404000Y-53406800D03*
X51308000Y-67376800D03*
X91694000Y-95316800D03*
X93726000Y-71154800D03*
X66802000Y-57184800D03*
X57404000Y-57184800D03*
X57404000Y-67376800D03*
X70866000Y-95316800D03*
X89662000Y-67376800D03*
X78232000Y-57184800D03*
X91694000Y-71154800D03*
X80264000Y-95316800D03*
X89662000Y-29244800D03*
X76200000Y-53406800D03*
X95758000Y-39436800D03*
X91694000Y-81346800D03*
X99771200Y-81330800D03*
D14*
X72516999Y-35340800D03*
X72516999Y-33340800D03*
X85979001Y-91220800D03*
X85979001Y-89220800D03*
D12*
X70866000Y-81346800D03*
X91694000Y-43214800D03*
X95758000Y-71154800D03*
X78232000Y-53406800D03*
X60706000Y-81346800D03*
D14*
X72516999Y-91220800D03*
X72516999Y-89220800D03*
D12*
X99822000Y-71120000D03*
X57404000Y-81346800D03*
X74168000Y-39436800D03*
X68834000Y-53406800D03*
X53340000Y-53406800D03*
D13*
X103505000Y-32385000D03*
X105505000Y-32385000D03*
X107505000Y-32385000D03*
X109505000Y-32385000D03*
X111505000Y-32385000D03*
X113505000Y-32385000D03*
X115505000Y-32385000D03*
X117505000Y-32385000D03*
D12*
X84328000Y-71154800D03*
X64770000Y-85124800D03*
X57404000Y-71154800D03*
X97790000Y-71154800D03*
D13*
X103505000Y-30480000D03*
X105505000Y-30480000D03*
X107505000Y-30480000D03*
X109505000Y-30480000D03*
X111505000Y-30480000D03*
X113505000Y-30480000D03*
X115505000Y-30480000D03*
X117505000Y-30480000D03*
D12*
X78232000Y-81346800D03*
X66802000Y-39436800D03*
X89662000Y-81346800D03*
X99771200Y-67360800D03*
X68834000Y-43214800D03*
X62738000Y-85124800D03*
X68834000Y-71154800D03*
X93726000Y-95316800D03*
X84328000Y-85124800D03*
D13*
X103505000Y-41910000D03*
X105505000Y-41910000D03*
X107505000Y-41910000D03*
X109505000Y-41910000D03*
X111505000Y-41910000D03*
X113505000Y-41910000D03*
X115505000Y-41910000D03*
X117505000Y-41910000D03*
D12*
X80264000Y-43214800D03*
X53340000Y-57184800D03*
X49276000Y-43214800D03*
X84328000Y-43214800D03*
X51308000Y-85124800D03*
X55372000Y-85124800D03*
D14*
X72517001Y-35340800D03*
X72517001Y-33340800D03*
D12*
X93726000Y-39436800D03*
D14*
X99440999Y-49310800D03*
X99440999Y-47310800D03*
D12*
X47244000Y-67376800D03*
X95758000Y-95316800D03*
X47244000Y-95316800D03*
X68834000Y-95316800D03*
X87630000Y-57184800D03*
X76200000Y-67376800D03*
D14*
X85979001Y-91220800D03*
X85979001Y-89220800D03*
D12*
X49276000Y-71154800D03*
X82296000Y-95316800D03*
X66802000Y-29244800D03*
X68834000Y-81346800D03*
D14*
X59055001Y-77250800D03*
X59055001Y-75250800D03*
D12*
X89662000Y-95316800D03*
X66802000Y-53406800D03*
X55372000Y-29244800D03*
D14*
X45593001Y-49310800D03*
X45593001Y-47310800D03*
D12*
X82296000Y-43214800D03*
X99771200Y-81330800D03*
D17*
X36560000Y-81280000D03*
X34560000Y-81280000D03*
X36560000Y-50800000D03*
X34560000Y-50800000D03*
X118475000Y-85090000D03*
X116475000Y-85090000D03*
D18*
X112665000Y-77470000D03*
X114665000Y-77470000D03*
D17*
X118475000Y-82550000D03*
X116475000Y-82550000D03*
D18*
X30496000Y-91440000D03*
X32496000Y-91440000D03*
X112665000Y-80010000D03*
X114665000Y-80010000D03*
D17*
X36560000Y-43180000D03*
X34560000Y-43180000D03*
X36560000Y-71120000D03*
X34560000Y-71120000D03*
D18*
X30496000Y-71120000D03*
X32496000Y-71120000D03*
D17*
X118475000Y-77470000D03*
X116475000Y-77470000D03*
D18*
X30496000Y-88900000D03*
X32496000Y-88900000D03*
D17*
X36560000Y-78740000D03*
X34560000Y-78740000D03*
X36560000Y-83820000D03*
X34560000Y-83820000D03*
X118475000Y-90170000D03*
X116475000Y-90170000D03*
D18*
X30496000Y-40640000D03*
X32496000Y-40640000D03*
X30496000Y-33020000D03*
X32496000Y-33020000D03*
X30496000Y-50800000D03*
X32496000Y-50800000D03*
X30496000Y-45720000D03*
X32496000Y-45720000D03*
D17*
X36560000Y-91440000D03*
X34560000Y-91440000D03*
X36560000Y-45720000D03*
X34560000Y-45720000D03*
X36560000Y-58420000D03*
X34560000Y-58420000D03*
X118475000Y-74930000D03*
X116475000Y-74930000D03*
D18*
X30496000Y-73660000D03*
X32496000Y-73660000D03*
X30496000Y-83820000D03*
X32496000Y-83820000D03*
X30496000Y-38100000D03*
X32496000Y-38100000D03*
D17*
X36560000Y-73660000D03*
X34560000Y-73660000D03*
X118475000Y-72390000D03*
X116475000Y-72390000D03*
D18*
X30496000Y-35560000D03*
X32496000Y-35560000D03*
D17*
X36560000Y-33020000D03*
X34560000Y-33020000D03*
X118475000Y-87630000D03*
X116475000Y-87630000D03*
D18*
X112665000Y-87630000D03*
X114665000Y-87630000D03*
X30496000Y-78740000D03*
X32496000Y-78740000D03*
D17*
X36560000Y-38100000D03*
X34560000Y-38100000D03*
D18*
X30496000Y-76200000D03*
X32496000Y-76200000D03*
D17*
X36560000Y-35560000D03*
X34560000Y-35560000D03*
X36560000Y-88900000D03*
X34560000Y-88900000D03*
D18*
X30496000Y-86360000D03*
X32496000Y-86360000D03*
D17*
X36560000Y-86360000D03*
X34560000Y-86360000D03*
D18*
X30496000Y-81280000D03*
X32496000Y-81280000D03*
X30496000Y-68580000D03*
X32496000Y-68580000D03*
D17*
X36560000Y-53340000D03*
X34560000Y-53340000D03*
X36560000Y-68580000D03*
X34560000Y-68580000D03*
D18*
X30496000Y-55880000D03*
X32496000Y-55880000D03*
X112665000Y-72390000D03*
X114665000Y-72390000D03*
D19*
X109071500Y-66548000D03*
X111146500Y-66548000D03*
D17*
X36560000Y-40640000D03*
X34560000Y-40640000D03*
D18*
X30496000Y-58420000D03*
X32496000Y-58420000D03*
D17*
X36560000Y-76200000D03*
X34560000Y-76200000D03*
X118475000Y-80010000D03*
X116475000Y-80010000D03*
D18*
X30496000Y-60960000D03*
X32496000Y-60960000D03*
X30496000Y-53340000D03*
X32496000Y-53340000D03*
X30496000Y-63500000D03*
X32496000Y-63500000D03*
D19*
X109071500Y-57785000D03*
X111146500Y-57785000D03*
D17*
X36560000Y-60960000D03*
X34560000Y-60960000D03*
D18*
X112665000Y-90170000D03*
X114665000Y-90170000D03*
D17*
X36560000Y-48260000D03*
X34560000Y-48260000D03*
D20*
X123825000Y-31750000D03*
X121285000Y-31750000D03*
X123825000Y-34290000D03*
X121285000Y-34290000D03*
X123825000Y-36830000D03*
X121285000Y-36830000D03*
X123825000Y-39370000D03*
X121285000Y-39370000D03*
X123825000Y-41910000D03*
X121285000Y-41910000D03*
X123825000Y-44450000D03*
X121285000Y-44450000D03*
X123825000Y-46990000D03*
X121285000Y-46990000D03*
X123825000Y-49530000D03*
X121285000Y-49530000D03*
X123825000Y-52070000D03*
X121285000Y-52070000D03*
X123825000Y-54610000D03*
X121285000Y-54610000D03*
X123825000Y-57150000D03*
X121285000Y-57150000D03*
X123825000Y-59690000D03*
X121285000Y-59690000D03*
X123825000Y-62230000D03*
X121285000Y-62230000D03*
X123825000Y-64770000D03*
X121285000Y-64770000D03*
X123825000Y-67310000D03*
X121285000Y-67310000D03*
X123825000Y-69850000D03*
X121285000Y-69850000D03*
X123825000Y-72390000D03*
X121285000Y-72390000D03*
X123825000Y-74930000D03*
X121285000Y-74930000D03*
X123825000Y-77470000D03*
X121285000Y-77470000D03*
X123825000Y-80010000D03*
X121285000Y-80010000D03*
X123825000Y-82550000D03*
X121285000Y-82550000D03*
X123825000Y-85090000D03*
X121285000Y-85090000D03*
X123825000Y-87630000D03*
X121285000Y-87630000D03*
X123825000Y-90170000D03*
X121285000Y-90170000D03*
X123825000Y-92710000D03*
X121285000Y-92710000D03*
D18*
X112665000Y-82550000D03*
X114665000Y-82550000D03*
D17*
X36560000Y-63500000D03*
X34560000Y-63500000D03*
D21*
X27940000Y-33020000D03*
X27940000Y-35560000D03*
X27940000Y-38100000D03*
X27940000Y-40640000D03*
X27940000Y-43180000D03*
X27940000Y-45720000D03*
X27940000Y-48260000D03*
X27940000Y-50800000D03*
X27940000Y-53340000D03*
X27940000Y-55880000D03*
X27940000Y-58420000D03*
X27940000Y-60960000D03*
X27940000Y-63500000D03*
X27940000Y-66040000D03*
X27940000Y-68580000D03*
X27940000Y-71120000D03*
X27940000Y-73660000D03*
X27940000Y-76200000D03*
X27940000Y-78740000D03*
X27940000Y-81280000D03*
X27940000Y-83820000D03*
X27940000Y-86360000D03*
X27940000Y-88900000D03*
X27940000Y-91440000D03*
D18*
X112665000Y-74930000D03*
X114665000Y-74930000D03*
D17*
X36560000Y-66040000D03*
X34560000Y-66040000D03*
D18*
X30496000Y-43180000D03*
X32496000Y-43180000D03*
D17*
X36560000Y-55880000D03*
X34560000Y-55880000D03*
D18*
X30496000Y-48260000D03*
X32496000Y-48260000D03*
X112665000Y-85090000D03*
X114665000Y-85090000D03*
X30496000Y-66040000D03*
X32496000Y-66040000D03*
M02*
