M48
; DRILL file {KiCad 7.0.10} date Friday, January 05, 2024 at 09:54:14 am
; FORMAT={-:-/ absolute / metric / decimal}
; #@! TF.CreationDate,2024-01-05T09:54:14+01:00
; #@! TF.GenerationSoftware,Kicad,Pcbnew,7.0.10
; #@! TF.FileFunction,Plated,1,2,PTH
FMAT,2
METRIC
; #@! TA.AperFunction,Plated,PTH,ViaDrill
T1C0.300
; #@! TA.AperFunction,Plated,PTH,ViaDrill
T2C0.500
; #@! TA.AperFunction,Plated,PTH,ViaDrill
T3C0.900
; #@! TA.AperFunction,Plated,PTH,ComponentDrill
T4C0.900
; #@! TA.AperFunction,Plated,PTH,ComponentDrill
T5C1.000
%
G90
G05
T1
X33.655Y-34.29
X33.655Y-36.83
X33.655Y-39.37
X33.655Y-41.91
X33.655Y-44.45
X33.655Y-49.53
X33.655Y-52.07
X33.655Y-54.61
X33.655Y-57.15
X33.655Y-59.69
X33.655Y-62.23
X33.655Y-64.77
X33.655Y-67.31
X33.655Y-69.85
X33.655Y-72.39
X33.655Y-74.93
X33.655Y-77.47
X33.655Y-80.01
X33.655Y-82.55
X33.655Y-85.09
X33.655Y-87.63
X33.655Y-90.17
X33.655Y-92.71
X102.87Y-57.785
X102.87Y-66.548
X103.759Y-59.817
X109.855Y-68.58
X112.395Y-68.58
X112.649Y-91.821
X113.665Y-68.707
X114.935Y-61.468
X115.57Y-71.501
X115.57Y-74.041
X115.57Y-76.581
X115.57Y-79.121
X115.57Y-81.661
X115.57Y-84.201
X115.57Y-86.741
X115.57Y-89.281
X116.205Y-58.166
T2
X121.158Y-26.178
T3
X100.965Y-53.34
X106.68Y-72.771
X106.68Y-75.311
X106.68Y-77.724
X106.691Y-87.641
X106.691Y-90.308
X116.078Y-66.675
X118.618Y-67.564
X118.745Y-50.8
T4
X45.593Y-33.341
X45.593Y-35.341
X45.593Y-47.311
X45.593Y-49.311
X45.593Y-61.281
X45.593Y-63.281
X45.593Y-75.251
X45.593Y-77.251
X45.593Y-89.221
X45.593Y-91.221
X47.244Y-29.245
X47.244Y-39.437
X47.244Y-43.215
X47.244Y-53.407
X47.244Y-57.185
X47.244Y-67.377
X47.244Y-71.155
X47.244Y-81.347
X47.244Y-85.125
X47.244Y-95.317
X49.276Y-29.245
X49.276Y-39.437
X49.276Y-43.215
X49.276Y-53.407
X49.276Y-57.185
X49.276Y-67.377
X49.276Y-71.155
X49.276Y-81.347
X49.276Y-85.125
X49.276Y-95.317
X51.308Y-29.245
X51.308Y-39.437
X51.308Y-43.215
X51.308Y-53.407
X51.308Y-57.185
X51.308Y-67.377
X51.308Y-71.155
X51.308Y-81.347
X51.308Y-85.125
X51.308Y-95.317
X53.34Y-29.245
X53.34Y-39.437
X53.34Y-43.215
X53.34Y-53.407
X53.34Y-57.185
X53.34Y-67.377
X53.34Y-71.155
X53.34Y-81.347
X53.34Y-85.125
X53.34Y-95.317
X55.372Y-29.245
X55.372Y-39.437
X55.372Y-43.215
X55.372Y-53.407
X55.372Y-57.185
X55.372Y-67.377
X55.372Y-71.155
X55.372Y-81.347
X55.372Y-85.125
X55.372Y-95.317
X57.404Y-29.245
X57.404Y-39.437
X57.404Y-43.215
X57.404Y-53.407
X57.404Y-57.185
X57.404Y-67.377
X57.404Y-71.155
X57.404Y-81.347
X57.404Y-85.125
X57.404Y-95.317
X59.055Y-33.341
X59.055Y-35.341
X59.055Y-47.311
X59.055Y-49.311
X59.055Y-61.281
X59.055Y-63.281
X59.055Y-75.251
X59.055Y-77.251
X59.055Y-89.221
X59.055Y-91.221
X60.706Y-29.245
X60.706Y-39.437
X60.706Y-43.215
X60.706Y-53.407
X60.706Y-57.185
X60.706Y-67.377
X60.706Y-71.155
X60.706Y-81.347
X60.706Y-85.125
X60.706Y-95.317
X62.738Y-29.245
X62.738Y-39.437
X62.738Y-43.215
X62.738Y-53.407
X62.738Y-57.185
X62.738Y-67.377
X62.738Y-71.155
X62.738Y-81.347
X62.738Y-85.125
X62.738Y-95.317
X64.77Y-29.245
X64.77Y-39.437
X64.77Y-43.215
X64.77Y-53.407
X64.77Y-57.185
X64.77Y-67.377
X64.77Y-71.155
X64.77Y-81.347
X64.77Y-85.125
X64.77Y-95.317
X66.802Y-29.245
X66.802Y-39.437
X66.802Y-43.215
X66.802Y-53.407
X66.802Y-57.185
X66.802Y-67.377
X66.802Y-71.155
X66.802Y-81.347
X66.802Y-85.125
X66.802Y-95.317
X68.834Y-29.245
X68.834Y-39.437
X68.834Y-43.215
X68.834Y-53.407
X68.834Y-57.185
X68.834Y-67.377
X68.834Y-71.155
X68.834Y-81.347
X68.834Y-85.125
X68.834Y-95.317
X70.866Y-29.245
X70.866Y-39.437
X70.866Y-43.215
X70.866Y-53.407
X70.866Y-57.185
X70.866Y-67.377
X70.866Y-71.155
X70.866Y-81.347
X70.866Y-85.125
X70.866Y-95.317
X72.517Y-33.341
X72.517Y-35.341
X72.517Y-47.311
X72.517Y-49.311
X72.517Y-61.281
X72.517Y-63.281
X72.517Y-75.251
X72.517Y-77.251
X72.517Y-89.221
X72.517Y-91.221
X72.517Y-33.341
X72.517Y-35.341
X72.517Y-47.311
X72.517Y-49.311
X72.517Y-61.281
X72.517Y-63.281
X72.517Y-75.251
X72.517Y-77.251
X72.517Y-89.221
X72.517Y-91.221
X74.168Y-29.245
X74.168Y-39.437
X74.168Y-43.215
X74.168Y-53.407
X74.168Y-57.185
X74.168Y-67.377
X74.168Y-71.155
X74.168Y-81.347
X74.168Y-85.125
X74.168Y-95.317
X76.2Y-29.245
X76.2Y-39.437
X76.2Y-43.215
X76.2Y-53.407
X76.2Y-57.185
X76.2Y-67.377
X76.2Y-71.155
X76.2Y-81.347
X76.2Y-85.125
X76.2Y-95.317
X78.232Y-29.245
X78.232Y-39.437
X78.232Y-43.215
X78.232Y-53.407
X78.232Y-57.185
X78.232Y-67.377
X78.232Y-71.155
X78.232Y-81.347
X78.232Y-85.125
X78.232Y-95.317
X80.264Y-29.245
X80.264Y-39.437
X80.264Y-43.215
X80.264Y-53.407
X80.264Y-57.185
X80.264Y-67.377
X80.264Y-71.155
X80.264Y-81.347
X80.264Y-85.125
X80.264Y-95.317
X82.296Y-29.245
X82.296Y-39.437
X82.296Y-43.215
X82.296Y-53.407
X82.296Y-57.185
X82.296Y-67.377
X82.296Y-71.155
X82.296Y-81.347
X82.296Y-85.125
X82.296Y-95.317
X84.328Y-29.245
X84.328Y-39.437
X84.328Y-43.215
X84.328Y-53.407
X84.328Y-57.185
X84.328Y-67.377
X84.328Y-71.155
X84.328Y-81.347
X84.328Y-85.125
X84.328Y-95.317
X85.979Y-33.341
X85.979Y-35.341
X85.979Y-47.311
X85.979Y-49.311
X85.979Y-61.281
X85.979Y-63.281
X85.979Y-75.251
X85.979Y-77.251
X85.979Y-89.221
X85.979Y-89.221
X85.979Y-91.221
X85.979Y-91.221
X87.63Y-29.245
X87.63Y-39.437
X87.63Y-43.215
X87.63Y-57.185
X87.63Y-57.185
X87.63Y-67.377
X87.63Y-67.377
X87.63Y-71.155
X87.63Y-71.155
X87.63Y-81.347
X87.63Y-81.347
X87.63Y-85.125
X87.63Y-85.125
X87.63Y-95.317
X87.63Y-95.317
X87.681Y-53.391
X89.662Y-29.245
X89.662Y-39.437
X89.662Y-43.215
X89.662Y-53.407
X89.662Y-57.185
X89.662Y-57.185
X89.662Y-67.377
X89.662Y-67.377
X89.662Y-71.155
X89.662Y-71.155
X89.662Y-81.347
X89.662Y-81.347
X89.662Y-85.125
X89.662Y-85.125
X89.662Y-95.317
X89.662Y-95.317
X91.694Y-29.245
X91.694Y-39.437
X91.694Y-43.215
X91.694Y-53.407
X91.694Y-57.185
X91.694Y-57.185
X91.694Y-67.377
X91.694Y-67.377
X91.694Y-71.155
X91.694Y-71.155
X91.694Y-81.347
X91.694Y-81.347
X91.694Y-85.125
X91.694Y-95.317
X91.694Y-95.317
X93.726Y-29.245
X93.726Y-39.437
X93.726Y-43.215
X93.726Y-53.407
X93.726Y-57.185
X93.726Y-57.185
X93.726Y-67.377
X93.726Y-67.377
X93.726Y-71.155
X93.726Y-71.155
X93.726Y-81.347
X93.726Y-81.347
X93.726Y-85.125
X93.726Y-85.125
X93.726Y-95.317
X93.726Y-95.317
X95.758Y-29.245
X95.758Y-39.437
X95.758Y-43.215
X95.758Y-53.407
X95.758Y-57.185
X95.758Y-57.185
X95.758Y-67.377
X95.758Y-67.377
X95.758Y-71.155
X95.758Y-71.155
X95.758Y-81.347
X95.758Y-81.347
X95.758Y-85.125
X95.758Y-85.125
X95.758Y-95.317
X95.758Y-95.317
X97.79Y-29.245
X97.79Y-39.437
X97.79Y-43.215
X97.79Y-53.407
X97.79Y-57.185
X97.79Y-57.185
X97.79Y-67.377
X97.79Y-67.377
X97.79Y-71.155
X97.79Y-71.155
X97.79Y-81.347
X97.79Y-81.347
X97.79Y-85.125
X97.79Y-85.125
X97.79Y-95.317
X97.79Y-95.317
X99.441Y-33.341
X99.441Y-35.341
X99.441Y-47.311
X99.441Y-49.311
X99.771Y-67.361
X99.771Y-67.361
X99.771Y-81.331
X99.771Y-81.331
X99.771Y-95.301
X99.771Y-95.301
X99.822Y-57.15
X99.822Y-57.15
X99.822Y-71.12
X99.822Y-71.12
X99.822Y-85.09
X99.822Y-85.09
X100.178Y-61.265
X100.178Y-61.265
X100.178Y-63.265
X100.178Y-63.265
X100.178Y-75.235
X100.178Y-75.235
X100.178Y-77.235
X100.178Y-77.235
X100.178Y-89.205
X100.178Y-89.205
X100.178Y-91.205
X100.178Y-91.205
X103.505Y-30.48
X103.505Y-32.385
X103.505Y-34.29
X103.505Y-36.195
X103.505Y-38.1
X103.505Y-40.005
X103.505Y-41.91
X103.505Y-43.815
X103.505Y-45.72
X103.505Y-47.625
X105.505Y-30.48
X105.505Y-32.385
X105.505Y-34.29
X105.505Y-36.195
X105.505Y-38.1
X105.505Y-40.005
X105.505Y-41.91
X105.505Y-43.815
X105.505Y-45.72
X105.505Y-47.625
X107.505Y-30.48
X107.505Y-32.385
X107.505Y-34.29
X107.505Y-36.195
X107.505Y-38.1
X107.505Y-40.005
X107.505Y-41.91
X107.505Y-43.815
X107.505Y-45.72
X107.505Y-47.625
X109.505Y-30.48
X109.505Y-32.385
X109.505Y-34.29
X109.505Y-36.195
X109.505Y-38.1
X109.505Y-40.005
X109.505Y-41.91
X109.505Y-43.815
X109.505Y-45.72
X109.505Y-47.625
X111.505Y-30.48
X111.505Y-32.385
X111.505Y-34.29
X111.505Y-36.195
X111.505Y-38.1
X111.505Y-40.005
X111.505Y-41.91
X111.505Y-43.815
X111.505Y-45.72
X111.505Y-47.625
X113.505Y-30.48
X113.505Y-32.385
X113.505Y-34.29
X113.505Y-36.195
X113.505Y-38.1
X113.505Y-40.005
X113.505Y-41.91
X113.505Y-43.815
X113.505Y-45.72
X113.505Y-47.625
X115.505Y-30.48
X115.505Y-32.385
X115.505Y-34.29
X115.505Y-36.195
X115.505Y-38.1
X115.505Y-40.005
X115.505Y-41.91
X115.505Y-43.815
X115.505Y-45.72
X115.505Y-47.625
X117.505Y-30.48
X117.505Y-32.385
X117.505Y-34.29
X117.505Y-36.195
X117.505Y-38.1
X117.505Y-40.005
X117.505Y-41.91
X117.505Y-43.815
X117.505Y-45.72
X117.505Y-47.625
T5
X27.94Y-33.02
X27.94Y-35.56
X27.94Y-38.1
X27.94Y-40.64
X27.94Y-43.18
X27.94Y-45.72
X27.94Y-48.26
X27.94Y-50.8
X27.94Y-53.34
X27.94Y-55.88
X27.94Y-58.42
X27.94Y-60.96
X27.94Y-63.5
X27.94Y-66.04
X27.94Y-68.58
X27.94Y-71.12
X27.94Y-73.66
X27.94Y-76.2
X27.94Y-78.74
X27.94Y-81.28
X27.94Y-83.82
X27.94Y-86.36
X27.94Y-88.9
X27.94Y-91.44
X41.91Y-33.02
X41.91Y-35.56
X41.91Y-38.1
X41.91Y-40.64
X41.91Y-43.18
X41.91Y-45.72
X41.91Y-48.26
X41.91Y-50.8
X41.91Y-53.34
X41.91Y-55.88
X41.91Y-58.42
X41.91Y-60.96
X41.91Y-63.5
X41.91Y-66.04
X41.91Y-68.58
X41.91Y-71.12
X41.91Y-73.66
X41.91Y-76.2
X41.91Y-78.74
X41.91Y-81.28
X41.91Y-83.82
X41.91Y-86.36
X41.91Y-88.9
X41.91Y-91.44
X121.285Y-31.75
X121.285Y-34.29
X121.285Y-36.83
X121.285Y-39.37
X121.285Y-41.91
X121.285Y-44.45
X121.285Y-46.99
X121.285Y-49.53
X121.285Y-52.07
X121.285Y-54.61
X121.285Y-57.15
X121.285Y-59.69
X121.285Y-62.23
X121.285Y-64.77
X121.285Y-67.31
X121.285Y-69.85
X121.285Y-72.39
X121.285Y-74.93
X121.285Y-77.47
X121.285Y-80.01
X121.285Y-82.55
X121.285Y-85.09
X121.285Y-87.63
X121.285Y-90.17
X121.285Y-92.71
X123.825Y-31.75
X123.825Y-34.29
X123.825Y-36.83
X123.825Y-39.37
X123.825Y-41.91
X123.825Y-44.45
X123.825Y-46.99
X123.825Y-49.53
X123.825Y-52.07
X123.825Y-54.61
X123.825Y-57.15
X123.825Y-59.69
X123.825Y-62.23
X123.825Y-64.77
X123.825Y-67.31
X123.825Y-69.85
X123.825Y-72.39
X123.825Y-74.93
X123.825Y-77.47
X123.825Y-80.01
X123.825Y-82.55
X123.825Y-85.09
X123.825Y-87.63
X123.825Y-90.17
X123.825Y-92.71
M30
