G04 #@! TF.GenerationSoftware,KiCad,Pcbnew,7.0.10*
G04 #@! TF.CreationDate,2024-01-05T09:54:04+01:00*
G04 #@! TF.ProjectId,MopSequencer,4d6f7053-6571-4756-956e-6365722e6b69,rev?*
G04 #@! TF.SameCoordinates,Original*
G04 #@! TF.FileFunction,Paste,Top*
G04 #@! TF.FilePolarity,Positive*
%FSLAX46Y46*%
G04 Gerber Fmt 4.6, Leading zero omitted, Abs format (unit mm)*
G04 Created by KiCad (PCBNEW 7.0.10) date 2024-01-05 09:54:04*
%MOMM*%
%LPD*%
G01*
G04 APERTURE LIST*
G04 Aperture macros list*
%AMRoundRect*
0 Rectangle with rounded corners*
0 $1 Rounding radius*
0 $2 $3 $4 $5 $6 $7 $8 $9 X,Y pos of 4 corners*
0 Add a 4 corners polygon primitive as box body*
4,1,4,$2,$3,$4,$5,$6,$7,$8,$9,$2,$3,0*
0 Add four circle primitives for the rounded corners*
1,1,$1+$1,$2,$3*
1,1,$1+$1,$4,$5*
1,1,$1+$1,$6,$7*
1,1,$1+$1,$8,$9*
0 Add four rect primitives between the rounded corners*
20,1,$1+$1,$2,$3,$4,$5,0*
20,1,$1+$1,$4,$5,$6,$7,0*
20,1,$1+$1,$6,$7,$8,$9,0*
20,1,$1+$1,$8,$9,$2,$3,0*%
G04 Aperture macros list end*
%ADD10RoundRect,0.250000X0.412500X0.650000X-0.412500X0.650000X-0.412500X-0.650000X0.412500X-0.650000X0*%
%ADD11RoundRect,0.150000X0.150000X-0.825000X0.150000X0.825000X-0.150000X0.825000X-0.150000X-0.825000X0*%
%ADD12RoundRect,0.250000X0.325000X0.450000X-0.325000X0.450000X-0.325000X-0.450000X0.325000X-0.450000X0*%
%ADD13RoundRect,0.250000X-0.325000X-0.450000X0.325000X-0.450000X0.325000X0.450000X-0.325000X0.450000X0*%
%ADD14RoundRect,0.250000X0.450000X-0.350000X0.450000X0.350000X-0.450000X0.350000X-0.450000X-0.350000X0*%
%ADD15RoundRect,0.250000X-0.450000X0.350000X-0.450000X-0.350000X0.450000X-0.350000X0.450000X0.350000X0*%
%ADD16RoundRect,0.250000X-0.450000X0.325000X-0.450000X-0.325000X0.450000X-0.325000X0.450000X0.325000X0*%
%ADD17RoundRect,0.150000X0.150000X-0.875000X0.150000X0.875000X-0.150000X0.875000X-0.150000X-0.875000X0*%
%ADD18RoundRect,0.250000X-0.475000X0.337500X-0.475000X-0.337500X0.475000X-0.337500X0.475000X0.337500X0*%
%ADD19RoundRect,0.137500X0.137500X-0.662500X0.137500X0.662500X-0.137500X0.662500X-0.137500X-0.662500X0*%
G04 APERTURE END LIST*
D10*
X122974500Y-96647000D03*
X119849500Y-96647000D03*
D11*
X88900000Y-92645000D03*
X90170000Y-92645000D03*
X91440000Y-92645000D03*
X92710000Y-92645000D03*
X93980000Y-92645000D03*
X95250000Y-92645000D03*
X96520000Y-92645000D03*
X97790000Y-92645000D03*
X97790000Y-87695000D03*
X96520000Y-87695000D03*
X95250000Y-87695000D03*
X93980000Y-87695000D03*
X92710000Y-87695000D03*
X91440000Y-87695000D03*
X90170000Y-87695000D03*
X88900000Y-87695000D03*
D12*
X118500000Y-90170000D03*
X116450000Y-90170000D03*
D13*
X30471000Y-48260000D03*
X32521000Y-48260000D03*
X30471000Y-40640000D03*
X32521000Y-40640000D03*
X30471000Y-78740000D03*
X32521000Y-78740000D03*
D11*
X75438000Y-64739800D03*
X76708000Y-64739800D03*
X77978000Y-64739800D03*
X79248000Y-64739800D03*
X80518000Y-64739800D03*
X81788000Y-64739800D03*
X83058000Y-64739800D03*
X83058000Y-59789800D03*
X81788000Y-59789800D03*
X80518000Y-59789800D03*
X79248000Y-59789800D03*
X77978000Y-59789800D03*
X76708000Y-59789800D03*
X75438000Y-59789800D03*
D14*
X118745000Y-64738000D03*
X118745000Y-62738000D03*
D11*
X61976000Y-36799800D03*
X63246000Y-36799800D03*
X64516000Y-36799800D03*
X65786000Y-36799800D03*
X67056000Y-36799800D03*
X68326000Y-36799800D03*
X69596000Y-36799800D03*
X69596000Y-31849800D03*
X68326000Y-31849800D03*
X67056000Y-31849800D03*
X65786000Y-31849800D03*
X64516000Y-31849800D03*
X63246000Y-31849800D03*
X61976000Y-31849800D03*
X48514000Y-64739800D03*
X49784000Y-64739800D03*
X51054000Y-64739800D03*
X52324000Y-64739800D03*
X53594000Y-64739800D03*
X54864000Y-64739800D03*
X56134000Y-64739800D03*
X56134000Y-59789800D03*
X54864000Y-59789800D03*
X53594000Y-59789800D03*
X52324000Y-59789800D03*
X51054000Y-59789800D03*
X49784000Y-59789800D03*
X48514000Y-59789800D03*
X61976000Y-50769800D03*
X63246000Y-50769800D03*
X64516000Y-50769800D03*
X65786000Y-50769800D03*
X67056000Y-50769800D03*
X68326000Y-50769800D03*
X69596000Y-50769800D03*
X69596000Y-45819800D03*
X68326000Y-45819800D03*
X67056000Y-45819800D03*
X65786000Y-45819800D03*
X64516000Y-45819800D03*
X63246000Y-45819800D03*
X61976000Y-45819800D03*
D15*
X116205000Y-62754000D03*
X116205000Y-64754000D03*
D11*
X88900000Y-36799800D03*
X90170000Y-36799800D03*
X91440000Y-36799800D03*
X92710000Y-36799800D03*
X93980000Y-36799800D03*
X95250000Y-36799800D03*
X96520000Y-36799800D03*
X96520000Y-31849800D03*
X95250000Y-31849800D03*
X93980000Y-31849800D03*
X92710000Y-31849800D03*
X91440000Y-31849800D03*
X90170000Y-31849800D03*
X88900000Y-31849800D03*
X48514000Y-92679800D03*
X49784000Y-92679800D03*
X51054000Y-92679800D03*
X52324000Y-92679800D03*
X53594000Y-92679800D03*
X54864000Y-92679800D03*
X56134000Y-92679800D03*
X56134000Y-87729800D03*
X54864000Y-87729800D03*
X53594000Y-87729800D03*
X52324000Y-87729800D03*
X51054000Y-87729800D03*
X49784000Y-87729800D03*
X48514000Y-87729800D03*
D13*
X30471000Y-38100000D03*
X32521000Y-38100000D03*
D11*
X75438000Y-92679800D03*
X76708000Y-92679800D03*
X77978000Y-92679800D03*
X79248000Y-92679800D03*
X80518000Y-92679800D03*
X81788000Y-92679800D03*
X83058000Y-92679800D03*
X83058000Y-87729800D03*
X81788000Y-87729800D03*
X80518000Y-87729800D03*
X79248000Y-87729800D03*
X77978000Y-87729800D03*
X76708000Y-87729800D03*
X75438000Y-87729800D03*
D13*
X30471000Y-53340000D03*
X32521000Y-53340000D03*
D15*
X122301000Y-25162000D03*
X122301000Y-27162000D03*
D11*
X88900000Y-92645000D03*
X90170000Y-92645000D03*
X91440000Y-92645000D03*
X92710000Y-92645000D03*
X93980000Y-92645000D03*
X95250000Y-92645000D03*
X96520000Y-92645000D03*
X97790000Y-92645000D03*
X97790000Y-87695000D03*
X96520000Y-87695000D03*
X95250000Y-87695000D03*
X93980000Y-87695000D03*
X92710000Y-87695000D03*
X91440000Y-87695000D03*
X90170000Y-87695000D03*
X88900000Y-87695000D03*
X75438000Y-50769800D03*
X76708000Y-50769800D03*
X77978000Y-50769800D03*
X79248000Y-50769800D03*
X80518000Y-50769800D03*
X81788000Y-50769800D03*
X83058000Y-50769800D03*
X83058000Y-45819800D03*
X81788000Y-45819800D03*
X80518000Y-45819800D03*
X79248000Y-45819800D03*
X77978000Y-45819800D03*
X76708000Y-45819800D03*
X75438000Y-45819800D03*
X75438000Y-78709800D03*
X76708000Y-78709800D03*
X77978000Y-78709800D03*
X79248000Y-78709800D03*
X80518000Y-78709800D03*
X81788000Y-78709800D03*
X83058000Y-78709800D03*
X83058000Y-73759800D03*
X81788000Y-73759800D03*
X80518000Y-73759800D03*
X79248000Y-73759800D03*
X77978000Y-73759800D03*
X76708000Y-73759800D03*
X75438000Y-73759800D03*
D13*
X30471000Y-71120000D03*
X32521000Y-71120000D03*
X30471000Y-55880000D03*
X32521000Y-55880000D03*
D11*
X61976000Y-78709800D03*
X63246000Y-78709800D03*
X64516000Y-78709800D03*
X65786000Y-78709800D03*
X67056000Y-78709800D03*
X68326000Y-78709800D03*
X69596000Y-78709800D03*
X69596000Y-73759800D03*
X68326000Y-73759800D03*
X67056000Y-73759800D03*
X65786000Y-73759800D03*
X64516000Y-73759800D03*
X63246000Y-73759800D03*
X61976000Y-73759800D03*
D13*
X30471000Y-60960000D03*
X32521000Y-60960000D03*
D16*
X124333000Y-25137000D03*
X124333000Y-27187000D03*
D13*
X30471000Y-81280000D03*
X32521000Y-81280000D03*
X30471000Y-50800000D03*
X32521000Y-50800000D03*
D11*
X88900000Y-64705000D03*
X90170000Y-64705000D03*
X91440000Y-64705000D03*
X92710000Y-64705000D03*
X93980000Y-64705000D03*
X95250000Y-64705000D03*
X96520000Y-64705000D03*
X97790000Y-64705000D03*
X97790000Y-59755000D03*
X96520000Y-59755000D03*
X95250000Y-59755000D03*
X93980000Y-59755000D03*
X92710000Y-59755000D03*
X91440000Y-59755000D03*
X90170000Y-59755000D03*
X88900000Y-59755000D03*
D12*
X118500000Y-87630000D03*
X116450000Y-87630000D03*
D17*
X104775000Y-59895000D03*
X106045000Y-59895000D03*
X107315000Y-59895000D03*
X108585000Y-59895000D03*
X109855000Y-59895000D03*
X111125000Y-59895000D03*
X112395000Y-59895000D03*
X113665000Y-59895000D03*
X114935000Y-59895000D03*
X116205000Y-59895000D03*
X116205000Y-50595000D03*
X114935000Y-50595000D03*
X113665000Y-50595000D03*
X112395000Y-50595000D03*
X111125000Y-50595000D03*
X109855000Y-50595000D03*
X108585000Y-50595000D03*
X107315000Y-50595000D03*
X106045000Y-50595000D03*
X104775000Y-50595000D03*
D13*
X30471000Y-91440000D03*
X32521000Y-91440000D03*
D18*
X120015000Y-25124500D03*
X120015000Y-27199500D03*
D11*
X48514000Y-78709800D03*
X49784000Y-78709800D03*
X51054000Y-78709800D03*
X52324000Y-78709800D03*
X53594000Y-78709800D03*
X54864000Y-78709800D03*
X56134000Y-78709800D03*
X56134000Y-73759800D03*
X54864000Y-73759800D03*
X53594000Y-73759800D03*
X52324000Y-73759800D03*
X51054000Y-73759800D03*
X49784000Y-73759800D03*
X48514000Y-73759800D03*
X88900000Y-78675000D03*
X90170000Y-78675000D03*
X91440000Y-78675000D03*
X92710000Y-78675000D03*
X93980000Y-78675000D03*
X95250000Y-78675000D03*
X96520000Y-78675000D03*
X97790000Y-78675000D03*
X97790000Y-73725000D03*
X96520000Y-73725000D03*
X95250000Y-73725000D03*
X93980000Y-73725000D03*
X92710000Y-73725000D03*
X91440000Y-73725000D03*
X90170000Y-73725000D03*
X88900000Y-73725000D03*
X48514000Y-50769800D03*
X49784000Y-50769800D03*
X51054000Y-50769800D03*
X52324000Y-50769800D03*
X53594000Y-50769800D03*
X54864000Y-50769800D03*
X56134000Y-50769800D03*
X56134000Y-45819800D03*
X54864000Y-45819800D03*
X53594000Y-45819800D03*
X52324000Y-45819800D03*
X51054000Y-45819800D03*
X49784000Y-45819800D03*
X48514000Y-45819800D03*
X61976000Y-64739800D03*
X63246000Y-64739800D03*
X64516000Y-64739800D03*
X65786000Y-64739800D03*
X67056000Y-64739800D03*
X68326000Y-64739800D03*
X69596000Y-64739800D03*
X69596000Y-59789800D03*
X68326000Y-59789800D03*
X67056000Y-59789800D03*
X65786000Y-59789800D03*
X64516000Y-59789800D03*
X63246000Y-59789800D03*
X61976000Y-59789800D03*
D12*
X118500000Y-80010000D03*
X116450000Y-80010000D03*
X118500000Y-85090000D03*
X116450000Y-85090000D03*
D13*
X30471000Y-88900000D03*
X32521000Y-88900000D03*
D12*
X118500000Y-77470000D03*
X116450000Y-77470000D03*
D13*
X30471000Y-33020000D03*
X32521000Y-33020000D03*
D11*
X88900000Y-64705000D03*
X90170000Y-64705000D03*
X91440000Y-64705000D03*
X92710000Y-64705000D03*
X93980000Y-64705000D03*
X95250000Y-64705000D03*
X96520000Y-64705000D03*
X97790000Y-64705000D03*
X97790000Y-59755000D03*
X96520000Y-59755000D03*
X95250000Y-59755000D03*
X93980000Y-59755000D03*
X92710000Y-59755000D03*
X91440000Y-59755000D03*
X90170000Y-59755000D03*
X88900000Y-59755000D03*
X61976000Y-92679800D03*
X63246000Y-92679800D03*
X64516000Y-92679800D03*
X65786000Y-92679800D03*
X67056000Y-92679800D03*
X68326000Y-92679800D03*
X69596000Y-92679800D03*
X69596000Y-87729800D03*
X68326000Y-87729800D03*
X67056000Y-87729800D03*
X65786000Y-87729800D03*
X64516000Y-87729800D03*
X63246000Y-87729800D03*
X61976000Y-87729800D03*
X88900000Y-78675000D03*
X90170000Y-78675000D03*
X91440000Y-78675000D03*
X92710000Y-78675000D03*
X93980000Y-78675000D03*
X95250000Y-78675000D03*
X96520000Y-78675000D03*
X97790000Y-78675000D03*
X97790000Y-73725000D03*
X96520000Y-73725000D03*
X95250000Y-73725000D03*
X93980000Y-73725000D03*
X92710000Y-73725000D03*
X91440000Y-73725000D03*
X90170000Y-73725000D03*
X88900000Y-73725000D03*
D13*
X30471000Y-63500000D03*
X32521000Y-63500000D03*
X30471000Y-73660000D03*
X32521000Y-73660000D03*
D12*
X118500000Y-82550000D03*
X116450000Y-82550000D03*
D13*
X30471000Y-86360000D03*
X32521000Y-86360000D03*
D11*
X48514000Y-36799800D03*
X49784000Y-36799800D03*
X51054000Y-36799800D03*
X52324000Y-36799800D03*
X53594000Y-36799800D03*
X54864000Y-36799800D03*
X56134000Y-36799800D03*
X56134000Y-31849800D03*
X54864000Y-31849800D03*
X53594000Y-31849800D03*
X52324000Y-31849800D03*
X51054000Y-31849800D03*
X49784000Y-31849800D03*
X48514000Y-31849800D03*
D13*
X30471000Y-76200000D03*
X32521000Y-76200000D03*
D11*
X88900000Y-50769800D03*
X90170000Y-50769800D03*
X91440000Y-50769800D03*
X92710000Y-50769800D03*
X93980000Y-50769800D03*
X95250000Y-50769800D03*
X96520000Y-50769800D03*
X96520000Y-45819800D03*
X95250000Y-45819800D03*
X93980000Y-45819800D03*
X92710000Y-45819800D03*
X91440000Y-45819800D03*
X90170000Y-45819800D03*
X88900000Y-45819800D03*
D12*
X118500000Y-72390000D03*
X116450000Y-72390000D03*
D13*
X30471000Y-58420000D03*
X32521000Y-58420000D03*
D12*
X118500000Y-74930000D03*
X116450000Y-74930000D03*
D13*
X30471000Y-43180000D03*
X32521000Y-43180000D03*
X30471000Y-35560000D03*
X32521000Y-35560000D03*
X30471000Y-68580000D03*
X32521000Y-68580000D03*
D19*
X104775000Y-69925000D03*
X106045000Y-69925000D03*
X107315000Y-69925000D03*
X108585000Y-69925000D03*
X109855000Y-69925000D03*
X111125000Y-69925000D03*
X112395000Y-69925000D03*
X113665000Y-69925000D03*
X113665000Y-63425000D03*
X112395000Y-63425000D03*
X111125000Y-63425000D03*
X109855000Y-63425000D03*
X108585000Y-63425000D03*
X107315000Y-63425000D03*
X106045000Y-63425000D03*
X104775000Y-63425000D03*
D11*
X75438000Y-36799800D03*
X76708000Y-36799800D03*
X77978000Y-36799800D03*
X79248000Y-36799800D03*
X80518000Y-36799800D03*
X81788000Y-36799800D03*
X83058000Y-36799800D03*
X83058000Y-31849800D03*
X81788000Y-31849800D03*
X80518000Y-31849800D03*
X79248000Y-31849800D03*
X77978000Y-31849800D03*
X76708000Y-31849800D03*
X75438000Y-31849800D03*
D13*
X30471000Y-45720000D03*
X32521000Y-45720000D03*
X30471000Y-83820000D03*
X32521000Y-83820000D03*
X30471000Y-66040000D03*
X32521000Y-66040000D03*
M02*
