M48
; DRILL file {KiCad 7.0.10} date Wednesday, January 03, 2024 at 11:05:57 am
; FORMAT={-:-/ absolute / metric / decimal}
; #@! TF.CreationDate,2024-01-03T11:05:57+01:00
; #@! TF.GenerationSoftware,Kicad,Pcbnew,7.0.10
; #@! TF.FileFunction,Plated,1,2,PTH
FMAT,2
METRIC
; #@! TA.AperFunction,Plated,PTH,ViaDrill
T1C0.300
; #@! TA.AperFunction,Plated,PTH,ViaDrill
T2C0.500
; #@! TA.AperFunction,Plated,PTH,ComponentDrill
T3C1.000
%
G90
G05
T1
X28.448Y-51.816
X28.448Y-82.677
X31.75Y-66.04
X32.766Y-79.248
X33.147Y-40.259
X35.052Y-79.248
X38.1Y-32.766
X38.481Y-72.39
X39.37Y-40.259
X39.769Y-50.419
X40.25Y-52.5
X40.64Y-57.15
X40.64Y-80.645
X40.64Y-82.677
X40.767Y-51.054
X41.275Y-56.261
X42.164Y-56.642
X42.545Y-83.439
X42.926Y-57.15
X43.688Y-57.658
X43.75Y-31.75
X45.085Y-82.677
X45.212Y-56.769
X45.25Y-28.5
X45.25Y-31.75
X45.25Y-51.816
X45.75Y-32.75
X46.355Y-58.928
X46.355Y-83.929
X47.117Y-58.42
X47.625Y-68.072
X47.625Y-84.437
X47.879Y-58.928
X48.641Y-58.42
X48.895Y-84.963
X49.75Y-52.5
X50.165Y-85.471
X52.197Y-40.132
X52.197Y-41.783
X52.832Y-49.403
X53.25Y-52.5
X53.848Y-51.054
X54.25Y-55.88
X55.245Y-56.388
X56.007Y-57.023
X56.75Y-31.75
X56.769Y-57.531
X58.212Y-56.769
X58.25Y-28.5
X58.25Y-31.75
X58.25Y-51.816
X58.801Y-32.75
X59.436Y-58.928
X60.071Y-64.262
X60.198Y-57.277
X60.325Y-80.666
X60.325Y-82.698
X60.96Y-56.515
X61.722Y-55.88
X62.23Y-40.64
X62.23Y-41.783
X62.23Y-64.262
X62.23Y-83.439
X62.75Y-52.5
X63.5Y-64.262
X64.77Y-64.262
X64.77Y-82.677
X65.278Y-40.132
X65.278Y-41.91
X65.786Y-50.419
X66.04Y-64.262
X66.04Y-83.947
X66.25Y-52.5
X66.75Y-51.054
X67.275Y-56.388
X67.31Y-67.945
X67.31Y-84.455
X68.316Y-56.896
X68.58Y-64.262
X68.58Y-84.963
X69.332Y-57.404
X69.75Y-31.75
X69.85Y-64.262
X69.85Y-85.471
X69.942Y-58.014
X71.212Y-56.769
X71.247Y-51.816
X71.25Y-28.5
X71.25Y-31.75
X71.75Y-32.75
X72.136Y-64.262
X72.533Y-58.268
X73.025Y-59.309
X73.041Y-57.709
X73.752Y-58.217
X73.787Y-59.309
X74.768Y-57.709
X74.803Y-59.309
X75.311Y-40.64
X75.311Y-41.783
X75.75Y-52.5
X78.359Y-40.132
X78.359Y-41.91
X78.751Y-49.421
X79.25Y-52.5
X79.75Y-51.054
X79.756Y-64.262
X80.01Y-80.666
X80.01Y-82.698
X80.275Y-56.388
X81.291Y-56.388
X81.915Y-64.262
X81.915Y-83.439
X82.307Y-56.388
X82.75Y-31.75
X83.069Y-56.794
X83.185Y-64.262
X84.212Y-56.769
X84.25Y-28.5
X84.25Y-31.75
X84.25Y-51.816
X84.455Y-64.262
X84.455Y-82.677
X84.836Y-32.75
X85.436Y-58.064
X85.725Y-64.262
X85.725Y-83.947
X86.096Y-57.048
X86.75Y-57.607
X86.995Y-68.072
X86.995Y-84.455
X87.768Y-56.54
X88.265Y-40.64
X88.265Y-41.91
X88.265Y-64.262
X88.265Y-84.963
X88.75Y-52.5
X89.535Y-64.262
X89.535Y-85.471
X89.789Y-55.499
X91.313Y-40.132
X91.313Y-41.91
X91.75Y-50.419
X91.821Y-64.262
X92.25Y-52.5
X92.75Y-51.054
X93.275Y-56.388
X93.98Y-65.659
X94.316Y-56.896
X95.332Y-57.404
X95.75Y-31.75
X95.942Y-58.014
X97.028Y-64.643
X97.212Y-56.769
X97.25Y-28.5
X97.25Y-31.75
X97.25Y-51.816
X97.75Y-32.75
X97.79Y-88.773
X98.533Y-58.268
X99.041Y-57.709
X99.06Y-59.197
X99.06Y-75.565
X99.06Y-87.63
X99.752Y-58.217
X99.949Y-59.197
X100.768Y-57.709
X100.838Y-59.197
X101.219Y-40.64
X101.219Y-41.783
X101.75Y-52.5
X102.87Y-80.772
X104.267Y-40.132
X104.267Y-41.783
X104.751Y-49.421
X104.775Y-59.182
X105.25Y-52.5
X105.41Y-80.772
X105.41Y-98.298
X105.791Y-51.054
X106.275Y-56.388
X107.291Y-56.388
X108.307Y-56.388
X108.75Y-31.75
X109.069Y-56.794
X110.212Y-56.769
X110.25Y-28.5
X110.25Y-31.75
X110.25Y-51.816
X110.871Y-32.766
X111.436Y-58.064
X111.887Y-69.705
X112.096Y-57.048
X112.395Y-70.485
X112.522Y-68.326
X112.75Y-57.607
X113.284Y-67.691
X113.768Y-56.54
X114.046Y-67.056
X114.3Y-40.622
X114.3Y-41.783
X114.75Y-52.5
T2
X122.428Y-27.448
T3
X29.21Y-57.15
X29.21Y-59.69
X29.21Y-62.23
X29.21Y-64.77
X29.21Y-67.31
X29.21Y-69.85
X122.555Y-33.02
X122.555Y-35.56
X122.555Y-38.1
X122.555Y-40.64
X122.555Y-43.18
X122.555Y-45.72
X122.555Y-48.26
X122.555Y-50.8
X122.555Y-53.34
X122.555Y-55.88
X122.555Y-58.42
X122.555Y-60.96
X122.555Y-63.5
X122.555Y-66.04
X122.555Y-68.58
X122.555Y-71.12
X122.555Y-73.66
X122.555Y-76.2
X122.555Y-78.74
X122.555Y-81.28
X122.555Y-83.82
X122.555Y-86.36
X122.555Y-88.9
X122.555Y-91.44
X122.555Y-93.98
X125.095Y-33.02
X125.095Y-35.56
X125.095Y-38.1
X125.095Y-40.64
X125.095Y-43.18
X125.095Y-45.72
X125.095Y-48.26
X125.095Y-50.8
X125.095Y-53.34
X125.095Y-55.88
X125.095Y-58.42
X125.095Y-60.96
X125.095Y-63.5
X125.095Y-66.04
X125.095Y-68.58
X125.095Y-71.12
X125.095Y-73.66
X125.095Y-76.2
X125.095Y-78.74
X125.095Y-81.28
X125.095Y-83.82
X125.095Y-86.36
X125.095Y-88.9
X125.095Y-91.44
X125.095Y-93.98
M30
