G04 #@! TF.GenerationSoftware,KiCad,Pcbnew,7.0.10*
G04 #@! TF.CreationDate,2024-01-03T11:05:33+01:00*
G04 #@! TF.ProjectId,Memory,4d656d6f-7279-42e6-9b69-6361645f7063,rev?*
G04 #@! TF.SameCoordinates,Original*
G04 #@! TF.FileFunction,Copper,L1,Top*
G04 #@! TF.FilePolarity,Positive*
%FSLAX46Y46*%
G04 Gerber Fmt 4.6, Leading zero omitted, Abs format (unit mm)*
G04 Created by KiCad (PCBNEW 7.0.10) date 2024-01-03 11:05:33*
%MOMM*%
%LPD*%
G01*
G04 APERTURE LIST*
G04 Aperture macros list*
%AMRoundRect*
0 Rectangle with rounded corners*
0 $1 Rounding radius*
0 $2 $3 $4 $5 $6 $7 $8 $9 X,Y pos of 4 corners*
0 Add a 4 corners polygon primitive as box body*
4,1,4,$2,$3,$4,$5,$6,$7,$8,$9,$2,$3,0*
0 Add four circle primitives for the rounded corners*
1,1,$1+$1,$2,$3*
1,1,$1+$1,$4,$5*
1,1,$1+$1,$6,$7*
1,1,$1+$1,$8,$9*
0 Add four rect primitives between the rounded corners*
20,1,$1+$1,$2,$3,$4,$5,0*
20,1,$1+$1,$4,$5,$6,$7,0*
20,1,$1+$1,$6,$7,$8,$9,0*
20,1,$1+$1,$8,$9,$2,$3,0*%
G04 Aperture macros list end*
G04 #@! TA.AperFunction,SMDPad,CuDef*
%ADD10RoundRect,0.075000X-0.075000X0.712500X-0.075000X-0.712500X0.075000X-0.712500X0.075000X0.712500X0*%
G04 #@! TD*
G04 #@! TA.AperFunction,SMDPad,CuDef*
%ADD11RoundRect,0.250000X-0.475000X0.337500X-0.475000X-0.337500X0.475000X-0.337500X0.475000X0.337500X0*%
G04 #@! TD*
G04 #@! TA.AperFunction,SMDPad,CuDef*
%ADD12RoundRect,0.250000X-0.450000X0.325000X-0.450000X-0.325000X0.450000X-0.325000X0.450000X0.325000X0*%
G04 #@! TD*
G04 #@! TA.AperFunction,SMDPad,CuDef*
%ADD13R,1.500000X0.600000*%
G04 #@! TD*
G04 #@! TA.AperFunction,SMDPad,CuDef*
%ADD14R,1.500000X1.000000*%
G04 #@! TD*
G04 #@! TA.AperFunction,SMDPad,CuDef*
%ADD15R,1.000000X1.500000*%
G04 #@! TD*
G04 #@! TA.AperFunction,SMDPad,CuDef*
%ADD16RoundRect,0.250000X0.412500X0.650000X-0.412500X0.650000X-0.412500X-0.650000X0.412500X-0.650000X0*%
G04 #@! TD*
G04 #@! TA.AperFunction,SMDPad,CuDef*
%ADD17RoundRect,0.250000X-0.450000X0.350000X-0.450000X-0.350000X0.450000X-0.350000X0.450000X0.350000X0*%
G04 #@! TD*
G04 #@! TA.AperFunction,SMDPad,CuDef*
%ADD18RoundRect,0.250000X0.475000X-0.337500X0.475000X0.337500X-0.475000X0.337500X-0.475000X-0.337500X0*%
G04 #@! TD*
G04 #@! TA.AperFunction,SMDPad,CuDef*
%ADD19RoundRect,0.250000X0.337500X0.475000X-0.337500X0.475000X-0.337500X-0.475000X0.337500X-0.475000X0*%
G04 #@! TD*
G04 #@! TA.AperFunction,SMDPad,CuDef*
%ADD20RoundRect,0.150000X0.150000X1.100000X-0.150000X1.100000X-0.150000X-1.100000X0.150000X-1.100000X0*%
G04 #@! TD*
G04 #@! TA.AperFunction,SMDPad,CuDef*
%ADD21RoundRect,0.150000X1.100000X0.150000X-1.100000X0.150000X-1.100000X-0.150000X1.100000X-0.150000X0*%
G04 #@! TD*
G04 #@! TA.AperFunction,ComponentPad*
%ADD22R,1.700000X1.700000*%
G04 #@! TD*
G04 #@! TA.AperFunction,ComponentPad*
%ADD23O,1.700000X1.700000*%
G04 #@! TD*
G04 #@! TA.AperFunction,ViaPad*
%ADD24C,0.600000*%
G04 #@! TD*
G04 #@! TA.AperFunction,ViaPad*
%ADD25C,0.900000*%
G04 #@! TD*
G04 #@! TA.AperFunction,Conductor*
%ADD26C,0.127000*%
G04 #@! TD*
G04 #@! TA.AperFunction,Conductor*
%ADD27C,0.250000*%
G04 #@! TD*
G04 #@! TA.AperFunction,Conductor*
%ADD28C,0.400000*%
G04 #@! TD*
G04 #@! TA.AperFunction,Conductor*
%ADD29C,1.574800*%
G04 #@! TD*
G04 #@! TA.AperFunction,Conductor*
%ADD30C,0.406400*%
G04 #@! TD*
G04 #@! TA.AperFunction,Conductor*
%ADD31C,0.500000*%
G04 #@! TD*
G04 APERTURE END LIST*
D10*
X89750000Y-34312500D03*
X89250000Y-34312500D03*
X88750000Y-34312500D03*
X88250000Y-34312500D03*
X87750000Y-34312500D03*
X87250000Y-34312500D03*
X86750000Y-34312500D03*
X86250000Y-34312500D03*
X85750000Y-34312500D03*
X85250000Y-34312500D03*
X84750000Y-34312500D03*
X84250000Y-34312500D03*
X83750000Y-34312500D03*
X83250000Y-34312500D03*
X82750000Y-34312500D03*
X82250000Y-34312500D03*
X81750000Y-34312500D03*
X81250000Y-34312500D03*
X80750000Y-34312500D03*
X80250000Y-34312500D03*
X79750000Y-34312500D03*
X79250000Y-34312500D03*
X78750000Y-34312500D03*
X78250000Y-34312500D03*
X78250000Y-53687500D03*
X78750000Y-53687500D03*
X79250000Y-53687500D03*
X79750000Y-53687500D03*
X80250000Y-53687500D03*
X80750000Y-53687500D03*
X81250000Y-53687500D03*
X81750000Y-53687500D03*
X82250000Y-53687500D03*
X82750000Y-53687500D03*
X83250000Y-53687500D03*
X83750000Y-53687500D03*
X84250000Y-53687500D03*
X84750000Y-53687500D03*
X85250000Y-53687500D03*
X85750000Y-53687500D03*
X86250000Y-53687500D03*
X86750000Y-53687500D03*
X87250000Y-53687500D03*
X87750000Y-53687500D03*
X88250000Y-53687500D03*
X88750000Y-53687500D03*
X89250000Y-53687500D03*
X89750000Y-53687500D03*
D11*
X45166000Y-55731500D03*
X45166000Y-57806500D03*
D12*
X40640000Y-92955000D03*
X40640000Y-95005000D03*
X104140000Y-92955000D03*
X104140000Y-95005000D03*
D13*
X100590000Y-70485000D03*
X100590000Y-71755000D03*
X100590000Y-73025000D03*
X100590000Y-74295000D03*
X100590000Y-75565000D03*
X100590000Y-76835000D03*
X100590000Y-78105000D03*
X100590000Y-79375000D03*
X107690000Y-79375000D03*
X107690000Y-78105000D03*
X107690000Y-76835000D03*
X107690000Y-75565000D03*
X107690000Y-74295000D03*
X107690000Y-73025000D03*
X107690000Y-71755000D03*
X107690000Y-70485000D03*
D12*
X45720000Y-92955000D03*
X45720000Y-95005000D03*
D14*
X98298000Y-66959000D03*
X98298000Y-65659000D03*
D15*
X111999000Y-75565000D03*
X113299000Y-75565000D03*
D16*
X124244500Y-97917000D03*
X121119500Y-97917000D03*
D17*
X45720000Y-88870000D03*
X45720000Y-90870000D03*
D18*
X39116000Y-82698500D03*
X39116000Y-80623500D03*
D11*
X58166000Y-55731500D03*
X58166000Y-57806500D03*
D10*
X115750000Y-34312500D03*
X115250000Y-34312500D03*
X114750000Y-34312500D03*
X114250000Y-34312500D03*
X113750000Y-34312500D03*
X113250000Y-34312500D03*
X112750000Y-34312500D03*
X112250000Y-34312500D03*
X111750000Y-34312500D03*
X111250000Y-34312500D03*
X110750000Y-34312500D03*
X110250000Y-34312500D03*
X109750000Y-34312500D03*
X109250000Y-34312500D03*
X108750000Y-34312500D03*
X108250000Y-34312500D03*
X107750000Y-34312500D03*
X107250000Y-34312500D03*
X106750000Y-34312500D03*
X106250000Y-34312500D03*
X105750000Y-34312500D03*
X105250000Y-34312500D03*
X104750000Y-34312500D03*
X104250000Y-34312500D03*
X104250000Y-53687500D03*
X104750000Y-53687500D03*
X105250000Y-53687500D03*
X105750000Y-53687500D03*
X106250000Y-53687500D03*
X106750000Y-53687500D03*
X107250000Y-53687500D03*
X107750000Y-53687500D03*
X108250000Y-53687500D03*
X108750000Y-53687500D03*
X109250000Y-53687500D03*
X109750000Y-53687500D03*
X110250000Y-53687500D03*
X110750000Y-53687500D03*
X111250000Y-53687500D03*
X111750000Y-53687500D03*
X112250000Y-53687500D03*
X112750000Y-53687500D03*
X113250000Y-53687500D03*
X113750000Y-53687500D03*
X114250000Y-53687500D03*
X114750000Y-53687500D03*
X115250000Y-53687500D03*
X115750000Y-53687500D03*
D15*
X111999000Y-80645000D03*
X113299000Y-80645000D03*
D19*
X105177500Y-82042000D03*
X103102500Y-82042000D03*
D10*
X50750000Y-34312500D03*
X50250000Y-34312500D03*
X49750000Y-34312500D03*
X49250000Y-34312500D03*
X48750000Y-34312500D03*
X48250000Y-34312500D03*
X47750000Y-34312500D03*
X47250000Y-34312500D03*
X46750000Y-34312500D03*
X46250000Y-34312500D03*
X45750000Y-34312500D03*
X45250000Y-34312500D03*
X44750000Y-34312500D03*
X44250000Y-34312500D03*
X43750000Y-34312500D03*
X43250000Y-34312500D03*
X42750000Y-34312500D03*
X42250000Y-34312500D03*
X41750000Y-34312500D03*
X41250000Y-34312500D03*
X40750000Y-34312500D03*
X40250000Y-34312500D03*
X39750000Y-34312500D03*
X39250000Y-34312500D03*
X39250000Y-53687500D03*
X39750000Y-53687500D03*
X40250000Y-53687500D03*
X40750000Y-53687500D03*
X41250000Y-53687500D03*
X41750000Y-53687500D03*
X42250000Y-53687500D03*
X42750000Y-53687500D03*
X43250000Y-53687500D03*
X43750000Y-53687500D03*
X44250000Y-53687500D03*
X44750000Y-53687500D03*
X45250000Y-53687500D03*
X45750000Y-53687500D03*
X46250000Y-53687500D03*
X46750000Y-53687500D03*
X47250000Y-53687500D03*
X47750000Y-53687500D03*
X48250000Y-53687500D03*
X48750000Y-53687500D03*
X49250000Y-53687500D03*
X49750000Y-53687500D03*
X50250000Y-53687500D03*
X50750000Y-53687500D03*
D12*
X109220000Y-92955000D03*
X109220000Y-95005000D03*
D17*
X40640000Y-88870000D03*
X40640000Y-90870000D03*
D15*
X111999000Y-83185000D03*
X113299000Y-83185000D03*
D11*
X97166000Y-55731500D03*
X97166000Y-57806500D03*
D17*
X123571000Y-26432000D03*
X123571000Y-28432000D03*
D10*
X76750000Y-34312500D03*
X76250000Y-34312500D03*
X75750000Y-34312500D03*
X75250000Y-34312500D03*
X74750000Y-34312500D03*
X74250000Y-34312500D03*
X73750000Y-34312500D03*
X73250000Y-34312500D03*
X72750000Y-34312500D03*
X72250000Y-34312500D03*
X71750000Y-34312500D03*
X71250000Y-34312500D03*
X70750000Y-34312500D03*
X70250000Y-34312500D03*
X69750000Y-34312500D03*
X69250000Y-34312500D03*
X68750000Y-34312500D03*
X68250000Y-34312500D03*
X67750000Y-34312500D03*
X67250000Y-34312500D03*
X66750000Y-34312500D03*
X66250000Y-34312500D03*
X65750000Y-34312500D03*
X65250000Y-34312500D03*
X65250000Y-53687500D03*
X65750000Y-53687500D03*
X66250000Y-53687500D03*
X66750000Y-53687500D03*
X67250000Y-53687500D03*
X67750000Y-53687500D03*
X68250000Y-53687500D03*
X68750000Y-53687500D03*
X69250000Y-53687500D03*
X69750000Y-53687500D03*
X70250000Y-53687500D03*
X70750000Y-53687500D03*
X71250000Y-53687500D03*
X71750000Y-53687500D03*
X72250000Y-53687500D03*
X72750000Y-53687500D03*
X73250000Y-53687500D03*
X73750000Y-53687500D03*
X74250000Y-53687500D03*
X74750000Y-53687500D03*
X75250000Y-53687500D03*
X75750000Y-53687500D03*
X76250000Y-53687500D03*
X76750000Y-53687500D03*
D14*
X95758000Y-66959000D03*
X95758000Y-65659000D03*
D12*
X48260000Y-92955000D03*
X48260000Y-95005000D03*
D17*
X104140000Y-88870000D03*
X104140000Y-90870000D03*
D10*
X102750000Y-34312500D03*
X102250000Y-34312500D03*
X101750000Y-34312500D03*
X101250000Y-34312500D03*
X100750000Y-34312500D03*
X100250000Y-34312500D03*
X99750000Y-34312500D03*
X99250000Y-34312500D03*
X98750000Y-34312500D03*
X98250000Y-34312500D03*
X97750000Y-34312500D03*
X97250000Y-34312500D03*
X96750000Y-34312500D03*
X96250000Y-34312500D03*
X95750000Y-34312500D03*
X95250000Y-34312500D03*
X94750000Y-34312500D03*
X94250000Y-34312500D03*
X93750000Y-34312500D03*
X93250000Y-34312500D03*
X92750000Y-34312500D03*
X92250000Y-34312500D03*
X91750000Y-34312500D03*
X91250000Y-34312500D03*
X91250000Y-53687500D03*
X91750000Y-53687500D03*
X92250000Y-53687500D03*
X92750000Y-53687500D03*
X93250000Y-53687500D03*
X93750000Y-53687500D03*
X94250000Y-53687500D03*
X94750000Y-53687500D03*
X95250000Y-53687500D03*
X95750000Y-53687500D03*
X96250000Y-53687500D03*
X96750000Y-53687500D03*
X97250000Y-53687500D03*
X97750000Y-53687500D03*
X98250000Y-53687500D03*
X98750000Y-53687500D03*
X99250000Y-53687500D03*
X99750000Y-53687500D03*
X100250000Y-53687500D03*
X100750000Y-53687500D03*
X101250000Y-53687500D03*
X101750000Y-53687500D03*
X102250000Y-53687500D03*
X102750000Y-53687500D03*
D11*
X110166000Y-55731500D03*
X110166000Y-57806500D03*
D17*
X106680000Y-88870000D03*
X106680000Y-90870000D03*
D20*
X85725000Y-80997500D03*
X86995000Y-80997500D03*
X88265000Y-80997500D03*
X89535000Y-80997500D03*
D21*
X91787500Y-78740000D03*
X91787500Y-77470000D03*
X91787500Y-76200000D03*
X91787500Y-74930000D03*
X91787500Y-73660000D03*
X91787500Y-72390000D03*
X91787500Y-71120000D03*
X91787500Y-69850000D03*
X91787500Y-68580000D03*
D20*
X89535000Y-66322500D03*
X88265000Y-66322500D03*
X86995000Y-66322500D03*
X85725000Y-66322500D03*
X84455000Y-66322500D03*
X83185000Y-66322500D03*
X81915000Y-66322500D03*
D21*
X79662500Y-68580000D03*
X79662500Y-69850000D03*
X79662500Y-71120000D03*
X79662500Y-72390000D03*
X79662500Y-73660000D03*
X79662500Y-74930000D03*
X79662500Y-76200000D03*
X79662500Y-77470000D03*
X79662500Y-78740000D03*
D20*
X81915000Y-80997500D03*
X83185000Y-80997500D03*
X84455000Y-80997500D03*
D10*
X63750000Y-34312500D03*
X63250000Y-34312500D03*
X62750000Y-34312500D03*
X62250000Y-34312500D03*
X61750000Y-34312500D03*
X61250000Y-34312500D03*
X60750000Y-34312500D03*
X60250000Y-34312500D03*
X59750000Y-34312500D03*
X59250000Y-34312500D03*
X58750000Y-34312500D03*
X58250000Y-34312500D03*
X57750000Y-34312500D03*
X57250000Y-34312500D03*
X56750000Y-34312500D03*
X56250000Y-34312500D03*
X55750000Y-34312500D03*
X55250000Y-34312500D03*
X54750000Y-34312500D03*
X54250000Y-34312500D03*
X53750000Y-34312500D03*
X53250000Y-34312500D03*
X52750000Y-34312500D03*
X52250000Y-34312500D03*
X52250000Y-53687500D03*
X52750000Y-53687500D03*
X53250000Y-53687500D03*
X53750000Y-53687500D03*
X54250000Y-53687500D03*
X54750000Y-53687500D03*
X55250000Y-53687500D03*
X55750000Y-53687500D03*
X56250000Y-53687500D03*
X56750000Y-53687500D03*
X57250000Y-53687500D03*
X57750000Y-53687500D03*
X58250000Y-53687500D03*
X58750000Y-53687500D03*
X59250000Y-53687500D03*
X59750000Y-53687500D03*
X60250000Y-53687500D03*
X60750000Y-53687500D03*
X61250000Y-53687500D03*
X61750000Y-53687500D03*
X62250000Y-53687500D03*
X62750000Y-53687500D03*
X63250000Y-53687500D03*
X63750000Y-53687500D03*
D11*
X71166000Y-55731500D03*
X71166000Y-57806500D03*
D17*
X48260000Y-88870000D03*
X48260000Y-90870000D03*
X109220000Y-88870000D03*
X109220000Y-90870000D03*
D12*
X106680000Y-92955000D03*
X106680000Y-95005000D03*
D18*
X78486000Y-82698500D03*
X78486000Y-80623500D03*
D12*
X38100000Y-92955000D03*
X38100000Y-95005000D03*
X125603000Y-26407000D03*
X125603000Y-28457000D03*
D17*
X38100000Y-88870000D03*
X38100000Y-90870000D03*
D15*
X111999000Y-78105000D03*
X113299000Y-78105000D03*
D18*
X58801000Y-82698500D03*
X58801000Y-80623500D03*
D22*
X29210000Y-57150000D03*
D23*
X29210000Y-59690000D03*
X29210000Y-62230000D03*
X29210000Y-64770000D03*
X29210000Y-67310000D03*
X29210000Y-69850000D03*
D20*
X46355000Y-80997500D03*
X47625000Y-80997500D03*
X48895000Y-80997500D03*
X50165000Y-80997500D03*
D21*
X52417500Y-78740000D03*
X52417500Y-77470000D03*
X52417500Y-76200000D03*
X52417500Y-74930000D03*
X52417500Y-73660000D03*
X52417500Y-72390000D03*
X52417500Y-71120000D03*
X52417500Y-69850000D03*
X52417500Y-68580000D03*
D20*
X50165000Y-66322500D03*
X48895000Y-66322500D03*
X47625000Y-66322500D03*
X46355000Y-66322500D03*
X45085000Y-66322500D03*
X43815000Y-66322500D03*
X42545000Y-66322500D03*
D21*
X40292500Y-68580000D03*
X40292500Y-69850000D03*
X40292500Y-71120000D03*
X40292500Y-72390000D03*
X40292500Y-73660000D03*
X40292500Y-74930000D03*
X40292500Y-76200000D03*
X40292500Y-77470000D03*
X40292500Y-78740000D03*
D20*
X42545000Y-80997500D03*
X43815000Y-80997500D03*
X45085000Y-80997500D03*
D11*
X121285000Y-26394500D03*
X121285000Y-28469500D03*
D20*
X66040000Y-80997500D03*
X67310000Y-80997500D03*
X68580000Y-80997500D03*
X69850000Y-80997500D03*
D21*
X72102500Y-78740000D03*
X72102500Y-77470000D03*
X72102500Y-76200000D03*
X72102500Y-74930000D03*
X72102500Y-73660000D03*
X72102500Y-72390000D03*
X72102500Y-71120000D03*
X72102500Y-69850000D03*
X72102500Y-68580000D03*
D20*
X69850000Y-66322500D03*
X68580000Y-66322500D03*
X67310000Y-66322500D03*
X66040000Y-66322500D03*
X64770000Y-66322500D03*
X63500000Y-66322500D03*
X62230000Y-66322500D03*
D21*
X59977500Y-68580000D03*
X59977500Y-69850000D03*
X59977500Y-71120000D03*
X59977500Y-72390000D03*
X59977500Y-73660000D03*
X59977500Y-74930000D03*
X59977500Y-76200000D03*
X59977500Y-77470000D03*
X59977500Y-78740000D03*
D20*
X62230000Y-80997500D03*
X63500000Y-80997500D03*
X64770000Y-80997500D03*
D11*
X84166000Y-55731500D03*
X84166000Y-57806500D03*
D22*
X125095000Y-33020000D03*
X122555000Y-33020000D03*
X125095000Y-35560000D03*
X122555000Y-35560000D03*
X125095000Y-38100000D03*
X122555000Y-38100000D03*
X125095000Y-40640000D03*
X122555000Y-40640000D03*
X125095000Y-43180000D03*
X122555000Y-43180000D03*
X125095000Y-45720000D03*
X122555000Y-45720000D03*
X125095000Y-48260000D03*
X122555000Y-48260000D03*
X125095000Y-50800000D03*
X122555000Y-50800000D03*
X125095000Y-53340000D03*
X122555000Y-53340000D03*
X125095000Y-55880000D03*
X122555000Y-55880000D03*
X125095000Y-58420000D03*
X122555000Y-58420000D03*
X125095000Y-60960000D03*
X122555000Y-60960000D03*
X125095000Y-63500000D03*
X122555000Y-63500000D03*
X125095000Y-66040000D03*
X122555000Y-66040000D03*
X125095000Y-68580000D03*
X122555000Y-68580000D03*
X125095000Y-71120000D03*
X122555000Y-71120000D03*
X125095000Y-73660000D03*
X122555000Y-73660000D03*
X125095000Y-76200000D03*
X122555000Y-76200000D03*
X125095000Y-78740000D03*
X122555000Y-78740000D03*
X125095000Y-81280000D03*
X122555000Y-81280000D03*
X125095000Y-83820000D03*
X122555000Y-83820000D03*
X125095000Y-86360000D03*
X122555000Y-86360000D03*
X125095000Y-88900000D03*
X122555000Y-88900000D03*
X125095000Y-91440000D03*
X122555000Y-91440000D03*
X125095000Y-93980000D03*
X122555000Y-93980000D03*
D24*
X45250000Y-28500000D03*
X97250000Y-51816000D03*
X105410000Y-80772000D03*
X71247000Y-51816000D03*
X71250000Y-28500000D03*
X84250000Y-51816000D03*
X28448000Y-82677000D03*
X28448000Y-51816000D03*
X84455000Y-82677000D03*
X97250000Y-28500000D03*
X110250000Y-51816000D03*
X58250000Y-28500000D03*
X105410000Y-98298000D03*
X45085000Y-82677000D03*
X80010000Y-82698500D03*
X45250000Y-31750000D03*
X58250000Y-31750000D03*
X84250000Y-31750000D03*
X58250000Y-51816000D03*
X110250000Y-28500000D03*
X84250000Y-28500000D03*
X97250000Y-31750000D03*
X60325000Y-82698500D03*
X71250000Y-31750000D03*
X45250000Y-51816000D03*
X40640000Y-82677000D03*
X110250000Y-31750000D03*
X64770000Y-82677000D03*
X102870000Y-80772000D03*
D25*
X122428000Y-27448000D03*
D24*
X88750000Y-52500000D03*
X97212000Y-56769000D03*
X40250000Y-52500000D03*
X66250000Y-52500000D03*
X71212000Y-56769000D03*
X86995000Y-68072000D03*
X82750000Y-31750000D03*
X62750000Y-52500000D03*
X75750000Y-52500000D03*
X67310000Y-67945000D03*
X95750000Y-31750000D03*
X53250000Y-52500000D03*
X60325000Y-80666500D03*
X80010000Y-80666500D03*
X92250000Y-52500000D03*
X84212000Y-56769000D03*
X108750000Y-31750000D03*
X69750000Y-31750000D03*
X79250000Y-52500000D03*
X45212000Y-56769000D03*
X47625000Y-68072000D03*
X105250000Y-52500000D03*
X114750000Y-52500000D03*
X56750000Y-31750000D03*
X43750000Y-31750000D03*
X40640000Y-80645000D03*
X58212000Y-56769000D03*
X49750000Y-52500000D03*
X101750000Y-52500000D03*
X110212000Y-56769000D03*
X88265000Y-84963000D03*
X48895000Y-84963000D03*
X68580000Y-84963000D03*
X67310000Y-84455000D03*
X86995000Y-84455000D03*
X47625000Y-84437000D03*
X85725000Y-83947000D03*
X66040000Y-83947000D03*
X46355000Y-83929000D03*
X42545000Y-83439000D03*
X81915000Y-83439000D03*
X62230000Y-83439000D03*
X62230000Y-41783000D03*
X101219000Y-41783000D03*
X75311000Y-41783000D03*
X101219000Y-40640000D03*
X75311000Y-40640000D03*
X88265000Y-41910000D03*
X114300000Y-41783000D03*
X112395000Y-70485000D03*
X88265000Y-40640000D03*
X114300000Y-40622000D03*
X62230000Y-40640000D03*
X111887000Y-69705000D03*
X114046000Y-67056000D03*
X113284000Y-67691000D03*
X112522000Y-68326000D03*
X100768000Y-57708800D03*
X113768000Y-56540400D03*
X91821000Y-64262000D03*
X100838000Y-59197300D03*
X99752000Y-58216800D03*
X89535000Y-64262000D03*
X112750000Y-57607200D03*
X99949000Y-59197300D03*
X88265000Y-64262000D03*
X99060000Y-59197300D03*
X99040800Y-57708800D03*
X112096400Y-57048400D03*
X85725000Y-64262000D03*
X111436000Y-58064400D03*
X98532800Y-58267600D03*
X109069000Y-56794400D03*
X95942000Y-58013600D03*
X84455000Y-64262000D03*
X95332400Y-57404000D03*
X108307000Y-56388000D03*
X83185000Y-64262000D03*
X107291000Y-56388000D03*
X94316400Y-56896000D03*
X81915000Y-64262000D03*
X93275000Y-56388000D03*
X79756000Y-64262000D03*
X106275000Y-56388000D03*
X87768000Y-56540400D03*
X72136000Y-64262000D03*
X74803000Y-59309000D03*
X74768000Y-57708800D03*
X73787000Y-59309000D03*
X69850000Y-64262000D03*
X73752000Y-58216800D03*
X86750000Y-57607200D03*
X86096400Y-57048400D03*
X73025000Y-59309000D03*
X73040800Y-57708800D03*
X68580000Y-64262000D03*
X85436000Y-58064400D03*
X72532800Y-58267600D03*
X66040000Y-64262000D03*
X64770000Y-64262000D03*
X69942000Y-58013600D03*
X83069000Y-56794400D03*
X82307000Y-56388000D03*
X63500000Y-64262000D03*
X69332400Y-57404000D03*
X68316400Y-56896000D03*
X81291000Y-56388000D03*
X62230000Y-64262000D03*
X67275000Y-56388000D03*
X80275000Y-56388000D03*
X60071000Y-64262000D03*
X48641000Y-58420000D03*
X61722000Y-55880000D03*
X47879000Y-58928000D03*
X60960000Y-56515000D03*
X47117000Y-58420000D03*
X60198000Y-57277000D03*
X46355000Y-58928000D03*
X59436000Y-58928000D03*
X43688000Y-57658000D03*
X56769000Y-57531000D03*
X42926000Y-57150000D03*
X56007000Y-57023000D03*
X55245000Y-56388000D03*
X42164000Y-56642000D03*
X41275000Y-56261000D03*
X54250000Y-55880000D03*
X35052000Y-79248000D03*
X32766000Y-79248000D03*
X31750000Y-66040000D03*
X38481000Y-72390000D03*
X93980000Y-65659000D03*
X89789000Y-55499000D03*
X97790000Y-88773000D03*
X39769227Y-50419163D03*
X91750000Y-50419000D03*
X65786000Y-50419000D03*
X99060000Y-75565000D03*
X104775000Y-59182000D03*
X97028000Y-64643000D03*
X78751000Y-49421000D03*
X52832000Y-49403000D03*
X99060000Y-87630000D03*
X104751000Y-49421000D03*
X91313000Y-40132000D03*
X39370000Y-40259000D03*
X104267000Y-40132000D03*
X50165000Y-85471000D03*
X78359000Y-41910000D03*
X78359000Y-40132000D03*
X33147000Y-40259000D03*
X69850000Y-85471000D03*
X65278000Y-41910000D03*
X89535000Y-85471000D03*
X52197000Y-40132000D03*
X65278000Y-40132000D03*
X91313000Y-41910000D03*
X52197000Y-41783000D03*
X104267000Y-41783000D03*
X58801000Y-32750000D03*
X110871000Y-32766000D03*
X71750000Y-32750000D03*
X38100000Y-32766000D03*
X84836000Y-32750000D03*
X45750000Y-32750000D03*
X97750000Y-32750000D03*
X53848000Y-51054000D03*
X40767000Y-51054000D03*
X105791000Y-51054000D03*
X40640000Y-57150000D03*
X92750000Y-51054000D03*
X79750000Y-51054000D03*
X66750000Y-51054000D03*
D26*
X125807001Y-28432000D02*
X125857001Y-28482000D01*
X123571000Y-28432000D02*
X125807001Y-28432000D01*
D27*
X58250000Y-53687500D02*
X58250000Y-51816000D01*
D26*
X45212000Y-28462000D02*
X45212000Y-26924000D01*
D27*
X71250000Y-53687500D02*
X71250000Y-51819000D01*
X110250000Y-53687500D02*
X110250000Y-55647500D01*
D26*
X110250000Y-34312500D02*
X110250000Y-31750000D01*
D28*
X64770000Y-80997500D02*
X64770000Y-82677000D01*
D26*
X84250000Y-34312500D02*
X84250000Y-31750000D01*
X43180000Y-95005000D02*
X48260000Y-95005000D01*
D29*
X125978600Y-94863600D02*
X125978600Y-95702500D01*
X125978600Y-97790000D02*
X125978600Y-100451600D01*
D27*
X84250000Y-55647500D02*
X84166000Y-55731500D01*
D26*
X110250000Y-28500000D02*
X110302000Y-28448000D01*
X71250000Y-34312500D02*
X71250000Y-31750000D01*
D28*
X58801000Y-82720000D02*
X60303500Y-82720000D01*
D27*
X84250000Y-53687500D02*
X84250000Y-55647500D01*
D26*
X123571000Y-26432000D02*
X121285000Y-26432000D01*
D27*
X71250000Y-51819000D02*
X71247000Y-51816000D01*
X45250000Y-53687500D02*
X45250000Y-55647500D01*
D26*
X105410000Y-95005000D02*
X104140000Y-95005000D01*
D27*
X71250000Y-55647500D02*
X71166000Y-55731500D01*
X58250000Y-53687500D02*
X58250000Y-55647500D01*
D26*
X110250000Y-28500000D02*
X110250000Y-26938000D01*
X110250000Y-26938000D02*
X110236000Y-26924000D01*
D30*
X121285000Y-26432000D02*
X119507000Y-26432000D01*
D28*
X78486000Y-82720000D02*
X79988500Y-82720000D01*
D26*
X43180000Y-95005000D02*
X43180000Y-100203000D01*
D28*
X45085000Y-80997500D02*
X45085000Y-82677000D01*
D29*
X125978600Y-95702500D02*
X125978600Y-97790000D01*
D28*
X39116000Y-82698500D02*
X40618500Y-82698500D01*
D26*
X45250000Y-34312500D02*
X45250000Y-31750000D01*
D31*
X124376000Y-97917000D02*
X125925850Y-97917000D01*
D27*
X71250000Y-53687500D02*
X71250000Y-55647500D01*
X97250000Y-55647500D02*
X97166000Y-55731500D01*
X58250000Y-55647500D02*
X58166000Y-55731500D01*
X110250000Y-55647500D02*
X110166000Y-55731500D01*
X97250000Y-53687500D02*
X97250000Y-51816000D01*
D28*
X105177500Y-81004500D02*
X105410000Y-80772000D01*
X84455000Y-82677000D02*
X84455000Y-80997500D01*
D29*
X125925850Y-97737250D02*
X125978600Y-97790000D01*
D27*
X110250000Y-53687500D02*
X110250000Y-51816000D01*
X84250000Y-53687500D02*
X84250000Y-51816000D01*
D26*
X97250000Y-34312500D02*
X97250000Y-31750000D01*
D28*
X105410000Y-70485000D02*
X107690000Y-70485000D01*
D26*
X109220000Y-95005000D02*
X105410000Y-95005000D01*
X58250000Y-34312500D02*
X58250000Y-31750000D01*
X105410000Y-95005000D02*
X105410000Y-98298000D01*
X38100000Y-95005000D02*
X43180000Y-95005000D01*
D27*
X97250000Y-53687500D02*
X97250000Y-55647500D01*
D28*
X105177500Y-82042000D02*
X105177500Y-81004500D01*
X105410000Y-98298000D02*
X105410000Y-100203000D01*
D27*
X45250000Y-55647500D02*
X45166000Y-55731500D01*
X28448000Y-51816000D02*
X27305000Y-51816000D01*
X45250000Y-53687500D02*
X45250000Y-51816000D01*
D26*
X45250000Y-28500000D02*
X45212000Y-28462000D01*
X45250000Y-28500000D02*
X110250000Y-28500000D01*
D28*
X40618500Y-82698500D02*
X40640000Y-82677000D01*
X105410000Y-80772000D02*
X105410000Y-70485000D01*
X28448000Y-82677000D02*
X26797000Y-82677000D01*
D29*
X125095000Y-93980000D02*
X125978600Y-94863600D01*
D27*
X50250000Y-52500000D02*
X49750000Y-52500000D01*
D31*
X121119500Y-97917000D02*
X122555000Y-97917000D01*
D26*
X44250000Y-33000000D02*
X43750000Y-33000000D01*
D27*
X115250000Y-52500000D02*
X114750000Y-52500000D01*
D28*
X103102500Y-82042000D02*
X103102500Y-81004500D01*
D27*
X75750000Y-53687500D02*
X75750000Y-52500000D01*
D28*
X86995000Y-68072000D02*
X86995000Y-66322500D01*
D27*
X102250000Y-53687500D02*
X102250000Y-52500000D01*
D26*
X82750000Y-33250000D02*
X82750000Y-31750000D01*
D28*
X103102500Y-81004500D02*
X102870000Y-80772000D01*
D26*
X70250000Y-34312500D02*
X70250000Y-33250000D01*
X109250000Y-34312500D02*
X109250000Y-33250000D01*
D27*
X76250000Y-52500000D02*
X75750000Y-52500000D01*
X79250000Y-53687500D02*
X79250000Y-52500000D01*
X58212000Y-56769000D02*
X58212000Y-57760500D01*
D26*
X108750000Y-34312500D02*
X108750000Y-33250000D01*
D30*
X122428000Y-27448000D02*
X121348500Y-28527500D01*
D26*
X44250000Y-34312500D02*
X44250000Y-33000000D01*
X108750000Y-33250000D02*
X108750000Y-31750000D01*
X96250000Y-34312500D02*
X96250000Y-33000000D01*
X96250000Y-33000000D02*
X95750000Y-33000000D01*
D27*
X88750000Y-53687500D02*
X88750000Y-52500000D01*
D28*
X102870000Y-80772000D02*
X102870000Y-79375000D01*
D27*
X62750000Y-53687500D02*
X62750000Y-52500000D01*
X114750000Y-53687500D02*
X114750000Y-52500000D01*
X53250000Y-53687500D02*
X53250000Y-52500000D01*
D28*
X78486000Y-80645000D02*
X79988500Y-80645000D01*
D27*
X97212000Y-56769000D02*
X97212000Y-57760500D01*
X101750000Y-53687500D02*
X101750000Y-52500000D01*
X63250000Y-52500000D02*
X62750000Y-52500000D01*
D28*
X39116000Y-80623500D02*
X40618500Y-80623500D01*
D27*
X40250000Y-53687500D02*
X40250000Y-52500000D01*
D26*
X109250000Y-33250000D02*
X108750000Y-33250000D01*
X95750000Y-34312500D02*
X95750000Y-33000000D01*
D31*
X122555000Y-97917000D02*
X122555000Y-93980000D01*
D26*
X95750000Y-33000000D02*
X95750000Y-31750000D01*
X56750000Y-34312500D02*
X56750000Y-33250000D01*
D27*
X49750000Y-53687500D02*
X49750000Y-52500000D01*
D28*
X40618500Y-80623500D02*
X40640000Y-80645000D01*
D27*
X66250000Y-53687500D02*
X66250000Y-52500000D01*
D28*
X102870000Y-79375000D02*
X100590000Y-79375000D01*
D27*
X63250000Y-53687500D02*
X63250000Y-52500000D01*
D26*
X43750000Y-33000000D02*
X43750000Y-31750000D01*
X57250000Y-34312500D02*
X57250000Y-33250000D01*
X56750000Y-33250000D02*
X56750000Y-31750000D01*
D27*
X89250000Y-52500000D02*
X88750000Y-52500000D01*
D26*
X82750000Y-34312500D02*
X82750000Y-33250000D01*
D27*
X102250000Y-52500000D02*
X101750000Y-52500000D01*
D26*
X83250000Y-34312500D02*
X83250000Y-33250000D01*
D27*
X89250000Y-53687500D02*
X89250000Y-52500000D01*
D28*
X47625000Y-66322500D02*
X47625000Y-68072000D01*
D26*
X122301000Y-94234000D02*
X122555000Y-93980000D01*
X69750000Y-33250000D02*
X69750000Y-31750000D01*
D28*
X58801000Y-80645000D02*
X60303500Y-80645000D01*
D27*
X71212000Y-56769000D02*
X71212000Y-57760500D01*
D28*
X67310000Y-66322500D02*
X67310000Y-67945000D01*
D26*
X125857001Y-27447999D02*
X122428000Y-27448000D01*
X69750000Y-34312500D02*
X69750000Y-33250000D01*
X57250000Y-33250000D02*
X56750000Y-33250000D01*
X83250000Y-33250000D02*
X82750000Y-33250000D01*
D27*
X45212000Y-57760500D02*
X45166000Y-57806500D01*
D30*
X121348500Y-28527500D02*
X121285000Y-28527500D01*
D26*
X43750000Y-34312500D02*
X43750000Y-33000000D01*
D27*
X50250000Y-53687500D02*
X50250000Y-52500000D01*
X92250000Y-53687500D02*
X92250000Y-52500000D01*
X115250000Y-53687500D02*
X115250000Y-52500000D01*
D26*
X125857001Y-26432000D02*
X125857001Y-27447999D01*
D27*
X84212000Y-56769000D02*
X84212000Y-57760500D01*
X76250000Y-53687500D02*
X76250000Y-52500000D01*
X105250000Y-53687500D02*
X105250000Y-52500000D01*
D26*
X70250000Y-33250000D02*
X69750000Y-33250000D01*
D27*
X110212000Y-56769000D02*
X110212000Y-57760500D01*
X45212000Y-56769000D02*
X45212000Y-57760500D01*
D26*
X90551000Y-34312500D02*
X90551000Y-29194000D01*
X64516000Y-34312500D02*
X64516000Y-29194000D01*
X64516000Y-29194000D02*
X63444000Y-29194000D01*
X90551000Y-29194000D02*
X91556000Y-29194000D01*
X64516000Y-29194000D02*
X90551000Y-29194000D01*
X68580000Y-80997500D02*
X68580000Y-84963000D01*
X91564000Y-29186000D02*
X115750000Y-29186000D01*
X125095000Y-33020000D02*
X123952000Y-31877000D01*
X89750000Y-34312500D02*
X90551000Y-34312500D01*
X63436000Y-29186000D02*
X39250000Y-29186000D01*
X33655000Y-84963000D02*
X48895000Y-84963000D01*
X33655000Y-35306000D02*
X33655000Y-84963000D01*
X39250000Y-34312500D02*
X39250000Y-35306000D01*
X64516000Y-34312500D02*
X65250000Y-34312500D01*
X39250000Y-29186000D02*
X39250000Y-34312500D01*
X115750000Y-31877000D02*
X115750000Y-34312500D01*
X63444000Y-29194000D02*
X63436000Y-29186000D01*
X88265000Y-80997500D02*
X88265000Y-84963000D01*
X90551000Y-34312500D02*
X91250000Y-34312500D01*
X123952000Y-31877000D02*
X115750000Y-31877000D01*
X48895000Y-84963000D02*
X48895000Y-80997500D01*
X39250000Y-35306000D02*
X33655000Y-35306000D01*
X63750000Y-34312500D02*
X64516000Y-34312500D01*
X115750000Y-29186000D02*
X115750000Y-31877000D01*
X91556000Y-29194000D02*
X91564000Y-29186000D01*
X33909000Y-84455000D02*
X47607000Y-84455000D01*
X91750000Y-35290500D02*
X91750000Y-34312500D01*
X63250000Y-34312500D02*
X63250000Y-35250000D01*
X89258000Y-34320500D02*
X89258000Y-29448000D01*
X89258000Y-29448000D02*
X65758000Y-29448000D01*
X67310000Y-80997500D02*
X67310000Y-84455000D01*
X33909000Y-35560000D02*
X33909000Y-84455000D01*
X39750000Y-34312500D02*
X39750000Y-35560000D01*
X63290500Y-35290500D02*
X65709500Y-35290500D01*
X122535000Y-33000000D02*
X122555000Y-33020000D01*
X115250000Y-29440000D02*
X91750000Y-29440000D01*
X63250000Y-34312500D02*
X63250000Y-29440000D01*
X89250000Y-35290500D02*
X91750000Y-35290500D01*
X89250000Y-34312500D02*
X89250000Y-35290500D01*
X91750000Y-29440000D02*
X91750000Y-34312500D01*
X116459000Y-35306000D02*
X115250000Y-35306000D01*
X65709500Y-35290500D02*
X65750000Y-35250000D01*
X86995000Y-80997500D02*
X86995000Y-84455000D01*
X115250000Y-35306000D02*
X115250000Y-34312500D01*
X122555000Y-33020000D02*
X116459000Y-33020000D01*
X63250000Y-35250000D02*
X63290500Y-35290500D01*
X47625000Y-84437000D02*
X47625000Y-80997500D01*
X116459000Y-33020000D02*
X116459000Y-35306000D01*
X39750000Y-35560000D02*
X33909000Y-35560000D01*
X65758000Y-29448000D02*
X65758000Y-34320500D01*
X115250000Y-34312500D02*
X115250000Y-29440000D01*
X65750000Y-35250000D02*
X65750000Y-34312500D01*
X47607000Y-84455000D02*
X47625000Y-84437000D01*
X63250000Y-29440000D02*
X39750000Y-29440000D01*
X39750000Y-29440000D02*
X39750000Y-34312500D01*
X62750000Y-34312500D02*
X62750000Y-35500000D01*
X66205500Y-35544500D02*
X66250000Y-35500000D01*
X123825000Y-34290000D02*
X116713000Y-34290000D01*
X40250000Y-35814000D02*
X34163000Y-35814000D01*
X116713000Y-34290000D02*
X116713000Y-35560000D01*
X88758000Y-29702000D02*
X88758000Y-34320500D01*
X66258000Y-29702000D02*
X88758000Y-29702000D01*
X66040000Y-80997500D02*
X66040000Y-83947000D01*
X125095000Y-35560000D02*
X123825000Y-34290000D01*
X88750000Y-35544500D02*
X92250000Y-35544500D01*
X92250000Y-35544500D02*
X92250000Y-34312500D01*
X114808000Y-34370500D02*
X114750000Y-34312500D01*
X62750000Y-35500000D02*
X62794500Y-35544500D01*
X34163000Y-83947000D02*
X46337000Y-83947000D01*
X62750000Y-29694000D02*
X62750000Y-34312500D01*
X92250000Y-34312500D02*
X92250000Y-29694000D01*
X85725000Y-80997500D02*
X85725000Y-83947000D01*
X114750000Y-29694000D02*
X114750000Y-34312500D01*
X62794500Y-35544500D02*
X66205500Y-35544500D01*
X40250000Y-29694000D02*
X62750000Y-29694000D01*
X46337000Y-83947000D02*
X46355000Y-83929000D01*
X88750000Y-34312500D02*
X88750000Y-35544500D01*
X40250000Y-34312500D02*
X40250000Y-29694000D01*
X66258000Y-34320500D02*
X66258000Y-29702000D01*
X46355000Y-83929000D02*
X46355000Y-80997500D01*
X40250000Y-34312500D02*
X40250000Y-35814000D01*
X92250000Y-29694000D02*
X114750000Y-29694000D01*
X114750000Y-35560000D02*
X114750000Y-34312500D01*
X34163000Y-35814000D02*
X34163000Y-83947000D01*
X116713000Y-35560000D02*
X114750000Y-35560000D01*
X66250000Y-35500000D02*
X66250000Y-34312500D01*
X40750000Y-36068000D02*
X34417000Y-36068000D01*
X62250000Y-34312500D02*
X62250000Y-35750000D01*
X88258000Y-34320500D02*
X88258000Y-29956000D01*
X114250000Y-29948000D02*
X92750000Y-29948000D01*
X114250000Y-34312500D02*
X114250000Y-29948000D01*
X42545000Y-80997500D02*
X42545000Y-83439000D01*
X41910000Y-83566000D02*
X42037000Y-83439000D01*
X116967000Y-35560000D02*
X116967000Y-35814000D01*
X114250000Y-35814000D02*
X114250000Y-34312500D01*
X66758000Y-29956000D02*
X66758000Y-34320500D01*
X88258000Y-29956000D02*
X66758000Y-29956000D01*
X66750000Y-35750000D02*
X66750000Y-34312500D01*
X62298500Y-35798500D02*
X66701500Y-35798500D01*
X62250000Y-34312500D02*
X62250000Y-29948000D01*
X34417000Y-36068000D02*
X34417000Y-83566000D01*
X40750000Y-34312500D02*
X40750000Y-36068000D01*
X62250000Y-35750000D02*
X62298500Y-35798500D01*
X92750000Y-35798500D02*
X92750000Y-34312500D01*
X92750000Y-29948000D02*
X92750000Y-34312500D01*
X42037000Y-83439000D02*
X42545000Y-83439000D01*
X122555000Y-35560000D02*
X116967000Y-35560000D01*
X116967000Y-35814000D02*
X114250000Y-35814000D01*
X81915000Y-83439000D02*
X81915000Y-80997500D01*
X62230000Y-80997500D02*
X62230000Y-83439000D01*
X88250000Y-34312500D02*
X88250000Y-35798500D01*
X88250000Y-35798500D02*
X92750000Y-35798500D01*
X34417000Y-83566000D02*
X41910000Y-83566000D01*
X66701500Y-35798500D02*
X66750000Y-35750000D01*
X40750000Y-29948000D02*
X40750000Y-34312500D01*
X62250000Y-29948000D02*
X40750000Y-29948000D01*
X113750000Y-36068000D02*
X113750000Y-34312500D01*
X34671000Y-36322000D02*
X34671000Y-78740000D01*
X125095000Y-38100000D02*
X123825000Y-36830000D01*
X67250000Y-34312500D02*
X67250000Y-36000000D01*
X67197500Y-36052500D02*
X61750000Y-36052500D01*
X45085000Y-78740000D02*
X45720000Y-79375000D01*
X121031000Y-36068000D02*
X113750000Y-36068000D01*
X75946000Y-79375000D02*
X76581000Y-78740000D01*
X40292500Y-78740000D02*
X45085000Y-78740000D01*
X34671000Y-78740000D02*
X40292500Y-78740000D01*
X41250000Y-34312500D02*
X41250000Y-36322000D01*
X64770000Y-78740000D02*
X65405000Y-79375000D01*
X61750000Y-36052500D02*
X61750000Y-34312500D01*
X56515000Y-78740000D02*
X59977500Y-78740000D01*
X93250000Y-34312500D02*
X93250000Y-30202000D01*
X93250000Y-36052500D02*
X87750000Y-36052500D01*
X59977500Y-78740000D02*
X64770000Y-78740000D01*
X87758000Y-30210000D02*
X87758000Y-34320500D01*
X113750000Y-30202000D02*
X113750000Y-34312500D01*
X87750000Y-36052500D02*
X87750000Y-34312500D01*
X41250000Y-34312500D02*
X41250000Y-30202000D01*
X65405000Y-79375000D02*
X75946000Y-79375000D01*
X67250000Y-36000000D02*
X67197500Y-36052500D01*
X45720000Y-79375000D02*
X55880000Y-79375000D01*
X67258000Y-34320500D02*
X67258000Y-30210000D01*
X93250000Y-30202000D02*
X113750000Y-30202000D01*
X41250000Y-30202000D02*
X61750000Y-30202000D01*
X41250000Y-36322000D02*
X34671000Y-36322000D01*
X76581000Y-78740000D02*
X79662500Y-78740000D01*
X93250000Y-34312500D02*
X93250000Y-36052500D01*
X61750000Y-30202000D02*
X61750000Y-34312500D01*
X121031000Y-36830000D02*
X121031000Y-36068000D01*
X123825000Y-36830000D02*
X121031000Y-36830000D01*
X67258000Y-30210000D02*
X87758000Y-30210000D01*
X55880000Y-79375000D02*
X56515000Y-78740000D01*
X41750000Y-30456000D02*
X41750000Y-34312500D01*
X122555000Y-38100000D02*
X120777000Y-38100000D01*
X85090000Y-78740000D02*
X91787500Y-78740000D01*
X65405000Y-78740000D02*
X72102500Y-78740000D01*
X120777000Y-38100000D02*
X120777000Y-36322000D01*
X113250000Y-30456000D02*
X93750000Y-30456000D01*
X67693500Y-36306500D02*
X67750000Y-36250000D01*
X93741500Y-36306500D02*
X93750000Y-36298000D01*
X76517500Y-78105000D02*
X84455000Y-78105000D01*
X45085000Y-78105000D02*
X45720000Y-78740000D01*
X87250000Y-36306500D02*
X93741500Y-36306500D01*
X67758000Y-30464000D02*
X67758000Y-34320500D01*
X61250000Y-36306500D02*
X67693500Y-36306500D01*
X34925000Y-36576000D02*
X34925000Y-78105000D01*
X56451500Y-78105000D02*
X64770000Y-78105000D01*
X67750000Y-36250000D02*
X67750000Y-34312500D01*
X52417500Y-78740000D02*
X55816500Y-78740000D01*
X87258000Y-30464000D02*
X67758000Y-30464000D01*
X45720000Y-78740000D02*
X52417500Y-78740000D01*
X61250000Y-34312500D02*
X61250000Y-30456000D01*
X113250000Y-34312500D02*
X113250000Y-30456000D01*
X34925000Y-78105000D02*
X45085000Y-78105000D01*
X61250000Y-30456000D02*
X41750000Y-30456000D01*
X93750000Y-36298000D02*
X93750000Y-34312500D01*
X87250000Y-34312500D02*
X87250000Y-36306500D01*
X61250000Y-34312500D02*
X61250000Y-36306500D01*
X120777000Y-36322000D02*
X113250000Y-36322000D01*
X55816500Y-78740000D02*
X56451500Y-78105000D01*
X113250000Y-36322000D02*
X113250000Y-34312500D01*
X87258000Y-34320500D02*
X87258000Y-30464000D01*
X41750000Y-36576000D02*
X34925000Y-36576000D01*
X84455000Y-78105000D02*
X85090000Y-78740000D01*
X41750000Y-34312500D02*
X41750000Y-36576000D01*
X72102500Y-78740000D02*
X75882500Y-78740000D01*
X75882500Y-78740000D02*
X76517500Y-78105000D01*
X93750000Y-30456000D02*
X93750000Y-34312500D01*
X64770000Y-78105000D02*
X65405000Y-78740000D01*
X42250000Y-30710000D02*
X60750000Y-30710000D01*
X45720000Y-78105000D02*
X55880000Y-78105000D01*
X120523000Y-36576000D02*
X112750000Y-36576000D01*
X75946000Y-78105000D02*
X76581000Y-77470000D01*
X42250000Y-36830000D02*
X35179000Y-36830000D01*
X86758000Y-30718000D02*
X86758000Y-34320500D01*
X60750000Y-34312500D02*
X60750000Y-36560500D01*
X42250000Y-34312500D02*
X42250000Y-36830000D01*
X55880000Y-78105000D02*
X56515000Y-77470000D01*
X86750000Y-34312500D02*
X86750000Y-36560500D01*
X60750000Y-30710000D02*
X60750000Y-34312500D01*
X68250000Y-36500000D02*
X68250000Y-34312500D01*
X42250000Y-34312500D02*
X42250000Y-30710000D01*
X35179000Y-77470000D02*
X40292500Y-77470000D01*
X94250000Y-34312500D02*
X94250000Y-30710000D01*
X65405000Y-78105000D02*
X75946000Y-78105000D01*
X125095000Y-40640000D02*
X123825000Y-39370000D01*
X86750000Y-36560500D02*
X94250000Y-36560500D01*
X40292500Y-77470000D02*
X45085000Y-77470000D01*
X60750000Y-36560500D02*
X68189500Y-36560500D01*
X94250000Y-36560500D02*
X94250000Y-34312500D01*
X45085000Y-77470000D02*
X45720000Y-78105000D01*
X94250000Y-30710000D02*
X112750000Y-30710000D01*
X76581000Y-77470000D02*
X79662500Y-77470000D01*
X112750000Y-36576000D02*
X112750000Y-34312500D01*
X68189500Y-36560500D02*
X68250000Y-36500000D01*
X68258000Y-30718000D02*
X86758000Y-30718000D01*
X64770000Y-77470000D02*
X65405000Y-78105000D01*
X120523000Y-39370000D02*
X120523000Y-36576000D01*
X123825000Y-39370000D02*
X120523000Y-39370000D01*
X56515000Y-77470000D02*
X59977500Y-77470000D01*
X68258000Y-34320500D02*
X68258000Y-30718000D01*
X35179000Y-36830000D02*
X35179000Y-77470000D01*
X59977500Y-77470000D02*
X64770000Y-77470000D01*
X112750000Y-30710000D02*
X112750000Y-34312500D01*
X112250000Y-30964000D02*
X94750000Y-30964000D01*
X55816500Y-77470000D02*
X56451500Y-76835000D01*
X45720000Y-77470000D02*
X52417500Y-77470000D01*
X85090000Y-77470000D02*
X91787500Y-77470000D01*
X64770000Y-76835000D02*
X65405000Y-77470000D01*
X52417500Y-77470000D02*
X55816500Y-77470000D01*
X42750000Y-30964000D02*
X42750000Y-34312500D01*
X60250000Y-36814500D02*
X60250000Y-34312500D01*
X112250000Y-36830000D02*
X112250000Y-34312500D01*
X94750000Y-36814500D02*
X86250000Y-36814500D01*
X112250000Y-34312500D02*
X112250000Y-30964000D01*
X68750000Y-36750000D02*
X68685500Y-36814500D01*
X94750000Y-34312500D02*
X94750000Y-36814500D01*
X94750000Y-30964000D02*
X94750000Y-34312500D01*
X56451500Y-76835000D02*
X64770000Y-76835000D01*
X68758000Y-30972000D02*
X68758000Y-34320500D01*
X75882500Y-77470000D02*
X76517500Y-76835000D01*
X86250000Y-36814500D02*
X86250000Y-34312500D01*
X45085000Y-76835000D02*
X45720000Y-77470000D01*
X42750000Y-37084000D02*
X35433000Y-37084000D01*
X86258000Y-30972000D02*
X68758000Y-30972000D01*
X35433000Y-76835000D02*
X45085000Y-76835000D01*
X72102500Y-77470000D02*
X75882500Y-77470000D01*
X68685500Y-36814500D02*
X60250000Y-36814500D01*
X60250000Y-34312500D02*
X60250000Y-30964000D01*
X86258000Y-34320500D02*
X86258000Y-30972000D01*
X60250000Y-30964000D02*
X42750000Y-30964000D01*
X65405000Y-77470000D02*
X72102500Y-77470000D01*
X122555000Y-40640000D02*
X120269000Y-40640000D01*
X68750000Y-34312500D02*
X68750000Y-36750000D01*
X35433000Y-37084000D02*
X35433000Y-76835000D01*
X120269000Y-40640000D02*
X120269000Y-36830000D01*
X84455000Y-76835000D02*
X85090000Y-77470000D01*
X76517500Y-76835000D02*
X84455000Y-76835000D01*
X120269000Y-36830000D02*
X112250000Y-36830000D01*
X42750000Y-34312500D02*
X42750000Y-37084000D01*
X35687000Y-76200000D02*
X40292500Y-76200000D01*
X65405000Y-76835000D02*
X75946000Y-76835000D01*
X111750000Y-37084000D02*
X111750000Y-34312500D01*
X69250000Y-37000000D02*
X69181500Y-37068500D01*
X75946000Y-76835000D02*
X76581000Y-76200000D01*
X69258000Y-34320500D02*
X69258000Y-31226000D01*
X64770000Y-76200000D02*
X65405000Y-76835000D01*
X120015000Y-37084000D02*
X111750000Y-37084000D01*
X43250000Y-31218000D02*
X59750000Y-31218000D01*
X45720000Y-76835000D02*
X55880000Y-76835000D01*
X55880000Y-76835000D02*
X56515000Y-76200000D01*
X56515000Y-76200000D02*
X59977500Y-76200000D01*
X95250000Y-31218000D02*
X111736000Y-31218000D01*
X59750000Y-31218000D02*
X59750000Y-34312500D01*
X43250000Y-34312500D02*
X43250000Y-37338000D01*
X59977500Y-76200000D02*
X64770000Y-76200000D01*
X69258000Y-31226000D02*
X85758000Y-31226000D01*
X45085000Y-76200000D02*
X45720000Y-76835000D01*
X120015000Y-41910000D02*
X120015000Y-37084000D01*
X40292500Y-76200000D02*
X45085000Y-76200000D01*
X69181500Y-37068500D02*
X59750000Y-37068500D01*
X59750000Y-37068500D02*
X59750000Y-34312500D01*
X85758000Y-31226000D02*
X85758000Y-34320500D01*
X95250000Y-37068500D02*
X85750000Y-37068500D01*
X95250000Y-34312500D02*
X95250000Y-37068500D01*
X123825000Y-41910000D02*
X120015000Y-41910000D01*
X69250000Y-34312500D02*
X69250000Y-37000000D01*
X35687000Y-37338000D02*
X35687000Y-76200000D01*
X125095000Y-43180000D02*
X123825000Y-41910000D01*
X111736000Y-31218000D02*
X111750000Y-31232000D01*
X43250000Y-34312500D02*
X43250000Y-31218000D01*
X95250000Y-34312500D02*
X95250000Y-31218000D01*
X43250000Y-37338000D02*
X35687000Y-37338000D01*
X111750000Y-31232000D02*
X111750000Y-34312500D01*
X85750000Y-37068500D02*
X85750000Y-34312500D01*
X76581000Y-76200000D02*
X79662500Y-76200000D01*
X65405000Y-76200000D02*
X72102500Y-76200000D01*
X56250000Y-31472000D02*
X56250000Y-34312500D01*
X98750000Y-37322500D02*
X82250000Y-37322500D01*
X85090000Y-76200000D02*
X91787500Y-76200000D01*
X52417500Y-76200000D02*
X55816500Y-76200000D01*
X82258000Y-31480000D02*
X82258000Y-34320500D01*
X46750000Y-31472000D02*
X56250000Y-31472000D01*
X35941000Y-37592000D02*
X35941000Y-75565000D01*
X84455000Y-75565000D02*
X85090000Y-76200000D01*
X72758000Y-34320500D02*
X72758000Y-31480000D01*
X56250000Y-37322500D02*
X56250000Y-34312500D01*
X108250000Y-37338000D02*
X108250000Y-34312500D01*
X72677500Y-37322500D02*
X56250000Y-37322500D01*
X119761000Y-43180000D02*
X119761000Y-37338000D01*
X45720000Y-76200000D02*
X52417500Y-76200000D01*
X108250000Y-31472000D02*
X108250000Y-34312500D01*
X72758000Y-31480000D02*
X82258000Y-31480000D01*
X64770000Y-75565000D02*
X65405000Y-76200000D01*
X122555000Y-43180000D02*
X119761000Y-43180000D01*
X72750000Y-34312500D02*
X72750000Y-37250000D01*
X75882500Y-76200000D02*
X76517500Y-75565000D01*
X46750000Y-37592000D02*
X35941000Y-37592000D01*
X72750000Y-37250000D02*
X72677500Y-37322500D01*
X35941000Y-75565000D02*
X45085000Y-75565000D01*
X46750000Y-34312500D02*
X46750000Y-37592000D01*
X98750000Y-31472000D02*
X108250000Y-31472000D01*
X98750000Y-34312500D02*
X98750000Y-31472000D01*
X98750000Y-34312500D02*
X98750000Y-37322500D01*
X82250000Y-37322500D02*
X82250000Y-34312500D01*
X55816500Y-76200000D02*
X56451500Y-75565000D01*
X45085000Y-75565000D02*
X45720000Y-76200000D01*
X56451500Y-75565000D02*
X64770000Y-75565000D01*
X76517500Y-75565000D02*
X84455000Y-75565000D01*
X72102500Y-76200000D02*
X75882500Y-76200000D01*
X46750000Y-34312500D02*
X46750000Y-31472000D01*
X119761000Y-37338000D02*
X108250000Y-37338000D01*
X81750000Y-34312500D02*
X81750000Y-37576500D01*
X107750000Y-31726000D02*
X99250000Y-31726000D01*
X125095000Y-45720000D02*
X123825000Y-44450000D01*
X99250000Y-37576500D02*
X99250000Y-34312500D01*
X36195000Y-74930000D02*
X40292500Y-74930000D01*
X107750000Y-37592000D02*
X107750000Y-34312500D01*
X45085000Y-74930000D02*
X45720000Y-75565000D01*
X56515000Y-74930000D02*
X59977500Y-74930000D01*
X73258000Y-31734000D02*
X73258000Y-34320500D01*
X55880000Y-75565000D02*
X56515000Y-74930000D01*
X81750000Y-37576500D02*
X99250000Y-37576500D01*
X99250000Y-31726000D02*
X99250000Y-34312500D01*
X75946000Y-75565000D02*
X76581000Y-74930000D01*
X47250000Y-37846000D02*
X36195000Y-37846000D01*
X123825000Y-44450000D02*
X119507000Y-44450000D01*
X40292500Y-74930000D02*
X45085000Y-74930000D01*
X76581000Y-74930000D02*
X79662500Y-74930000D01*
X55750000Y-31726000D02*
X47250000Y-31726000D01*
X45720000Y-75565000D02*
X55880000Y-75565000D01*
X73173500Y-37576500D02*
X73250000Y-37500000D01*
X55750000Y-37576500D02*
X73173500Y-37576500D01*
X47250000Y-34312500D02*
X47250000Y-37846000D01*
X119507000Y-44450000D02*
X119507000Y-37592000D01*
X36195000Y-37846000D02*
X36195000Y-74930000D01*
X64770000Y-74930000D02*
X65405000Y-75565000D01*
X81758000Y-34320500D02*
X81758000Y-31734000D01*
X65405000Y-75565000D02*
X75946000Y-75565000D01*
X119507000Y-37592000D02*
X107750000Y-37592000D01*
X81758000Y-31734000D02*
X73258000Y-31734000D01*
X55750000Y-34312500D02*
X55750000Y-37576500D01*
X107750000Y-34312500D02*
X107750000Y-31726000D01*
X47250000Y-31726000D02*
X47250000Y-34312500D01*
X59977500Y-74930000D02*
X64770000Y-74930000D01*
X55750000Y-34312500D02*
X55750000Y-31726000D01*
X73250000Y-37500000D02*
X73250000Y-34312500D01*
X36449000Y-74295000D02*
X45085000Y-74295000D01*
X45085000Y-74295000D02*
X45720000Y-74930000D01*
X65405000Y-74930000D02*
X72102500Y-74930000D01*
X76517500Y-74295000D02*
X84455000Y-74295000D01*
X47750000Y-31980000D02*
X47750000Y-34312500D01*
X55250000Y-37830500D02*
X55250000Y-34312500D01*
X64770000Y-74295000D02*
X65405000Y-74930000D01*
X72102500Y-74930000D02*
X75882500Y-74930000D01*
X81258000Y-34320500D02*
X81258000Y-31988000D01*
X55250000Y-31980000D02*
X47750000Y-31980000D01*
X107250000Y-37846000D02*
X107250000Y-34195500D01*
X55250000Y-34312500D02*
X55250000Y-31980000D01*
X73758000Y-31988000D02*
X73758000Y-34320500D01*
X107250000Y-34312500D02*
X107250000Y-31980000D01*
X107250000Y-31980000D02*
X99750000Y-31980000D01*
X36449000Y-38100000D02*
X36449000Y-74295000D01*
X84455000Y-74295000D02*
X85090000Y-74930000D01*
X73750000Y-34312500D02*
X73750000Y-37750000D01*
X85090000Y-74930000D02*
X91787500Y-74930000D01*
X119253000Y-45720000D02*
X119253000Y-37846000D01*
X122555000Y-45720000D02*
X119253000Y-45720000D01*
X75882500Y-74930000D02*
X76517500Y-74295000D01*
X73750000Y-37750000D02*
X73669500Y-37830500D01*
X119253000Y-37846000D02*
X107250000Y-37846000D01*
X99750000Y-34312500D02*
X99750000Y-37830500D01*
X81250000Y-37830500D02*
X81250000Y-34312500D01*
X99750000Y-31980000D02*
X99750000Y-34312500D01*
X55816500Y-74930000D02*
X56451500Y-74295000D01*
X73669500Y-37830500D02*
X55250000Y-37830500D01*
X81258000Y-31988000D02*
X73758000Y-31988000D01*
X52417500Y-74930000D02*
X55816500Y-74930000D01*
X45720000Y-74930000D02*
X52417500Y-74930000D01*
X47750000Y-38100000D02*
X36449000Y-38100000D01*
X56451500Y-74295000D02*
X64770000Y-74295000D01*
X47750000Y-34312500D02*
X47750000Y-38100000D01*
X99750000Y-37830500D02*
X81250000Y-37830500D01*
X45720000Y-74295000D02*
X55880000Y-74295000D01*
X125095000Y-48260000D02*
X123825000Y-46990000D01*
X55880000Y-74295000D02*
X56515000Y-73660000D01*
X54750000Y-32234000D02*
X54750000Y-34312500D01*
X59977500Y-73660000D02*
X64770000Y-73660000D01*
X65405000Y-74295000D02*
X75946000Y-74295000D01*
X100250000Y-38084500D02*
X100250000Y-34312500D01*
X48250000Y-34312500D02*
X48250000Y-38354000D01*
X80750000Y-38078000D02*
X80756500Y-38084500D01*
X100250000Y-34312500D02*
X100250000Y-32234000D01*
X48250000Y-34312500D02*
X48250000Y-32234000D01*
X74165500Y-38084500D02*
X74250000Y-38000000D01*
X100250000Y-32234000D02*
X106750000Y-32234000D01*
X54750000Y-38084500D02*
X74165500Y-38084500D01*
X75946000Y-74295000D02*
X76581000Y-73660000D01*
X48250000Y-32234000D02*
X54750000Y-32234000D01*
X106750000Y-32234000D02*
X106750000Y-34312500D01*
X80750000Y-34312500D02*
X80750000Y-38078000D01*
X36703000Y-38354000D02*
X36703000Y-73660000D01*
X74258000Y-34320500D02*
X74258000Y-32242000D01*
X123825000Y-46990000D02*
X118999000Y-46990000D01*
X118999000Y-46990000D02*
X118999000Y-38100000D01*
X74250000Y-38000000D02*
X74250000Y-34312500D01*
X40292500Y-73660000D02*
X45085000Y-73660000D01*
X64770000Y-73660000D02*
X65405000Y-74295000D01*
X54750000Y-34312500D02*
X54750000Y-38084500D01*
X36703000Y-73660000D02*
X40292500Y-73660000D01*
X45085000Y-73660000D02*
X45720000Y-74295000D01*
X80756500Y-38084500D02*
X100250000Y-38084500D01*
X48250000Y-38354000D02*
X36703000Y-38354000D01*
X74258000Y-32242000D02*
X80758000Y-32242000D01*
X118999000Y-38100000D02*
X106750000Y-38100000D01*
X76581000Y-73660000D02*
X79662500Y-73660000D01*
X56515000Y-73660000D02*
X59977500Y-73660000D01*
X80758000Y-32242000D02*
X80758000Y-34320500D01*
X106750000Y-38100000D02*
X106750000Y-34312500D01*
X48750000Y-38608000D02*
X36957000Y-38608000D01*
X54250000Y-34312500D02*
X54250000Y-32488000D01*
X45085000Y-73025000D02*
X45720000Y-73660000D01*
X80250000Y-38338500D02*
X80250000Y-34312500D01*
X74750000Y-38250000D02*
X74661500Y-38338500D01*
X80258000Y-32496000D02*
X74758000Y-32496000D01*
X80258000Y-34320500D02*
X80258000Y-32496000D01*
X48750000Y-32488000D02*
X48750000Y-34312500D01*
X100750000Y-32488000D02*
X100750000Y-34312500D01*
X75882500Y-73660000D02*
X76517500Y-73025000D01*
X72102500Y-73660000D02*
X75882500Y-73660000D01*
X36957000Y-73025000D02*
X45085000Y-73025000D01*
X85090000Y-73660000D02*
X91787500Y-73660000D01*
X55816500Y-73660000D02*
X56451500Y-73025000D01*
X52417500Y-73660000D02*
X55816500Y-73660000D01*
X118745000Y-38354000D02*
X106250000Y-38354000D01*
X48750000Y-34312500D02*
X48750000Y-38608000D01*
X106250000Y-32488000D02*
X100750000Y-32488000D01*
X74758000Y-32496000D02*
X74758000Y-34320500D01*
X100750000Y-34312500D02*
X100750000Y-38338500D01*
X56451500Y-73025000D02*
X64770000Y-73025000D01*
X74750000Y-34312500D02*
X74750000Y-38250000D01*
X84455000Y-73025000D02*
X85090000Y-73660000D01*
X64770000Y-73025000D02*
X65405000Y-73660000D01*
X65405000Y-73660000D02*
X72102500Y-73660000D01*
X74661500Y-38338500D02*
X54250000Y-38338500D01*
X54250000Y-32488000D02*
X48750000Y-32488000D01*
X45720000Y-73660000D02*
X52417500Y-73660000D01*
X122555000Y-48260000D02*
X118745000Y-48260000D01*
X36957000Y-38608000D02*
X36957000Y-73025000D01*
X106250000Y-34312500D02*
X106250000Y-32488000D01*
X100750000Y-38338500D02*
X80250000Y-38338500D01*
X106250000Y-38354000D02*
X106250000Y-34312500D01*
X54250000Y-38338500D02*
X54250000Y-34312500D01*
X76517500Y-73025000D02*
X84455000Y-73025000D01*
X118745000Y-48260000D02*
X118745000Y-38354000D01*
X53750000Y-32742000D02*
X53750000Y-34312500D01*
X49250000Y-38862000D02*
X37211000Y-38862000D01*
X105791000Y-34353500D02*
X105750000Y-34312500D01*
X49250000Y-34312500D02*
X49250000Y-32742000D01*
X75157500Y-38592500D02*
X75250000Y-38500000D01*
X37211000Y-38862000D02*
X37211000Y-71755000D01*
X105791000Y-38608000D02*
X105791000Y-34353500D01*
X45720000Y-72390000D02*
X52417500Y-72390000D01*
X75258000Y-34320500D02*
X75258000Y-32750000D01*
X118491000Y-49530000D02*
X118491000Y-38608000D01*
X65405000Y-72390000D02*
X72102500Y-72390000D01*
X49250000Y-34312500D02*
X49250000Y-38862000D01*
X84455000Y-71755000D02*
X85090000Y-72390000D01*
X79750000Y-38592500D02*
X101250000Y-38592500D01*
X75258000Y-32750000D02*
X79758000Y-32750000D01*
X76517500Y-71755000D02*
X84455000Y-71755000D01*
X118491000Y-38608000D02*
X105791000Y-38608000D01*
X85090000Y-72390000D02*
X91787500Y-72390000D01*
X37211000Y-71755000D02*
X45085000Y-71755000D01*
X72102500Y-72390000D02*
X75882500Y-72390000D01*
X55816500Y-72390000D02*
X56451500Y-71755000D01*
X49250000Y-32742000D02*
X53750000Y-32742000D01*
X79750000Y-34312500D02*
X79750000Y-38592500D01*
X101250000Y-32742000D02*
X105750000Y-32742000D01*
X52417500Y-72390000D02*
X55816500Y-72390000D01*
X56451500Y-71755000D02*
X64770000Y-71755000D01*
X101250000Y-38592500D02*
X101250000Y-34312500D01*
X75882500Y-72390000D02*
X76517500Y-71755000D01*
X45085000Y-71755000D02*
X45720000Y-72390000D01*
X53750000Y-34312500D02*
X53750000Y-38592500D01*
X101250000Y-34312500D02*
X101250000Y-32742000D01*
X53750000Y-38592500D02*
X75157500Y-38592500D01*
X64770000Y-71755000D02*
X65405000Y-72390000D01*
X123825000Y-49530000D02*
X118491000Y-49530000D01*
X125095000Y-50800000D02*
X123825000Y-49530000D01*
X105750000Y-32742000D02*
X105750000Y-34312500D01*
X79758000Y-32750000D02*
X79758000Y-34320500D01*
X75250000Y-38500000D02*
X75250000Y-34312500D01*
X105250000Y-32996000D02*
X101750000Y-32996000D01*
X37465000Y-39116000D02*
X37465000Y-71120000D01*
X45085000Y-71120000D02*
X45720000Y-71755000D01*
X49750000Y-34312500D02*
X49750000Y-39116000D01*
X53250000Y-34312500D02*
X53250000Y-32996000D01*
X75758000Y-33004000D02*
X75758000Y-34320500D01*
X64770000Y-71120000D02*
X65405000Y-71755000D01*
X75946000Y-71755000D02*
X76581000Y-71120000D01*
X105250000Y-38862000D02*
X105250000Y-34312500D01*
X59977500Y-71120000D02*
X64770000Y-71120000D01*
X75653500Y-38846500D02*
X53250000Y-38846500D01*
X56515000Y-71120000D02*
X59977500Y-71120000D01*
X53250000Y-32996000D02*
X49750000Y-32996000D01*
X101750000Y-32996000D02*
X101750000Y-34312500D01*
X79250000Y-38846500D02*
X79250000Y-34312500D01*
X55880000Y-71755000D02*
X56515000Y-71120000D01*
X105250000Y-34312500D02*
X105250000Y-32996000D01*
X101750000Y-38839000D02*
X101742500Y-38846500D01*
X75750000Y-34312500D02*
X75750000Y-38750000D01*
X49750000Y-39116000D02*
X37465000Y-39116000D01*
X122555000Y-50800000D02*
X118237000Y-50800000D01*
X76581000Y-71120000D02*
X79662500Y-71120000D01*
X40292500Y-71120000D02*
X45085000Y-71120000D01*
X65405000Y-71755000D02*
X75946000Y-71755000D01*
X118237000Y-38862000D02*
X105250000Y-38862000D01*
X37465000Y-71120000D02*
X40292500Y-71120000D01*
X53250000Y-38846500D02*
X53250000Y-34312500D01*
X75750000Y-38750000D02*
X75653500Y-38846500D01*
X118237000Y-50800000D02*
X118237000Y-38862000D01*
X101750000Y-34312500D02*
X101750000Y-38839000D01*
X49750000Y-32996000D02*
X49750000Y-34312500D01*
X79258000Y-34320500D02*
X79258000Y-33004000D01*
X101742500Y-38846500D02*
X79250000Y-38846500D01*
X79258000Y-33004000D02*
X75758000Y-33004000D01*
X45720000Y-71755000D02*
X55880000Y-71755000D01*
X76250000Y-39100500D02*
X76250000Y-34312500D01*
X56451500Y-70485000D02*
X64770000Y-70485000D01*
X50250000Y-33250000D02*
X52750000Y-33250000D01*
X104750000Y-33250000D02*
X104750000Y-34312500D01*
X52417500Y-71120000D02*
X55816500Y-71120000D01*
X102250000Y-39100500D02*
X102250000Y-34312500D01*
X102250000Y-33250000D02*
X104750000Y-33250000D01*
X50250000Y-34312500D02*
X50250000Y-39370000D01*
X52750000Y-39100500D02*
X76250000Y-39100500D01*
X50250000Y-34312500D02*
X50250000Y-33250000D01*
X117983000Y-39116000D02*
X104775000Y-39116000D01*
X75882500Y-71120000D02*
X76517500Y-70485000D01*
X84455000Y-70485000D02*
X85090000Y-71120000D01*
X76258000Y-34320500D02*
X76258000Y-33258000D01*
X78750000Y-34312500D02*
X78750000Y-39100500D01*
X78758000Y-33258000D02*
X78758000Y-34320500D01*
X102250000Y-34312500D02*
X102250000Y-33250000D01*
X76258000Y-33258000D02*
X78758000Y-33258000D01*
X76517500Y-70485000D02*
X84455000Y-70485000D01*
X78750000Y-39100500D02*
X102250000Y-39100500D01*
X45720000Y-71120000D02*
X52417500Y-71120000D01*
X72102500Y-71120000D02*
X75882500Y-71120000D01*
X123825000Y-52070000D02*
X117983000Y-52070000D01*
X104775000Y-39116000D02*
X104775000Y-34337500D01*
X55816500Y-71120000D02*
X56451500Y-70485000D01*
X117983000Y-52070000D02*
X117983000Y-39116000D01*
X45085000Y-70485000D02*
X45720000Y-71120000D01*
X85090000Y-71120000D02*
X91787500Y-71120000D01*
X64770000Y-70485000D02*
X65405000Y-71120000D01*
X65405000Y-71120000D02*
X72102500Y-71120000D01*
X37719000Y-70485000D02*
X45085000Y-70485000D01*
X37719000Y-39370000D02*
X37719000Y-70485000D01*
X125095000Y-53340000D02*
X123825000Y-52070000D01*
X52750000Y-33250000D02*
X52750000Y-34312500D01*
X104775000Y-34337500D02*
X104750000Y-34312500D01*
X50250000Y-39370000D02*
X37719000Y-39370000D01*
X52750000Y-34312500D02*
X52750000Y-39100500D01*
X85090000Y-69850000D02*
X91787500Y-69850000D01*
X77470000Y-34312500D02*
X78250000Y-34312500D01*
X37973000Y-39624000D02*
X37973000Y-69215000D01*
X45085000Y-69215000D02*
X45720000Y-69850000D01*
X103632000Y-34312500D02*
X104250000Y-34312500D01*
X45720000Y-69850000D02*
X52417500Y-69850000D01*
X50750000Y-39624000D02*
X37973000Y-39624000D01*
X64770000Y-69215000D02*
X65405000Y-69850000D01*
X50750000Y-34312500D02*
X52250000Y-34312500D01*
X122555000Y-53340000D02*
X117729000Y-53340000D01*
X52250000Y-39370000D02*
X52250000Y-34312500D01*
X76517500Y-69215000D02*
X84455000Y-69215000D01*
X37973000Y-69215000D02*
X45085000Y-69215000D01*
X65405000Y-69850000D02*
X72102500Y-69850000D01*
X56451500Y-69215000D02*
X64770000Y-69215000D01*
X50750000Y-34312500D02*
X50750000Y-39624000D01*
X75882500Y-69850000D02*
X76517500Y-69215000D01*
X55816500Y-69850000D02*
X56451500Y-69215000D01*
X117729000Y-53340000D02*
X117729000Y-39370000D01*
X76750000Y-34312500D02*
X77470000Y-34312500D01*
X77470000Y-39370000D02*
X52250000Y-39370000D01*
X52417500Y-69850000D02*
X55816500Y-69850000D01*
X102750000Y-34312500D02*
X103632000Y-34312500D01*
X72102500Y-69850000D02*
X75882500Y-69850000D01*
X117729000Y-39370000D02*
X103632000Y-39370000D01*
X77470000Y-34312500D02*
X77470000Y-39370000D01*
X103632000Y-39370000D02*
X77470000Y-39370000D01*
X84455000Y-69215000D02*
X85090000Y-69850000D01*
X103632000Y-34312500D02*
X103632000Y-39370000D01*
X88265000Y-40640000D02*
X101219000Y-40640000D01*
X101250000Y-53687500D02*
X101250000Y-41814000D01*
X114282000Y-40640000D02*
X114300000Y-40622000D01*
X75250000Y-41844000D02*
X75311000Y-41783000D01*
X114250000Y-52120000D02*
X114250000Y-53687500D01*
X49276000Y-40640000D02*
X62230000Y-40640000D01*
X107690000Y-74295000D02*
X112395000Y-74295000D01*
X49250000Y-40666000D02*
X49276000Y-40640000D01*
X112395000Y-70485000D02*
X112395000Y-74295000D01*
X114300000Y-41783000D02*
X114300000Y-52070000D01*
X75250000Y-53687500D02*
X75250000Y-41844000D01*
X62250000Y-53687500D02*
X62250000Y-41803000D01*
X117221000Y-40640000D02*
X117221000Y-55880000D01*
X88250000Y-41925000D02*
X88265000Y-41910000D01*
X101219000Y-40640000D02*
X114282000Y-40640000D01*
X117729000Y-55880000D02*
X122555000Y-55880000D01*
X117221000Y-55880000D02*
X117729000Y-55880000D01*
X101250000Y-41814000D02*
X101219000Y-41783000D01*
X114300000Y-40622000D02*
X114318000Y-40640000D01*
X114300000Y-52070000D02*
X114250000Y-52120000D01*
X49250000Y-53687500D02*
X49250000Y-40666000D01*
X75311000Y-40640000D02*
X88265000Y-40640000D01*
X88250000Y-53687500D02*
X88250000Y-41925000D01*
X62250000Y-41803000D02*
X62230000Y-41783000D01*
X114318000Y-40640000D02*
X117221000Y-40640000D01*
X62230000Y-40640000D02*
X75311000Y-40640000D01*
X111887000Y-69705000D02*
X111887000Y-73025000D01*
X76750000Y-41190000D02*
X76708000Y-41148000D01*
X63750000Y-53687500D02*
X63750000Y-41787000D01*
X115750000Y-53687500D02*
X115750000Y-41148000D01*
X76750000Y-53687500D02*
X76750000Y-41190000D01*
X102743000Y-41148000D02*
X112522000Y-41148000D01*
X116967000Y-41148000D02*
X116967000Y-57150000D01*
X63754000Y-41783000D02*
X63754000Y-41148000D01*
X89750000Y-41187000D02*
X89789000Y-41148000D01*
X116967000Y-57150000D02*
X123825000Y-57150000D01*
X50750000Y-53687500D02*
X50750000Y-41148000D01*
X102750000Y-41155000D02*
X102743000Y-41148000D01*
X123825000Y-57150000D02*
X125095000Y-58420000D01*
X112522000Y-41148000D02*
X116967000Y-41148000D01*
X89789000Y-41148000D02*
X102743000Y-41148000D01*
X63754000Y-41148000D02*
X76708000Y-41148000D01*
X63750000Y-41787000D02*
X63754000Y-41783000D01*
X102750000Y-53687500D02*
X102750000Y-41155000D01*
X50750000Y-41148000D02*
X63754000Y-41148000D01*
X107690000Y-73025000D02*
X111887000Y-73025000D01*
X76708000Y-41148000D02*
X89789000Y-41148000D01*
X89750000Y-53687500D02*
X89750000Y-41187000D01*
X115750000Y-41148000D02*
X112522000Y-41148000D01*
X114046000Y-69215000D02*
X114046000Y-67056000D01*
X100590000Y-73025000D02*
X102743000Y-73025000D01*
X102743000Y-73025000D02*
X102743000Y-69215000D01*
X102743000Y-69215000D02*
X114046000Y-69215000D01*
X102235000Y-71755000D02*
X100590000Y-71755000D01*
X102235000Y-68834000D02*
X102235000Y-71755000D01*
X113284000Y-67691000D02*
X113284000Y-68834000D01*
X113284000Y-68834000D02*
X102235000Y-68834000D01*
X101727000Y-70485000D02*
X100590000Y-70485000D01*
X101727000Y-68326000D02*
X101727000Y-70485000D01*
X112522000Y-68326000D02*
X101727000Y-68326000D01*
X120777000Y-57531000D02*
X113768000Y-57531000D01*
X100768000Y-57708800D02*
X100838000Y-57778800D01*
X100750000Y-53687500D02*
X100750000Y-54719000D01*
X123825000Y-62230000D02*
X120777000Y-62230000D01*
X91787500Y-68580000D02*
X91787500Y-64295500D01*
X113768000Y-56540400D02*
X113768000Y-54737000D01*
X113768000Y-56540400D02*
X113768000Y-57531000D01*
X120777000Y-62230000D02*
X120777000Y-57531000D01*
X100768000Y-54737000D02*
X100768000Y-57708800D01*
X100838000Y-57778800D02*
X100838000Y-59197300D01*
X125095000Y-63500000D02*
X123825000Y-62230000D01*
X91787500Y-64295500D02*
X91821000Y-64262000D01*
X113768000Y-54737000D02*
X113750000Y-54719000D01*
X100750000Y-54719000D02*
X100768000Y-54737000D01*
X113750000Y-54719000D02*
X113750000Y-53687500D01*
X120523000Y-57912000D02*
X113054800Y-57912000D01*
X112750000Y-53687500D02*
X112750000Y-57607200D01*
X89535000Y-66322500D02*
X89535000Y-64262000D01*
X99750000Y-58214800D02*
X99752000Y-58216800D01*
X99752000Y-58216800D02*
X99752000Y-59000300D01*
X99750000Y-53687500D02*
X99750000Y-58214800D01*
X99752000Y-59000300D02*
X99949000Y-59197300D01*
X113054800Y-57912000D02*
X112750000Y-57607200D01*
X120523000Y-63500000D02*
X120523000Y-57912000D01*
X99752000Y-58216800D02*
X99750000Y-58218800D01*
X122555000Y-63500000D02*
X120523000Y-63500000D01*
X112096400Y-55067200D02*
X111750000Y-54720800D01*
X98750000Y-53687500D02*
X98750000Y-54646800D01*
X112141000Y-57093000D02*
X112141000Y-58166000D01*
X99040800Y-57708800D02*
X99060000Y-57728000D01*
X111750000Y-54720800D02*
X111750000Y-53687500D01*
X120269000Y-58166000D02*
X120269000Y-64770000D01*
X120269000Y-64770000D02*
X123825000Y-64770000D01*
X112096400Y-57048400D02*
X112096400Y-55067200D01*
X99040800Y-54937600D02*
X99040800Y-57708800D01*
X123825000Y-64770000D02*
X125095000Y-66040000D01*
X98750000Y-54646800D02*
X99040800Y-54937600D01*
X112096400Y-57048400D02*
X112141000Y-57093000D01*
X99060000Y-57728000D02*
X99060000Y-59197300D01*
X88265000Y-66322500D02*
X88265000Y-64262000D01*
X112141000Y-58166000D02*
X120269000Y-58166000D01*
X122555000Y-66040000D02*
X120015000Y-66040000D01*
X120015000Y-58420000D02*
X111791600Y-58420000D01*
X120015000Y-66040000D02*
X120015000Y-58420000D01*
X111791600Y-58420000D02*
X111436000Y-58064400D01*
X110750000Y-54513000D02*
X111436000Y-55199000D01*
X97750000Y-53687500D02*
X97750000Y-54513000D01*
X97750000Y-54513000D02*
X98532800Y-55295800D01*
X85725000Y-66322500D02*
X85725000Y-64262000D01*
X110750000Y-53687500D02*
X110750000Y-54513000D01*
X111436000Y-55199000D02*
X111436000Y-58064400D01*
X98532800Y-55295800D02*
X98532800Y-58267600D01*
X95942000Y-55118000D02*
X96250000Y-54810000D01*
X119761000Y-58801000D02*
X119761000Y-67310000D01*
X95942000Y-58013600D02*
X95942000Y-55118000D01*
X109069000Y-56794400D02*
X109069000Y-58801000D01*
X123825000Y-67310000D02*
X125095000Y-68580000D01*
X109069000Y-54991000D02*
X109069000Y-56794400D01*
X84455000Y-66322500D02*
X84455000Y-64262000D01*
X109250000Y-53687500D02*
X109250000Y-54810000D01*
X109250000Y-54810000D02*
X109069000Y-54991000D01*
X119761000Y-67310000D02*
X123825000Y-67310000D01*
X96250000Y-54810000D02*
X96250000Y-53687500D01*
X109069000Y-58801000D02*
X119761000Y-58801000D01*
X95332400Y-57404000D02*
X95307000Y-57429400D01*
X108250000Y-53687500D02*
X108307000Y-53744500D01*
X108331000Y-59055000D02*
X108331000Y-56412000D01*
X122555000Y-68580000D02*
X119507000Y-68580000D01*
X95307000Y-57378600D02*
X95332400Y-57404000D01*
X108331000Y-56412000D02*
X108307000Y-56388000D01*
X95250000Y-53687500D02*
X95307000Y-53744500D01*
X119507000Y-68580000D02*
X119507000Y-59055000D01*
X95307000Y-53744500D02*
X95307000Y-57378600D01*
X119507000Y-59055000D02*
X108331000Y-59055000D01*
X83185000Y-66322500D02*
X83185000Y-64262000D01*
X108307000Y-53744500D02*
X108307000Y-56388000D01*
X123825000Y-69850000D02*
X125095000Y-71120000D01*
X94316400Y-56896000D02*
X94291000Y-56921400D01*
X94250000Y-54950000D02*
X94291000Y-54991000D01*
X119253000Y-59309000D02*
X119253000Y-69850000D01*
X107315000Y-56642000D02*
X107315000Y-59309000D01*
X94291000Y-54991000D02*
X94291000Y-56870600D01*
X94291000Y-56870600D02*
X94316400Y-56896000D01*
X107291000Y-56618000D02*
X107315000Y-56642000D01*
X119253000Y-69850000D02*
X123825000Y-69850000D01*
X107291000Y-54991000D02*
X107291000Y-56388000D01*
X107315000Y-59309000D02*
X119253000Y-59309000D01*
X107291000Y-56388000D02*
X107291000Y-56618000D01*
X81915000Y-66322500D02*
X81915000Y-64262000D01*
X94250000Y-53687500D02*
X94250000Y-54950000D01*
X107250000Y-53687500D02*
X107250000Y-54950000D01*
X107250000Y-54950000D02*
X107291000Y-54991000D01*
X79662500Y-64355500D02*
X79756000Y-64262000D01*
X79662500Y-68580000D02*
X79662500Y-64355500D01*
X106275000Y-56388000D02*
X106275000Y-54991000D01*
X106299000Y-56412000D02*
X106275000Y-56388000D01*
X106250000Y-54966000D02*
X106250000Y-53687500D01*
X118999000Y-59563000D02*
X106299000Y-59563000D01*
X118999000Y-71120000D02*
X118999000Y-59563000D01*
X93250000Y-54966000D02*
X93250000Y-53687500D01*
X122555000Y-71120000D02*
X118999000Y-71120000D01*
X106299000Y-59563000D02*
X106299000Y-56412000D01*
X106275000Y-54991000D02*
X106250000Y-54966000D01*
X93275000Y-54991000D02*
X93250000Y-54966000D01*
X93275000Y-56388000D02*
X93275000Y-54991000D01*
X74768000Y-57708800D02*
X74768000Y-59274000D01*
X87750000Y-54719000D02*
X87750000Y-53687500D01*
X74750000Y-53687500D02*
X74750000Y-54719000D01*
X74768000Y-54737000D02*
X74768000Y-57708800D01*
X125095000Y-73660000D02*
X123825000Y-72390000D01*
X87768000Y-54737000D02*
X87750000Y-54719000D01*
X74768000Y-59274000D02*
X74803000Y-59309000D01*
X87757000Y-59817000D02*
X87757000Y-56551400D01*
X87757000Y-56551400D02*
X87768000Y-56540400D01*
X87768000Y-56540400D02*
X87768000Y-54737000D01*
X118745000Y-72390000D02*
X118745000Y-59817000D01*
X123825000Y-72390000D02*
X118745000Y-72390000D01*
X118745000Y-59817000D02*
X87757000Y-59817000D01*
X74750000Y-54719000D02*
X74768000Y-54737000D01*
X72102500Y-68580000D02*
X72102500Y-64295500D01*
X72102500Y-64295500D02*
X72136000Y-64262000D01*
X73752000Y-58216800D02*
X73750000Y-58218800D01*
X118491000Y-73660000D02*
X118491000Y-60071000D01*
X86741000Y-60071000D02*
X86741000Y-57616200D01*
X122555000Y-73660000D02*
X118491000Y-73660000D01*
X73750000Y-53687500D02*
X73750000Y-58214800D01*
X86741000Y-57616200D02*
X86750000Y-57607200D01*
X73752000Y-58216800D02*
X73752000Y-59274000D01*
X73752000Y-59274000D02*
X73787000Y-59309000D01*
X73750000Y-58214800D02*
X73752000Y-58216800D01*
X69850000Y-66322500D02*
X69850000Y-64262000D01*
X118491000Y-60071000D02*
X86741000Y-60071000D01*
X86750000Y-53687500D02*
X86750000Y-57607200D01*
X86106000Y-60325000D02*
X86106000Y-57058000D01*
X86096400Y-57048400D02*
X86096400Y-55067200D01*
X86096400Y-55067200D02*
X85750000Y-54720800D01*
X118237000Y-74930000D02*
X118237000Y-60325000D01*
X73040800Y-57708800D02*
X73040800Y-59293200D01*
X72750000Y-54646800D02*
X73040800Y-54937600D01*
X86106000Y-57058000D02*
X86096400Y-57048400D01*
X73040800Y-54937600D02*
X73040800Y-57708800D01*
X118237000Y-60325000D02*
X86106000Y-60325000D01*
X68580000Y-66322500D02*
X68580000Y-64262000D01*
X125095000Y-76200000D02*
X123825000Y-74930000D01*
X123825000Y-74930000D02*
X118237000Y-74930000D01*
X85750000Y-54720800D02*
X85750000Y-53687500D01*
X73040800Y-59293200D02*
X73025000Y-59309000D01*
X72750000Y-53687500D02*
X72750000Y-54646800D01*
X85436000Y-55199000D02*
X85436000Y-58064400D01*
X84750000Y-53687500D02*
X84750000Y-54513000D01*
X117983000Y-76200000D02*
X117983000Y-60579000D01*
X84750000Y-54513000D02*
X85436000Y-55199000D01*
X71750000Y-54513000D02*
X72532800Y-55295800D01*
X72532800Y-55295800D02*
X72532800Y-58267600D01*
X122555000Y-76200000D02*
X117983000Y-76200000D01*
X85471000Y-60579000D02*
X85471000Y-58099400D01*
X71750000Y-53687500D02*
X71750000Y-54513000D01*
X66040000Y-66322500D02*
X66040000Y-64262000D01*
X117983000Y-60579000D02*
X85471000Y-60579000D01*
X85471000Y-58099400D02*
X85436000Y-58064400D01*
X83250000Y-53687500D02*
X83250000Y-54810000D01*
X117729000Y-77470000D02*
X117729000Y-60833000D01*
X83069000Y-54991000D02*
X83069000Y-56794400D01*
X64770000Y-66322500D02*
X64770000Y-64262000D01*
X123825000Y-77470000D02*
X117729000Y-77470000D01*
X70250000Y-54810000D02*
X70250000Y-53687500D01*
X83058000Y-60833000D02*
X83058000Y-56805400D01*
X125095000Y-78740000D02*
X123825000Y-77470000D01*
X117729000Y-60833000D02*
X83058000Y-60833000D01*
X83058000Y-56805400D02*
X83069000Y-56794400D01*
X69942000Y-55118000D02*
X70250000Y-54810000D01*
X83250000Y-54810000D02*
X83069000Y-54991000D01*
X69942000Y-58013600D02*
X69942000Y-55118000D01*
X122555000Y-78740000D02*
X117475000Y-78740000D01*
X82296000Y-56399000D02*
X82307000Y-56388000D01*
X69332400Y-57404000D02*
X69307000Y-57429400D01*
X69307000Y-53744500D02*
X69307000Y-57378600D01*
X69307000Y-57378600D02*
X69332400Y-57404000D01*
X63500000Y-66322500D02*
X63500000Y-64262000D01*
X82307000Y-53744500D02*
X82307000Y-56388000D01*
X82250000Y-53687500D02*
X82307000Y-53744500D01*
X69250000Y-53687500D02*
X69307000Y-53744500D01*
X117475000Y-61087000D02*
X82296000Y-61087000D01*
X82296000Y-61087000D02*
X82296000Y-56399000D01*
X117475000Y-78740000D02*
X117475000Y-61087000D01*
X68250000Y-53687500D02*
X68250000Y-54950000D01*
X81280000Y-61341000D02*
X81280000Y-56399000D01*
X117221000Y-80010000D02*
X117221000Y-61341000D01*
X125095000Y-81280000D02*
X123825000Y-80010000D01*
X62230000Y-66322500D02*
X62230000Y-64262000D01*
X68250000Y-54950000D02*
X68291000Y-54991000D01*
X68291000Y-54991000D02*
X68291000Y-56870600D01*
X81280000Y-56399000D02*
X81291000Y-56388000D01*
X68291000Y-56870600D02*
X68316400Y-56896000D01*
X123825000Y-80010000D02*
X117221000Y-80010000D01*
X81291000Y-54991000D02*
X81291000Y-56388000D01*
X117221000Y-61341000D02*
X81280000Y-61341000D01*
X68316400Y-56896000D02*
X68291000Y-56921400D01*
X81250000Y-54950000D02*
X81291000Y-54991000D01*
X81250000Y-53687500D02*
X81250000Y-54950000D01*
X67275000Y-54991000D02*
X67250000Y-54966000D01*
X67250000Y-54966000D02*
X67250000Y-53687500D01*
X59977500Y-64355500D02*
X60071000Y-64262000D01*
X80275000Y-56388000D02*
X80275000Y-54991000D01*
X67275000Y-56388000D02*
X67275000Y-54991000D01*
X80264000Y-61595000D02*
X80264000Y-56399000D01*
X80275000Y-54991000D02*
X80250000Y-54966000D01*
X59977500Y-68580000D02*
X59977500Y-64355500D01*
X116967000Y-61595000D02*
X80264000Y-61595000D01*
X80250000Y-54966000D02*
X80250000Y-53687500D01*
X122555000Y-81280000D02*
X116967000Y-81280000D01*
X116967000Y-81280000D02*
X116967000Y-61595000D01*
X80264000Y-56399000D02*
X80275000Y-56388000D01*
X48722000Y-58339000D02*
X48722000Y-53715500D01*
X61722000Y-61849000D02*
X61722000Y-55880000D01*
X125095000Y-83820000D02*
X123825000Y-82550000D01*
X52417500Y-66387500D02*
X48722000Y-62692000D01*
X61722000Y-55880000D02*
X61722000Y-53715500D01*
X48722000Y-58501000D02*
X48641000Y-58420000D01*
X48722000Y-62692000D02*
X48722000Y-58501000D01*
X61722000Y-53715500D02*
X61750000Y-53687500D01*
X52417500Y-68580000D02*
X52417500Y-66387500D01*
X116713000Y-61849000D02*
X61722000Y-61849000D01*
X48641000Y-58420000D02*
X48722000Y-58339000D01*
X123825000Y-82550000D02*
X116713000Y-82550000D01*
X116713000Y-82550000D02*
X116713000Y-61849000D01*
X116459000Y-83820000D02*
X116459000Y-62103000D01*
X47960000Y-58847000D02*
X47960000Y-54966237D01*
X50165000Y-66322500D02*
X50165000Y-64770000D01*
X47960000Y-59009000D02*
X47879000Y-58928000D01*
X47960000Y-62565000D02*
X47960000Y-59009000D01*
X47879000Y-58928000D02*
X47960000Y-58847000D01*
X47960000Y-54966237D02*
X47750000Y-54756237D01*
X116459000Y-62103000D02*
X60960000Y-62103000D01*
X50165000Y-64770000D02*
X47960000Y-62565000D01*
X60960000Y-54966237D02*
X60750000Y-54756237D01*
X60750000Y-54756237D02*
X60750000Y-53687500D01*
X60960000Y-62103000D02*
X60960000Y-56515000D01*
X60960000Y-56515000D02*
X60960000Y-54966237D01*
X47750000Y-54756237D02*
X47750000Y-53687500D01*
X122555000Y-83820000D02*
X116459000Y-83820000D01*
X48895000Y-66322500D02*
X48895000Y-64516000D01*
X60198000Y-57277000D02*
X60198000Y-55085237D01*
X60198000Y-62357000D02*
X60198000Y-57277000D01*
X125095000Y-86360000D02*
X123825000Y-85090000D01*
X48895000Y-64516000D02*
X47198000Y-62819000D01*
X60198000Y-55085237D02*
X59750000Y-54637237D01*
X47198000Y-58339000D02*
X47198000Y-55085237D01*
X47198000Y-55085237D02*
X46750000Y-54637237D01*
X116205000Y-85090000D02*
X116205000Y-62357000D01*
X59750000Y-54637237D02*
X59750000Y-53687500D01*
X116205000Y-62357000D02*
X60198000Y-62357000D01*
X47198000Y-62819000D02*
X47198000Y-58501000D01*
X123825000Y-85090000D02*
X116205000Y-85090000D01*
X47198000Y-58501000D02*
X47117000Y-58420000D01*
X46750000Y-54637237D02*
X46750000Y-53687500D01*
X47117000Y-58420000D02*
X47198000Y-58339000D01*
X115951000Y-86360000D02*
X115951000Y-62611000D01*
X58750000Y-54686000D02*
X58750000Y-53687500D01*
X122555000Y-86360000D02*
X115951000Y-86360000D01*
X45750000Y-54686000D02*
X45750000Y-53687500D01*
X115951000Y-62611000D02*
X59436000Y-62611000D01*
X46355000Y-66322500D02*
X46355000Y-58928000D01*
X59436000Y-62611000D02*
X59436000Y-58928000D01*
X46355000Y-58928000D02*
X46436000Y-58847000D01*
X46436000Y-58847000D02*
X46436000Y-55372000D01*
X59436000Y-55372000D02*
X58750000Y-54686000D01*
X46436000Y-55372000D02*
X45750000Y-54686000D01*
X59436000Y-58928000D02*
X59436000Y-55372000D01*
X43769000Y-55245000D02*
X44250000Y-54764000D01*
X45085000Y-64181000D02*
X43769000Y-62865000D01*
X56769000Y-62865000D02*
X56769000Y-57531000D01*
X45085000Y-66322500D02*
X45085000Y-64181000D01*
X115697000Y-62865000D02*
X56769000Y-62865000D01*
X123825000Y-87630000D02*
X115697000Y-87630000D01*
X56769000Y-57531000D02*
X56769000Y-55245000D01*
X43769000Y-62865000D02*
X43769000Y-57739000D01*
X115697000Y-87630000D02*
X115697000Y-62865000D01*
X44250000Y-54764000D02*
X44250000Y-53687500D01*
X43769000Y-57739000D02*
X43688000Y-57658000D01*
X43769000Y-57577000D02*
X43769000Y-55245000D01*
X57250000Y-54764000D02*
X57250000Y-53687500D01*
X43688000Y-57658000D02*
X43769000Y-57577000D01*
X125095000Y-88900000D02*
X123825000Y-87630000D01*
X56769000Y-55245000D02*
X57250000Y-54764000D01*
X43007000Y-57069000D02*
X43007000Y-54982737D01*
X43250000Y-54739737D02*
X43250000Y-53687500D01*
X43007000Y-54982737D02*
X43250000Y-54739737D01*
X43007000Y-57231000D02*
X42926000Y-57150000D01*
X56007000Y-63119000D02*
X56007000Y-57023000D01*
X115443000Y-63119000D02*
X56007000Y-63119000D01*
X56007000Y-54982737D02*
X56250000Y-54739737D01*
X56250000Y-54739737D02*
X56250000Y-53687500D01*
X42926000Y-57150000D02*
X43007000Y-57069000D01*
X43007000Y-63119000D02*
X43007000Y-57231000D01*
X43815000Y-63927000D02*
X43007000Y-63119000D01*
X56007000Y-57023000D02*
X56007000Y-54982737D01*
X122555000Y-88900000D02*
X115443000Y-88900000D01*
X115443000Y-88900000D02*
X115443000Y-63119000D01*
X43815000Y-66322500D02*
X43815000Y-63927000D01*
X125095000Y-91440000D02*
X123825000Y-90170000D01*
X42245000Y-56561000D02*
X42245000Y-53692500D01*
X42164000Y-56642000D02*
X42245000Y-56561000D01*
X55245000Y-63373000D02*
X55245000Y-56388000D01*
X42545000Y-66322500D02*
X42545000Y-63673000D01*
X55245000Y-56388000D02*
X55245000Y-53692500D01*
X123825000Y-90170000D02*
X115189000Y-90170000D01*
X55245000Y-53692500D02*
X55250000Y-53687500D01*
X42245000Y-63373000D02*
X42245000Y-56723000D01*
X42545000Y-63673000D02*
X42245000Y-63373000D01*
X115189000Y-63373000D02*
X55245000Y-63373000D01*
X42245000Y-56723000D02*
X42164000Y-56642000D01*
X115189000Y-90170000D02*
X115189000Y-63373000D01*
X41250000Y-63606000D02*
X41250000Y-56286000D01*
X122555000Y-91440000D02*
X114935000Y-91440000D01*
X40292500Y-68580000D02*
X40292500Y-64563500D01*
X114935000Y-91440000D02*
X114935000Y-63627000D01*
X41250000Y-56286000D02*
X41275000Y-56261000D01*
X40292500Y-64563500D02*
X41250000Y-63606000D01*
X54229000Y-63627000D02*
X54250000Y-63606000D01*
X114935000Y-63627000D02*
X54229000Y-63627000D01*
X54250000Y-63606000D02*
X54250000Y-53687500D01*
X41275000Y-56261000D02*
X41250000Y-56236000D01*
X41250000Y-56236000D02*
X41250000Y-53687500D01*
X48260000Y-88870000D02*
X48260000Y-86360000D01*
X32766000Y-86360000D02*
X32766000Y-79248000D01*
X83185000Y-86360000D02*
X63500000Y-86360000D01*
X48260000Y-86360000D02*
X43180000Y-86360000D01*
X43815000Y-80997500D02*
X43815000Y-79248000D01*
X43815000Y-79248000D02*
X35052000Y-79248000D01*
X43180000Y-86360000D02*
X32766000Y-86360000D01*
X83185000Y-80997500D02*
X83185000Y-86360000D01*
X63500000Y-86360000D02*
X63500000Y-80997500D01*
X63500000Y-86360000D02*
X48260000Y-86360000D01*
X45085000Y-72390000D02*
X45720000Y-73025000D01*
X55880000Y-73025000D02*
X56515000Y-72390000D01*
X75946000Y-73025000D02*
X76581000Y-72390000D01*
X45720000Y-86995000D02*
X31750000Y-86995000D01*
X64770000Y-72390000D02*
X65405000Y-73025000D01*
X59977500Y-72390000D02*
X64770000Y-72390000D01*
X31750000Y-86995000D02*
X31750000Y-66040000D01*
X45720000Y-88870000D02*
X45720000Y-86995000D01*
X45720000Y-73025000D02*
X55880000Y-73025000D01*
X76581000Y-72390000D02*
X79662500Y-72390000D01*
X40292500Y-72390000D02*
X38481000Y-72390000D01*
X56515000Y-72390000D02*
X59977500Y-72390000D01*
X65405000Y-73025000D02*
X75946000Y-73025000D01*
X40292500Y-72390000D02*
X45085000Y-72390000D01*
X65405000Y-70485000D02*
X75946000Y-70485000D01*
X93980000Y-85090000D02*
X109093000Y-85090000D01*
X85090000Y-70485000D02*
X93980000Y-70485000D01*
X113284000Y-83200000D02*
X113299000Y-83185000D01*
X55880000Y-70485000D02*
X56515000Y-69850000D01*
X109220000Y-88870000D02*
X109220000Y-85217000D01*
X59977500Y-69850000D02*
X64770000Y-69850000D01*
X64770000Y-69850000D02*
X65405000Y-70485000D01*
X93980000Y-70485000D02*
X93980000Y-85090000D01*
X109093000Y-85090000D02*
X113284000Y-85090000D01*
X45085000Y-69850000D02*
X45720000Y-70485000D01*
X76581000Y-69850000D02*
X79662500Y-69850000D01*
X45720000Y-70485000D02*
X55880000Y-70485000D01*
X84455000Y-69850000D02*
X85090000Y-70485000D01*
X79662500Y-69850000D02*
X84455000Y-69850000D01*
X109220000Y-85217000D02*
X109093000Y-85090000D01*
X113284000Y-85090000D02*
X113284000Y-83200000D01*
X113299000Y-83185000D02*
X113299000Y-75565000D01*
X40292500Y-69850000D02*
X45085000Y-69850000D01*
X75946000Y-70485000D02*
X76581000Y-69850000D01*
X56515000Y-69850000D02*
X59977500Y-69850000D01*
X100590000Y-74295000D02*
X98425000Y-74295000D01*
X98425000Y-67086000D02*
X98298000Y-66959000D01*
X98425000Y-74295000D02*
X98425000Y-67086000D01*
X100590000Y-76835000D02*
X95758000Y-76835000D01*
X95758000Y-76835000D02*
X95758000Y-66959000D01*
X107690000Y-75565000D02*
X111999000Y-75565000D01*
X110744000Y-78105000D02*
X111999000Y-78105000D01*
X107690000Y-76835000D02*
X110744000Y-76835000D01*
X110744000Y-76835000D02*
X110744000Y-78105000D01*
X107690000Y-78105000D02*
X110363000Y-78105000D01*
X110363000Y-80645000D02*
X111999000Y-80645000D01*
X110363000Y-78105000D02*
X110363000Y-80645000D01*
X109982000Y-83185000D02*
X111999000Y-83185000D01*
X109982000Y-79375000D02*
X109982000Y-83185000D01*
X107690000Y-79375000D02*
X109982000Y-79375000D01*
X91750000Y-53687500D02*
X91750000Y-50419000D01*
X104140000Y-88870000D02*
X97887000Y-88870000D01*
X95758000Y-64135000D02*
X95758000Y-65659000D01*
X91750000Y-55499000D02*
X91750000Y-53687500D01*
X89789000Y-55499000D02*
X91750000Y-55499000D01*
X65750000Y-53687500D02*
X65750000Y-50455000D01*
X91694000Y-53743500D02*
X91750000Y-53687500D01*
X93980000Y-65659000D02*
X95758000Y-65659000D01*
X97887000Y-88870000D02*
X97790000Y-88773000D01*
X39750000Y-50438390D02*
X39750000Y-53687500D01*
X39769227Y-50419163D02*
X39750000Y-50399936D01*
X98298000Y-65659000D02*
X98298000Y-64135000D01*
X65750000Y-50455000D02*
X65786000Y-50419000D01*
X98298000Y-64135000D02*
X95758000Y-64135000D01*
X39769227Y-50419163D02*
X39750000Y-50438390D01*
X52750000Y-49531000D02*
X52832000Y-49403000D01*
X52832000Y-49403000D02*
X52750000Y-49485000D01*
X52832000Y-49403000D02*
X52751000Y-49530000D01*
X97028000Y-64643000D02*
X97028000Y-75565000D01*
X78750000Y-53687500D02*
X78750000Y-49531000D01*
X78750000Y-49531000D02*
X78751000Y-49530000D01*
X100590000Y-75565000D02*
X99060000Y-75565000D01*
X52750000Y-49485000D02*
X52750000Y-53687500D01*
X106680000Y-87630000D02*
X99060000Y-87630000D01*
X104750000Y-53687500D02*
X104750000Y-49531000D01*
X104775000Y-59182000D02*
X104775000Y-53712500D01*
X104775000Y-53712500D02*
X104750000Y-53687500D01*
X104750000Y-49531000D02*
X104751000Y-49530000D01*
X106680000Y-88870000D02*
X106680000Y-87757000D01*
X106680000Y-87757000D02*
X106680000Y-87630000D01*
X97028000Y-75565000D02*
X99060000Y-75565000D01*
X52250000Y-41836000D02*
X52197000Y-41783000D01*
X91313000Y-40132000D02*
X104267000Y-40132000D01*
X33147000Y-40259000D02*
X33401000Y-40513000D01*
X33401000Y-40513000D02*
X33401000Y-85344000D01*
X39250000Y-40139000D02*
X39243000Y-40132000D01*
X89535000Y-80997500D02*
X89535000Y-85471000D01*
X69850000Y-80997500D02*
X69850000Y-85471000D01*
X91250000Y-53687500D02*
X91250000Y-41973000D01*
X52250000Y-53687500D02*
X52250000Y-41836000D01*
X33401000Y-85344000D02*
X33528000Y-85471000D01*
X117475000Y-40132000D02*
X117475000Y-54610000D01*
X78359000Y-40132000D02*
X91313000Y-40132000D01*
X50165000Y-85471000D02*
X50165000Y-80997500D01*
X104267000Y-40132000D02*
X117475000Y-40132000D01*
X104250000Y-41800000D02*
X104267000Y-41783000D01*
X39250000Y-53687500D02*
X39370000Y-40259000D01*
X52197000Y-40132000D02*
X65278000Y-40132000D01*
X65250000Y-41938000D02*
X65278000Y-41910000D01*
X104250000Y-53687500D02*
X104250000Y-41800000D01*
X123825000Y-54610000D02*
X125095000Y-55880000D01*
X33528000Y-85471000D02*
X50165000Y-85471000D01*
X65278000Y-40132000D02*
X78359000Y-40132000D01*
X78250000Y-42019000D02*
X78359000Y-41910000D01*
X91250000Y-41973000D02*
X91313000Y-41910000D01*
X39243000Y-40132000D02*
X52197000Y-40132000D01*
X117475000Y-54610000D02*
X123825000Y-54610000D01*
X65250000Y-53687500D02*
X65250000Y-41938000D01*
X78250000Y-53687500D02*
X78250000Y-42019000D01*
X39370000Y-40259000D02*
X39250000Y-40139000D01*
X107690000Y-71755000D02*
X108839000Y-71755000D01*
X108839000Y-69850000D02*
X104902000Y-69850000D01*
X104902000Y-78105000D02*
X100590000Y-78105000D01*
X108839000Y-71755000D02*
X108839000Y-69850000D01*
X104902000Y-69850000D02*
X104902000Y-78105000D01*
X40640000Y-92955000D02*
X40640000Y-90870000D01*
X38100000Y-92955000D02*
X38100000Y-90870000D01*
X48260000Y-92955000D02*
X48260000Y-90870000D01*
X45720000Y-92955000D02*
X45720000Y-90870000D01*
X104140000Y-92955000D02*
X104140000Y-90870000D01*
X106680000Y-92955000D02*
X106680000Y-90870000D01*
X109220000Y-92955000D02*
X109220000Y-90870000D01*
X84750000Y-34312500D02*
X84750000Y-32836000D01*
X84750000Y-32836000D02*
X84836000Y-32750000D01*
X71750000Y-32750000D02*
X71750000Y-34312500D01*
X31242000Y-87630000D02*
X31242000Y-57150000D01*
X40640000Y-88870000D02*
X40640000Y-87630000D01*
X58750000Y-32801000D02*
X58801000Y-32750000D01*
X58750000Y-34312500D02*
X58750000Y-32801000D01*
X31242000Y-57150000D02*
X29210000Y-57150000D01*
X40640000Y-88870000D02*
X40610000Y-88900000D01*
X97750000Y-32750000D02*
X97750000Y-34312500D01*
X45750000Y-34312500D02*
X45750000Y-32750000D01*
X29591000Y-32766000D02*
X29210000Y-33147000D01*
X110750000Y-32887000D02*
X110750000Y-34312500D01*
X40640000Y-87630000D02*
X31242000Y-87630000D01*
X38100000Y-32766000D02*
X29591000Y-32766000D01*
X110871000Y-32766000D02*
X110750000Y-32887000D01*
X29210000Y-33147000D02*
X29210000Y-57150000D01*
X30764000Y-88870000D02*
X30734000Y-88900000D01*
X53848000Y-52705000D02*
X53750000Y-52803000D01*
X66750000Y-53687500D02*
X66750000Y-51054000D01*
X30734000Y-88900000D02*
X30734000Y-59690000D01*
X53848000Y-51054000D02*
X53848000Y-52705000D01*
X30734000Y-59690000D02*
X29210000Y-59690000D01*
X40750000Y-55262000D02*
X40640000Y-55372000D01*
X79750000Y-53687500D02*
X79750000Y-51054000D01*
X53750000Y-52803000D02*
X53750000Y-53687500D01*
X40750000Y-53687500D02*
X40750000Y-55262000D01*
X40750000Y-53687500D02*
X40750000Y-51071000D01*
X40750000Y-51071000D02*
X40767000Y-51054000D01*
X38100000Y-88870000D02*
X30764000Y-88870000D01*
X40767000Y-51054000D02*
X40750000Y-51037000D01*
X105750000Y-51095000D02*
X105791000Y-51054000D01*
X92750000Y-53687500D02*
X92750000Y-51054000D01*
X105750000Y-53687500D02*
X105750000Y-51095000D01*
X40640000Y-55372000D02*
X40640000Y-57150000D01*
G04 #@! TA.AperFunction,Conductor*
G36*
X119126000Y-27940000D02*
G01*
X31623000Y-27940000D01*
X27813000Y-31750000D01*
X27813000Y-95250000D01*
X31623000Y-99060000D01*
X123223331Y-99060000D01*
X123281522Y-99078907D01*
X123293334Y-99088996D01*
X123363655Y-99159316D01*
X123363658Y-99159318D01*
X123512875Y-99251356D01*
X123679306Y-99306506D01*
X123782013Y-99316999D01*
X123994498Y-99316999D01*
X123994500Y-99316998D01*
X123994500Y-99060000D01*
X124494500Y-99060000D01*
X124494500Y-99316998D01*
X124494501Y-99316999D01*
X124706986Y-99316999D01*
X124809687Y-99306507D01*
X124809699Y-99306504D01*
X124976124Y-99251356D01*
X125125341Y-99159318D01*
X125125344Y-99159316D01*
X125195666Y-99088996D01*
X125250183Y-99061219D01*
X125265669Y-99060000D01*
X125730000Y-99060000D01*
X125730000Y-101299311D01*
X125725681Y-101299500D01*
X26674319Y-101299500D01*
X26665691Y-101299123D01*
X26604100Y-101293734D01*
X26510279Y-101285526D01*
X26493285Y-101282530D01*
X26346777Y-101243273D01*
X26330561Y-101237371D01*
X26193097Y-101173271D01*
X26178152Y-101164642D01*
X26053915Y-101077650D01*
X26040695Y-101066558D01*
X25933441Y-100959304D01*
X25922349Y-100946084D01*
X25835357Y-100821847D01*
X25826728Y-100806902D01*
X25762628Y-100669438D01*
X25756726Y-100653222D01*
X25717467Y-100506707D01*
X25714474Y-100489726D01*
X25700877Y-100334309D01*
X25700500Y-100325681D01*
X25700500Y-99060000D01*
X26634532Y-99060000D01*
X26654363Y-99286684D01*
X26654364Y-99286691D01*
X26654365Y-99286692D01*
X26662486Y-99316999D01*
X26713262Y-99506500D01*
X26809426Y-99712723D01*
X26809434Y-99712737D01*
X26939946Y-99899130D01*
X26939947Y-99899132D01*
X26939950Y-99899135D01*
X26939953Y-99899139D01*
X27100861Y-100060047D01*
X27100864Y-100060049D01*
X27100867Y-100060052D01*
X27100869Y-100060053D01*
X27225131Y-100147061D01*
X27287266Y-100190568D01*
X27287272Y-100190571D01*
X27287276Y-100190573D01*
X27493500Y-100286737D01*
X27493504Y-100286739D01*
X27713308Y-100345635D01*
X27713312Y-100345635D01*
X27713315Y-100345636D01*
X27883208Y-100360500D01*
X27883216Y-100360500D01*
X27996792Y-100360500D01*
X28166684Y-100345636D01*
X28166685Y-100345635D01*
X28166692Y-100345635D01*
X28386496Y-100286739D01*
X28592734Y-100190568D01*
X28779139Y-100060047D01*
X28940047Y-99899139D01*
X29070568Y-99712734D01*
X29166739Y-99506496D01*
X29225635Y-99286692D01*
X29245468Y-99060000D01*
X29225635Y-98833308D01*
X29166739Y-98613504D01*
X29070568Y-98407266D01*
X28996064Y-98300862D01*
X28940053Y-98220869D01*
X28940052Y-98220867D01*
X28940049Y-98220864D01*
X28940047Y-98220861D01*
X28779139Y-98059953D01*
X28779135Y-98059950D01*
X28779132Y-98059947D01*
X28779130Y-98059946D01*
X28592737Y-97929434D01*
X28592736Y-97929433D01*
X28592734Y-97929432D01*
X28592731Y-97929430D01*
X28592723Y-97929426D01*
X28386499Y-97833262D01*
X28386500Y-97833262D01*
X28313228Y-97813629D01*
X28166692Y-97774365D01*
X28166691Y-97774364D01*
X28166684Y-97774363D01*
X27996792Y-97759500D01*
X27996784Y-97759500D01*
X27883216Y-97759500D01*
X27883208Y-97759500D01*
X27713315Y-97774363D01*
X27493499Y-97833262D01*
X27287276Y-97929426D01*
X27287262Y-97929434D01*
X27100869Y-98059946D01*
X27100867Y-98059947D01*
X26939947Y-98220867D01*
X26939946Y-98220869D01*
X26809434Y-98407262D01*
X26809426Y-98407276D01*
X26713262Y-98613499D01*
X26654363Y-98833315D01*
X26634532Y-99059996D01*
X26634532Y-99060000D01*
X25700500Y-99060000D01*
X25700500Y-27940000D01*
X26634532Y-27940000D01*
X26654363Y-28166684D01*
X26654364Y-28166691D01*
X26654365Y-28166692D01*
X26673048Y-28236418D01*
X26713262Y-28386500D01*
X26809426Y-28592723D01*
X26809434Y-28592737D01*
X26939946Y-28779130D01*
X26939947Y-28779132D01*
X26939950Y-28779135D01*
X26939953Y-28779139D01*
X27100861Y-28940047D01*
X27100864Y-28940049D01*
X27100867Y-28940052D01*
X27100869Y-28940053D01*
X27179174Y-28994882D01*
X27287266Y-29070568D01*
X27287272Y-29070571D01*
X27287276Y-29070573D01*
X27493500Y-29166737D01*
X27493504Y-29166739D01*
X27713308Y-29225635D01*
X27713312Y-29225635D01*
X27713315Y-29225636D01*
X27883208Y-29240500D01*
X27883216Y-29240500D01*
X27996792Y-29240500D01*
X28166684Y-29225636D01*
X28166685Y-29225635D01*
X28166692Y-29225635D01*
X28386496Y-29166739D01*
X28592734Y-29070568D01*
X28779139Y-28940047D01*
X28940047Y-28779139D01*
X29070568Y-28592734D01*
X29166739Y-28386496D01*
X29225635Y-28166692D01*
X29231612Y-28098381D01*
X29245468Y-27940000D01*
X29245468Y-27939996D01*
X29225636Y-27713315D01*
X29225635Y-27713312D01*
X29225635Y-27713308D01*
X29166739Y-27493504D01*
X29070568Y-27287266D01*
X28969887Y-27143477D01*
X28940053Y-27100869D01*
X28940052Y-27100867D01*
X28940049Y-27100864D01*
X28940047Y-27100861D01*
X28779139Y-26939953D01*
X28779135Y-26939950D01*
X28779132Y-26939947D01*
X28779130Y-26939946D01*
X28592737Y-26809434D01*
X28592736Y-26809433D01*
X28592734Y-26809432D01*
X28592731Y-26809430D01*
X28592723Y-26809426D01*
X28386499Y-26713262D01*
X28386500Y-26713262D01*
X28225043Y-26670000D01*
X28166692Y-26654365D01*
X28166691Y-26654364D01*
X28166684Y-26654363D01*
X27996792Y-26639500D01*
X27996784Y-26639500D01*
X27883216Y-26639500D01*
X27883208Y-26639500D01*
X27713315Y-26654363D01*
X27493499Y-26713262D01*
X27287276Y-26809426D01*
X27287262Y-26809434D01*
X27100869Y-26939946D01*
X27100867Y-26939947D01*
X26939947Y-27100867D01*
X26939946Y-27100869D01*
X26809434Y-27287262D01*
X26809426Y-27287276D01*
X26713262Y-27493499D01*
X26654363Y-27713315D01*
X26634532Y-27939996D01*
X26634532Y-27940000D01*
X25700500Y-27940000D01*
X25700500Y-26674318D01*
X25700877Y-26665690D01*
X25703168Y-26639500D01*
X25714474Y-26510271D01*
X25717467Y-26493294D01*
X25756727Y-26346773D01*
X25762626Y-26330565D01*
X25826732Y-26193088D01*
X25835351Y-26178160D01*
X25922354Y-26053908D01*
X25933435Y-26040701D01*
X26040701Y-25933435D01*
X26053908Y-25922354D01*
X26178160Y-25835351D01*
X26193088Y-25826732D01*
X26330565Y-25762626D01*
X26346773Y-25756727D01*
X26493294Y-25717467D01*
X26510271Y-25714474D01*
X26665691Y-25700877D01*
X26674319Y-25700500D01*
X26717595Y-25700500D01*
X119126000Y-25700500D01*
X119126000Y-27940000D01*
G37*
G04 #@! TD.AperFunction*
G04 #@! TA.AperFunction,Conductor*
G36*
X126699500Y-100325681D02*
G01*
X126699123Y-100334310D01*
X126685526Y-100489720D01*
X126682530Y-100506714D01*
X126643273Y-100653222D01*
X126637371Y-100669438D01*
X126573271Y-100806902D01*
X126564642Y-100821847D01*
X126477650Y-100946084D01*
X126466558Y-100959304D01*
X126359304Y-101066558D01*
X126346084Y-101077650D01*
X126221847Y-101164642D01*
X126206902Y-101173271D01*
X126069438Y-101237371D01*
X126053222Y-101243273D01*
X125906714Y-101282530D01*
X125889720Y-101285526D01*
X125777099Y-101295379D01*
X125734308Y-101299123D01*
X125730000Y-101299311D01*
X125730000Y-92589500D01*
X125748907Y-92531309D01*
X125798407Y-92495345D01*
X125829000Y-92490500D01*
X125964747Y-92490500D01*
X125964748Y-92490500D01*
X126023231Y-92478867D01*
X126089552Y-92434552D01*
X126133867Y-92368231D01*
X126145500Y-92309748D01*
X126145500Y-90570252D01*
X126133867Y-90511769D01*
X126089552Y-90445448D01*
X126089548Y-90445445D01*
X126023233Y-90401134D01*
X126023231Y-90401133D01*
X126023228Y-90401132D01*
X126023227Y-90401132D01*
X125964758Y-90389501D01*
X125964748Y-90389500D01*
X125829000Y-90389500D01*
X125770809Y-90370593D01*
X125734845Y-90321093D01*
X125730000Y-90290500D01*
X125730000Y-90049500D01*
X125748907Y-89991309D01*
X125798407Y-89955345D01*
X125829000Y-89950500D01*
X125964747Y-89950500D01*
X125964748Y-89950500D01*
X126023231Y-89938867D01*
X126089552Y-89894552D01*
X126133867Y-89828231D01*
X126145500Y-89769748D01*
X126145500Y-88030252D01*
X126133867Y-87971769D01*
X126089552Y-87905448D01*
X126089548Y-87905445D01*
X126023233Y-87861134D01*
X126023231Y-87861133D01*
X126023228Y-87861132D01*
X126023227Y-87861132D01*
X125964758Y-87849501D01*
X125964748Y-87849500D01*
X125829000Y-87849500D01*
X125770809Y-87830593D01*
X125734845Y-87781093D01*
X125730000Y-87750500D01*
X125730000Y-87509500D01*
X125748907Y-87451309D01*
X125798407Y-87415345D01*
X125829000Y-87410500D01*
X125964747Y-87410500D01*
X125964748Y-87410500D01*
X126023231Y-87398867D01*
X126089552Y-87354552D01*
X126133867Y-87288231D01*
X126145500Y-87229748D01*
X126145500Y-85490252D01*
X126133867Y-85431769D01*
X126089552Y-85365448D01*
X126089548Y-85365445D01*
X126023233Y-85321134D01*
X126023231Y-85321133D01*
X126023228Y-85321132D01*
X126023227Y-85321132D01*
X125964758Y-85309501D01*
X125964748Y-85309500D01*
X125829000Y-85309500D01*
X125770809Y-85290593D01*
X125734845Y-85241093D01*
X125730000Y-85210500D01*
X125730000Y-84969500D01*
X125748907Y-84911309D01*
X125798407Y-84875345D01*
X125829000Y-84870500D01*
X125964747Y-84870500D01*
X125964748Y-84870500D01*
X126023231Y-84858867D01*
X126089552Y-84814552D01*
X126133867Y-84748231D01*
X126145500Y-84689748D01*
X126145500Y-82950252D01*
X126133867Y-82891769D01*
X126089552Y-82825448D01*
X126089548Y-82825445D01*
X126023233Y-82781134D01*
X126023231Y-82781133D01*
X126023228Y-82781132D01*
X126023227Y-82781132D01*
X125964758Y-82769501D01*
X125964748Y-82769500D01*
X125829000Y-82769500D01*
X125770809Y-82750593D01*
X125734845Y-82701093D01*
X125730000Y-82670500D01*
X125730000Y-82429500D01*
X125748907Y-82371309D01*
X125798407Y-82335345D01*
X125829000Y-82330500D01*
X125964747Y-82330500D01*
X125964748Y-82330500D01*
X126023231Y-82318867D01*
X126089552Y-82274552D01*
X126133867Y-82208231D01*
X126145500Y-82149748D01*
X126145500Y-80410252D01*
X126133867Y-80351769D01*
X126089552Y-80285448D01*
X126089548Y-80285445D01*
X126023233Y-80241134D01*
X126023231Y-80241133D01*
X126023228Y-80241132D01*
X126023227Y-80241132D01*
X125964758Y-80229501D01*
X125964748Y-80229500D01*
X125829000Y-80229500D01*
X125770809Y-80210593D01*
X125734845Y-80161093D01*
X125730000Y-80130500D01*
X125730000Y-79889500D01*
X125748907Y-79831309D01*
X125798407Y-79795345D01*
X125829000Y-79790500D01*
X125964747Y-79790500D01*
X125964748Y-79790500D01*
X126023231Y-79778867D01*
X126089552Y-79734552D01*
X126133867Y-79668231D01*
X126145500Y-79609748D01*
X126145500Y-77870252D01*
X126133867Y-77811769D01*
X126089552Y-77745448D01*
X126089548Y-77745445D01*
X126023233Y-77701134D01*
X126023231Y-77701133D01*
X126023228Y-77701132D01*
X126023227Y-77701132D01*
X125964758Y-77689501D01*
X125964748Y-77689500D01*
X125829000Y-77689500D01*
X125770809Y-77670593D01*
X125734845Y-77621093D01*
X125730000Y-77590500D01*
X125730000Y-77349500D01*
X125748907Y-77291309D01*
X125798407Y-77255345D01*
X125829000Y-77250500D01*
X125964747Y-77250500D01*
X125964748Y-77250500D01*
X126023231Y-77238867D01*
X126089552Y-77194552D01*
X126133867Y-77128231D01*
X126145500Y-77069748D01*
X126145500Y-75330252D01*
X126133867Y-75271769D01*
X126089552Y-75205448D01*
X126089548Y-75205445D01*
X126023233Y-75161134D01*
X126023231Y-75161133D01*
X126023228Y-75161132D01*
X126023227Y-75161132D01*
X125964758Y-75149501D01*
X125964748Y-75149500D01*
X125829000Y-75149500D01*
X125770809Y-75130593D01*
X125734845Y-75081093D01*
X125730000Y-75050500D01*
X125730000Y-74809500D01*
X125748907Y-74751309D01*
X125798407Y-74715345D01*
X125829000Y-74710500D01*
X125964747Y-74710500D01*
X125964748Y-74710500D01*
X126023231Y-74698867D01*
X126089552Y-74654552D01*
X126133867Y-74588231D01*
X126145500Y-74529748D01*
X126145500Y-72790252D01*
X126133867Y-72731769D01*
X126089552Y-72665448D01*
X126089548Y-72665445D01*
X126023233Y-72621134D01*
X126023231Y-72621133D01*
X126023228Y-72621132D01*
X126023227Y-72621132D01*
X125964758Y-72609501D01*
X125964748Y-72609500D01*
X125829000Y-72609500D01*
X125770809Y-72590593D01*
X125734845Y-72541093D01*
X125730000Y-72510500D01*
X125730000Y-72269500D01*
X125748907Y-72211309D01*
X125798407Y-72175345D01*
X125829000Y-72170500D01*
X125964747Y-72170500D01*
X125964748Y-72170500D01*
X126023231Y-72158867D01*
X126089552Y-72114552D01*
X126133867Y-72048231D01*
X126145500Y-71989748D01*
X126145500Y-70250252D01*
X126133867Y-70191769D01*
X126089552Y-70125448D01*
X126089548Y-70125445D01*
X126023233Y-70081134D01*
X126023231Y-70081133D01*
X126023228Y-70081132D01*
X126023227Y-70081132D01*
X125964758Y-70069501D01*
X125964748Y-70069500D01*
X125829000Y-70069500D01*
X125770809Y-70050593D01*
X125734845Y-70001093D01*
X125730000Y-69970500D01*
X125730000Y-69729500D01*
X125748907Y-69671309D01*
X125798407Y-69635345D01*
X125829000Y-69630500D01*
X125964747Y-69630500D01*
X125964748Y-69630500D01*
X126023231Y-69618867D01*
X126089552Y-69574552D01*
X126133867Y-69508231D01*
X126145500Y-69449748D01*
X126145500Y-67710252D01*
X126133867Y-67651769D01*
X126089552Y-67585448D01*
X126089548Y-67585445D01*
X126023233Y-67541134D01*
X126023231Y-67541133D01*
X126023228Y-67541132D01*
X126023227Y-67541132D01*
X125964758Y-67529501D01*
X125964748Y-67529500D01*
X125829000Y-67529500D01*
X125770809Y-67510593D01*
X125734845Y-67461093D01*
X125730000Y-67430500D01*
X125730000Y-67189500D01*
X125748907Y-67131309D01*
X125798407Y-67095345D01*
X125829000Y-67090500D01*
X125964747Y-67090500D01*
X125964748Y-67090500D01*
X126023231Y-67078867D01*
X126089552Y-67034552D01*
X126133867Y-66968231D01*
X126145500Y-66909748D01*
X126145500Y-65170252D01*
X126133867Y-65111769D01*
X126089552Y-65045448D01*
X126089548Y-65045445D01*
X126023233Y-65001134D01*
X126023231Y-65001133D01*
X126023228Y-65001132D01*
X126023227Y-65001132D01*
X125964758Y-64989501D01*
X125964748Y-64989500D01*
X125829000Y-64989500D01*
X125770809Y-64970593D01*
X125734845Y-64921093D01*
X125730000Y-64890500D01*
X125730000Y-64649500D01*
X125748907Y-64591309D01*
X125798407Y-64555345D01*
X125829000Y-64550500D01*
X125964747Y-64550500D01*
X125964748Y-64550500D01*
X126023231Y-64538867D01*
X126089552Y-64494552D01*
X126133867Y-64428231D01*
X126145500Y-64369748D01*
X126145500Y-62630252D01*
X126133867Y-62571769D01*
X126089552Y-62505448D01*
X126089548Y-62505445D01*
X126023233Y-62461134D01*
X126023231Y-62461133D01*
X126023228Y-62461132D01*
X126023227Y-62461132D01*
X125964758Y-62449501D01*
X125964748Y-62449500D01*
X125829000Y-62449500D01*
X125770809Y-62430593D01*
X125734845Y-62381093D01*
X125730000Y-62350500D01*
X125730000Y-62109500D01*
X125748907Y-62051309D01*
X125798407Y-62015345D01*
X125829000Y-62010500D01*
X125964747Y-62010500D01*
X125964748Y-62010500D01*
X126023231Y-61998867D01*
X126089552Y-61954552D01*
X126133867Y-61888231D01*
X126145500Y-61829748D01*
X126145500Y-60090252D01*
X126133867Y-60031769D01*
X126089552Y-59965448D01*
X126089548Y-59965445D01*
X126023233Y-59921134D01*
X126023231Y-59921133D01*
X126023228Y-59921132D01*
X126023227Y-59921132D01*
X125964758Y-59909501D01*
X125964748Y-59909500D01*
X125829000Y-59909500D01*
X125770809Y-59890593D01*
X125734845Y-59841093D01*
X125730000Y-59810500D01*
X125730000Y-59569500D01*
X125748907Y-59511309D01*
X125798407Y-59475345D01*
X125829000Y-59470500D01*
X125964747Y-59470500D01*
X125964748Y-59470500D01*
X126023231Y-59458867D01*
X126089552Y-59414552D01*
X126133867Y-59348231D01*
X126145500Y-59289748D01*
X126145500Y-57550252D01*
X126133867Y-57491769D01*
X126089552Y-57425448D01*
X126089548Y-57425445D01*
X126023233Y-57381134D01*
X126023231Y-57381133D01*
X126023228Y-57381132D01*
X126023227Y-57381132D01*
X125964758Y-57369501D01*
X125964748Y-57369500D01*
X125829000Y-57369500D01*
X125770809Y-57350593D01*
X125734845Y-57301093D01*
X125730000Y-57270500D01*
X125730000Y-57029500D01*
X125748907Y-56971309D01*
X125798407Y-56935345D01*
X125829000Y-56930500D01*
X125964747Y-56930500D01*
X125964748Y-56930500D01*
X126023231Y-56918867D01*
X126089552Y-56874552D01*
X126133867Y-56808231D01*
X126145500Y-56749748D01*
X126145500Y-55010252D01*
X126133867Y-54951769D01*
X126089552Y-54885448D01*
X126089548Y-54885445D01*
X126023233Y-54841134D01*
X126023231Y-54841133D01*
X126023228Y-54841132D01*
X126023227Y-54841132D01*
X125964758Y-54829501D01*
X125964748Y-54829500D01*
X125829000Y-54829500D01*
X125770809Y-54810593D01*
X125734845Y-54761093D01*
X125730000Y-54730500D01*
X125730000Y-54489500D01*
X125748907Y-54431309D01*
X125798407Y-54395345D01*
X125829000Y-54390500D01*
X125964747Y-54390500D01*
X125964748Y-54390500D01*
X126023231Y-54378867D01*
X126089552Y-54334552D01*
X126133867Y-54268231D01*
X126145500Y-54209748D01*
X126145500Y-52470252D01*
X126133867Y-52411769D01*
X126089552Y-52345448D01*
X126089548Y-52345445D01*
X126023233Y-52301134D01*
X126023231Y-52301133D01*
X126023228Y-52301132D01*
X126023227Y-52301132D01*
X125964758Y-52289501D01*
X125964748Y-52289500D01*
X125829000Y-52289500D01*
X125770809Y-52270593D01*
X125734845Y-52221093D01*
X125730000Y-52190500D01*
X125730000Y-51949500D01*
X125748907Y-51891309D01*
X125798407Y-51855345D01*
X125829000Y-51850500D01*
X125964747Y-51850500D01*
X125964748Y-51850500D01*
X126023231Y-51838867D01*
X126089552Y-51794552D01*
X126133867Y-51728231D01*
X126145500Y-51669748D01*
X126145500Y-49930252D01*
X126133867Y-49871769D01*
X126089552Y-49805448D01*
X126089548Y-49805445D01*
X126023233Y-49761134D01*
X126023231Y-49761133D01*
X126023228Y-49761132D01*
X126023227Y-49761132D01*
X125964758Y-49749501D01*
X125964748Y-49749500D01*
X125829000Y-49749500D01*
X125770809Y-49730593D01*
X125734845Y-49681093D01*
X125730000Y-49650500D01*
X125730000Y-49409500D01*
X125748907Y-49351309D01*
X125798407Y-49315345D01*
X125829000Y-49310500D01*
X125964747Y-49310500D01*
X125964748Y-49310500D01*
X126023231Y-49298867D01*
X126089552Y-49254552D01*
X126133867Y-49188231D01*
X126145500Y-49129748D01*
X126145500Y-47390252D01*
X126133867Y-47331769D01*
X126089552Y-47265448D01*
X126089548Y-47265445D01*
X126023233Y-47221134D01*
X126023231Y-47221133D01*
X126023228Y-47221132D01*
X126023227Y-47221132D01*
X125964758Y-47209501D01*
X125964748Y-47209500D01*
X125829000Y-47209500D01*
X125770809Y-47190593D01*
X125734845Y-47141093D01*
X125730000Y-47110500D01*
X125730000Y-46869500D01*
X125748907Y-46811309D01*
X125798407Y-46775345D01*
X125829000Y-46770500D01*
X125964747Y-46770500D01*
X125964748Y-46770500D01*
X126023231Y-46758867D01*
X126089552Y-46714552D01*
X126133867Y-46648231D01*
X126145500Y-46589748D01*
X126145500Y-44850252D01*
X126133867Y-44791769D01*
X126089552Y-44725448D01*
X126089548Y-44725445D01*
X126023233Y-44681134D01*
X126023231Y-44681133D01*
X126023228Y-44681132D01*
X126023227Y-44681132D01*
X125964758Y-44669501D01*
X125964748Y-44669500D01*
X125829000Y-44669500D01*
X125770809Y-44650593D01*
X125734845Y-44601093D01*
X125730000Y-44570500D01*
X125730000Y-44329500D01*
X125748907Y-44271309D01*
X125798407Y-44235345D01*
X125829000Y-44230500D01*
X125964747Y-44230500D01*
X125964748Y-44230500D01*
X126023231Y-44218867D01*
X126089552Y-44174552D01*
X126133867Y-44108231D01*
X126145500Y-44049748D01*
X126145500Y-42310252D01*
X126133867Y-42251769D01*
X126089552Y-42185448D01*
X126089548Y-42185445D01*
X126023233Y-42141134D01*
X126023231Y-42141133D01*
X126023228Y-42141132D01*
X126023227Y-42141132D01*
X125964758Y-42129501D01*
X125964748Y-42129500D01*
X125829000Y-42129500D01*
X125770809Y-42110593D01*
X125734845Y-42061093D01*
X125730000Y-42030500D01*
X125730000Y-41789500D01*
X125748907Y-41731309D01*
X125798407Y-41695345D01*
X125829000Y-41690500D01*
X125964747Y-41690500D01*
X125964748Y-41690500D01*
X126023231Y-41678867D01*
X126089552Y-41634552D01*
X126133867Y-41568231D01*
X126145500Y-41509748D01*
X126145500Y-39770252D01*
X126133867Y-39711769D01*
X126089552Y-39645448D01*
X126089548Y-39645445D01*
X126023233Y-39601134D01*
X126023231Y-39601133D01*
X126023228Y-39601132D01*
X126023227Y-39601132D01*
X125964758Y-39589501D01*
X125964748Y-39589500D01*
X125829000Y-39589500D01*
X125770809Y-39570593D01*
X125734845Y-39521093D01*
X125730000Y-39490500D01*
X125730000Y-39249500D01*
X125748907Y-39191309D01*
X125798407Y-39155345D01*
X125829000Y-39150500D01*
X125964747Y-39150500D01*
X125964748Y-39150500D01*
X126023231Y-39138867D01*
X126089552Y-39094552D01*
X126133867Y-39028231D01*
X126145500Y-38969748D01*
X126145500Y-37230252D01*
X126133867Y-37171769D01*
X126089552Y-37105448D01*
X126089548Y-37105445D01*
X126023233Y-37061134D01*
X126023231Y-37061133D01*
X126023228Y-37061132D01*
X126023227Y-37061132D01*
X125964758Y-37049501D01*
X125964748Y-37049500D01*
X125829000Y-37049500D01*
X125770809Y-37030593D01*
X125734845Y-36981093D01*
X125730000Y-36950500D01*
X125730000Y-36709500D01*
X125748907Y-36651309D01*
X125798407Y-36615345D01*
X125829000Y-36610500D01*
X125964747Y-36610500D01*
X125964748Y-36610500D01*
X126023231Y-36598867D01*
X126089552Y-36554552D01*
X126133867Y-36488231D01*
X126145500Y-36429748D01*
X126145500Y-34690252D01*
X126133867Y-34631769D01*
X126089552Y-34565448D01*
X126089548Y-34565445D01*
X126023233Y-34521134D01*
X126023231Y-34521133D01*
X126023228Y-34521132D01*
X126023227Y-34521132D01*
X125964758Y-34509501D01*
X125964748Y-34509500D01*
X125829000Y-34509500D01*
X125770809Y-34490593D01*
X125734845Y-34441093D01*
X125730000Y-34410500D01*
X125730000Y-34169500D01*
X125748907Y-34111309D01*
X125798407Y-34075345D01*
X125829000Y-34070500D01*
X125964747Y-34070500D01*
X125964748Y-34070500D01*
X126023231Y-34058867D01*
X126089552Y-34014552D01*
X126133867Y-33948231D01*
X126145500Y-33889748D01*
X126145500Y-32150252D01*
X126133867Y-32091769D01*
X126089552Y-32025448D01*
X126089548Y-32025445D01*
X126023233Y-31981134D01*
X126023231Y-31981133D01*
X126023228Y-31981132D01*
X126023227Y-31981132D01*
X125964758Y-31969501D01*
X125964748Y-31969500D01*
X125829000Y-31969500D01*
X125770809Y-31950593D01*
X125734845Y-31901093D01*
X125730000Y-31870500D01*
X125730000Y-30099001D01*
X125730000Y-30099000D01*
X126699500Y-30099000D01*
X126699500Y-100325681D01*
G37*
G04 #@! TD.AperFunction*
G04 #@! TA.AperFunction,Conductor*
G36*
X126639751Y-28771338D02*
G01*
X126685676Y-28811767D01*
X126699500Y-28862225D01*
X126699500Y-29210000D01*
X126193844Y-29210000D01*
X126265882Y-29184793D01*
X126375150Y-29104150D01*
X126455793Y-28994882D01*
X126500646Y-28866699D01*
X126501250Y-28860250D01*
X126501933Y-28852981D01*
X126526191Y-28796810D01*
X126578833Y-28765625D01*
X126639751Y-28771338D01*
G37*
G04 #@! TD.AperFunction*
G04 #@! TA.AperFunction,NonConductor*
G36*
X126639751Y-26721338D02*
G01*
X126685676Y-26761767D01*
X126699500Y-26812225D01*
X126699500Y-28051774D01*
X126680593Y-28109965D01*
X126631093Y-28145929D01*
X126569907Y-28145929D01*
X126520407Y-28109965D01*
X126501933Y-28061019D01*
X126500646Y-28047305D01*
X126500646Y-28047301D01*
X126455793Y-27919118D01*
X126375150Y-27809850D01*
X126375146Y-27809847D01*
X126375144Y-27809845D01*
X126265883Y-27729207D01*
X126160142Y-27692207D01*
X126111462Y-27655142D01*
X126093865Y-27596542D01*
X126105006Y-27561277D01*
X126101953Y-27560013D01*
X126105680Y-27551011D01*
X126105684Y-27551007D01*
X126121001Y-27474001D01*
X126126173Y-27447999D01*
X126122903Y-27431557D01*
X126121001Y-27412245D01*
X126121001Y-27255733D01*
X126139908Y-27197542D01*
X126187303Y-27162289D01*
X126199881Y-27157887D01*
X126265882Y-27134793D01*
X126375150Y-27054150D01*
X126455793Y-26944882D01*
X126500646Y-26816699D01*
X126501250Y-26810250D01*
X126501933Y-26802981D01*
X126526191Y-26746810D01*
X126578833Y-26715625D01*
X126639751Y-26721338D01*
G37*
G04 #@! TD.AperFunction*
G04 #@! TA.AperFunction,Conductor*
G36*
X120101191Y-25719407D02*
G01*
X120137155Y-25768907D01*
X120142000Y-25799500D01*
X120142000Y-29210000D01*
X120580890Y-29210000D01*
X120613587Y-29215555D01*
X120725301Y-29254646D01*
X120755725Y-29257499D01*
X120755727Y-29257500D01*
X120755734Y-29257500D01*
X121814273Y-29257500D01*
X121814273Y-29257499D01*
X121844699Y-29254646D01*
X121956412Y-29215555D01*
X121989110Y-29210000D01*
X122963336Y-29210000D01*
X122996033Y-29215555D01*
X123036301Y-29229646D01*
X123066725Y-29232499D01*
X123066727Y-29232500D01*
X123066734Y-29232500D01*
X124075273Y-29232500D01*
X124075273Y-29232499D01*
X124105699Y-29229646D01*
X124145966Y-29215555D01*
X124178664Y-29210000D01*
X124995336Y-29210000D01*
X125028033Y-29215555D01*
X125068301Y-29229646D01*
X125098725Y-29232499D01*
X125098727Y-29232500D01*
X125098734Y-29232500D01*
X126107273Y-29232500D01*
X126107273Y-29232499D01*
X126137699Y-29229646D01*
X126193844Y-29210000D01*
X126699500Y-29210000D01*
X126699500Y-30099000D01*
X119225000Y-30099000D01*
X119166809Y-30080093D01*
X119130845Y-30030593D01*
X119126000Y-30000000D01*
X119126000Y-27940001D01*
X119126000Y-25700500D01*
X120043000Y-25700500D01*
X120101191Y-25719407D01*
G37*
G04 #@! TD.AperFunction*
M02*
