G04 #@! TF.GenerationSoftware,KiCad,Pcbnew,7.0.10*
G04 #@! TF.CreationDate,2024-01-03T11:05:33+01:00*
G04 #@! TF.ProjectId,Memory,4d656d6f-7279-42e6-9b69-6361645f7063,rev?*
G04 #@! TF.SameCoordinates,Original*
G04 #@! TF.FileFunction,Legend,Bot*
G04 #@! TF.FilePolarity,Positive*
%FSLAX46Y46*%
G04 Gerber Fmt 4.6, Leading zero omitted, Abs format (unit mm)*
G04 Created by KiCad (PCBNEW 7.0.10) date 2024-01-03 11:05:33*
%MOMM*%
%LPD*%
G01*
G04 APERTURE LIST*
%ADD10C,0.150000*%
%ADD11C,0.120000*%
%ADD12C,2.200000*%
%ADD13R,1.700000X1.700000*%
%ADD14O,1.700000X1.700000*%
G04 APERTURE END LIST*
D10*
X125540887Y-99693057D02*
X125540887Y-100335914D01*
X125540887Y-100335914D02*
X125583744Y-100464485D01*
X125583744Y-100464485D02*
X125669458Y-100550200D01*
X125669458Y-100550200D02*
X125798030Y-100593057D01*
X125798030Y-100593057D02*
X125883744Y-100593057D01*
X124683744Y-100593057D02*
X125112316Y-100593057D01*
X125112316Y-100593057D02*
X125112316Y-99693057D01*
X123869459Y-100507342D02*
X123912316Y-100550200D01*
X123912316Y-100550200D02*
X124040888Y-100593057D01*
X124040888Y-100593057D02*
X124126602Y-100593057D01*
X124126602Y-100593057D02*
X124255173Y-100550200D01*
X124255173Y-100550200D02*
X124340888Y-100464485D01*
X124340888Y-100464485D02*
X124383745Y-100378771D01*
X124383745Y-100378771D02*
X124426602Y-100207342D01*
X124426602Y-100207342D02*
X124426602Y-100078771D01*
X124426602Y-100078771D02*
X124383745Y-99907342D01*
X124383745Y-99907342D02*
X124340888Y-99821628D01*
X124340888Y-99821628D02*
X124255173Y-99735914D01*
X124255173Y-99735914D02*
X124126602Y-99693057D01*
X124126602Y-99693057D02*
X124040888Y-99693057D01*
X124040888Y-99693057D02*
X123912316Y-99735914D01*
X123912316Y-99735914D02*
X123869459Y-99778771D01*
X123226602Y-99693057D02*
X123226602Y-100335914D01*
X123226602Y-100335914D02*
X123269459Y-100464485D01*
X123269459Y-100464485D02*
X123355173Y-100550200D01*
X123355173Y-100550200D02*
X123483745Y-100593057D01*
X123483745Y-100593057D02*
X123569459Y-100593057D01*
X122369459Y-100593057D02*
X122798031Y-100593057D01*
X122798031Y-100593057D02*
X122798031Y-99693057D01*
X121555174Y-100507342D02*
X121598031Y-100550200D01*
X121598031Y-100550200D02*
X121726603Y-100593057D01*
X121726603Y-100593057D02*
X121812317Y-100593057D01*
X121812317Y-100593057D02*
X121940888Y-100550200D01*
X121940888Y-100550200D02*
X122026603Y-100464485D01*
X122026603Y-100464485D02*
X122069460Y-100378771D01*
X122069460Y-100378771D02*
X122112317Y-100207342D01*
X122112317Y-100207342D02*
X122112317Y-100078771D01*
X122112317Y-100078771D02*
X122069460Y-99907342D01*
X122069460Y-99907342D02*
X122026603Y-99821628D01*
X122026603Y-99821628D02*
X121940888Y-99735914D01*
X121940888Y-99735914D02*
X121812317Y-99693057D01*
X121812317Y-99693057D02*
X121726603Y-99693057D01*
X121726603Y-99693057D02*
X121598031Y-99735914D01*
X121598031Y-99735914D02*
X121555174Y-99778771D01*
X120912317Y-99693057D02*
X120912317Y-100335914D01*
X120912317Y-100335914D02*
X120955174Y-100464485D01*
X120955174Y-100464485D02*
X121040888Y-100550200D01*
X121040888Y-100550200D02*
X121169460Y-100593057D01*
X121169460Y-100593057D02*
X121255174Y-100593057D01*
X120055174Y-100593057D02*
X120483746Y-100593057D01*
X120483746Y-100593057D02*
X120483746Y-99693057D01*
X119240889Y-100507342D02*
X119283746Y-100550200D01*
X119283746Y-100550200D02*
X119412318Y-100593057D01*
X119412318Y-100593057D02*
X119498032Y-100593057D01*
X119498032Y-100593057D02*
X119626603Y-100550200D01*
X119626603Y-100550200D02*
X119712318Y-100464485D01*
X119712318Y-100464485D02*
X119755175Y-100378771D01*
X119755175Y-100378771D02*
X119798032Y-100207342D01*
X119798032Y-100207342D02*
X119798032Y-100078771D01*
X119798032Y-100078771D02*
X119755175Y-99907342D01*
X119755175Y-99907342D02*
X119712318Y-99821628D01*
X119712318Y-99821628D02*
X119626603Y-99735914D01*
X119626603Y-99735914D02*
X119498032Y-99693057D01*
X119498032Y-99693057D02*
X119412318Y-99693057D01*
X119412318Y-99693057D02*
X119283746Y-99735914D01*
X119283746Y-99735914D02*
X119240889Y-99778771D01*
X118598032Y-99693057D02*
X118598032Y-100335914D01*
X118598032Y-100335914D02*
X118640889Y-100464485D01*
X118640889Y-100464485D02*
X118726603Y-100550200D01*
X118726603Y-100550200D02*
X118855175Y-100593057D01*
X118855175Y-100593057D02*
X118940889Y-100593057D01*
X117740889Y-100593057D02*
X118169461Y-100593057D01*
X118169461Y-100593057D02*
X118169461Y-99693057D01*
X116926604Y-100507342D02*
X116969461Y-100550200D01*
X116969461Y-100550200D02*
X117098033Y-100593057D01*
X117098033Y-100593057D02*
X117183747Y-100593057D01*
X117183747Y-100593057D02*
X117312318Y-100550200D01*
X117312318Y-100550200D02*
X117398033Y-100464485D01*
X117398033Y-100464485D02*
X117440890Y-100378771D01*
X117440890Y-100378771D02*
X117483747Y-100207342D01*
X117483747Y-100207342D02*
X117483747Y-100078771D01*
X117483747Y-100078771D02*
X117440890Y-99907342D01*
X117440890Y-99907342D02*
X117398033Y-99821628D01*
X117398033Y-99821628D02*
X117312318Y-99735914D01*
X117312318Y-99735914D02*
X117183747Y-99693057D01*
X117183747Y-99693057D02*
X117098033Y-99693057D01*
X117098033Y-99693057D02*
X116969461Y-99735914D01*
X116969461Y-99735914D02*
X116926604Y-99778771D01*
X29543333Y-54274819D02*
X29543333Y-54989104D01*
X29543333Y-54989104D02*
X29590952Y-55131961D01*
X29590952Y-55131961D02*
X29686190Y-55227200D01*
X29686190Y-55227200D02*
X29829047Y-55274819D01*
X29829047Y-55274819D02*
X29924285Y-55274819D01*
X28543333Y-55274819D02*
X29114761Y-55274819D01*
X28829047Y-55274819D02*
X28829047Y-54274819D01*
X28829047Y-54274819D02*
X28924285Y-54417676D01*
X28924285Y-54417676D02*
X29019523Y-54512914D01*
X29019523Y-54512914D02*
X29114761Y-54560533D01*
D11*
X30540000Y-55820000D02*
X29210000Y-55820000D01*
X30540000Y-57150000D02*
X30540000Y-55820000D01*
X30540000Y-58420000D02*
X30540000Y-71180000D01*
X30540000Y-58420000D02*
X27880000Y-58420000D01*
X30540000Y-71180000D02*
X27880000Y-71180000D01*
X27880000Y-58420000D02*
X27880000Y-71180000D01*
X126425000Y-95310000D02*
X121225000Y-95310000D01*
X126425000Y-31720000D02*
X126425000Y-95310000D01*
X126425000Y-31720000D02*
X121225000Y-31690000D01*
X121225000Y-31690000D02*
X121225000Y-95310000D01*
%LPC*%
D12*
X27940000Y-99060000D03*
D13*
X29210000Y-57150000D03*
D14*
X29210000Y-59690000D03*
X29210000Y-62230000D03*
X29210000Y-64770000D03*
X29210000Y-67310000D03*
X29210000Y-69850000D03*
D12*
X27940000Y-27940000D03*
D13*
X125095000Y-33020000D03*
X122555000Y-33020000D03*
X125095000Y-35560000D03*
X122555000Y-35560000D03*
X125095000Y-38100000D03*
X122555000Y-38100000D03*
X125095000Y-40640000D03*
X122555000Y-40640000D03*
X125095000Y-43180000D03*
X122555000Y-43180000D03*
X125095000Y-45720000D03*
X122555000Y-45720000D03*
X125095000Y-48260000D03*
X122555000Y-48260000D03*
X125095000Y-50800000D03*
X122555000Y-50800000D03*
X125095000Y-53340000D03*
X122555000Y-53340000D03*
X125095000Y-55880000D03*
X122555000Y-55880000D03*
X125095000Y-58420000D03*
X122555000Y-58420000D03*
X125095000Y-60960000D03*
X122555000Y-60960000D03*
X125095000Y-63500000D03*
X122555000Y-63500000D03*
X125095000Y-66040000D03*
X122555000Y-66040000D03*
X125095000Y-68580000D03*
X122555000Y-68580000D03*
X125095000Y-71120000D03*
X122555000Y-71120000D03*
X125095000Y-73660000D03*
X122555000Y-73660000D03*
X125095000Y-76200000D03*
X122555000Y-76200000D03*
X125095000Y-78740000D03*
X122555000Y-78740000D03*
X125095000Y-81280000D03*
X122555000Y-81280000D03*
X125095000Y-83820000D03*
X122555000Y-83820000D03*
X125095000Y-86360000D03*
X122555000Y-86360000D03*
X125095000Y-88900000D03*
X122555000Y-88900000D03*
X125095000Y-91440000D03*
X122555000Y-91440000D03*
X125095000Y-93980000D03*
X122555000Y-93980000D03*
%LPD*%
M02*
