M48
; DRILL file {KiCad 7.0.7} date 2024 January 03, Wednesday 09:04:39
; FORMAT={-:-/ absolute / metric / decimal}
; #@! TF.CreationDate,2024-01-03T09:04:39+01:00
; #@! TF.GenerationSoftware,Kicad,Pcbnew,7.0.7
; #@! TF.FileFunction,Plated,1,2,PTH
FMAT,2
METRIC
; #@! TA.AperFunction,Plated,PTH,ViaDrill
T1C0.300
; #@! TA.AperFunction,Plated,PTH,ViaDrill
T2C0.500
; #@! TA.AperFunction,Plated,PTH,ViaDrill
T3C0.600
; #@! TA.AperFunction,Plated,PTH,ComponentDrill
T4C1.000
%
G90
G05
T1
X122.389Y-27.774
T2
X121.754Y-97.497
T3
X32.727Y-28.857
X32.727Y-41.617
X32.727Y-54.317
X32.727Y-67.017
X32.727Y-79.844
X32.727Y-94.957
X118.741Y-79.971
X119.087Y-28.857
X119.087Y-41.617
X119.087Y-54.317
X119.087Y-67.017
X119.087Y-94.957
T4
X28.917Y-33.982
X28.917Y-36.522
X28.917Y-39.062
X28.917Y-41.602
X28.917Y-44.142
X28.917Y-46.682
X28.917Y-49.222
X28.917Y-51.762
X28.917Y-54.317
X28.917Y-56.857
X28.917Y-59.397
X28.917Y-61.937
X28.917Y-64.477
X28.917Y-67.017
X28.917Y-69.557
X28.917Y-72.097
X28.917Y-74.622
X28.917Y-77.162
X28.917Y-79.702
X28.917Y-82.242
X28.917Y-84.782
X28.917Y-87.322
X28.917Y-89.862
X28.917Y-92.402
X33.997Y-26.257
X33.997Y-33.877
X33.997Y-39.017
X33.997Y-46.637
X33.997Y-51.777
X33.997Y-59.397
X33.997Y-64.477
X33.997Y-72.097
X33.997Y-77.177
X33.997Y-84.797
X33.997Y-92.417
X33.997Y-100.037
X36.537Y-26.257
X36.537Y-33.877
X36.537Y-39.017
X36.537Y-46.637
X36.537Y-51.777
X36.537Y-59.397
X36.537Y-64.477
X36.537Y-72.097
X36.537Y-77.177
X36.537Y-84.797
X36.537Y-92.417
X36.537Y-100.037
X39.077Y-26.257
X39.077Y-33.877
X39.077Y-39.017
X39.077Y-46.637
X39.077Y-51.777
X39.077Y-59.397
X39.077Y-64.477
X39.077Y-72.097
X39.077Y-77.177
X39.077Y-84.797
X39.077Y-92.417
X39.077Y-100.037
X41.617Y-26.257
X41.617Y-33.877
X41.617Y-39.017
X41.617Y-46.637
X41.617Y-51.777
X41.617Y-59.397
X41.617Y-64.477
X41.617Y-72.097
X41.617Y-77.177
X41.617Y-84.797
X41.617Y-92.417
X41.617Y-100.037
X44.157Y-26.257
X44.157Y-33.877
X44.157Y-39.017
X44.157Y-46.637
X44.157Y-51.777
X44.157Y-59.397
X44.157Y-64.477
X44.157Y-72.097
X44.157Y-77.177
X44.157Y-84.797
X44.157Y-92.417
X44.157Y-100.037
X46.697Y-26.257
X46.697Y-33.877
X46.697Y-39.017
X46.697Y-46.637
X46.697Y-51.777
X46.697Y-59.397
X46.697Y-64.477
X46.697Y-72.097
X46.697Y-77.177
X46.697Y-84.797
X46.697Y-92.417
X46.697Y-100.037
X49.237Y-26.257
X49.237Y-33.877
X49.237Y-39.017
X49.237Y-46.637
X49.237Y-51.777
X49.237Y-59.397
X49.237Y-64.477
X49.237Y-72.097
X49.237Y-77.177
X49.237Y-84.797
X49.237Y-92.417
X49.237Y-100.037
X51.777Y-26.257
X51.777Y-33.877
X51.777Y-39.017
X51.777Y-46.637
X51.777Y-51.777
X51.777Y-59.397
X51.777Y-64.477
X51.777Y-72.097
X51.777Y-77.177
X51.777Y-84.797
X51.777Y-92.417
X51.777Y-100.037
X54.317Y-26.257
X54.317Y-33.877
X54.317Y-39.017
X54.317Y-46.637
X54.317Y-51.777
X54.317Y-59.397
X54.317Y-64.477
X54.317Y-72.097
X54.317Y-77.177
X54.317Y-84.797
X54.317Y-92.417
X54.317Y-100.037
X56.857Y-26.257
X56.857Y-33.877
X56.857Y-39.017
X56.857Y-46.637
X56.857Y-51.777
X56.857Y-59.397
X56.857Y-64.477
X56.857Y-72.097
X56.857Y-77.177
X56.857Y-84.797
X56.857Y-92.417
X56.857Y-100.037
X59.397Y-26.257
X59.397Y-33.877
X59.397Y-39.017
X59.397Y-46.637
X59.397Y-51.777
X59.397Y-59.397
X59.397Y-64.477
X59.397Y-72.097
X59.397Y-77.177
X59.397Y-84.797
X59.397Y-92.417
X59.397Y-100.037
X61.937Y-26.257
X61.937Y-33.877
X61.937Y-39.017
X61.937Y-46.637
X61.937Y-51.777
X61.937Y-59.397
X61.937Y-64.477
X61.937Y-72.097
X61.937Y-77.177
X61.937Y-84.797
X61.937Y-92.417
X61.937Y-100.037
X64.477Y-26.257
X64.477Y-33.877
X64.477Y-39.017
X64.477Y-46.637
X64.477Y-51.777
X64.477Y-59.397
X64.477Y-64.477
X64.477Y-72.097
X64.477Y-77.177
X64.477Y-84.797
X64.477Y-92.417
X64.477Y-100.037
X67.017Y-26.257
X67.017Y-33.877
X67.017Y-39.017
X67.017Y-46.637
X67.017Y-51.777
X67.017Y-59.397
X67.017Y-64.477
X67.017Y-72.097
X67.017Y-77.177
X67.017Y-84.797
X67.017Y-92.417
X67.017Y-100.037
X69.557Y-26.257
X69.557Y-33.877
X69.557Y-39.017
X69.557Y-46.637
X69.557Y-51.777
X69.557Y-59.397
X69.557Y-64.477
X69.557Y-72.097
X69.557Y-77.177
X69.557Y-84.797
X69.557Y-92.417
X69.557Y-100.037
X72.097Y-26.257
X72.097Y-33.877
X72.097Y-39.017
X72.097Y-46.637
X72.097Y-51.777
X72.097Y-59.397
X72.097Y-64.477
X72.097Y-72.097
X72.097Y-77.177
X72.097Y-84.797
X72.097Y-92.417
X72.097Y-100.037
X74.637Y-26.257
X74.637Y-33.877
X74.637Y-39.017
X74.637Y-46.637
X74.637Y-51.777
X74.637Y-59.397
X74.637Y-64.477
X74.637Y-72.097
X74.637Y-77.177
X74.637Y-84.797
X74.637Y-92.417
X74.637Y-100.037
X77.177Y-26.257
X77.177Y-33.877
X77.177Y-39.017
X77.177Y-46.637
X77.177Y-51.777
X77.177Y-59.397
X77.177Y-64.477
X77.177Y-72.097
X77.177Y-77.177
X77.177Y-84.797
X77.177Y-92.417
X77.177Y-100.037
X79.717Y-26.257
X79.717Y-33.877
X79.717Y-39.017
X79.717Y-46.637
X79.717Y-51.777
X79.717Y-59.397
X79.717Y-64.477
X79.717Y-72.097
X79.717Y-77.177
X79.717Y-84.797
X79.717Y-92.417
X79.717Y-100.037
X82.257Y-26.257
X82.257Y-33.877
X82.257Y-39.017
X82.257Y-46.637
X82.257Y-51.777
X82.257Y-59.397
X82.257Y-64.477
X82.257Y-72.097
X82.257Y-77.177
X82.257Y-84.797
X82.257Y-92.417
X82.257Y-100.037
X84.797Y-26.257
X84.797Y-33.877
X84.797Y-39.017
X84.797Y-46.637
X84.797Y-51.777
X84.797Y-59.397
X84.797Y-64.477
X84.797Y-72.097
X84.797Y-77.177
X84.797Y-84.797
X84.797Y-92.417
X84.797Y-100.037
X87.337Y-26.257
X87.337Y-33.877
X87.337Y-39.017
X87.337Y-46.637
X87.337Y-51.777
X87.337Y-59.397
X87.337Y-64.477
X87.337Y-72.097
X87.337Y-77.177
X87.337Y-84.797
X87.337Y-92.417
X87.337Y-100.037
X89.877Y-26.257
X89.877Y-33.877
X89.877Y-39.017
X89.877Y-46.637
X89.877Y-51.777
X89.877Y-59.397
X89.877Y-64.477
X89.877Y-72.097
X89.877Y-77.177
X89.877Y-84.797
X89.877Y-92.417
X89.877Y-100.037
X92.417Y-26.257
X92.417Y-33.877
X92.417Y-39.017
X92.417Y-46.637
X92.417Y-51.777
X92.417Y-59.397
X92.417Y-64.477
X92.417Y-72.097
X92.417Y-77.177
X92.417Y-84.797
X92.417Y-92.417
X92.417Y-100.037
X94.957Y-26.257
X94.957Y-33.877
X94.957Y-39.017
X94.957Y-46.637
X94.957Y-51.777
X94.957Y-59.397
X94.957Y-64.477
X94.957Y-72.097
X94.957Y-77.177
X94.957Y-84.797
X94.957Y-92.417
X94.957Y-100.037
X97.497Y-26.257
X97.497Y-33.877
X97.497Y-39.017
X97.497Y-46.637
X97.497Y-51.777
X97.497Y-59.397
X97.497Y-64.477
X97.497Y-72.097
X97.497Y-77.177
X97.497Y-84.797
X97.497Y-92.417
X97.497Y-100.037
X100.037Y-26.257
X100.037Y-33.877
X100.037Y-39.017
X100.037Y-46.637
X100.037Y-51.777
X100.037Y-59.397
X100.037Y-64.477
X100.037Y-72.097
X100.037Y-77.177
X100.037Y-84.797
X100.037Y-92.417
X100.037Y-100.037
X102.577Y-26.257
X102.577Y-33.877
X102.577Y-39.017
X102.577Y-46.637
X102.577Y-51.777
X102.577Y-59.397
X102.577Y-64.477
X102.577Y-72.097
X102.577Y-77.177
X102.577Y-84.797
X102.577Y-92.417
X102.577Y-100.037
X105.117Y-26.257
X105.117Y-33.877
X105.117Y-39.017
X105.117Y-46.637
X105.117Y-51.777
X105.117Y-59.397
X105.117Y-64.477
X105.117Y-72.097
X105.117Y-77.177
X105.117Y-84.797
X105.117Y-92.417
X105.117Y-100.037
X107.657Y-26.257
X107.657Y-33.877
X107.657Y-39.017
X107.657Y-46.637
X107.657Y-51.777
X107.657Y-59.397
X107.657Y-64.477
X107.657Y-72.097
X107.657Y-77.177
X107.657Y-84.797
X107.657Y-92.417
X107.657Y-100.037
X110.197Y-26.257
X110.197Y-33.877
X110.197Y-39.017
X110.197Y-46.637
X110.197Y-51.777
X110.197Y-59.397
X110.197Y-64.477
X110.197Y-72.097
X110.197Y-77.177
X110.197Y-84.797
X110.197Y-92.417
X110.197Y-100.037
X112.737Y-26.257
X112.737Y-33.877
X112.737Y-39.017
X112.737Y-46.637
X112.737Y-51.777
X112.737Y-59.397
X112.737Y-64.477
X112.737Y-72.097
X112.737Y-77.177
X112.737Y-84.797
X112.737Y-92.417
X112.737Y-100.037
X115.277Y-26.257
X115.277Y-33.877
X115.277Y-39.017
X115.277Y-46.637
X115.277Y-51.777
X115.277Y-59.397
X115.277Y-64.477
X115.277Y-72.097
X115.277Y-77.177
X115.277Y-84.797
X115.277Y-92.417
X115.277Y-100.037
X117.817Y-26.257
X117.817Y-33.877
X117.817Y-39.017
X117.817Y-46.637
X117.817Y-51.777
X117.817Y-59.397
X117.817Y-64.477
X117.817Y-72.097
X117.817Y-77.177
X117.817Y-84.797
X117.817Y-92.417
X117.817Y-100.037
X122.262Y-32.727
X122.262Y-35.267
X122.262Y-37.807
X122.262Y-40.347
X122.262Y-42.887
X122.262Y-45.427
X122.262Y-47.967
X122.262Y-50.507
X122.262Y-53.047
X122.262Y-55.587
X122.262Y-58.127
X122.262Y-60.667
X122.262Y-63.207
X122.262Y-65.747
X122.262Y-68.287
X122.262Y-70.827
X122.262Y-73.367
X122.262Y-75.907
X122.262Y-78.447
X122.262Y-80.987
X122.262Y-83.527
X122.262Y-86.067
X122.262Y-88.607
X122.262Y-91.147
X122.262Y-93.687
X124.802Y-32.727
X124.802Y-35.267
X124.802Y-37.807
X124.802Y-40.347
X124.802Y-42.887
X124.802Y-45.427
X124.802Y-47.967
X124.802Y-50.507
X124.802Y-53.047
X124.802Y-55.587
X124.802Y-58.127
X124.802Y-60.667
X124.802Y-63.207
X124.802Y-65.747
X124.802Y-68.287
X124.802Y-70.827
X124.802Y-73.367
X124.802Y-75.907
X124.802Y-78.447
X124.802Y-80.987
X124.802Y-83.527
X124.802Y-86.067
X124.802Y-88.607
X124.802Y-91.147
X124.802Y-93.687
T0
M30
