G04 #@! TF.GenerationSoftware,KiCad,Pcbnew,7.0.7*
G04 #@! TF.CreationDate,2024-01-03T09:04:34+01:00*
G04 #@! TF.ProjectId,Proto,50726f74-6f2e-46b6-9963-61645f706362,rev?*
G04 #@! TF.SameCoordinates,Original*
G04 #@! TF.FileFunction,Profile,NP*
%FSLAX46Y46*%
G04 Gerber Fmt 4.6, Leading zero omitted, Abs format (unit mm)*
G04 Created by KiCad (PCBNEW 7.0.7) date 2024-01-03 09:04:34*
%MOMM*%
%LPD*%
G01*
G04 APERTURE LIST*
G04 #@! TA.AperFunction,Profile*
%ADD10C,0.100000*%
G04 #@! TD*
G04 APERTURE END LIST*
D10*
X33616107Y-35267093D02*
G75*
G03*
X33616107Y-37553107I-7J-1143007D01*
G01*
X118216107Y-63073093D02*
G75*
G03*
X118216107Y-60787107I-7J1142993D01*
G01*
X33616107Y-60787107D02*
X43616107Y-60787107D01*
X108216107Y-87577107D02*
X118216107Y-87577107D01*
X33616107Y-50313107D02*
X43616107Y-50313107D01*
X33616107Y-48027093D02*
G75*
G03*
X33616107Y-50313107I-7J-1143007D01*
G01*
X43616107Y-50313093D02*
G75*
G03*
X43616107Y-48027107I-7J1142993D01*
G01*
X118216107Y-75833093D02*
G75*
G03*
X118216107Y-73547107I-7J1142993D01*
G01*
X118216107Y-89863093D02*
G75*
G03*
X118216107Y-87577107I-7J1142993D01*
G01*
X43616107Y-37553093D02*
G75*
G03*
X43616107Y-35267107I-7J1142993D01*
G01*
X25107107Y-100307107D02*
X25107107Y-26107107D01*
X108216107Y-73547107D02*
X118216107Y-73547107D01*
X43616107Y-89863093D02*
G75*
G03*
X43616107Y-87577107I-7J1142993D01*
G01*
X33616107Y-35267107D02*
X43616107Y-35267107D01*
X33616107Y-37553107D02*
X43616107Y-37553107D01*
X108216107Y-48027107D02*
X118216107Y-48027107D01*
X33616107Y-48027107D02*
X43616107Y-48027107D01*
X26107107Y-25107107D02*
X125707107Y-25107107D01*
X33616107Y-87577107D02*
X43616107Y-87577107D01*
X108216107Y-35267107D02*
X118216107Y-35267107D01*
X125707107Y-101307107D02*
G75*
G03*
X126707107Y-100307107I-7J1000007D01*
G01*
X33616107Y-73547093D02*
G75*
G03*
X33616107Y-75833107I-7J-1143007D01*
G01*
X108216107Y-73547093D02*
G75*
G03*
X108216107Y-75833107I-7J-1143007D01*
G01*
X118216107Y-37553093D02*
G75*
G03*
X118216107Y-35267107I-7J1142993D01*
G01*
X108216107Y-48027093D02*
G75*
G03*
X108216107Y-50313107I-7J-1143007D01*
G01*
X108216107Y-87577093D02*
G75*
G03*
X108216107Y-89863107I-7J-1143007D01*
G01*
X108216107Y-89863107D02*
X118216107Y-89863107D01*
X33616107Y-89863107D02*
X43616107Y-89863107D01*
X118216107Y-50313093D02*
G75*
G03*
X118216107Y-48027107I-7J1142993D01*
G01*
X33616107Y-75833107D02*
X43616107Y-75833107D01*
X108216107Y-75833107D02*
X118216107Y-75833107D01*
X33616107Y-60787093D02*
G75*
G03*
X33616107Y-63073107I-7J-1143007D01*
G01*
X108216107Y-60787107D02*
X118216107Y-60787107D01*
X43616107Y-63073093D02*
G75*
G03*
X43616107Y-60787107I-7J1142993D01*
G01*
X33616107Y-73547107D02*
X43616107Y-73547107D01*
X126707107Y-26107107D02*
X126707107Y-100307107D01*
X108216107Y-50313107D02*
X118216107Y-50313107D01*
X25107093Y-100307107D02*
G75*
G03*
X26107107Y-101307107I1000007J7D01*
G01*
X126707093Y-26107107D02*
G75*
G03*
X125707107Y-25107107I-999993J7D01*
G01*
X26107107Y-25107107D02*
G75*
G03*
X25107107Y-26107107I-7J-999993D01*
G01*
X33616107Y-87577093D02*
G75*
G03*
X33616107Y-89863107I-7J-1143007D01*
G01*
X33616107Y-63073107D02*
X43616107Y-63073107D01*
X108216107Y-60787093D02*
G75*
G03*
X108216107Y-63073107I-7J-1143007D01*
G01*
X108216107Y-35267093D02*
G75*
G03*
X108216107Y-37553107I-7J-1143007D01*
G01*
X108216107Y-63073107D02*
X118216107Y-63073107D01*
X125707107Y-101307107D02*
X26107107Y-101307107D01*
X43616107Y-75833093D02*
G75*
G03*
X43616107Y-73547107I-7J1142993D01*
G01*
X108216107Y-37553107D02*
X118216107Y-37553107D01*
M02*
