G04 #@! TF.GenerationSoftware,KiCad,Pcbnew,7.0.7*
G04 #@! TF.CreationDate,2024-01-03T09:04:34+01:00*
G04 #@! TF.ProjectId,Proto,50726f74-6f2e-46b6-9963-61645f706362,rev?*
G04 #@! TF.SameCoordinates,Original*
G04 #@! TF.FileFunction,Soldermask,Bot*
G04 #@! TF.FilePolarity,Negative*
%FSLAX46Y46*%
G04 Gerber Fmt 4.6, Leading zero omitted, Abs format (unit mm)*
G04 Created by KiCad (PCBNEW 7.0.7) date 2024-01-03 09:04:34*
%MOMM*%
%LPD*%
G01*
G04 APERTURE LIST*
%ADD10C,0.500000*%
%ADD11C,1.500000*%
%ADD12C,0.250000*%
%ADD13C,2.200000*%
%ADD14R,1.800000X1.800000*%
%ADD15R,1.700000X1.700000*%
%ADD16O,1.700000X1.700000*%
G04 APERTURE END LIST*
D10*
X119976107Y-97497107D02*
X118388607Y-97497107D01*
X33171607Y-69557107D02*
X31711107Y-69557107D01*
D11*
X118833107Y-54317107D02*
X32981107Y-54317107D01*
D12*
X31584107Y-31397107D02*
X31584107Y-97497107D01*
D10*
X119849107Y-69557107D02*
X118134607Y-69557107D01*
X33108107Y-31397107D02*
X31711107Y-31397107D01*
D11*
X118706107Y-44157107D02*
X32854107Y-44157107D01*
X118833107Y-79971107D02*
X32981107Y-79971107D01*
X118833107Y-28857107D02*
X32981107Y-28857107D01*
D10*
X119849107Y-56857107D02*
X118261607Y-56857107D01*
X119785607Y-82257107D02*
X117626607Y-82257107D01*
D11*
X118833107Y-94957107D02*
X32981107Y-94957107D01*
X118833107Y-97497107D02*
X32981107Y-97497107D01*
D10*
X31711107Y-97497107D02*
X32981107Y-97497107D01*
X119849107Y-44157107D02*
X118261607Y-44157107D01*
X119849107Y-31457107D02*
X118261607Y-31457107D01*
X33171607Y-44157107D02*
X31711107Y-44157107D01*
D11*
X118960107Y-82257107D02*
X33108107Y-82257107D01*
X118833107Y-67017107D02*
X32981107Y-67017107D01*
X118706107Y-56857107D02*
X33108107Y-56857107D01*
D12*
X119976107Y-31330107D02*
X119976107Y-97624107D01*
D10*
X33171607Y-82257107D02*
X31711107Y-82257107D01*
D11*
X118706107Y-69557107D02*
X33108107Y-69557107D01*
X118706107Y-31397107D02*
X33108107Y-31397107D01*
X118833107Y-41617107D02*
X32981107Y-41617107D01*
D10*
X33203357Y-56857107D02*
X31742857Y-56857107D01*
D13*
X27647107Y-98767107D03*
X27647107Y-27647107D03*
D14*
X33997107Y-100037107D03*
X36537107Y-100037107D03*
X39077107Y-100037107D03*
X41617107Y-100037107D03*
X44157107Y-100037107D03*
X46697107Y-100037107D03*
X49237107Y-100037107D03*
X51777107Y-100037107D03*
X54317107Y-100037107D03*
X56857107Y-100037107D03*
X59397107Y-100037107D03*
X61937107Y-100037107D03*
X64477107Y-100037107D03*
X67017107Y-100037107D03*
X69557107Y-100037107D03*
X72097107Y-100037107D03*
X74637107Y-100037107D03*
X77177107Y-100037107D03*
X79717107Y-100037107D03*
X82257107Y-100037107D03*
X84797107Y-100037107D03*
X87337107Y-100037107D03*
X89877107Y-100037107D03*
X92417107Y-100037107D03*
X94957107Y-100037107D03*
X97497107Y-100037107D03*
X100037107Y-100037107D03*
X102577107Y-100037107D03*
X105117107Y-100037107D03*
X107657107Y-100037107D03*
X110197107Y-100037107D03*
X112737107Y-100037107D03*
X115277107Y-100037107D03*
X117817107Y-100037107D03*
X33997107Y-64477107D03*
X36537107Y-64477107D03*
X39077107Y-64477107D03*
X41617107Y-64477107D03*
X44157107Y-64477107D03*
X46697107Y-64477107D03*
X49237107Y-64477107D03*
X51777107Y-64477107D03*
X54317107Y-64477107D03*
X56857107Y-64477107D03*
X59397107Y-64477107D03*
X61937107Y-64477107D03*
X64477107Y-64477107D03*
X67017107Y-64477107D03*
X69557107Y-64477107D03*
X72097107Y-64477107D03*
X74637107Y-64477107D03*
X77177107Y-64477107D03*
X79717107Y-64477107D03*
X82257107Y-64477107D03*
X84797107Y-64477107D03*
X87337107Y-64477107D03*
X89877107Y-64477107D03*
X92417107Y-64477107D03*
X94957107Y-64477107D03*
X97497107Y-64477107D03*
X100037107Y-64477107D03*
X102577107Y-64477107D03*
X105117107Y-64477107D03*
X107657107Y-64477107D03*
X110197107Y-64477107D03*
X112737107Y-64477107D03*
X115277107Y-64477107D03*
X117817107Y-64477107D03*
X33997107Y-92417107D03*
X36537107Y-92417107D03*
X39077107Y-92417107D03*
X41617107Y-92417107D03*
X44157107Y-92417107D03*
X46697107Y-92417107D03*
X49237107Y-92417107D03*
X51777107Y-92417107D03*
X54317107Y-92417107D03*
X56857107Y-92417107D03*
X59397107Y-92417107D03*
X61937107Y-92417107D03*
X64477107Y-92417107D03*
X67017107Y-92417107D03*
X69557107Y-92417107D03*
X72097107Y-92417107D03*
X74637107Y-92417107D03*
X77177107Y-92417107D03*
X79717107Y-92417107D03*
X82257107Y-92417107D03*
X84797107Y-92417107D03*
X87337107Y-92417107D03*
X89877107Y-92417107D03*
X92417107Y-92417107D03*
X94957107Y-92417107D03*
X97497107Y-92417107D03*
X100037107Y-92417107D03*
X102577107Y-92417107D03*
X105117107Y-92417107D03*
X107657107Y-92417107D03*
X110197107Y-92417107D03*
X112737107Y-92417107D03*
X115277107Y-92417107D03*
X117817107Y-92417107D03*
X33997107Y-39017107D03*
X36537107Y-39017107D03*
X39077107Y-39017107D03*
X41617107Y-39017107D03*
X44157107Y-39017107D03*
X46697107Y-39017107D03*
X49237107Y-39017107D03*
X51777107Y-39017107D03*
X54317107Y-39017107D03*
X56857107Y-39017107D03*
X59397107Y-39017107D03*
X61937107Y-39017107D03*
X64477107Y-39017107D03*
X67017107Y-39017107D03*
X69557107Y-39017107D03*
X72097107Y-39017107D03*
X74637107Y-39017107D03*
X77177107Y-39017107D03*
X79717107Y-39017107D03*
X82257107Y-39017107D03*
X84797107Y-39017107D03*
X87337107Y-39017107D03*
X89877107Y-39017107D03*
X92417107Y-39017107D03*
X94957107Y-39017107D03*
X97497107Y-39017107D03*
X100037107Y-39017107D03*
X102577107Y-39017107D03*
X105117107Y-39017107D03*
X107657107Y-39017107D03*
X110197107Y-39017107D03*
X112737107Y-39017107D03*
X115277107Y-39017107D03*
X117817107Y-39017107D03*
X33997107Y-84797107D03*
X36537107Y-84797107D03*
X39077107Y-84797107D03*
X41617107Y-84797107D03*
X44157107Y-84797107D03*
X46697107Y-84797107D03*
X49237107Y-84797107D03*
X51777107Y-84797107D03*
X54317107Y-84797107D03*
X56857107Y-84797107D03*
X59397107Y-84797107D03*
X61937107Y-84797107D03*
X64477107Y-84797107D03*
X67017107Y-84797107D03*
X69557107Y-84797107D03*
X72097107Y-84797107D03*
X74637107Y-84797107D03*
X77177107Y-84797107D03*
X79717107Y-84797107D03*
X82257107Y-84797107D03*
X84797107Y-84797107D03*
X87337107Y-84797107D03*
X89877107Y-84797107D03*
X92417107Y-84797107D03*
X94957107Y-84797107D03*
X97497107Y-84797107D03*
X100037107Y-84797107D03*
X102577107Y-84797107D03*
X105117107Y-84797107D03*
X107657107Y-84797107D03*
X110197107Y-84797107D03*
X112737107Y-84797107D03*
X115277107Y-84797107D03*
X117817107Y-84797107D03*
X33997107Y-59397107D03*
X36537107Y-59397107D03*
X39077107Y-59397107D03*
X41617107Y-59397107D03*
X44157107Y-59397107D03*
X46697107Y-59397107D03*
X49237107Y-59397107D03*
X51777107Y-59397107D03*
X54317107Y-59397107D03*
X56857107Y-59397107D03*
X59397107Y-59397107D03*
X61937107Y-59397107D03*
X64477107Y-59397107D03*
X67017107Y-59397107D03*
X69557107Y-59397107D03*
X72097107Y-59397107D03*
X74637107Y-59397107D03*
X77177107Y-59397107D03*
X79717107Y-59397107D03*
X82257107Y-59397107D03*
X84797107Y-59397107D03*
X87337107Y-59397107D03*
X89877107Y-59397107D03*
X92417107Y-59397107D03*
X94957107Y-59397107D03*
X97497107Y-59397107D03*
X100037107Y-59397107D03*
X102577107Y-59397107D03*
X105117107Y-59397107D03*
X107657107Y-59397107D03*
X110197107Y-59397107D03*
X112737107Y-59397107D03*
X115277107Y-59397107D03*
X117817107Y-59397107D03*
D13*
X27647107Y-98767107D03*
D14*
X33997107Y-51777107D03*
X36537107Y-51777107D03*
X39077107Y-51777107D03*
X41617107Y-51777107D03*
X44157107Y-51777107D03*
X46697107Y-51777107D03*
X49237107Y-51777107D03*
X51777107Y-51777107D03*
X54317107Y-51777107D03*
X56857107Y-51777107D03*
X59397107Y-51777107D03*
X61937107Y-51777107D03*
X64477107Y-51777107D03*
X67017107Y-51777107D03*
X69557107Y-51777107D03*
X72097107Y-51777107D03*
X74637107Y-51777107D03*
X77177107Y-51777107D03*
X79717107Y-51777107D03*
X82257107Y-51777107D03*
X84797107Y-51777107D03*
X87337107Y-51777107D03*
X89877107Y-51777107D03*
X92417107Y-51777107D03*
X94957107Y-51777107D03*
X97497107Y-51777107D03*
X100037107Y-51777107D03*
X102577107Y-51777107D03*
X105117107Y-51777107D03*
X107657107Y-51777107D03*
X110197107Y-51777107D03*
X112737107Y-51777107D03*
X115277107Y-51777107D03*
X117817107Y-51777107D03*
X33997107Y-33877107D03*
X36537107Y-33877107D03*
X39077107Y-33877107D03*
X41617107Y-33877107D03*
X44157107Y-33877107D03*
X46697107Y-33877107D03*
X49237107Y-33877107D03*
X51777107Y-33877107D03*
X54317107Y-33877107D03*
X56857107Y-33877107D03*
X59397107Y-33877107D03*
X61937107Y-33877107D03*
X64477107Y-33877107D03*
X67017107Y-33877107D03*
X69557107Y-33877107D03*
X72097107Y-33877107D03*
X74637107Y-33877107D03*
X77177107Y-33877107D03*
X79717107Y-33877107D03*
X82257107Y-33877107D03*
X84797107Y-33877107D03*
X87337107Y-33877107D03*
X89877107Y-33877107D03*
X92417107Y-33877107D03*
X94957107Y-33877107D03*
X97497107Y-33877107D03*
X100037107Y-33877107D03*
X102577107Y-33877107D03*
X105117107Y-33877107D03*
X107657107Y-33877107D03*
X110197107Y-33877107D03*
X112737107Y-33877107D03*
X115277107Y-33877107D03*
X117817107Y-33877107D03*
X33997107Y-46637107D03*
X36537107Y-46637107D03*
X39077107Y-46637107D03*
X41617107Y-46637107D03*
X44157107Y-46637107D03*
X46697107Y-46637107D03*
X49237107Y-46637107D03*
X51777107Y-46637107D03*
X54317107Y-46637107D03*
X56857107Y-46637107D03*
X59397107Y-46637107D03*
X61937107Y-46637107D03*
X64477107Y-46637107D03*
X67017107Y-46637107D03*
X69557107Y-46637107D03*
X72097107Y-46637107D03*
X74637107Y-46637107D03*
X77177107Y-46637107D03*
X79717107Y-46637107D03*
X82257107Y-46637107D03*
X84797107Y-46637107D03*
X87337107Y-46637107D03*
X89877107Y-46637107D03*
X92417107Y-46637107D03*
X94957107Y-46637107D03*
X97497107Y-46637107D03*
X100037107Y-46637107D03*
X102577107Y-46637107D03*
X105117107Y-46637107D03*
X107657107Y-46637107D03*
X110197107Y-46637107D03*
X112737107Y-46637107D03*
X115277107Y-46637107D03*
X117817107Y-46637107D03*
D13*
X27647107Y-27647107D03*
D14*
X33997107Y-72097107D03*
X36537107Y-72097107D03*
X39077107Y-72097107D03*
X41617107Y-72097107D03*
X44157107Y-72097107D03*
X46697107Y-72097107D03*
X49237107Y-72097107D03*
X51777107Y-72097107D03*
X54317107Y-72097107D03*
X56857107Y-72097107D03*
X59397107Y-72097107D03*
X61937107Y-72097107D03*
X64477107Y-72097107D03*
X67017107Y-72097107D03*
X69557107Y-72097107D03*
X72097107Y-72097107D03*
X74637107Y-72097107D03*
X77177107Y-72097107D03*
X79717107Y-72097107D03*
X82257107Y-72097107D03*
X84797107Y-72097107D03*
X87337107Y-72097107D03*
X89877107Y-72097107D03*
X92417107Y-72097107D03*
X94957107Y-72097107D03*
X97497107Y-72097107D03*
X100037107Y-72097107D03*
X102577107Y-72097107D03*
X105117107Y-72097107D03*
X107657107Y-72097107D03*
X110197107Y-72097107D03*
X112737107Y-72097107D03*
X115277107Y-72097107D03*
X117817107Y-72097107D03*
X33997107Y-26257107D03*
X36537107Y-26257107D03*
X39077107Y-26257107D03*
X41617107Y-26257107D03*
X44157107Y-26257107D03*
X46697107Y-26257107D03*
X49237107Y-26257107D03*
X51777107Y-26257107D03*
X54317107Y-26257107D03*
X56857107Y-26257107D03*
X59397107Y-26257107D03*
X61937107Y-26257107D03*
X64477107Y-26257107D03*
X67017107Y-26257107D03*
X69557107Y-26257107D03*
X72097107Y-26257107D03*
X74637107Y-26257107D03*
X77177107Y-26257107D03*
X79717107Y-26257107D03*
X82257107Y-26257107D03*
X84797107Y-26257107D03*
X87337107Y-26257107D03*
X89877107Y-26257107D03*
X92417107Y-26257107D03*
X94957107Y-26257107D03*
X97497107Y-26257107D03*
X100037107Y-26257107D03*
X102577107Y-26257107D03*
X105117107Y-26257107D03*
X107657107Y-26257107D03*
X110197107Y-26257107D03*
X112737107Y-26257107D03*
X115277107Y-26257107D03*
X117817107Y-26257107D03*
X33997107Y-77177107D03*
X36537107Y-77177107D03*
X39077107Y-77177107D03*
X41617107Y-77177107D03*
X44157107Y-77177107D03*
X46697107Y-77177107D03*
X49237107Y-77177107D03*
X51777107Y-77177107D03*
X54317107Y-77177107D03*
X56857107Y-77177107D03*
X59397107Y-77177107D03*
X61937107Y-77177107D03*
X64477107Y-77177107D03*
X67017107Y-77177107D03*
X69557107Y-77177107D03*
X72097107Y-77177107D03*
X74637107Y-77177107D03*
X77177107Y-77177107D03*
X79717107Y-77177107D03*
X82257107Y-77177107D03*
X84797107Y-77177107D03*
X87337107Y-77177107D03*
X89877107Y-77177107D03*
X92417107Y-77177107D03*
X94957107Y-77177107D03*
X97497107Y-77177107D03*
X100037107Y-77177107D03*
X102577107Y-77177107D03*
X105117107Y-77177107D03*
X107657107Y-77177107D03*
X110197107Y-77177107D03*
X112737107Y-77177107D03*
X115277107Y-77177107D03*
X117817107Y-77177107D03*
D15*
X28917107Y-72097107D03*
D16*
X28917107Y-69557107D03*
X28917107Y-67017107D03*
X28917107Y-64477107D03*
X28917107Y-61937107D03*
X28917107Y-59397107D03*
X28917107Y-56857107D03*
X28917107Y-54317107D03*
D15*
X28917107Y-92402107D03*
D16*
X28917107Y-89862107D03*
X28917107Y-87322107D03*
X28917107Y-84782107D03*
X28917107Y-82242107D03*
X28917107Y-79702107D03*
X28917107Y-77162107D03*
X28917107Y-74622107D03*
D15*
X124802107Y-32727107D03*
D16*
X122262107Y-32727107D03*
X124802107Y-35267107D03*
X122262107Y-35267107D03*
X124802107Y-37807107D03*
X122262107Y-37807107D03*
X124802107Y-40347107D03*
X122262107Y-40347107D03*
X124802107Y-42887107D03*
X122262107Y-42887107D03*
X124802107Y-45427107D03*
X122262107Y-45427107D03*
X124802107Y-47967107D03*
X122262107Y-47967107D03*
X124802107Y-50507107D03*
X122262107Y-50507107D03*
X124802107Y-53047107D03*
X122262107Y-53047107D03*
X124802107Y-55587107D03*
X122262107Y-55587107D03*
X124802107Y-58127107D03*
X122262107Y-58127107D03*
X124802107Y-60667107D03*
X122262107Y-60667107D03*
X124802107Y-63207107D03*
X122262107Y-63207107D03*
X124802107Y-65747107D03*
X122262107Y-65747107D03*
X124802107Y-68287107D03*
X122262107Y-68287107D03*
X124802107Y-70827107D03*
X122262107Y-70827107D03*
X124802107Y-73367107D03*
X122262107Y-73367107D03*
X124802107Y-75907107D03*
X122262107Y-75907107D03*
X124802107Y-78447107D03*
X122262107Y-78447107D03*
X124802107Y-80987107D03*
X122262107Y-80987107D03*
X124802107Y-83527107D03*
X122262107Y-83527107D03*
X124802107Y-86067107D03*
X122262107Y-86067107D03*
X124802107Y-88607107D03*
X122262107Y-88607107D03*
X124802107Y-91147107D03*
X122262107Y-91147107D03*
X124802107Y-93687107D03*
X122262107Y-93687107D03*
D15*
X28917107Y-51762107D03*
D16*
X28917107Y-49222107D03*
X28917107Y-46682107D03*
X28917107Y-44142107D03*
X28917107Y-41602107D03*
X28917107Y-39062107D03*
X28917107Y-36522107D03*
X28917107Y-33982107D03*
M02*
