G04 #@! TF.GenerationSoftware,KiCad,Pcbnew,7.0.7*
G04 #@! TF.CreationDate,2024-01-03T09:04:34+01:00*
G04 #@! TF.ProjectId,Proto,50726f74-6f2e-46b6-9963-61645f706362,rev?*
G04 #@! TF.SameCoordinates,Original*
G04 #@! TF.FileFunction,Legend,Bot*
G04 #@! TF.FilePolarity,Positive*
%FSLAX46Y46*%
G04 Gerber Fmt 4.6, Leading zero omitted, Abs format (unit mm)*
G04 Created by KiCad (PCBNEW 7.0.7) date 2024-01-03 09:04:34*
%MOMM*%
%LPD*%
G01*
G04 APERTURE LIST*
%ADD10C,0.500000*%
%ADD11C,0.150000*%
%ADD12C,0.120000*%
%ADD13C,1.500000*%
%ADD14C,0.250000*%
%ADD15C,2.200000*%
%ADD16R,1.800000X1.800000*%
%ADD17R,1.700000X1.700000*%
%ADD18O,1.700000X1.700000*%
G04 APERTURE END LIST*
D10*
X32727107Y-63207107D02*
X119087107Y-63207107D01*
X119087107Y-73367107D01*
X32727107Y-73367107D01*
X32727107Y-63207107D01*
X32727107Y-75907107D02*
X119087107Y-75907107D01*
X119087107Y-86067107D01*
X32727107Y-86067107D01*
X32727107Y-75907107D01*
X32727107Y-24987107D02*
X119087107Y-24987107D01*
X119087107Y-35147107D01*
X32727107Y-35147107D01*
X32727107Y-24987107D01*
X32727107Y-50507107D02*
X119087107Y-50507107D01*
X119087107Y-60667107D01*
X32727107Y-60667107D01*
X32727107Y-50507107D01*
X32727107Y-91147107D02*
X119087107Y-91147107D01*
X119087107Y-101307107D01*
X32727107Y-101307107D01*
X32727107Y-91147107D01*
X32727107Y-37747107D02*
X119087107Y-37747107D01*
X119087107Y-47907107D01*
X32727107Y-47907107D01*
X32727107Y-37747107D01*
D11*
X26911180Y-95516506D02*
X26196895Y-95516506D01*
X26196895Y-95516506D02*
X26054038Y-95564125D01*
X26054038Y-95564125D02*
X25958800Y-95659363D01*
X25958800Y-95659363D02*
X25911180Y-95802220D01*
X25911180Y-95802220D02*
X25911180Y-95897458D01*
X25911180Y-94564125D02*
X25911180Y-95040315D01*
X25911180Y-95040315D02*
X26911180Y-95040315D01*
X26006419Y-93659363D02*
X25958800Y-93706982D01*
X25958800Y-93706982D02*
X25911180Y-93849839D01*
X25911180Y-93849839D02*
X25911180Y-93945077D01*
X25911180Y-93945077D02*
X25958800Y-94087934D01*
X25958800Y-94087934D02*
X26054038Y-94183172D01*
X26054038Y-94183172D02*
X26149276Y-94230791D01*
X26149276Y-94230791D02*
X26339752Y-94278410D01*
X26339752Y-94278410D02*
X26482609Y-94278410D01*
X26482609Y-94278410D02*
X26673085Y-94230791D01*
X26673085Y-94230791D02*
X26768323Y-94183172D01*
X26768323Y-94183172D02*
X26863561Y-94087934D01*
X26863561Y-94087934D02*
X26911180Y-93945077D01*
X26911180Y-93945077D02*
X26911180Y-93849839D01*
X26911180Y-93849839D02*
X26863561Y-93706982D01*
X26863561Y-93706982D02*
X26815942Y-93659363D01*
X26911180Y-92945077D02*
X26196895Y-92945077D01*
X26196895Y-92945077D02*
X26054038Y-92992696D01*
X26054038Y-92992696D02*
X25958800Y-93087934D01*
X25958800Y-93087934D02*
X25911180Y-93230791D01*
X25911180Y-93230791D02*
X25911180Y-93326029D01*
X25911180Y-91992696D02*
X25911180Y-92468886D01*
X25911180Y-92468886D02*
X26911180Y-92468886D01*
X26006419Y-91087934D02*
X25958800Y-91135553D01*
X25958800Y-91135553D02*
X25911180Y-91278410D01*
X25911180Y-91278410D02*
X25911180Y-91373648D01*
X25911180Y-91373648D02*
X25958800Y-91516505D01*
X25958800Y-91516505D02*
X26054038Y-91611743D01*
X26054038Y-91611743D02*
X26149276Y-91659362D01*
X26149276Y-91659362D02*
X26339752Y-91706981D01*
X26339752Y-91706981D02*
X26482609Y-91706981D01*
X26482609Y-91706981D02*
X26673085Y-91659362D01*
X26673085Y-91659362D02*
X26768323Y-91611743D01*
X26768323Y-91611743D02*
X26863561Y-91516505D01*
X26863561Y-91516505D02*
X26911180Y-91373648D01*
X26911180Y-91373648D02*
X26911180Y-91278410D01*
X26911180Y-91278410D02*
X26863561Y-91135553D01*
X26863561Y-91135553D02*
X26815942Y-91087934D01*
X26911180Y-90373648D02*
X26196895Y-90373648D01*
X26196895Y-90373648D02*
X26054038Y-90421267D01*
X26054038Y-90421267D02*
X25958800Y-90516505D01*
X25958800Y-90516505D02*
X25911180Y-90659362D01*
X25911180Y-90659362D02*
X25911180Y-90754600D01*
X25911180Y-89421267D02*
X25911180Y-89897457D01*
X25911180Y-89897457D02*
X26911180Y-89897457D01*
X26006419Y-88516505D02*
X25958800Y-88564124D01*
X25958800Y-88564124D02*
X25911180Y-88706981D01*
X25911180Y-88706981D02*
X25911180Y-88802219D01*
X25911180Y-88802219D02*
X25958800Y-88945076D01*
X25958800Y-88945076D02*
X26054038Y-89040314D01*
X26054038Y-89040314D02*
X26149276Y-89087933D01*
X26149276Y-89087933D02*
X26339752Y-89135552D01*
X26339752Y-89135552D02*
X26482609Y-89135552D01*
X26482609Y-89135552D02*
X26673085Y-89087933D01*
X26673085Y-89087933D02*
X26768323Y-89040314D01*
X26768323Y-89040314D02*
X26863561Y-88945076D01*
X26863561Y-88945076D02*
X26911180Y-88802219D01*
X26911180Y-88802219D02*
X26911180Y-88706981D01*
X26911180Y-88706981D02*
X26863561Y-88564124D01*
X26863561Y-88564124D02*
X26815942Y-88516505D01*
X26911180Y-87802219D02*
X26196895Y-87802219D01*
X26196895Y-87802219D02*
X26054038Y-87849838D01*
X26054038Y-87849838D02*
X25958800Y-87945076D01*
X25958800Y-87945076D02*
X25911180Y-88087933D01*
X25911180Y-88087933D02*
X25911180Y-88183171D01*
X25911180Y-86849838D02*
X25911180Y-87326028D01*
X25911180Y-87326028D02*
X26911180Y-87326028D01*
X26006419Y-85945076D02*
X25958800Y-85992695D01*
X25958800Y-85992695D02*
X25911180Y-86135552D01*
X25911180Y-86135552D02*
X25911180Y-86230790D01*
X25911180Y-86230790D02*
X25958800Y-86373647D01*
X25958800Y-86373647D02*
X26054038Y-86468885D01*
X26054038Y-86468885D02*
X26149276Y-86516504D01*
X26149276Y-86516504D02*
X26339752Y-86564123D01*
X26339752Y-86564123D02*
X26482609Y-86564123D01*
X26482609Y-86564123D02*
X26673085Y-86516504D01*
X26673085Y-86516504D02*
X26768323Y-86468885D01*
X26768323Y-86468885D02*
X26863561Y-86373647D01*
X26863561Y-86373647D02*
X26911180Y-86230790D01*
X26911180Y-86230790D02*
X26911180Y-86135552D01*
X26911180Y-86135552D02*
X26863561Y-85992695D01*
X26863561Y-85992695D02*
X26815942Y-85945076D01*
G36*
X102658474Y-88408676D02*
G01*
X102643181Y-88409042D01*
X102628164Y-88410140D01*
X102613422Y-88411970D01*
X102598955Y-88414531D01*
X102584763Y-88417825D01*
X102570846Y-88421851D01*
X102557205Y-88426609D01*
X102543839Y-88432099D01*
X102530747Y-88438320D01*
X102517931Y-88445274D01*
X102505390Y-88452960D01*
X102493125Y-88461377D01*
X102481134Y-88470527D01*
X102469419Y-88480408D01*
X102457978Y-88491022D01*
X102446813Y-88502367D01*
X102435923Y-88514139D01*
X102425736Y-88526202D01*
X102416251Y-88538555D01*
X102407469Y-88551201D01*
X102399389Y-88564137D01*
X102392012Y-88577364D01*
X102385337Y-88590883D01*
X102379365Y-88604693D01*
X102374096Y-88618794D01*
X102369529Y-88633186D01*
X102365665Y-88647869D01*
X102362504Y-88662844D01*
X102360044Y-88678110D01*
X102358288Y-88693667D01*
X102357234Y-88709515D01*
X102356883Y-88725654D01*
X102357234Y-88742079D01*
X102358288Y-88758186D01*
X102360044Y-88773976D01*
X102362504Y-88789447D01*
X102365665Y-88804601D01*
X102369529Y-88819436D01*
X102374096Y-88833954D01*
X102379365Y-88848154D01*
X102385337Y-88862036D01*
X102392012Y-88875600D01*
X102399389Y-88888846D01*
X102407469Y-88901775D01*
X102416251Y-88914385D01*
X102425736Y-88926677D01*
X102435923Y-88938652D01*
X102446813Y-88950309D01*
X102458157Y-88961571D01*
X102469793Y-88972107D01*
X102481719Y-88981917D01*
X102493937Y-88991000D01*
X102506446Y-88999356D01*
X102519246Y-89006985D01*
X102532337Y-89013888D01*
X102545719Y-89020064D01*
X102559393Y-89025514D01*
X102573358Y-89030237D01*
X102587614Y-89034234D01*
X102602161Y-89037503D01*
X102616999Y-89040047D01*
X102632129Y-89041863D01*
X102647549Y-89042953D01*
X102663261Y-89043316D01*
X102678774Y-89042953D01*
X102694025Y-89041863D01*
X102709014Y-89040047D01*
X102723742Y-89037503D01*
X102738207Y-89034234D01*
X102752411Y-89030237D01*
X102766353Y-89025514D01*
X102780034Y-89020064D01*
X102793452Y-89013888D01*
X102806609Y-89006985D01*
X102819504Y-88999356D01*
X102832137Y-88991000D01*
X102844508Y-88981917D01*
X102856617Y-88972107D01*
X102868465Y-88961571D01*
X102880051Y-88950309D01*
X102890900Y-88938414D01*
X102901048Y-88926239D01*
X102910497Y-88913784D01*
X102919246Y-88901048D01*
X102927295Y-88888031D01*
X102934644Y-88874735D01*
X102941293Y-88861157D01*
X102947242Y-88847299D01*
X102952492Y-88833161D01*
X102957041Y-88818742D01*
X102960890Y-88804042D01*
X102964040Y-88789063D01*
X102966490Y-88773802D01*
X102968240Y-88758261D01*
X102969289Y-88742440D01*
X102969639Y-88726338D01*
X102969285Y-88709911D01*
X102968223Y-88693800D01*
X102966454Y-88678004D01*
X102963976Y-88662523D01*
X102960790Y-88647358D01*
X102956897Y-88632507D01*
X102952295Y-88617972D01*
X102946986Y-88603752D01*
X102940968Y-88589848D01*
X102934243Y-88576258D01*
X102926810Y-88562984D01*
X102918669Y-88550025D01*
X102909820Y-88537381D01*
X102900263Y-88525053D01*
X102889998Y-88513040D01*
X102879025Y-88501341D01*
X102867425Y-88490120D01*
X102855533Y-88479623D01*
X102843350Y-88469850D01*
X102830876Y-88460800D01*
X102818110Y-88452475D01*
X102805054Y-88444873D01*
X102791706Y-88437996D01*
X102778067Y-88431842D01*
X102764137Y-88426413D01*
X102749916Y-88421707D01*
X102735404Y-88417725D01*
X102720600Y-88414467D01*
X102705505Y-88411933D01*
X102690119Y-88410124D01*
X102674442Y-88409038D01*
X102658474Y-88408676D01*
G37*
G36*
X101150519Y-89481000D02*
G01*
X100845508Y-89481000D01*
X100831588Y-89480959D01*
X100817868Y-89480838D01*
X100791027Y-89480353D01*
X100764985Y-89479545D01*
X100739742Y-89478414D01*
X100715297Y-89476959D01*
X100691651Y-89475181D01*
X100668804Y-89473080D01*
X100646756Y-89470656D01*
X100625506Y-89467908D01*
X100605055Y-89464837D01*
X100585403Y-89461443D01*
X100566549Y-89457726D01*
X100548495Y-89453686D01*
X100531239Y-89449322D01*
X100514781Y-89444635D01*
X100499123Y-89439625D01*
X100482798Y-89434160D01*
X100466564Y-89428196D01*
X100450421Y-89421733D01*
X100434368Y-89414770D01*
X100418406Y-89407307D01*
X100402536Y-89399345D01*
X100386756Y-89390884D01*
X100371066Y-89381922D01*
X100355468Y-89372462D01*
X100339961Y-89362501D01*
X100324544Y-89352041D01*
X100309218Y-89341082D01*
X100293983Y-89329623D01*
X100278839Y-89317664D01*
X100263785Y-89305206D01*
X100248823Y-89292249D01*
X100234202Y-89278870D01*
X100220045Y-89265235D01*
X100206353Y-89251344D01*
X100193124Y-89237196D01*
X100180360Y-89222792D01*
X100168060Y-89208131D01*
X100156224Y-89193214D01*
X100144852Y-89178041D01*
X100133944Y-89162611D01*
X100123501Y-89146924D01*
X100113521Y-89130981D01*
X100104006Y-89114782D01*
X100094955Y-89098326D01*
X100086368Y-89081614D01*
X100078245Y-89064645D01*
X100070587Y-89047420D01*
X100063392Y-89029938D01*
X100056662Y-89012200D01*
X100050396Y-88994205D01*
X100044594Y-88975954D01*
X100039256Y-88957447D01*
X100034382Y-88938683D01*
X100029973Y-88919662D01*
X100026028Y-88900385D01*
X100022546Y-88880852D01*
X100019529Y-88861062D01*
X100016977Y-88841016D01*
X100014888Y-88820713D01*
X100013263Y-88800154D01*
X100012103Y-88779339D01*
X100011407Y-88758267D01*
X100011179Y-88737280D01*
X100231384Y-88737280D01*
X100231546Y-88752131D01*
X100232032Y-88766806D01*
X100232841Y-88781305D01*
X100233975Y-88795629D01*
X100235433Y-88809777D01*
X100237214Y-88823749D01*
X100239320Y-88837546D01*
X100241749Y-88851167D01*
X100247579Y-88877883D01*
X100254705Y-88903896D01*
X100263127Y-88929206D01*
X100272844Y-88953814D01*
X100283857Y-88977719D01*
X100296166Y-89000921D01*
X100309770Y-89023421D01*
X100324669Y-89045218D01*
X100340865Y-89066313D01*
X100358356Y-89086705D01*
X100377143Y-89106395D01*
X100387022Y-89115976D01*
X100397225Y-89125382D01*
X100407388Y-89134248D01*
X100422919Y-89146977D01*
X100438792Y-89159020D01*
X100455008Y-89170378D01*
X100471566Y-89181051D01*
X100488467Y-89191039D01*
X100505711Y-89200342D01*
X100523297Y-89208959D01*
X100541226Y-89216891D01*
X100559497Y-89224138D01*
X100578111Y-89230699D01*
X100584422Y-89232635D01*
X100603949Y-89238073D01*
X100617461Y-89241390D01*
X100631368Y-89244463D01*
X100645671Y-89247289D01*
X100660369Y-89249869D01*
X100675462Y-89252204D01*
X100690951Y-89254293D01*
X100706835Y-89256137D01*
X100723115Y-89257734D01*
X100739790Y-89259086D01*
X100756860Y-89260192D01*
X100774326Y-89261052D01*
X100792187Y-89261666D01*
X100810443Y-89262035D01*
X100829095Y-89262158D01*
X100930309Y-89262158D01*
X100930309Y-88211718D01*
X100829095Y-88211718D01*
X100811301Y-88211849D01*
X100793780Y-88212242D01*
X100776533Y-88212896D01*
X100759558Y-88213813D01*
X100742857Y-88214991D01*
X100726429Y-88216431D01*
X100710274Y-88218132D01*
X100694392Y-88220096D01*
X100678783Y-88222321D01*
X100663448Y-88224808D01*
X100648385Y-88227557D01*
X100633596Y-88230568D01*
X100619080Y-88233840D01*
X100604837Y-88237374D01*
X100590867Y-88241171D01*
X100577171Y-88245228D01*
X100563747Y-88249548D01*
X100550597Y-88254130D01*
X100525116Y-88264078D01*
X100500727Y-88275073D01*
X100477431Y-88287116D01*
X100455228Y-88300206D01*
X100434117Y-88314343D01*
X100414099Y-88329527D01*
X100395173Y-88345759D01*
X100385096Y-88355209D01*
X100375339Y-88364839D01*
X100356785Y-88384638D01*
X100339510Y-88405156D01*
X100323515Y-88426392D01*
X100308800Y-88448347D01*
X100295364Y-88471021D01*
X100283208Y-88494413D01*
X100272331Y-88518524D01*
X100262734Y-88543353D01*
X100254417Y-88568901D01*
X100247379Y-88595168D01*
X100244340Y-88608571D01*
X100241621Y-88622153D01*
X100239221Y-88635915D01*
X100237142Y-88649857D01*
X100235383Y-88663978D01*
X100233943Y-88678279D01*
X100232823Y-88692760D01*
X100232024Y-88707420D01*
X100231544Y-88722260D01*
X100231384Y-88737280D01*
X100011179Y-88737280D01*
X100011175Y-88736938D01*
X100011397Y-88715675D01*
X100012065Y-88694670D01*
X100013179Y-88673923D01*
X100014738Y-88653435D01*
X100016743Y-88633206D01*
X100019193Y-88613235D01*
X100022088Y-88593522D01*
X100025429Y-88574068D01*
X100029216Y-88554872D01*
X100033447Y-88535935D01*
X100038125Y-88517256D01*
X100043247Y-88498836D01*
X100048816Y-88480674D01*
X100054829Y-88462770D01*
X100061288Y-88445125D01*
X100068193Y-88427739D01*
X100075543Y-88410611D01*
X100083339Y-88393741D01*
X100091580Y-88377130D01*
X100100266Y-88360777D01*
X100109398Y-88344683D01*
X100118975Y-88328847D01*
X100128998Y-88313270D01*
X100139466Y-88297951D01*
X100150380Y-88282891D01*
X100161739Y-88268089D01*
X100173544Y-88253545D01*
X100185794Y-88239260D01*
X100198489Y-88225234D01*
X100211630Y-88211466D01*
X100225217Y-88197956D01*
X100239249Y-88184705D01*
X100253452Y-88171946D01*
X100267854Y-88159658D01*
X100282453Y-88147840D01*
X100297250Y-88136491D01*
X100312245Y-88125614D01*
X100327437Y-88115206D01*
X100342827Y-88105268D01*
X100358415Y-88095801D01*
X100374200Y-88086803D01*
X100390183Y-88078276D01*
X100406364Y-88070219D01*
X100422742Y-88062632D01*
X100439318Y-88055516D01*
X100456092Y-88048869D01*
X100473063Y-88042693D01*
X100490232Y-88036987D01*
X100498381Y-88034273D01*
X100515224Y-88029104D01*
X100532796Y-88024279D01*
X100551098Y-88019799D01*
X100570129Y-88015664D01*
X100589890Y-88011873D01*
X100610379Y-88008427D01*
X100631598Y-88005326D01*
X100653547Y-88002569D01*
X100676224Y-88000157D01*
X100699631Y-87998089D01*
X100723767Y-87996366D01*
X100748633Y-87994987D01*
X100774227Y-87993954D01*
X100800551Y-87993264D01*
X100827605Y-87992920D01*
X100841405Y-87992877D01*
X101150519Y-87992877D01*
X101150519Y-89481000D01*
G37*
G36*
X99507839Y-87992877D02*
G01*
X99507839Y-89481000D01*
X99728048Y-89481000D01*
X99728048Y-87992877D01*
X99507839Y-87992877D01*
G37*
G36*
X99150854Y-89470057D02*
G01*
X98930644Y-89470057D01*
X98930644Y-88868243D01*
X98826353Y-88868243D01*
X98811892Y-88868128D01*
X98797619Y-88867781D01*
X98783533Y-88867203D01*
X98769633Y-88866394D01*
X98742396Y-88864084D01*
X98715906Y-88860849D01*
X98690164Y-88856689D01*
X98665171Y-88851606D01*
X98640925Y-88845598D01*
X98617427Y-88838665D01*
X98594677Y-88830809D01*
X98572676Y-88822028D01*
X98551422Y-88812323D01*
X98530916Y-88801693D01*
X98511159Y-88790139D01*
X98492149Y-88777661D01*
X98473887Y-88764259D01*
X98456373Y-88749932D01*
X98439769Y-88734814D01*
X98424236Y-88719040D01*
X98409775Y-88702608D01*
X98396384Y-88685519D01*
X98384065Y-88667773D01*
X98372817Y-88649369D01*
X98362640Y-88630309D01*
X98353535Y-88610591D01*
X98345501Y-88590216D01*
X98338538Y-88569184D01*
X98332646Y-88547495D01*
X98327825Y-88525149D01*
X98324076Y-88502146D01*
X98321398Y-88478485D01*
X98319791Y-88454167D01*
X98319256Y-88429192D01*
X98319314Y-88426457D01*
X98539465Y-88426457D01*
X98539766Y-88441688D01*
X98540668Y-88456435D01*
X98542173Y-88470699D01*
X98546987Y-88497776D01*
X98554207Y-88522920D01*
X98563835Y-88546129D01*
X98575870Y-88567404D01*
X98590311Y-88586745D01*
X98607160Y-88604152D01*
X98626415Y-88619625D01*
X98648078Y-88633163D01*
X98672147Y-88644768D01*
X98685085Y-88649845D01*
X98698624Y-88654438D01*
X98712764Y-88658548D01*
X98727507Y-88662175D01*
X98742851Y-88665318D01*
X98758797Y-88667977D01*
X98775345Y-88670153D01*
X98792494Y-88671845D01*
X98810245Y-88673054D01*
X98828598Y-88673779D01*
X98847553Y-88674021D01*
X98930644Y-88674021D01*
X98930644Y-88187099D01*
X98857127Y-88187099D01*
X98837583Y-88187332D01*
X98818660Y-88188034D01*
X98800357Y-88189202D01*
X98782675Y-88190839D01*
X98765613Y-88192942D01*
X98749172Y-88195514D01*
X98733351Y-88198552D01*
X98718150Y-88202058D01*
X98703570Y-88206032D01*
X98689610Y-88210473D01*
X98676271Y-88215382D01*
X98651453Y-88226602D01*
X98629118Y-88239692D01*
X98609264Y-88254652D01*
X98591892Y-88271482D01*
X98577001Y-88290181D01*
X98564592Y-88310751D01*
X98554665Y-88333191D01*
X98547220Y-88357501D01*
X98542257Y-88383681D01*
X98540706Y-88397472D01*
X98539775Y-88411730D01*
X98539465Y-88426457D01*
X98319314Y-88426457D01*
X98319755Y-88405849D01*
X98321254Y-88383009D01*
X98323751Y-88360671D01*
X98327248Y-88338834D01*
X98331744Y-88317501D01*
X98337239Y-88296669D01*
X98343734Y-88276340D01*
X98351227Y-88256512D01*
X98359719Y-88237187D01*
X98369211Y-88218365D01*
X98379701Y-88200044D01*
X98391191Y-88182226D01*
X98403680Y-88164910D01*
X98417168Y-88148096D01*
X98431655Y-88131784D01*
X98447141Y-88115975D01*
X98456336Y-88107220D01*
X98470469Y-88094752D01*
X98485011Y-88083085D01*
X98499961Y-88072216D01*
X98515321Y-88062148D01*
X98531089Y-88052878D01*
X98547265Y-88044408D01*
X98563851Y-88036737D01*
X98580845Y-88029866D01*
X98598248Y-88023795D01*
X98616059Y-88018522D01*
X98622090Y-88016944D01*
X98641251Y-88012512D01*
X98654916Y-88009807D01*
X98669295Y-88007302D01*
X98684387Y-88004998D01*
X98700193Y-88002894D01*
X98716711Y-88000991D01*
X98733943Y-87999288D01*
X98751888Y-87997785D01*
X98770547Y-87996483D01*
X98789919Y-87995381D01*
X98810004Y-87994480D01*
X98830802Y-87993778D01*
X98852313Y-87993277D01*
X98874538Y-87992977D01*
X98897476Y-87992877D01*
X99150854Y-87992877D01*
X99150854Y-89470057D01*
G37*
G36*
X97487657Y-89470057D02*
G01*
X97267448Y-89470057D01*
X97267448Y-88868243D01*
X97163156Y-88868243D01*
X97148696Y-88868128D01*
X97134423Y-88867781D01*
X97120336Y-88867203D01*
X97106437Y-88866394D01*
X97079199Y-88864084D01*
X97052710Y-88860849D01*
X97026968Y-88856689D01*
X97001974Y-88851606D01*
X96977729Y-88845598D01*
X96954231Y-88838665D01*
X96931481Y-88830809D01*
X96909480Y-88822028D01*
X96888226Y-88812323D01*
X96867720Y-88801693D01*
X96847963Y-88790139D01*
X96828953Y-88777661D01*
X96810691Y-88764259D01*
X96793177Y-88749932D01*
X96776573Y-88734814D01*
X96761040Y-88719040D01*
X96746579Y-88702608D01*
X96733188Y-88685519D01*
X96720869Y-88667773D01*
X96709621Y-88649369D01*
X96699444Y-88630309D01*
X96690339Y-88610591D01*
X96682305Y-88590216D01*
X96675342Y-88569184D01*
X96669450Y-88547495D01*
X96664629Y-88525149D01*
X96660880Y-88502146D01*
X96658202Y-88478485D01*
X96656595Y-88454167D01*
X96656059Y-88429192D01*
X96656118Y-88426457D01*
X96876269Y-88426457D01*
X96876570Y-88441688D01*
X96877472Y-88456435D01*
X96878977Y-88470699D01*
X96883790Y-88497776D01*
X96891011Y-88522920D01*
X96900639Y-88546129D01*
X96912674Y-88567404D01*
X96927115Y-88586745D01*
X96943964Y-88604152D01*
X96963219Y-88619625D01*
X96984882Y-88633163D01*
X97008951Y-88644768D01*
X97021888Y-88649845D01*
X97035427Y-88654438D01*
X97049568Y-88658548D01*
X97064311Y-88662175D01*
X97079655Y-88665318D01*
X97095601Y-88667977D01*
X97112149Y-88670153D01*
X97129298Y-88671845D01*
X97147049Y-88673054D01*
X97165402Y-88673779D01*
X97184357Y-88674021D01*
X97267448Y-88674021D01*
X97267448Y-88187099D01*
X97193931Y-88187099D01*
X97174387Y-88187332D01*
X97155464Y-88188034D01*
X97137161Y-88189202D01*
X97119479Y-88190839D01*
X97102417Y-88192942D01*
X97085975Y-88195514D01*
X97070154Y-88198552D01*
X97054954Y-88202058D01*
X97040374Y-88206032D01*
X97026414Y-88210473D01*
X97013074Y-88215382D01*
X96988257Y-88226602D01*
X96965921Y-88239692D01*
X96946068Y-88254652D01*
X96928695Y-88271482D01*
X96913805Y-88290181D01*
X96901396Y-88310751D01*
X96891469Y-88333191D01*
X96884024Y-88357501D01*
X96879061Y-88383681D01*
X96877510Y-88397472D01*
X96876579Y-88411730D01*
X96876269Y-88426457D01*
X96656118Y-88426457D01*
X96656559Y-88405849D01*
X96658058Y-88383009D01*
X96660555Y-88360671D01*
X96664052Y-88338834D01*
X96668548Y-88317501D01*
X96674043Y-88296669D01*
X96680538Y-88276340D01*
X96688031Y-88256512D01*
X96696523Y-88237187D01*
X96706015Y-88218365D01*
X96716505Y-88200044D01*
X96727995Y-88182226D01*
X96740484Y-88164910D01*
X96753972Y-88148096D01*
X96768459Y-88131784D01*
X96783945Y-88115975D01*
X96793140Y-88107220D01*
X96807273Y-88094752D01*
X96821815Y-88083085D01*
X96836765Y-88072216D01*
X96852125Y-88062148D01*
X96867893Y-88052878D01*
X96884069Y-88044408D01*
X96900655Y-88036737D01*
X96917649Y-88029866D01*
X96935052Y-88023795D01*
X96952863Y-88018522D01*
X96958894Y-88016944D01*
X96978055Y-88012512D01*
X96991720Y-88009807D01*
X97006099Y-88007302D01*
X97021191Y-88004998D01*
X97036997Y-88002894D01*
X97053515Y-88000991D01*
X97070747Y-87999288D01*
X97088692Y-87997785D01*
X97107351Y-87996483D01*
X97126722Y-87995381D01*
X97146807Y-87994480D01*
X97167606Y-87993778D01*
X97189117Y-87993277D01*
X97211342Y-87992977D01*
X97234280Y-87992877D01*
X97487657Y-87992877D01*
X97487657Y-89470057D01*
G37*
G36*
X96472780Y-88539981D02*
G01*
X96252570Y-88539981D01*
X96252570Y-88629569D01*
X96241535Y-88617998D01*
X96230740Y-88607137D01*
X96220185Y-88596985D01*
X96209870Y-88587542D01*
X96196492Y-88576055D01*
X96183541Y-88565829D01*
X96171018Y-88556864D01*
X96158921Y-88549160D01*
X96147253Y-88542716D01*
X96132188Y-88535624D01*
X96116271Y-88529733D01*
X96102925Y-88525886D01*
X96089033Y-88522809D01*
X96074597Y-88520501D01*
X96059616Y-88518962D01*
X96044090Y-88518193D01*
X96036122Y-88518096D01*
X96020092Y-88518568D01*
X96003929Y-88519984D01*
X95987634Y-88522343D01*
X95971207Y-88525646D01*
X95954648Y-88529892D01*
X95937956Y-88535083D01*
X95921132Y-88541217D01*
X95904176Y-88548294D01*
X95887088Y-88556315D01*
X95869867Y-88565280D01*
X95858313Y-88571781D01*
X95956792Y-88780706D01*
X95968244Y-88772885D01*
X95983439Y-88763652D01*
X95998549Y-88755788D01*
X96013573Y-88749291D01*
X96028511Y-88744162D01*
X96043364Y-88740400D01*
X96058132Y-88738007D01*
X96072814Y-88736981D01*
X96076471Y-88736938D01*
X96097796Y-88737971D01*
X96117744Y-88741068D01*
X96136317Y-88746231D01*
X96153514Y-88753458D01*
X96169336Y-88762751D01*
X96183782Y-88774108D01*
X96196851Y-88787531D01*
X96208545Y-88803018D01*
X96218864Y-88820570D01*
X96227806Y-88840188D01*
X96235373Y-88861870D01*
X96241564Y-88885618D01*
X96246379Y-88911430D01*
X96248271Y-88925111D01*
X96249819Y-88939308D01*
X96251022Y-88954021D01*
X96251882Y-88969250D01*
X96252398Y-88984996D01*
X96252570Y-89001258D01*
X96252570Y-89481000D01*
X96472780Y-89481000D01*
X96472780Y-88539981D01*
G37*
G36*
X95334302Y-88518651D02*
G01*
X95359300Y-88520314D01*
X95383809Y-88523085D01*
X95407829Y-88526966D01*
X95431360Y-88531954D01*
X95454402Y-88538052D01*
X95476956Y-88545258D01*
X95499020Y-88553573D01*
X95520596Y-88562996D01*
X95541682Y-88573528D01*
X95562280Y-88585169D01*
X95582389Y-88597918D01*
X95602009Y-88611776D01*
X95621141Y-88626743D01*
X95639783Y-88642818D01*
X95657937Y-88660002D01*
X95675286Y-88677932D01*
X95691516Y-88696333D01*
X95706627Y-88715204D01*
X95720618Y-88734545D01*
X95733491Y-88754356D01*
X95745243Y-88774637D01*
X95755877Y-88795388D01*
X95765391Y-88816610D01*
X95773786Y-88838302D01*
X95781062Y-88860464D01*
X95787218Y-88883096D01*
X95792255Y-88906198D01*
X95796173Y-88929771D01*
X95798971Y-88953814D01*
X95800650Y-88978326D01*
X95801209Y-89003309D01*
X95800660Y-89029824D01*
X95799014Y-89055770D01*
X95796269Y-89081147D01*
X95792426Y-89105955D01*
X95787485Y-89130194D01*
X95781446Y-89153864D01*
X95774310Y-89176965D01*
X95766075Y-89199497D01*
X95756743Y-89221460D01*
X95746312Y-89242854D01*
X95734784Y-89263679D01*
X95722157Y-89283935D01*
X95708433Y-89303622D01*
X95693611Y-89322740D01*
X95677690Y-89341289D01*
X95660672Y-89359269D01*
X95642883Y-89376660D01*
X95624565Y-89392929D01*
X95605719Y-89408075D01*
X95586343Y-89422100D01*
X95566438Y-89435003D01*
X95546005Y-89446784D01*
X95525042Y-89457443D01*
X95503551Y-89466980D01*
X95481530Y-89475395D01*
X95458981Y-89482688D01*
X95435903Y-89488859D01*
X95412295Y-89493908D01*
X95388159Y-89497835D01*
X95363494Y-89500640D01*
X95338300Y-89502323D01*
X95312577Y-89502884D01*
X95286591Y-89502333D01*
X95261121Y-89500682D01*
X95236166Y-89497931D01*
X95211726Y-89494079D01*
X95187803Y-89489126D01*
X95164394Y-89483073D01*
X95141502Y-89475918D01*
X95119125Y-89467664D01*
X95097263Y-89458309D01*
X95075917Y-89447853D01*
X95055087Y-89436296D01*
X95034772Y-89423639D01*
X95014973Y-89409881D01*
X94995690Y-89395023D01*
X94976922Y-89379064D01*
X94958669Y-89362004D01*
X94941278Y-89344045D01*
X94925010Y-89325556D01*
X94909863Y-89306538D01*
X94895838Y-89286991D01*
X94882935Y-89266916D01*
X94871154Y-89246311D01*
X94860495Y-89225178D01*
X94850958Y-89203515D01*
X94842543Y-89181324D01*
X94835250Y-89158604D01*
X94829079Y-89135354D01*
X94824030Y-89111576D01*
X94820103Y-89087269D01*
X94817299Y-89062433D01*
X94815616Y-89037068D01*
X94815055Y-89011174D01*
X95035264Y-89011174D01*
X95035337Y-89019584D01*
X95035919Y-89036085D01*
X95037084Y-89052162D01*
X95038831Y-89067813D01*
X95041160Y-89083040D01*
X95044072Y-89097843D01*
X95047566Y-89112220D01*
X95051643Y-89126173D01*
X95056302Y-89139701D01*
X95061543Y-89152804D01*
X95067367Y-89165483D01*
X95073773Y-89177736D01*
X95080761Y-89189565D01*
X95092336Y-89206513D01*
X95100780Y-89217280D01*
X95109807Y-89227622D01*
X95119278Y-89237435D01*
X95134222Y-89250968D01*
X95150049Y-89263077D01*
X95166760Y-89273761D01*
X95184354Y-89283020D01*
X95202832Y-89290855D01*
X95222193Y-89297266D01*
X95235591Y-89300748D01*
X95249382Y-89303597D01*
X95263566Y-89305813D01*
X95278143Y-89307396D01*
X95293112Y-89308345D01*
X95308474Y-89308662D01*
X95323716Y-89308341D01*
X95338581Y-89307379D01*
X95353069Y-89305777D01*
X95367181Y-89303533D01*
X95380916Y-89300648D01*
X95394274Y-89297121D01*
X95413605Y-89290630D01*
X95432089Y-89282696D01*
X95449726Y-89273319D01*
X95466514Y-89262500D01*
X95482456Y-89250238D01*
X95497549Y-89236534D01*
X95507141Y-89226596D01*
X95511685Y-89221474D01*
X95524452Y-89205428D01*
X95532242Y-89194163D01*
X95539454Y-89182443D01*
X95546090Y-89170270D01*
X95552149Y-89157642D01*
X95557631Y-89144560D01*
X95562535Y-89131024D01*
X95566863Y-89117034D01*
X95570614Y-89102589D01*
X95573787Y-89087691D01*
X95576384Y-89072338D01*
X95578403Y-89056532D01*
X95579846Y-89040271D01*
X95580712Y-89023556D01*
X95581000Y-89006387D01*
X95580706Y-88990332D01*
X95579825Y-88974650D01*
X95578355Y-88959343D01*
X95576298Y-88944410D01*
X95573654Y-88929851D01*
X95570421Y-88915666D01*
X95566601Y-88901855D01*
X95562193Y-88888418D01*
X95557198Y-88875354D01*
X95551615Y-88862665D01*
X95545444Y-88850350D01*
X95538685Y-88838409D01*
X95531339Y-88826842D01*
X95523405Y-88815648D01*
X95514883Y-88804829D01*
X95505773Y-88794384D01*
X95496147Y-88784446D01*
X95481031Y-88770742D01*
X95465104Y-88758480D01*
X95448365Y-88747661D01*
X95430815Y-88738284D01*
X95412453Y-88730350D01*
X95393280Y-88723859D01*
X95380048Y-88720333D01*
X95366454Y-88717448D01*
X95352500Y-88715204D01*
X95338185Y-88713601D01*
X95323510Y-88712639D01*
X95308474Y-88712318D01*
X95293232Y-88712639D01*
X95278367Y-88713601D01*
X95263879Y-88715204D01*
X95249767Y-88717448D01*
X95236032Y-88720333D01*
X95222674Y-88723859D01*
X95203342Y-88730350D01*
X95184859Y-88738284D01*
X95167222Y-88747661D01*
X95150434Y-88758480D01*
X95134492Y-88770742D01*
X95119398Y-88784446D01*
X95109807Y-88794384D01*
X95100780Y-88804728D01*
X95092336Y-88815499D01*
X95084474Y-88826697D01*
X95077194Y-88838323D01*
X95070497Y-88850377D01*
X95064382Y-88862857D01*
X95058850Y-88875766D01*
X95053900Y-88889101D01*
X95049532Y-88902864D01*
X95045746Y-88917055D01*
X95042543Y-88931673D01*
X95039923Y-88946718D01*
X95037885Y-88962191D01*
X95036429Y-88978091D01*
X95035555Y-88994419D01*
X95035264Y-89011174D01*
X94815055Y-89011174D01*
X94815612Y-88985482D01*
X94817282Y-88960294D01*
X94820067Y-88935612D01*
X94823966Y-88911434D01*
X94828979Y-88887762D01*
X94835106Y-88864594D01*
X94842347Y-88841931D01*
X94850702Y-88819773D01*
X94860171Y-88798120D01*
X94870753Y-88776972D01*
X94882450Y-88756328D01*
X94895261Y-88736190D01*
X94909186Y-88716557D01*
X94924224Y-88697428D01*
X94940377Y-88678804D01*
X94957644Y-88660685D01*
X94975925Y-88643419D01*
X94994696Y-88627266D01*
X95013955Y-88612228D01*
X95033704Y-88598303D01*
X95053941Y-88585492D01*
X95074667Y-88573795D01*
X95095882Y-88563213D01*
X95117586Y-88553744D01*
X95139779Y-88545389D01*
X95162460Y-88538148D01*
X95185631Y-88532021D01*
X95209290Y-88527008D01*
X95233438Y-88523109D01*
X95258075Y-88520324D01*
X95283201Y-88518653D01*
X95308816Y-88518096D01*
X95334302Y-88518651D01*
G37*
G36*
X94348648Y-88736938D02*
G01*
X94348648Y-89481000D01*
X94568858Y-89481000D01*
X94568858Y-88736938D01*
X94656394Y-88736938D01*
X94656394Y-88542716D01*
X94568858Y-88542716D01*
X94568858Y-88189834D01*
X94348648Y-88189834D01*
X94348648Y-88542716D01*
X94174943Y-88542716D01*
X94174943Y-88736938D01*
X94348648Y-88736938D01*
G37*
G36*
X93597247Y-88518651D02*
G01*
X93622245Y-88520314D01*
X93646754Y-88523085D01*
X93670774Y-88526966D01*
X93694305Y-88531954D01*
X93717347Y-88538052D01*
X93739900Y-88545258D01*
X93761965Y-88553573D01*
X93783540Y-88562996D01*
X93804627Y-88573528D01*
X93825225Y-88585169D01*
X93845334Y-88597918D01*
X93864954Y-88611776D01*
X93884086Y-88626743D01*
X93902728Y-88642818D01*
X93920881Y-88660002D01*
X93938231Y-88677932D01*
X93954461Y-88696333D01*
X93969572Y-88715204D01*
X93983563Y-88734545D01*
X93996436Y-88754356D01*
X94008188Y-88774637D01*
X94018822Y-88795388D01*
X94028336Y-88816610D01*
X94036731Y-88838302D01*
X94044007Y-88860464D01*
X94050163Y-88883096D01*
X94055200Y-88906198D01*
X94059117Y-88929771D01*
X94061916Y-88953814D01*
X94063595Y-88978326D01*
X94064154Y-89003309D01*
X94063605Y-89029824D01*
X94061958Y-89055770D01*
X94059214Y-89081147D01*
X94055371Y-89105955D01*
X94050430Y-89130194D01*
X94044391Y-89153864D01*
X94037255Y-89176965D01*
X94029020Y-89199497D01*
X94019687Y-89221460D01*
X94009257Y-89242854D01*
X93997728Y-89263679D01*
X93985102Y-89283935D01*
X93971378Y-89303622D01*
X93956555Y-89322740D01*
X93940635Y-89341289D01*
X93923617Y-89359269D01*
X93905828Y-89376660D01*
X93887510Y-89392929D01*
X93868663Y-89408075D01*
X93849288Y-89422100D01*
X93829383Y-89435003D01*
X93808950Y-89446784D01*
X93787987Y-89457443D01*
X93766496Y-89466980D01*
X93744475Y-89475395D01*
X93721926Y-89482688D01*
X93698848Y-89488859D01*
X93675240Y-89493908D01*
X93651104Y-89497835D01*
X93626439Y-89500640D01*
X93601245Y-89502323D01*
X93575522Y-89502884D01*
X93549536Y-89502333D01*
X93524065Y-89500682D01*
X93499111Y-89497931D01*
X93474671Y-89494079D01*
X93450747Y-89489126D01*
X93427339Y-89483073D01*
X93404447Y-89475918D01*
X93382070Y-89467664D01*
X93360208Y-89458309D01*
X93338862Y-89447853D01*
X93318032Y-89436296D01*
X93297717Y-89423639D01*
X93277918Y-89409881D01*
X93258635Y-89395023D01*
X93239867Y-89379064D01*
X93221614Y-89362004D01*
X93204223Y-89344045D01*
X93187954Y-89325556D01*
X93172808Y-89306538D01*
X93158783Y-89286991D01*
X93145880Y-89266916D01*
X93134099Y-89246311D01*
X93123440Y-89225178D01*
X93113903Y-89203515D01*
X93105488Y-89181324D01*
X93098195Y-89158604D01*
X93092024Y-89135354D01*
X93086975Y-89111576D01*
X93083048Y-89087269D01*
X93080243Y-89062433D01*
X93078560Y-89037068D01*
X93077999Y-89011174D01*
X93298209Y-89011174D01*
X93298282Y-89019584D01*
X93298864Y-89036085D01*
X93300029Y-89052162D01*
X93301776Y-89067813D01*
X93304105Y-89083040D01*
X93307017Y-89097843D01*
X93310511Y-89112220D01*
X93314588Y-89126173D01*
X93319247Y-89139701D01*
X93324488Y-89152804D01*
X93330312Y-89165483D01*
X93336718Y-89177736D01*
X93343706Y-89189565D01*
X93355281Y-89206513D01*
X93363725Y-89217280D01*
X93372752Y-89227622D01*
X93382223Y-89237435D01*
X93397167Y-89250968D01*
X93412994Y-89263077D01*
X93429704Y-89273761D01*
X93447299Y-89283020D01*
X93465776Y-89290855D01*
X93485138Y-89297266D01*
X93498536Y-89300748D01*
X93512327Y-89303597D01*
X93526511Y-89305813D01*
X93541088Y-89307396D01*
X93556057Y-89308345D01*
X93571419Y-89308662D01*
X93586661Y-89308341D01*
X93601526Y-89307379D01*
X93616014Y-89305777D01*
X93630126Y-89303533D01*
X93643861Y-89300648D01*
X93657219Y-89297121D01*
X93676550Y-89290630D01*
X93695034Y-89282696D01*
X93712670Y-89273319D01*
X93729459Y-89262500D01*
X93745400Y-89250238D01*
X93760494Y-89236534D01*
X93770086Y-89226596D01*
X93774630Y-89221474D01*
X93787397Y-89205428D01*
X93795186Y-89194163D01*
X93802399Y-89182443D01*
X93809035Y-89170270D01*
X93815094Y-89157642D01*
X93820576Y-89144560D01*
X93825480Y-89131024D01*
X93829808Y-89117034D01*
X93833559Y-89102589D01*
X93836732Y-89087691D01*
X93839329Y-89072338D01*
X93841348Y-89056532D01*
X93842791Y-89040271D01*
X93843656Y-89023556D01*
X93843945Y-89006387D01*
X93843651Y-88990332D01*
X93842770Y-88974650D01*
X93841300Y-88959343D01*
X93839243Y-88944410D01*
X93836599Y-88929851D01*
X93833366Y-88915666D01*
X93829546Y-88901855D01*
X93825138Y-88888418D01*
X93820143Y-88875354D01*
X93814560Y-88862665D01*
X93808389Y-88850350D01*
X93801630Y-88838409D01*
X93794284Y-88826842D01*
X93786349Y-88815648D01*
X93777828Y-88804829D01*
X93768718Y-88794384D01*
X93759092Y-88784446D01*
X93743976Y-88770742D01*
X93728049Y-88758480D01*
X93711310Y-88747661D01*
X93693760Y-88738284D01*
X93675398Y-88730350D01*
X93656225Y-88723859D01*
X93642992Y-88720333D01*
X93629399Y-88717448D01*
X93615445Y-88715204D01*
X93601130Y-88713601D01*
X93586455Y-88712639D01*
X93571419Y-88712318D01*
X93556177Y-88712639D01*
X93541312Y-88713601D01*
X93526824Y-88715204D01*
X93512712Y-88717448D01*
X93498977Y-88720333D01*
X93485619Y-88723859D01*
X93466287Y-88730350D01*
X93447803Y-88738284D01*
X93430167Y-88747661D01*
X93413378Y-88758480D01*
X93397437Y-88770742D01*
X93382343Y-88784446D01*
X93372752Y-88794384D01*
X93363725Y-88804728D01*
X93355281Y-88815499D01*
X93347419Y-88826697D01*
X93340139Y-88838323D01*
X93333442Y-88850377D01*
X93327327Y-88862857D01*
X93321795Y-88875766D01*
X93316844Y-88889101D01*
X93312477Y-88902864D01*
X93308691Y-88917055D01*
X93305488Y-88931673D01*
X93302868Y-88946718D01*
X93300829Y-88962191D01*
X93299373Y-88978091D01*
X93298500Y-88994419D01*
X93298209Y-89011174D01*
X93077999Y-89011174D01*
X93078556Y-88985482D01*
X93080227Y-88960294D01*
X93083012Y-88935612D01*
X93086911Y-88911434D01*
X93091924Y-88887762D01*
X93098051Y-88864594D01*
X93105292Y-88841931D01*
X93113647Y-88819773D01*
X93123115Y-88798120D01*
X93133698Y-88776972D01*
X93145395Y-88756328D01*
X93158206Y-88736190D01*
X93172130Y-88716557D01*
X93187169Y-88697428D01*
X93203322Y-88678804D01*
X93220588Y-88660685D01*
X93238870Y-88643419D01*
X93257641Y-88627266D01*
X93276900Y-88612228D01*
X93296649Y-88598303D01*
X93316886Y-88585492D01*
X93337612Y-88573795D01*
X93358827Y-88563213D01*
X93380531Y-88553744D01*
X93402724Y-88545389D01*
X93425405Y-88538148D01*
X93448576Y-88532021D01*
X93472235Y-88527008D01*
X93496383Y-88523109D01*
X93521020Y-88520324D01*
X93546146Y-88518653D01*
X93571761Y-88518096D01*
X93597247Y-88518651D01*
G37*
G36*
X92842745Y-89481000D02*
G01*
X92622535Y-89481000D01*
X92622535Y-89379443D01*
X92606715Y-89394391D01*
X92590628Y-89408375D01*
X92574274Y-89421394D01*
X92557652Y-89433448D01*
X92540764Y-89444539D01*
X92523608Y-89454665D01*
X92506185Y-89463826D01*
X92488495Y-89472024D01*
X92470538Y-89479256D01*
X92452313Y-89485525D01*
X92433822Y-89490829D01*
X92415063Y-89495169D01*
X92396037Y-89498544D01*
X92376745Y-89500955D01*
X92357185Y-89502401D01*
X92337357Y-89502884D01*
X92314017Y-89502337D01*
X92291185Y-89500698D01*
X92268860Y-89497967D01*
X92247042Y-89494143D01*
X92225733Y-89489226D01*
X92204930Y-89483217D01*
X92184636Y-89476115D01*
X92164849Y-89467920D01*
X92145569Y-89458633D01*
X92126797Y-89448253D01*
X92108533Y-89436781D01*
X92090776Y-89424216D01*
X92073527Y-89410559D01*
X92056785Y-89395808D01*
X92040551Y-89379966D01*
X92024824Y-89363030D01*
X92009752Y-89345172D01*
X91995652Y-89326731D01*
X91982525Y-89307708D01*
X91970370Y-89288103D01*
X91959188Y-89267915D01*
X91948978Y-89247145D01*
X91939740Y-89225792D01*
X91931475Y-89203857D01*
X91924182Y-89181340D01*
X91917861Y-89158240D01*
X91912513Y-89134558D01*
X91908137Y-89110294D01*
X91904734Y-89085447D01*
X91902303Y-89060018D01*
X91900844Y-89034006D01*
X91900514Y-89015961D01*
X92120567Y-89015961D01*
X92120855Y-89031527D01*
X92121716Y-89046768D01*
X92123152Y-89061682D01*
X92125162Y-89076271D01*
X92127747Y-89090533D01*
X92130906Y-89104470D01*
X92134639Y-89118081D01*
X92138947Y-89131366D01*
X92143829Y-89144325D01*
X92149285Y-89156958D01*
X92155316Y-89169265D01*
X92161921Y-89181246D01*
X92169100Y-89192902D01*
X92176854Y-89204231D01*
X92185182Y-89215235D01*
X92194085Y-89225912D01*
X92203250Y-89235933D01*
X92217550Y-89249751D01*
X92232510Y-89262115D01*
X92248132Y-89273025D01*
X92264415Y-89282479D01*
X92281359Y-89290479D01*
X92298964Y-89297025D01*
X92317230Y-89302116D01*
X92336158Y-89305753D01*
X92355747Y-89307934D01*
X92375997Y-89308662D01*
X92383219Y-89308581D01*
X92397402Y-89307934D01*
X92411234Y-89306641D01*
X92431327Y-89303490D01*
X92450632Y-89298884D01*
X92469150Y-89292823D01*
X92486880Y-89285308D01*
X92503823Y-89276338D01*
X92519979Y-89265913D01*
X92535347Y-89254034D01*
X92549928Y-89240701D01*
X92563722Y-89225912D01*
X92568097Y-89220794D01*
X92580391Y-89204797D01*
X92591435Y-89187839D01*
X92601228Y-89169920D01*
X92607063Y-89157439D01*
X92612341Y-89144531D01*
X92617064Y-89131195D01*
X92621232Y-89117432D01*
X92624843Y-89103241D01*
X92627900Y-89088623D01*
X92630400Y-89073578D01*
X92632345Y-89058105D01*
X92633734Y-89042205D01*
X92634567Y-89025877D01*
X92634845Y-89009122D01*
X92634775Y-89000943D01*
X92634211Y-88984874D01*
X92633084Y-88969193D01*
X92631393Y-88953899D01*
X92629138Y-88938993D01*
X92626320Y-88924474D01*
X92622938Y-88910342D01*
X92618992Y-88896598D01*
X92614483Y-88883241D01*
X92609410Y-88870271D01*
X92603773Y-88857689D01*
X92597573Y-88845494D01*
X92587215Y-88827928D01*
X92575590Y-88811233D01*
X92562696Y-88795410D01*
X92553339Y-88785348D01*
X92538678Y-88771472D01*
X92523266Y-88759057D01*
X92507102Y-88748103D01*
X92490187Y-88738609D01*
X92472521Y-88730576D01*
X92454103Y-88724003D01*
X92434934Y-88718891D01*
X92415014Y-88715240D01*
X92401316Y-88713617D01*
X92387285Y-88712643D01*
X92372919Y-88712318D01*
X92352911Y-88713076D01*
X92333533Y-88715348D01*
X92314787Y-88719135D01*
X92296672Y-88724436D01*
X92279188Y-88731252D01*
X92262335Y-88739583D01*
X92246113Y-88749428D01*
X92230523Y-88760788D01*
X92215563Y-88773663D01*
X92201235Y-88788053D01*
X92192033Y-88798487D01*
X92183379Y-88809154D01*
X92175283Y-88820211D01*
X92167746Y-88831658D01*
X92160767Y-88843495D01*
X92154346Y-88855722D01*
X92148484Y-88868339D01*
X92143180Y-88881346D01*
X92138434Y-88894743D01*
X92134246Y-88908531D01*
X92130617Y-88922708D01*
X92127546Y-88937275D01*
X92125034Y-88952232D01*
X92123080Y-88967579D01*
X92121684Y-88983317D01*
X92120847Y-88999444D01*
X92120567Y-89015961D01*
X91900514Y-89015961D01*
X91900358Y-89007413D01*
X91900840Y-88981608D01*
X91902287Y-88956341D01*
X91904698Y-88931610D01*
X91908073Y-88907417D01*
X91912413Y-88883760D01*
X91917717Y-88860640D01*
X91923985Y-88838057D01*
X91931218Y-88816012D01*
X91939415Y-88794503D01*
X91948577Y-88773531D01*
X91958703Y-88753096D01*
X91969793Y-88733198D01*
X91981848Y-88713837D01*
X91994867Y-88695013D01*
X92008851Y-88676726D01*
X92023798Y-88658976D01*
X92039514Y-88641916D01*
X92055716Y-88625957D01*
X92072405Y-88611099D01*
X92089579Y-88597341D01*
X92107240Y-88584684D01*
X92125387Y-88573127D01*
X92144020Y-88562672D01*
X92163139Y-88553316D01*
X92182744Y-88545062D01*
X92202836Y-88537908D01*
X92223414Y-88531854D01*
X92244478Y-88526901D01*
X92266028Y-88523049D01*
X92288065Y-88520298D01*
X92310587Y-88518647D01*
X92333596Y-88518096D01*
X92353638Y-88518620D01*
X92373416Y-88520191D01*
X92392929Y-88522809D01*
X92412178Y-88526474D01*
X92431162Y-88531186D01*
X92449882Y-88536946D01*
X92468338Y-88543753D01*
X92486529Y-88551607D01*
X92504455Y-88560508D01*
X92522117Y-88570456D01*
X92539515Y-88581452D01*
X92556648Y-88593494D01*
X92573516Y-88606584D01*
X92590120Y-88620721D01*
X92606460Y-88635906D01*
X92622535Y-88652137D01*
X92622535Y-87861572D01*
X92842745Y-87861572D01*
X92842745Y-89481000D01*
G37*
G36*
X91244700Y-88518651D02*
G01*
X91269698Y-88520314D01*
X91294207Y-88523085D01*
X91318227Y-88526966D01*
X91341758Y-88531954D01*
X91364800Y-88538052D01*
X91387353Y-88545258D01*
X91409418Y-88553573D01*
X91430993Y-88562996D01*
X91452080Y-88573528D01*
X91472678Y-88585169D01*
X91492787Y-88597918D01*
X91512407Y-88611776D01*
X91531538Y-88626743D01*
X91550181Y-88642818D01*
X91568334Y-88660002D01*
X91585684Y-88677932D01*
X91601914Y-88696333D01*
X91617025Y-88715204D01*
X91631016Y-88734545D01*
X91643888Y-88754356D01*
X91655641Y-88774637D01*
X91666275Y-88795388D01*
X91675789Y-88816610D01*
X91684184Y-88838302D01*
X91691459Y-88860464D01*
X91697616Y-88883096D01*
X91702653Y-88906198D01*
X91706570Y-88929771D01*
X91709369Y-88953814D01*
X91711048Y-88978326D01*
X91711607Y-89003309D01*
X91711058Y-89029824D01*
X91709411Y-89055770D01*
X91706666Y-89081147D01*
X91702824Y-89105955D01*
X91697883Y-89130194D01*
X91691844Y-89153864D01*
X91684707Y-89176965D01*
X91676473Y-89199497D01*
X91667140Y-89221460D01*
X91656710Y-89242854D01*
X91645181Y-89263679D01*
X91632555Y-89283935D01*
X91618831Y-89303622D01*
X91604008Y-89322740D01*
X91588088Y-89341289D01*
X91571070Y-89359269D01*
X91553281Y-89376660D01*
X91534963Y-89392929D01*
X91516116Y-89408075D01*
X91496741Y-89422100D01*
X91476836Y-89435003D01*
X91456402Y-89446784D01*
X91435440Y-89457443D01*
X91413948Y-89466980D01*
X91391928Y-89475395D01*
X91369379Y-89482688D01*
X91346300Y-89488859D01*
X91322693Y-89493908D01*
X91298557Y-89497835D01*
X91273892Y-89500640D01*
X91248698Y-89502323D01*
X91222975Y-89502884D01*
X91196989Y-89502333D01*
X91171518Y-89500682D01*
X91146563Y-89497931D01*
X91122124Y-89494079D01*
X91098200Y-89489126D01*
X91074792Y-89483073D01*
X91051899Y-89475918D01*
X91029522Y-89467664D01*
X91007661Y-89458309D01*
X90986315Y-89447853D01*
X90965485Y-89436296D01*
X90945170Y-89423639D01*
X90925371Y-89409881D01*
X90906087Y-89395023D01*
X90887319Y-89379064D01*
X90869067Y-89362004D01*
X90851676Y-89344045D01*
X90835407Y-89325556D01*
X90820261Y-89306538D01*
X90806236Y-89286991D01*
X90793333Y-89266916D01*
X90781552Y-89246311D01*
X90770893Y-89225178D01*
X90761356Y-89203515D01*
X90752941Y-89181324D01*
X90745648Y-89158604D01*
X90739477Y-89135354D01*
X90734428Y-89111576D01*
X90730501Y-89087269D01*
X90727696Y-89062433D01*
X90726013Y-89037068D01*
X90725452Y-89011174D01*
X90945662Y-89011174D01*
X90945734Y-89019584D01*
X90946317Y-89036085D01*
X90947482Y-89052162D01*
X90949229Y-89067813D01*
X90951558Y-89083040D01*
X90954470Y-89097843D01*
X90957964Y-89112220D01*
X90962041Y-89126173D01*
X90966700Y-89139701D01*
X90971941Y-89152804D01*
X90977765Y-89165483D01*
X90984171Y-89177736D01*
X90991159Y-89189565D01*
X91002734Y-89206513D01*
X91011178Y-89217280D01*
X91020205Y-89227622D01*
X91029676Y-89237435D01*
X91044620Y-89250968D01*
X91060447Y-89263077D01*
X91077157Y-89273761D01*
X91094751Y-89283020D01*
X91113229Y-89290855D01*
X91132591Y-89297266D01*
X91145989Y-89300748D01*
X91159780Y-89303597D01*
X91173964Y-89305813D01*
X91188541Y-89307396D01*
X91203510Y-89308345D01*
X91218872Y-89308662D01*
X91234113Y-89308341D01*
X91248978Y-89307379D01*
X91263467Y-89305777D01*
X91277579Y-89303533D01*
X91291314Y-89300648D01*
X91304672Y-89297121D01*
X91324003Y-89290630D01*
X91342487Y-89282696D01*
X91360123Y-89273319D01*
X91376912Y-89262500D01*
X91392853Y-89250238D01*
X91407947Y-89236534D01*
X91417539Y-89226596D01*
X91422083Y-89221474D01*
X91434850Y-89205428D01*
X91442639Y-89194163D01*
X91449852Y-89182443D01*
X91456488Y-89170270D01*
X91462547Y-89157642D01*
X91468028Y-89144560D01*
X91472933Y-89131024D01*
X91477261Y-89117034D01*
X91481011Y-89102589D01*
X91484185Y-89087691D01*
X91486782Y-89072338D01*
X91488801Y-89056532D01*
X91490244Y-89040271D01*
X91491109Y-89023556D01*
X91491398Y-89006387D01*
X91491104Y-88990332D01*
X91490222Y-88974650D01*
X91488753Y-88959343D01*
X91486696Y-88944410D01*
X91484051Y-88929851D01*
X91480819Y-88915666D01*
X91476999Y-88901855D01*
X91472591Y-88888418D01*
X91467596Y-88875354D01*
X91462012Y-88862665D01*
X91455841Y-88850350D01*
X91449083Y-88838409D01*
X91441736Y-88826842D01*
X91433802Y-88815648D01*
X91425281Y-88804829D01*
X91416171Y-88794384D01*
X91406545Y-88784446D01*
X91391429Y-88770742D01*
X91375502Y-88758480D01*
X91358763Y-88747661D01*
X91341213Y-88738284D01*
X91322851Y-88730350D01*
X91303678Y-88723859D01*
X91290445Y-88720333D01*
X91276852Y-88717448D01*
X91262898Y-88715204D01*
X91248583Y-88713601D01*
X91233908Y-88712639D01*
X91218872Y-88712318D01*
X91203630Y-88712639D01*
X91188765Y-88713601D01*
X91174277Y-88715204D01*
X91160165Y-88717448D01*
X91146430Y-88720333D01*
X91133071Y-88723859D01*
X91113740Y-88730350D01*
X91095256Y-88738284D01*
X91077620Y-88747661D01*
X91060831Y-88758480D01*
X91044890Y-88770742D01*
X91029796Y-88784446D01*
X91020205Y-88794384D01*
X91011178Y-88804728D01*
X91002734Y-88815499D01*
X90994872Y-88826697D01*
X90987592Y-88838323D01*
X90980895Y-88850377D01*
X90974780Y-88862857D01*
X90969247Y-88875766D01*
X90964297Y-88889101D01*
X90959930Y-88902864D01*
X90956144Y-88917055D01*
X90952941Y-88931673D01*
X90950321Y-88946718D01*
X90948282Y-88962191D01*
X90946826Y-88978091D01*
X90945953Y-88994419D01*
X90945662Y-89011174D01*
X90725452Y-89011174D01*
X90726009Y-88985482D01*
X90727680Y-88960294D01*
X90730465Y-88935612D01*
X90734364Y-88911434D01*
X90739377Y-88887762D01*
X90745504Y-88864594D01*
X90752745Y-88841931D01*
X90761100Y-88819773D01*
X90770568Y-88798120D01*
X90781151Y-88776972D01*
X90792848Y-88756328D01*
X90805659Y-88736190D01*
X90819583Y-88716557D01*
X90834622Y-88697428D01*
X90850775Y-88678804D01*
X90868041Y-88660685D01*
X90886323Y-88643419D01*
X90905094Y-88627266D01*
X90924353Y-88612228D01*
X90944102Y-88598303D01*
X90964339Y-88585492D01*
X90985065Y-88573795D01*
X91006280Y-88563213D01*
X91027984Y-88553744D01*
X91050176Y-88545389D01*
X91072858Y-88538148D01*
X91096028Y-88532021D01*
X91119688Y-88527008D01*
X91143836Y-88523109D01*
X91168473Y-88520324D01*
X91193599Y-88518653D01*
X91219214Y-88518096D01*
X91244700Y-88518651D01*
G37*
G36*
X90118521Y-88518643D02*
G01*
X90141296Y-88520282D01*
X90163582Y-88523013D01*
X90185379Y-88526837D01*
X90206688Y-88531754D01*
X90227508Y-88537763D01*
X90247838Y-88544865D01*
X90267680Y-88553060D01*
X90287033Y-88562347D01*
X90305897Y-88572727D01*
X90324273Y-88584199D01*
X90342159Y-88596764D01*
X90359556Y-88610422D01*
X90376465Y-88625172D01*
X90392885Y-88641015D01*
X90408816Y-88657950D01*
X90423971Y-88675704D01*
X90438148Y-88694003D01*
X90451347Y-88712847D01*
X90463569Y-88732236D01*
X90474813Y-88752170D01*
X90485079Y-88772649D01*
X90494368Y-88793673D01*
X90502678Y-88815242D01*
X90510011Y-88837356D01*
X90516367Y-88860015D01*
X90521744Y-88883219D01*
X90526144Y-88906968D01*
X90529566Y-88931262D01*
X90532010Y-88956100D01*
X90533477Y-88981484D01*
X90533966Y-89007413D01*
X90533477Y-89033766D01*
X90532010Y-89059569D01*
X90529566Y-89084822D01*
X90526144Y-89109524D01*
X90521744Y-89133677D01*
X90516367Y-89157279D01*
X90510011Y-89180330D01*
X90502678Y-89202831D01*
X90494368Y-89224782D01*
X90485079Y-89246183D01*
X90474813Y-89267033D01*
X90463569Y-89287333D01*
X90451347Y-89307083D01*
X90438148Y-89326282D01*
X90423971Y-89344931D01*
X90408816Y-89363030D01*
X90392742Y-89379966D01*
X90376150Y-89395808D01*
X90359040Y-89410559D01*
X90341411Y-89424216D01*
X90323264Y-89436781D01*
X90304599Y-89448253D01*
X90285416Y-89458633D01*
X90265714Y-89467920D01*
X90245494Y-89476115D01*
X90224756Y-89483217D01*
X90203500Y-89489226D01*
X90181725Y-89494143D01*
X90159432Y-89497967D01*
X90136621Y-89500698D01*
X90113292Y-89502337D01*
X90089444Y-89502884D01*
X90070374Y-89502401D01*
X90051462Y-89500955D01*
X90032707Y-89498544D01*
X90014110Y-89495169D01*
X89995671Y-89490829D01*
X89977389Y-89485525D01*
X89959265Y-89479256D01*
X89941298Y-89472024D01*
X89923489Y-89463826D01*
X89905838Y-89454665D01*
X89888344Y-89444539D01*
X89871008Y-89433448D01*
X89853830Y-89421394D01*
X89836809Y-89408375D01*
X89819946Y-89394391D01*
X89803240Y-89379443D01*
X89803240Y-89481000D01*
X89592947Y-89481000D01*
X89592947Y-89011174D01*
X89789904Y-89011174D01*
X89790192Y-89027323D01*
X89791053Y-89043113D01*
X89792489Y-89058546D01*
X89794499Y-89073621D01*
X89797084Y-89088338D01*
X89800243Y-89102696D01*
X89803976Y-89116697D01*
X89808284Y-89130340D01*
X89813166Y-89143625D01*
X89818622Y-89156552D01*
X89824653Y-89169121D01*
X89831258Y-89181332D01*
X89838437Y-89193185D01*
X89846191Y-89204680D01*
X89854519Y-89215817D01*
X89863422Y-89226596D01*
X89877612Y-89241262D01*
X89892613Y-89254486D01*
X89908426Y-89266267D01*
X89925051Y-89276605D01*
X89942487Y-89285501D01*
X89960734Y-89292954D01*
X89979793Y-89298965D01*
X89999663Y-89303533D01*
X90013361Y-89305777D01*
X90027419Y-89307379D01*
X90041838Y-89308341D01*
X90056618Y-89308662D01*
X90063569Y-89308579D01*
X90077246Y-89307916D01*
X90097202Y-89305680D01*
X90116484Y-89301954D01*
X90135093Y-89296737D01*
X90153029Y-89290029D01*
X90170291Y-89281830D01*
X90186881Y-89272141D01*
X90202797Y-89260961D01*
X90218040Y-89248291D01*
X90232610Y-89234130D01*
X90241949Y-89223861D01*
X90250645Y-89213194D01*
X90258779Y-89202137D01*
X90266352Y-89190690D01*
X90273365Y-89178853D01*
X90279816Y-89166626D01*
X90285707Y-89154009D01*
X90291036Y-89141002D01*
X90295805Y-89127605D01*
X90300012Y-89113817D01*
X90303659Y-89099640D01*
X90306744Y-89085073D01*
X90309269Y-89070116D01*
X90311232Y-89054769D01*
X90312635Y-89039031D01*
X90313476Y-89022904D01*
X90313757Y-89006387D01*
X90313468Y-88990901D01*
X90312603Y-88975730D01*
X90311160Y-88960874D01*
X90309140Y-88946334D01*
X90306544Y-88932108D01*
X90303370Y-88918198D01*
X90299619Y-88904604D01*
X90295292Y-88891324D01*
X90290387Y-88878360D01*
X90284905Y-88865711D01*
X90278847Y-88853377D01*
X90272211Y-88841358D01*
X90264998Y-88829655D01*
X90257208Y-88818266D01*
X90248841Y-88807193D01*
X90239898Y-88796436D01*
X90235224Y-88791260D01*
X90225660Y-88781403D01*
X90210774Y-88767849D01*
X90195238Y-88755774D01*
X90179054Y-88745177D01*
X90162220Y-88736059D01*
X90144737Y-88728419D01*
X90126605Y-88722258D01*
X90107823Y-88717576D01*
X90088393Y-88714372D01*
X90068313Y-88712647D01*
X90054566Y-88712318D01*
X90040035Y-88712643D01*
X90025848Y-88713617D01*
X90012007Y-88715240D01*
X89991890Y-88718891D01*
X89972549Y-88724003D01*
X89953983Y-88730576D01*
X89936192Y-88738609D01*
X89919177Y-88748103D01*
X89902937Y-88759057D01*
X89887473Y-88771472D01*
X89872784Y-88785348D01*
X89863422Y-88795410D01*
X89854519Y-88806190D01*
X89846191Y-88817331D01*
X89838437Y-88828833D01*
X89831258Y-88840696D01*
X89824653Y-88852919D01*
X89818622Y-88865502D01*
X89813166Y-88878446D01*
X89808284Y-88891751D01*
X89803976Y-88905417D01*
X89800243Y-88919443D01*
X89797084Y-88933830D01*
X89794499Y-88948578D01*
X89792489Y-88963686D01*
X89791053Y-88979154D01*
X89790192Y-88994984D01*
X89789904Y-89011174D01*
X89592947Y-89011174D01*
X89592947Y-88539981D01*
X89803240Y-88539981D01*
X89803240Y-88650769D01*
X89819528Y-88634703D01*
X89836077Y-88619674D01*
X89852888Y-88605681D01*
X89869961Y-88592725D01*
X89887296Y-88580805D01*
X89904893Y-88569922D01*
X89922751Y-88560075D01*
X89940871Y-88551265D01*
X89959253Y-88543491D01*
X89977897Y-88536754D01*
X89996802Y-88531053D01*
X90015970Y-88526389D01*
X90035399Y-88522761D01*
X90055090Y-88520170D01*
X90075042Y-88518615D01*
X90095257Y-88518096D01*
X90118521Y-88518643D01*
G37*
G36*
X89315292Y-88539981D02*
G01*
X89095082Y-88539981D01*
X89095082Y-88629569D01*
X89084047Y-88617998D01*
X89073252Y-88607137D01*
X89062697Y-88596985D01*
X89052383Y-88587542D01*
X89039004Y-88576055D01*
X89026053Y-88565829D01*
X89013530Y-88556864D01*
X89001434Y-88549160D01*
X88989765Y-88542716D01*
X88974700Y-88535624D01*
X88958783Y-88529733D01*
X88945437Y-88525886D01*
X88931546Y-88522809D01*
X88917109Y-88520501D01*
X88902128Y-88518962D01*
X88886602Y-88518193D01*
X88878634Y-88518096D01*
X88862604Y-88518568D01*
X88846441Y-88519984D01*
X88830146Y-88522343D01*
X88813719Y-88525646D01*
X88797160Y-88529892D01*
X88780468Y-88535083D01*
X88763644Y-88541217D01*
X88746688Y-88548294D01*
X88729600Y-88556315D01*
X88712379Y-88565280D01*
X88700826Y-88571781D01*
X88799304Y-88780706D01*
X88810757Y-88772885D01*
X88825952Y-88763652D01*
X88841061Y-88755788D01*
X88856085Y-88749291D01*
X88871024Y-88744162D01*
X88885877Y-88740400D01*
X88900644Y-88738007D01*
X88915326Y-88736981D01*
X88918983Y-88736938D01*
X88940308Y-88737971D01*
X88960257Y-88741068D01*
X88978830Y-88746231D01*
X88996027Y-88753458D01*
X89011848Y-88762751D01*
X89026294Y-88774108D01*
X89039364Y-88787531D01*
X89051058Y-88803018D01*
X89061376Y-88820570D01*
X89070319Y-88840188D01*
X89077885Y-88861870D01*
X89084076Y-88885618D01*
X89088891Y-88911430D01*
X89090783Y-88925111D01*
X89092331Y-88939308D01*
X89093535Y-88954021D01*
X89094395Y-88969250D01*
X89094910Y-88984996D01*
X89095082Y-89001258D01*
X89095082Y-89481000D01*
X89315292Y-89481000D01*
X89315292Y-88539981D01*
G37*
G36*
X87917441Y-88652137D02*
G01*
X87933518Y-88635906D01*
X87949861Y-88620721D01*
X87966472Y-88606584D01*
X87983350Y-88593494D01*
X88000495Y-88581452D01*
X88017907Y-88570456D01*
X88035587Y-88560508D01*
X88053533Y-88551607D01*
X88071747Y-88543753D01*
X88090228Y-88536946D01*
X88108976Y-88531186D01*
X88127991Y-88526474D01*
X88147273Y-88522809D01*
X88166822Y-88520191D01*
X88186639Y-88518620D01*
X88206722Y-88518096D01*
X88229769Y-88518647D01*
X88252318Y-88520298D01*
X88274370Y-88523049D01*
X88295926Y-88526901D01*
X88316985Y-88531854D01*
X88337546Y-88537908D01*
X88357611Y-88545062D01*
X88377179Y-88553316D01*
X88396251Y-88562672D01*
X88414825Y-88573127D01*
X88432902Y-88584684D01*
X88450483Y-88597341D01*
X88467566Y-88611099D01*
X88484153Y-88625957D01*
X88500243Y-88641916D01*
X88515836Y-88658976D01*
X88530825Y-88676726D01*
X88544848Y-88695013D01*
X88557903Y-88713837D01*
X88569991Y-88733198D01*
X88581112Y-88753096D01*
X88591266Y-88773531D01*
X88600453Y-88794503D01*
X88608673Y-88816012D01*
X88615926Y-88838057D01*
X88622212Y-88860640D01*
X88627530Y-88883760D01*
X88631882Y-88907417D01*
X88635267Y-88931610D01*
X88637684Y-88956341D01*
X88639135Y-88981608D01*
X88639618Y-89007413D01*
X88639135Y-89033766D01*
X88637684Y-89059569D01*
X88635267Y-89084822D01*
X88631882Y-89109524D01*
X88627530Y-89133677D01*
X88622212Y-89157279D01*
X88615926Y-89180330D01*
X88608673Y-89202831D01*
X88600453Y-89224782D01*
X88591266Y-89246183D01*
X88581112Y-89267033D01*
X88569991Y-89287333D01*
X88557903Y-89307083D01*
X88544848Y-89326282D01*
X88530825Y-89344931D01*
X88515836Y-89363030D01*
X88499984Y-89379966D01*
X88483630Y-89395808D01*
X88466773Y-89410559D01*
X88449414Y-89424216D01*
X88431553Y-89436781D01*
X88413190Y-89448253D01*
X88394325Y-89458633D01*
X88374957Y-89467920D01*
X88355087Y-89476115D01*
X88334715Y-89483217D01*
X88313840Y-89489226D01*
X88292464Y-89494143D01*
X88270585Y-89497967D01*
X88248204Y-89500698D01*
X88225321Y-89502337D01*
X88201935Y-89502884D01*
X88182191Y-89502401D01*
X88162708Y-89500955D01*
X88143488Y-89498544D01*
X88124529Y-89495169D01*
X88105831Y-89490829D01*
X88087396Y-89485525D01*
X88069222Y-89479256D01*
X88051311Y-89472024D01*
X88033661Y-89463826D01*
X88016272Y-89454665D01*
X87999146Y-89444539D01*
X87982282Y-89433448D01*
X87965679Y-89421394D01*
X87949338Y-89408375D01*
X87933259Y-89394391D01*
X87917441Y-89379443D01*
X87917441Y-89481000D01*
X87697232Y-89481000D01*
X87697232Y-89011174D01*
X87904105Y-89011174D01*
X87904387Y-89027323D01*
X87905233Y-89043113D01*
X87906642Y-89058546D01*
X87908615Y-89073621D01*
X87911151Y-89088338D01*
X87914251Y-89102696D01*
X87917915Y-89116697D01*
X87922143Y-89130340D01*
X87926934Y-89143625D01*
X87932289Y-89156552D01*
X87938207Y-89169121D01*
X87944689Y-89181332D01*
X87951735Y-89193185D01*
X87959345Y-89204680D01*
X87967518Y-89215817D01*
X87976255Y-89226596D01*
X87985493Y-89236534D01*
X88000010Y-89250238D01*
X88015321Y-89262500D01*
X88031426Y-89273319D01*
X88048324Y-89282696D01*
X88066015Y-89290630D01*
X88084500Y-89297121D01*
X88103778Y-89302170D01*
X88123850Y-89305777D01*
X88137672Y-89307379D01*
X88151846Y-89308341D01*
X88166373Y-89308662D01*
X88186687Y-89307916D01*
X88206340Y-89305680D01*
X88225332Y-89301954D01*
X88243663Y-89296737D01*
X88261332Y-89290029D01*
X88278340Y-89281830D01*
X88294687Y-89272141D01*
X88310373Y-89260961D01*
X88325398Y-89248291D01*
X88339761Y-89234130D01*
X88348969Y-89223861D01*
X88361558Y-89207714D01*
X88372908Y-89190690D01*
X88379787Y-89178853D01*
X88386115Y-89166626D01*
X88391894Y-89154009D01*
X88397121Y-89141002D01*
X88401799Y-89127605D01*
X88405926Y-89113817D01*
X88409503Y-89099640D01*
X88412530Y-89085073D01*
X88415007Y-89070116D01*
X88416933Y-89054769D01*
X88418308Y-89039031D01*
X88419134Y-89022904D01*
X88419409Y-89006387D01*
X88419338Y-88998604D01*
X88418772Y-88983276D01*
X88417639Y-88968262D01*
X88415940Y-88953564D01*
X88413675Y-88939182D01*
X88410843Y-88925114D01*
X88407445Y-88911362D01*
X88403481Y-88897924D01*
X88398950Y-88884802D01*
X88393853Y-88871996D01*
X88388190Y-88859504D01*
X88378633Y-88841358D01*
X88371553Y-88829655D01*
X88363908Y-88818266D01*
X88355696Y-88807193D01*
X88346918Y-88796436D01*
X88337629Y-88786250D01*
X88323166Y-88772203D01*
X88308065Y-88759634D01*
X88292327Y-88748545D01*
X88275952Y-88738934D01*
X88258940Y-88730801D01*
X88241290Y-88724147D01*
X88223004Y-88718972D01*
X88204080Y-88715276D01*
X88184520Y-88713058D01*
X88164322Y-88712318D01*
X88157140Y-88712400D01*
X88143030Y-88713049D01*
X88129256Y-88714347D01*
X88109227Y-88717512D01*
X88089955Y-88722137D01*
X88071440Y-88728223D01*
X88053682Y-88735769D01*
X88036682Y-88744776D01*
X88020439Y-88755244D01*
X88004954Y-88767172D01*
X87990226Y-88780560D01*
X87976255Y-88795410D01*
X87967518Y-88806190D01*
X87959345Y-88817331D01*
X87951735Y-88828833D01*
X87944689Y-88840696D01*
X87938207Y-88852919D01*
X87932289Y-88865502D01*
X87926934Y-88878446D01*
X87922143Y-88891751D01*
X87917915Y-88905417D01*
X87914251Y-88919443D01*
X87911151Y-88933830D01*
X87908615Y-88948578D01*
X87906642Y-88963686D01*
X87905233Y-88979154D01*
X87904387Y-88994984D01*
X87904105Y-89011174D01*
X87697232Y-89011174D01*
X87697232Y-87861572D01*
X87917441Y-87861572D01*
X87917441Y-88652137D01*
G37*
G36*
X86198851Y-88408676D02*
G01*
X86183558Y-88409042D01*
X86168541Y-88410140D01*
X86153799Y-88411970D01*
X86139332Y-88414531D01*
X86125140Y-88417825D01*
X86111223Y-88421851D01*
X86097582Y-88426609D01*
X86084215Y-88432099D01*
X86071124Y-88438320D01*
X86058308Y-88445274D01*
X86045767Y-88452960D01*
X86033501Y-88461377D01*
X86021511Y-88470527D01*
X86009795Y-88480408D01*
X85998355Y-88491022D01*
X85987190Y-88502367D01*
X85976300Y-88514139D01*
X85966113Y-88526202D01*
X85956628Y-88538555D01*
X85947845Y-88551201D01*
X85939766Y-88564137D01*
X85932389Y-88577364D01*
X85925714Y-88590883D01*
X85919742Y-88604693D01*
X85914473Y-88618794D01*
X85909906Y-88633186D01*
X85906042Y-88647869D01*
X85902880Y-88662844D01*
X85900421Y-88678110D01*
X85898665Y-88693667D01*
X85897611Y-88709515D01*
X85897260Y-88725654D01*
X85897611Y-88742079D01*
X85898665Y-88758186D01*
X85900421Y-88773976D01*
X85902880Y-88789447D01*
X85906042Y-88804601D01*
X85909906Y-88819436D01*
X85914473Y-88833954D01*
X85919742Y-88848154D01*
X85925714Y-88862036D01*
X85932389Y-88875600D01*
X85939766Y-88888846D01*
X85947845Y-88901775D01*
X85956628Y-88914385D01*
X85966113Y-88926677D01*
X85976300Y-88938652D01*
X85987190Y-88950309D01*
X85998534Y-88961571D01*
X86010169Y-88972107D01*
X86022096Y-88981917D01*
X86034314Y-88991000D01*
X86046822Y-88999356D01*
X86059622Y-89006985D01*
X86072714Y-89013888D01*
X86086096Y-89020064D01*
X86099770Y-89025514D01*
X86113734Y-89030237D01*
X86127990Y-89034234D01*
X86142538Y-89037503D01*
X86157376Y-89040047D01*
X86172505Y-89041863D01*
X86187926Y-89042953D01*
X86203638Y-89043316D01*
X86219151Y-89042953D01*
X86234402Y-89041863D01*
X86249391Y-89040047D01*
X86264119Y-89037503D01*
X86278584Y-89034234D01*
X86292788Y-89030237D01*
X86306730Y-89025514D01*
X86320410Y-89020064D01*
X86333829Y-89013888D01*
X86346986Y-89006985D01*
X86359880Y-88999356D01*
X86372514Y-88991000D01*
X86384885Y-88981917D01*
X86396994Y-88972107D01*
X86408842Y-88961571D01*
X86420428Y-88950309D01*
X86431276Y-88938414D01*
X86441425Y-88926239D01*
X86450874Y-88913784D01*
X86459623Y-88901048D01*
X86467672Y-88888031D01*
X86475021Y-88874735D01*
X86481670Y-88861157D01*
X86487619Y-88847299D01*
X86492868Y-88833161D01*
X86497418Y-88818742D01*
X86501267Y-88804042D01*
X86504417Y-88789063D01*
X86506867Y-88773802D01*
X86508616Y-88758261D01*
X86509666Y-88742440D01*
X86510016Y-88726338D01*
X86509662Y-88709911D01*
X86508600Y-88693800D01*
X86506830Y-88678004D01*
X86504353Y-88662523D01*
X86501167Y-88647358D01*
X86497274Y-88632507D01*
X86492672Y-88617972D01*
X86487363Y-88603752D01*
X86481345Y-88589848D01*
X86474620Y-88576258D01*
X86467187Y-88562984D01*
X86459046Y-88550025D01*
X86450197Y-88537381D01*
X86440640Y-88525053D01*
X86430375Y-88513040D01*
X86419402Y-88501341D01*
X86407801Y-88490120D01*
X86395910Y-88479623D01*
X86383727Y-88469850D01*
X86371253Y-88460800D01*
X86358487Y-88452475D01*
X86345431Y-88444873D01*
X86332083Y-88437996D01*
X86318444Y-88431842D01*
X86304514Y-88426413D01*
X86290293Y-88421707D01*
X86275781Y-88417725D01*
X86260977Y-88414467D01*
X86245882Y-88411933D01*
X86230496Y-88410124D01*
X86214819Y-88409038D01*
X86198851Y-88408676D01*
G37*
G36*
X84368183Y-88518686D02*
G01*
X84392270Y-88520453D01*
X84415745Y-88523398D01*
X84438608Y-88527521D01*
X84460859Y-88532823D01*
X84482499Y-88539302D01*
X84503527Y-88546960D01*
X84523943Y-88555795D01*
X84543748Y-88565809D01*
X84562940Y-88577001D01*
X84581521Y-88589371D01*
X84599491Y-88602919D01*
X84616848Y-88617645D01*
X84633594Y-88633549D01*
X84649728Y-88650632D01*
X84665250Y-88668892D01*
X84678956Y-88686911D01*
X84691777Y-88705405D01*
X84703714Y-88724374D01*
X84714767Y-88743820D01*
X84724936Y-88763740D01*
X84734220Y-88784136D01*
X84742621Y-88805008D01*
X84750137Y-88826355D01*
X84756768Y-88848178D01*
X84762516Y-88870476D01*
X84767379Y-88893250D01*
X84771358Y-88916499D01*
X84774453Y-88940224D01*
X84776664Y-88964424D01*
X84777990Y-88989100D01*
X84778432Y-89014251D01*
X84777957Y-89040096D01*
X84776530Y-89065398D01*
X84774152Y-89090158D01*
X84770824Y-89114376D01*
X84766544Y-89138051D01*
X84761314Y-89161184D01*
X84755132Y-89183775D01*
X84747999Y-89205823D01*
X84739916Y-89227329D01*
X84730881Y-89248293D01*
X84720895Y-89268715D01*
X84709959Y-89288594D01*
X84698071Y-89307931D01*
X84685232Y-89326726D01*
X84671442Y-89344978D01*
X84656701Y-89362688D01*
X84641345Y-89379334D01*
X84625451Y-89394905D01*
X84609021Y-89409403D01*
X84592053Y-89422827D01*
X84574549Y-89435177D01*
X84556508Y-89446453D01*
X84537929Y-89456655D01*
X84518814Y-89465783D01*
X84499162Y-89473837D01*
X84478973Y-89480818D01*
X84458247Y-89486724D01*
X84436984Y-89491557D01*
X84415184Y-89495316D01*
X84392847Y-89498000D01*
X84369973Y-89499611D01*
X84346562Y-89500148D01*
X84325899Y-89499631D01*
X84305540Y-89498080D01*
X84285485Y-89495496D01*
X84265736Y-89491877D01*
X84246291Y-89487225D01*
X84227150Y-89481539D01*
X84208314Y-89474819D01*
X84189782Y-89467065D01*
X84171555Y-89458278D01*
X84153633Y-89448456D01*
X84136015Y-89437601D01*
X84118702Y-89425712D01*
X84101693Y-89412789D01*
X84084988Y-89398832D01*
X84068589Y-89383842D01*
X84052493Y-89367817D01*
X84052493Y-89498780D01*
X84052723Y-89516704D01*
X84053410Y-89534059D01*
X84054555Y-89550845D01*
X84056159Y-89567062D01*
X84058220Y-89582709D01*
X84060740Y-89597788D01*
X84063718Y-89612298D01*
X84067154Y-89626239D01*
X84075401Y-89652413D01*
X84085480Y-89676311D01*
X84097392Y-89697934D01*
X84111136Y-89717280D01*
X84126713Y-89734350D01*
X84144123Y-89749145D01*
X84163365Y-89761663D01*
X84184440Y-89771905D01*
X84207347Y-89779871D01*
X84232087Y-89785561D01*
X84258659Y-89788975D01*
X84272633Y-89789829D01*
X84287064Y-89790113D01*
X84294955Y-89790028D01*
X84310380Y-89789344D01*
X84325329Y-89787976D01*
X84339803Y-89785924D01*
X84353801Y-89783189D01*
X84367323Y-89779770D01*
X84386716Y-89773358D01*
X84405038Y-89765408D01*
X84422291Y-89755919D01*
X84438474Y-89744892D01*
X84453586Y-89732325D01*
X84467629Y-89718220D01*
X84480602Y-89702577D01*
X84484087Y-89697834D01*
X84492250Y-89684866D01*
X84499628Y-89670311D01*
X84504966Y-89657526D01*
X84509801Y-89643726D01*
X84514134Y-89628910D01*
X84517965Y-89613079D01*
X84521293Y-89596233D01*
X84737399Y-89596233D01*
X84734597Y-89618873D01*
X84730977Y-89640889D01*
X84726540Y-89662278D01*
X84721285Y-89683043D01*
X84715213Y-89703183D01*
X84708324Y-89722698D01*
X84700617Y-89741587D01*
X84692092Y-89759852D01*
X84682750Y-89777491D01*
X84672591Y-89794505D01*
X84661614Y-89810894D01*
X84649820Y-89826658D01*
X84637208Y-89841797D01*
X84623779Y-89856311D01*
X84609532Y-89870199D01*
X84594468Y-89883463D01*
X84579209Y-89895678D01*
X84563437Y-89907105D01*
X84547152Y-89917744D01*
X84530355Y-89927594D01*
X84513044Y-89936657D01*
X84495220Y-89944932D01*
X84476884Y-89952419D01*
X84458034Y-89959117D01*
X84438672Y-89965028D01*
X84418797Y-89970150D01*
X84398409Y-89974484D01*
X84377507Y-89978031D01*
X84356093Y-89980789D01*
X84334167Y-89982759D01*
X84311727Y-89983941D01*
X84288774Y-89984335D01*
X84261658Y-89983767D01*
X84235276Y-89982064D01*
X84209630Y-89979226D01*
X84184717Y-89975252D01*
X84160540Y-89970143D01*
X84137097Y-89963899D01*
X84114389Y-89956519D01*
X84092415Y-89948004D01*
X84071176Y-89938354D01*
X84050672Y-89927568D01*
X84030902Y-89915647D01*
X84011867Y-89902590D01*
X83993566Y-89888398D01*
X83976000Y-89873071D01*
X83959169Y-89856609D01*
X83943073Y-89839011D01*
X83934910Y-89829488D01*
X83923313Y-89814759D01*
X83912490Y-89799495D01*
X83902444Y-89783696D01*
X83893172Y-89767362D01*
X83884676Y-89750493D01*
X83876955Y-89733089D01*
X83870010Y-89715151D01*
X83863840Y-89696677D01*
X83858446Y-89677668D01*
X83853826Y-89658124D01*
X83851009Y-89643458D01*
X83848457Y-89627927D01*
X83846532Y-89614323D01*
X83844790Y-89600117D01*
X83843233Y-89585311D01*
X83841858Y-89569904D01*
X83841064Y-89560341D01*
X83839914Y-89543788D01*
X83839150Y-89529993D01*
X83838525Y-89515706D01*
X83838038Y-89500928D01*
X83837691Y-89485658D01*
X83837483Y-89469897D01*
X83837413Y-89453644D01*
X83837413Y-89010148D01*
X84043945Y-89010148D01*
X84044200Y-89025742D01*
X84044965Y-89040982D01*
X84046241Y-89055865D01*
X84048027Y-89070394D01*
X84050323Y-89084567D01*
X84053129Y-89098385D01*
X84056446Y-89111847D01*
X84062377Y-89131375D01*
X84069457Y-89150103D01*
X84077684Y-89168032D01*
X84087060Y-89185161D01*
X84097584Y-89201491D01*
X84109256Y-89217022D01*
X84118386Y-89227788D01*
X84127913Y-89237859D01*
X84142943Y-89251663D01*
X84158864Y-89263905D01*
X84175673Y-89274584D01*
X84193373Y-89283700D01*
X84211962Y-89291254D01*
X84231440Y-89297244D01*
X84244920Y-89300370D01*
X84258795Y-89302801D01*
X84273066Y-89304537D01*
X84287732Y-89305579D01*
X84302794Y-89305926D01*
X84310393Y-89305840D01*
X84325280Y-89305154D01*
X84339754Y-89303781D01*
X84353814Y-89301721D01*
X84367459Y-89298975D01*
X84387151Y-89293568D01*
X84405911Y-89286617D01*
X84423740Y-89278121D01*
X84440637Y-89268080D01*
X84456602Y-89256495D01*
X84471636Y-89243364D01*
X84485738Y-89228689D01*
X84494622Y-89218048D01*
X84505988Y-89202517D01*
X84516236Y-89186187D01*
X84525366Y-89169058D01*
X84533379Y-89151129D01*
X84540273Y-89132401D01*
X84546049Y-89112873D01*
X84549279Y-89099411D01*
X84552012Y-89085593D01*
X84554248Y-89071420D01*
X84555987Y-89056891D01*
X84557229Y-89042007D01*
X84557974Y-89026768D01*
X84558223Y-89011174D01*
X84557974Y-88995331D01*
X84557229Y-88979860D01*
X84555987Y-88964760D01*
X84554248Y-88950031D01*
X84552012Y-88935673D01*
X84549279Y-88921687D01*
X84546049Y-88908072D01*
X84540273Y-88888346D01*
X84533379Y-88869456D01*
X84525366Y-88851401D01*
X84516236Y-88834181D01*
X84505988Y-88817797D01*
X84494622Y-88802249D01*
X84485618Y-88791359D01*
X84476216Y-88781171D01*
X84461367Y-88767207D01*
X84445622Y-88754824D01*
X84428981Y-88744022D01*
X84411445Y-88734801D01*
X84393013Y-88727160D01*
X84373686Y-88721101D01*
X84360304Y-88717939D01*
X84346523Y-88715480D01*
X84332345Y-88713724D01*
X84317768Y-88712670D01*
X84302794Y-88712318D01*
X84288719Y-88712640D01*
X84268204Y-88714330D01*
X84248404Y-88717469D01*
X84229319Y-88722056D01*
X84210949Y-88728092D01*
X84193295Y-88735576D01*
X84176356Y-88744509D01*
X84160132Y-88754890D01*
X84144624Y-88766720D01*
X84129830Y-88779999D01*
X84115752Y-88794726D01*
X84111335Y-88799802D01*
X84098923Y-88815670D01*
X84087773Y-88832500D01*
X84077885Y-88850291D01*
X84071995Y-88862687D01*
X84066665Y-88875509D01*
X84061897Y-88888759D01*
X84057689Y-88902437D01*
X84054043Y-88916542D01*
X84050957Y-88931075D01*
X84048433Y-88946034D01*
X84046469Y-88961422D01*
X84045067Y-88977236D01*
X84044225Y-88993479D01*
X84043945Y-89010148D01*
X83837413Y-89010148D01*
X83837413Y-88544084D01*
X84052493Y-88544084D01*
X84052493Y-88649743D01*
X84067214Y-88633802D01*
X84082397Y-88618889D01*
X84098042Y-88605004D01*
X84114150Y-88592148D01*
X84130719Y-88580320D01*
X84147750Y-88569521D01*
X84165244Y-88559750D01*
X84183200Y-88551008D01*
X84201618Y-88543295D01*
X84220498Y-88536609D01*
X84239841Y-88530953D01*
X84259645Y-88526324D01*
X84279912Y-88522725D01*
X84300640Y-88520153D01*
X84321831Y-88518611D01*
X84343484Y-88518096D01*
X84368183Y-88518686D01*
G37*
G36*
X83342284Y-88539981D02*
G01*
X83342284Y-89481000D01*
X83562493Y-89481000D01*
X83562493Y-88539981D01*
X83342284Y-88539981D01*
G37*
G36*
X83584378Y-88155640D02*
G01*
X83583726Y-88141524D01*
X83581770Y-88127900D01*
X83577493Y-88111561D01*
X83571178Y-88095990D01*
X83562827Y-88081187D01*
X83554679Y-88069898D01*
X83545228Y-88059100D01*
X83542661Y-88056478D01*
X83531895Y-88046700D01*
X83520627Y-88038226D01*
X83508857Y-88031056D01*
X83493438Y-88023927D01*
X83477234Y-88018835D01*
X83463706Y-88016227D01*
X83449676Y-88014924D01*
X83442473Y-88014761D01*
X83427956Y-88015413D01*
X83413985Y-88017368D01*
X83400558Y-88020627D01*
X83384541Y-88026534D01*
X83372341Y-88032727D01*
X83360686Y-88040223D01*
X83349575Y-88049022D01*
X83341600Y-88056478D01*
X83331823Y-88066944D01*
X83323349Y-88077998D01*
X83314590Y-88092643D01*
X83307868Y-88108205D01*
X83303957Y-88121317D01*
X83301350Y-88135016D01*
X83300047Y-88149302D01*
X83299884Y-88156666D01*
X83300535Y-88171257D01*
X83302491Y-88185282D01*
X83305750Y-88198741D01*
X83311657Y-88214767D01*
X83319601Y-88229909D01*
X83327423Y-88241386D01*
X83336549Y-88252296D01*
X83341600Y-88257538D01*
X83352061Y-88267316D01*
X83363100Y-88275789D01*
X83377709Y-88284548D01*
X83393220Y-88291270D01*
X83409632Y-88295955D01*
X83423411Y-88298236D01*
X83437768Y-88299214D01*
X83441447Y-88299255D01*
X83455968Y-88298608D01*
X83469956Y-88296669D01*
X83483409Y-88293437D01*
X83496328Y-88288911D01*
X83508713Y-88283093D01*
X83520563Y-88275982D01*
X83531879Y-88267577D01*
X83542661Y-88257880D01*
X83552438Y-88247157D01*
X83560912Y-88235846D01*
X83568082Y-88223948D01*
X83573948Y-88211462D01*
X83578511Y-88198388D01*
X83581770Y-88184726D01*
X83583726Y-88170477D01*
X83584378Y-88155640D01*
G37*
G36*
X82855362Y-88736938D02*
G01*
X82855362Y-89481000D01*
X83075571Y-89481000D01*
X83075571Y-88736938D01*
X83163108Y-88736938D01*
X83163108Y-88542716D01*
X83075571Y-88542716D01*
X83075571Y-88189834D01*
X82855362Y-88189834D01*
X82855362Y-88542716D01*
X82681656Y-88542716D01*
X82681656Y-88736938D01*
X82855362Y-88736938D01*
G37*
G36*
X82501112Y-87861572D02*
G01*
X82280902Y-87861572D01*
X82280902Y-88621362D01*
X82266363Y-88608858D01*
X82251640Y-88597159D01*
X82236732Y-88586268D01*
X82221640Y-88576184D01*
X82206363Y-88566906D01*
X82190903Y-88558435D01*
X82175258Y-88550770D01*
X82159428Y-88543913D01*
X82143414Y-88537862D01*
X82127216Y-88532618D01*
X82110834Y-88528181D01*
X82094267Y-88524551D01*
X82077516Y-88521727D01*
X82060581Y-88519710D01*
X82043461Y-88518500D01*
X82026157Y-88518096D01*
X82006532Y-88518499D01*
X81987406Y-88519705D01*
X81968779Y-88521715D01*
X81950652Y-88524529D01*
X81933025Y-88528148D01*
X81915897Y-88532570D01*
X81899269Y-88537797D01*
X81883141Y-88543827D01*
X81867512Y-88550662D01*
X81852382Y-88558301D01*
X81837752Y-88566744D01*
X81823622Y-88575991D01*
X81809991Y-88586042D01*
X81796860Y-88596898D01*
X81784228Y-88608557D01*
X81772096Y-88621020D01*
X81762324Y-88632636D01*
X81753182Y-88645084D01*
X81744671Y-88658367D01*
X81736790Y-88672482D01*
X81729540Y-88687432D01*
X81722920Y-88703214D01*
X81716931Y-88719830D01*
X81711572Y-88737280D01*
X81706844Y-88755563D01*
X81702746Y-88774680D01*
X81699279Y-88794630D01*
X81696441Y-88815413D01*
X81694235Y-88837030D01*
X81692659Y-88859481D01*
X81691713Y-88882765D01*
X81691398Y-88906882D01*
X81691398Y-89481000D01*
X81911607Y-89481000D01*
X81911607Y-88926373D01*
X81911762Y-88912511D01*
X81912576Y-88892630D01*
X81914086Y-88873842D01*
X81916294Y-88856149D01*
X81919199Y-88839549D01*
X81922802Y-88824044D01*
X81927101Y-88809632D01*
X81932098Y-88796315D01*
X81939845Y-88780260D01*
X81948832Y-88766149D01*
X81951272Y-88762926D01*
X81961856Y-88751064D01*
X81973947Y-88740785D01*
X81987545Y-88732087D01*
X82002649Y-88724970D01*
X82019260Y-88719435D01*
X82032706Y-88716322D01*
X82047001Y-88714098D01*
X82062143Y-88712763D01*
X82078132Y-88712318D01*
X82091892Y-88712594D01*
X82111561Y-88714038D01*
X82130064Y-88716721D01*
X82147401Y-88720642D01*
X82163572Y-88725801D01*
X82178576Y-88732198D01*
X82192415Y-88739834D01*
X82205087Y-88748708D01*
X82216594Y-88758820D01*
X82226934Y-88770170D01*
X82236108Y-88782758D01*
X82244113Y-88797050D01*
X82251331Y-88813128D01*
X82257762Y-88830991D01*
X82263405Y-88850638D01*
X82266729Y-88864729D01*
X82269704Y-88879613D01*
X82272329Y-88895290D01*
X82274603Y-88911760D01*
X82276528Y-88929024D01*
X82278103Y-88947082D01*
X82279328Y-88965932D01*
X82280202Y-88985577D01*
X82280727Y-89006014D01*
X82280902Y-89027245D01*
X82280902Y-89481000D01*
X82501112Y-89481000D01*
X82501112Y-87861572D01*
G37*
G36*
X81207211Y-88539981D02*
G01*
X81207211Y-89076826D01*
X81207041Y-89091090D01*
X81206532Y-89104900D01*
X81204497Y-89131163D01*
X81201104Y-89155614D01*
X81196354Y-89178254D01*
X81190247Y-89199083D01*
X81182784Y-89218101D01*
X81173963Y-89235308D01*
X81163784Y-89250703D01*
X81152249Y-89264287D01*
X81139357Y-89276060D01*
X81125108Y-89286022D01*
X81109501Y-89294172D01*
X81092538Y-89300511D01*
X81074218Y-89305039D01*
X81054540Y-89307756D01*
X81033505Y-89308662D01*
X81012471Y-89307756D01*
X80992793Y-89305039D01*
X80974473Y-89300511D01*
X80957509Y-89294172D01*
X80941903Y-89286022D01*
X80927654Y-89276060D01*
X80914761Y-89264287D01*
X80903226Y-89250703D01*
X80893048Y-89235308D01*
X80884227Y-89218101D01*
X80876763Y-89199083D01*
X80870656Y-89178254D01*
X80865907Y-89155614D01*
X80862514Y-89131163D01*
X80860478Y-89104900D01*
X80859969Y-89091090D01*
X80859800Y-89076826D01*
X80859800Y-88539981D01*
X80639590Y-88539981D01*
X80639590Y-89081956D01*
X80639697Y-89095898D01*
X80640018Y-89109599D01*
X80640899Y-89129701D01*
X80642262Y-89149262D01*
X80644105Y-89168281D01*
X80646429Y-89186760D01*
X80649234Y-89204698D01*
X80652520Y-89222095D01*
X80656287Y-89238951D01*
X80660534Y-89255266D01*
X80665263Y-89271040D01*
X80666946Y-89276177D01*
X80672228Y-89289707D01*
X80678202Y-89302985D01*
X80684866Y-89316010D01*
X80692223Y-89328783D01*
X80700270Y-89341303D01*
X80709008Y-89353571D01*
X80718438Y-89365586D01*
X80728559Y-89377349D01*
X80739371Y-89388859D01*
X80750875Y-89400117D01*
X80758928Y-89407482D01*
X80772661Y-89419035D01*
X80786849Y-89429842D01*
X80801491Y-89439904D01*
X80816587Y-89449220D01*
X80832137Y-89457792D01*
X80848142Y-89465618D01*
X80864600Y-89472698D01*
X80881513Y-89479033D01*
X80898880Y-89484623D01*
X80916701Y-89489468D01*
X80934976Y-89493567D01*
X80953705Y-89496921D01*
X80972888Y-89499530D01*
X80992526Y-89501393D01*
X81012618Y-89502511D01*
X81033163Y-89502884D01*
X81053668Y-89502511D01*
X81073721Y-89501393D01*
X81093322Y-89499530D01*
X81112472Y-89496921D01*
X81131171Y-89493567D01*
X81149418Y-89489468D01*
X81167213Y-89484623D01*
X81184557Y-89479033D01*
X81201450Y-89472698D01*
X81217891Y-89465618D01*
X81233881Y-89457792D01*
X81249419Y-89449220D01*
X81264506Y-89439904D01*
X81279141Y-89429842D01*
X81293325Y-89419035D01*
X81307057Y-89407482D01*
X81319153Y-89396393D01*
X81330563Y-89385051D01*
X81341288Y-89373456D01*
X81351328Y-89361609D01*
X81360682Y-89349510D01*
X81369352Y-89337158D01*
X81377336Y-89324553D01*
X81384635Y-89311696D01*
X81391249Y-89298587D01*
X81397177Y-89285226D01*
X81400749Y-89276177D01*
X81407000Y-89258856D01*
X81411141Y-89244561D01*
X81414814Y-89229147D01*
X81418018Y-89212616D01*
X81420752Y-89194967D01*
X81423018Y-89176199D01*
X81424816Y-89156314D01*
X81425753Y-89142436D01*
X81426483Y-89128061D01*
X81427003Y-89113190D01*
X81427316Y-89097821D01*
X81427420Y-89081956D01*
X81427420Y-88539981D01*
X81207211Y-88539981D01*
G37*
G36*
X80360567Y-89481000D02*
G01*
X80140358Y-89481000D01*
X80140358Y-89379443D01*
X80124538Y-89394391D01*
X80108451Y-89408375D01*
X80092096Y-89421394D01*
X80075475Y-89433448D01*
X80058586Y-89444539D01*
X80041431Y-89454665D01*
X80024008Y-89463826D01*
X80006318Y-89472024D01*
X79988360Y-89479256D01*
X79970136Y-89485525D01*
X79951645Y-89490829D01*
X79932886Y-89495169D01*
X79913860Y-89498544D01*
X79894567Y-89500955D01*
X79875007Y-89502401D01*
X79855180Y-89502884D01*
X79831840Y-89502337D01*
X79809008Y-89500698D01*
X79786683Y-89497967D01*
X79764865Y-89494143D01*
X79743555Y-89489226D01*
X79722753Y-89483217D01*
X79702459Y-89476115D01*
X79682671Y-89467920D01*
X79663392Y-89458633D01*
X79644620Y-89448253D01*
X79626356Y-89436781D01*
X79608599Y-89424216D01*
X79591349Y-89410559D01*
X79574608Y-89395808D01*
X79558374Y-89379966D01*
X79542647Y-89363030D01*
X79527575Y-89345172D01*
X79513475Y-89326731D01*
X79500348Y-89307708D01*
X79488193Y-89288103D01*
X79477011Y-89267915D01*
X79466800Y-89247145D01*
X79457563Y-89225792D01*
X79449297Y-89203857D01*
X79442004Y-89181340D01*
X79435684Y-89158240D01*
X79430336Y-89134558D01*
X79425960Y-89110294D01*
X79422557Y-89085447D01*
X79420126Y-89060018D01*
X79418667Y-89034006D01*
X79418337Y-89015961D01*
X79638390Y-89015961D01*
X79638677Y-89031527D01*
X79639539Y-89046768D01*
X79640975Y-89061682D01*
X79642985Y-89076271D01*
X79645570Y-89090533D01*
X79648729Y-89104470D01*
X79652462Y-89118081D01*
X79656769Y-89131366D01*
X79661651Y-89144325D01*
X79667108Y-89156958D01*
X79673139Y-89169265D01*
X79679744Y-89181246D01*
X79686923Y-89192902D01*
X79694677Y-89204231D01*
X79703005Y-89215235D01*
X79711907Y-89225912D01*
X79721073Y-89235933D01*
X79735372Y-89249751D01*
X79750333Y-89262115D01*
X79765955Y-89273025D01*
X79782237Y-89282479D01*
X79799181Y-89290479D01*
X79816787Y-89297025D01*
X79835053Y-89302116D01*
X79853981Y-89305753D01*
X79873569Y-89307934D01*
X79893819Y-89308662D01*
X79901042Y-89308581D01*
X79915224Y-89307934D01*
X79929057Y-89306641D01*
X79949150Y-89303490D01*
X79968455Y-89298884D01*
X79986973Y-89292823D01*
X80004703Y-89285308D01*
X80021646Y-89276338D01*
X80037802Y-89265913D01*
X80053170Y-89254034D01*
X80067751Y-89240701D01*
X80081544Y-89225912D01*
X80085920Y-89220794D01*
X80098214Y-89204797D01*
X80109258Y-89187839D01*
X80119051Y-89169920D01*
X80124885Y-89157439D01*
X80130164Y-89144531D01*
X80134887Y-89131195D01*
X80139054Y-89117432D01*
X80142666Y-89103241D01*
X80145722Y-89088623D01*
X80148223Y-89073578D01*
X80150167Y-89058105D01*
X80151557Y-89042205D01*
X80152390Y-89025877D01*
X80152668Y-89009122D01*
X80152597Y-89000943D01*
X80152034Y-88984874D01*
X80150906Y-88969193D01*
X80149215Y-88953899D01*
X80146961Y-88938993D01*
X80144142Y-88924474D01*
X80140760Y-88910342D01*
X80136815Y-88896598D01*
X80132305Y-88883241D01*
X80127232Y-88870271D01*
X80121596Y-88857689D01*
X80115395Y-88845494D01*
X80105038Y-88827928D01*
X80093412Y-88811233D01*
X80080519Y-88795410D01*
X80071162Y-88785348D01*
X80056501Y-88771472D01*
X80041089Y-88759057D01*
X80024925Y-88748103D01*
X80008010Y-88738609D01*
X79990344Y-88730576D01*
X79971926Y-88724003D01*
X79952757Y-88718891D01*
X79932837Y-88715240D01*
X79919139Y-88713617D01*
X79905107Y-88712643D01*
X79890742Y-88712318D01*
X79870733Y-88713076D01*
X79851356Y-88715348D01*
X79832610Y-88719135D01*
X79814495Y-88724436D01*
X79797011Y-88731252D01*
X79780158Y-88739583D01*
X79763936Y-88749428D01*
X79748345Y-88760788D01*
X79733386Y-88773663D01*
X79719057Y-88788053D01*
X79709856Y-88798487D01*
X79701202Y-88809154D01*
X79693106Y-88820211D01*
X79685569Y-88831658D01*
X79678590Y-88843495D01*
X79672169Y-88855722D01*
X79666306Y-88868339D01*
X79661002Y-88881346D01*
X79656257Y-88894743D01*
X79652069Y-88908531D01*
X79648440Y-88922708D01*
X79645369Y-88937275D01*
X79642857Y-88952232D01*
X79640903Y-88967579D01*
X79639507Y-88983317D01*
X79638669Y-88999444D01*
X79638390Y-89015961D01*
X79418337Y-89015961D01*
X79418181Y-89007413D01*
X79418663Y-88981608D01*
X79420110Y-88956341D01*
X79422521Y-88931610D01*
X79425896Y-88907417D01*
X79430236Y-88883760D01*
X79435540Y-88860640D01*
X79441808Y-88838057D01*
X79449041Y-88816012D01*
X79457238Y-88794503D01*
X79466400Y-88773531D01*
X79476526Y-88753096D01*
X79487616Y-88733198D01*
X79499671Y-88713837D01*
X79512690Y-88695013D01*
X79526673Y-88676726D01*
X79541621Y-88658976D01*
X79557337Y-88641916D01*
X79573539Y-88625957D01*
X79590227Y-88611099D01*
X79607402Y-88597341D01*
X79625063Y-88584684D01*
X79643209Y-88573127D01*
X79661842Y-88562672D01*
X79680962Y-88553316D01*
X79700567Y-88545062D01*
X79720659Y-88537908D01*
X79741237Y-88531854D01*
X79762301Y-88526901D01*
X79783851Y-88523049D01*
X79805887Y-88520298D01*
X79828410Y-88518647D01*
X79851419Y-88518096D01*
X79871461Y-88518620D01*
X79891239Y-88520191D01*
X79910752Y-88522809D01*
X79930001Y-88526474D01*
X79948985Y-88531186D01*
X79967705Y-88536946D01*
X79986161Y-88543753D01*
X80004351Y-88551607D01*
X80022278Y-88560508D01*
X80039940Y-88570456D01*
X80057337Y-88581452D01*
X80074471Y-88593494D01*
X80091339Y-88606584D01*
X80107943Y-88620721D01*
X80124283Y-88635906D01*
X80140358Y-88652137D01*
X80140358Y-87861572D01*
X80360567Y-87861572D01*
X80360567Y-89481000D01*
G37*
G36*
X79141893Y-89370553D02*
G01*
X79140950Y-89354341D01*
X79138120Y-89338830D01*
X79133403Y-89324020D01*
X79126800Y-89309912D01*
X79118310Y-89296505D01*
X79107933Y-89283799D01*
X79103254Y-89278913D01*
X79090714Y-89267782D01*
X79077455Y-89258537D01*
X79063479Y-89251179D01*
X79048784Y-89245707D01*
X79033372Y-89242123D01*
X79017242Y-89240425D01*
X79010588Y-89240274D01*
X78994081Y-89241217D01*
X78978324Y-89244047D01*
X78963320Y-89248764D01*
X78949066Y-89255367D01*
X78935564Y-89263857D01*
X78922813Y-89274234D01*
X78917923Y-89278913D01*
X78906791Y-89291363D01*
X78897546Y-89304565D01*
X78890188Y-89318518D01*
X78884717Y-89333223D01*
X78881132Y-89348678D01*
X78879434Y-89364885D01*
X78879283Y-89371579D01*
X78880227Y-89388283D01*
X78883057Y-89404203D01*
X78887773Y-89419338D01*
X78894377Y-89433689D01*
X78902867Y-89447255D01*
X78913244Y-89460036D01*
X78917923Y-89464928D01*
X78930103Y-89475863D01*
X78943134Y-89484944D01*
X78957017Y-89492172D01*
X78971751Y-89497546D01*
X78987337Y-89501067D01*
X79003775Y-89502735D01*
X79010588Y-89502884D01*
X79027572Y-89501965D01*
X79043687Y-89499210D01*
X79058934Y-89494619D01*
X79073313Y-89488191D01*
X79086824Y-89479926D01*
X79099466Y-89469825D01*
X79104280Y-89465270D01*
X79115116Y-89452950D01*
X79124115Y-89439712D01*
X79131278Y-89425555D01*
X79136604Y-89410480D01*
X79140093Y-89394486D01*
X79141746Y-89377575D01*
X79141893Y-89370553D01*
G37*
G36*
X77858935Y-88584091D02*
G01*
X77858935Y-88869611D01*
X77868061Y-88858633D01*
X77877063Y-88848095D01*
X77890329Y-88833116D01*
X77903313Y-88819128D01*
X77916015Y-88806132D01*
X77928434Y-88794128D01*
X77940570Y-88783115D01*
X77952424Y-88773094D01*
X77963996Y-88764065D01*
X77975285Y-88756028D01*
X77989898Y-88746854D01*
X78004489Y-88738760D01*
X78019710Y-88731745D01*
X78035563Y-88725809D01*
X78052045Y-88720952D01*
X78069158Y-88717175D01*
X78086902Y-88714477D01*
X78100623Y-88713162D01*
X78114699Y-88712453D01*
X78124280Y-88712318D01*
X78139168Y-88712651D01*
X78153740Y-88713649D01*
X78167997Y-88715312D01*
X78181940Y-88717640D01*
X78195566Y-88720633D01*
X78208878Y-88724292D01*
X78221874Y-88728615D01*
X78240778Y-88736348D01*
X78258972Y-88745577D01*
X78276457Y-88756303D01*
X78287720Y-88764286D01*
X78298667Y-88772933D01*
X78309300Y-88782245D01*
X78319616Y-88792223D01*
X78324657Y-88797461D01*
X78334346Y-88808230D01*
X78343410Y-88819335D01*
X78351849Y-88830777D01*
X78359663Y-88842555D01*
X78366852Y-88854670D01*
X78373415Y-88867121D01*
X78379354Y-88879909D01*
X78384667Y-88893034D01*
X78389356Y-88906495D01*
X78393419Y-88920293D01*
X78396857Y-88934427D01*
X78399670Y-88948898D01*
X78401858Y-88963706D01*
X78403421Y-88978850D01*
X78404358Y-88994331D01*
X78404671Y-89010148D01*
X78404370Y-89026294D01*
X78403469Y-89042077D01*
X78401966Y-89057496D01*
X78399862Y-89072552D01*
X78397157Y-89087245D01*
X78393852Y-89101574D01*
X78389945Y-89115540D01*
X78385437Y-89129143D01*
X78380328Y-89142383D01*
X78374617Y-89155259D01*
X78368306Y-89167772D01*
X78361394Y-89179921D01*
X78353881Y-89191708D01*
X78345766Y-89203131D01*
X78337051Y-89214190D01*
X78327734Y-89224886D01*
X78317782Y-89235031D01*
X78307501Y-89244521D01*
X78296892Y-89253357D01*
X78280361Y-89265383D01*
X78263092Y-89275937D01*
X78245083Y-89285018D01*
X78226334Y-89292627D01*
X78206847Y-89298763D01*
X78193444Y-89302035D01*
X78179713Y-89304653D01*
X78165654Y-89306616D01*
X78151265Y-89307925D01*
X78136549Y-89308580D01*
X78129067Y-89308662D01*
X78114740Y-89308370D01*
X78100737Y-89307496D01*
X78087059Y-89306038D01*
X78069326Y-89303188D01*
X78052170Y-89299301D01*
X78035591Y-89294377D01*
X78019590Y-89288417D01*
X78004165Y-89281421D01*
X77992975Y-89275494D01*
X77978389Y-89266341D01*
X77967043Y-89258236D01*
X77955348Y-89249067D01*
X77943305Y-89238834D01*
X77930913Y-89227536D01*
X77918172Y-89215176D01*
X77905083Y-89201751D01*
X77891645Y-89187262D01*
X77882493Y-89177012D01*
X77873186Y-89166289D01*
X77863724Y-89155093D01*
X77858935Y-89149318D01*
X77858935Y-89434154D01*
X77875222Y-89442476D01*
X77891515Y-89450262D01*
X77907813Y-89457511D01*
X77924117Y-89464223D01*
X77940426Y-89470398D01*
X77956740Y-89476036D01*
X77973060Y-89481137D01*
X77989385Y-89485701D01*
X78005715Y-89489728D01*
X78022051Y-89493219D01*
X78038392Y-89496172D01*
X78054738Y-89498588D01*
X78071090Y-89500467D01*
X78087447Y-89501810D01*
X78103809Y-89502615D01*
X78120177Y-89502884D01*
X78146788Y-89502337D01*
X78172851Y-89500698D01*
X78198367Y-89497967D01*
X78223336Y-89494143D01*
X78247756Y-89489226D01*
X78271629Y-89483217D01*
X78294955Y-89476115D01*
X78317732Y-89467920D01*
X78339963Y-89458633D01*
X78361645Y-89448253D01*
X78382780Y-89436781D01*
X78403367Y-89424216D01*
X78423407Y-89410559D01*
X78442899Y-89395808D01*
X78461843Y-89379966D01*
X78480239Y-89363030D01*
X78497755Y-89345196D01*
X78514140Y-89326827D01*
X78529395Y-89307924D01*
X78543520Y-89288487D01*
X78556515Y-89268516D01*
X78568380Y-89248010D01*
X78579115Y-89226970D01*
X78588720Y-89205396D01*
X78597195Y-89183287D01*
X78604540Y-89160644D01*
X78610755Y-89137467D01*
X78615840Y-89113756D01*
X78619795Y-89089510D01*
X78622620Y-89064730D01*
X78624315Y-89039416D01*
X78624880Y-89013568D01*
X78624307Y-88987790D01*
X78622588Y-88962517D01*
X78619723Y-88937749D01*
X78615712Y-88913486D01*
X78610555Y-88889728D01*
X78604251Y-88866475D01*
X78596802Y-88843726D01*
X78588207Y-88821483D01*
X78578466Y-88799744D01*
X78567578Y-88778511D01*
X78555545Y-88757782D01*
X78542366Y-88737558D01*
X78528040Y-88717839D01*
X78512569Y-88698625D01*
X78495951Y-88679916D01*
X78478188Y-88661711D01*
X78459591Y-88644320D01*
X78440473Y-88628052D01*
X78420834Y-88612905D01*
X78400674Y-88598880D01*
X78379994Y-88585977D01*
X78358792Y-88574196D01*
X78337069Y-88563537D01*
X78314826Y-88554000D01*
X78292062Y-88545585D01*
X78268776Y-88538292D01*
X78244970Y-88532121D01*
X78220643Y-88527072D01*
X78195795Y-88523145D01*
X78170426Y-88520340D01*
X78144536Y-88518657D01*
X78118125Y-88518096D01*
X78101004Y-88518354D01*
X78084006Y-88519128D01*
X78067131Y-88520417D01*
X78050378Y-88522221D01*
X78033749Y-88524541D01*
X78017242Y-88527377D01*
X78000858Y-88530728D01*
X77984597Y-88534595D01*
X77968459Y-88538978D01*
X77952444Y-88543876D01*
X77936552Y-88549289D01*
X77920783Y-88555218D01*
X77905136Y-88561663D01*
X77889613Y-88568623D01*
X77874212Y-88576099D01*
X77858935Y-88584091D01*
G37*
G36*
X77223793Y-88518651D02*
G01*
X77248791Y-88520314D01*
X77273299Y-88523085D01*
X77297319Y-88526966D01*
X77320851Y-88531954D01*
X77343893Y-88538052D01*
X77366446Y-88545258D01*
X77388511Y-88553573D01*
X77410086Y-88562996D01*
X77431173Y-88573528D01*
X77451771Y-88585169D01*
X77471880Y-88597918D01*
X77491500Y-88611776D01*
X77510631Y-88626743D01*
X77529274Y-88642818D01*
X77547427Y-88660002D01*
X77564777Y-88677932D01*
X77581007Y-88696333D01*
X77596118Y-88715204D01*
X77610109Y-88734545D01*
X77622981Y-88754356D01*
X77634734Y-88774637D01*
X77645368Y-88795388D01*
X77654882Y-88816610D01*
X77663277Y-88838302D01*
X77670552Y-88860464D01*
X77676709Y-88883096D01*
X77681745Y-88906198D01*
X77685663Y-88929771D01*
X77688461Y-88953814D01*
X77690140Y-88978326D01*
X77690700Y-89003309D01*
X77690151Y-89029824D01*
X77688504Y-89055770D01*
X77685759Y-89081147D01*
X77681916Y-89105955D01*
X77676976Y-89130194D01*
X77670937Y-89153864D01*
X77663800Y-89176965D01*
X77655566Y-89199497D01*
X77646233Y-89221460D01*
X77635803Y-89242854D01*
X77624274Y-89263679D01*
X77611648Y-89283935D01*
X77597923Y-89303622D01*
X77583101Y-89322740D01*
X77567181Y-89341289D01*
X77550163Y-89359269D01*
X77532374Y-89376660D01*
X77514056Y-89392929D01*
X77495209Y-89408075D01*
X77475833Y-89422100D01*
X77455929Y-89435003D01*
X77435495Y-89446784D01*
X77414533Y-89457443D01*
X77393041Y-89466980D01*
X77371021Y-89475395D01*
X77348472Y-89482688D01*
X77325393Y-89488859D01*
X77301786Y-89493908D01*
X77277650Y-89497835D01*
X77252985Y-89500640D01*
X77227791Y-89502323D01*
X77202068Y-89502884D01*
X77176082Y-89502333D01*
X77150611Y-89500682D01*
X77125656Y-89497931D01*
X77101217Y-89494079D01*
X77077293Y-89489126D01*
X77053885Y-89483073D01*
X77030992Y-89475918D01*
X77008615Y-89467664D01*
X76986754Y-89458309D01*
X76965408Y-89447853D01*
X76944578Y-89436296D01*
X76924263Y-89423639D01*
X76904464Y-89409881D01*
X76885180Y-89395023D01*
X76866412Y-89379064D01*
X76848160Y-89362004D01*
X76830769Y-89344045D01*
X76814500Y-89325556D01*
X76799353Y-89306538D01*
X76785328Y-89286991D01*
X76772426Y-89266916D01*
X76760645Y-89246311D01*
X76749986Y-89225178D01*
X76740449Y-89203515D01*
X76732034Y-89181324D01*
X76724741Y-89158604D01*
X76718570Y-89135354D01*
X76713521Y-89111576D01*
X76709594Y-89087269D01*
X76706789Y-89062433D01*
X76705106Y-89037068D01*
X76704545Y-89011174D01*
X76924754Y-89011174D01*
X76924827Y-89019584D01*
X76925410Y-89036085D01*
X76926574Y-89052162D01*
X76928321Y-89067813D01*
X76930651Y-89083040D01*
X76933563Y-89097843D01*
X76937057Y-89112220D01*
X76941134Y-89126173D01*
X76945792Y-89139701D01*
X76951034Y-89152804D01*
X76956857Y-89165483D01*
X76963263Y-89177736D01*
X76970252Y-89189565D01*
X76981826Y-89206513D01*
X76990271Y-89217280D01*
X76999297Y-89227622D01*
X77008769Y-89237435D01*
X77023712Y-89250968D01*
X77039539Y-89263077D01*
X77056250Y-89273761D01*
X77073844Y-89283020D01*
X77092322Y-89290855D01*
X77111683Y-89297266D01*
X77125082Y-89300748D01*
X77138873Y-89303597D01*
X77153057Y-89305813D01*
X77167633Y-89307396D01*
X77182603Y-89308345D01*
X77197965Y-89308662D01*
X77213206Y-89308341D01*
X77228071Y-89307379D01*
X77242560Y-89305777D01*
X77256671Y-89303533D01*
X77270406Y-89300648D01*
X77283765Y-89297121D01*
X77303096Y-89290630D01*
X77321580Y-89282696D01*
X77339216Y-89273319D01*
X77356005Y-89262500D01*
X77371946Y-89250238D01*
X77387040Y-89236534D01*
X77396632Y-89226596D01*
X77401176Y-89221474D01*
X77413942Y-89205428D01*
X77421732Y-89194163D01*
X77428945Y-89182443D01*
X77435581Y-89170270D01*
X77441639Y-89157642D01*
X77447121Y-89144560D01*
X77452026Y-89131024D01*
X77456354Y-89117034D01*
X77460104Y-89102589D01*
X77463278Y-89087691D01*
X77465874Y-89072338D01*
X77467894Y-89056532D01*
X77469337Y-89040271D01*
X77470202Y-89023556D01*
X77470491Y-89006387D01*
X77470197Y-88990332D01*
X77469315Y-88974650D01*
X77467846Y-88959343D01*
X77465789Y-88944410D01*
X77463144Y-88929851D01*
X77459912Y-88915666D01*
X77456092Y-88901855D01*
X77451684Y-88888418D01*
X77446688Y-88875354D01*
X77441105Y-88862665D01*
X77434934Y-88850350D01*
X77428176Y-88838409D01*
X77420829Y-88826842D01*
X77412895Y-88815648D01*
X77404373Y-88804829D01*
X77395264Y-88794384D01*
X77385637Y-88784446D01*
X77370522Y-88770742D01*
X77354594Y-88758480D01*
X77337856Y-88747661D01*
X77320306Y-88738284D01*
X77301944Y-88730350D01*
X77282771Y-88723859D01*
X77269538Y-88720333D01*
X77255945Y-88717448D01*
X77241991Y-88715204D01*
X77227676Y-88713601D01*
X77213001Y-88712639D01*
X77197965Y-88712318D01*
X77182723Y-88712639D01*
X77167858Y-88713601D01*
X77153369Y-88715204D01*
X77139258Y-88717448D01*
X77125523Y-88720333D01*
X77112164Y-88723859D01*
X77092833Y-88730350D01*
X77074349Y-88738284D01*
X77056713Y-88747661D01*
X77039924Y-88758480D01*
X77023983Y-88770742D01*
X77008889Y-88784446D01*
X76999297Y-88794384D01*
X76990271Y-88804728D01*
X76981826Y-88815499D01*
X76973964Y-88826697D01*
X76966685Y-88838323D01*
X76959988Y-88850377D01*
X76953873Y-88862857D01*
X76948340Y-88875766D01*
X76943390Y-88889101D01*
X76939022Y-88902864D01*
X76935237Y-88917055D01*
X76932034Y-88931673D01*
X76929413Y-88946718D01*
X76927375Y-88962191D01*
X76925919Y-88978091D01*
X76925046Y-88994419D01*
X76924754Y-89011174D01*
X76704545Y-89011174D01*
X76705102Y-88985482D01*
X76706773Y-88960294D01*
X76709558Y-88935612D01*
X76713457Y-88911434D01*
X76718470Y-88887762D01*
X76724597Y-88864594D01*
X76731838Y-88841931D01*
X76740192Y-88819773D01*
X76749661Y-88798120D01*
X76760244Y-88776972D01*
X76771941Y-88756328D01*
X76784751Y-88736190D01*
X76798676Y-88716557D01*
X76813715Y-88697428D01*
X76829867Y-88678804D01*
X76847134Y-88660685D01*
X76865416Y-88643419D01*
X76884186Y-88627266D01*
X76903446Y-88612228D01*
X76923194Y-88598303D01*
X76943432Y-88585492D01*
X76964158Y-88573795D01*
X76985373Y-88563213D01*
X77007077Y-88553744D01*
X77029269Y-88545389D01*
X77051951Y-88538148D01*
X77075121Y-88532021D01*
X77098781Y-88527008D01*
X77122929Y-88523109D01*
X77147566Y-88520324D01*
X77172692Y-88518653D01*
X77198306Y-88518096D01*
X77223793Y-88518651D01*
G37*
G36*
X76469290Y-88539981D02*
G01*
X76249081Y-88539981D01*
X76249081Y-88628201D01*
X76237825Y-88616576D01*
X76226882Y-88605677D01*
X76216251Y-88595506D01*
X76205932Y-88586062D01*
X76192661Y-88574602D01*
X76179945Y-88564435D01*
X76167785Y-88555560D01*
X76156180Y-88547979D01*
X76145131Y-88541690D01*
X76130237Y-88534893D01*
X76114190Y-88529248D01*
X76100523Y-88525562D01*
X76086119Y-88522613D01*
X76070977Y-88520401D01*
X76055098Y-88518926D01*
X76038482Y-88518189D01*
X76029898Y-88518096D01*
X76010830Y-88518629D01*
X75992268Y-88520228D01*
X75974211Y-88522893D01*
X75956658Y-88526624D01*
X75939611Y-88531420D01*
X75923068Y-88537283D01*
X75907030Y-88544211D01*
X75891497Y-88552205D01*
X75876469Y-88561265D01*
X75861946Y-88571391D01*
X75847928Y-88582583D01*
X75834415Y-88594841D01*
X75821406Y-88608164D01*
X75808903Y-88622554D01*
X75796904Y-88638009D01*
X75785410Y-88654531D01*
X75772565Y-88638009D01*
X75759161Y-88622554D01*
X75745199Y-88608164D01*
X75730679Y-88594841D01*
X75715600Y-88582583D01*
X75699963Y-88571391D01*
X75683767Y-88561265D01*
X75667014Y-88552205D01*
X75649702Y-88544211D01*
X75631831Y-88537283D01*
X75613403Y-88531420D01*
X75594416Y-88526624D01*
X75574870Y-88522893D01*
X75554767Y-88520228D01*
X75534105Y-88518629D01*
X75512884Y-88518096D01*
X75493635Y-88518471D01*
X75474997Y-88519596D01*
X75456970Y-88521471D01*
X75439554Y-88524096D01*
X75422749Y-88527471D01*
X75406556Y-88531596D01*
X75390973Y-88536471D01*
X75376001Y-88542096D01*
X75361641Y-88548471D01*
X75347892Y-88555596D01*
X75334753Y-88563471D01*
X75322226Y-88572096D01*
X75310310Y-88581471D01*
X75299005Y-88591596D01*
X75288311Y-88602471D01*
X75278228Y-88614096D01*
X75268756Y-88626471D01*
X75259895Y-88639596D01*
X75251646Y-88653471D01*
X75244007Y-88668096D01*
X75236980Y-88683471D01*
X75230563Y-88699596D01*
X75224758Y-88716471D01*
X75219564Y-88734096D01*
X75214981Y-88752471D01*
X75211009Y-88771596D01*
X75207648Y-88791471D01*
X75204898Y-88812095D01*
X75202759Y-88833470D01*
X75201231Y-88855595D01*
X75200315Y-88878470D01*
X75200009Y-88902095D01*
X75200009Y-89481000D01*
X75420219Y-89481000D01*
X75420219Y-88959883D01*
X75420341Y-88943310D01*
X75420710Y-88927356D01*
X75421324Y-88912022D01*
X75422185Y-88897308D01*
X75423291Y-88883214D01*
X75425410Y-88863234D01*
X75428083Y-88844649D01*
X75431309Y-88827459D01*
X75435088Y-88811663D01*
X75439419Y-88797261D01*
X75444304Y-88784254D01*
X75451677Y-88769080D01*
X75460455Y-88755777D01*
X75470548Y-88744247D01*
X75481955Y-88734491D01*
X75494676Y-88726509D01*
X75508712Y-88720301D01*
X75524061Y-88715866D01*
X75540726Y-88713205D01*
X75558704Y-88712318D01*
X75574452Y-88712913D01*
X75589383Y-88714699D01*
X75603496Y-88717674D01*
X75616791Y-88721839D01*
X75633247Y-88729244D01*
X75648250Y-88738765D01*
X75661799Y-88750402D01*
X75671007Y-88760518D01*
X75679398Y-88771824D01*
X75684538Y-88780023D01*
X75691566Y-88793371D01*
X75697902Y-88808156D01*
X75703547Y-88824378D01*
X75708501Y-88842037D01*
X75712763Y-88861131D01*
X75715221Y-88874659D01*
X75717371Y-88888826D01*
X75719215Y-88903631D01*
X75720751Y-88919074D01*
X75721980Y-88935156D01*
X75722901Y-88951876D01*
X75723516Y-88969235D01*
X75723823Y-88987232D01*
X75723861Y-88996471D01*
X75723861Y-89481000D01*
X75944071Y-89481000D01*
X75944071Y-88962960D01*
X75944205Y-88947540D01*
X75944608Y-88932609D01*
X75945279Y-88918168D01*
X75946218Y-88904216D01*
X75948903Y-88877781D01*
X75952662Y-88853305D01*
X75957494Y-88830786D01*
X75963401Y-88810225D01*
X75970381Y-88791623D01*
X75978436Y-88774979D01*
X75987564Y-88760293D01*
X75997766Y-88747565D01*
X76009042Y-88736795D01*
X76021392Y-88727984D01*
X76034816Y-88721130D01*
X76049313Y-88716235D01*
X76064885Y-88713297D01*
X76081530Y-88712318D01*
X76097526Y-88712922D01*
X76112686Y-88714735D01*
X76127010Y-88717755D01*
X76140499Y-88721984D01*
X76153153Y-88727420D01*
X76168724Y-88736548D01*
X76182810Y-88747824D01*
X76192400Y-88757691D01*
X76201155Y-88768766D01*
X76209074Y-88781048D01*
X76216224Y-88794562D01*
X76222670Y-88809459D01*
X76228413Y-88825738D01*
X76233453Y-88843399D01*
X76237790Y-88862443D01*
X76240290Y-88875907D01*
X76242478Y-88889985D01*
X76244354Y-88904678D01*
X76245916Y-88919985D01*
X76247167Y-88935906D01*
X76248104Y-88952442D01*
X76248729Y-88969593D01*
X76249042Y-88987358D01*
X76249081Y-88996471D01*
X76249081Y-89481000D01*
X76469290Y-89481000D01*
X76469290Y-88539981D01*
G37*
G36*
X74220351Y-87840030D02*
G01*
X74042200Y-87919018D01*
X74888160Y-89886882D01*
X75064259Y-89807210D01*
X74220351Y-87840030D01*
G37*
G36*
X73904741Y-88539981D02*
G01*
X73684531Y-88539981D01*
X73684531Y-88628201D01*
X73673275Y-88616576D01*
X73662332Y-88605677D01*
X73651701Y-88595506D01*
X73641383Y-88586062D01*
X73628111Y-88574602D01*
X73615395Y-88564435D01*
X73603235Y-88555560D01*
X73591630Y-88547979D01*
X73580581Y-88541690D01*
X73565687Y-88534893D01*
X73549640Y-88529248D01*
X73535973Y-88525562D01*
X73521569Y-88522613D01*
X73506427Y-88520401D01*
X73490548Y-88518926D01*
X73473932Y-88518189D01*
X73465348Y-88518096D01*
X73446280Y-88518629D01*
X73427718Y-88520228D01*
X73409661Y-88522893D01*
X73392108Y-88526624D01*
X73375061Y-88531420D01*
X73358518Y-88537283D01*
X73342480Y-88544211D01*
X73326947Y-88552205D01*
X73311919Y-88561265D01*
X73297396Y-88571391D01*
X73283378Y-88582583D01*
X73269865Y-88594841D01*
X73256856Y-88608164D01*
X73244353Y-88622554D01*
X73232354Y-88638009D01*
X73220861Y-88654531D01*
X73208015Y-88638009D01*
X73194611Y-88622554D01*
X73180649Y-88608164D01*
X73166129Y-88594841D01*
X73151050Y-88582583D01*
X73135413Y-88571391D01*
X73119218Y-88561265D01*
X73102464Y-88552205D01*
X73085152Y-88544211D01*
X73067281Y-88537283D01*
X73048853Y-88531420D01*
X73029866Y-88526624D01*
X73010320Y-88522893D01*
X72990217Y-88520228D01*
X72969555Y-88518629D01*
X72948334Y-88518096D01*
X72929085Y-88518471D01*
X72910447Y-88519596D01*
X72892420Y-88521471D01*
X72875004Y-88524096D01*
X72858199Y-88527471D01*
X72842006Y-88531596D01*
X72826423Y-88536471D01*
X72811452Y-88542096D01*
X72797091Y-88548471D01*
X72783342Y-88555596D01*
X72770203Y-88563471D01*
X72757676Y-88572096D01*
X72745760Y-88581471D01*
X72734455Y-88591596D01*
X72723761Y-88602471D01*
X72713678Y-88614096D01*
X72704206Y-88626471D01*
X72695346Y-88639596D01*
X72687096Y-88653471D01*
X72679457Y-88668096D01*
X72672430Y-88683471D01*
X72666013Y-88699596D01*
X72660208Y-88716471D01*
X72655014Y-88734096D01*
X72650431Y-88752471D01*
X72646459Y-88771596D01*
X72643098Y-88791471D01*
X72640348Y-88812095D01*
X72638209Y-88833470D01*
X72636681Y-88855595D01*
X72635765Y-88878470D01*
X72635459Y-88902095D01*
X72635459Y-89481000D01*
X72855669Y-89481000D01*
X72855669Y-88959883D01*
X72855792Y-88943310D01*
X72856160Y-88927356D01*
X72856775Y-88912022D01*
X72857635Y-88897308D01*
X72858741Y-88883214D01*
X72860861Y-88863234D01*
X72863533Y-88844649D01*
X72866759Y-88827459D01*
X72870538Y-88811663D01*
X72874869Y-88797261D01*
X72879754Y-88784254D01*
X72887127Y-88769080D01*
X72895905Y-88755777D01*
X72905998Y-88744247D01*
X72917405Y-88734491D01*
X72930126Y-88726509D01*
X72944162Y-88720301D01*
X72959512Y-88715866D01*
X72976176Y-88713205D01*
X72994154Y-88712318D01*
X73009902Y-88712913D01*
X73024833Y-88714699D01*
X73038946Y-88717674D01*
X73052241Y-88721839D01*
X73068697Y-88729244D01*
X73083700Y-88738765D01*
X73097249Y-88750402D01*
X73106458Y-88760518D01*
X73114848Y-88771824D01*
X73119988Y-88780023D01*
X73127016Y-88793371D01*
X73133352Y-88808156D01*
X73138997Y-88824378D01*
X73143951Y-88842037D01*
X73148213Y-88861131D01*
X73150671Y-88874659D01*
X73152821Y-88888826D01*
X73154665Y-88903631D01*
X73156201Y-88919074D01*
X73157430Y-88935156D01*
X73158351Y-88951876D01*
X73158966Y-88969235D01*
X73159273Y-88987232D01*
X73159311Y-88996471D01*
X73159311Y-89481000D01*
X73379521Y-89481000D01*
X73379521Y-88962960D01*
X73379655Y-88947540D01*
X73380058Y-88932609D01*
X73380729Y-88918168D01*
X73381668Y-88904216D01*
X73384353Y-88877781D01*
X73388112Y-88853305D01*
X73392945Y-88830786D01*
X73398851Y-88810225D01*
X73405831Y-88791623D01*
X73413886Y-88774979D01*
X73423014Y-88760293D01*
X73433216Y-88747565D01*
X73444492Y-88736795D01*
X73456842Y-88727984D01*
X73470266Y-88721130D01*
X73484763Y-88716235D01*
X73500335Y-88713297D01*
X73516981Y-88712318D01*
X73532976Y-88712922D01*
X73548136Y-88714735D01*
X73562460Y-88717755D01*
X73575949Y-88721984D01*
X73588603Y-88727420D01*
X73604174Y-88736548D01*
X73618261Y-88747824D01*
X73627851Y-88757691D01*
X73636605Y-88768766D01*
X73644524Y-88781048D01*
X73651674Y-88794562D01*
X73658120Y-88809459D01*
X73663863Y-88825738D01*
X73668903Y-88843399D01*
X73673240Y-88862443D01*
X73675741Y-88875907D01*
X73677928Y-88889985D01*
X73679804Y-88904678D01*
X73681367Y-88919985D01*
X73682617Y-88935906D01*
X73683554Y-88952442D01*
X73684180Y-88969593D01*
X73684492Y-88987358D01*
X73684531Y-88996471D01*
X73684531Y-89481000D01*
X73904741Y-89481000D01*
X73904741Y-88539981D01*
G37*
G36*
X71972722Y-88518624D02*
G01*
X71997340Y-88520207D01*
X72021331Y-88522845D01*
X72044694Y-88526538D01*
X72067429Y-88531287D01*
X72089536Y-88537090D01*
X72111016Y-88543949D01*
X72131867Y-88551863D01*
X72152091Y-88560832D01*
X72171687Y-88570857D01*
X72190655Y-88581936D01*
X72208996Y-88594071D01*
X72226709Y-88607261D01*
X72243794Y-88621507D01*
X72260251Y-88636807D01*
X72276080Y-88653163D01*
X72283633Y-88661794D01*
X72298018Y-88679551D01*
X72311445Y-88697967D01*
X72323912Y-88717044D01*
X72335421Y-88736780D01*
X72345970Y-88757176D01*
X72355560Y-88778232D01*
X72364192Y-88799948D01*
X72371864Y-88822324D01*
X72378577Y-88845359D01*
X72384331Y-88869055D01*
X72389127Y-88893410D01*
X72392963Y-88918425D01*
X72395840Y-88944100D01*
X72397758Y-88970435D01*
X72398717Y-88997429D01*
X72398837Y-89011174D01*
X72398341Y-89038657D01*
X72396855Y-89065457D01*
X72394377Y-89091573D01*
X72390908Y-89117004D01*
X72386448Y-89141752D01*
X72380997Y-89165816D01*
X72374555Y-89189196D01*
X72367122Y-89211893D01*
X72358698Y-89233905D01*
X72349282Y-89255234D01*
X72338876Y-89275878D01*
X72327478Y-89295839D01*
X72315090Y-89315116D01*
X72301710Y-89333709D01*
X72287339Y-89351618D01*
X72271977Y-89368843D01*
X72255755Y-89385075D01*
X72238889Y-89400259D01*
X72221379Y-89414396D01*
X72203226Y-89427486D01*
X72184428Y-89439529D01*
X72164987Y-89450524D01*
X72144902Y-89460472D01*
X72124174Y-89469374D01*
X72102801Y-89477227D01*
X72080785Y-89484034D01*
X72058124Y-89489794D01*
X72034820Y-89494506D01*
X72010872Y-89498171D01*
X71986281Y-89500789D01*
X71961045Y-89502360D01*
X71935166Y-89502884D01*
X71917124Y-89502643D01*
X71899412Y-89501922D01*
X71882032Y-89500720D01*
X71864983Y-89499037D01*
X71848265Y-89496873D01*
X71831879Y-89494228D01*
X71815824Y-89491103D01*
X71800100Y-89487496D01*
X71784590Y-89483377D01*
X71769347Y-89478713D01*
X71754371Y-89473504D01*
X71739662Y-89467749D01*
X71725220Y-89461450D01*
X71711046Y-89454606D01*
X71697139Y-89447217D01*
X71683498Y-89439283D01*
X71670104Y-89430713D01*
X71656934Y-89421587D01*
X71643988Y-89411906D01*
X71631267Y-89401669D01*
X71618770Y-89390877D01*
X71606498Y-89379529D01*
X71594450Y-89367625D01*
X71582626Y-89355166D01*
X71570904Y-89342022D01*
X71559331Y-89328238D01*
X71550750Y-89317479D01*
X71542253Y-89306359D01*
X71533840Y-89294879D01*
X71525511Y-89283038D01*
X71517267Y-89270836D01*
X71509106Y-89258274D01*
X71501030Y-89245351D01*
X71493038Y-89232067D01*
X71675634Y-89133247D01*
X71683870Y-89145567D01*
X71691993Y-89157396D01*
X71700005Y-89168733D01*
X71711812Y-89184818D01*
X71723366Y-89199797D01*
X71734668Y-89213669D01*
X71745718Y-89226436D01*
X71756515Y-89238097D01*
X71767060Y-89248651D01*
X71780727Y-89261004D01*
X71793945Y-89271390D01*
X71804068Y-89278051D01*
X71818341Y-89285913D01*
X71833501Y-89292610D01*
X71849549Y-89298143D01*
X71866483Y-89302511D01*
X71884304Y-89305714D01*
X71898251Y-89307351D01*
X71912698Y-89308334D01*
X71927644Y-89308662D01*
X71940449Y-89308407D01*
X71959111Y-89307067D01*
X71977118Y-89304580D01*
X71994470Y-89300944D01*
X72011166Y-89296161D01*
X72027208Y-89290229D01*
X72042594Y-89283150D01*
X72057325Y-89274922D01*
X72071401Y-89265547D01*
X72084822Y-89255023D01*
X72097588Y-89243351D01*
X72109521Y-89230572D01*
X72120444Y-89216980D01*
X72130358Y-89202578D01*
X72139262Y-89187364D01*
X72147156Y-89171338D01*
X72154040Y-89154502D01*
X72159914Y-89136853D01*
X72164779Y-89118394D01*
X72168634Y-89099122D01*
X72171479Y-89079040D01*
X72172814Y-89065200D01*
X71501586Y-89065200D01*
X71501586Y-89014251D01*
X71501702Y-88999797D01*
X71502051Y-88985542D01*
X71502632Y-88971486D01*
X71503446Y-88957628D01*
X71505770Y-88930511D01*
X71509023Y-88904189D01*
X71511328Y-88890127D01*
X71723847Y-88890127D01*
X72158453Y-88890127D01*
X72157091Y-88884990D01*
X72152555Y-88869995D01*
X72147345Y-88855626D01*
X72141463Y-88841882D01*
X72134907Y-88828762D01*
X72127678Y-88816268D01*
X72126389Y-88814226D01*
X72118343Y-88802381D01*
X72109767Y-88791233D01*
X72100663Y-88780783D01*
X72091030Y-88771030D01*
X72079123Y-88760532D01*
X72070104Y-88753533D01*
X72056972Y-88744632D01*
X72043251Y-88736778D01*
X72028941Y-88729971D01*
X72016206Y-88724970D01*
X72011869Y-88723438D01*
X71998617Y-88719435D01*
X71985005Y-88716322D01*
X71971032Y-88714098D01*
X71956699Y-88712763D01*
X71942005Y-88712318D01*
X71920877Y-88713013D01*
X71900748Y-88715097D01*
X71881618Y-88718570D01*
X71863487Y-88723431D01*
X71846355Y-88729683D01*
X71830223Y-88737323D01*
X71815089Y-88746352D01*
X71800955Y-88756771D01*
X71787819Y-88768578D01*
X71775683Y-88781775D01*
X71764546Y-88796361D01*
X71754408Y-88812336D01*
X71745269Y-88829700D01*
X71737130Y-88848453D01*
X71729989Y-88868596D01*
X71723847Y-88890127D01*
X71511328Y-88890127D01*
X71513207Y-88878664D01*
X71518320Y-88853935D01*
X71524363Y-88830002D01*
X71531335Y-88806865D01*
X71539237Y-88784524D01*
X71548069Y-88762979D01*
X71557830Y-88742230D01*
X71568521Y-88722277D01*
X71580142Y-88703121D01*
X71592692Y-88684760D01*
X71606172Y-88667196D01*
X71620581Y-88650427D01*
X71635963Y-88634403D01*
X71652019Y-88619412D01*
X71668747Y-88605455D01*
X71686148Y-88592533D01*
X71704223Y-88580643D01*
X71722971Y-88569788D01*
X71742392Y-88559967D01*
X71762486Y-88551179D01*
X71783254Y-88543425D01*
X71804695Y-88536706D01*
X71826809Y-88531019D01*
X71849596Y-88526367D01*
X71873056Y-88522749D01*
X71897189Y-88520164D01*
X71921996Y-88518613D01*
X71947476Y-88518096D01*
X71972722Y-88518624D01*
G37*
G36*
X71271803Y-88539981D02*
G01*
X71051593Y-88539981D01*
X71051593Y-88628543D01*
X71037292Y-88615169D01*
X71022769Y-88602657D01*
X71008024Y-88591009D01*
X70993057Y-88580223D01*
X70977869Y-88570300D01*
X70962459Y-88561240D01*
X70946827Y-88553042D01*
X70930974Y-88545708D01*
X70914899Y-88539237D01*
X70898602Y-88533628D01*
X70882083Y-88528882D01*
X70865343Y-88524999D01*
X70848381Y-88521979D01*
X70831197Y-88519822D01*
X70813791Y-88518528D01*
X70796164Y-88518096D01*
X70775974Y-88518499D01*
X70756349Y-88519705D01*
X70737292Y-88521715D01*
X70718800Y-88524529D01*
X70700875Y-88528148D01*
X70683516Y-88532570D01*
X70666724Y-88537797D01*
X70650498Y-88543827D01*
X70634838Y-88550662D01*
X70619744Y-88558301D01*
X70605217Y-88566744D01*
X70591257Y-88575991D01*
X70577862Y-88586042D01*
X70565034Y-88596898D01*
X70552772Y-88608557D01*
X70541077Y-88621020D01*
X70531512Y-88632395D01*
X70522564Y-88644636D01*
X70514233Y-88657742D01*
X70506520Y-88671713D01*
X70499423Y-88686550D01*
X70492943Y-88702253D01*
X70487081Y-88718821D01*
X70481836Y-88736254D01*
X70477208Y-88754553D01*
X70473196Y-88773718D01*
X70469802Y-88793748D01*
X70467025Y-88814644D01*
X70464866Y-88836405D01*
X70463323Y-88859032D01*
X70462397Y-88882524D01*
X70462089Y-88906882D01*
X70462089Y-89481000D01*
X70682298Y-89481000D01*
X70682298Y-88957489D01*
X70682448Y-88940513D01*
X70682896Y-88924204D01*
X70683644Y-88908563D01*
X70684692Y-88893589D01*
X70686038Y-88879284D01*
X70687684Y-88865646D01*
X70690713Y-88846442D01*
X70694416Y-88828741D01*
X70698791Y-88812542D01*
X70703840Y-88797846D01*
X70709562Y-88784653D01*
X70718239Y-88769399D01*
X70720595Y-88766003D01*
X70730789Y-88753421D01*
X70742907Y-88742516D01*
X70756948Y-88733289D01*
X70772912Y-88725740D01*
X70786148Y-88721178D01*
X70800465Y-88717561D01*
X70815864Y-88714887D01*
X70832346Y-88713157D01*
X70849909Y-88712371D01*
X70856004Y-88712318D01*
X70875521Y-88712944D01*
X70893939Y-88714819D01*
X70911257Y-88717944D01*
X70927474Y-88722320D01*
X70942592Y-88727946D01*
X70956610Y-88734822D01*
X70969528Y-88742949D01*
X70981346Y-88752325D01*
X70992064Y-88762952D01*
X71001682Y-88774829D01*
X71007483Y-88783442D01*
X71015366Y-88797508D01*
X71022474Y-88813419D01*
X71028806Y-88831176D01*
X71034363Y-88850777D01*
X71037636Y-88864870D01*
X71040566Y-88879784D01*
X71043150Y-88895517D01*
X71045390Y-88912070D01*
X71047286Y-88929444D01*
X71048836Y-88947637D01*
X71050043Y-88966651D01*
X71050904Y-88986485D01*
X71051421Y-89007139D01*
X71051593Y-89028613D01*
X71051593Y-89481000D01*
X71271803Y-89481000D01*
X71271803Y-88539981D01*
G37*
G36*
X69831630Y-88518686D02*
G01*
X69855717Y-88520453D01*
X69879192Y-88523398D01*
X69902055Y-88527521D01*
X69924307Y-88532823D01*
X69945946Y-88539302D01*
X69966974Y-88546960D01*
X69987391Y-88555795D01*
X70007195Y-88565809D01*
X70026388Y-88577001D01*
X70044969Y-88589371D01*
X70062938Y-88602919D01*
X70080295Y-88617645D01*
X70097041Y-88633549D01*
X70113175Y-88650632D01*
X70128697Y-88668892D01*
X70142403Y-88686911D01*
X70155224Y-88705405D01*
X70167161Y-88724374D01*
X70178214Y-88743820D01*
X70188383Y-88763740D01*
X70197668Y-88784136D01*
X70206068Y-88805008D01*
X70213584Y-88826355D01*
X70220216Y-88848178D01*
X70225963Y-88870476D01*
X70230826Y-88893250D01*
X70234805Y-88916499D01*
X70237900Y-88940224D01*
X70240111Y-88964424D01*
X70241437Y-88989100D01*
X70241879Y-89014251D01*
X70241404Y-89040096D01*
X70239977Y-89065398D01*
X70237600Y-89090158D01*
X70234271Y-89114376D01*
X70229992Y-89138051D01*
X70224761Y-89161184D01*
X70218579Y-89183775D01*
X70211447Y-89205823D01*
X70203363Y-89227329D01*
X70194328Y-89248293D01*
X70184343Y-89268715D01*
X70173406Y-89288594D01*
X70161518Y-89307931D01*
X70148679Y-89326726D01*
X70134890Y-89344978D01*
X70120149Y-89362688D01*
X70104792Y-89379334D01*
X70088899Y-89394905D01*
X70072468Y-89409403D01*
X70055501Y-89422827D01*
X70037996Y-89435177D01*
X70019955Y-89446453D01*
X70001377Y-89456655D01*
X69982261Y-89465783D01*
X69962609Y-89473837D01*
X69942420Y-89480818D01*
X69921694Y-89486724D01*
X69900431Y-89491557D01*
X69878631Y-89495316D01*
X69856294Y-89498000D01*
X69833420Y-89499611D01*
X69810009Y-89500148D01*
X69789346Y-89499631D01*
X69768987Y-89498080D01*
X69748933Y-89495496D01*
X69729183Y-89491877D01*
X69709738Y-89487225D01*
X69690597Y-89481539D01*
X69671761Y-89474819D01*
X69653230Y-89467065D01*
X69635003Y-89458278D01*
X69617080Y-89448456D01*
X69599462Y-89437601D01*
X69582149Y-89425712D01*
X69565140Y-89412789D01*
X69548436Y-89398832D01*
X69532036Y-89383842D01*
X69515941Y-89367817D01*
X69515941Y-89498780D01*
X69516170Y-89516704D01*
X69516857Y-89534059D01*
X69518002Y-89550845D01*
X69519606Y-89567062D01*
X69521668Y-89582709D01*
X69524187Y-89597788D01*
X69527165Y-89612298D01*
X69530601Y-89626239D01*
X69538848Y-89652413D01*
X69548927Y-89676311D01*
X69560839Y-89697934D01*
X69574583Y-89717280D01*
X69590160Y-89734350D01*
X69607570Y-89749145D01*
X69626812Y-89761663D01*
X69647887Y-89771905D01*
X69670794Y-89779871D01*
X69695534Y-89785561D01*
X69722107Y-89788975D01*
X69736080Y-89789829D01*
X69750512Y-89790113D01*
X69758402Y-89790028D01*
X69773827Y-89789344D01*
X69788776Y-89787976D01*
X69803250Y-89785924D01*
X69817248Y-89783189D01*
X69830771Y-89779770D01*
X69850163Y-89773358D01*
X69868486Y-89765408D01*
X69885738Y-89755919D01*
X69901921Y-89744892D01*
X69917034Y-89732325D01*
X69931077Y-89718220D01*
X69944050Y-89702577D01*
X69947534Y-89697834D01*
X69955697Y-89684866D01*
X69963075Y-89670311D01*
X69968413Y-89657526D01*
X69973248Y-89643726D01*
X69977581Y-89628910D01*
X69981412Y-89613079D01*
X69984741Y-89596233D01*
X70200847Y-89596233D01*
X70198044Y-89618873D01*
X70194425Y-89640889D01*
X70189987Y-89662278D01*
X70184733Y-89683043D01*
X70178661Y-89703183D01*
X70171771Y-89722698D01*
X70164064Y-89741587D01*
X70155540Y-89759852D01*
X70146198Y-89777491D01*
X70136038Y-89794505D01*
X70125061Y-89810894D01*
X70113267Y-89826658D01*
X70100655Y-89841797D01*
X70087226Y-89856311D01*
X70072980Y-89870199D01*
X70057916Y-89883463D01*
X70042657Y-89895678D01*
X70026885Y-89907105D01*
X70010600Y-89917744D01*
X69993802Y-89927594D01*
X69976491Y-89936657D01*
X69958668Y-89944932D01*
X69940331Y-89952419D01*
X69921482Y-89959117D01*
X69902119Y-89965028D01*
X69882244Y-89970150D01*
X69861856Y-89974484D01*
X69840955Y-89978031D01*
X69819541Y-89980789D01*
X69797614Y-89982759D01*
X69775174Y-89983941D01*
X69752221Y-89984335D01*
X69725105Y-89983767D01*
X69698724Y-89982064D01*
X69673077Y-89979226D01*
X69648165Y-89975252D01*
X69623987Y-89970143D01*
X69600544Y-89963899D01*
X69577836Y-89956519D01*
X69555862Y-89948004D01*
X69534623Y-89938354D01*
X69514119Y-89927568D01*
X69494349Y-89915647D01*
X69475314Y-89902590D01*
X69457014Y-89888398D01*
X69439448Y-89873071D01*
X69422617Y-89856609D01*
X69406520Y-89839011D01*
X69398358Y-89829488D01*
X69386760Y-89814759D01*
X69375938Y-89799495D01*
X69365891Y-89783696D01*
X69356619Y-89767362D01*
X69348123Y-89750493D01*
X69340403Y-89733089D01*
X69333457Y-89715151D01*
X69327287Y-89696677D01*
X69321893Y-89677668D01*
X69317274Y-89658124D01*
X69314457Y-89643458D01*
X69311904Y-89627927D01*
X69309979Y-89614323D01*
X69308238Y-89600117D01*
X69306680Y-89585311D01*
X69305306Y-89569904D01*
X69304511Y-89560341D01*
X69303361Y-89543788D01*
X69302597Y-89529993D01*
X69301972Y-89515706D01*
X69301486Y-89500928D01*
X69301138Y-89485658D01*
X69300930Y-89469897D01*
X69300861Y-89453644D01*
X69300861Y-89010148D01*
X69507392Y-89010148D01*
X69507647Y-89025742D01*
X69508413Y-89040982D01*
X69509688Y-89055865D01*
X69511474Y-89070394D01*
X69513770Y-89084567D01*
X69516577Y-89098385D01*
X69519893Y-89111847D01*
X69525825Y-89131375D01*
X69532904Y-89150103D01*
X69541132Y-89168032D01*
X69550507Y-89185161D01*
X69561031Y-89201491D01*
X69572703Y-89217022D01*
X69581834Y-89227788D01*
X69591360Y-89237859D01*
X69606391Y-89251663D01*
X69622311Y-89263905D01*
X69639121Y-89274584D01*
X69656820Y-89283700D01*
X69675409Y-89291254D01*
X69694888Y-89297244D01*
X69708368Y-89300370D01*
X69722243Y-89302801D01*
X69736513Y-89304537D01*
X69751179Y-89305579D01*
X69766241Y-89305926D01*
X69773840Y-89305840D01*
X69788728Y-89305154D01*
X69803201Y-89303781D01*
X69817261Y-89301721D01*
X69830907Y-89298975D01*
X69850599Y-89293568D01*
X69869359Y-89286617D01*
X69887187Y-89278121D01*
X69904084Y-89268080D01*
X69920050Y-89256495D01*
X69935083Y-89243364D01*
X69949185Y-89228689D01*
X69958069Y-89218048D01*
X69969435Y-89202517D01*
X69979684Y-89186187D01*
X69988814Y-89169058D01*
X69996826Y-89151129D01*
X70003720Y-89132401D01*
X70009496Y-89112873D01*
X70012726Y-89099411D01*
X70015459Y-89085593D01*
X70017695Y-89071420D01*
X70019434Y-89056891D01*
X70020676Y-89042007D01*
X70021422Y-89026768D01*
X70021670Y-89011174D01*
X70021422Y-88995331D01*
X70020676Y-88979860D01*
X70019434Y-88964760D01*
X70017695Y-88950031D01*
X70015459Y-88935673D01*
X70012726Y-88921687D01*
X70009496Y-88908072D01*
X70003720Y-88888346D01*
X69996826Y-88869456D01*
X69988814Y-88851401D01*
X69979684Y-88834181D01*
X69969435Y-88817797D01*
X69958069Y-88802249D01*
X69949065Y-88791359D01*
X69939663Y-88781171D01*
X69924814Y-88767207D01*
X69909069Y-88754824D01*
X69892428Y-88744022D01*
X69874892Y-88734801D01*
X69856461Y-88727160D01*
X69837133Y-88721101D01*
X69823751Y-88717939D01*
X69809970Y-88715480D01*
X69795792Y-88713724D01*
X69781215Y-88712670D01*
X69766241Y-88712318D01*
X69752167Y-88712640D01*
X69731651Y-88714330D01*
X69711851Y-88717469D01*
X69692766Y-88722056D01*
X69674397Y-88728092D01*
X69656742Y-88735576D01*
X69639803Y-88744509D01*
X69623579Y-88754890D01*
X69608071Y-88766720D01*
X69593278Y-88779999D01*
X69579200Y-88794726D01*
X69574782Y-88799802D01*
X69562370Y-88815670D01*
X69551220Y-88832500D01*
X69541332Y-88850291D01*
X69535442Y-88862687D01*
X69530113Y-88875509D01*
X69525344Y-88888759D01*
X69521137Y-88902437D01*
X69517490Y-88916542D01*
X69514405Y-88931075D01*
X69511880Y-88946034D01*
X69509917Y-88961422D01*
X69508514Y-88977236D01*
X69507673Y-88993479D01*
X69507392Y-89010148D01*
X69300861Y-89010148D01*
X69300861Y-88544084D01*
X69515941Y-88544084D01*
X69515941Y-88649743D01*
X69530662Y-88633802D01*
X69545845Y-88618889D01*
X69561490Y-88605004D01*
X69577597Y-88592148D01*
X69594166Y-88580320D01*
X69611198Y-88569521D01*
X69628691Y-88559750D01*
X69646647Y-88551008D01*
X69665065Y-88543295D01*
X69683946Y-88536609D01*
X69703288Y-88530953D01*
X69723092Y-88526324D01*
X69743359Y-88522725D01*
X69764088Y-88520153D01*
X69785279Y-88518611D01*
X69806932Y-88518096D01*
X69831630Y-88518686D01*
G37*
G36*
X68472340Y-88703086D02*
G01*
X68650491Y-88798145D01*
X68658682Y-88782807D01*
X68667228Y-88768978D01*
X68676129Y-88756657D01*
X68685385Y-88745845D01*
X68698277Y-88733775D01*
X68711799Y-88724388D01*
X68725953Y-88717683D01*
X68740736Y-88713659D01*
X68756150Y-88712318D01*
X68770661Y-88713537D01*
X68784104Y-88717191D01*
X68796478Y-88723282D01*
X68807783Y-88731809D01*
X68817058Y-88742260D01*
X68824325Y-88755702D01*
X68827969Y-88769150D01*
X68828983Y-88782074D01*
X68825928Y-88798727D01*
X68819084Y-88812025D01*
X68808329Y-88825302D01*
X68797696Y-88835246D01*
X68784863Y-88845177D01*
X68769830Y-88855097D01*
X68752598Y-88865005D01*
X68739887Y-88871603D01*
X68726199Y-88878196D01*
X68711533Y-88884784D01*
X68703833Y-88888076D01*
X68682690Y-88897261D01*
X68662432Y-88906353D01*
X68643057Y-88915352D01*
X68624567Y-88924257D01*
X68606961Y-88933069D01*
X68590240Y-88941787D01*
X68574402Y-88950411D01*
X68559449Y-88958943D01*
X68545380Y-88967380D01*
X68532195Y-88975724D01*
X68519895Y-88983975D01*
X68508479Y-88992132D01*
X68493012Y-89004193D01*
X68479535Y-89016043D01*
X68471656Y-89023826D01*
X68460962Y-89035815D01*
X68451320Y-89048574D01*
X68442730Y-89062102D01*
X68435191Y-89076399D01*
X68428705Y-89091466D01*
X68423270Y-89107302D01*
X68418887Y-89123907D01*
X68415557Y-89141282D01*
X68413277Y-89159426D01*
X68412050Y-89178340D01*
X68411817Y-89191376D01*
X68412204Y-89208006D01*
X68413366Y-89224299D01*
X68415303Y-89240255D01*
X68418014Y-89255875D01*
X68421500Y-89271158D01*
X68425761Y-89286104D01*
X68430797Y-89300714D01*
X68436607Y-89314988D01*
X68443192Y-89328924D01*
X68450552Y-89342524D01*
X68458686Y-89355788D01*
X68467596Y-89368715D01*
X68477279Y-89381305D01*
X68487738Y-89393559D01*
X68498971Y-89405476D01*
X68510979Y-89417057D01*
X68523187Y-89427450D01*
X68535706Y-89437172D01*
X68548534Y-89446224D01*
X68561672Y-89454606D01*
X68575120Y-89462317D01*
X68588877Y-89469358D01*
X68602945Y-89475727D01*
X68617323Y-89481427D01*
X68632010Y-89486456D01*
X68647007Y-89490814D01*
X68662314Y-89494502D01*
X68677931Y-89497519D01*
X68693858Y-89499866D01*
X68710095Y-89501543D01*
X68726642Y-89502548D01*
X68743498Y-89502884D01*
X68757983Y-89502659D01*
X68772200Y-89501983D01*
X68786150Y-89500858D01*
X68799833Y-89499283D01*
X68826397Y-89494781D01*
X68851893Y-89488479D01*
X68876321Y-89480377D01*
X68899679Y-89470474D01*
X68921970Y-89458771D01*
X68943191Y-89445267D01*
X68963344Y-89429962D01*
X68982429Y-89412857D01*
X69000445Y-89393952D01*
X69017392Y-89373246D01*
X69033271Y-89350739D01*
X69040810Y-89338811D01*
X69048081Y-89326432D01*
X69055086Y-89313603D01*
X69061823Y-89300324D01*
X69068293Y-89286595D01*
X69074496Y-89272416D01*
X68894294Y-89187615D01*
X68887269Y-89199690D01*
X68878390Y-89214463D01*
X68870066Y-89227719D01*
X68862297Y-89239457D01*
X68853368Y-89251996D01*
X68843799Y-89263913D01*
X68835480Y-89272416D01*
X68822816Y-89282858D01*
X68809401Y-89291530D01*
X68795234Y-89298432D01*
X68780316Y-89303565D01*
X68764646Y-89306927D01*
X68748225Y-89308520D01*
X68741447Y-89308662D01*
X68721892Y-89307790D01*
X68704261Y-89305176D01*
X68688553Y-89300818D01*
X68674768Y-89294717D01*
X68662907Y-89286873D01*
X68652970Y-89277286D01*
X68644956Y-89265956D01*
X68638865Y-89252883D01*
X68634697Y-89238067D01*
X68632453Y-89221507D01*
X68632026Y-89209499D01*
X68633335Y-89195261D01*
X68637262Y-89181268D01*
X68643807Y-89167521D01*
X68652970Y-89154019D01*
X68664751Y-89140764D01*
X68675304Y-89130984D01*
X68687331Y-89121341D01*
X68700830Y-89111838D01*
X68715801Y-89102472D01*
X68729880Y-89095474D01*
X68743991Y-89088541D01*
X68758135Y-89081673D01*
X68772312Y-89074871D01*
X68780428Y-89071013D01*
X68794672Y-89064249D01*
X68808983Y-89057419D01*
X68823358Y-89050523D01*
X68835732Y-89044561D01*
X68846080Y-89039555D01*
X68863097Y-89030964D01*
X68879139Y-89022372D01*
X68894208Y-89013781D01*
X68908303Y-89005190D01*
X68921424Y-88996599D01*
X68933572Y-88988008D01*
X68944745Y-88979416D01*
X68958129Y-88967961D01*
X68969782Y-88956506D01*
X68977385Y-88947915D01*
X68986063Y-88936721D01*
X68993887Y-88924938D01*
X69000857Y-88912566D01*
X69006974Y-88899605D01*
X69012237Y-88886055D01*
X69016647Y-88871916D01*
X69020203Y-88857188D01*
X69022906Y-88841871D01*
X69024755Y-88825965D01*
X69025751Y-88809469D01*
X69025941Y-88798145D01*
X69025618Y-88783136D01*
X69024648Y-88768455D01*
X69023032Y-88754103D01*
X69020769Y-88740080D01*
X69017860Y-88726385D01*
X69014304Y-88713018D01*
X69010102Y-88699981D01*
X69002587Y-88681040D01*
X68993617Y-88662839D01*
X68983192Y-88645377D01*
X68971313Y-88628654D01*
X68962586Y-88617916D01*
X68953212Y-88607507D01*
X68943191Y-88597427D01*
X68932492Y-88587820D01*
X68921510Y-88578834D01*
X68910245Y-88570467D01*
X68898696Y-88562720D01*
X68886865Y-88555592D01*
X68874750Y-88549085D01*
X68862352Y-88543197D01*
X68849671Y-88537929D01*
X68836706Y-88533281D01*
X68823459Y-88529252D01*
X68809928Y-88525844D01*
X68796114Y-88523055D01*
X68782017Y-88520885D01*
X68767637Y-88519336D01*
X68752974Y-88518406D01*
X68738027Y-88518096D01*
X68716072Y-88518819D01*
X68694831Y-88520987D01*
X68674302Y-88524600D01*
X68654487Y-88529658D01*
X68635385Y-88536162D01*
X68616997Y-88544111D01*
X68599321Y-88553505D01*
X68582359Y-88564344D01*
X68566110Y-88576628D01*
X68550575Y-88590358D01*
X68535752Y-88605533D01*
X68521643Y-88622153D01*
X68508248Y-88640218D01*
X68495565Y-88659729D01*
X68483596Y-88680685D01*
X68472340Y-88703086D01*
G37*
G36*
X68011063Y-88736938D02*
G01*
X68011063Y-89481000D01*
X68231272Y-89481000D01*
X68231272Y-88736938D01*
X68318809Y-88736938D01*
X68318809Y-88542716D01*
X68231272Y-88542716D01*
X68231272Y-88189834D01*
X68011063Y-88189834D01*
X68011063Y-88542716D01*
X67837357Y-88542716D01*
X67837357Y-88736938D01*
X68011063Y-88736938D01*
G37*
G36*
X67696478Y-88539981D02*
G01*
X67476269Y-88539981D01*
X67476269Y-88629569D01*
X67465233Y-88617998D01*
X67454438Y-88607137D01*
X67443883Y-88596985D01*
X67433569Y-88587542D01*
X67420191Y-88576055D01*
X67407240Y-88565829D01*
X67394716Y-88556864D01*
X67382620Y-88549160D01*
X67370951Y-88542716D01*
X67355886Y-88535624D01*
X67339970Y-88529733D01*
X67326623Y-88525886D01*
X67312732Y-88522809D01*
X67298296Y-88520501D01*
X67283314Y-88518962D01*
X67267788Y-88518193D01*
X67259821Y-88518096D01*
X67243790Y-88518568D01*
X67227628Y-88519984D01*
X67211333Y-88522343D01*
X67194906Y-88525646D01*
X67178346Y-88529892D01*
X67161655Y-88535083D01*
X67144831Y-88541217D01*
X67127875Y-88548294D01*
X67110786Y-88556315D01*
X67093566Y-88565280D01*
X67082012Y-88571781D01*
X67180491Y-88780706D01*
X67191943Y-88772885D01*
X67207138Y-88763652D01*
X67222247Y-88755788D01*
X67237271Y-88749291D01*
X67252210Y-88744162D01*
X67267063Y-88740400D01*
X67281830Y-88738007D01*
X67296513Y-88736981D01*
X67300170Y-88736938D01*
X67321494Y-88737971D01*
X67341443Y-88741068D01*
X67360016Y-88746231D01*
X67377213Y-88753458D01*
X67393034Y-88762751D01*
X67407480Y-88774108D01*
X67420550Y-88787531D01*
X67432244Y-88803018D01*
X67442562Y-88820570D01*
X67451505Y-88840188D01*
X67459072Y-88861870D01*
X67465263Y-88885618D01*
X67470078Y-88911430D01*
X67471969Y-88925111D01*
X67473517Y-88939308D01*
X67474721Y-88954021D01*
X67475581Y-88969250D01*
X67476097Y-88984996D01*
X67476269Y-89001258D01*
X67476269Y-89481000D01*
X67696478Y-89481000D01*
X67696478Y-88539981D01*
G37*
G36*
X66264092Y-87840030D02*
G01*
X66085941Y-87919018D01*
X66931900Y-89886882D01*
X67107999Y-89807210D01*
X66264092Y-87840030D01*
G37*
G36*
X65061831Y-88203854D02*
G01*
X65242717Y-88313616D01*
X65252292Y-88297616D01*
X65261783Y-88282698D01*
X65271189Y-88268861D01*
X65280512Y-88256106D01*
X65289750Y-88244434D01*
X65298904Y-88233843D01*
X65310979Y-88221405D01*
X65322904Y-88210890D01*
X65334680Y-88202299D01*
X65340512Y-88198725D01*
X65353099Y-88191512D01*
X65366585Y-88185261D01*
X65380967Y-88179971D01*
X65396248Y-88175644D01*
X65412426Y-88172278D01*
X65429501Y-88169873D01*
X65447475Y-88168431D01*
X65461544Y-88167980D01*
X65466346Y-88167950D01*
X65483694Y-88168419D01*
X65500478Y-88169825D01*
X65516697Y-88172169D01*
X65532351Y-88175451D01*
X65547439Y-88179671D01*
X65561963Y-88184828D01*
X65575922Y-88190923D01*
X65589316Y-88197955D01*
X65602144Y-88205925D01*
X65614408Y-88214833D01*
X65622270Y-88221293D01*
X65633392Y-88231278D01*
X65643420Y-88241745D01*
X65652354Y-88252692D01*
X65660193Y-88264121D01*
X65666939Y-88276030D01*
X65674232Y-88292657D01*
X65678426Y-88305688D01*
X65681525Y-88319200D01*
X65683531Y-88333192D01*
X65684442Y-88347666D01*
X65684503Y-88352598D01*
X65683088Y-88372735D01*
X65678841Y-88392116D01*
X65671764Y-88410739D01*
X65661855Y-88428604D01*
X65653677Y-88440094D01*
X65644240Y-88451247D01*
X65633545Y-88462064D01*
X65621592Y-88472544D01*
X65608380Y-88482687D01*
X65593911Y-88492494D01*
X65578183Y-88501964D01*
X65561196Y-88511097D01*
X65542952Y-88519894D01*
X65523450Y-88528355D01*
X65375389Y-88589220D01*
X65353242Y-88598535D01*
X65331851Y-88608102D01*
X65311216Y-88617919D01*
X65291336Y-88627987D01*
X65272213Y-88638307D01*
X65253846Y-88648878D01*
X65236235Y-88659700D01*
X65219379Y-88670773D01*
X65203280Y-88682097D01*
X65187937Y-88693672D01*
X65173350Y-88705498D01*
X65159519Y-88717576D01*
X65146443Y-88729904D01*
X65134124Y-88742484D01*
X65122561Y-88755315D01*
X65111754Y-88768397D01*
X65101609Y-88781791D01*
X65092119Y-88795559D01*
X65083283Y-88809702D01*
X65075102Y-88824218D01*
X65067575Y-88839109D01*
X65060703Y-88854373D01*
X65054485Y-88870012D01*
X65048922Y-88886024D01*
X65044014Y-88902410D01*
X65039759Y-88919171D01*
X65036160Y-88936305D01*
X65033214Y-88953814D01*
X65030924Y-88971696D01*
X65029287Y-88989952D01*
X65028306Y-89008583D01*
X65027978Y-89027587D01*
X65028506Y-89053038D01*
X65030089Y-89077927D01*
X65032727Y-89102256D01*
X65036420Y-89126023D01*
X65041169Y-89149230D01*
X65046972Y-89171875D01*
X65053831Y-89193960D01*
X65061745Y-89215483D01*
X65070714Y-89236446D01*
X65080739Y-89256847D01*
X65091818Y-89276688D01*
X65103953Y-89295967D01*
X65117143Y-89314686D01*
X65131389Y-89332843D01*
X65146689Y-89350440D01*
X65163045Y-89367475D01*
X65180354Y-89383873D01*
X65198174Y-89399212D01*
X65216504Y-89413493D01*
X65235344Y-89426717D01*
X65254694Y-89438882D01*
X65274555Y-89449990D01*
X65294925Y-89460040D01*
X65315806Y-89469032D01*
X65337198Y-89476966D01*
X65359099Y-89483842D01*
X65381511Y-89489660D01*
X65404433Y-89494421D01*
X65427865Y-89498123D01*
X65451808Y-89500768D01*
X65476260Y-89502355D01*
X65501223Y-89502884D01*
X65524857Y-89502427D01*
X65547973Y-89501056D01*
X65570570Y-89498772D01*
X65592650Y-89495575D01*
X65614211Y-89491463D01*
X65635253Y-89486438D01*
X65655778Y-89480500D01*
X65675784Y-89473648D01*
X65695272Y-89465882D01*
X65714241Y-89457203D01*
X65732693Y-89447610D01*
X65750626Y-89437103D01*
X65768041Y-89425683D01*
X65784937Y-89413349D01*
X65801316Y-89400101D01*
X65817176Y-89385940D01*
X65832161Y-89370994D01*
X65846428Y-89355304D01*
X65859976Y-89338873D01*
X65872805Y-89321698D01*
X65884916Y-89303781D01*
X65896308Y-89285121D01*
X65906982Y-89265719D01*
X65916937Y-89245574D01*
X65926173Y-89224686D01*
X65934691Y-89203056D01*
X65942490Y-89180683D01*
X65949571Y-89157567D01*
X65955933Y-89133709D01*
X65961576Y-89109108D01*
X65966501Y-89083764D01*
X65970707Y-89057678D01*
X65749472Y-89007755D01*
X65747456Y-89023766D01*
X65745256Y-89039144D01*
X65742872Y-89053888D01*
X65740304Y-89068000D01*
X65737551Y-89081479D01*
X65733076Y-89100509D01*
X65728186Y-89118116D01*
X65722882Y-89134297D01*
X65717163Y-89149055D01*
X65711029Y-89162387D01*
X65702205Y-89177948D01*
X65695103Y-89187957D01*
X65686218Y-89199592D01*
X65676831Y-89210477D01*
X65666941Y-89220611D01*
X65656550Y-89229994D01*
X65645656Y-89238627D01*
X65634259Y-89246509D01*
X65622361Y-89253640D01*
X65609960Y-89260021D01*
X65597057Y-89265651D01*
X65583652Y-89270530D01*
X65569745Y-89274659D01*
X65555335Y-89278037D01*
X65540424Y-89280664D01*
X65525010Y-89282541D01*
X65509093Y-89283667D01*
X65492675Y-89284042D01*
X65473243Y-89283423D01*
X65454443Y-89281566D01*
X65436274Y-89278470D01*
X65418736Y-89274136D01*
X65401829Y-89268565D01*
X65385553Y-89261755D01*
X65369908Y-89253706D01*
X65354894Y-89244420D01*
X65340512Y-89233895D01*
X65326761Y-89222132D01*
X65317944Y-89213602D01*
X65305477Y-89200064D01*
X65294238Y-89185865D01*
X65284224Y-89171005D01*
X65275436Y-89155483D01*
X65267875Y-89139301D01*
X65261540Y-89122457D01*
X65256430Y-89104952D01*
X65252548Y-89086785D01*
X65249891Y-89067958D01*
X65248460Y-89048469D01*
X65248188Y-89035110D01*
X65248609Y-89019077D01*
X65249871Y-89003550D01*
X65251975Y-88988527D01*
X65254920Y-88974009D01*
X65258706Y-88959996D01*
X65260156Y-88955438D01*
X65265113Y-88942050D01*
X65271007Y-88929071D01*
X65277839Y-88916501D01*
X65285609Y-88904339D01*
X65294316Y-88892586D01*
X65297427Y-88888759D01*
X65307445Y-88877491D01*
X65318521Y-88866512D01*
X65330654Y-88855821D01*
X65341573Y-88847132D01*
X65353228Y-88838644D01*
X65363080Y-88831997D01*
X65375958Y-88823729D01*
X65389587Y-88815595D01*
X65403967Y-88807594D01*
X65419099Y-88799727D01*
X65431745Y-88793529D01*
X65444873Y-88787417D01*
X65458481Y-88781390D01*
X65601070Y-88721551D01*
X65619751Y-88713356D01*
X65637839Y-88704927D01*
X65655334Y-88696264D01*
X65672236Y-88687367D01*
X65688545Y-88678237D01*
X65704261Y-88668873D01*
X65719384Y-88659276D01*
X65733914Y-88649444D01*
X65747850Y-88639379D01*
X65761194Y-88629080D01*
X65773945Y-88618547D01*
X65786102Y-88607781D01*
X65797667Y-88596781D01*
X65808638Y-88585547D01*
X65819017Y-88574079D01*
X65828802Y-88562378D01*
X65837994Y-88550443D01*
X65846593Y-88538274D01*
X65854600Y-88525871D01*
X65862013Y-88513235D01*
X65868833Y-88500364D01*
X65875060Y-88487260D01*
X65880694Y-88473923D01*
X65885735Y-88460351D01*
X65890183Y-88446546D01*
X65894038Y-88432507D01*
X65897299Y-88418235D01*
X65899968Y-88403728D01*
X65902044Y-88388988D01*
X65903526Y-88374014D01*
X65904416Y-88358807D01*
X65904713Y-88343365D01*
X65904214Y-88322635D01*
X65902720Y-88302332D01*
X65900229Y-88282457D01*
X65896741Y-88263009D01*
X65892257Y-88243989D01*
X65886777Y-88225396D01*
X65880300Y-88207230D01*
X65872827Y-88189492D01*
X65864357Y-88172181D01*
X65854891Y-88155298D01*
X65844428Y-88138842D01*
X65832969Y-88122814D01*
X65820514Y-88107213D01*
X65807062Y-88092039D01*
X65792614Y-88077293D01*
X65777169Y-88062974D01*
X65761027Y-88049186D01*
X65744402Y-88036287D01*
X65727292Y-88024278D01*
X65709700Y-88013158D01*
X65691624Y-88002928D01*
X65673064Y-87993587D01*
X65654021Y-87985136D01*
X65634495Y-87977575D01*
X65614484Y-87970903D01*
X65593991Y-87965121D01*
X65573013Y-87960228D01*
X65551553Y-87956225D01*
X65529608Y-87953111D01*
X65507181Y-87950888D01*
X65484269Y-87949553D01*
X65460874Y-87949108D01*
X65445019Y-87949357D01*
X65429383Y-87950103D01*
X65413964Y-87951347D01*
X65398764Y-87953089D01*
X65383783Y-87955328D01*
X65369020Y-87958064D01*
X65354475Y-87961298D01*
X65340148Y-87965030D01*
X65326040Y-87969259D01*
X65312151Y-87973986D01*
X65298479Y-87979210D01*
X65285027Y-87984932D01*
X65271792Y-87991151D01*
X65258776Y-87997868D01*
X65245978Y-88005083D01*
X65233399Y-88012795D01*
X65221038Y-88021004D01*
X65208895Y-88029711D01*
X65196971Y-88038916D01*
X65185266Y-88048618D01*
X65173778Y-88058818D01*
X65162509Y-88069515D01*
X65151459Y-88080710D01*
X65140626Y-88092403D01*
X65130012Y-88104593D01*
X65119617Y-88117280D01*
X65109440Y-88130465D01*
X65099481Y-88144148D01*
X65089741Y-88158328D01*
X65080219Y-88173006D01*
X65070916Y-88188181D01*
X65061831Y-88203854D01*
G37*
G36*
X64542424Y-87992877D02*
G01*
X64542424Y-88879527D01*
X64542178Y-88902850D01*
X64541441Y-88925374D01*
X64540212Y-88947099D01*
X64538491Y-88968025D01*
X64536279Y-88988153D01*
X64533576Y-89007482D01*
X64530381Y-89026012D01*
X64526694Y-89043744D01*
X64522516Y-89060676D01*
X64517847Y-89076810D01*
X64512686Y-89092146D01*
X64507033Y-89106682D01*
X64500889Y-89120420D01*
X64494253Y-89133359D01*
X64487126Y-89145499D01*
X64479507Y-89156840D01*
X64467539Y-89172244D01*
X64454973Y-89186653D01*
X64441808Y-89200069D01*
X64428045Y-89212491D01*
X64413683Y-89223919D01*
X64398723Y-89234354D01*
X64383165Y-89243795D01*
X64367008Y-89252242D01*
X64350253Y-89259695D01*
X64332900Y-89266154D01*
X64314948Y-89271620D01*
X64296398Y-89276092D01*
X64277249Y-89279570D01*
X64257502Y-89282055D01*
X64237157Y-89283545D01*
X64216213Y-89284042D01*
X64195144Y-89283545D01*
X64174678Y-89282055D01*
X64154816Y-89279570D01*
X64135558Y-89276092D01*
X64116903Y-89271620D01*
X64098853Y-89266154D01*
X64081406Y-89259695D01*
X64064563Y-89252242D01*
X64048323Y-89243795D01*
X64032687Y-89234354D01*
X64017655Y-89223919D01*
X64003227Y-89212491D01*
X63989403Y-89200069D01*
X63976182Y-89186653D01*
X63963565Y-89172244D01*
X63951551Y-89156840D01*
X63940307Y-89139994D01*
X63933426Y-89127710D01*
X63927036Y-89114586D01*
X63921137Y-89100620D01*
X63915731Y-89085812D01*
X63910815Y-89070163D01*
X63906391Y-89053672D01*
X63902459Y-89036340D01*
X63899018Y-89018167D01*
X63896069Y-88999152D01*
X63893611Y-88979295D01*
X63891645Y-88958597D01*
X63890170Y-88937057D01*
X63889187Y-88914676D01*
X63888696Y-88891454D01*
X63888634Y-88879527D01*
X63888634Y-87992877D01*
X63668425Y-87992877D01*
X63668425Y-88947573D01*
X63668567Y-88962132D01*
X63668994Y-88976531D01*
X63669705Y-88990770D01*
X63670701Y-89004848D01*
X63671981Y-89018766D01*
X63673546Y-89032524D01*
X63675395Y-89046121D01*
X63679948Y-89072835D01*
X63685638Y-89098908D01*
X63692466Y-89124340D01*
X63700432Y-89149131D01*
X63709536Y-89173280D01*
X63719778Y-89196789D01*
X63731158Y-89219656D01*
X63743677Y-89241882D01*
X63757333Y-89263467D01*
X63772127Y-89284411D01*
X63788059Y-89304713D01*
X63805130Y-89324375D01*
X63814092Y-89333965D01*
X63824380Y-89344358D01*
X63834816Y-89354420D01*
X63845399Y-89364153D01*
X63856129Y-89373556D01*
X63867005Y-89382628D01*
X63878029Y-89391371D01*
X63889199Y-89399784D01*
X63900517Y-89407867D01*
X63911981Y-89415620D01*
X63923592Y-89423043D01*
X63935351Y-89430137D01*
X63947256Y-89436900D01*
X63971507Y-89449437D01*
X63996346Y-89460654D01*
X64021772Y-89470552D01*
X64034706Y-89475006D01*
X64047786Y-89479130D01*
X64061014Y-89482924D01*
X64074388Y-89486388D01*
X64087909Y-89489522D01*
X64101578Y-89492326D01*
X64115393Y-89494801D01*
X64129355Y-89496945D01*
X64143464Y-89498760D01*
X64157720Y-89500244D01*
X64172123Y-89501399D01*
X64186673Y-89502224D01*
X64201369Y-89502719D01*
X64216213Y-89502884D01*
X64231035Y-89502719D01*
X64245709Y-89502224D01*
X64260236Y-89501399D01*
X64274615Y-89500244D01*
X64288847Y-89498760D01*
X64302931Y-89496945D01*
X64316867Y-89494801D01*
X64330656Y-89492326D01*
X64344297Y-89489522D01*
X64357791Y-89486388D01*
X64371137Y-89482924D01*
X64384335Y-89479130D01*
X64397386Y-89475006D01*
X64423045Y-89465768D01*
X64448113Y-89455210D01*
X64472591Y-89443333D01*
X64496479Y-89430137D01*
X64508202Y-89423043D01*
X64519777Y-89415620D01*
X64531204Y-89407867D01*
X64542483Y-89399784D01*
X64553616Y-89391371D01*
X64564600Y-89382628D01*
X64575437Y-89373556D01*
X64586126Y-89364153D01*
X64596668Y-89354420D01*
X64607062Y-89344358D01*
X64617309Y-89333965D01*
X64634906Y-89314624D01*
X64651369Y-89294642D01*
X64666696Y-89274019D01*
X64680888Y-89252755D01*
X64693945Y-89230849D01*
X64705866Y-89208302D01*
X64716651Y-89185115D01*
X64726302Y-89161286D01*
X64734817Y-89136816D01*
X64742197Y-89111704D01*
X64748441Y-89085952D01*
X64753550Y-89059558D01*
X64757524Y-89032524D01*
X64759085Y-89018766D01*
X64760362Y-89004848D01*
X64761356Y-88990770D01*
X64762065Y-88976531D01*
X64762491Y-88962132D01*
X64762633Y-88947573D01*
X64762633Y-87992877D01*
X64542424Y-87992877D01*
G37*
G36*
X63315543Y-89481000D02*
G01*
X62978048Y-89481000D01*
X62968652Y-89480972D01*
X62950155Y-89480753D01*
X62932053Y-89480315D01*
X62914347Y-89479658D01*
X62897037Y-89478782D01*
X62880121Y-89477686D01*
X62863601Y-89476372D01*
X62847477Y-89474839D01*
X62831747Y-89473086D01*
X62816413Y-89471115D01*
X62801475Y-89468924D01*
X62786932Y-89466514D01*
X62772784Y-89463886D01*
X62759032Y-89461038D01*
X62745675Y-89457971D01*
X62726380Y-89452960D01*
X62714996Y-89449191D01*
X62698185Y-89442866D01*
X62681693Y-89435735D01*
X62665519Y-89427799D01*
X62649664Y-89419058D01*
X62634128Y-89409511D01*
X62618910Y-89399158D01*
X62604010Y-89388001D01*
X62589429Y-89376037D01*
X62575167Y-89363269D01*
X62561223Y-89349695D01*
X62546400Y-89334438D01*
X62532533Y-89318760D01*
X62519622Y-89302659D01*
X62507667Y-89286136D01*
X62496669Y-89269192D01*
X62486627Y-89251825D01*
X62477542Y-89234036D01*
X62469413Y-89215825D01*
X62462240Y-89197192D01*
X62456023Y-89178137D01*
X62450763Y-89158660D01*
X62446460Y-89138760D01*
X62443113Y-89118439D01*
X62440722Y-89097695D01*
X62439287Y-89076530D01*
X62438809Y-89054942D01*
X62438978Y-89044684D01*
X62659018Y-89044684D01*
X62659312Y-89056608D01*
X62660855Y-89074008D01*
X62663720Y-89090825D01*
X62667907Y-89107058D01*
X62673417Y-89122709D01*
X62680249Y-89137777D01*
X62688404Y-89152262D01*
X62697881Y-89166163D01*
X62708680Y-89179482D01*
X62720801Y-89192217D01*
X62734245Y-89204370D01*
X62743449Y-89211368D01*
X62758433Y-89221018D01*
X62774829Y-89229652D01*
X62792638Y-89237271D01*
X62811859Y-89243873D01*
X62825458Y-89247711D01*
X62839684Y-89251097D01*
X62854538Y-89254031D01*
X62870021Y-89256515D01*
X62886131Y-89258546D01*
X62902868Y-89260126D01*
X62920234Y-89261255D01*
X62938227Y-89261932D01*
X62956848Y-89262158D01*
X63095334Y-89262158D01*
X63095334Y-88824475D01*
X62982152Y-88824475D01*
X62970975Y-88824536D01*
X62949267Y-88825028D01*
X62928420Y-88826011D01*
X62908432Y-88827485D01*
X62889305Y-88829452D01*
X62871038Y-88831909D01*
X62853631Y-88834858D01*
X62837084Y-88838299D01*
X62821398Y-88842232D01*
X62806571Y-88846655D01*
X62792605Y-88851571D01*
X62779499Y-88856978D01*
X62761453Y-88866010D01*
X62745343Y-88876148D01*
X62731168Y-88887392D01*
X62722431Y-88895459D01*
X62710382Y-88908002D01*
X62699602Y-88921073D01*
X62690090Y-88934673D01*
X62681847Y-88948802D01*
X62674871Y-88963460D01*
X62669164Y-88978647D01*
X62664725Y-88994363D01*
X62661555Y-89010608D01*
X62659652Y-89027381D01*
X62659018Y-89044684D01*
X62438978Y-89044684D01*
X62439080Y-89038484D01*
X62439893Y-89022276D01*
X62441249Y-89006320D01*
X62443147Y-88990615D01*
X62445588Y-88975161D01*
X62448570Y-88959958D01*
X62452095Y-88945006D01*
X62456162Y-88930305D01*
X62460772Y-88915856D01*
X62465924Y-88901657D01*
X62471618Y-88887710D01*
X62477854Y-88874013D01*
X62484633Y-88860568D01*
X62491954Y-88847374D01*
X62499817Y-88834431D01*
X62508223Y-88821739D01*
X62516968Y-88809325D01*
X62526105Y-88797387D01*
X62535635Y-88785924D01*
X62545558Y-88774936D01*
X62555874Y-88764424D01*
X62566582Y-88754388D01*
X62577683Y-88744827D01*
X62589177Y-88735741D01*
X62601063Y-88727131D01*
X62613343Y-88718997D01*
X62626014Y-88711338D01*
X62639079Y-88704155D01*
X62652536Y-88697447D01*
X62666386Y-88691214D01*
X62680629Y-88685457D01*
X62695264Y-88680176D01*
X62680109Y-88666094D01*
X62665932Y-88651629D01*
X62652732Y-88636783D01*
X62640511Y-88621555D01*
X62629267Y-88605944D01*
X62619001Y-88589952D01*
X62609712Y-88573578D01*
X62601401Y-88556821D01*
X62594068Y-88539683D01*
X62587713Y-88522162D01*
X62582336Y-88504260D01*
X62577936Y-88485976D01*
X62574514Y-88467309D01*
X62572069Y-88448261D01*
X62570603Y-88428830D01*
X62570114Y-88409018D01*
X62570155Y-88405940D01*
X62790323Y-88405940D01*
X62790546Y-88419578D01*
X62791717Y-88439243D01*
X62793892Y-88457958D01*
X62797071Y-88475723D01*
X62801253Y-88492539D01*
X62806439Y-88508405D01*
X62812629Y-88523322D01*
X62819823Y-88537289D01*
X62828021Y-88550306D01*
X62837222Y-88562373D01*
X62847427Y-88573491D01*
X62854779Y-88580364D01*
X62866768Y-88589843D01*
X62879911Y-88598324D01*
X62894209Y-88605807D01*
X62909660Y-88612293D01*
X62926266Y-88617781D01*
X62944025Y-88622271D01*
X62962939Y-88625763D01*
X62983006Y-88628257D01*
X62997026Y-88629366D01*
X63011558Y-88630031D01*
X63026604Y-88630253D01*
X63095334Y-88630253D01*
X63095334Y-88187099D01*
X63018397Y-88187099D01*
X63004671Y-88187316D01*
X62984864Y-88188459D01*
X62965995Y-88190582D01*
X62948063Y-88193685D01*
X62931069Y-88197767D01*
X62915012Y-88202829D01*
X62899894Y-88208871D01*
X62885712Y-88215892D01*
X62872469Y-88223893D01*
X62860163Y-88232874D01*
X62848795Y-88242835D01*
X62841714Y-88250004D01*
X62831950Y-88261513D01*
X62823214Y-88273930D01*
X62815505Y-88287255D01*
X62808824Y-88301487D01*
X62803171Y-88316627D01*
X62798546Y-88332674D01*
X62794948Y-88349629D01*
X62792379Y-88367492D01*
X62790837Y-88386262D01*
X62790323Y-88405940D01*
X62570155Y-88405940D01*
X62570259Y-88398082D01*
X62571024Y-88381704D01*
X62572443Y-88365356D01*
X62574518Y-88349038D01*
X62577248Y-88332750D01*
X62580633Y-88316492D01*
X62584673Y-88300265D01*
X62589368Y-88284067D01*
X62594719Y-88267899D01*
X62600724Y-88251762D01*
X62607385Y-88235654D01*
X62612019Y-88225163D01*
X62619355Y-88209838D01*
X62627154Y-88195006D01*
X62635415Y-88180667D01*
X62644140Y-88166820D01*
X62653327Y-88153466D01*
X62662977Y-88140605D01*
X62673090Y-88128237D01*
X62683666Y-88116362D01*
X62694705Y-88104980D01*
X62706206Y-88094091D01*
X62713966Y-88087335D01*
X62726018Y-88077672D01*
X62738562Y-88068574D01*
X62751599Y-88060041D01*
X62765129Y-88052072D01*
X62779152Y-88044669D01*
X62793668Y-88037831D01*
X62808676Y-88031558D01*
X62824178Y-88025850D01*
X62840172Y-88020707D01*
X62856660Y-88016129D01*
X62862232Y-88014698D01*
X62879655Y-88010679D01*
X62898136Y-88007069D01*
X62917674Y-88003867D01*
X62931288Y-88001959D01*
X62945372Y-88000234D01*
X62959925Y-87998690D01*
X62974949Y-87997327D01*
X62990444Y-87996146D01*
X63006408Y-87995147D01*
X63022842Y-87994330D01*
X63039747Y-87993694D01*
X63057122Y-87993240D01*
X63074967Y-87992968D01*
X63093282Y-87992877D01*
X63315543Y-87992877D01*
X63315543Y-89481000D01*
G37*
G36*
X61936841Y-87992877D02*
G01*
X61936841Y-89262158D01*
X61500526Y-89262158D01*
X61500526Y-89481000D01*
X62157050Y-89481000D01*
X62157050Y-87992877D01*
X61936841Y-87992877D01*
G37*
G36*
X60467867Y-88211718D02*
G01*
X61068313Y-88211718D01*
X61068313Y-88561865D01*
X60489751Y-88561865D01*
X60489751Y-88780706D01*
X61068313Y-88780706D01*
X61068313Y-89262158D01*
X60467867Y-89262158D01*
X60467867Y-89481000D01*
X61288523Y-89481000D01*
X61288523Y-87992877D01*
X60467867Y-87992877D01*
X60467867Y-88211718D01*
G37*
G36*
X59498815Y-87949323D02*
G01*
X59517809Y-87949966D01*
X59536644Y-87951038D01*
X59555320Y-87952538D01*
X59573836Y-87954468D01*
X59592192Y-87956826D01*
X59610389Y-87959613D01*
X59628426Y-87962829D01*
X59646303Y-87966473D01*
X59664021Y-87970546D01*
X59681579Y-87975048D01*
X59698977Y-87979979D01*
X59716216Y-87985339D01*
X59733296Y-87991127D01*
X59750215Y-87997344D01*
X59766975Y-88003990D01*
X59783576Y-88011064D01*
X59800017Y-88018568D01*
X59816298Y-88026500D01*
X59832419Y-88034860D01*
X59848381Y-88043650D01*
X59864184Y-88052868D01*
X59879827Y-88062516D01*
X59895310Y-88072591D01*
X59910633Y-88083096D01*
X59925797Y-88094029D01*
X59940801Y-88105392D01*
X59955646Y-88117183D01*
X59970331Y-88129402D01*
X59984857Y-88142051D01*
X59999222Y-88155128D01*
X60013429Y-88168634D01*
X60027755Y-88182870D01*
X60041627Y-88197326D01*
X60055043Y-88212002D01*
X60068005Y-88226897D01*
X60080513Y-88242012D01*
X60092565Y-88257347D01*
X60104163Y-88272902D01*
X60115305Y-88288676D01*
X60125993Y-88304670D01*
X60136226Y-88320884D01*
X60146005Y-88337317D01*
X60155328Y-88353971D01*
X60164197Y-88370844D01*
X60172611Y-88387936D01*
X60180570Y-88405249D01*
X60188074Y-88422781D01*
X60195124Y-88440533D01*
X60201719Y-88458504D01*
X60207859Y-88476695D01*
X60213544Y-88495106D01*
X60218774Y-88513737D01*
X60223549Y-88532588D01*
X60227870Y-88551658D01*
X60231736Y-88570948D01*
X60235147Y-88590457D01*
X60238103Y-88610187D01*
X60240605Y-88630136D01*
X60242651Y-88650304D01*
X60244243Y-88670693D01*
X60245380Y-88691301D01*
X60246062Y-88712129D01*
X60246290Y-88733177D01*
X60246049Y-88754663D01*
X60245327Y-88775907D01*
X60244123Y-88796911D01*
X60242438Y-88817673D01*
X60240271Y-88838195D01*
X60237622Y-88858475D01*
X60234492Y-88878514D01*
X60230881Y-88898312D01*
X60226788Y-88917869D01*
X60222214Y-88937185D01*
X60217158Y-88956260D01*
X60211620Y-88975094D01*
X60205601Y-88993687D01*
X60199101Y-89012038D01*
X60192119Y-89030149D01*
X60184655Y-89048018D01*
X60176710Y-89065646D01*
X60168283Y-89083033D01*
X60159375Y-89100180D01*
X60149986Y-89117085D01*
X60140114Y-89133748D01*
X60129762Y-89150171D01*
X60118927Y-89166353D01*
X60107612Y-89182294D01*
X60095814Y-89197993D01*
X60083536Y-89213451D01*
X60070775Y-89228669D01*
X60057533Y-89243645D01*
X60043810Y-89258380D01*
X60029605Y-89272874D01*
X60014919Y-89287127D01*
X59999751Y-89301139D01*
X59985538Y-89313551D01*
X59971196Y-89325569D01*
X59956725Y-89337193D01*
X59942123Y-89348423D01*
X59927393Y-89359259D01*
X59912532Y-89369701D01*
X59897542Y-89379749D01*
X59882423Y-89389402D01*
X59867174Y-89398662D01*
X59851795Y-89407528D01*
X59836287Y-89416000D01*
X59820649Y-89424077D01*
X59804882Y-89431761D01*
X59788985Y-89439050D01*
X59772959Y-89445946D01*
X59756803Y-89452448D01*
X59740517Y-89458555D01*
X59724102Y-89464268D01*
X59707557Y-89469588D01*
X59690883Y-89474513D01*
X59674079Y-89479045D01*
X59657146Y-89483182D01*
X59640083Y-89486925D01*
X59622890Y-89490275D01*
X59605568Y-89493230D01*
X59588117Y-89495791D01*
X59570535Y-89497958D01*
X59552825Y-89499731D01*
X59534984Y-89501111D01*
X59517015Y-89502096D01*
X59498915Y-89502687D01*
X59480686Y-89502884D01*
X59466643Y-89502762D01*
X59452682Y-89502397D01*
X59438802Y-89501790D01*
X59425003Y-89500939D01*
X59411286Y-89499845D01*
X59384097Y-89496928D01*
X59357233Y-89493038D01*
X59330695Y-89488176D01*
X59304483Y-89482342D01*
X59278598Y-89475535D01*
X59253038Y-89467756D01*
X59227803Y-89459004D01*
X59202895Y-89449281D01*
X59178313Y-89438584D01*
X59154057Y-89426916D01*
X59130126Y-89414274D01*
X59106522Y-89400661D01*
X59094842Y-89393490D01*
X59083243Y-89386075D01*
X59071726Y-89378418D01*
X58956150Y-89502884D01*
X58680547Y-89502884D01*
X58920246Y-89254293D01*
X58907498Y-89240189D01*
X58895154Y-89225956D01*
X58883215Y-89211597D01*
X58871680Y-89197109D01*
X58860551Y-89182494D01*
X58849825Y-89167752D01*
X58839505Y-89152882D01*
X58829590Y-89137884D01*
X58820079Y-89122759D01*
X58810973Y-89107506D01*
X58802271Y-89092126D01*
X58793974Y-89076618D01*
X58786082Y-89060983D01*
X58778595Y-89045220D01*
X58771513Y-89029329D01*
X58764835Y-89013311D01*
X58758562Y-88997165D01*
X58752693Y-88980892D01*
X58747229Y-88964491D01*
X58742171Y-88947963D01*
X58737516Y-88931307D01*
X58733267Y-88914524D01*
X58729422Y-88897613D01*
X58725982Y-88880574D01*
X58722946Y-88863408D01*
X58720316Y-88846114D01*
X58718090Y-88828693D01*
X58716269Y-88811144D01*
X58714852Y-88793468D01*
X58713840Y-88775664D01*
X58713233Y-88757733D01*
X58713031Y-88739674D01*
X58713151Y-88729073D01*
X58933240Y-88729073D01*
X58933792Y-88755945D01*
X58935447Y-88782277D01*
X58938205Y-88808070D01*
X58942066Y-88833322D01*
X58947031Y-88858036D01*
X58953099Y-88882209D01*
X58960271Y-88905843D01*
X58968545Y-88928937D01*
X58977923Y-88951492D01*
X58988405Y-88973507D01*
X58999989Y-88994983D01*
X59012677Y-89015918D01*
X59026468Y-89036315D01*
X59041363Y-89056171D01*
X59057360Y-89075488D01*
X59074461Y-89094265D01*
X59288516Y-88880211D01*
X59576087Y-88880211D01*
X59229360Y-89217706D01*
X59244003Y-89225739D01*
X59258869Y-89233253D01*
X59273955Y-89240250D01*
X59289264Y-89246728D01*
X59304794Y-89252688D01*
X59320546Y-89258129D01*
X59336520Y-89263053D01*
X59352715Y-89267458D01*
X59369132Y-89271345D01*
X59385771Y-89274714D01*
X59402632Y-89277564D01*
X59419714Y-89279896D01*
X59437018Y-89281710D01*
X59454544Y-89283006D01*
X59472291Y-89283783D01*
X59490260Y-89284042D01*
X59516578Y-89283428D01*
X59542529Y-89281584D01*
X59568115Y-89278512D01*
X59593334Y-89274211D01*
X59618187Y-89268681D01*
X59642675Y-89261923D01*
X59666796Y-89253935D01*
X59690552Y-89244719D01*
X59713941Y-89234274D01*
X59736965Y-89222600D01*
X59759622Y-89209697D01*
X59781914Y-89195565D01*
X59803839Y-89180205D01*
X59825399Y-89163615D01*
X59836042Y-89154860D01*
X59846593Y-89145797D01*
X59857052Y-89136427D01*
X59867420Y-89126750D01*
X59886633Y-89107346D01*
X59904606Y-89087261D01*
X59921340Y-89066495D01*
X59936834Y-89045047D01*
X59951089Y-89022919D01*
X59964104Y-89000109D01*
X59975879Y-88976618D01*
X59986415Y-88952446D01*
X59995712Y-88927592D01*
X60003769Y-88902058D01*
X60010586Y-88875842D01*
X60013530Y-88862478D01*
X60016164Y-88848945D01*
X60018488Y-88835241D01*
X60020502Y-88821367D01*
X60022207Y-88807322D01*
X60023601Y-88793107D01*
X60024686Y-88778722D01*
X60025461Y-88764166D01*
X60025925Y-88749441D01*
X60026080Y-88734545D01*
X60025930Y-88719304D01*
X60025479Y-88704229D01*
X60024728Y-88689320D01*
X60023676Y-88674577D01*
X60022324Y-88659999D01*
X60020671Y-88645587D01*
X60018717Y-88631340D01*
X60016463Y-88617259D01*
X60013909Y-88603344D01*
X60011054Y-88589594D01*
X60007898Y-88576010D01*
X60004442Y-88562591D01*
X60000685Y-88549339D01*
X59992270Y-88523330D01*
X59982653Y-88497983D01*
X59971834Y-88473300D01*
X59959813Y-88449278D01*
X59946589Y-88425920D01*
X59932164Y-88403223D01*
X59916536Y-88381190D01*
X59899706Y-88359818D01*
X59890840Y-88349381D01*
X59881674Y-88339110D01*
X59872207Y-88329004D01*
X59862593Y-88319095D01*
X59842867Y-88300222D01*
X59822479Y-88282606D01*
X59801428Y-88266249D01*
X59779715Y-88251151D01*
X59757340Y-88237310D01*
X59734301Y-88224728D01*
X59710601Y-88213404D01*
X59686237Y-88203338D01*
X59661212Y-88194530D01*
X59635523Y-88186981D01*
X59609173Y-88180690D01*
X59595749Y-88178016D01*
X59582159Y-88175657D01*
X59568404Y-88173612D01*
X59554484Y-88171882D01*
X59540397Y-88170466D01*
X59526145Y-88169365D01*
X59511728Y-88168579D01*
X59497145Y-88168107D01*
X59482396Y-88167950D01*
X59467852Y-88168108D01*
X59453458Y-88168580D01*
X59439212Y-88169368D01*
X59425115Y-88170472D01*
X59411168Y-88171890D01*
X59397369Y-88173624D01*
X59383719Y-88175673D01*
X59370218Y-88178037D01*
X59343663Y-88183711D01*
X59317704Y-88190646D01*
X59292340Y-88198842D01*
X59267572Y-88208299D01*
X59243400Y-88219017D01*
X59219823Y-88230995D01*
X59196842Y-88244235D01*
X59174457Y-88258735D01*
X59152668Y-88274496D01*
X59131475Y-88291519D01*
X59121101Y-88300502D01*
X59110877Y-88309802D01*
X59100801Y-88319416D01*
X59090874Y-88329346D01*
X59081176Y-88339487D01*
X59071786Y-88349781D01*
X59062704Y-88360225D01*
X59053929Y-88370822D01*
X59045462Y-88381570D01*
X59029453Y-88403521D01*
X59014674Y-88426078D01*
X59001128Y-88449242D01*
X58988812Y-88473012D01*
X58977729Y-88497389D01*
X58967877Y-88522372D01*
X58959256Y-88547961D01*
X58951867Y-88574157D01*
X58948634Y-88587482D01*
X58945709Y-88600959D01*
X58943092Y-88614588D01*
X58940783Y-88628368D01*
X58938782Y-88642300D01*
X58937089Y-88656383D01*
X58935703Y-88670618D01*
X58934626Y-88685004D01*
X58933856Y-88699542D01*
X58933394Y-88714232D01*
X58933240Y-88729073D01*
X58713151Y-88729073D01*
X58713291Y-88716729D01*
X58714070Y-88694055D01*
X58715369Y-88671654D01*
X58717188Y-88649524D01*
X58719526Y-88627667D01*
X58722383Y-88606081D01*
X58725761Y-88584766D01*
X58729658Y-88563724D01*
X58734074Y-88542954D01*
X58739010Y-88522455D01*
X58744466Y-88502228D01*
X58750441Y-88482273D01*
X58756936Y-88462590D01*
X58763950Y-88443178D01*
X58771485Y-88424039D01*
X58779538Y-88405171D01*
X58788111Y-88386575D01*
X58797204Y-88368251D01*
X58806817Y-88350198D01*
X58816949Y-88332418D01*
X58827600Y-88314909D01*
X58838771Y-88297672D01*
X58850462Y-88280707D01*
X58862672Y-88264014D01*
X58875402Y-88247592D01*
X58888652Y-88231443D01*
X58902421Y-88215565D01*
X58916709Y-88199959D01*
X58931518Y-88184625D01*
X58946846Y-88169562D01*
X58962693Y-88154772D01*
X58979060Y-88140253D01*
X58992944Y-88128493D01*
X59006942Y-88117106D01*
X59021053Y-88106093D01*
X59035277Y-88095453D01*
X59049615Y-88085187D01*
X59064067Y-88075294D01*
X59078632Y-88065774D01*
X59093311Y-88056627D01*
X59108103Y-88047854D01*
X59123009Y-88039454D01*
X59138028Y-88031427D01*
X59153161Y-88023774D01*
X59168407Y-88016494D01*
X59183767Y-88009588D01*
X59199241Y-88003054D01*
X59214828Y-87996894D01*
X59230528Y-87991108D01*
X59246342Y-87985695D01*
X59262270Y-87980655D01*
X59278311Y-87975988D01*
X59294466Y-87971695D01*
X59310734Y-87967775D01*
X59327116Y-87964228D01*
X59343611Y-87961055D01*
X59360220Y-87958255D01*
X59376942Y-87955828D01*
X59393778Y-87953775D01*
X59410727Y-87952095D01*
X59427790Y-87950788D01*
X59444967Y-87949855D01*
X59462257Y-87949295D01*
X59479660Y-87949108D01*
X59498815Y-87949323D01*
G37*
G36*
X58103352Y-89262158D02*
G01*
X57553170Y-89262158D01*
X57553170Y-89481000D01*
X58545480Y-89481000D01*
X58032570Y-88853882D01*
X58023220Y-88842309D01*
X58014063Y-88830929D01*
X58005097Y-88819741D01*
X57996325Y-88808745D01*
X57987744Y-88797942D01*
X57975234Y-88782098D01*
X57963156Y-88766687D01*
X57951512Y-88751708D01*
X57940300Y-88737162D01*
X57929521Y-88723049D01*
X57919174Y-88709369D01*
X57909261Y-88696122D01*
X57906052Y-88691802D01*
X57896649Y-88679110D01*
X57887672Y-88666810D01*
X57879122Y-88654900D01*
X57870998Y-88643380D01*
X57860831Y-88628629D01*
X57851422Y-88614572D01*
X57842772Y-88601209D01*
X57834881Y-88588541D01*
X57827748Y-88576568D01*
X57818032Y-88559737D01*
X57809271Y-88543225D01*
X57801467Y-88527031D01*
X57794617Y-88511156D01*
X57788724Y-88495600D01*
X57783786Y-88480362D01*
X57779804Y-88465442D01*
X57776778Y-88450841D01*
X57774707Y-88436559D01*
X57773592Y-88422595D01*
X57773380Y-88413463D01*
X57774020Y-88394206D01*
X57775940Y-88375544D01*
X57779141Y-88357477D01*
X57783622Y-88340005D01*
X57789383Y-88323128D01*
X57796425Y-88306846D01*
X57804746Y-88291159D01*
X57814348Y-88276067D01*
X57825231Y-88261570D01*
X57837393Y-88247669D01*
X57846213Y-88238732D01*
X57860109Y-88226082D01*
X57874611Y-88214677D01*
X57889721Y-88204516D01*
X57905438Y-88195599D01*
X57921762Y-88187926D01*
X57938693Y-88181498D01*
X57956231Y-88176314D01*
X57974376Y-88172374D01*
X57993129Y-88169678D01*
X58012488Y-88168226D01*
X58025731Y-88167950D01*
X58039543Y-88168210D01*
X58066046Y-88170288D01*
X58091056Y-88174445D01*
X58114572Y-88180680D01*
X58136595Y-88188993D01*
X58157125Y-88199385D01*
X58176161Y-88211855D01*
X58193704Y-88226404D01*
X58209754Y-88243030D01*
X58224311Y-88261736D01*
X58237374Y-88282519D01*
X58248944Y-88305381D01*
X58259020Y-88330321D01*
X58263499Y-88343571D01*
X58267604Y-88357340D01*
X58271335Y-88371629D01*
X58274693Y-88386437D01*
X58277678Y-88401765D01*
X58280290Y-88417612D01*
X58282528Y-88433979D01*
X58504447Y-88433979D01*
X58500735Y-88405663D01*
X58496308Y-88378246D01*
X58491166Y-88351727D01*
X58485309Y-88326108D01*
X58478738Y-88301387D01*
X58471453Y-88277566D01*
X58463453Y-88254643D01*
X58454738Y-88232619D01*
X58445308Y-88211495D01*
X58435164Y-88191269D01*
X58424306Y-88171942D01*
X58412733Y-88153514D01*
X58400445Y-88135985D01*
X58387442Y-88119354D01*
X58373725Y-88103623D01*
X58359294Y-88088791D01*
X58344148Y-88074857D01*
X58328287Y-88061823D01*
X58311711Y-88049687D01*
X58294421Y-88038451D01*
X58276417Y-88028113D01*
X58257698Y-88018674D01*
X58238264Y-88010135D01*
X58218115Y-88002494D01*
X58197252Y-87995752D01*
X58175675Y-87989909D01*
X58153383Y-87984965D01*
X58130376Y-87980919D01*
X58106654Y-87977773D01*
X58082218Y-87975526D01*
X58057068Y-87974178D01*
X58031202Y-87973728D01*
X58006153Y-87974228D01*
X57981610Y-87975726D01*
X57957576Y-87978224D01*
X57934049Y-87981721D01*
X57911029Y-87986217D01*
X57888517Y-87991712D01*
X57866513Y-87998206D01*
X57845016Y-88005699D01*
X57824027Y-88014192D01*
X57803545Y-88023683D01*
X57783571Y-88034174D01*
X57764105Y-88045664D01*
X57745146Y-88058152D01*
X57726694Y-88071640D01*
X57708750Y-88086127D01*
X57691314Y-88101614D01*
X57674586Y-88117837D01*
X57658937Y-88134536D01*
X57644367Y-88151710D01*
X57630876Y-88169360D01*
X57618465Y-88187486D01*
X57607133Y-88206087D01*
X57596880Y-88225163D01*
X57587706Y-88244715D01*
X57579612Y-88264743D01*
X57572597Y-88285246D01*
X57566661Y-88306225D01*
X57561804Y-88327679D01*
X57558027Y-88349608D01*
X57555329Y-88372013D01*
X57553710Y-88394894D01*
X57553170Y-88418250D01*
X57553423Y-88433234D01*
X57554180Y-88448180D01*
X57555442Y-88463090D01*
X57557210Y-88477961D01*
X57559482Y-88492796D01*
X57562258Y-88507593D01*
X57565540Y-88522352D01*
X57569327Y-88537074D01*
X57573619Y-88551759D01*
X57578415Y-88566406D01*
X57583717Y-88581016D01*
X57589523Y-88595589D01*
X57595834Y-88610124D01*
X57602650Y-88624621D01*
X57609971Y-88639082D01*
X57617797Y-88653505D01*
X57626399Y-88668978D01*
X57633482Y-88681031D01*
X57641105Y-88693469D01*
X57649270Y-88706292D01*
X57657975Y-88719499D01*
X57667221Y-88733091D01*
X57677009Y-88747068D01*
X57687337Y-88761430D01*
X57698206Y-88776176D01*
X57709617Y-88791307D01*
X57713540Y-88796436D01*
X57725629Y-88812152D01*
X57738300Y-88828396D01*
X57747072Y-88839520D01*
X57756102Y-88850879D01*
X57765392Y-88862473D01*
X57774941Y-88874302D01*
X57784749Y-88886366D01*
X57794816Y-88898665D01*
X57805143Y-88911199D01*
X57815728Y-88923969D01*
X57826573Y-88936973D01*
X57837676Y-88950212D01*
X57849039Y-88963687D01*
X57860661Y-88977397D01*
X57872542Y-88991341D01*
X58103352Y-89262158D01*
G37*
G36*
X57391091Y-89262158D02*
G01*
X56665494Y-89262158D01*
X56665494Y-89470057D01*
X56445285Y-89470057D01*
X56445285Y-89262158D01*
X56282521Y-89262158D01*
X56282521Y-89067936D01*
X56445285Y-89067936D01*
X56445285Y-88570413D01*
X56665494Y-88570413D01*
X56665494Y-89067936D01*
X57006408Y-89067936D01*
X56665494Y-88570413D01*
X56445285Y-88570413D01*
X56445285Y-87886875D01*
X57391091Y-89262158D01*
G37*
G36*
X54847057Y-88408676D02*
G01*
X54831765Y-88409042D01*
X54816748Y-88410140D01*
X54802005Y-88411970D01*
X54787538Y-88414531D01*
X54773347Y-88417825D01*
X54759430Y-88421851D01*
X54745788Y-88426609D01*
X54732422Y-88432099D01*
X54719331Y-88438320D01*
X54706515Y-88445274D01*
X54693974Y-88452960D01*
X54681708Y-88461377D01*
X54669717Y-88470527D01*
X54658002Y-88480408D01*
X54646562Y-88491022D01*
X54635396Y-88502367D01*
X54624506Y-88514139D01*
X54614319Y-88526202D01*
X54604834Y-88538555D01*
X54596052Y-88551201D01*
X54587972Y-88564137D01*
X54580595Y-88577364D01*
X54573921Y-88590883D01*
X54567949Y-88604693D01*
X54562679Y-88618794D01*
X54558113Y-88633186D01*
X54554249Y-88647869D01*
X54551087Y-88662844D01*
X54548628Y-88678110D01*
X54546871Y-88693667D01*
X54545818Y-88709515D01*
X54545466Y-88725654D01*
X54545818Y-88742079D01*
X54546871Y-88758186D01*
X54548628Y-88773976D01*
X54551087Y-88789447D01*
X54554249Y-88804601D01*
X54558113Y-88819436D01*
X54562679Y-88833954D01*
X54567949Y-88848154D01*
X54573921Y-88862036D01*
X54580595Y-88875600D01*
X54587972Y-88888846D01*
X54596052Y-88901775D01*
X54604834Y-88914385D01*
X54614319Y-88926677D01*
X54624506Y-88938652D01*
X54635396Y-88950309D01*
X54646741Y-88961571D01*
X54658376Y-88972107D01*
X54670302Y-88981917D01*
X54682520Y-88991000D01*
X54695029Y-88999356D01*
X54707829Y-89006985D01*
X54720920Y-89013888D01*
X54734303Y-89020064D01*
X54747976Y-89025514D01*
X54761941Y-89030237D01*
X54776197Y-89034234D01*
X54790744Y-89037503D01*
X54805582Y-89040047D01*
X54820712Y-89041863D01*
X54836133Y-89042953D01*
X54851844Y-89043316D01*
X54867357Y-89042953D01*
X54882608Y-89041863D01*
X54897598Y-89040047D01*
X54912325Y-89037503D01*
X54926791Y-89034234D01*
X54940995Y-89030237D01*
X54954937Y-89025514D01*
X54968617Y-89020064D01*
X54982035Y-89013888D01*
X54995192Y-89006985D01*
X55008087Y-88999356D01*
X55020720Y-88991000D01*
X55033091Y-88981917D01*
X55045201Y-88972107D01*
X55057049Y-88961571D01*
X55068634Y-88950309D01*
X55079483Y-88938414D01*
X55089632Y-88926239D01*
X55099080Y-88913784D01*
X55107829Y-88901048D01*
X55115878Y-88888031D01*
X55123227Y-88874735D01*
X55129876Y-88861157D01*
X55135826Y-88847299D01*
X55141075Y-88833161D01*
X55145624Y-88818742D01*
X55149474Y-88804042D01*
X55152623Y-88789063D01*
X55155073Y-88773802D01*
X55156823Y-88758261D01*
X55157873Y-88742440D01*
X55158223Y-88726338D01*
X55157869Y-88709911D01*
X55156807Y-88693800D01*
X55155037Y-88678004D01*
X55152559Y-88662523D01*
X55149374Y-88647358D01*
X55145480Y-88632507D01*
X55140879Y-88617972D01*
X55135569Y-88603752D01*
X55129552Y-88589848D01*
X55122827Y-88576258D01*
X55115393Y-88562984D01*
X55107252Y-88550025D01*
X55098403Y-88537381D01*
X55088846Y-88525053D01*
X55078581Y-88513040D01*
X55067609Y-88501341D01*
X55056008Y-88490120D01*
X55044116Y-88479623D01*
X55031933Y-88469850D01*
X55019459Y-88460800D01*
X55006694Y-88452475D01*
X54993637Y-88444873D01*
X54980290Y-88437996D01*
X54966651Y-88431842D01*
X54952721Y-88426413D01*
X54938500Y-88421707D01*
X54923987Y-88417725D01*
X54909184Y-88414467D01*
X54894089Y-88411933D01*
X54878703Y-88410124D01*
X54863026Y-88409038D01*
X54847057Y-88408676D01*
G37*
G36*
X53382870Y-88539981D02*
G01*
X53162661Y-88539981D01*
X53162661Y-88629569D01*
X53151625Y-88617998D01*
X53140830Y-88607137D01*
X53130275Y-88596985D01*
X53119961Y-88587542D01*
X53106583Y-88576055D01*
X53093632Y-88565829D01*
X53081108Y-88556864D01*
X53069012Y-88549160D01*
X53057343Y-88542716D01*
X53042278Y-88535624D01*
X53026362Y-88529733D01*
X53013015Y-88525886D01*
X52999124Y-88522809D01*
X52984688Y-88520501D01*
X52969707Y-88518962D01*
X52954180Y-88518193D01*
X52946213Y-88518096D01*
X52930182Y-88518568D01*
X52914020Y-88519984D01*
X52897725Y-88522343D01*
X52881298Y-88525646D01*
X52864738Y-88529892D01*
X52848047Y-88535083D01*
X52831223Y-88541217D01*
X52814267Y-88548294D01*
X52797179Y-88556315D01*
X52779958Y-88565280D01*
X52768404Y-88571781D01*
X52866883Y-88780706D01*
X52878335Y-88772885D01*
X52893530Y-88763652D01*
X52908640Y-88755788D01*
X52923664Y-88749291D01*
X52938602Y-88744162D01*
X52953455Y-88740400D01*
X52968223Y-88738007D01*
X52982905Y-88736981D01*
X52986562Y-88736938D01*
X53007886Y-88737971D01*
X53027835Y-88741068D01*
X53046408Y-88746231D01*
X53063605Y-88753458D01*
X53079427Y-88762751D01*
X53093872Y-88774108D01*
X53106942Y-88787531D01*
X53118636Y-88803018D01*
X53128954Y-88820570D01*
X53137897Y-88840188D01*
X53145464Y-88861870D01*
X53151655Y-88885618D01*
X53156470Y-88911430D01*
X53158362Y-88925111D01*
X53159909Y-88939308D01*
X53161113Y-88954021D01*
X53161973Y-88969250D01*
X53162489Y-88984996D01*
X53162661Y-89001258D01*
X53162661Y-89481000D01*
X53382870Y-89481000D01*
X53382870Y-88539981D01*
G37*
G36*
X52281082Y-88518624D02*
G01*
X52305701Y-88520207D01*
X52329691Y-88522845D01*
X52353054Y-88526538D01*
X52375789Y-88531287D01*
X52397896Y-88537090D01*
X52419376Y-88543949D01*
X52440227Y-88551863D01*
X52460451Y-88560832D01*
X52480047Y-88570857D01*
X52499016Y-88581936D01*
X52517356Y-88594071D01*
X52535069Y-88607261D01*
X52552154Y-88621507D01*
X52568611Y-88636807D01*
X52584440Y-88653163D01*
X52591993Y-88661794D01*
X52606378Y-88679551D01*
X52619805Y-88697967D01*
X52632272Y-88717044D01*
X52643781Y-88736780D01*
X52654330Y-88757176D01*
X52663920Y-88778232D01*
X52672552Y-88799948D01*
X52680224Y-88822324D01*
X52686937Y-88845359D01*
X52692691Y-88869055D01*
X52697487Y-88893410D01*
X52701323Y-88918425D01*
X52704200Y-88944100D01*
X52706118Y-88970435D01*
X52707077Y-88997429D01*
X52707197Y-89011174D01*
X52706701Y-89038657D01*
X52705215Y-89065457D01*
X52702737Y-89091573D01*
X52699268Y-89117004D01*
X52694808Y-89141752D01*
X52689357Y-89165816D01*
X52682915Y-89189196D01*
X52675482Y-89211893D01*
X52667058Y-89233905D01*
X52657642Y-89255234D01*
X52647236Y-89275878D01*
X52635838Y-89295839D01*
X52623450Y-89315116D01*
X52610070Y-89333709D01*
X52595699Y-89351618D01*
X52580337Y-89368843D01*
X52564115Y-89385075D01*
X52547249Y-89400259D01*
X52529739Y-89414396D01*
X52511586Y-89427486D01*
X52492788Y-89439529D01*
X52473347Y-89450524D01*
X52453262Y-89460472D01*
X52432534Y-89469374D01*
X52411161Y-89477227D01*
X52389145Y-89484034D01*
X52366484Y-89489794D01*
X52343180Y-89494506D01*
X52319233Y-89498171D01*
X52294641Y-89500789D01*
X52269406Y-89502360D01*
X52243526Y-89502884D01*
X52225484Y-89502643D01*
X52207772Y-89501922D01*
X52190392Y-89500720D01*
X52173343Y-89499037D01*
X52156625Y-89496873D01*
X52140239Y-89494228D01*
X52124184Y-89491103D01*
X52108460Y-89487496D01*
X52092950Y-89483377D01*
X52077707Y-89478713D01*
X52062731Y-89473504D01*
X52048022Y-89467749D01*
X52033580Y-89461450D01*
X52019406Y-89454606D01*
X52005499Y-89447217D01*
X51991858Y-89439283D01*
X51978464Y-89430713D01*
X51965294Y-89421587D01*
X51952348Y-89411906D01*
X51939627Y-89401669D01*
X51927130Y-89390877D01*
X51914858Y-89379529D01*
X51902810Y-89367625D01*
X51890986Y-89355166D01*
X51879264Y-89342022D01*
X51867691Y-89328238D01*
X51859110Y-89317479D01*
X51850613Y-89306359D01*
X51842200Y-89294879D01*
X51833871Y-89283038D01*
X51825627Y-89270836D01*
X51817466Y-89258274D01*
X51809390Y-89245351D01*
X51801398Y-89232067D01*
X51983994Y-89133247D01*
X51992230Y-89145567D01*
X52000354Y-89157396D01*
X52008365Y-89168733D01*
X52020172Y-89184818D01*
X52031727Y-89199797D01*
X52043029Y-89213669D01*
X52054078Y-89226436D01*
X52064875Y-89238097D01*
X52075420Y-89248651D01*
X52089087Y-89261004D01*
X52102305Y-89271390D01*
X52112428Y-89278051D01*
X52126701Y-89285913D01*
X52141862Y-89292610D01*
X52157909Y-89298143D01*
X52174843Y-89302511D01*
X52192664Y-89305714D01*
X52206611Y-89307351D01*
X52221058Y-89308334D01*
X52236004Y-89308662D01*
X52248809Y-89308407D01*
X52267471Y-89307067D01*
X52285478Y-89304580D01*
X52302830Y-89300944D01*
X52319526Y-89296161D01*
X52335568Y-89290229D01*
X52350954Y-89283150D01*
X52365685Y-89274922D01*
X52379761Y-89265547D01*
X52393182Y-89255023D01*
X52405948Y-89243351D01*
X52417881Y-89230572D01*
X52428804Y-89216980D01*
X52438718Y-89202578D01*
X52447622Y-89187364D01*
X52455516Y-89171338D01*
X52462400Y-89154502D01*
X52468274Y-89136853D01*
X52473139Y-89118394D01*
X52476994Y-89099122D01*
X52479839Y-89079040D01*
X52481175Y-89065200D01*
X51809946Y-89065200D01*
X51809946Y-89014251D01*
X51810063Y-88999797D01*
X51810411Y-88985542D01*
X51810992Y-88971486D01*
X51811806Y-88957628D01*
X51814130Y-88930511D01*
X51817384Y-88904189D01*
X51819688Y-88890127D01*
X52032207Y-88890127D01*
X52466813Y-88890127D01*
X52465451Y-88884990D01*
X52460915Y-88869995D01*
X52455705Y-88855626D01*
X52449823Y-88841882D01*
X52443267Y-88828762D01*
X52436038Y-88816268D01*
X52434749Y-88814226D01*
X52426703Y-88802381D01*
X52418127Y-88791233D01*
X52409023Y-88780783D01*
X52399390Y-88771030D01*
X52387483Y-88760532D01*
X52378464Y-88753533D01*
X52365332Y-88744632D01*
X52351611Y-88736778D01*
X52337301Y-88729971D01*
X52324566Y-88724970D01*
X52320229Y-88723438D01*
X52306978Y-88719435D01*
X52293365Y-88716322D01*
X52279393Y-88714098D01*
X52265059Y-88712763D01*
X52250365Y-88712318D01*
X52229237Y-88713013D01*
X52209108Y-88715097D01*
X52189978Y-88718570D01*
X52171847Y-88723431D01*
X52154715Y-88729683D01*
X52138583Y-88737323D01*
X52123449Y-88746352D01*
X52109315Y-88756771D01*
X52096180Y-88768578D01*
X52084043Y-88781775D01*
X52072906Y-88796361D01*
X52062768Y-88812336D01*
X52053629Y-88829700D01*
X52045490Y-88848453D01*
X52038349Y-88868596D01*
X52032207Y-88890127D01*
X51819688Y-88890127D01*
X51821567Y-88878664D01*
X51826680Y-88853935D01*
X51832723Y-88830002D01*
X51839695Y-88806865D01*
X51847597Y-88784524D01*
X51856429Y-88762979D01*
X51866190Y-88742230D01*
X51876881Y-88722277D01*
X51888502Y-88703121D01*
X51901052Y-88684760D01*
X51914532Y-88667196D01*
X51928941Y-88650427D01*
X51944323Y-88634403D01*
X51960379Y-88619412D01*
X51977107Y-88605455D01*
X51994508Y-88592533D01*
X52012583Y-88580643D01*
X52031331Y-88569788D01*
X52050752Y-88559967D01*
X52070847Y-88551179D01*
X52091614Y-88543425D01*
X52113055Y-88536706D01*
X52135169Y-88531019D01*
X52157956Y-88526367D01*
X52181416Y-88522749D01*
X52205550Y-88520164D01*
X52230356Y-88518613D01*
X52255836Y-88518096D01*
X52281082Y-88518624D01*
G37*
G36*
X51492626Y-88539981D02*
G01*
X51251558Y-89066226D01*
X51011175Y-88539981D01*
X50769081Y-88539981D01*
X51253268Y-89541181D01*
X51733694Y-88539981D01*
X51492626Y-88539981D01*
G37*
G36*
X50234287Y-88211718D02*
G01*
X50489716Y-88211718D01*
X50367302Y-87992877D01*
X50014078Y-87992877D01*
X50014078Y-89491942D01*
X50234287Y-89491942D01*
X50234287Y-88211718D01*
G37*
G36*
X48197008Y-88408676D02*
G01*
X48181716Y-88409042D01*
X48166699Y-88410140D01*
X48151957Y-88411970D01*
X48137490Y-88414531D01*
X48123298Y-88417825D01*
X48109381Y-88421851D01*
X48095739Y-88426609D01*
X48082373Y-88432099D01*
X48069282Y-88438320D01*
X48056466Y-88445274D01*
X48043925Y-88452960D01*
X48031659Y-88461377D01*
X48019669Y-88470527D01*
X48007953Y-88480408D01*
X47996513Y-88491022D01*
X47985348Y-88502367D01*
X47974458Y-88514139D01*
X47964270Y-88526202D01*
X47954785Y-88538555D01*
X47946003Y-88551201D01*
X47937923Y-88564137D01*
X47930546Y-88577364D01*
X47923872Y-88590883D01*
X47917900Y-88604693D01*
X47912631Y-88618794D01*
X47908064Y-88633186D01*
X47904200Y-88647869D01*
X47901038Y-88662844D01*
X47898579Y-88678110D01*
X47896823Y-88693667D01*
X47895769Y-88709515D01*
X47895417Y-88725654D01*
X47895769Y-88742079D01*
X47896823Y-88758186D01*
X47898579Y-88773976D01*
X47901038Y-88789447D01*
X47904200Y-88804601D01*
X47908064Y-88819436D01*
X47912631Y-88833954D01*
X47917900Y-88848154D01*
X47923872Y-88862036D01*
X47930546Y-88875600D01*
X47937923Y-88888846D01*
X47946003Y-88901775D01*
X47954785Y-88914385D01*
X47964270Y-88926677D01*
X47974458Y-88938652D01*
X47985348Y-88950309D01*
X47996692Y-88961571D01*
X48008327Y-88972107D01*
X48020254Y-88981917D01*
X48032471Y-88991000D01*
X48044980Y-88999356D01*
X48057780Y-89006985D01*
X48070871Y-89013888D01*
X48084254Y-89020064D01*
X48097927Y-89025514D01*
X48111892Y-89030237D01*
X48126148Y-89034234D01*
X48140695Y-89037503D01*
X48155534Y-89040047D01*
X48170663Y-89041863D01*
X48186084Y-89042953D01*
X48201796Y-89043316D01*
X48217308Y-89042953D01*
X48232560Y-89041863D01*
X48247549Y-89040047D01*
X48262276Y-89037503D01*
X48276742Y-89034234D01*
X48290946Y-89030237D01*
X48304888Y-89025514D01*
X48318568Y-89020064D01*
X48331987Y-89013888D01*
X48345143Y-89006985D01*
X48358038Y-88999356D01*
X48370671Y-88991000D01*
X48383043Y-88981917D01*
X48395152Y-88972107D01*
X48407000Y-88961571D01*
X48418586Y-88950309D01*
X48429434Y-88938414D01*
X48439583Y-88926239D01*
X48449032Y-88913784D01*
X48457780Y-88901048D01*
X48465829Y-88888031D01*
X48473178Y-88874735D01*
X48479828Y-88861157D01*
X48485777Y-88847299D01*
X48491026Y-88833161D01*
X48495576Y-88818742D01*
X48499425Y-88804042D01*
X48502575Y-88789063D01*
X48505024Y-88773802D01*
X48506774Y-88758261D01*
X48507824Y-88742440D01*
X48508174Y-88726338D01*
X48507820Y-88709911D01*
X48506758Y-88693800D01*
X48504988Y-88678004D01*
X48502510Y-88662523D01*
X48499325Y-88647358D01*
X48495431Y-88632507D01*
X48490830Y-88617972D01*
X48485520Y-88603752D01*
X48479503Y-88589848D01*
X48472778Y-88576258D01*
X48465345Y-88562984D01*
X48457203Y-88550025D01*
X48448354Y-88537381D01*
X48438797Y-88525053D01*
X48428533Y-88513040D01*
X48417560Y-88501341D01*
X48405959Y-88490120D01*
X48394067Y-88479623D01*
X48381884Y-88469850D01*
X48369410Y-88460800D01*
X48356645Y-88452475D01*
X48343589Y-88444873D01*
X48330241Y-88437996D01*
X48316602Y-88431842D01*
X48302672Y-88426413D01*
X48288451Y-88421707D01*
X48273938Y-88417725D01*
X48259135Y-88414467D01*
X48244040Y-88411933D01*
X48228654Y-88410124D01*
X48212977Y-88409038D01*
X48197008Y-88408676D01*
G37*
D12*
X27587107Y-52987107D02*
X30247107Y-52987107D01*
X27587107Y-70827107D02*
X27587107Y-52987107D01*
X27587107Y-70827107D02*
X30247107Y-70827107D01*
X27587107Y-72097107D02*
X27587107Y-73427107D01*
X27587107Y-73427107D02*
X28917107Y-73427107D01*
X30247107Y-70827107D02*
X30247107Y-52987107D01*
X27587107Y-73292107D02*
X30247107Y-73292107D01*
X27587107Y-91132107D02*
X27587107Y-73292107D01*
X27587107Y-91132107D02*
X30247107Y-91132107D01*
X27587107Y-92402107D02*
X27587107Y-93732107D01*
X27587107Y-93732107D02*
X28917107Y-93732107D01*
X30247107Y-91132107D02*
X30247107Y-73292107D01*
X126132107Y-95017107D02*
X120932107Y-95017107D01*
X126132107Y-33997107D02*
X126132107Y-95017107D01*
X126132107Y-33997107D02*
X123532107Y-33997107D01*
X126132107Y-32727107D02*
X126132107Y-31397107D01*
X126132107Y-31397107D02*
X124802107Y-31397107D01*
X123532107Y-33997107D02*
X123532107Y-31397107D01*
X123532107Y-31397107D02*
X120932107Y-31397107D01*
X120932107Y-31397107D02*
X120932107Y-95017107D01*
X27587107Y-32652107D02*
X30247107Y-32652107D01*
X27587107Y-50492107D02*
X27587107Y-32652107D01*
X27587107Y-50492107D02*
X30247107Y-50492107D01*
X27587107Y-51762107D02*
X27587107Y-53092107D01*
X27587107Y-53092107D02*
X28917107Y-53092107D01*
X30247107Y-50492107D02*
X30247107Y-32652107D01*
%LPC*%
D10*
X119976107Y-97497107D02*
X118388607Y-97497107D01*
X33171607Y-69557107D02*
X31711107Y-69557107D01*
D13*
X118833107Y-54317107D02*
X32981107Y-54317107D01*
D14*
X31584107Y-31397107D02*
X31584107Y-97497107D01*
D10*
X119849107Y-69557107D02*
X118134607Y-69557107D01*
X33108107Y-31397107D02*
X31711107Y-31397107D01*
D13*
X118706107Y-44157107D02*
X32854107Y-44157107D01*
X118833107Y-79971107D02*
X32981107Y-79971107D01*
X118833107Y-28857107D02*
X32981107Y-28857107D01*
D10*
X119849107Y-56857107D02*
X118261607Y-56857107D01*
X119785607Y-82257107D02*
X117626607Y-82257107D01*
D13*
X118833107Y-94957107D02*
X32981107Y-94957107D01*
X118833107Y-97497107D02*
X32981107Y-97497107D01*
D10*
X31711107Y-97497107D02*
X32981107Y-97497107D01*
X119849107Y-44157107D02*
X118261607Y-44157107D01*
X119849107Y-31457107D02*
X118261607Y-31457107D01*
X33171607Y-44157107D02*
X31711107Y-44157107D01*
D13*
X118960107Y-82257107D02*
X33108107Y-82257107D01*
X118833107Y-67017107D02*
X32981107Y-67017107D01*
X118706107Y-56857107D02*
X33108107Y-56857107D01*
D14*
X119976107Y-31330107D02*
X119976107Y-97624107D01*
D10*
X33171607Y-82257107D02*
X31711107Y-82257107D01*
D13*
X118706107Y-69557107D02*
X33108107Y-69557107D01*
X118706107Y-31397107D02*
X33108107Y-31397107D01*
X118833107Y-41617107D02*
X32981107Y-41617107D01*
D10*
X33203357Y-56857107D02*
X31742857Y-56857107D01*
D15*
X27647107Y-98767107D03*
X27647107Y-27647107D03*
D16*
X33997107Y-100037107D03*
X36537107Y-100037107D03*
X39077107Y-100037107D03*
X41617107Y-100037107D03*
X44157107Y-100037107D03*
X46697107Y-100037107D03*
X49237107Y-100037107D03*
X51777107Y-100037107D03*
X54317107Y-100037107D03*
X56857107Y-100037107D03*
X59397107Y-100037107D03*
X61937107Y-100037107D03*
X64477107Y-100037107D03*
X67017107Y-100037107D03*
X69557107Y-100037107D03*
X72097107Y-100037107D03*
X74637107Y-100037107D03*
X77177107Y-100037107D03*
X79717107Y-100037107D03*
X82257107Y-100037107D03*
X84797107Y-100037107D03*
X87337107Y-100037107D03*
X89877107Y-100037107D03*
X92417107Y-100037107D03*
X94957107Y-100037107D03*
X97497107Y-100037107D03*
X100037107Y-100037107D03*
X102577107Y-100037107D03*
X105117107Y-100037107D03*
X107657107Y-100037107D03*
X110197107Y-100037107D03*
X112737107Y-100037107D03*
X115277107Y-100037107D03*
X117817107Y-100037107D03*
X33997107Y-64477107D03*
X36537107Y-64477107D03*
X39077107Y-64477107D03*
X41617107Y-64477107D03*
X44157107Y-64477107D03*
X46697107Y-64477107D03*
X49237107Y-64477107D03*
X51777107Y-64477107D03*
X54317107Y-64477107D03*
X56857107Y-64477107D03*
X59397107Y-64477107D03*
X61937107Y-64477107D03*
X64477107Y-64477107D03*
X67017107Y-64477107D03*
X69557107Y-64477107D03*
X72097107Y-64477107D03*
X74637107Y-64477107D03*
X77177107Y-64477107D03*
X79717107Y-64477107D03*
X82257107Y-64477107D03*
X84797107Y-64477107D03*
X87337107Y-64477107D03*
X89877107Y-64477107D03*
X92417107Y-64477107D03*
X94957107Y-64477107D03*
X97497107Y-64477107D03*
X100037107Y-64477107D03*
X102577107Y-64477107D03*
X105117107Y-64477107D03*
X107657107Y-64477107D03*
X110197107Y-64477107D03*
X112737107Y-64477107D03*
X115277107Y-64477107D03*
X117817107Y-64477107D03*
X33997107Y-92417107D03*
X36537107Y-92417107D03*
X39077107Y-92417107D03*
X41617107Y-92417107D03*
X44157107Y-92417107D03*
X46697107Y-92417107D03*
X49237107Y-92417107D03*
X51777107Y-92417107D03*
X54317107Y-92417107D03*
X56857107Y-92417107D03*
X59397107Y-92417107D03*
X61937107Y-92417107D03*
X64477107Y-92417107D03*
X67017107Y-92417107D03*
X69557107Y-92417107D03*
X72097107Y-92417107D03*
X74637107Y-92417107D03*
X77177107Y-92417107D03*
X79717107Y-92417107D03*
X82257107Y-92417107D03*
X84797107Y-92417107D03*
X87337107Y-92417107D03*
X89877107Y-92417107D03*
X92417107Y-92417107D03*
X94957107Y-92417107D03*
X97497107Y-92417107D03*
X100037107Y-92417107D03*
X102577107Y-92417107D03*
X105117107Y-92417107D03*
X107657107Y-92417107D03*
X110197107Y-92417107D03*
X112737107Y-92417107D03*
X115277107Y-92417107D03*
X117817107Y-92417107D03*
X33997107Y-39017107D03*
X36537107Y-39017107D03*
X39077107Y-39017107D03*
X41617107Y-39017107D03*
X44157107Y-39017107D03*
X46697107Y-39017107D03*
X49237107Y-39017107D03*
X51777107Y-39017107D03*
X54317107Y-39017107D03*
X56857107Y-39017107D03*
X59397107Y-39017107D03*
X61937107Y-39017107D03*
X64477107Y-39017107D03*
X67017107Y-39017107D03*
X69557107Y-39017107D03*
X72097107Y-39017107D03*
X74637107Y-39017107D03*
X77177107Y-39017107D03*
X79717107Y-39017107D03*
X82257107Y-39017107D03*
X84797107Y-39017107D03*
X87337107Y-39017107D03*
X89877107Y-39017107D03*
X92417107Y-39017107D03*
X94957107Y-39017107D03*
X97497107Y-39017107D03*
X100037107Y-39017107D03*
X102577107Y-39017107D03*
X105117107Y-39017107D03*
X107657107Y-39017107D03*
X110197107Y-39017107D03*
X112737107Y-39017107D03*
X115277107Y-39017107D03*
X117817107Y-39017107D03*
X33997107Y-84797107D03*
X36537107Y-84797107D03*
X39077107Y-84797107D03*
X41617107Y-84797107D03*
X44157107Y-84797107D03*
X46697107Y-84797107D03*
X49237107Y-84797107D03*
X51777107Y-84797107D03*
X54317107Y-84797107D03*
X56857107Y-84797107D03*
X59397107Y-84797107D03*
X61937107Y-84797107D03*
X64477107Y-84797107D03*
X67017107Y-84797107D03*
X69557107Y-84797107D03*
X72097107Y-84797107D03*
X74637107Y-84797107D03*
X77177107Y-84797107D03*
X79717107Y-84797107D03*
X82257107Y-84797107D03*
X84797107Y-84797107D03*
X87337107Y-84797107D03*
X89877107Y-84797107D03*
X92417107Y-84797107D03*
X94957107Y-84797107D03*
X97497107Y-84797107D03*
X100037107Y-84797107D03*
X102577107Y-84797107D03*
X105117107Y-84797107D03*
X107657107Y-84797107D03*
X110197107Y-84797107D03*
X112737107Y-84797107D03*
X115277107Y-84797107D03*
X117817107Y-84797107D03*
X33997107Y-59397107D03*
X36537107Y-59397107D03*
X39077107Y-59397107D03*
X41617107Y-59397107D03*
X44157107Y-59397107D03*
X46697107Y-59397107D03*
X49237107Y-59397107D03*
X51777107Y-59397107D03*
X54317107Y-59397107D03*
X56857107Y-59397107D03*
X59397107Y-59397107D03*
X61937107Y-59397107D03*
X64477107Y-59397107D03*
X67017107Y-59397107D03*
X69557107Y-59397107D03*
X72097107Y-59397107D03*
X74637107Y-59397107D03*
X77177107Y-59397107D03*
X79717107Y-59397107D03*
X82257107Y-59397107D03*
X84797107Y-59397107D03*
X87337107Y-59397107D03*
X89877107Y-59397107D03*
X92417107Y-59397107D03*
X94957107Y-59397107D03*
X97497107Y-59397107D03*
X100037107Y-59397107D03*
X102577107Y-59397107D03*
X105117107Y-59397107D03*
X107657107Y-59397107D03*
X110197107Y-59397107D03*
X112737107Y-59397107D03*
X115277107Y-59397107D03*
X117817107Y-59397107D03*
D15*
X27647107Y-98767107D03*
D16*
X33997107Y-51777107D03*
X36537107Y-51777107D03*
X39077107Y-51777107D03*
X41617107Y-51777107D03*
X44157107Y-51777107D03*
X46697107Y-51777107D03*
X49237107Y-51777107D03*
X51777107Y-51777107D03*
X54317107Y-51777107D03*
X56857107Y-51777107D03*
X59397107Y-51777107D03*
X61937107Y-51777107D03*
X64477107Y-51777107D03*
X67017107Y-51777107D03*
X69557107Y-51777107D03*
X72097107Y-51777107D03*
X74637107Y-51777107D03*
X77177107Y-51777107D03*
X79717107Y-51777107D03*
X82257107Y-51777107D03*
X84797107Y-51777107D03*
X87337107Y-51777107D03*
X89877107Y-51777107D03*
X92417107Y-51777107D03*
X94957107Y-51777107D03*
X97497107Y-51777107D03*
X100037107Y-51777107D03*
X102577107Y-51777107D03*
X105117107Y-51777107D03*
X107657107Y-51777107D03*
X110197107Y-51777107D03*
X112737107Y-51777107D03*
X115277107Y-51777107D03*
X117817107Y-51777107D03*
X33997107Y-33877107D03*
X36537107Y-33877107D03*
X39077107Y-33877107D03*
X41617107Y-33877107D03*
X44157107Y-33877107D03*
X46697107Y-33877107D03*
X49237107Y-33877107D03*
X51777107Y-33877107D03*
X54317107Y-33877107D03*
X56857107Y-33877107D03*
X59397107Y-33877107D03*
X61937107Y-33877107D03*
X64477107Y-33877107D03*
X67017107Y-33877107D03*
X69557107Y-33877107D03*
X72097107Y-33877107D03*
X74637107Y-33877107D03*
X77177107Y-33877107D03*
X79717107Y-33877107D03*
X82257107Y-33877107D03*
X84797107Y-33877107D03*
X87337107Y-33877107D03*
X89877107Y-33877107D03*
X92417107Y-33877107D03*
X94957107Y-33877107D03*
X97497107Y-33877107D03*
X100037107Y-33877107D03*
X102577107Y-33877107D03*
X105117107Y-33877107D03*
X107657107Y-33877107D03*
X110197107Y-33877107D03*
X112737107Y-33877107D03*
X115277107Y-33877107D03*
X117817107Y-33877107D03*
X33997107Y-46637107D03*
X36537107Y-46637107D03*
X39077107Y-46637107D03*
X41617107Y-46637107D03*
X44157107Y-46637107D03*
X46697107Y-46637107D03*
X49237107Y-46637107D03*
X51777107Y-46637107D03*
X54317107Y-46637107D03*
X56857107Y-46637107D03*
X59397107Y-46637107D03*
X61937107Y-46637107D03*
X64477107Y-46637107D03*
X67017107Y-46637107D03*
X69557107Y-46637107D03*
X72097107Y-46637107D03*
X74637107Y-46637107D03*
X77177107Y-46637107D03*
X79717107Y-46637107D03*
X82257107Y-46637107D03*
X84797107Y-46637107D03*
X87337107Y-46637107D03*
X89877107Y-46637107D03*
X92417107Y-46637107D03*
X94957107Y-46637107D03*
X97497107Y-46637107D03*
X100037107Y-46637107D03*
X102577107Y-46637107D03*
X105117107Y-46637107D03*
X107657107Y-46637107D03*
X110197107Y-46637107D03*
X112737107Y-46637107D03*
X115277107Y-46637107D03*
X117817107Y-46637107D03*
D15*
X27647107Y-27647107D03*
D16*
X33997107Y-72097107D03*
X36537107Y-72097107D03*
X39077107Y-72097107D03*
X41617107Y-72097107D03*
X44157107Y-72097107D03*
X46697107Y-72097107D03*
X49237107Y-72097107D03*
X51777107Y-72097107D03*
X54317107Y-72097107D03*
X56857107Y-72097107D03*
X59397107Y-72097107D03*
X61937107Y-72097107D03*
X64477107Y-72097107D03*
X67017107Y-72097107D03*
X69557107Y-72097107D03*
X72097107Y-72097107D03*
X74637107Y-72097107D03*
X77177107Y-72097107D03*
X79717107Y-72097107D03*
X82257107Y-72097107D03*
X84797107Y-72097107D03*
X87337107Y-72097107D03*
X89877107Y-72097107D03*
X92417107Y-72097107D03*
X94957107Y-72097107D03*
X97497107Y-72097107D03*
X100037107Y-72097107D03*
X102577107Y-72097107D03*
X105117107Y-72097107D03*
X107657107Y-72097107D03*
X110197107Y-72097107D03*
X112737107Y-72097107D03*
X115277107Y-72097107D03*
X117817107Y-72097107D03*
X33997107Y-26257107D03*
X36537107Y-26257107D03*
X39077107Y-26257107D03*
X41617107Y-26257107D03*
X44157107Y-26257107D03*
X46697107Y-26257107D03*
X49237107Y-26257107D03*
X51777107Y-26257107D03*
X54317107Y-26257107D03*
X56857107Y-26257107D03*
X59397107Y-26257107D03*
X61937107Y-26257107D03*
X64477107Y-26257107D03*
X67017107Y-26257107D03*
X69557107Y-26257107D03*
X72097107Y-26257107D03*
X74637107Y-26257107D03*
X77177107Y-26257107D03*
X79717107Y-26257107D03*
X82257107Y-26257107D03*
X84797107Y-26257107D03*
X87337107Y-26257107D03*
X89877107Y-26257107D03*
X92417107Y-26257107D03*
X94957107Y-26257107D03*
X97497107Y-26257107D03*
X100037107Y-26257107D03*
X102577107Y-26257107D03*
X105117107Y-26257107D03*
X107657107Y-26257107D03*
X110197107Y-26257107D03*
X112737107Y-26257107D03*
X115277107Y-26257107D03*
X117817107Y-26257107D03*
X33997107Y-77177107D03*
X36537107Y-77177107D03*
X39077107Y-77177107D03*
X41617107Y-77177107D03*
X44157107Y-77177107D03*
X46697107Y-77177107D03*
X49237107Y-77177107D03*
X51777107Y-77177107D03*
X54317107Y-77177107D03*
X56857107Y-77177107D03*
X59397107Y-77177107D03*
X61937107Y-77177107D03*
X64477107Y-77177107D03*
X67017107Y-77177107D03*
X69557107Y-77177107D03*
X72097107Y-77177107D03*
X74637107Y-77177107D03*
X77177107Y-77177107D03*
X79717107Y-77177107D03*
X82257107Y-77177107D03*
X84797107Y-77177107D03*
X87337107Y-77177107D03*
X89877107Y-77177107D03*
X92417107Y-77177107D03*
X94957107Y-77177107D03*
X97497107Y-77177107D03*
X100037107Y-77177107D03*
X102577107Y-77177107D03*
X105117107Y-77177107D03*
X107657107Y-77177107D03*
X110197107Y-77177107D03*
X112737107Y-77177107D03*
X115277107Y-77177107D03*
X117817107Y-77177107D03*
D17*
X28917107Y-72097107D03*
D18*
X28917107Y-69557107D03*
X28917107Y-67017107D03*
X28917107Y-64477107D03*
X28917107Y-61937107D03*
X28917107Y-59397107D03*
X28917107Y-56857107D03*
X28917107Y-54317107D03*
D17*
X28917107Y-92402107D03*
D18*
X28917107Y-89862107D03*
X28917107Y-87322107D03*
X28917107Y-84782107D03*
X28917107Y-82242107D03*
X28917107Y-79702107D03*
X28917107Y-77162107D03*
X28917107Y-74622107D03*
D17*
X124802107Y-32727107D03*
D18*
X122262107Y-32727107D03*
X124802107Y-35267107D03*
X122262107Y-35267107D03*
X124802107Y-37807107D03*
X122262107Y-37807107D03*
X124802107Y-40347107D03*
X122262107Y-40347107D03*
X124802107Y-42887107D03*
X122262107Y-42887107D03*
X124802107Y-45427107D03*
X122262107Y-45427107D03*
X124802107Y-47967107D03*
X122262107Y-47967107D03*
X124802107Y-50507107D03*
X122262107Y-50507107D03*
X124802107Y-53047107D03*
X122262107Y-53047107D03*
X124802107Y-55587107D03*
X122262107Y-55587107D03*
X124802107Y-58127107D03*
X122262107Y-58127107D03*
X124802107Y-60667107D03*
X122262107Y-60667107D03*
X124802107Y-63207107D03*
X122262107Y-63207107D03*
X124802107Y-65747107D03*
X122262107Y-65747107D03*
X124802107Y-68287107D03*
X122262107Y-68287107D03*
X124802107Y-70827107D03*
X122262107Y-70827107D03*
X124802107Y-73367107D03*
X122262107Y-73367107D03*
X124802107Y-75907107D03*
X122262107Y-75907107D03*
X124802107Y-78447107D03*
X122262107Y-78447107D03*
X124802107Y-80987107D03*
X122262107Y-80987107D03*
X124802107Y-83527107D03*
X122262107Y-83527107D03*
X124802107Y-86067107D03*
X122262107Y-86067107D03*
X124802107Y-88607107D03*
X122262107Y-88607107D03*
X124802107Y-91147107D03*
X122262107Y-91147107D03*
X124802107Y-93687107D03*
X122262107Y-93687107D03*
D17*
X28917107Y-51762107D03*
D18*
X28917107Y-49222107D03*
X28917107Y-46682107D03*
X28917107Y-44142107D03*
X28917107Y-41602107D03*
X28917107Y-39062107D03*
X28917107Y-36522107D03*
X28917107Y-33982107D03*
%LPD*%
M02*
