G04 #@! TF.GenerationSoftware,KiCad,Pcbnew,7.0.7*
G04 #@! TF.CreationDate,2024-01-03T09:04:34+01:00*
G04 #@! TF.ProjectId,Proto,50726f74-6f2e-46b6-9963-61645f706362,rev?*
G04 #@! TF.SameCoordinates,Original*
G04 #@! TF.FileFunction,Copper,L1,Top*
G04 #@! TF.FilePolarity,Positive*
%FSLAX46Y46*%
G04 Gerber Fmt 4.6, Leading zero omitted, Abs format (unit mm)*
G04 Created by KiCad (PCBNEW 7.0.7) date 2024-01-03 09:04:34*
%MOMM*%
%LPD*%
G01*
G04 APERTURE LIST*
G04 Aperture macros list*
%AMRoundRect*
0 Rectangle with rounded corners*
0 $1 Rounding radius*
0 $2 $3 $4 $5 $6 $7 $8 $9 X,Y pos of 4 corners*
0 Add a 4 corners polygon primitive as box body*
4,1,4,$2,$3,$4,$5,$6,$7,$8,$9,$2,$3,0*
0 Add four circle primitives for the rounded corners*
1,1,$1+$1,$2,$3*
1,1,$1+$1,$4,$5*
1,1,$1+$1,$6,$7*
1,1,$1+$1,$8,$9*
0 Add four rect primitives between the rounded corners*
20,1,$1+$1,$2,$3,$4,$5,0*
20,1,$1+$1,$4,$5,$6,$7,0*
20,1,$1+$1,$6,$7,$8,$9,0*
20,1,$1+$1,$8,$9,$2,$3,0*%
G04 Aperture macros list end*
G04 #@! TA.AperFunction,NonConductor*
%ADD10C,1.000000*%
G04 #@! TD*
G04 #@! TA.AperFunction,NonConductor*
%ADD11C,1.500000*%
G04 #@! TD*
G04 #@! TA.AperFunction,NonConductor*
%ADD12C,0.200000*%
G04 #@! TD*
G04 #@! TA.AperFunction,SMDPad,CuDef*
%ADD13RoundRect,0.250000X-0.450000X0.350000X-0.450000X-0.350000X0.450000X-0.350000X0.450000X0.350000X0*%
G04 #@! TD*
G04 #@! TA.AperFunction,ComponentPad*
%ADD14R,1.800000X1.800000*%
G04 #@! TD*
G04 #@! TA.AperFunction,SMDPad,CuDef*
%ADD15RoundRect,0.250000X0.412500X0.650000X-0.412500X0.650000X-0.412500X-0.650000X0.412500X-0.650000X0*%
G04 #@! TD*
G04 #@! TA.AperFunction,SMDPad,CuDef*
%ADD16RoundRect,0.250000X-0.450000X0.325000X-0.450000X-0.325000X0.450000X-0.325000X0.450000X0.325000X0*%
G04 #@! TD*
G04 #@! TA.AperFunction,ComponentPad*
%ADD17R,1.700000X1.700000*%
G04 #@! TD*
G04 #@! TA.AperFunction,ComponentPad*
%ADD18O,1.700000X1.700000*%
G04 #@! TD*
G04 #@! TA.AperFunction,ViaPad*
%ADD19C,0.900000*%
G04 #@! TD*
G04 #@! TA.AperFunction,ViaPad*
%ADD20C,0.600000*%
G04 #@! TD*
G04 #@! TA.AperFunction,ViaPad*
%ADD21C,1.000000*%
G04 #@! TD*
G04 #@! TA.AperFunction,Conductor*
%ADD22C,1.500000*%
G04 #@! TD*
G04 #@! TA.AperFunction,Conductor*
%ADD23C,0.127000*%
G04 #@! TD*
G04 #@! TA.AperFunction,Conductor*
%ADD24C,0.750000*%
G04 #@! TD*
G04 APERTURE END LIST*
D10*
X121754107Y-99910107D02*
X121754107Y-97497107D01*
D11*
X31330107Y-95211107D02*
X31330107Y-28917107D01*
X124802107Y-93687107D02*
X124802107Y-95465107D01*
X120357107Y-28917107D02*
X119087107Y-28917107D01*
D12*
X122389107Y-26758107D02*
X124548107Y-26758107D01*
D10*
X124802107Y-95465107D02*
X124802107Y-99783107D01*
D11*
X120357107Y-95211107D02*
X120357107Y-28917107D01*
X124802107Y-95465107D02*
X119087107Y-95465107D01*
D12*
X119087107Y-95465107D02*
X119087107Y-94957107D01*
D13*
X122389107Y-26740107D03*
X122389107Y-28740107D03*
D14*
X33997107Y-100037107D03*
X36537107Y-100037107D03*
X39077107Y-100037107D03*
X41617107Y-100037107D03*
X44157107Y-100037107D03*
X46697107Y-100037107D03*
X49237107Y-100037107D03*
X51777107Y-100037107D03*
X54317107Y-100037107D03*
X56857107Y-100037107D03*
X59397107Y-100037107D03*
X61937107Y-100037107D03*
X64477107Y-100037107D03*
X67017107Y-100037107D03*
X69557107Y-100037107D03*
X72097107Y-100037107D03*
X74637107Y-100037107D03*
X77177107Y-100037107D03*
X79717107Y-100037107D03*
X82257107Y-100037107D03*
X84797107Y-100037107D03*
X87337107Y-100037107D03*
X89877107Y-100037107D03*
X92417107Y-100037107D03*
X94957107Y-100037107D03*
X97497107Y-100037107D03*
X100037107Y-100037107D03*
X102577107Y-100037107D03*
X105117107Y-100037107D03*
X107657107Y-100037107D03*
X110197107Y-100037107D03*
X112737107Y-100037107D03*
X115277107Y-100037107D03*
X117817107Y-100037107D03*
X33997107Y-64477107D03*
X36537107Y-64477107D03*
X39077107Y-64477107D03*
X41617107Y-64477107D03*
X44157107Y-64477107D03*
X46697107Y-64477107D03*
X49237107Y-64477107D03*
X51777107Y-64477107D03*
X54317107Y-64477107D03*
X56857107Y-64477107D03*
X59397107Y-64477107D03*
X61937107Y-64477107D03*
X64477107Y-64477107D03*
X67017107Y-64477107D03*
X69557107Y-64477107D03*
X72097107Y-64477107D03*
X74637107Y-64477107D03*
X77177107Y-64477107D03*
X79717107Y-64477107D03*
X82257107Y-64477107D03*
X84797107Y-64477107D03*
X87337107Y-64477107D03*
X89877107Y-64477107D03*
X92417107Y-64477107D03*
X94957107Y-64477107D03*
X97497107Y-64477107D03*
X100037107Y-64477107D03*
X102577107Y-64477107D03*
X105117107Y-64477107D03*
X107657107Y-64477107D03*
X110197107Y-64477107D03*
X112737107Y-64477107D03*
X115277107Y-64477107D03*
X117817107Y-64477107D03*
X33997107Y-92417107D03*
X36537107Y-92417107D03*
X39077107Y-92417107D03*
X41617107Y-92417107D03*
X44157107Y-92417107D03*
X46697107Y-92417107D03*
X49237107Y-92417107D03*
X51777107Y-92417107D03*
X54317107Y-92417107D03*
X56857107Y-92417107D03*
X59397107Y-92417107D03*
X61937107Y-92417107D03*
X64477107Y-92417107D03*
X67017107Y-92417107D03*
X69557107Y-92417107D03*
X72097107Y-92417107D03*
X74637107Y-92417107D03*
X77177107Y-92417107D03*
X79717107Y-92417107D03*
X82257107Y-92417107D03*
X84797107Y-92417107D03*
X87337107Y-92417107D03*
X89877107Y-92417107D03*
X92417107Y-92417107D03*
X94957107Y-92417107D03*
X97497107Y-92417107D03*
X100037107Y-92417107D03*
X102577107Y-92417107D03*
X105117107Y-92417107D03*
X107657107Y-92417107D03*
X110197107Y-92417107D03*
X112737107Y-92417107D03*
X115277107Y-92417107D03*
X117817107Y-92417107D03*
X33997107Y-39017107D03*
X36537107Y-39017107D03*
X39077107Y-39017107D03*
X41617107Y-39017107D03*
X44157107Y-39017107D03*
X46697107Y-39017107D03*
X49237107Y-39017107D03*
X51777107Y-39017107D03*
X54317107Y-39017107D03*
X56857107Y-39017107D03*
X59397107Y-39017107D03*
X61937107Y-39017107D03*
X64477107Y-39017107D03*
X67017107Y-39017107D03*
X69557107Y-39017107D03*
X72097107Y-39017107D03*
X74637107Y-39017107D03*
X77177107Y-39017107D03*
X79717107Y-39017107D03*
X82257107Y-39017107D03*
X84797107Y-39017107D03*
X87337107Y-39017107D03*
X89877107Y-39017107D03*
X92417107Y-39017107D03*
X94957107Y-39017107D03*
X97497107Y-39017107D03*
X100037107Y-39017107D03*
X102577107Y-39017107D03*
X105117107Y-39017107D03*
X107657107Y-39017107D03*
X110197107Y-39017107D03*
X112737107Y-39017107D03*
X115277107Y-39017107D03*
X117817107Y-39017107D03*
X33997107Y-84797107D03*
X36537107Y-84797107D03*
X39077107Y-84797107D03*
X41617107Y-84797107D03*
X44157107Y-84797107D03*
X46697107Y-84797107D03*
X49237107Y-84797107D03*
X51777107Y-84797107D03*
X54317107Y-84797107D03*
X56857107Y-84797107D03*
X59397107Y-84797107D03*
X61937107Y-84797107D03*
X64477107Y-84797107D03*
X67017107Y-84797107D03*
X69557107Y-84797107D03*
X72097107Y-84797107D03*
X74637107Y-84797107D03*
X77177107Y-84797107D03*
X79717107Y-84797107D03*
X82257107Y-84797107D03*
X84797107Y-84797107D03*
X87337107Y-84797107D03*
X89877107Y-84797107D03*
X92417107Y-84797107D03*
X94957107Y-84797107D03*
X97497107Y-84797107D03*
X100037107Y-84797107D03*
X102577107Y-84797107D03*
X105117107Y-84797107D03*
X107657107Y-84797107D03*
X110197107Y-84797107D03*
X112737107Y-84797107D03*
X115277107Y-84797107D03*
X117817107Y-84797107D03*
X33997107Y-59397107D03*
X36537107Y-59397107D03*
X39077107Y-59397107D03*
X41617107Y-59397107D03*
X44157107Y-59397107D03*
X46697107Y-59397107D03*
X49237107Y-59397107D03*
X51777107Y-59397107D03*
X54317107Y-59397107D03*
X56857107Y-59397107D03*
X59397107Y-59397107D03*
X61937107Y-59397107D03*
X64477107Y-59397107D03*
X67017107Y-59397107D03*
X69557107Y-59397107D03*
X72097107Y-59397107D03*
X74637107Y-59397107D03*
X77177107Y-59397107D03*
X79717107Y-59397107D03*
X82257107Y-59397107D03*
X84797107Y-59397107D03*
X87337107Y-59397107D03*
X89877107Y-59397107D03*
X92417107Y-59397107D03*
X94957107Y-59397107D03*
X97497107Y-59397107D03*
X100037107Y-59397107D03*
X102577107Y-59397107D03*
X105117107Y-59397107D03*
X107657107Y-59397107D03*
X110197107Y-59397107D03*
X112737107Y-59397107D03*
X115277107Y-59397107D03*
X117817107Y-59397107D03*
D15*
X124802107Y-99910107D03*
X121677107Y-99910107D03*
D14*
X33997107Y-51777107D03*
X36537107Y-51777107D03*
X39077107Y-51777107D03*
X41617107Y-51777107D03*
X44157107Y-51777107D03*
X46697107Y-51777107D03*
X49237107Y-51777107D03*
X51777107Y-51777107D03*
X54317107Y-51777107D03*
X56857107Y-51777107D03*
X59397107Y-51777107D03*
X61937107Y-51777107D03*
X64477107Y-51777107D03*
X67017107Y-51777107D03*
X69557107Y-51777107D03*
X72097107Y-51777107D03*
X74637107Y-51777107D03*
X77177107Y-51777107D03*
X79717107Y-51777107D03*
X82257107Y-51777107D03*
X84797107Y-51777107D03*
X87337107Y-51777107D03*
X89877107Y-51777107D03*
X92417107Y-51777107D03*
X94957107Y-51777107D03*
X97497107Y-51777107D03*
X100037107Y-51777107D03*
X102577107Y-51777107D03*
X105117107Y-51777107D03*
X107657107Y-51777107D03*
X110197107Y-51777107D03*
X112737107Y-51777107D03*
X115277107Y-51777107D03*
X117817107Y-51777107D03*
X33997107Y-33877107D03*
X36537107Y-33877107D03*
X39077107Y-33877107D03*
X41617107Y-33877107D03*
X44157107Y-33877107D03*
X46697107Y-33877107D03*
X49237107Y-33877107D03*
X51777107Y-33877107D03*
X54317107Y-33877107D03*
X56857107Y-33877107D03*
X59397107Y-33877107D03*
X61937107Y-33877107D03*
X64477107Y-33877107D03*
X67017107Y-33877107D03*
X69557107Y-33877107D03*
X72097107Y-33877107D03*
X74637107Y-33877107D03*
X77177107Y-33877107D03*
X79717107Y-33877107D03*
X82257107Y-33877107D03*
X84797107Y-33877107D03*
X87337107Y-33877107D03*
X89877107Y-33877107D03*
X92417107Y-33877107D03*
X94957107Y-33877107D03*
X97497107Y-33877107D03*
X100037107Y-33877107D03*
X102577107Y-33877107D03*
X105117107Y-33877107D03*
X107657107Y-33877107D03*
X110197107Y-33877107D03*
X112737107Y-33877107D03*
X115277107Y-33877107D03*
X117817107Y-33877107D03*
X33997107Y-46637107D03*
X36537107Y-46637107D03*
X39077107Y-46637107D03*
X41617107Y-46637107D03*
X44157107Y-46637107D03*
X46697107Y-46637107D03*
X49237107Y-46637107D03*
X51777107Y-46637107D03*
X54317107Y-46637107D03*
X56857107Y-46637107D03*
X59397107Y-46637107D03*
X61937107Y-46637107D03*
X64477107Y-46637107D03*
X67017107Y-46637107D03*
X69557107Y-46637107D03*
X72097107Y-46637107D03*
X74637107Y-46637107D03*
X77177107Y-46637107D03*
X79717107Y-46637107D03*
X82257107Y-46637107D03*
X84797107Y-46637107D03*
X87337107Y-46637107D03*
X89877107Y-46637107D03*
X92417107Y-46637107D03*
X94957107Y-46637107D03*
X97497107Y-46637107D03*
X100037107Y-46637107D03*
X102577107Y-46637107D03*
X105117107Y-46637107D03*
X107657107Y-46637107D03*
X110197107Y-46637107D03*
X112737107Y-46637107D03*
X115277107Y-46637107D03*
X117817107Y-46637107D03*
X33997107Y-72097107D03*
X36537107Y-72097107D03*
X39077107Y-72097107D03*
X41617107Y-72097107D03*
X44157107Y-72097107D03*
X46697107Y-72097107D03*
X49237107Y-72097107D03*
X51777107Y-72097107D03*
X54317107Y-72097107D03*
X56857107Y-72097107D03*
X59397107Y-72097107D03*
X61937107Y-72097107D03*
X64477107Y-72097107D03*
X67017107Y-72097107D03*
X69557107Y-72097107D03*
X72097107Y-72097107D03*
X74637107Y-72097107D03*
X77177107Y-72097107D03*
X79717107Y-72097107D03*
X82257107Y-72097107D03*
X84797107Y-72097107D03*
X87337107Y-72097107D03*
X89877107Y-72097107D03*
X92417107Y-72097107D03*
X94957107Y-72097107D03*
X97497107Y-72097107D03*
X100037107Y-72097107D03*
X102577107Y-72097107D03*
X105117107Y-72097107D03*
X107657107Y-72097107D03*
X110197107Y-72097107D03*
X112737107Y-72097107D03*
X115277107Y-72097107D03*
X117817107Y-72097107D03*
X33997107Y-26257107D03*
X36537107Y-26257107D03*
X39077107Y-26257107D03*
X41617107Y-26257107D03*
X44157107Y-26257107D03*
X46697107Y-26257107D03*
X49237107Y-26257107D03*
X51777107Y-26257107D03*
X54317107Y-26257107D03*
X56857107Y-26257107D03*
X59397107Y-26257107D03*
X61937107Y-26257107D03*
X64477107Y-26257107D03*
X67017107Y-26257107D03*
X69557107Y-26257107D03*
X72097107Y-26257107D03*
X74637107Y-26257107D03*
X77177107Y-26257107D03*
X79717107Y-26257107D03*
X82257107Y-26257107D03*
X84797107Y-26257107D03*
X87337107Y-26257107D03*
X89877107Y-26257107D03*
X92417107Y-26257107D03*
X94957107Y-26257107D03*
X97497107Y-26257107D03*
X100037107Y-26257107D03*
X102577107Y-26257107D03*
X105117107Y-26257107D03*
X107657107Y-26257107D03*
X110197107Y-26257107D03*
X112737107Y-26257107D03*
X115277107Y-26257107D03*
X117817107Y-26257107D03*
X33997107Y-77177107D03*
X36537107Y-77177107D03*
X39077107Y-77177107D03*
X41617107Y-77177107D03*
X44157107Y-77177107D03*
X46697107Y-77177107D03*
X49237107Y-77177107D03*
X51777107Y-77177107D03*
X54317107Y-77177107D03*
X56857107Y-77177107D03*
X59397107Y-77177107D03*
X61937107Y-77177107D03*
X64477107Y-77177107D03*
X67017107Y-77177107D03*
X69557107Y-77177107D03*
X72097107Y-77177107D03*
X74637107Y-77177107D03*
X77177107Y-77177107D03*
X79717107Y-77177107D03*
X82257107Y-77177107D03*
X84797107Y-77177107D03*
X87337107Y-77177107D03*
X89877107Y-77177107D03*
X92417107Y-77177107D03*
X94957107Y-77177107D03*
X97497107Y-77177107D03*
X100037107Y-77177107D03*
X102577107Y-77177107D03*
X105117107Y-77177107D03*
X107657107Y-77177107D03*
X110197107Y-77177107D03*
X112737107Y-77177107D03*
X115277107Y-77177107D03*
X117817107Y-77177107D03*
D16*
X124548107Y-26740107D03*
X124548107Y-28790107D03*
D17*
X28917107Y-72097107D03*
D18*
X28917107Y-69557107D03*
X28917107Y-67017107D03*
X28917107Y-64477107D03*
X28917107Y-61937107D03*
X28917107Y-59397107D03*
X28917107Y-56857107D03*
X28917107Y-54317107D03*
D17*
X28917107Y-92402107D03*
D18*
X28917107Y-89862107D03*
X28917107Y-87322107D03*
X28917107Y-84782107D03*
X28917107Y-82242107D03*
X28917107Y-79702107D03*
X28917107Y-77162107D03*
X28917107Y-74622107D03*
D17*
X124802107Y-32727107D03*
D18*
X122262107Y-32727107D03*
X124802107Y-35267107D03*
X122262107Y-35267107D03*
X124802107Y-37807107D03*
X122262107Y-37807107D03*
X124802107Y-40347107D03*
X122262107Y-40347107D03*
X124802107Y-42887107D03*
X122262107Y-42887107D03*
X124802107Y-45427107D03*
X122262107Y-45427107D03*
X124802107Y-47967107D03*
X122262107Y-47967107D03*
X124802107Y-50507107D03*
X122262107Y-50507107D03*
X124802107Y-53047107D03*
X122262107Y-53047107D03*
X124802107Y-55587107D03*
X122262107Y-55587107D03*
X124802107Y-58127107D03*
X122262107Y-58127107D03*
X124802107Y-60667107D03*
X122262107Y-60667107D03*
X124802107Y-63207107D03*
X122262107Y-63207107D03*
X124802107Y-65747107D03*
X122262107Y-65747107D03*
X124802107Y-68287107D03*
X122262107Y-68287107D03*
X124802107Y-70827107D03*
X122262107Y-70827107D03*
X124802107Y-73367107D03*
X122262107Y-73367107D03*
X124802107Y-75907107D03*
X122262107Y-75907107D03*
X124802107Y-78447107D03*
X122262107Y-78447107D03*
X124802107Y-80987107D03*
X122262107Y-80987107D03*
X124802107Y-83527107D03*
X122262107Y-83527107D03*
X124802107Y-86067107D03*
X122262107Y-86067107D03*
X124802107Y-88607107D03*
X122262107Y-88607107D03*
X124802107Y-91147107D03*
X122262107Y-91147107D03*
X124802107Y-93687107D03*
X122262107Y-93687107D03*
D17*
X28917107Y-51762107D03*
D18*
X28917107Y-49222107D03*
X28917107Y-46682107D03*
X28917107Y-44142107D03*
X28917107Y-41602107D03*
X28917107Y-39062107D03*
X28917107Y-36522107D03*
X28917107Y-33982107D03*
D19*
X32727107Y-28857107D03*
D20*
X122389107Y-27774107D03*
D19*
X32727107Y-79844107D03*
X119087107Y-67017107D03*
X118741107Y-79971107D03*
X119087107Y-28857107D03*
X32727107Y-67017107D03*
X119087107Y-41617107D03*
X32727107Y-54317107D03*
X119087107Y-54317107D03*
D21*
X121754107Y-97497107D03*
D19*
X119087107Y-94957107D03*
X32727107Y-94957107D03*
X32727107Y-41617107D03*
D22*
X31457107Y-67017107D02*
X32727107Y-67017107D01*
X32727107Y-41617107D02*
X119087107Y-41617107D01*
X32727107Y-54317107D02*
X119087107Y-54317107D01*
X118614107Y-79844107D02*
X118741107Y-79971107D01*
X32727107Y-79844107D02*
X118614107Y-79844107D01*
X32727107Y-94957107D02*
X31330107Y-94957107D01*
X32727107Y-94957107D02*
X119087107Y-94957107D01*
X32727107Y-28857107D02*
X31457107Y-28857107D01*
X32727107Y-28857107D02*
X119087107Y-28857107D01*
X32727107Y-67017107D02*
X119087107Y-67017107D01*
X118741107Y-79971107D02*
X118868107Y-79844107D01*
X32727107Y-41617107D02*
X31457107Y-41617107D01*
X119087107Y-41617107D02*
X120357107Y-41617107D01*
D23*
X122389107Y-28740107D02*
X122389107Y-27774107D01*
X120611107Y-30060107D02*
X124548107Y-30060107D01*
D22*
X119087107Y-54317107D02*
X120357107Y-54317107D01*
X119087107Y-67017107D02*
X120357107Y-67017107D01*
X31457107Y-79844107D02*
X32727107Y-79844107D01*
D24*
X31457107Y-54317107D02*
X32727107Y-54317107D01*
D22*
X118868107Y-79844107D02*
X120357107Y-79844107D01*
D23*
X124548107Y-30060107D02*
X124548107Y-28790107D01*
M02*
