G04 #@! TF.GenerationSoftware,KiCad,Pcbnew,7.0.10*
G04 #@! TF.CreationDate,2024-01-03T11:20:40+01:00*
G04 #@! TF.ProjectId,MAR,4d41522e-6b69-4636-9164-5f7063625858,rev?*
G04 #@! TF.SameCoordinates,Original*
G04 #@! TF.FileFunction,Copper,L4,Bot*
G04 #@! TF.FilePolarity,Positive*
%FSLAX46Y46*%
G04 Gerber Fmt 4.6, Leading zero omitted, Abs format (unit mm)*
G04 Created by KiCad (PCBNEW 7.0.10) date 2024-01-03 11:20:40*
%MOMM*%
%LPD*%
G01*
G04 APERTURE LIST*
G04 #@! TA.AperFunction,ComponentPad*
%ADD10R,1.700000X1.700000*%
G04 #@! TD*
G04 #@! TA.AperFunction,ComponentPad*
%ADD11O,1.700000X1.700000*%
G04 #@! TD*
G04 #@! TA.AperFunction,ViaPad*
%ADD12C,0.600000*%
G04 #@! TD*
G04 #@! TA.AperFunction,ViaPad*
%ADD13C,0.900000*%
G04 #@! TD*
G04 #@! TA.AperFunction,Conductor*
%ADD14C,0.400000*%
G04 #@! TD*
G04 #@! TA.AperFunction,Conductor*
%ADD15C,0.127000*%
G04 #@! TD*
G04 #@! TA.AperFunction,Conductor*
%ADD16C,1.500000*%
G04 #@! TD*
G04 APERTURE END LIST*
D10*
X62230000Y-69215000D03*
D11*
X64770000Y-69215000D03*
X62230000Y-71755000D03*
X64770000Y-71755000D03*
X62230000Y-74295000D03*
X64770000Y-74295000D03*
X62230000Y-76835000D03*
X64770000Y-76835000D03*
D10*
X62230000Y-86995000D03*
D11*
X64770000Y-86995000D03*
X62230000Y-89535000D03*
X64770000Y-89535000D03*
X62230000Y-92075000D03*
X64770000Y-92075000D03*
X62230000Y-94615000D03*
X64770000Y-94615000D03*
D10*
X62230000Y-51435000D03*
D11*
X64770000Y-51435000D03*
X62230000Y-53975000D03*
X64770000Y-53975000D03*
X62230000Y-56515000D03*
X64770000Y-56515000D03*
X62230000Y-59055000D03*
X64770000Y-59055000D03*
D10*
X29845000Y-33020000D03*
D11*
X27305000Y-33020000D03*
X29845000Y-35560000D03*
X27305000Y-35560000D03*
X29845000Y-38100000D03*
X27305000Y-38100000D03*
X29845000Y-40640000D03*
X27305000Y-40640000D03*
X29845000Y-43180000D03*
X27305000Y-43180000D03*
X29845000Y-45720000D03*
X27305000Y-45720000D03*
X29845000Y-48260000D03*
X27305000Y-48260000D03*
X29845000Y-50800000D03*
X27305000Y-50800000D03*
X29845000Y-53340000D03*
X27305000Y-53340000D03*
X29845000Y-55880000D03*
X27305000Y-55880000D03*
X29845000Y-58420000D03*
X27305000Y-58420000D03*
X29845000Y-60960000D03*
X27305000Y-60960000D03*
X29845000Y-63500000D03*
X27305000Y-63500000D03*
X29845000Y-66040000D03*
X27305000Y-66040000D03*
X29845000Y-68580000D03*
X27305000Y-68580000D03*
X29845000Y-71120000D03*
X27305000Y-71120000D03*
X29845000Y-73660000D03*
X27305000Y-73660000D03*
X29845000Y-76200000D03*
X27305000Y-76200000D03*
X29845000Y-78740000D03*
X27305000Y-78740000D03*
X29845000Y-81280000D03*
X27305000Y-81280000D03*
X29845000Y-83820000D03*
X27305000Y-83820000D03*
X29845000Y-86360000D03*
X27305000Y-86360000D03*
X29845000Y-88900000D03*
X27305000Y-88900000D03*
X29845000Y-91440000D03*
X27305000Y-91440000D03*
X29845000Y-93980000D03*
X27305000Y-93980000D03*
D10*
X123190000Y-54610000D03*
D11*
X123190000Y-57150000D03*
X123190000Y-59690000D03*
X123190000Y-62230000D03*
X123190000Y-64770000D03*
X123190000Y-67310000D03*
X123190000Y-69850000D03*
X123190000Y-72390000D03*
D12*
X48133000Y-67945000D03*
X47625000Y-50165000D03*
X96266000Y-72390000D03*
X96266000Y-58420000D03*
X96266000Y-67945000D03*
X96266000Y-80010000D03*
X96266000Y-77470000D03*
X96266000Y-76200000D03*
X120650000Y-81280000D03*
X94234000Y-66040000D03*
D13*
X30099000Y-27695000D03*
D12*
X120650000Y-86360000D03*
X120650000Y-76200000D03*
X120650000Y-93980000D03*
X120650000Y-78740000D03*
X47625000Y-97155000D03*
X94234000Y-67945000D03*
X73025000Y-98425000D03*
X94234000Y-98425000D03*
X94234000Y-80010000D03*
X120650000Y-83820000D03*
X82550000Y-53975000D03*
X82550000Y-52705000D03*
X82550000Y-56515000D03*
X82550000Y-55245000D03*
X82550000Y-59055000D03*
X82550000Y-57785000D03*
X82550000Y-61595000D03*
X82550000Y-60325000D03*
X82550000Y-71755000D03*
X82550000Y-70485000D03*
X82550000Y-74295000D03*
X82550000Y-73025000D03*
X82550000Y-76835000D03*
X82550000Y-75565000D03*
X82550000Y-79375000D03*
X82550000Y-78105000D03*
X82550000Y-89535000D03*
X82550000Y-89535000D03*
X82550000Y-88265000D03*
X82550000Y-92075000D03*
X82550000Y-92075000D03*
X82550000Y-90805000D03*
X82550000Y-94615000D03*
X82550000Y-94615000D03*
X82550000Y-93345000D03*
X82550000Y-97155000D03*
X82550000Y-95885000D03*
X114300000Y-93980000D03*
X69850000Y-96520000D03*
X99695000Y-74930000D03*
X84582000Y-96520000D03*
X111125000Y-54610000D03*
X114300000Y-88900000D03*
X114300000Y-86360000D03*
X68580000Y-61595000D03*
X68580000Y-97790000D03*
X111760000Y-57150000D03*
X83820000Y-80010000D03*
X83820000Y-97790000D03*
X68580000Y-79375000D03*
X83820000Y-62230000D03*
X112395000Y-62230000D03*
X114300000Y-83820000D03*
X113030000Y-64770000D03*
X114300000Y-81280000D03*
X113665000Y-67310000D03*
X114300000Y-78740000D03*
X114300000Y-76200000D03*
X114300000Y-69850000D03*
X114300000Y-91440000D03*
X110490000Y-60960000D03*
D14*
X96266000Y-77470000D02*
X96266000Y-81280000D01*
X96266000Y-58420000D02*
X96266000Y-67945000D01*
X96266000Y-76200000D02*
X96266000Y-77470000D01*
X96266000Y-72390000D02*
X96266000Y-76200000D01*
X96266000Y-67945000D02*
X96266000Y-72390000D01*
X47625000Y-97155000D02*
X47625000Y-100330000D01*
D15*
X120650000Y-76200000D02*
X125603000Y-76200000D01*
X120650000Y-81280000D02*
X125603000Y-81280000D01*
X120650000Y-78740000D02*
X125603000Y-78740000D01*
X120650000Y-93980000D02*
X125603000Y-93980000D01*
D16*
X29845000Y-93980000D02*
X29845000Y-100330000D01*
D14*
X73025000Y-98425000D02*
X73025000Y-100330000D01*
X94234000Y-98425000D02*
X94234000Y-99949000D01*
X94234000Y-66040000D02*
X94234000Y-67945000D01*
D15*
X120650000Y-83820000D02*
X125603000Y-83820000D01*
D14*
X94234000Y-67945000D02*
X94234000Y-80010000D01*
D15*
X120650000Y-86360000D02*
X125603000Y-86360000D01*
X73025000Y-45720000D02*
X73025000Y-53975000D01*
X43815000Y-45720000D02*
X73025000Y-45720000D01*
X31115000Y-33020000D02*
X43815000Y-45720000D01*
X73025000Y-53975000D02*
X82550000Y-53975000D01*
X29845000Y-33020000D02*
X31115000Y-33020000D01*
X44450000Y-45085000D02*
X73660000Y-45085000D01*
X31115000Y-31750000D02*
X44450000Y-45085000D01*
X73660000Y-52705000D02*
X82550000Y-52705000D01*
X28575000Y-31750000D02*
X31115000Y-31750000D01*
X27305000Y-33020000D02*
X28575000Y-31750000D01*
X73660000Y-45085000D02*
X73660000Y-52705000D01*
X42545000Y-46990000D02*
X71755000Y-46990000D01*
X71755000Y-56515000D02*
X82550000Y-56515000D01*
X29845000Y-35560000D02*
X31115000Y-35560000D01*
X31115000Y-35560000D02*
X42545000Y-46990000D01*
X71755000Y-46990000D02*
X71755000Y-56515000D01*
X72390000Y-46355000D02*
X59055000Y-46355000D01*
X72390000Y-55245000D02*
X72390000Y-46355000D01*
X31115000Y-34290000D02*
X43180000Y-46355000D01*
X59055000Y-46355000D02*
X58420000Y-46355000D01*
X43180000Y-46355000D02*
X49530000Y-46355000D01*
X28575000Y-34290000D02*
X31115000Y-34290000D01*
X49530000Y-46355000D02*
X58420000Y-46355000D01*
X27305000Y-35560000D02*
X28575000Y-34290000D01*
X82550000Y-55245000D02*
X72390000Y-55245000D01*
X31115000Y-38100000D02*
X41275000Y-48260000D01*
X70485000Y-59055000D02*
X82550000Y-59055000D01*
X70485000Y-48260000D02*
X70485000Y-59055000D01*
X41275000Y-48260000D02*
X70485000Y-48260000D01*
X29845000Y-38100000D02*
X31115000Y-38100000D01*
X71120000Y-57785000D02*
X82550000Y-57785000D01*
X41910000Y-47625000D02*
X71120000Y-47625000D01*
X27305000Y-38100000D02*
X28575000Y-36830000D01*
X28575000Y-36830000D02*
X31115000Y-36830000D01*
X31115000Y-36830000D02*
X41910000Y-47625000D01*
X71120000Y-47625000D02*
X71120000Y-57785000D01*
X29845000Y-40640000D02*
X31115000Y-40640000D01*
X31115000Y-40640000D02*
X40005000Y-49530000D01*
X69215000Y-49530000D02*
X69215000Y-61595000D01*
X69215000Y-61595000D02*
X82550000Y-61595000D01*
X40005000Y-49530000D02*
X69215000Y-49530000D01*
X28575000Y-39370000D02*
X31115000Y-39370000D01*
X69850000Y-48895000D02*
X69850000Y-60325000D01*
X27305000Y-40640000D02*
X28575000Y-39370000D01*
X69850000Y-60325000D02*
X82550000Y-60325000D01*
X31115000Y-39370000D02*
X40640000Y-48895000D01*
X40640000Y-48895000D02*
X69850000Y-48895000D01*
X51435000Y-63500000D02*
X73025000Y-63500000D01*
X29845000Y-43180000D02*
X31115000Y-43180000D01*
X31115000Y-43180000D02*
X51435000Y-63500000D01*
X73025000Y-71755000D02*
X82550000Y-71755000D01*
X73025000Y-63500000D02*
X73025000Y-71755000D01*
X27305000Y-43180000D02*
X28575000Y-41910000D01*
X73660000Y-70485000D02*
X82550000Y-70485000D01*
X28575000Y-41910000D02*
X31115000Y-41910000D01*
X52070000Y-62865000D02*
X73660000Y-62865000D01*
X73660000Y-62865000D02*
X73660000Y-70485000D01*
X31115000Y-41910000D02*
X52070000Y-62865000D01*
X31115000Y-45720000D02*
X50165000Y-64770000D01*
X50165000Y-64770000D02*
X57785000Y-64770000D01*
X82550000Y-74295000D02*
X71755000Y-74295000D01*
X71755000Y-74295000D02*
X71755000Y-64770000D01*
X29845000Y-45720000D02*
X31115000Y-45720000D01*
X71755000Y-64770000D02*
X57785000Y-64770000D01*
X72390000Y-64135000D02*
X72390000Y-73025000D01*
X72390000Y-73025000D02*
X82550000Y-73025000D01*
X28575000Y-44450000D02*
X31115000Y-44450000D01*
X31115000Y-44450000D02*
X50800000Y-64135000D01*
X27305000Y-45720000D02*
X28575000Y-44450000D01*
X50800000Y-64135000D02*
X72390000Y-64135000D01*
X70485000Y-76835000D02*
X70485000Y-66040000D01*
X31115000Y-48260000D02*
X48895000Y-66040000D01*
X56515000Y-66040000D02*
X70485000Y-66040000D01*
X29845000Y-48260000D02*
X31115000Y-48260000D01*
X48895000Y-66040000D02*
X56515000Y-66040000D01*
X82550000Y-76835000D02*
X70485000Y-76835000D01*
X31115000Y-46990000D02*
X49530000Y-65405000D01*
X82550000Y-75565000D02*
X71120000Y-75565000D01*
X71120000Y-75565000D02*
X71120000Y-65405000D01*
X49530000Y-65405000D02*
X57150000Y-65405000D01*
X28575000Y-46990000D02*
X31115000Y-46990000D01*
X71120000Y-65405000D02*
X57150000Y-65405000D01*
X27305000Y-48260000D02*
X28575000Y-46990000D01*
X31115000Y-50800000D02*
X47625000Y-67310000D01*
X47625000Y-67310000D02*
X55245000Y-67310000D01*
X29845000Y-50800000D02*
X31115000Y-50800000D01*
X69215000Y-79375000D02*
X82550000Y-79375000D01*
X69215000Y-67310000D02*
X69215000Y-79375000D01*
X55245000Y-67310000D02*
X69215000Y-67310000D01*
X31115000Y-49530000D02*
X48260000Y-66675000D01*
X28575000Y-49530000D02*
X31115000Y-49530000D01*
X48260000Y-66675000D02*
X55880000Y-66675000D01*
X27305000Y-50800000D02*
X28575000Y-49530000D01*
X55880000Y-66675000D02*
X69850000Y-66675000D01*
X69850000Y-66675000D02*
X69850000Y-78105000D01*
X69850000Y-78105000D02*
X82550000Y-78105000D01*
X73025000Y-81280000D02*
X59055000Y-81280000D01*
X59055000Y-81280000D02*
X31115000Y-53340000D01*
X73025000Y-89535000D02*
X73025000Y-81280000D01*
X31115000Y-53340000D02*
X29845000Y-53340000D01*
X82550000Y-89535000D02*
X73025000Y-89535000D01*
X73660000Y-80645000D02*
X59690000Y-80645000D01*
X28575000Y-52070000D02*
X27305000Y-53340000D01*
X59690000Y-80645000D02*
X31115000Y-52070000D01*
X73660000Y-88265000D02*
X73660000Y-80645000D01*
X82550000Y-88265000D02*
X73660000Y-88265000D01*
X31115000Y-52070000D02*
X28575000Y-52070000D01*
X71755000Y-92075000D02*
X71755000Y-82550000D01*
X31115000Y-55880000D02*
X29845000Y-55880000D01*
X57785000Y-82550000D02*
X31115000Y-55880000D01*
X71755000Y-82550000D02*
X57785000Y-82550000D01*
X82550000Y-92075000D02*
X71755000Y-92075000D01*
X58420000Y-81915000D02*
X31115000Y-54610000D01*
X28575000Y-54610000D02*
X27305000Y-55880000D01*
X82550000Y-90805000D02*
X72390000Y-90805000D01*
X72390000Y-81915000D02*
X58420000Y-81915000D01*
X72390000Y-90805000D02*
X72390000Y-81915000D01*
X31115000Y-54610000D02*
X28575000Y-54610000D01*
X56515000Y-83820000D02*
X70485000Y-83820000D01*
X31115000Y-58420000D02*
X56515000Y-83820000D01*
X70485000Y-94615000D02*
X70485000Y-83820000D01*
X29845000Y-58420000D02*
X31115000Y-58420000D01*
X82550000Y-94615000D02*
X70485000Y-94615000D01*
X28575000Y-57150000D02*
X27305000Y-58420000D01*
X71120000Y-83185000D02*
X57150000Y-83185000D01*
X57150000Y-83185000D02*
X31115000Y-57150000D01*
X31115000Y-57150000D02*
X28575000Y-57150000D01*
X71120000Y-93345000D02*
X71120000Y-83185000D01*
X82550000Y-93345000D02*
X71120000Y-93345000D01*
X29845000Y-60960000D02*
X31115000Y-60960000D01*
X69215000Y-85090000D02*
X69215000Y-97155000D01*
X31115000Y-60960000D02*
X55245000Y-85090000D01*
X55245000Y-85090000D02*
X69215000Y-85090000D01*
X69215000Y-97155000D02*
X82550000Y-97155000D01*
X27305000Y-60960000D02*
X28575000Y-59690000D01*
X69850000Y-84455000D02*
X69850000Y-95885000D01*
X55880000Y-84455000D02*
X69850000Y-84455000D01*
X69850000Y-95885000D02*
X82550000Y-95885000D01*
X28575000Y-59690000D02*
X31115000Y-59690000D01*
X31115000Y-59690000D02*
X55880000Y-84455000D01*
X109855000Y-93980000D02*
X109855000Y-74930000D01*
X114300000Y-93980000D02*
X109855000Y-93980000D01*
X109855000Y-74930000D02*
X99695000Y-74930000D01*
X69850000Y-96520000D02*
X84582000Y-96520000D01*
X111125000Y-88900000D02*
X111125000Y-54610000D01*
X114300000Y-88900000D02*
X111125000Y-88900000D01*
X111760000Y-86360000D02*
X111760000Y-57150000D01*
X68580000Y-79375000D02*
X68580000Y-80010000D01*
X68580000Y-62230000D02*
X83820000Y-62230000D01*
X114300000Y-86360000D02*
X111760000Y-86360000D01*
X68580000Y-97790000D02*
X83820000Y-97790000D01*
X68580000Y-80010000D02*
X83820000Y-80010000D01*
X68580000Y-61595000D02*
X68580000Y-62230000D01*
X114300000Y-83820000D02*
X112395000Y-83820000D01*
X112395000Y-83820000D02*
X112395000Y-62230000D01*
X114300000Y-81280000D02*
X113030000Y-81280000D01*
X113030000Y-81280000D02*
X113030000Y-64770000D01*
X113665000Y-78740000D02*
X113665000Y-67310000D01*
X114300000Y-78740000D02*
X113665000Y-78740000D01*
X114300000Y-76200000D02*
X114300000Y-69850000D01*
X114300000Y-91440000D02*
X110617000Y-91440000D01*
X110490000Y-91313000D02*
X110490000Y-60960000D01*
X110617000Y-91440000D02*
X110490000Y-91313000D01*
G04 #@! TA.AperFunction,Conductor*
G36*
X26670000Y-25781000D02*
G01*
X26081323Y-25781000D01*
X26123716Y-25758340D01*
X26141643Y-25750915D01*
X26254207Y-25716770D01*
X26273233Y-25712985D01*
X26395157Y-25700976D01*
X26404861Y-25700500D01*
X26670000Y-25700500D01*
X26670000Y-25781000D01*
G37*
G04 #@! TD.AperFunction*
G04 #@! TA.AperFunction,Conductor*
G36*
X126004842Y-25700976D02*
G01*
X126126764Y-25712985D01*
X126145794Y-25716770D01*
X126151133Y-25718390D01*
X126258354Y-25750915D01*
X126276285Y-25758342D01*
X126318675Y-25781000D01*
X26670000Y-25781000D01*
X26670000Y-25700500D01*
X125952405Y-25700500D01*
X125995139Y-25700500D01*
X126004842Y-25700976D01*
G37*
G04 #@! TD.AperFunction*
G04 #@! TA.AperFunction,Conductor*
G36*
X47553931Y-67673439D02*
G01*
X47554120Y-67672308D01*
X47564255Y-67673998D01*
X47564259Y-67674000D01*
X47564263Y-67674000D01*
X47571798Y-67675257D01*
X47579352Y-67676198D01*
X47579353Y-67676199D01*
X47579353Y-67676198D01*
X47579354Y-67676199D01*
X47603967Y-67675180D01*
X47629960Y-67674105D01*
X47635083Y-67674000D01*
X55184259Y-67674000D01*
X68727000Y-67674000D01*
X68794039Y-67693685D01*
X68839794Y-67746489D01*
X68851000Y-67798000D01*
X68851000Y-78663601D01*
X68831315Y-78730640D01*
X68778511Y-78776395D01*
X68710815Y-78786540D01*
X68580001Y-78769318D01*
X68579999Y-78769318D01*
X68423239Y-78789955D01*
X68423237Y-78789956D01*
X68277160Y-78850463D01*
X68151718Y-78946718D01*
X68055463Y-79072160D01*
X67994956Y-79218237D01*
X67994955Y-79218239D01*
X67974318Y-79374998D01*
X67974318Y-79375001D01*
X67994955Y-79531760D01*
X67994956Y-79531762D01*
X68037197Y-79633742D01*
X68055464Y-79677841D01*
X68151718Y-79803282D01*
X68167486Y-79815381D01*
X68208688Y-79871805D01*
X68216000Y-79913756D01*
X68216000Y-79989818D01*
X68215576Y-80000059D01*
X68212226Y-80040474D01*
X68222182Y-80079785D01*
X68224286Y-80089817D01*
X68232091Y-80136590D01*
X68223709Y-80205955D01*
X68179156Y-80259778D01*
X68112578Y-80280968D01*
X68109782Y-80281000D01*
X59892136Y-80281000D01*
X59825097Y-80261315D01*
X59804455Y-80244681D01*
X56394774Y-76835000D01*
X61074571Y-76835000D01*
X61094244Y-77047310D01*
X61148035Y-77236364D01*
X61152596Y-77252392D01*
X61152596Y-77252394D01*
X61247632Y-77443253D01*
X61348929Y-77577390D01*
X61376128Y-77613407D01*
X61533698Y-77757052D01*
X61714981Y-77869298D01*
X61913802Y-77946321D01*
X62123390Y-77985500D01*
X62123392Y-77985500D01*
X62336608Y-77985500D01*
X62336610Y-77985500D01*
X62546198Y-77946321D01*
X62745019Y-77869298D01*
X62926302Y-77757052D01*
X63083872Y-77613407D01*
X63212366Y-77443255D01*
X63227342Y-77413179D01*
X63307403Y-77252394D01*
X63307403Y-77252393D01*
X63307405Y-77252389D01*
X63365756Y-77047310D01*
X63376529Y-76931047D01*
X63402315Y-76866111D01*
X63446869Y-76834194D01*
X63410497Y-76813331D01*
X63378307Y-76751318D01*
X63376529Y-76738951D01*
X63370903Y-76678237D01*
X63365756Y-76622690D01*
X63307405Y-76417611D01*
X63307403Y-76417606D01*
X63307403Y-76417605D01*
X63212367Y-76226746D01*
X63083872Y-76056593D01*
X63058434Y-76033403D01*
X62926302Y-75912948D01*
X62745019Y-75800702D01*
X62745017Y-75800701D01*
X62638965Y-75759617D01*
X62546198Y-75723679D01*
X62349385Y-75686888D01*
X62287106Y-75655221D01*
X62251833Y-75594908D01*
X62254767Y-75525100D01*
X62294976Y-75467960D01*
X62349384Y-75443111D01*
X62546198Y-75406321D01*
X62745019Y-75329298D01*
X62926302Y-75217052D01*
X63083872Y-75073407D01*
X63212366Y-74903255D01*
X63227342Y-74873179D01*
X63307403Y-74712394D01*
X63307403Y-74712393D01*
X63307405Y-74712389D01*
X63365756Y-74507310D01*
X63376529Y-74391047D01*
X63402315Y-74326111D01*
X63446869Y-74294194D01*
X63410497Y-74273331D01*
X63378307Y-74211318D01*
X63376529Y-74198951D01*
X63370903Y-74138237D01*
X63365756Y-74082690D01*
X63307405Y-73877611D01*
X63307403Y-73877606D01*
X63307403Y-73877605D01*
X63212367Y-73686746D01*
X63083872Y-73516593D01*
X62926302Y-73372948D01*
X62745019Y-73260702D01*
X62745017Y-73260701D01*
X62645608Y-73222190D01*
X62546198Y-73183679D01*
X62349385Y-73146888D01*
X62287106Y-73115221D01*
X62251833Y-73054908D01*
X62254767Y-72985100D01*
X62294976Y-72927960D01*
X62349384Y-72903111D01*
X62546198Y-72866321D01*
X62745019Y-72789298D01*
X62926302Y-72677052D01*
X63083872Y-72533407D01*
X63212366Y-72363255D01*
X63227342Y-72333179D01*
X63307403Y-72172394D01*
X63307403Y-72172393D01*
X63307405Y-72172389D01*
X63365756Y-71967310D01*
X63376529Y-71851047D01*
X63402315Y-71786111D01*
X63446869Y-71754194D01*
X63410497Y-71733331D01*
X63378307Y-71671318D01*
X63376529Y-71658951D01*
X63375849Y-71651613D01*
X63365756Y-71542690D01*
X63307405Y-71337611D01*
X63307403Y-71337606D01*
X63307403Y-71337605D01*
X63212367Y-71146746D01*
X63083872Y-70976593D01*
X62926302Y-70832948D01*
X62745019Y-70720702D01*
X62745017Y-70720701D01*
X62645608Y-70682190D01*
X62546198Y-70643679D01*
X62373456Y-70611387D01*
X62311176Y-70579719D01*
X62275903Y-70519407D01*
X62278837Y-70449599D01*
X62319046Y-70392459D01*
X62383764Y-70366128D01*
X62396233Y-70365499D01*
X63124864Y-70365499D01*
X63124879Y-70365497D01*
X63124882Y-70365497D01*
X63149987Y-70362586D01*
X63149988Y-70362585D01*
X63149991Y-70362585D01*
X63252765Y-70317206D01*
X63332206Y-70237765D01*
X63377585Y-70134991D01*
X63380500Y-70109865D01*
X63380499Y-69371046D01*
X63400183Y-69304009D01*
X63452987Y-69258254D01*
X63522146Y-69248310D01*
X63585702Y-69277335D01*
X63623476Y-69336113D01*
X63627970Y-69359606D01*
X63634244Y-69427310D01*
X63692596Y-69632392D01*
X63692596Y-69632394D01*
X63787632Y-69823253D01*
X63891250Y-69960464D01*
X63916128Y-69993407D01*
X64073698Y-70137052D01*
X64254981Y-70249298D01*
X64453802Y-70326321D01*
X64650613Y-70363111D01*
X64712893Y-70394779D01*
X64748166Y-70455092D01*
X64745232Y-70524900D01*
X64705023Y-70582040D01*
X64650613Y-70606888D01*
X64453802Y-70643679D01*
X64453799Y-70643679D01*
X64453799Y-70643680D01*
X64254982Y-70720701D01*
X64254980Y-70720702D01*
X64073699Y-70832947D01*
X63916127Y-70976593D01*
X63787632Y-71146746D01*
X63692596Y-71337605D01*
X63692596Y-71337607D01*
X63634244Y-71542689D01*
X63623471Y-71658951D01*
X63597685Y-71723888D01*
X63553130Y-71755804D01*
X63589503Y-71776668D01*
X63621693Y-71838681D01*
X63623470Y-71851047D01*
X63634244Y-71967310D01*
X63688035Y-72156364D01*
X63692596Y-72172392D01*
X63692596Y-72172394D01*
X63787632Y-72363253D01*
X63888929Y-72497390D01*
X63916128Y-72533407D01*
X64073698Y-72677052D01*
X64254981Y-72789298D01*
X64453802Y-72866321D01*
X64650613Y-72903111D01*
X64712893Y-72934779D01*
X64748166Y-72995092D01*
X64745232Y-73064900D01*
X64705023Y-73122040D01*
X64650613Y-73146888D01*
X64453802Y-73183679D01*
X64453799Y-73183679D01*
X64453799Y-73183680D01*
X64254982Y-73260701D01*
X64254980Y-73260702D01*
X64073699Y-73372947D01*
X63916127Y-73516593D01*
X63787632Y-73686746D01*
X63692596Y-73877605D01*
X63692596Y-73877607D01*
X63634244Y-74082689D01*
X63623471Y-74198951D01*
X63597685Y-74263888D01*
X63553130Y-74295804D01*
X63589503Y-74316668D01*
X63621693Y-74378681D01*
X63623470Y-74391047D01*
X63634244Y-74507310D01*
X63688035Y-74696364D01*
X63692596Y-74712392D01*
X63692596Y-74712394D01*
X63787632Y-74903253D01*
X63888929Y-75037390D01*
X63916128Y-75073407D01*
X64073698Y-75217052D01*
X64254981Y-75329298D01*
X64453802Y-75406321D01*
X64650613Y-75443111D01*
X64712893Y-75474779D01*
X64748166Y-75535092D01*
X64745232Y-75604900D01*
X64705023Y-75662040D01*
X64650613Y-75686888D01*
X64453802Y-75723679D01*
X64453799Y-75723679D01*
X64453799Y-75723680D01*
X64254982Y-75800701D01*
X64254980Y-75800702D01*
X64073699Y-75912947D01*
X63916127Y-76056593D01*
X63787632Y-76226746D01*
X63692596Y-76417605D01*
X63692596Y-76417607D01*
X63634244Y-76622689D01*
X63623471Y-76738951D01*
X63597685Y-76803888D01*
X63553130Y-76835804D01*
X63589503Y-76856668D01*
X63621693Y-76918681D01*
X63623470Y-76931047D01*
X63634244Y-77047310D01*
X63688035Y-77236364D01*
X63692596Y-77252392D01*
X63692596Y-77252394D01*
X63787632Y-77443253D01*
X63888929Y-77577390D01*
X63916128Y-77613407D01*
X64073698Y-77757052D01*
X64254981Y-77869298D01*
X64453802Y-77946321D01*
X64663390Y-77985500D01*
X64663392Y-77985500D01*
X64876608Y-77985500D01*
X64876610Y-77985500D01*
X65086198Y-77946321D01*
X65285019Y-77869298D01*
X65466302Y-77757052D01*
X65623872Y-77613407D01*
X65752366Y-77443255D01*
X65767342Y-77413179D01*
X65847403Y-77252394D01*
X65847403Y-77252393D01*
X65847405Y-77252389D01*
X65905756Y-77047310D01*
X65925429Y-76835000D01*
X65905756Y-76622690D01*
X65847405Y-76417611D01*
X65847403Y-76417606D01*
X65847403Y-76417605D01*
X65752367Y-76226746D01*
X65623872Y-76056593D01*
X65598434Y-76033403D01*
X65466302Y-75912948D01*
X65285019Y-75800702D01*
X65285017Y-75800701D01*
X65178965Y-75759617D01*
X65086198Y-75723679D01*
X64889385Y-75686888D01*
X64827106Y-75655221D01*
X64791833Y-75594908D01*
X64794767Y-75525100D01*
X64834976Y-75467960D01*
X64889384Y-75443111D01*
X65086198Y-75406321D01*
X65285019Y-75329298D01*
X65466302Y-75217052D01*
X65623872Y-75073407D01*
X65752366Y-74903255D01*
X65767342Y-74873179D01*
X65847403Y-74712394D01*
X65847403Y-74712393D01*
X65847405Y-74712389D01*
X65905756Y-74507310D01*
X65925429Y-74295000D01*
X65905756Y-74082690D01*
X65847405Y-73877611D01*
X65847403Y-73877606D01*
X65847403Y-73877605D01*
X65752367Y-73686746D01*
X65623872Y-73516593D01*
X65466302Y-73372948D01*
X65285019Y-73260702D01*
X65285017Y-73260701D01*
X65185608Y-73222190D01*
X65086198Y-73183679D01*
X64889385Y-73146888D01*
X64827106Y-73115221D01*
X64791833Y-73054908D01*
X64794767Y-72985100D01*
X64834976Y-72927960D01*
X64889384Y-72903111D01*
X65086198Y-72866321D01*
X65285019Y-72789298D01*
X65466302Y-72677052D01*
X65623872Y-72533407D01*
X65752366Y-72363255D01*
X65767342Y-72333179D01*
X65847403Y-72172394D01*
X65847403Y-72172393D01*
X65847405Y-72172389D01*
X65905756Y-71967310D01*
X65925429Y-71755000D01*
X65905756Y-71542690D01*
X65847405Y-71337611D01*
X65847403Y-71337606D01*
X65847403Y-71337605D01*
X65752367Y-71146746D01*
X65623872Y-70976593D01*
X65466302Y-70832948D01*
X65285019Y-70720702D01*
X65285017Y-70720701D01*
X65185608Y-70682190D01*
X65086198Y-70643679D01*
X64889385Y-70606888D01*
X64827106Y-70575221D01*
X64791833Y-70514908D01*
X64794767Y-70445100D01*
X64834976Y-70387960D01*
X64889384Y-70363111D01*
X65086198Y-70326321D01*
X65285019Y-70249298D01*
X65466302Y-70137052D01*
X65623872Y-69993407D01*
X65752366Y-69823255D01*
X65783973Y-69759779D01*
X65847403Y-69632394D01*
X65847403Y-69632393D01*
X65847405Y-69632389D01*
X65905756Y-69427310D01*
X65925429Y-69215000D01*
X65905756Y-69002690D01*
X65847405Y-68797611D01*
X65847403Y-68797606D01*
X65847403Y-68797605D01*
X65752367Y-68606746D01*
X65623872Y-68436593D01*
X65466302Y-68292948D01*
X65285019Y-68180702D01*
X65285017Y-68180701D01*
X65185608Y-68142190D01*
X65086198Y-68103679D01*
X64876610Y-68064500D01*
X64663390Y-68064500D01*
X64453802Y-68103679D01*
X64453799Y-68103679D01*
X64453799Y-68103680D01*
X64254982Y-68180701D01*
X64254980Y-68180702D01*
X64073699Y-68292947D01*
X63916127Y-68436593D01*
X63787632Y-68606746D01*
X63692596Y-68797605D01*
X63692596Y-68797607D01*
X63634244Y-69002689D01*
X63627970Y-69070394D01*
X63602183Y-69135331D01*
X63545383Y-69176018D01*
X63475602Y-69179538D01*
X63414995Y-69144772D01*
X63382806Y-69082759D01*
X63380499Y-69058952D01*
X63380499Y-68320143D01*
X63380499Y-68320136D01*
X63379432Y-68310932D01*
X63377586Y-68295012D01*
X63377585Y-68295010D01*
X63377585Y-68295009D01*
X63332206Y-68192235D01*
X63252765Y-68112794D01*
X63232124Y-68103680D01*
X63149992Y-68067415D01*
X63124865Y-68064500D01*
X61335143Y-68064500D01*
X61335117Y-68064502D01*
X61310012Y-68067413D01*
X61310008Y-68067415D01*
X61207235Y-68112793D01*
X61127794Y-68192234D01*
X61082415Y-68295006D01*
X61082415Y-68295008D01*
X61079500Y-68320131D01*
X61079500Y-70109856D01*
X61079502Y-70109882D01*
X61082413Y-70134987D01*
X61082415Y-70134991D01*
X61127793Y-70237764D01*
X61127794Y-70237765D01*
X61207235Y-70317206D01*
X61310009Y-70362585D01*
X61335135Y-70365500D01*
X62063758Y-70365499D01*
X62130795Y-70385183D01*
X62176550Y-70437987D01*
X62186494Y-70507146D01*
X62157469Y-70570702D01*
X62098691Y-70608476D01*
X62086542Y-70611388D01*
X62030116Y-70621935D01*
X61913802Y-70643679D01*
X61913800Y-70643679D01*
X61913798Y-70643680D01*
X61714982Y-70720701D01*
X61714980Y-70720702D01*
X61533699Y-70832947D01*
X61376127Y-70976593D01*
X61247632Y-71146746D01*
X61152596Y-71337605D01*
X61152596Y-71337607D01*
X61115511Y-71467947D01*
X61094244Y-71542690D01*
X61074571Y-71755000D01*
X61094244Y-71967310D01*
X61148035Y-72156364D01*
X61152596Y-72172392D01*
X61152596Y-72172394D01*
X61247632Y-72363253D01*
X61348929Y-72497390D01*
X61376128Y-72533407D01*
X61533698Y-72677052D01*
X61714981Y-72789298D01*
X61913802Y-72866321D01*
X62110613Y-72903111D01*
X62172893Y-72934779D01*
X62208166Y-72995092D01*
X62205232Y-73064900D01*
X62165023Y-73122040D01*
X62110613Y-73146888D01*
X61913802Y-73183679D01*
X61913799Y-73183679D01*
X61913799Y-73183680D01*
X61714982Y-73260701D01*
X61714980Y-73260702D01*
X61533699Y-73372947D01*
X61376127Y-73516593D01*
X61247632Y-73686746D01*
X61152596Y-73877605D01*
X61152596Y-73877607D01*
X61151208Y-73882487D01*
X61094244Y-74082690D01*
X61074571Y-74295000D01*
X61094244Y-74507310D01*
X61148035Y-74696364D01*
X61152596Y-74712392D01*
X61152596Y-74712394D01*
X61247632Y-74903253D01*
X61348929Y-75037390D01*
X61376128Y-75073407D01*
X61533698Y-75217052D01*
X61714981Y-75329298D01*
X61913802Y-75406321D01*
X62110613Y-75443111D01*
X62172893Y-75474779D01*
X62208166Y-75535092D01*
X62205232Y-75604900D01*
X62165023Y-75662040D01*
X62110613Y-75686888D01*
X61913802Y-75723679D01*
X61913799Y-75723679D01*
X61913799Y-75723680D01*
X61714982Y-75800701D01*
X61714980Y-75800702D01*
X61533699Y-75912947D01*
X61376127Y-76056593D01*
X61247632Y-76226746D01*
X61152596Y-76417605D01*
X61152596Y-76417607D01*
X61094244Y-76622689D01*
X61077944Y-76798604D01*
X61074571Y-76835000D01*
X56394774Y-76835000D01*
X47440002Y-67880228D01*
X47406517Y-67818905D01*
X47411501Y-67749213D01*
X47453373Y-67693280D01*
X47518837Y-67668863D01*
X47553931Y-67673439D01*
G37*
G04 #@! TD.AperFunction*
G04 #@! TA.AperFunction,Conductor*
G36*
X39933936Y-49893438D02*
G01*
X39934125Y-49892308D01*
X39944253Y-49893998D01*
X39944259Y-49894000D01*
X39944264Y-49894000D01*
X39951809Y-49895259D01*
X39959351Y-49896199D01*
X39959354Y-49896200D01*
X39959356Y-49896199D01*
X39959357Y-49896200D01*
X40002175Y-49894428D01*
X40009975Y-49894105D01*
X40015100Y-49894000D01*
X68727000Y-49894000D01*
X68794039Y-49913685D01*
X68839794Y-49966489D01*
X68851000Y-50018000D01*
X68851000Y-60883601D01*
X68831315Y-60950640D01*
X68778511Y-60996395D01*
X68710815Y-61006540D01*
X68580001Y-60989318D01*
X68579999Y-60989318D01*
X68423239Y-61009955D01*
X68423237Y-61009956D01*
X68277160Y-61070463D01*
X68151718Y-61166718D01*
X68055463Y-61292160D01*
X67994956Y-61438237D01*
X67994955Y-61438239D01*
X67974318Y-61594998D01*
X67974318Y-61595001D01*
X67994955Y-61751760D01*
X67994956Y-61751762D01*
X68020160Y-61812611D01*
X68055464Y-61897841D01*
X68151718Y-62023282D01*
X68167486Y-62035381D01*
X68208688Y-62091805D01*
X68216000Y-62133756D01*
X68216000Y-62209818D01*
X68215576Y-62220059D01*
X68212226Y-62260474D01*
X68222182Y-62299785D01*
X68224286Y-62309817D01*
X68232091Y-62356590D01*
X68223709Y-62425955D01*
X68179156Y-62479778D01*
X68112578Y-62500968D01*
X68109782Y-62501000D01*
X52272136Y-62501000D01*
X52205097Y-62481315D01*
X52184455Y-62464681D01*
X48774774Y-59055000D01*
X61074571Y-59055000D01*
X61094244Y-59267310D01*
X61148035Y-59456364D01*
X61152596Y-59472392D01*
X61152596Y-59472394D01*
X61247632Y-59663253D01*
X61348929Y-59797390D01*
X61376128Y-59833407D01*
X61533698Y-59977052D01*
X61714981Y-60089298D01*
X61913802Y-60166321D01*
X62123390Y-60205500D01*
X62123392Y-60205500D01*
X62336608Y-60205500D01*
X62336610Y-60205500D01*
X62546198Y-60166321D01*
X62745019Y-60089298D01*
X62926302Y-59977052D01*
X63083872Y-59833407D01*
X63212366Y-59663255D01*
X63227342Y-59633179D01*
X63307403Y-59472394D01*
X63307403Y-59472393D01*
X63307405Y-59472389D01*
X63365756Y-59267310D01*
X63376529Y-59151047D01*
X63402315Y-59086111D01*
X63446869Y-59054194D01*
X63410497Y-59033331D01*
X63378307Y-58971318D01*
X63376529Y-58958951D01*
X63373670Y-58928101D01*
X63365756Y-58842690D01*
X63307405Y-58637611D01*
X63307403Y-58637606D01*
X63307403Y-58637605D01*
X63212367Y-58446746D01*
X63083872Y-58276593D01*
X63069221Y-58263237D01*
X62926302Y-58132948D01*
X62745019Y-58020702D01*
X62745017Y-58020701D01*
X62641986Y-57980787D01*
X62546198Y-57943679D01*
X62349385Y-57906888D01*
X62287106Y-57875221D01*
X62251833Y-57814908D01*
X62254767Y-57745100D01*
X62294976Y-57687960D01*
X62349384Y-57663111D01*
X62546198Y-57626321D01*
X62745019Y-57549298D01*
X62926302Y-57437052D01*
X63083872Y-57293407D01*
X63212366Y-57123255D01*
X63227342Y-57093179D01*
X63307403Y-56932394D01*
X63307403Y-56932393D01*
X63307405Y-56932389D01*
X63365756Y-56727310D01*
X63376529Y-56611047D01*
X63402315Y-56546111D01*
X63446869Y-56514194D01*
X63410497Y-56493331D01*
X63378307Y-56431318D01*
X63376529Y-56418951D01*
X63373670Y-56388101D01*
X63365756Y-56302690D01*
X63307405Y-56097611D01*
X63307403Y-56097606D01*
X63307403Y-56097605D01*
X63212367Y-55906746D01*
X63083872Y-55736593D01*
X63057120Y-55712205D01*
X62926302Y-55592948D01*
X62745019Y-55480702D01*
X62745017Y-55480701D01*
X62641986Y-55440787D01*
X62546198Y-55403679D01*
X62349385Y-55366888D01*
X62287106Y-55335221D01*
X62251833Y-55274908D01*
X62254767Y-55205100D01*
X62294976Y-55147960D01*
X62349384Y-55123111D01*
X62546198Y-55086321D01*
X62745019Y-55009298D01*
X62926302Y-54897052D01*
X63083872Y-54753407D01*
X63212366Y-54583255D01*
X63227342Y-54553179D01*
X63307403Y-54392394D01*
X63307403Y-54392393D01*
X63307405Y-54392389D01*
X63365756Y-54187310D01*
X63376529Y-54071047D01*
X63402315Y-54006111D01*
X63446869Y-53974194D01*
X63410497Y-53953331D01*
X63378307Y-53891318D01*
X63376529Y-53878951D01*
X63370667Y-53815691D01*
X63365756Y-53762690D01*
X63307405Y-53557611D01*
X63307403Y-53557606D01*
X63307403Y-53557605D01*
X63212367Y-53366746D01*
X63083872Y-53196593D01*
X63058434Y-53173403D01*
X62926302Y-53052948D01*
X62745019Y-52940702D01*
X62745017Y-52940701D01*
X62641986Y-52900787D01*
X62546198Y-52863679D01*
X62373456Y-52831387D01*
X62311176Y-52799719D01*
X62275903Y-52739407D01*
X62278837Y-52669599D01*
X62319046Y-52612459D01*
X62383764Y-52586128D01*
X62396233Y-52585499D01*
X63124864Y-52585499D01*
X63124879Y-52585497D01*
X63124882Y-52585497D01*
X63149987Y-52582586D01*
X63149988Y-52582585D01*
X63149991Y-52582585D01*
X63252765Y-52537206D01*
X63332206Y-52457765D01*
X63377585Y-52354991D01*
X63380500Y-52329865D01*
X63380499Y-51591046D01*
X63400183Y-51524009D01*
X63452987Y-51478254D01*
X63522146Y-51468310D01*
X63585702Y-51497335D01*
X63623476Y-51556113D01*
X63627970Y-51579606D01*
X63632713Y-51630787D01*
X63634244Y-51647310D01*
X63682790Y-51817930D01*
X63692596Y-51852392D01*
X63692596Y-51852394D01*
X63787632Y-52043253D01*
X63891250Y-52180464D01*
X63916128Y-52213407D01*
X64073698Y-52357052D01*
X64254981Y-52469298D01*
X64453802Y-52546321D01*
X64650613Y-52583111D01*
X64712893Y-52614779D01*
X64748166Y-52675092D01*
X64745232Y-52744900D01*
X64705023Y-52802040D01*
X64650613Y-52826888D01*
X64453802Y-52863679D01*
X64453799Y-52863679D01*
X64453799Y-52863680D01*
X64254982Y-52940701D01*
X64254980Y-52940702D01*
X64073699Y-53052947D01*
X63916127Y-53196593D01*
X63787632Y-53366746D01*
X63692596Y-53557605D01*
X63692596Y-53557607D01*
X63634244Y-53762689D01*
X63623471Y-53878951D01*
X63597685Y-53943888D01*
X63553130Y-53975804D01*
X63589503Y-53996668D01*
X63621693Y-54058681D01*
X63623470Y-54071047D01*
X63634244Y-54187310D01*
X63688035Y-54376364D01*
X63692596Y-54392392D01*
X63692596Y-54392394D01*
X63787632Y-54583253D01*
X63888929Y-54717390D01*
X63916128Y-54753407D01*
X64073698Y-54897052D01*
X64254981Y-55009298D01*
X64453802Y-55086321D01*
X64650613Y-55123111D01*
X64712893Y-55154779D01*
X64748166Y-55215092D01*
X64745232Y-55284900D01*
X64705023Y-55342040D01*
X64650613Y-55366888D01*
X64453802Y-55403679D01*
X64453799Y-55403679D01*
X64453799Y-55403680D01*
X64254982Y-55480701D01*
X64254980Y-55480702D01*
X64073699Y-55592947D01*
X63916127Y-55736593D01*
X63787632Y-55906746D01*
X63692596Y-56097605D01*
X63692596Y-56097607D01*
X63634244Y-56302689D01*
X63623471Y-56418951D01*
X63597685Y-56483888D01*
X63553130Y-56515804D01*
X63589503Y-56536668D01*
X63621693Y-56598681D01*
X63623470Y-56611047D01*
X63634244Y-56727310D01*
X63688035Y-56916364D01*
X63692596Y-56932392D01*
X63692596Y-56932394D01*
X63787632Y-57123253D01*
X63888929Y-57257390D01*
X63916128Y-57293407D01*
X64073698Y-57437052D01*
X64254981Y-57549298D01*
X64453802Y-57626321D01*
X64650613Y-57663111D01*
X64712893Y-57694779D01*
X64748166Y-57755092D01*
X64745232Y-57824900D01*
X64705023Y-57882040D01*
X64650613Y-57906888D01*
X64453802Y-57943679D01*
X64453799Y-57943679D01*
X64453799Y-57943680D01*
X64254982Y-58020701D01*
X64254980Y-58020702D01*
X64073699Y-58132947D01*
X63916127Y-58276593D01*
X63787632Y-58446746D01*
X63692596Y-58637605D01*
X63692596Y-58637607D01*
X63634244Y-58842689D01*
X63623471Y-58958951D01*
X63597685Y-59023888D01*
X63553130Y-59055804D01*
X63589503Y-59076668D01*
X63621693Y-59138681D01*
X63623470Y-59151047D01*
X63634244Y-59267310D01*
X63688035Y-59456364D01*
X63692596Y-59472392D01*
X63692596Y-59472394D01*
X63787632Y-59663253D01*
X63888929Y-59797390D01*
X63916128Y-59833407D01*
X64073698Y-59977052D01*
X64254981Y-60089298D01*
X64453802Y-60166321D01*
X64663390Y-60205500D01*
X64663392Y-60205500D01*
X64876608Y-60205500D01*
X64876610Y-60205500D01*
X65086198Y-60166321D01*
X65285019Y-60089298D01*
X65466302Y-59977052D01*
X65623872Y-59833407D01*
X65752366Y-59663255D01*
X65767342Y-59633179D01*
X65847403Y-59472394D01*
X65847403Y-59472393D01*
X65847405Y-59472389D01*
X65905756Y-59267310D01*
X65925429Y-59055000D01*
X65905756Y-58842690D01*
X65847405Y-58637611D01*
X65847403Y-58637606D01*
X65847403Y-58637605D01*
X65752367Y-58446746D01*
X65623872Y-58276593D01*
X65609221Y-58263237D01*
X65466302Y-58132948D01*
X65285019Y-58020702D01*
X65285017Y-58020701D01*
X65181986Y-57980787D01*
X65086198Y-57943679D01*
X64889385Y-57906888D01*
X64827106Y-57875221D01*
X64791833Y-57814908D01*
X64794767Y-57745100D01*
X64834976Y-57687960D01*
X64889384Y-57663111D01*
X65086198Y-57626321D01*
X65285019Y-57549298D01*
X65466302Y-57437052D01*
X65623872Y-57293407D01*
X65752366Y-57123255D01*
X65767342Y-57093179D01*
X65847403Y-56932394D01*
X65847403Y-56932393D01*
X65847405Y-56932389D01*
X65905756Y-56727310D01*
X65925429Y-56515000D01*
X65905756Y-56302690D01*
X65847405Y-56097611D01*
X65847403Y-56097606D01*
X65847403Y-56097605D01*
X65752367Y-55906746D01*
X65623872Y-55736593D01*
X65597120Y-55712205D01*
X65466302Y-55592948D01*
X65285019Y-55480702D01*
X65285017Y-55480701D01*
X65181986Y-55440787D01*
X65086198Y-55403679D01*
X64889385Y-55366888D01*
X64827106Y-55335221D01*
X64791833Y-55274908D01*
X64794767Y-55205100D01*
X64834976Y-55147960D01*
X64889384Y-55123111D01*
X65086198Y-55086321D01*
X65285019Y-55009298D01*
X65466302Y-54897052D01*
X65623872Y-54753407D01*
X65752366Y-54583255D01*
X65767342Y-54553179D01*
X65847403Y-54392394D01*
X65847403Y-54392393D01*
X65847405Y-54392389D01*
X65905756Y-54187310D01*
X65925429Y-53975000D01*
X65905756Y-53762690D01*
X65847405Y-53557611D01*
X65847403Y-53557606D01*
X65847403Y-53557605D01*
X65752367Y-53366746D01*
X65623872Y-53196593D01*
X65598434Y-53173403D01*
X65466302Y-53052948D01*
X65285019Y-52940702D01*
X65285017Y-52940701D01*
X65181986Y-52900787D01*
X65086198Y-52863679D01*
X64889385Y-52826888D01*
X64827106Y-52795221D01*
X64791833Y-52734908D01*
X64794767Y-52665100D01*
X64834976Y-52607960D01*
X64889384Y-52583111D01*
X65086198Y-52546321D01*
X65285019Y-52469298D01*
X65466302Y-52357052D01*
X65623872Y-52213407D01*
X65752366Y-52043255D01*
X65783973Y-51979779D01*
X65847403Y-51852394D01*
X65847403Y-51852393D01*
X65847405Y-51852389D01*
X65905756Y-51647310D01*
X65925429Y-51435000D01*
X65905756Y-51222690D01*
X65847405Y-51017611D01*
X65847403Y-51017606D01*
X65847403Y-51017605D01*
X65752367Y-50826746D01*
X65623872Y-50656593D01*
X65466302Y-50512948D01*
X65285019Y-50400702D01*
X65285017Y-50400701D01*
X65181986Y-50360787D01*
X65086198Y-50323679D01*
X64876610Y-50284500D01*
X64663390Y-50284500D01*
X64453802Y-50323679D01*
X64453799Y-50323679D01*
X64453799Y-50323680D01*
X64254982Y-50400701D01*
X64254980Y-50400702D01*
X64073699Y-50512947D01*
X63916127Y-50656593D01*
X63787632Y-50826746D01*
X63692596Y-51017605D01*
X63692596Y-51017607D01*
X63634244Y-51222689D01*
X63627970Y-51290394D01*
X63602183Y-51355331D01*
X63545383Y-51396018D01*
X63475602Y-51399538D01*
X63414995Y-51364772D01*
X63382806Y-51302759D01*
X63380499Y-51278952D01*
X63380499Y-50540143D01*
X63380499Y-50540136D01*
X63380497Y-50540117D01*
X63377586Y-50515012D01*
X63377585Y-50515010D01*
X63377585Y-50515009D01*
X63332206Y-50412235D01*
X63252765Y-50332794D01*
X63232124Y-50323680D01*
X63149992Y-50287415D01*
X63124865Y-50284500D01*
X61335143Y-50284500D01*
X61335117Y-50284502D01*
X61310012Y-50287413D01*
X61310008Y-50287415D01*
X61207235Y-50332793D01*
X61127794Y-50412234D01*
X61082415Y-50515006D01*
X61082415Y-50515008D01*
X61079500Y-50540131D01*
X61079500Y-52329856D01*
X61079502Y-52329882D01*
X61082413Y-52354987D01*
X61082415Y-52354991D01*
X61127793Y-52457764D01*
X61127794Y-52457765D01*
X61207235Y-52537206D01*
X61310009Y-52582585D01*
X61335135Y-52585500D01*
X62063758Y-52585499D01*
X62130795Y-52605183D01*
X62176550Y-52657987D01*
X62186494Y-52727146D01*
X62157469Y-52790702D01*
X62098691Y-52828476D01*
X62086542Y-52831388D01*
X62030116Y-52841935D01*
X61913802Y-52863679D01*
X61913800Y-52863679D01*
X61913798Y-52863680D01*
X61714982Y-52940701D01*
X61714980Y-52940702D01*
X61533699Y-53052947D01*
X61376127Y-53196593D01*
X61247632Y-53366746D01*
X61152596Y-53557605D01*
X61152596Y-53557607D01*
X61107773Y-53715143D01*
X61094244Y-53762690D01*
X61074571Y-53975000D01*
X61094244Y-54187310D01*
X61148035Y-54376364D01*
X61152596Y-54392392D01*
X61152596Y-54392394D01*
X61247632Y-54583253D01*
X61348929Y-54717390D01*
X61376128Y-54753407D01*
X61533698Y-54897052D01*
X61714981Y-55009298D01*
X61913802Y-55086321D01*
X62110613Y-55123111D01*
X62172893Y-55154779D01*
X62208166Y-55215092D01*
X62205232Y-55284900D01*
X62165023Y-55342040D01*
X62110613Y-55366888D01*
X61913802Y-55403679D01*
X61913799Y-55403679D01*
X61913799Y-55403680D01*
X61714982Y-55480701D01*
X61714980Y-55480702D01*
X61533699Y-55592947D01*
X61376127Y-55736593D01*
X61247632Y-55906746D01*
X61152596Y-56097605D01*
X61152596Y-56097607D01*
X61115511Y-56227947D01*
X61094244Y-56302690D01*
X61074571Y-56515000D01*
X61094244Y-56727310D01*
X61148035Y-56916364D01*
X61152596Y-56932392D01*
X61152596Y-56932394D01*
X61247632Y-57123253D01*
X61348929Y-57257390D01*
X61376128Y-57293407D01*
X61533698Y-57437052D01*
X61714981Y-57549298D01*
X61913802Y-57626321D01*
X62110613Y-57663111D01*
X62172893Y-57694779D01*
X62208166Y-57755092D01*
X62205232Y-57824900D01*
X62165023Y-57882040D01*
X62110613Y-57906888D01*
X61913802Y-57943679D01*
X61913799Y-57943679D01*
X61913799Y-57943680D01*
X61714982Y-58020701D01*
X61714980Y-58020702D01*
X61533699Y-58132947D01*
X61376127Y-58276593D01*
X61247632Y-58446746D01*
X61152596Y-58637605D01*
X61152596Y-58637607D01*
X61107456Y-58796257D01*
X61094244Y-58842690D01*
X61074571Y-59055000D01*
X48774774Y-59055000D01*
X39820001Y-50100227D01*
X39786516Y-50038904D01*
X39791500Y-49969212D01*
X39833372Y-49913279D01*
X39898836Y-49888862D01*
X39933936Y-49893438D01*
G37*
G04 #@! TD.AperFunction*
G04 #@! TA.AperFunction,Conductor*
G36*
X126377849Y-25812629D02*
G01*
X126398059Y-25826133D01*
X126485179Y-25897630D01*
X126502369Y-25914820D01*
X126573866Y-26001940D01*
X126587370Y-26022150D01*
X126640495Y-26121538D01*
X126649798Y-26143997D01*
X126682514Y-26251848D01*
X126687256Y-26275688D01*
X126698903Y-26393937D01*
X126699500Y-26406092D01*
X126699500Y-100593907D01*
X126698903Y-100606062D01*
X126687256Y-100724311D01*
X126682514Y-100748151D01*
X126649798Y-100856002D01*
X126640495Y-100878461D01*
X126587370Y-100977849D01*
X126573866Y-100998059D01*
X126502369Y-101085179D01*
X126485179Y-101102369D01*
X126398059Y-101173866D01*
X126377849Y-101187370D01*
X126278461Y-101240495D01*
X126256002Y-101249798D01*
X126148151Y-101282514D01*
X126124311Y-101287256D01*
X126037215Y-101295834D01*
X126006060Y-101298903D01*
X125993907Y-101299500D01*
X26406093Y-101299500D01*
X26393939Y-101298903D01*
X26343081Y-101293893D01*
X26275688Y-101287256D01*
X26251848Y-101282514D01*
X26143997Y-101249798D01*
X26121541Y-101240496D01*
X26022150Y-101187370D01*
X26001940Y-101173866D01*
X25914820Y-101102369D01*
X25897630Y-101085179D01*
X25826133Y-100998059D01*
X25812629Y-100977849D01*
X25773441Y-100904534D01*
X25759501Y-100878453D01*
X25750201Y-100856002D01*
X25717483Y-100748145D01*
X25712744Y-100724317D01*
X25701097Y-100606061D01*
X25700500Y-100593907D01*
X25700500Y-99060001D01*
X123154532Y-99060001D01*
X123174364Y-99286686D01*
X123174366Y-99286697D01*
X123233258Y-99506488D01*
X123233261Y-99506497D01*
X123329431Y-99712732D01*
X123329432Y-99712734D01*
X123459954Y-99899141D01*
X123620858Y-100060045D01*
X123620861Y-100060047D01*
X123807266Y-100190568D01*
X124013504Y-100286739D01*
X124233308Y-100345635D01*
X124403214Y-100360499D01*
X124403215Y-100360500D01*
X124403216Y-100360500D01*
X124516785Y-100360500D01*
X124516785Y-100360499D01*
X124686692Y-100345635D01*
X124906496Y-100286739D01*
X125112734Y-100190568D01*
X125299139Y-100060047D01*
X125460047Y-99899139D01*
X125590568Y-99712734D01*
X125686739Y-99506496D01*
X125745635Y-99286692D01*
X125765468Y-99060000D01*
X125745635Y-98833308D01*
X125686739Y-98613504D01*
X125590568Y-98407266D01*
X125460047Y-98220861D01*
X125460045Y-98220858D01*
X125299141Y-98059954D01*
X125112734Y-97929432D01*
X125112732Y-97929431D01*
X124906497Y-97833261D01*
X124906488Y-97833258D01*
X124686697Y-97774366D01*
X124686687Y-97774364D01*
X124516785Y-97759500D01*
X124516784Y-97759500D01*
X124403216Y-97759500D01*
X124403215Y-97759500D01*
X124233312Y-97774364D01*
X124233302Y-97774366D01*
X124013511Y-97833258D01*
X124013502Y-97833261D01*
X123807267Y-97929431D01*
X123807265Y-97929432D01*
X123620858Y-98059954D01*
X123459954Y-98220858D01*
X123329432Y-98407265D01*
X123329431Y-98407267D01*
X123233261Y-98613502D01*
X123233258Y-98613511D01*
X123174366Y-98833302D01*
X123174364Y-98833313D01*
X123154532Y-99059998D01*
X123154532Y-99060001D01*
X25700500Y-99060001D01*
X25700500Y-93980000D01*
X26149571Y-93980000D01*
X26169244Y-94192310D01*
X26210984Y-94339010D01*
X26227596Y-94397392D01*
X26227596Y-94397394D01*
X26322632Y-94588253D01*
X26415364Y-94711048D01*
X26451128Y-94758407D01*
X26608698Y-94902052D01*
X26789981Y-95014298D01*
X26988802Y-95091321D01*
X27198390Y-95130500D01*
X27198392Y-95130500D01*
X27411608Y-95130500D01*
X27411610Y-95130500D01*
X27621198Y-95091321D01*
X27820019Y-95014298D01*
X28001302Y-94902052D01*
X28158872Y-94758407D01*
X28287366Y-94588255D01*
X28354325Y-94453781D01*
X28401825Y-94402548D01*
X28469488Y-94385126D01*
X28535828Y-94407051D01*
X28577705Y-94456651D01*
X28671399Y-94657578D01*
X28806894Y-94851082D01*
X28973917Y-95018105D01*
X29167421Y-95153600D01*
X29381507Y-95253429D01*
X29381516Y-95253433D01*
X29595000Y-95310634D01*
X29595000Y-94415501D01*
X29702685Y-94464680D01*
X29809237Y-94480000D01*
X29880763Y-94480000D01*
X29987315Y-94464680D01*
X30095000Y-94415501D01*
X30095000Y-95310633D01*
X30308483Y-95253433D01*
X30308492Y-95253429D01*
X30522578Y-95153600D01*
X30716082Y-95018105D01*
X30883105Y-94851082D01*
X31018600Y-94657578D01*
X31038454Y-94615000D01*
X61074571Y-94615000D01*
X61094244Y-94827310D01*
X61148035Y-95016364D01*
X61152596Y-95032392D01*
X61152596Y-95032394D01*
X61247632Y-95223253D01*
X61348929Y-95357390D01*
X61376128Y-95393407D01*
X61533698Y-95537052D01*
X61714981Y-95649298D01*
X61913802Y-95726321D01*
X62123390Y-95765500D01*
X62123392Y-95765500D01*
X62336608Y-95765500D01*
X62336610Y-95765500D01*
X62546198Y-95726321D01*
X62745019Y-95649298D01*
X62926302Y-95537052D01*
X63083872Y-95393407D01*
X63212366Y-95223255D01*
X63227342Y-95193179D01*
X63307403Y-95032394D01*
X63307403Y-95032393D01*
X63307405Y-95032389D01*
X63365756Y-94827310D01*
X63376529Y-94711047D01*
X63402315Y-94646111D01*
X63446869Y-94614194D01*
X63410497Y-94593331D01*
X63378307Y-94531318D01*
X63376529Y-94518951D01*
X63375193Y-94504536D01*
X63365756Y-94402690D01*
X63307405Y-94197611D01*
X63307403Y-94197606D01*
X63307403Y-94197605D01*
X63212367Y-94006746D01*
X63083872Y-93836593D01*
X63058434Y-93813403D01*
X62926302Y-93692948D01*
X62745019Y-93580702D01*
X62745017Y-93580701D01*
X62645608Y-93542190D01*
X62546198Y-93503679D01*
X62349385Y-93466888D01*
X62287106Y-93435221D01*
X62251833Y-93374908D01*
X62254767Y-93305100D01*
X62294976Y-93247960D01*
X62349384Y-93223111D01*
X62546198Y-93186321D01*
X62745019Y-93109298D01*
X62926302Y-92997052D01*
X63083872Y-92853407D01*
X63212366Y-92683255D01*
X63227342Y-92653179D01*
X63307403Y-92492394D01*
X63307403Y-92492393D01*
X63307405Y-92492389D01*
X63365756Y-92287310D01*
X63376529Y-92171047D01*
X63402315Y-92106111D01*
X63446869Y-92074194D01*
X63410497Y-92053331D01*
X63378307Y-91991318D01*
X63376529Y-91978951D01*
X63370903Y-91918237D01*
X63365756Y-91862690D01*
X63307405Y-91657611D01*
X63307403Y-91657606D01*
X63307403Y-91657605D01*
X63212367Y-91466746D01*
X63083872Y-91296593D01*
X63058434Y-91273403D01*
X62926302Y-91152948D01*
X62745019Y-91040702D01*
X62745017Y-91040701D01*
X62645608Y-91002190D01*
X62546198Y-90963679D01*
X62349385Y-90926888D01*
X62287106Y-90895221D01*
X62251833Y-90834908D01*
X62254767Y-90765100D01*
X62294976Y-90707960D01*
X62349384Y-90683111D01*
X62546198Y-90646321D01*
X62745019Y-90569298D01*
X62926302Y-90457052D01*
X63083872Y-90313407D01*
X63212366Y-90143255D01*
X63227342Y-90113179D01*
X63307403Y-89952394D01*
X63307403Y-89952393D01*
X63307405Y-89952389D01*
X63365756Y-89747310D01*
X63376529Y-89631047D01*
X63402315Y-89566111D01*
X63446869Y-89534194D01*
X63410497Y-89513331D01*
X63378307Y-89451318D01*
X63376529Y-89438951D01*
X63370903Y-89378237D01*
X63365756Y-89322690D01*
X63307405Y-89117611D01*
X63307403Y-89117606D01*
X63307403Y-89117605D01*
X63212367Y-88926746D01*
X63083872Y-88756593D01*
X63058434Y-88733403D01*
X62926302Y-88612948D01*
X62745019Y-88500702D01*
X62745017Y-88500701D01*
X62645608Y-88462190D01*
X62546198Y-88423679D01*
X62373456Y-88391387D01*
X62311176Y-88359719D01*
X62275903Y-88299407D01*
X62278837Y-88229599D01*
X62319046Y-88172459D01*
X62383764Y-88146128D01*
X62396233Y-88145499D01*
X63124864Y-88145499D01*
X63124879Y-88145497D01*
X63124882Y-88145497D01*
X63149987Y-88142586D01*
X63149988Y-88142585D01*
X63149991Y-88142585D01*
X63252765Y-88097206D01*
X63332206Y-88017765D01*
X63377585Y-87914991D01*
X63380500Y-87889865D01*
X63380499Y-87151046D01*
X63400183Y-87084009D01*
X63452987Y-87038254D01*
X63522146Y-87028310D01*
X63585702Y-87057335D01*
X63623476Y-87116113D01*
X63627970Y-87139606D01*
X63634244Y-87207310D01*
X63692596Y-87412392D01*
X63692596Y-87412394D01*
X63787632Y-87603253D01*
X63891250Y-87740464D01*
X63916128Y-87773407D01*
X64073698Y-87917052D01*
X64254981Y-88029298D01*
X64453802Y-88106321D01*
X64650613Y-88143111D01*
X64712893Y-88174779D01*
X64748166Y-88235092D01*
X64745232Y-88304900D01*
X64705023Y-88362040D01*
X64650613Y-88386888D01*
X64453802Y-88423679D01*
X64453799Y-88423679D01*
X64453799Y-88423680D01*
X64254982Y-88500701D01*
X64254980Y-88500702D01*
X64073699Y-88612947D01*
X63916127Y-88756593D01*
X63787632Y-88926746D01*
X63692596Y-89117605D01*
X63692596Y-89117607D01*
X63634244Y-89322689D01*
X63623471Y-89438951D01*
X63597685Y-89503888D01*
X63553130Y-89535804D01*
X63589503Y-89556668D01*
X63621693Y-89618681D01*
X63623470Y-89631047D01*
X63634244Y-89747310D01*
X63688035Y-89936364D01*
X63692596Y-89952392D01*
X63692596Y-89952394D01*
X63787632Y-90143253D01*
X63888929Y-90277390D01*
X63916128Y-90313407D01*
X64073698Y-90457052D01*
X64254981Y-90569298D01*
X64453802Y-90646321D01*
X64650613Y-90683111D01*
X64712893Y-90714779D01*
X64748166Y-90775092D01*
X64745232Y-90844900D01*
X64705023Y-90902040D01*
X64650613Y-90926888D01*
X64453802Y-90963679D01*
X64453799Y-90963679D01*
X64453799Y-90963680D01*
X64254982Y-91040701D01*
X64254980Y-91040702D01*
X64073699Y-91152947D01*
X63916127Y-91296593D01*
X63787632Y-91466746D01*
X63692596Y-91657605D01*
X63692596Y-91657607D01*
X63634244Y-91862689D01*
X63623471Y-91978951D01*
X63597685Y-92043888D01*
X63553130Y-92075804D01*
X63589503Y-92096668D01*
X63621693Y-92158681D01*
X63623470Y-92171047D01*
X63634244Y-92287310D01*
X63690641Y-92485523D01*
X63692596Y-92492392D01*
X63692596Y-92492394D01*
X63787632Y-92683253D01*
X63888929Y-92817390D01*
X63916128Y-92853407D01*
X64073698Y-92997052D01*
X64254981Y-93109298D01*
X64453802Y-93186321D01*
X64650613Y-93223111D01*
X64712893Y-93254779D01*
X64748166Y-93315092D01*
X64745232Y-93384900D01*
X64705023Y-93442040D01*
X64650613Y-93466888D01*
X64453802Y-93503679D01*
X64453799Y-93503679D01*
X64453799Y-93503680D01*
X64254982Y-93580701D01*
X64254980Y-93580702D01*
X64073699Y-93692947D01*
X63916127Y-93836593D01*
X63787632Y-94006746D01*
X63692596Y-94197605D01*
X63692596Y-94197607D01*
X63634244Y-94402689D01*
X63623471Y-94518951D01*
X63597685Y-94583888D01*
X63553130Y-94615804D01*
X63589503Y-94636668D01*
X63621693Y-94698681D01*
X63623470Y-94711047D01*
X63634244Y-94827310D01*
X63688035Y-95016364D01*
X63692596Y-95032392D01*
X63692596Y-95032394D01*
X63787632Y-95223253D01*
X63888929Y-95357390D01*
X63916128Y-95393407D01*
X64073698Y-95537052D01*
X64254981Y-95649298D01*
X64453802Y-95726321D01*
X64663390Y-95765500D01*
X64663392Y-95765500D01*
X64876608Y-95765500D01*
X64876610Y-95765500D01*
X65086198Y-95726321D01*
X65285019Y-95649298D01*
X65466302Y-95537052D01*
X65623872Y-95393407D01*
X65752366Y-95223255D01*
X65767342Y-95193179D01*
X65847403Y-95032394D01*
X65847403Y-95032393D01*
X65847405Y-95032389D01*
X65905756Y-94827310D01*
X65925429Y-94615000D01*
X65905756Y-94402690D01*
X65847405Y-94197611D01*
X65847403Y-94197606D01*
X65847403Y-94197605D01*
X65752367Y-94006746D01*
X65623872Y-93836593D01*
X65598434Y-93813403D01*
X65466302Y-93692948D01*
X65285019Y-93580702D01*
X65285017Y-93580701D01*
X65185608Y-93542190D01*
X65086198Y-93503679D01*
X64889385Y-93466888D01*
X64827106Y-93435221D01*
X64791833Y-93374908D01*
X64794767Y-93305100D01*
X64834976Y-93247960D01*
X64889384Y-93223111D01*
X65086198Y-93186321D01*
X65285019Y-93109298D01*
X65466302Y-92997052D01*
X65623872Y-92853407D01*
X65752366Y-92683255D01*
X65767342Y-92653179D01*
X65847403Y-92492394D01*
X65847403Y-92492393D01*
X65847405Y-92492389D01*
X65905756Y-92287310D01*
X65925429Y-92075000D01*
X65905756Y-91862690D01*
X65847405Y-91657611D01*
X65847403Y-91657606D01*
X65847403Y-91657605D01*
X65752367Y-91466746D01*
X65623872Y-91296593D01*
X65598434Y-91273403D01*
X65466302Y-91152948D01*
X65285019Y-91040702D01*
X65285017Y-91040701D01*
X65185608Y-91002190D01*
X65086198Y-90963679D01*
X64889385Y-90926888D01*
X64827106Y-90895221D01*
X64791833Y-90834908D01*
X64794767Y-90765100D01*
X64834976Y-90707960D01*
X64889384Y-90683111D01*
X65086198Y-90646321D01*
X65285019Y-90569298D01*
X65466302Y-90457052D01*
X65623872Y-90313407D01*
X65752366Y-90143255D01*
X65767342Y-90113179D01*
X65847403Y-89952394D01*
X65847403Y-89952393D01*
X65847405Y-89952389D01*
X65905756Y-89747310D01*
X65925429Y-89535000D01*
X65905756Y-89322690D01*
X65847405Y-89117611D01*
X65847403Y-89117606D01*
X65847403Y-89117605D01*
X65752367Y-88926746D01*
X65623872Y-88756593D01*
X65598434Y-88733403D01*
X65466302Y-88612948D01*
X65285019Y-88500702D01*
X65285017Y-88500701D01*
X65185608Y-88462190D01*
X65086198Y-88423679D01*
X64889385Y-88386888D01*
X64827106Y-88355221D01*
X64791833Y-88294908D01*
X64794767Y-88225100D01*
X64834976Y-88167960D01*
X64889384Y-88143111D01*
X65086198Y-88106321D01*
X65285019Y-88029298D01*
X65466302Y-87917052D01*
X65623872Y-87773407D01*
X65752366Y-87603255D01*
X65783973Y-87539779D01*
X65847403Y-87412394D01*
X65847403Y-87412393D01*
X65847405Y-87412389D01*
X65905756Y-87207310D01*
X65925429Y-86995000D01*
X65905756Y-86782690D01*
X65847405Y-86577611D01*
X65847403Y-86577606D01*
X65847403Y-86577605D01*
X65752367Y-86386746D01*
X65623872Y-86216593D01*
X65609221Y-86203237D01*
X65466302Y-86072948D01*
X65285019Y-85960702D01*
X65285017Y-85960701D01*
X65185608Y-85922190D01*
X65086198Y-85883679D01*
X64876610Y-85844500D01*
X64663390Y-85844500D01*
X64453802Y-85883679D01*
X64453799Y-85883679D01*
X64453799Y-85883680D01*
X64254982Y-85960701D01*
X64254980Y-85960702D01*
X64073699Y-86072947D01*
X63916127Y-86216593D01*
X63787632Y-86386746D01*
X63692596Y-86577605D01*
X63692596Y-86577607D01*
X63634244Y-86782689D01*
X63627970Y-86850394D01*
X63602183Y-86915331D01*
X63545383Y-86956018D01*
X63475602Y-86959538D01*
X63414995Y-86924772D01*
X63382806Y-86862759D01*
X63380499Y-86838952D01*
X63380499Y-86100143D01*
X63380499Y-86100136D01*
X63380497Y-86100117D01*
X63377586Y-86075012D01*
X63377585Y-86075010D01*
X63377585Y-86075009D01*
X63332206Y-85972235D01*
X63252765Y-85892794D01*
X63232124Y-85883680D01*
X63149992Y-85847415D01*
X63124865Y-85844500D01*
X61335143Y-85844500D01*
X61335117Y-85844502D01*
X61310012Y-85847413D01*
X61310008Y-85847415D01*
X61207235Y-85892793D01*
X61127794Y-85972234D01*
X61082415Y-86075006D01*
X61082415Y-86075008D01*
X61079500Y-86100131D01*
X61079500Y-87889856D01*
X61079502Y-87889882D01*
X61082413Y-87914987D01*
X61082415Y-87914991D01*
X61127793Y-88017764D01*
X61127794Y-88017765D01*
X61207235Y-88097206D01*
X61310009Y-88142585D01*
X61335135Y-88145500D01*
X62063758Y-88145499D01*
X62130795Y-88165183D01*
X62176550Y-88217987D01*
X62186494Y-88287146D01*
X62157469Y-88350702D01*
X62098691Y-88388476D01*
X62086542Y-88391388D01*
X62030116Y-88401935D01*
X61913802Y-88423679D01*
X61913800Y-88423679D01*
X61913798Y-88423680D01*
X61714982Y-88500701D01*
X61714980Y-88500702D01*
X61533699Y-88612947D01*
X61376127Y-88756593D01*
X61247632Y-88926746D01*
X61152596Y-89117605D01*
X61152596Y-89117607D01*
X61097140Y-89312513D01*
X61094244Y-89322690D01*
X61074571Y-89535000D01*
X61094244Y-89747310D01*
X61148035Y-89936364D01*
X61152596Y-89952392D01*
X61152596Y-89952394D01*
X61247632Y-90143253D01*
X61348929Y-90277390D01*
X61376128Y-90313407D01*
X61533698Y-90457052D01*
X61714981Y-90569298D01*
X61913802Y-90646321D01*
X62110613Y-90683111D01*
X62172893Y-90714779D01*
X62208166Y-90775092D01*
X62205232Y-90844900D01*
X62165023Y-90902040D01*
X62110613Y-90926888D01*
X61913802Y-90963679D01*
X61913799Y-90963679D01*
X61913799Y-90963680D01*
X61714982Y-91040701D01*
X61714980Y-91040702D01*
X61533699Y-91152947D01*
X61376127Y-91296593D01*
X61247632Y-91466746D01*
X61152596Y-91657605D01*
X61152596Y-91657607D01*
X61097140Y-91852513D01*
X61094244Y-91862690D01*
X61074571Y-92075000D01*
X61094244Y-92287310D01*
X61150641Y-92485523D01*
X61152596Y-92492392D01*
X61152596Y-92492394D01*
X61247632Y-92683253D01*
X61348929Y-92817390D01*
X61376128Y-92853407D01*
X61533698Y-92997052D01*
X61714981Y-93109298D01*
X61913802Y-93186321D01*
X62110613Y-93223111D01*
X62172893Y-93254779D01*
X62208166Y-93315092D01*
X62205232Y-93384900D01*
X62165023Y-93442040D01*
X62110613Y-93466888D01*
X61913802Y-93503679D01*
X61913799Y-93503679D01*
X61913799Y-93503680D01*
X61714982Y-93580701D01*
X61714980Y-93580702D01*
X61533699Y-93692947D01*
X61376127Y-93836593D01*
X61247632Y-94006746D01*
X61152596Y-94197605D01*
X61152596Y-94197607D01*
X61097140Y-94392513D01*
X61094244Y-94402690D01*
X61074571Y-94615000D01*
X31038454Y-94615000D01*
X31118429Y-94443492D01*
X31118432Y-94443486D01*
X31175636Y-94230000D01*
X30278686Y-94230000D01*
X30304493Y-94189844D01*
X30345000Y-94051889D01*
X30345000Y-93908111D01*
X30304493Y-93770156D01*
X30278686Y-93730000D01*
X31175636Y-93730000D01*
X31175635Y-93729999D01*
X31118432Y-93516513D01*
X31118429Y-93516507D01*
X31018600Y-93302422D01*
X31018599Y-93302420D01*
X30883113Y-93108926D01*
X30883108Y-93108920D01*
X30716082Y-92941894D01*
X30522578Y-92806399D01*
X30323426Y-92713533D01*
X30270987Y-92667360D01*
X30251835Y-92600167D01*
X30272051Y-92533286D01*
X30325216Y-92487951D01*
X30331005Y-92485537D01*
X30360019Y-92474298D01*
X30541302Y-92362052D01*
X30698872Y-92218407D01*
X30827366Y-92048255D01*
X30828647Y-92045682D01*
X30922403Y-91857394D01*
X30922403Y-91857393D01*
X30922405Y-91857389D01*
X30980756Y-91652310D01*
X31000429Y-91440000D01*
X30980756Y-91227690D01*
X30922405Y-91022611D01*
X30922403Y-91022606D01*
X30922403Y-91022605D01*
X30827367Y-90831746D01*
X30698872Y-90661593D01*
X30684221Y-90648237D01*
X30541302Y-90517948D01*
X30360019Y-90405702D01*
X30360017Y-90405701D01*
X30260608Y-90367190D01*
X30161198Y-90328679D01*
X29964385Y-90291888D01*
X29902106Y-90260221D01*
X29866833Y-90199908D01*
X29869767Y-90130100D01*
X29909976Y-90072960D01*
X29964384Y-90048111D01*
X30161198Y-90011321D01*
X30360019Y-89934298D01*
X30541302Y-89822052D01*
X30698872Y-89678407D01*
X30827366Y-89508255D01*
X30828647Y-89505682D01*
X30922403Y-89317394D01*
X30922403Y-89317393D01*
X30922405Y-89317389D01*
X30980756Y-89112310D01*
X31000429Y-88900000D01*
X30980756Y-88687690D01*
X30922405Y-88482611D01*
X30922403Y-88482606D01*
X30922403Y-88482605D01*
X30827367Y-88291746D01*
X30698872Y-88121593D01*
X30684221Y-88108237D01*
X30541302Y-87977948D01*
X30360019Y-87865702D01*
X30360017Y-87865701D01*
X30260608Y-87827190D01*
X30161198Y-87788679D01*
X29964385Y-87751888D01*
X29902106Y-87720221D01*
X29866833Y-87659908D01*
X29869767Y-87590100D01*
X29909976Y-87532960D01*
X29964384Y-87508111D01*
X30161198Y-87471321D01*
X30360019Y-87394298D01*
X30541302Y-87282052D01*
X30698872Y-87138407D01*
X30827366Y-86968255D01*
X30879896Y-86862759D01*
X30922403Y-86777394D01*
X30922403Y-86777393D01*
X30922405Y-86777389D01*
X30980756Y-86572310D01*
X31000429Y-86360000D01*
X30980756Y-86147690D01*
X30922405Y-85942611D01*
X30922403Y-85942606D01*
X30922403Y-85942605D01*
X30827367Y-85751746D01*
X30698872Y-85581593D01*
X30580503Y-85473685D01*
X30541302Y-85437948D01*
X30360019Y-85325702D01*
X30360017Y-85325701D01*
X30260608Y-85287190D01*
X30161198Y-85248679D01*
X29964385Y-85211888D01*
X29902106Y-85180221D01*
X29866833Y-85119908D01*
X29869767Y-85050100D01*
X29909976Y-84992960D01*
X29964384Y-84968111D01*
X30161198Y-84931321D01*
X30360019Y-84854298D01*
X30541302Y-84742052D01*
X30698872Y-84598407D01*
X30827366Y-84428255D01*
X30869053Y-84344536D01*
X30922403Y-84237394D01*
X30922403Y-84237393D01*
X30922405Y-84237389D01*
X30980756Y-84032310D01*
X31000429Y-83820000D01*
X30980756Y-83607690D01*
X30922405Y-83402611D01*
X30922403Y-83402606D01*
X30922403Y-83402605D01*
X30827367Y-83211746D01*
X30698872Y-83041593D01*
X30541302Y-82897948D01*
X30360019Y-82785702D01*
X30360017Y-82785701D01*
X30260608Y-82747190D01*
X30161198Y-82708679D01*
X29964385Y-82671888D01*
X29902106Y-82640221D01*
X29866833Y-82579908D01*
X29869767Y-82510100D01*
X29909976Y-82452960D01*
X29964384Y-82428111D01*
X30161198Y-82391321D01*
X30360019Y-82314298D01*
X30541302Y-82202052D01*
X30698872Y-82058407D01*
X30827366Y-81888255D01*
X30881022Y-81780499D01*
X30922403Y-81697394D01*
X30922403Y-81697393D01*
X30922405Y-81697389D01*
X30980756Y-81492310D01*
X31000429Y-81280000D01*
X30980756Y-81067690D01*
X30922405Y-80862611D01*
X30922403Y-80862606D01*
X30922403Y-80862605D01*
X30827367Y-80671746D01*
X30698872Y-80501593D01*
X30641224Y-80449040D01*
X30541302Y-80357948D01*
X30360019Y-80245702D01*
X30360017Y-80245701D01*
X30232969Y-80196483D01*
X30161198Y-80168679D01*
X29964385Y-80131888D01*
X29902106Y-80100221D01*
X29866833Y-80039908D01*
X29869767Y-79970100D01*
X29909976Y-79912960D01*
X29964384Y-79888111D01*
X30161198Y-79851321D01*
X30360019Y-79774298D01*
X30541302Y-79662052D01*
X30698872Y-79518407D01*
X30827366Y-79348255D01*
X30892107Y-79218237D01*
X30922403Y-79157394D01*
X30922403Y-79157393D01*
X30922405Y-79157389D01*
X30980756Y-78952310D01*
X31000429Y-78740000D01*
X30980756Y-78527690D01*
X30922405Y-78322611D01*
X30922403Y-78322606D01*
X30922403Y-78322605D01*
X30827367Y-78131746D01*
X30698872Y-77961593D01*
X30684221Y-77948237D01*
X30541302Y-77817948D01*
X30360019Y-77705702D01*
X30360017Y-77705701D01*
X30260608Y-77667190D01*
X30161198Y-77628679D01*
X29964385Y-77591888D01*
X29902106Y-77560221D01*
X29866833Y-77499908D01*
X29869767Y-77430100D01*
X29909976Y-77372960D01*
X29964384Y-77348111D01*
X30161198Y-77311321D01*
X30360019Y-77234298D01*
X30541302Y-77122052D01*
X30698872Y-76978407D01*
X30827366Y-76808255D01*
X30828647Y-76805682D01*
X30922403Y-76617394D01*
X30922403Y-76617393D01*
X30922405Y-76617389D01*
X30980756Y-76412310D01*
X31000429Y-76200000D01*
X30980756Y-75987690D01*
X30922405Y-75782611D01*
X30922403Y-75782606D01*
X30922403Y-75782605D01*
X30827367Y-75591746D01*
X30698872Y-75421593D01*
X30684221Y-75408237D01*
X30541302Y-75277948D01*
X30360019Y-75165702D01*
X30360017Y-75165701D01*
X30260608Y-75127190D01*
X30161198Y-75088679D01*
X29964385Y-75051888D01*
X29902106Y-75020221D01*
X29866833Y-74959908D01*
X29869767Y-74890100D01*
X29909976Y-74832960D01*
X29964384Y-74808111D01*
X30161198Y-74771321D01*
X30360019Y-74694298D01*
X30541302Y-74582052D01*
X30698872Y-74438407D01*
X30827366Y-74268255D01*
X30827367Y-74268253D01*
X30922403Y-74077394D01*
X30922403Y-74077393D01*
X30922405Y-74077389D01*
X30980756Y-73872310D01*
X31000429Y-73660000D01*
X30980756Y-73447690D01*
X30922405Y-73242611D01*
X30922403Y-73242606D01*
X30922403Y-73242605D01*
X30827367Y-73051746D01*
X30698872Y-72881593D01*
X30684221Y-72868237D01*
X30541302Y-72737948D01*
X30360019Y-72625702D01*
X30360017Y-72625701D01*
X30260608Y-72587190D01*
X30161198Y-72548679D01*
X29964385Y-72511888D01*
X29902106Y-72480221D01*
X29866833Y-72419908D01*
X29869767Y-72350100D01*
X29909976Y-72292960D01*
X29964384Y-72268111D01*
X30161198Y-72231321D01*
X30360019Y-72154298D01*
X30541302Y-72042052D01*
X30698872Y-71898407D01*
X30827366Y-71728255D01*
X30827367Y-71728253D01*
X30922403Y-71537394D01*
X30922403Y-71537393D01*
X30922405Y-71537389D01*
X30980756Y-71332310D01*
X31000429Y-71120000D01*
X30980756Y-70907690D01*
X30922405Y-70702611D01*
X30922403Y-70702606D01*
X30922403Y-70702605D01*
X30827367Y-70511746D01*
X30698872Y-70341593D01*
X30683530Y-70327607D01*
X30541302Y-70197948D01*
X30360019Y-70085702D01*
X30360017Y-70085701D01*
X30260608Y-70047190D01*
X30161198Y-70008679D01*
X29964385Y-69971888D01*
X29902106Y-69940221D01*
X29866833Y-69879908D01*
X29869767Y-69810100D01*
X29909976Y-69752960D01*
X29964384Y-69728111D01*
X30161198Y-69691321D01*
X30360019Y-69614298D01*
X30541302Y-69502052D01*
X30698872Y-69358407D01*
X30827366Y-69188255D01*
X30885456Y-69071593D01*
X30922403Y-68997394D01*
X30922403Y-68997393D01*
X30922405Y-68997389D01*
X30980756Y-68792310D01*
X31000429Y-68580000D01*
X30980756Y-68367690D01*
X30922405Y-68162611D01*
X30922403Y-68162606D01*
X30922403Y-68162605D01*
X30827367Y-67971746D01*
X30698872Y-67801593D01*
X30638426Y-67746489D01*
X30541302Y-67657948D01*
X30360019Y-67545702D01*
X30360017Y-67545701D01*
X30260608Y-67507190D01*
X30161198Y-67468679D01*
X29964385Y-67431888D01*
X29902106Y-67400221D01*
X29866833Y-67339908D01*
X29869767Y-67270100D01*
X29909976Y-67212960D01*
X29964384Y-67188111D01*
X30161198Y-67151321D01*
X30360019Y-67074298D01*
X30541302Y-66962052D01*
X30698872Y-66818407D01*
X30827366Y-66648255D01*
X30922405Y-66457389D01*
X30980756Y-66252310D01*
X31000429Y-66040000D01*
X30980756Y-65827690D01*
X30922405Y-65622611D01*
X30922403Y-65622606D01*
X30922403Y-65622605D01*
X30827367Y-65431746D01*
X30698872Y-65261593D01*
X30642692Y-65210378D01*
X30541302Y-65117948D01*
X30360019Y-65005702D01*
X30360017Y-65005701D01*
X30260608Y-64967190D01*
X30161198Y-64928679D01*
X29964385Y-64891888D01*
X29902106Y-64860221D01*
X29866833Y-64799908D01*
X29869767Y-64730100D01*
X29909976Y-64672960D01*
X29964384Y-64648111D01*
X30161198Y-64611321D01*
X30360019Y-64534298D01*
X30541302Y-64422052D01*
X30698872Y-64278407D01*
X30827366Y-64108255D01*
X30922405Y-63917389D01*
X30980756Y-63712310D01*
X31000429Y-63500000D01*
X30980756Y-63287690D01*
X30922405Y-63082611D01*
X30922403Y-63082606D01*
X30922403Y-63082605D01*
X30827367Y-62891746D01*
X30698872Y-62721593D01*
X30641224Y-62669040D01*
X30541302Y-62577948D01*
X30360019Y-62465702D01*
X30360017Y-62465701D01*
X30232969Y-62416483D01*
X30161198Y-62388679D01*
X29964385Y-62351888D01*
X29902106Y-62320221D01*
X29866833Y-62259908D01*
X29869767Y-62190100D01*
X29909976Y-62132960D01*
X29964384Y-62108111D01*
X30161198Y-62071321D01*
X30360019Y-61994298D01*
X30541302Y-61882052D01*
X30698872Y-61738407D01*
X30827366Y-61568255D01*
X30852091Y-61518601D01*
X30877237Y-61468101D01*
X30924740Y-61416863D01*
X30992402Y-61399442D01*
X31058743Y-61421367D01*
X31075918Y-61435691D01*
X54951824Y-85311597D01*
X54967949Y-85331453D01*
X54973491Y-85339935D01*
X54973494Y-85339939D01*
X54997527Y-85358644D01*
X55008639Y-85368459D01*
X55008945Y-85368717D01*
X55025283Y-85380384D01*
X55029384Y-85383442D01*
X55069358Y-85414554D01*
X55076066Y-85418184D01*
X55082922Y-85421536D01*
X55131486Y-85435994D01*
X55136302Y-85437536D01*
X55184259Y-85454000D01*
X55184264Y-85454000D01*
X55191798Y-85455257D01*
X55199352Y-85456198D01*
X55199353Y-85456199D01*
X55199353Y-85456198D01*
X55199354Y-85456199D01*
X55223967Y-85455180D01*
X55249960Y-85454105D01*
X55255083Y-85454000D01*
X68727000Y-85454000D01*
X68794039Y-85473685D01*
X68839794Y-85526489D01*
X68851000Y-85578000D01*
X68851000Y-97078601D01*
X68831315Y-97145640D01*
X68778511Y-97191395D01*
X68710815Y-97201540D01*
X68580001Y-97184318D01*
X68579999Y-97184318D01*
X68423239Y-97204955D01*
X68423237Y-97204956D01*
X68277160Y-97265463D01*
X68151718Y-97361718D01*
X68055463Y-97487160D01*
X67994956Y-97633237D01*
X67994955Y-97633239D01*
X67974318Y-97789998D01*
X67974318Y-97790001D01*
X67994955Y-97946760D01*
X67994956Y-97946762D01*
X68055464Y-98092841D01*
X68151718Y-98218282D01*
X68277159Y-98314536D01*
X68423238Y-98375044D01*
X68501619Y-98385363D01*
X68579999Y-98395682D01*
X68580000Y-98395682D01*
X68580001Y-98395682D01*
X68632254Y-98388802D01*
X68736762Y-98375044D01*
X68882841Y-98314536D01*
X69008282Y-98218282D01*
X69020383Y-98202511D01*
X69076809Y-98161311D01*
X69118757Y-98154000D01*
X83281243Y-98154000D01*
X83348282Y-98173685D01*
X83379615Y-98202510D01*
X83391718Y-98218282D01*
X83517159Y-98314536D01*
X83663238Y-98375044D01*
X83741619Y-98385363D01*
X83819999Y-98395682D01*
X83820000Y-98395682D01*
X83820001Y-98395682D01*
X83872254Y-98388802D01*
X83976762Y-98375044D01*
X84122841Y-98314536D01*
X84248282Y-98218282D01*
X84344536Y-98092841D01*
X84405044Y-97946762D01*
X84425682Y-97790000D01*
X84423623Y-97774364D01*
X84405044Y-97633239D01*
X84405044Y-97633238D01*
X84344536Y-97487159D01*
X84248282Y-97361718D01*
X84122841Y-97265464D01*
X83976762Y-97204956D01*
X83976760Y-97204955D01*
X83820001Y-97184318D01*
X83819999Y-97184318D01*
X83663239Y-97204955D01*
X83663237Y-97204956D01*
X83517160Y-97265463D01*
X83517159Y-97265464D01*
X83391718Y-97361718D01*
X83379616Y-97377488D01*
X83323191Y-97418689D01*
X83281243Y-97426000D01*
X83261399Y-97426000D01*
X83194360Y-97406315D01*
X83148605Y-97353511D01*
X83138460Y-97285815D01*
X83155682Y-97155001D01*
X83155682Y-97154998D01*
X83138460Y-97024185D01*
X83149226Y-96955150D01*
X83195606Y-96902894D01*
X83261399Y-96884000D01*
X84043243Y-96884000D01*
X84110282Y-96903685D01*
X84141615Y-96932510D01*
X84153718Y-96948282D01*
X84279159Y-97044536D01*
X84425238Y-97105044D01*
X84503619Y-97115363D01*
X84581999Y-97125682D01*
X84582000Y-97125682D01*
X84582001Y-97125682D01*
X84634254Y-97118802D01*
X84738762Y-97105044D01*
X84884841Y-97044536D01*
X85010282Y-96948282D01*
X85106536Y-96822841D01*
X85167044Y-96676762D01*
X85187682Y-96520000D01*
X85167044Y-96363238D01*
X85106536Y-96217159D01*
X85010282Y-96091718D01*
X84884841Y-95995464D01*
X84738762Y-95934956D01*
X84738760Y-95934955D01*
X84582001Y-95914318D01*
X84581999Y-95914318D01*
X84425239Y-95934955D01*
X84425237Y-95934956D01*
X84279160Y-95995463D01*
X84279159Y-95995464D01*
X84153718Y-96091718D01*
X84141616Y-96107488D01*
X84085191Y-96148689D01*
X84043243Y-96156000D01*
X83261399Y-96156000D01*
X83194360Y-96136315D01*
X83148605Y-96083511D01*
X83138460Y-96015815D01*
X83155682Y-95885001D01*
X83155682Y-95884998D01*
X83135044Y-95728239D01*
X83135044Y-95728238D01*
X83074536Y-95582159D01*
X82978282Y-95456718D01*
X82852841Y-95360464D01*
X82852834Y-95360461D01*
X82847515Y-95357390D01*
X82799298Y-95306825D01*
X82786072Y-95238218D01*
X82812037Y-95173352D01*
X82847515Y-95142610D01*
X82852828Y-95139541D01*
X82852841Y-95139536D01*
X82978282Y-95043282D01*
X83074536Y-94917841D01*
X83135044Y-94771762D01*
X83155682Y-94615000D01*
X83135044Y-94458238D01*
X83074536Y-94312159D01*
X82978282Y-94186718D01*
X82852841Y-94090464D01*
X82852834Y-94090461D01*
X82847515Y-94087390D01*
X82799298Y-94036825D01*
X82786072Y-93968218D01*
X82812037Y-93903352D01*
X82847515Y-93872610D01*
X82852828Y-93869541D01*
X82852841Y-93869536D01*
X82978282Y-93773282D01*
X83074536Y-93647841D01*
X83135044Y-93501762D01*
X83155682Y-93345000D01*
X83135044Y-93188238D01*
X83074536Y-93042159D01*
X82978282Y-92916718D01*
X82852841Y-92820464D01*
X82852834Y-92820461D01*
X82847515Y-92817390D01*
X82799298Y-92766825D01*
X82786072Y-92698218D01*
X82812037Y-92633352D01*
X82847515Y-92602610D01*
X82852828Y-92599541D01*
X82852841Y-92599536D01*
X82978282Y-92503282D01*
X83074536Y-92377841D01*
X83135044Y-92231762D01*
X83155682Y-92075000D01*
X83135044Y-91918238D01*
X83074536Y-91772159D01*
X82978282Y-91646718D01*
X82852841Y-91550464D01*
X82852834Y-91550461D01*
X82847515Y-91547390D01*
X82799298Y-91496825D01*
X82786072Y-91428218D01*
X82812037Y-91363352D01*
X82847515Y-91332610D01*
X82852828Y-91329541D01*
X82852841Y-91329536D01*
X82978282Y-91233282D01*
X83074536Y-91107841D01*
X83135044Y-90961762D01*
X83155682Y-90805000D01*
X83135044Y-90648238D01*
X83074536Y-90502159D01*
X82978282Y-90376718D01*
X82852841Y-90280464D01*
X82852834Y-90280461D01*
X82847515Y-90277390D01*
X82799298Y-90226825D01*
X82786072Y-90158218D01*
X82812037Y-90093352D01*
X82847515Y-90062610D01*
X82852828Y-90059541D01*
X82852841Y-90059536D01*
X82978282Y-89963282D01*
X83074536Y-89837841D01*
X83135044Y-89691762D01*
X83155682Y-89535000D01*
X83135044Y-89378238D01*
X83074536Y-89232159D01*
X82978282Y-89106718D01*
X82852841Y-89010464D01*
X82852834Y-89010461D01*
X82847515Y-89007390D01*
X82799298Y-88956825D01*
X82786072Y-88888218D01*
X82812037Y-88823352D01*
X82847515Y-88792610D01*
X82852828Y-88789541D01*
X82852841Y-88789536D01*
X82978282Y-88693282D01*
X83074536Y-88567841D01*
X83135044Y-88421762D01*
X83152161Y-88291745D01*
X83155682Y-88265001D01*
X83155682Y-88264998D01*
X83135044Y-88108239D01*
X83135044Y-88108238D01*
X83074536Y-87962159D01*
X82978282Y-87836718D01*
X82852841Y-87740464D01*
X82706762Y-87679956D01*
X82706760Y-87679955D01*
X82550001Y-87659318D01*
X82549999Y-87659318D01*
X82393239Y-87679955D01*
X82393237Y-87679956D01*
X82247160Y-87740463D01*
X82132414Y-87828511D01*
X82121718Y-87836718D01*
X82109616Y-87852488D01*
X82053191Y-87893689D01*
X82011243Y-87901000D01*
X74148000Y-87901000D01*
X74080961Y-87881315D01*
X74035206Y-87828511D01*
X74024000Y-87777000D01*
X74024000Y-80665180D01*
X74024424Y-80654939D01*
X74027773Y-80614525D01*
X74027772Y-80614519D01*
X74017815Y-80575206D01*
X74015715Y-80565198D01*
X74009038Y-80525175D01*
X74009037Y-80525173D01*
X74007908Y-80518405D01*
X74016293Y-80449040D01*
X74060848Y-80395220D01*
X74127428Y-80374031D01*
X74130218Y-80374000D01*
X83281243Y-80374000D01*
X83348282Y-80393685D01*
X83379615Y-80422510D01*
X83391718Y-80438282D01*
X83517159Y-80534536D01*
X83663238Y-80595044D01*
X83741619Y-80605363D01*
X83819999Y-80615682D01*
X83820000Y-80615682D01*
X83820001Y-80615682D01*
X83872254Y-80608802D01*
X83976762Y-80595044D01*
X84122841Y-80534536D01*
X84248282Y-80438282D01*
X84344536Y-80312841D01*
X84405044Y-80166762D01*
X84425682Y-80010001D01*
X95660318Y-80010001D01*
X95680955Y-80166760D01*
X95680957Y-80166765D01*
X95741461Y-80312836D01*
X95745526Y-80319876D01*
X95743783Y-80320882D01*
X95765069Y-80375932D01*
X95765500Y-80386257D01*
X95765500Y-81315797D01*
X95780834Y-81422456D01*
X95812736Y-81492310D01*
X95840623Y-81553373D01*
X95934872Y-81662143D01*
X96055947Y-81739953D01*
X96055950Y-81739954D01*
X96055949Y-81739954D01*
X96194036Y-81780499D01*
X96194038Y-81780500D01*
X96194039Y-81780500D01*
X96337962Y-81780500D01*
X96337962Y-81780499D01*
X96476053Y-81739953D01*
X96597128Y-81662143D01*
X96691377Y-81553373D01*
X96751165Y-81422457D01*
X96766500Y-81315799D01*
X96766500Y-80386257D01*
X96786185Y-80319218D01*
X96789924Y-80313900D01*
X96790532Y-80312845D01*
X96790536Y-80312841D01*
X96851044Y-80166762D01*
X96871682Y-80010000D01*
X96851044Y-79853238D01*
X96790536Y-79707159D01*
X96790534Y-79707156D01*
X96786472Y-79700119D01*
X96788213Y-79699113D01*
X96766930Y-79644057D01*
X96766500Y-79633742D01*
X96766500Y-77846257D01*
X96786185Y-77779218D01*
X96789924Y-77773900D01*
X96790532Y-77772845D01*
X96790536Y-77772841D01*
X96851044Y-77626762D01*
X96871682Y-77470000D01*
X96864201Y-77413179D01*
X96851044Y-77313239D01*
X96851044Y-77313238D01*
X96790536Y-77167159D01*
X96790534Y-77167156D01*
X96786472Y-77160119D01*
X96788213Y-77159113D01*
X96766930Y-77104057D01*
X96766500Y-77093742D01*
X96766500Y-76576257D01*
X96786185Y-76509218D01*
X96789924Y-76503900D01*
X96790532Y-76502845D01*
X96790536Y-76502841D01*
X96851044Y-76356762D01*
X96871682Y-76200000D01*
X96864201Y-76143179D01*
X96851044Y-76043239D01*
X96851044Y-76043238D01*
X96790536Y-75897159D01*
X96790534Y-75897156D01*
X96786472Y-75890119D01*
X96788213Y-75889113D01*
X96766930Y-75834057D01*
X96766500Y-75823742D01*
X96766500Y-74930001D01*
X99089318Y-74930001D01*
X99109955Y-75086760D01*
X99109956Y-75086762D01*
X99170464Y-75232841D01*
X99266718Y-75358282D01*
X99392159Y-75454536D01*
X99538238Y-75515044D01*
X99614621Y-75525100D01*
X99694999Y-75535682D01*
X99695000Y-75535682D01*
X99695001Y-75535682D01*
X99747254Y-75528802D01*
X99851762Y-75515044D01*
X99997841Y-75454536D01*
X100123282Y-75358282D01*
X100135383Y-75342511D01*
X100191809Y-75301311D01*
X100233757Y-75294000D01*
X109367000Y-75294000D01*
X109434039Y-75313685D01*
X109479794Y-75366489D01*
X109491000Y-75418000D01*
X109491000Y-93959818D01*
X109490576Y-93970059D01*
X109487226Y-94010474D01*
X109497182Y-94049785D01*
X109499286Y-94059818D01*
X109505961Y-94099823D01*
X109506049Y-94100080D01*
X109516951Y-94128017D01*
X109517047Y-94128237D01*
X109539225Y-94162180D01*
X109544473Y-94170986D01*
X109563781Y-94206665D01*
X109563782Y-94206666D01*
X109563939Y-94206868D01*
X109583327Y-94229758D01*
X109583495Y-94229941D01*
X109615500Y-94254851D01*
X109623311Y-94261466D01*
X109653158Y-94288942D01*
X109653161Y-94288943D01*
X109653394Y-94289096D01*
X109679126Y-94304428D01*
X109679364Y-94304557D01*
X109717718Y-94317724D01*
X109727252Y-94321443D01*
X109764408Y-94337741D01*
X109764413Y-94337741D01*
X109764660Y-94337804D01*
X109793997Y-94343956D01*
X109794259Y-94344000D01*
X109834818Y-94344000D01*
X109845058Y-94344423D01*
X109885475Y-94347773D01*
X109885475Y-94347772D01*
X109885476Y-94347773D01*
X109885723Y-94347752D01*
X109915832Y-94344000D01*
X113761243Y-94344000D01*
X113828282Y-94363685D01*
X113859615Y-94392510D01*
X113871718Y-94408282D01*
X113997159Y-94504536D01*
X114143238Y-94565044D01*
X114221619Y-94575363D01*
X114299999Y-94585682D01*
X114300000Y-94585682D01*
X114300001Y-94585682D01*
X114352254Y-94578802D01*
X114456762Y-94565044D01*
X114602841Y-94504536D01*
X114728282Y-94408282D01*
X114824536Y-94282841D01*
X114885044Y-94136762D01*
X114905682Y-93980000D01*
X114898201Y-93923179D01*
X114885044Y-93823239D01*
X114885044Y-93823238D01*
X114824536Y-93677159D01*
X114728282Y-93551718D01*
X114602841Y-93455464D01*
X114456762Y-93394956D01*
X114456760Y-93394955D01*
X114300001Y-93374318D01*
X114299999Y-93374318D01*
X114143239Y-93394955D01*
X114143237Y-93394956D01*
X113997160Y-93455463D01*
X113931020Y-93506214D01*
X113871718Y-93551718D01*
X113859616Y-93567488D01*
X113803191Y-93608689D01*
X113761243Y-93616000D01*
X110343000Y-93616000D01*
X110275961Y-93596315D01*
X110230206Y-93543511D01*
X110219000Y-93492000D01*
X110219000Y-91845130D01*
X110238685Y-91778091D01*
X110291489Y-91732336D01*
X110360647Y-91722392D01*
X110419159Y-91747275D01*
X110441360Y-91764555D01*
X110441362Y-91764555D01*
X110441364Y-91764557D01*
X110448066Y-91768184D01*
X110454922Y-91771536D01*
X110503486Y-91785994D01*
X110508302Y-91787536D01*
X110556259Y-91804000D01*
X110556264Y-91804000D01*
X110563798Y-91805257D01*
X110571352Y-91806198D01*
X110571353Y-91806199D01*
X110571353Y-91806198D01*
X110571354Y-91806199D01*
X110595967Y-91805180D01*
X110621960Y-91804105D01*
X110627083Y-91804000D01*
X113761243Y-91804000D01*
X113828282Y-91823685D01*
X113859615Y-91852510D01*
X113871718Y-91868282D01*
X113997159Y-91964536D01*
X114143238Y-92025044D01*
X114221619Y-92035363D01*
X114299999Y-92045682D01*
X114300000Y-92045682D01*
X114300001Y-92045682D01*
X114352254Y-92038802D01*
X114456762Y-92025044D01*
X114602841Y-91964536D01*
X114728282Y-91868282D01*
X114824536Y-91742841D01*
X114885044Y-91596762D01*
X114905682Y-91440000D01*
X114898201Y-91383179D01*
X114885044Y-91283239D01*
X114885044Y-91283238D01*
X114824536Y-91137159D01*
X114728282Y-91011718D01*
X114602841Y-90915464D01*
X114456762Y-90854956D01*
X114456760Y-90854955D01*
X114300001Y-90834318D01*
X114299999Y-90834318D01*
X114143239Y-90854955D01*
X114143237Y-90854956D01*
X113997160Y-90915463D01*
X113882414Y-91003511D01*
X113871718Y-91011718D01*
X113859616Y-91027488D01*
X113803191Y-91068689D01*
X113761243Y-91076000D01*
X110978000Y-91076000D01*
X110910961Y-91056315D01*
X110865206Y-91003511D01*
X110854000Y-90952000D01*
X110854000Y-89368403D01*
X110873685Y-89301364D01*
X110926489Y-89255609D01*
X110995647Y-89245665D01*
X111027812Y-89254848D01*
X111034405Y-89257740D01*
X111034406Y-89257740D01*
X111034408Y-89257741D01*
X111034409Y-89257741D01*
X111034660Y-89257804D01*
X111063997Y-89263956D01*
X111064259Y-89264000D01*
X111104818Y-89264000D01*
X111115058Y-89264423D01*
X111155475Y-89267773D01*
X111155475Y-89267772D01*
X111155476Y-89267773D01*
X111155723Y-89267752D01*
X111185832Y-89264000D01*
X113761243Y-89264000D01*
X113828282Y-89283685D01*
X113859615Y-89312510D01*
X113871718Y-89328282D01*
X113997159Y-89424536D01*
X114143238Y-89485044D01*
X114221619Y-89495363D01*
X114299999Y-89505682D01*
X114300000Y-89505682D01*
X114300001Y-89505682D01*
X114352254Y-89498802D01*
X114456762Y-89485044D01*
X114602841Y-89424536D01*
X114728282Y-89328282D01*
X114824536Y-89202841D01*
X114885044Y-89056762D01*
X114905682Y-88900000D01*
X114898201Y-88843179D01*
X114885044Y-88743239D01*
X114885044Y-88743238D01*
X114824536Y-88597159D01*
X114728282Y-88471718D01*
X114602841Y-88375464D01*
X114564829Y-88359719D01*
X114456762Y-88314956D01*
X114456760Y-88314955D01*
X114300001Y-88294318D01*
X114299999Y-88294318D01*
X114143239Y-88314955D01*
X114143237Y-88314956D01*
X113997160Y-88375463D01*
X113882414Y-88463511D01*
X113871718Y-88471718D01*
X113859616Y-88487488D01*
X113803191Y-88528689D01*
X113761243Y-88536000D01*
X111613000Y-88536000D01*
X111545961Y-88516315D01*
X111500206Y-88463511D01*
X111489000Y-88412000D01*
X111489000Y-86828403D01*
X111508685Y-86761364D01*
X111561489Y-86715609D01*
X111630647Y-86705665D01*
X111662812Y-86714848D01*
X111669405Y-86717740D01*
X111669406Y-86717740D01*
X111669408Y-86717741D01*
X111669409Y-86717741D01*
X111669660Y-86717804D01*
X111698997Y-86723956D01*
X111699259Y-86724000D01*
X111739818Y-86724000D01*
X111750058Y-86724423D01*
X111790475Y-86727773D01*
X111790475Y-86727772D01*
X111790476Y-86727773D01*
X111790723Y-86727752D01*
X111820832Y-86724000D01*
X113761243Y-86724000D01*
X113828282Y-86743685D01*
X113859615Y-86772510D01*
X113871718Y-86788282D01*
X113997159Y-86884536D01*
X114143238Y-86945044D01*
X114221619Y-86955363D01*
X114299999Y-86965682D01*
X114300000Y-86965682D01*
X114300001Y-86965682D01*
X114352254Y-86958802D01*
X114456762Y-86945044D01*
X114602841Y-86884536D01*
X114728282Y-86788282D01*
X114824536Y-86662841D01*
X114885044Y-86516762D01*
X114905682Y-86360000D01*
X114885044Y-86203238D01*
X114824536Y-86057159D01*
X114728282Y-85931718D01*
X114602841Y-85835464D01*
X114456762Y-85774956D01*
X114456760Y-85774955D01*
X114300001Y-85754318D01*
X114299999Y-85754318D01*
X114143239Y-85774955D01*
X114143237Y-85774956D01*
X113997160Y-85835463D01*
X113922446Y-85892793D01*
X113871718Y-85931718D01*
X113859616Y-85947488D01*
X113803191Y-85988689D01*
X113761243Y-85996000D01*
X112248000Y-85996000D01*
X112180961Y-85976315D01*
X112135206Y-85923511D01*
X112124000Y-85872000D01*
X112124000Y-84288403D01*
X112143685Y-84221364D01*
X112196489Y-84175609D01*
X112265647Y-84165665D01*
X112297812Y-84174848D01*
X112304405Y-84177740D01*
X112304406Y-84177740D01*
X112304408Y-84177741D01*
X112304409Y-84177741D01*
X112304660Y-84177804D01*
X112333997Y-84183956D01*
X112334259Y-84184000D01*
X112374818Y-84184000D01*
X112385058Y-84184423D01*
X112425475Y-84187773D01*
X112425475Y-84187772D01*
X112425476Y-84187773D01*
X112425723Y-84187752D01*
X112455832Y-84184000D01*
X113761243Y-84184000D01*
X113828282Y-84203685D01*
X113859615Y-84232510D01*
X113871718Y-84248282D01*
X113997159Y-84344536D01*
X114143238Y-84405044D01*
X114221619Y-84415363D01*
X114299999Y-84425682D01*
X114300000Y-84425682D01*
X114300001Y-84425682D01*
X114352254Y-84418802D01*
X114456762Y-84405044D01*
X114602841Y-84344536D01*
X114728282Y-84248282D01*
X114824536Y-84122841D01*
X114885044Y-83976762D01*
X114905682Y-83820000D01*
X114885044Y-83663238D01*
X114824536Y-83517159D01*
X114728282Y-83391718D01*
X114602841Y-83295464D01*
X114456762Y-83234956D01*
X114456760Y-83234955D01*
X114300001Y-83214318D01*
X114299999Y-83214318D01*
X114143239Y-83234955D01*
X114143237Y-83234956D01*
X113997160Y-83295463D01*
X113997159Y-83295464D01*
X113871718Y-83391718D01*
X113859616Y-83407488D01*
X113803191Y-83448689D01*
X113761243Y-83456000D01*
X112883000Y-83456000D01*
X112815961Y-83436315D01*
X112770206Y-83383511D01*
X112759000Y-83332000D01*
X112759000Y-81748403D01*
X112778685Y-81681364D01*
X112831489Y-81635609D01*
X112900647Y-81625665D01*
X112932812Y-81634848D01*
X112939405Y-81637740D01*
X112939406Y-81637740D01*
X112939408Y-81637741D01*
X112939409Y-81637741D01*
X112939660Y-81637804D01*
X112968997Y-81643956D01*
X112969259Y-81644000D01*
X113009818Y-81644000D01*
X113020058Y-81644423D01*
X113060475Y-81647773D01*
X113060475Y-81647772D01*
X113060476Y-81647773D01*
X113060723Y-81647752D01*
X113090832Y-81644000D01*
X113761243Y-81644000D01*
X113828282Y-81663685D01*
X113859615Y-81692510D01*
X113871718Y-81708282D01*
X113997159Y-81804536D01*
X114143238Y-81865044D01*
X114221619Y-81875363D01*
X114299999Y-81885682D01*
X114300000Y-81885682D01*
X114300001Y-81885682D01*
X114352254Y-81878802D01*
X114456762Y-81865044D01*
X114602841Y-81804536D01*
X114728282Y-81708282D01*
X114824536Y-81582841D01*
X114885044Y-81436762D01*
X114905682Y-81280000D01*
X114885044Y-81123238D01*
X114824536Y-80977159D01*
X114728282Y-80851718D01*
X114602841Y-80755464D01*
X114456762Y-80694956D01*
X114456760Y-80694955D01*
X114300001Y-80674318D01*
X114299999Y-80674318D01*
X114143239Y-80694955D01*
X114143237Y-80694956D01*
X113997160Y-80755463D01*
X113997159Y-80755464D01*
X113871718Y-80851718D01*
X113859616Y-80867488D01*
X113803191Y-80908689D01*
X113761243Y-80916000D01*
X113518000Y-80916000D01*
X113450961Y-80896315D01*
X113405206Y-80843511D01*
X113394000Y-80792000D01*
X113394000Y-79208403D01*
X113413685Y-79141364D01*
X113466489Y-79095609D01*
X113535647Y-79085665D01*
X113567812Y-79094848D01*
X113574405Y-79097740D01*
X113574406Y-79097740D01*
X113574408Y-79097741D01*
X113574409Y-79097741D01*
X113574660Y-79097804D01*
X113603997Y-79103956D01*
X113604259Y-79104000D01*
X113644818Y-79104000D01*
X113655058Y-79104423D01*
X113695475Y-79107773D01*
X113695475Y-79107772D01*
X113695476Y-79107773D01*
X113695723Y-79107752D01*
X113725832Y-79104000D01*
X113761243Y-79104000D01*
X113828282Y-79123685D01*
X113859615Y-79152510D01*
X113871718Y-79168282D01*
X113997159Y-79264536D01*
X114143238Y-79325044D01*
X114221619Y-79335363D01*
X114299999Y-79345682D01*
X114300000Y-79345682D01*
X114300001Y-79345682D01*
X114352254Y-79338802D01*
X114456762Y-79325044D01*
X114602841Y-79264536D01*
X114728282Y-79168282D01*
X114824536Y-79042841D01*
X114885044Y-78896762D01*
X114905682Y-78740000D01*
X114898201Y-78683179D01*
X114885044Y-78583239D01*
X114885044Y-78583238D01*
X114824536Y-78437159D01*
X114728282Y-78311718D01*
X114602841Y-78215464D01*
X114456762Y-78154956D01*
X114456760Y-78154955D01*
X114300001Y-78134318D01*
X114299999Y-78134318D01*
X114169185Y-78151540D01*
X114100150Y-78140774D01*
X114047894Y-78094394D01*
X114029000Y-78028601D01*
X114029000Y-76911398D01*
X114048685Y-76844359D01*
X114101489Y-76798604D01*
X114169182Y-76788459D01*
X114300000Y-76805682D01*
X114300001Y-76805682D01*
X114353763Y-76798604D01*
X114456762Y-76785044D01*
X114602841Y-76724536D01*
X114728282Y-76628282D01*
X114824536Y-76502841D01*
X114885044Y-76356762D01*
X114905682Y-76200000D01*
X114898201Y-76143179D01*
X114885044Y-76043239D01*
X114885044Y-76043238D01*
X114824536Y-75897159D01*
X114728282Y-75771718D01*
X114728277Y-75771714D01*
X114712513Y-75759617D01*
X114671310Y-75703189D01*
X114664000Y-75661242D01*
X114664000Y-72390000D01*
X122034571Y-72390000D01*
X122054244Y-72602310D01*
X122112596Y-72807392D01*
X122112596Y-72807394D01*
X122207632Y-72998253D01*
X122257962Y-73064900D01*
X122336128Y-73168407D01*
X122493698Y-73312052D01*
X122674981Y-73424298D01*
X122873802Y-73501321D01*
X123083390Y-73540500D01*
X123083392Y-73540500D01*
X123296608Y-73540500D01*
X123296610Y-73540500D01*
X123506198Y-73501321D01*
X123705019Y-73424298D01*
X123886302Y-73312052D01*
X124043872Y-73168407D01*
X124172366Y-72998255D01*
X124203973Y-72934779D01*
X124267403Y-72807394D01*
X124267403Y-72807393D01*
X124267405Y-72807389D01*
X124325756Y-72602310D01*
X124345429Y-72390000D01*
X124325756Y-72177690D01*
X124267405Y-71972611D01*
X124267403Y-71972606D01*
X124267403Y-71972605D01*
X124172367Y-71781746D01*
X124043872Y-71611593D01*
X124029221Y-71598237D01*
X123886302Y-71467948D01*
X123705019Y-71355702D01*
X123705017Y-71355701D01*
X123605608Y-71317190D01*
X123506198Y-71278679D01*
X123309385Y-71241888D01*
X123247106Y-71210221D01*
X123211833Y-71149908D01*
X123214767Y-71080100D01*
X123254976Y-71022960D01*
X123309384Y-70998111D01*
X123506198Y-70961321D01*
X123705019Y-70884298D01*
X123886302Y-70772052D01*
X124043872Y-70628407D01*
X124172366Y-70458255D01*
X124206972Y-70388756D01*
X124267403Y-70267394D01*
X124267403Y-70267393D01*
X124267405Y-70267389D01*
X124325756Y-70062310D01*
X124345429Y-69850000D01*
X124325756Y-69637690D01*
X124267405Y-69432611D01*
X124267403Y-69432606D01*
X124267403Y-69432605D01*
X124172367Y-69241746D01*
X124043872Y-69071593D01*
X124042557Y-69070394D01*
X123886302Y-68927948D01*
X123705019Y-68815702D01*
X123705017Y-68815701D01*
X123605608Y-68777190D01*
X123506198Y-68738679D01*
X123309385Y-68701888D01*
X123247106Y-68670221D01*
X123211833Y-68609908D01*
X123214767Y-68540100D01*
X123254976Y-68482960D01*
X123309384Y-68458111D01*
X123506198Y-68421321D01*
X123705019Y-68344298D01*
X123886302Y-68232052D01*
X124043872Y-68088407D01*
X124172366Y-67918255D01*
X124230456Y-67801593D01*
X124267403Y-67727394D01*
X124267403Y-67727393D01*
X124267405Y-67727389D01*
X124325756Y-67522310D01*
X124345429Y-67310000D01*
X124325756Y-67097690D01*
X124267405Y-66892611D01*
X124267403Y-66892606D01*
X124267403Y-66892605D01*
X124172367Y-66701746D01*
X124043872Y-66531593D01*
X123962480Y-66457394D01*
X123886302Y-66387948D01*
X123705019Y-66275702D01*
X123705017Y-66275701D01*
X123605608Y-66237190D01*
X123506198Y-66198679D01*
X123309385Y-66161888D01*
X123247106Y-66130221D01*
X123211833Y-66069908D01*
X123214767Y-66000100D01*
X123254976Y-65942960D01*
X123309384Y-65918111D01*
X123506198Y-65881321D01*
X123705019Y-65804298D01*
X123886302Y-65692052D01*
X124043872Y-65548407D01*
X124172366Y-65378255D01*
X124230456Y-65261593D01*
X124267403Y-65187394D01*
X124267403Y-65187393D01*
X124267405Y-65187389D01*
X124325756Y-64982310D01*
X124345429Y-64770000D01*
X124325756Y-64557690D01*
X124267405Y-64352611D01*
X124267403Y-64352606D01*
X124267403Y-64352605D01*
X124172367Y-64161746D01*
X124043872Y-63991593D01*
X123962480Y-63917394D01*
X123886302Y-63847948D01*
X123705019Y-63735702D01*
X123705017Y-63735701D01*
X123605608Y-63697190D01*
X123506198Y-63658679D01*
X123309385Y-63621888D01*
X123247106Y-63590221D01*
X123211833Y-63529908D01*
X123214767Y-63460100D01*
X123254976Y-63402960D01*
X123309384Y-63378111D01*
X123506198Y-63341321D01*
X123705019Y-63264298D01*
X123886302Y-63152052D01*
X124043872Y-63008407D01*
X124172366Y-62838255D01*
X124230456Y-62721593D01*
X124267403Y-62647394D01*
X124267403Y-62647393D01*
X124267405Y-62647389D01*
X124325756Y-62442310D01*
X124345429Y-62230000D01*
X124325756Y-62017690D01*
X124267405Y-61812611D01*
X124267403Y-61812606D01*
X124267403Y-61812605D01*
X124172367Y-61621746D01*
X124043872Y-61451593D01*
X123986665Y-61399442D01*
X123886302Y-61307948D01*
X123705019Y-61195702D01*
X123705017Y-61195701D01*
X123605608Y-61157190D01*
X123506198Y-61118679D01*
X123309385Y-61081888D01*
X123247106Y-61050221D01*
X123211833Y-60989908D01*
X123214767Y-60920100D01*
X123254976Y-60862960D01*
X123309384Y-60838111D01*
X123506198Y-60801321D01*
X123705019Y-60724298D01*
X123886302Y-60612052D01*
X124043872Y-60468407D01*
X124172366Y-60298255D01*
X124238062Y-60166319D01*
X124267403Y-60107394D01*
X124267403Y-60107393D01*
X124267405Y-60107389D01*
X124325756Y-59902310D01*
X124345429Y-59690000D01*
X124325756Y-59477690D01*
X124267405Y-59272611D01*
X124267403Y-59272606D01*
X124267403Y-59272605D01*
X124172367Y-59081746D01*
X124043872Y-58911593D01*
X123986665Y-58859442D01*
X123886302Y-58767948D01*
X123705019Y-58655702D01*
X123705017Y-58655701D01*
X123605608Y-58617190D01*
X123506198Y-58578679D01*
X123309385Y-58541888D01*
X123247106Y-58510221D01*
X123211833Y-58449908D01*
X123214767Y-58380100D01*
X123254976Y-58322960D01*
X123309384Y-58298111D01*
X123506198Y-58261321D01*
X123705019Y-58184298D01*
X123886302Y-58072052D01*
X124043872Y-57928407D01*
X124172366Y-57758255D01*
X124206972Y-57688756D01*
X124267403Y-57567394D01*
X124267403Y-57567393D01*
X124267405Y-57567389D01*
X124325756Y-57362310D01*
X124345429Y-57150000D01*
X124325756Y-56937690D01*
X124267405Y-56732611D01*
X124267403Y-56732606D01*
X124267403Y-56732605D01*
X124172367Y-56541746D01*
X124043872Y-56371593D01*
X123986665Y-56319442D01*
X123886302Y-56227948D01*
X123705019Y-56115702D01*
X123705017Y-56115701D01*
X123605608Y-56077190D01*
X123506198Y-56038679D01*
X123333456Y-56006387D01*
X123271176Y-55974719D01*
X123235903Y-55914407D01*
X123238837Y-55844599D01*
X123279046Y-55787459D01*
X123343764Y-55761128D01*
X123356233Y-55760499D01*
X124084864Y-55760499D01*
X124084879Y-55760497D01*
X124084882Y-55760497D01*
X124109987Y-55757586D01*
X124109988Y-55757585D01*
X124109991Y-55757585D01*
X124212765Y-55712206D01*
X124292206Y-55632765D01*
X124337585Y-55529991D01*
X124340500Y-55504865D01*
X124340499Y-53715136D01*
X124339208Y-53704000D01*
X124337586Y-53690012D01*
X124337585Y-53690010D01*
X124337585Y-53690009D01*
X124292206Y-53587235D01*
X124212765Y-53507794D01*
X124165671Y-53487000D01*
X124109992Y-53462415D01*
X124084865Y-53459500D01*
X122295143Y-53459500D01*
X122295117Y-53459502D01*
X122270012Y-53462413D01*
X122270008Y-53462415D01*
X122167235Y-53507793D01*
X122087794Y-53587234D01*
X122042415Y-53690006D01*
X122042415Y-53690008D01*
X122039500Y-53715131D01*
X122039500Y-55504856D01*
X122039502Y-55504882D01*
X122042413Y-55529987D01*
X122042415Y-55529991D01*
X122087793Y-55632764D01*
X122087794Y-55632765D01*
X122167235Y-55712206D01*
X122270009Y-55757585D01*
X122295135Y-55760500D01*
X123023758Y-55760499D01*
X123090795Y-55780183D01*
X123136550Y-55832987D01*
X123146494Y-55902146D01*
X123117469Y-55965702D01*
X123058691Y-56003476D01*
X123046542Y-56006388D01*
X122990116Y-56016935D01*
X122873802Y-56038679D01*
X122873800Y-56038679D01*
X122873798Y-56038680D01*
X122674982Y-56115701D01*
X122674980Y-56115702D01*
X122493699Y-56227947D01*
X122336127Y-56371593D01*
X122207632Y-56541746D01*
X122112596Y-56732605D01*
X122112596Y-56732607D01*
X122057140Y-56927513D01*
X122054244Y-56937690D01*
X122034571Y-57150000D01*
X122054244Y-57362310D01*
X122101791Y-57529419D01*
X122112596Y-57567392D01*
X122112596Y-57567394D01*
X122207632Y-57758253D01*
X122336127Y-57928406D01*
X122336128Y-57928407D01*
X122493698Y-58072052D01*
X122674981Y-58184298D01*
X122873802Y-58261321D01*
X123070613Y-58298111D01*
X123132893Y-58329779D01*
X123168166Y-58390092D01*
X123165232Y-58459900D01*
X123125023Y-58517040D01*
X123070613Y-58541888D01*
X122873802Y-58578679D01*
X122873799Y-58578679D01*
X122873799Y-58578680D01*
X122674982Y-58655701D01*
X122674980Y-58655702D01*
X122493699Y-58767947D01*
X122336127Y-58911593D01*
X122207632Y-59081746D01*
X122112596Y-59272605D01*
X122112596Y-59272607D01*
X122057140Y-59467513D01*
X122054244Y-59477690D01*
X122034571Y-59690000D01*
X122054244Y-59902310D01*
X122101791Y-60069419D01*
X122112596Y-60107392D01*
X122112596Y-60107394D01*
X122207632Y-60298253D01*
X122336127Y-60468406D01*
X122336128Y-60468407D01*
X122493698Y-60612052D01*
X122674981Y-60724298D01*
X122873802Y-60801321D01*
X123070613Y-60838111D01*
X123132893Y-60869779D01*
X123168166Y-60930092D01*
X123165232Y-60999900D01*
X123125023Y-61057040D01*
X123070613Y-61081888D01*
X122873802Y-61118679D01*
X122873799Y-61118679D01*
X122873799Y-61118680D01*
X122674982Y-61195701D01*
X122674980Y-61195702D01*
X122493699Y-61307947D01*
X122336127Y-61451593D01*
X122207632Y-61621746D01*
X122112596Y-61812605D01*
X122112596Y-61812607D01*
X122054244Y-62017689D01*
X122034571Y-62229999D01*
X122034571Y-62230000D01*
X122054244Y-62442310D01*
X122112596Y-62647392D01*
X122112596Y-62647394D01*
X122207632Y-62838253D01*
X122336127Y-63008406D01*
X122336128Y-63008407D01*
X122493698Y-63152052D01*
X122674981Y-63264298D01*
X122873802Y-63341321D01*
X123070613Y-63378111D01*
X123132893Y-63409779D01*
X123168166Y-63470092D01*
X123165232Y-63539900D01*
X123125023Y-63597040D01*
X123070613Y-63621888D01*
X122873802Y-63658679D01*
X122873799Y-63658679D01*
X122873799Y-63658680D01*
X122674982Y-63735701D01*
X122674980Y-63735702D01*
X122493699Y-63847947D01*
X122336127Y-63991593D01*
X122207632Y-64161746D01*
X122112596Y-64352605D01*
X122112596Y-64352607D01*
X122054244Y-64557689D01*
X122034571Y-64769999D01*
X122034571Y-64770000D01*
X122054244Y-64982310D01*
X122112596Y-65187392D01*
X122112596Y-65187394D01*
X122207632Y-65378253D01*
X122336127Y-65548406D01*
X122336128Y-65548407D01*
X122493698Y-65692052D01*
X122674981Y-65804298D01*
X122873802Y-65881321D01*
X123070613Y-65918111D01*
X123132893Y-65949779D01*
X123168166Y-66010092D01*
X123165232Y-66079900D01*
X123125023Y-66137040D01*
X123070613Y-66161888D01*
X122873802Y-66198679D01*
X122873799Y-66198679D01*
X122873799Y-66198680D01*
X122674982Y-66275701D01*
X122674980Y-66275702D01*
X122493699Y-66387947D01*
X122336127Y-66531593D01*
X122207632Y-66701746D01*
X122112596Y-66892605D01*
X122112596Y-66892607D01*
X122060900Y-67074298D01*
X122054244Y-67097690D01*
X122034571Y-67310000D01*
X122054244Y-67522310D01*
X122097434Y-67674106D01*
X122112596Y-67727392D01*
X122112596Y-67727394D01*
X122207632Y-67918253D01*
X122320274Y-68067413D01*
X122336128Y-68088407D01*
X122493698Y-68232052D01*
X122674981Y-68344298D01*
X122873802Y-68421321D01*
X123070613Y-68458111D01*
X123132893Y-68489779D01*
X123168166Y-68550092D01*
X123165232Y-68619900D01*
X123125023Y-68677040D01*
X123070613Y-68701888D01*
X122873802Y-68738679D01*
X122873799Y-68738679D01*
X122873799Y-68738680D01*
X122674982Y-68815701D01*
X122674980Y-68815702D01*
X122493699Y-68927947D01*
X122336127Y-69071593D01*
X122207632Y-69241746D01*
X122112596Y-69432605D01*
X122112596Y-69432607D01*
X122060900Y-69614298D01*
X122054244Y-69637690D01*
X122034571Y-69850000D01*
X122054244Y-70062310D01*
X122074924Y-70134993D01*
X122112596Y-70267392D01*
X122112596Y-70267394D01*
X122207632Y-70458253D01*
X122336127Y-70628406D01*
X122336128Y-70628407D01*
X122493698Y-70772052D01*
X122674981Y-70884298D01*
X122873802Y-70961321D01*
X123070613Y-70998111D01*
X123132893Y-71029779D01*
X123168166Y-71090092D01*
X123165232Y-71159900D01*
X123125023Y-71217040D01*
X123070613Y-71241888D01*
X122873802Y-71278679D01*
X122873799Y-71278679D01*
X122873799Y-71278680D01*
X122674982Y-71355701D01*
X122674980Y-71355702D01*
X122493699Y-71467947D01*
X122336127Y-71611593D01*
X122207632Y-71781746D01*
X122112596Y-71972605D01*
X122112596Y-71972607D01*
X122054244Y-72177689D01*
X122034571Y-72389999D01*
X122034571Y-72390000D01*
X114664000Y-72390000D01*
X114664000Y-70388756D01*
X114683685Y-70321717D01*
X114712510Y-70290383D01*
X114728282Y-70278282D01*
X114824536Y-70152841D01*
X114885044Y-70006762D01*
X114905682Y-69850000D01*
X114885044Y-69693238D01*
X114824536Y-69547159D01*
X114728282Y-69421718D01*
X114602841Y-69325464D01*
X114456762Y-69264956D01*
X114456760Y-69264955D01*
X114300001Y-69244318D01*
X114299999Y-69244318D01*
X114169185Y-69261540D01*
X114100150Y-69250774D01*
X114047894Y-69204394D01*
X114029000Y-69138601D01*
X114029000Y-67848756D01*
X114048685Y-67781717D01*
X114077510Y-67750383D01*
X114093282Y-67738282D01*
X114189536Y-67612841D01*
X114250044Y-67466762D01*
X114270682Y-67310000D01*
X114250044Y-67153238D01*
X114189536Y-67007159D01*
X114093282Y-66881718D01*
X113967841Y-66785464D01*
X113821762Y-66724956D01*
X113821760Y-66724955D01*
X113665001Y-66704318D01*
X113664999Y-66704318D01*
X113534185Y-66721540D01*
X113465150Y-66710774D01*
X113412894Y-66664394D01*
X113394000Y-66598601D01*
X113394000Y-65308756D01*
X113413685Y-65241717D01*
X113442510Y-65210383D01*
X113458282Y-65198282D01*
X113554536Y-65072841D01*
X113615044Y-64926762D01*
X113635682Y-64770000D01*
X113615044Y-64613238D01*
X113554536Y-64467159D01*
X113458282Y-64341718D01*
X113332841Y-64245464D01*
X113186762Y-64184956D01*
X113186760Y-64184955D01*
X113030001Y-64164318D01*
X113029999Y-64164318D01*
X112899185Y-64181540D01*
X112830150Y-64170774D01*
X112777894Y-64124394D01*
X112759000Y-64058601D01*
X112759000Y-62768756D01*
X112778685Y-62701717D01*
X112807510Y-62670383D01*
X112823282Y-62658282D01*
X112919536Y-62532841D01*
X112980044Y-62386762D01*
X113000682Y-62230000D01*
X112980044Y-62073238D01*
X112919536Y-61927159D01*
X112823282Y-61801718D01*
X112697841Y-61705464D01*
X112551762Y-61644956D01*
X112551760Y-61644955D01*
X112395001Y-61624318D01*
X112394999Y-61624318D01*
X112264185Y-61641540D01*
X112195150Y-61630774D01*
X112142894Y-61584394D01*
X112124000Y-61518601D01*
X112124000Y-57688756D01*
X112143685Y-57621717D01*
X112172510Y-57590383D01*
X112188282Y-57578282D01*
X112284536Y-57452841D01*
X112345044Y-57306762D01*
X112365682Y-57150000D01*
X112358201Y-57093179D01*
X112345044Y-56993239D01*
X112345044Y-56993238D01*
X112284536Y-56847159D01*
X112188282Y-56721718D01*
X112062841Y-56625464D01*
X111916762Y-56564956D01*
X111916760Y-56564955D01*
X111760001Y-56544318D01*
X111759999Y-56544318D01*
X111629185Y-56561540D01*
X111560150Y-56550774D01*
X111507894Y-56504394D01*
X111489000Y-56438601D01*
X111489000Y-55148756D01*
X111508685Y-55081717D01*
X111537510Y-55050383D01*
X111553282Y-55038282D01*
X111649536Y-54912841D01*
X111710044Y-54766762D01*
X111730682Y-54610000D01*
X111723201Y-54553179D01*
X111710044Y-54453239D01*
X111710044Y-54453238D01*
X111649536Y-54307159D01*
X111553282Y-54181718D01*
X111427841Y-54085464D01*
X111281762Y-54024956D01*
X111281760Y-54024955D01*
X111125001Y-54004318D01*
X111124999Y-54004318D01*
X110968239Y-54024955D01*
X110968237Y-54024956D01*
X110822160Y-54085463D01*
X110696718Y-54181718D01*
X110600463Y-54307160D01*
X110539956Y-54453237D01*
X110539955Y-54453239D01*
X110519318Y-54609998D01*
X110519318Y-54610001D01*
X110539955Y-54766760D01*
X110539956Y-54766762D01*
X110600464Y-54912841D01*
X110696718Y-55038282D01*
X110712486Y-55050381D01*
X110753688Y-55106805D01*
X110761000Y-55148756D01*
X110761000Y-60248601D01*
X110741315Y-60315640D01*
X110688511Y-60361395D01*
X110620815Y-60371540D01*
X110490001Y-60354318D01*
X110489999Y-60354318D01*
X110333239Y-60374955D01*
X110333237Y-60374956D01*
X110187160Y-60435463D01*
X110061718Y-60531718D01*
X109965463Y-60657160D01*
X109904956Y-60803237D01*
X109904955Y-60803239D01*
X109884318Y-60959998D01*
X109884318Y-60960001D01*
X109904955Y-61116760D01*
X109904956Y-61116762D01*
X109965464Y-61262841D01*
X110061718Y-61388282D01*
X110077486Y-61400381D01*
X110118688Y-61456805D01*
X110126000Y-61498756D01*
X110126000Y-74461596D01*
X110106315Y-74528635D01*
X110053511Y-74574390D01*
X109984353Y-74584334D01*
X109952198Y-74575155D01*
X109945597Y-74572260D01*
X109945368Y-74572202D01*
X109915967Y-74566037D01*
X109915741Y-74566000D01*
X109915740Y-74566000D01*
X109875182Y-74566000D01*
X109864941Y-74565576D01*
X109824523Y-74562226D01*
X109824276Y-74562247D01*
X109794168Y-74566000D01*
X100233757Y-74566000D01*
X100166718Y-74546315D01*
X100135384Y-74517489D01*
X100123282Y-74501718D01*
X99997841Y-74405464D01*
X99851762Y-74344956D01*
X99851760Y-74344955D01*
X99695001Y-74324318D01*
X99694999Y-74324318D01*
X99538239Y-74344955D01*
X99538237Y-74344956D01*
X99392160Y-74405463D01*
X99266718Y-74501718D01*
X99170463Y-74627160D01*
X99109956Y-74773237D01*
X99109955Y-74773239D01*
X99089318Y-74929998D01*
X99089318Y-74930001D01*
X96766500Y-74930001D01*
X96766500Y-72766257D01*
X96786185Y-72699218D01*
X96789924Y-72693900D01*
X96790532Y-72692845D01*
X96790536Y-72692841D01*
X96851044Y-72546762D01*
X96871682Y-72390000D01*
X96864201Y-72333179D01*
X96851044Y-72233239D01*
X96851044Y-72233238D01*
X96790536Y-72087159D01*
X96790534Y-72087156D01*
X96786472Y-72080119D01*
X96788213Y-72079113D01*
X96766930Y-72024057D01*
X96766500Y-72013742D01*
X96766500Y-68321257D01*
X96786185Y-68254218D01*
X96789924Y-68248900D01*
X96790532Y-68247845D01*
X96790536Y-68247841D01*
X96851044Y-68101762D01*
X96871682Y-67945000D01*
X96851044Y-67788238D01*
X96790536Y-67642159D01*
X96790534Y-67642156D01*
X96786472Y-67635119D01*
X96788213Y-67634113D01*
X96766930Y-67579057D01*
X96766500Y-67568742D01*
X96766500Y-58796257D01*
X96786185Y-58729218D01*
X96789924Y-58723900D01*
X96790532Y-58722845D01*
X96790536Y-58722841D01*
X96851044Y-58576762D01*
X96871682Y-58420000D01*
X96864201Y-58363179D01*
X96851044Y-58263239D01*
X96851044Y-58263238D01*
X96790536Y-58117159D01*
X96694282Y-57991718D01*
X96568841Y-57895464D01*
X96422762Y-57834956D01*
X96422760Y-57834955D01*
X96266001Y-57814318D01*
X96265999Y-57814318D01*
X96109239Y-57834955D01*
X96109237Y-57834956D01*
X95963160Y-57895463D01*
X95837718Y-57991718D01*
X95741463Y-58117160D01*
X95680956Y-58263237D01*
X95680955Y-58263239D01*
X95660318Y-58419998D01*
X95660318Y-58420001D01*
X95680955Y-58576760D01*
X95680957Y-58576765D01*
X95741461Y-58722836D01*
X95745526Y-58729876D01*
X95743783Y-58730882D01*
X95765069Y-58785932D01*
X95765500Y-58796257D01*
X95765500Y-67568742D01*
X95745815Y-67635781D01*
X95742073Y-67641103D01*
X95741465Y-67642156D01*
X95680956Y-67788237D01*
X95680955Y-67788239D01*
X95660318Y-67944998D01*
X95660318Y-67945001D01*
X95680955Y-68101760D01*
X95680957Y-68101765D01*
X95741461Y-68247836D01*
X95745526Y-68254876D01*
X95743783Y-68255882D01*
X95765069Y-68310932D01*
X95765500Y-68321257D01*
X95765500Y-72013742D01*
X95745815Y-72080781D01*
X95742073Y-72086103D01*
X95741465Y-72087156D01*
X95680956Y-72233237D01*
X95680955Y-72233239D01*
X95660318Y-72389998D01*
X95660318Y-72390001D01*
X95680955Y-72546760D01*
X95680957Y-72546765D01*
X95741461Y-72692836D01*
X95745526Y-72699876D01*
X95743783Y-72700882D01*
X95765069Y-72755932D01*
X95765500Y-72766257D01*
X95765500Y-75823742D01*
X95745815Y-75890781D01*
X95742073Y-75896103D01*
X95741465Y-75897156D01*
X95680956Y-76043237D01*
X95680955Y-76043239D01*
X95660318Y-76199998D01*
X95660318Y-76200001D01*
X95680955Y-76356760D01*
X95680957Y-76356765D01*
X95741461Y-76502836D01*
X95745526Y-76509876D01*
X95743783Y-76510882D01*
X95765069Y-76565932D01*
X95765500Y-76576257D01*
X95765500Y-77093742D01*
X95745815Y-77160781D01*
X95742073Y-77166103D01*
X95741465Y-77167156D01*
X95680956Y-77313237D01*
X95680955Y-77313239D01*
X95660318Y-77469998D01*
X95660318Y-77470001D01*
X95680955Y-77626760D01*
X95680957Y-77626765D01*
X95741461Y-77772836D01*
X95745526Y-77779876D01*
X95743783Y-77780882D01*
X95765069Y-77835932D01*
X95765500Y-77846257D01*
X95765500Y-79633742D01*
X95745815Y-79700781D01*
X95742073Y-79706103D01*
X95741465Y-79707156D01*
X95680956Y-79853237D01*
X95680955Y-79853239D01*
X95660318Y-80009998D01*
X95660318Y-80010001D01*
X84425682Y-80010001D01*
X84425682Y-80010000D01*
X84405044Y-79853238D01*
X84344536Y-79707159D01*
X84248282Y-79581718D01*
X84122841Y-79485464D01*
X83976762Y-79424956D01*
X83976760Y-79424955D01*
X83820001Y-79404318D01*
X83819999Y-79404318D01*
X83663239Y-79424955D01*
X83663237Y-79424956D01*
X83517160Y-79485463D01*
X83517159Y-79485464D01*
X83391718Y-79581718D01*
X83379616Y-79597488D01*
X83323191Y-79638689D01*
X83281243Y-79646000D01*
X83261399Y-79646000D01*
X83194360Y-79626315D01*
X83148605Y-79573511D01*
X83138460Y-79505815D01*
X83155682Y-79375001D01*
X83155682Y-79374998D01*
X83135044Y-79218239D01*
X83135044Y-79218238D01*
X83074536Y-79072159D01*
X82978282Y-78946718D01*
X82852841Y-78850464D01*
X82852834Y-78850461D01*
X82847515Y-78847390D01*
X82799298Y-78796825D01*
X82786072Y-78728218D01*
X82812037Y-78663352D01*
X82847515Y-78632610D01*
X82852828Y-78629541D01*
X82852841Y-78629536D01*
X82978282Y-78533282D01*
X83074536Y-78407841D01*
X83135044Y-78261762D01*
X83155682Y-78105000D01*
X83135044Y-77948238D01*
X83074536Y-77802159D01*
X82978282Y-77676718D01*
X82852841Y-77580464D01*
X82852834Y-77580461D01*
X82847515Y-77577390D01*
X82799298Y-77526825D01*
X82786072Y-77458218D01*
X82812037Y-77393352D01*
X82847515Y-77362610D01*
X82852828Y-77359541D01*
X82852841Y-77359536D01*
X82978282Y-77263282D01*
X83074536Y-77137841D01*
X83135044Y-76991762D01*
X83155682Y-76835000D01*
X83150890Y-76798604D01*
X83135044Y-76678239D01*
X83135044Y-76678238D01*
X83074536Y-76532159D01*
X82978282Y-76406718D01*
X82852841Y-76310464D01*
X82852834Y-76310461D01*
X82847515Y-76307390D01*
X82799298Y-76256825D01*
X82786072Y-76188218D01*
X82812037Y-76123352D01*
X82847515Y-76092610D01*
X82852828Y-76089541D01*
X82852841Y-76089536D01*
X82978282Y-75993282D01*
X83074536Y-75867841D01*
X83135044Y-75721762D01*
X83155682Y-75565000D01*
X83135044Y-75408238D01*
X83074536Y-75262159D01*
X82978282Y-75136718D01*
X82852841Y-75040464D01*
X82852834Y-75040461D01*
X82847515Y-75037390D01*
X82799298Y-74986825D01*
X82786072Y-74918218D01*
X82812037Y-74853352D01*
X82847515Y-74822610D01*
X82852828Y-74819541D01*
X82852841Y-74819536D01*
X82978282Y-74723282D01*
X83074536Y-74597841D01*
X83135044Y-74451762D01*
X83155682Y-74295000D01*
X83135044Y-74138238D01*
X83074536Y-73992159D01*
X82978282Y-73866718D01*
X82852841Y-73770464D01*
X82852834Y-73770461D01*
X82847515Y-73767390D01*
X82799298Y-73716825D01*
X82786072Y-73648218D01*
X82812037Y-73583352D01*
X82847515Y-73552610D01*
X82852828Y-73549541D01*
X82852841Y-73549536D01*
X82978282Y-73453282D01*
X83074536Y-73327841D01*
X83135044Y-73181762D01*
X83155682Y-73025000D01*
X83135044Y-72868238D01*
X83074536Y-72722159D01*
X82978282Y-72596718D01*
X82852841Y-72500464D01*
X82852834Y-72500461D01*
X82847515Y-72497390D01*
X82799298Y-72446825D01*
X82786072Y-72378218D01*
X82812037Y-72313352D01*
X82847515Y-72282610D01*
X82852828Y-72279541D01*
X82852841Y-72279536D01*
X82978282Y-72183282D01*
X83074536Y-72057841D01*
X83135044Y-71911762D01*
X83155682Y-71755000D01*
X83135044Y-71598238D01*
X83074536Y-71452159D01*
X82978282Y-71326718D01*
X82852841Y-71230464D01*
X82852834Y-71230461D01*
X82847515Y-71227390D01*
X82799298Y-71176825D01*
X82786072Y-71108218D01*
X82812037Y-71043352D01*
X82847515Y-71012610D01*
X82852828Y-71009541D01*
X82852841Y-71009536D01*
X82978282Y-70913282D01*
X83074536Y-70787841D01*
X83135044Y-70641762D01*
X83152161Y-70511745D01*
X83155682Y-70485001D01*
X83155682Y-70484998D01*
X83135044Y-70328239D01*
X83135044Y-70328238D01*
X83074536Y-70182159D01*
X82978282Y-70056718D01*
X82852841Y-69960464D01*
X82706762Y-69899956D01*
X82706760Y-69899955D01*
X82550001Y-69879318D01*
X82549999Y-69879318D01*
X82393239Y-69899955D01*
X82393237Y-69899956D01*
X82247160Y-69960463D01*
X82132414Y-70048511D01*
X82121718Y-70056718D01*
X82109616Y-70072488D01*
X82053191Y-70113689D01*
X82011243Y-70121000D01*
X74148000Y-70121000D01*
X74080961Y-70101315D01*
X74035206Y-70048511D01*
X74024000Y-69997000D01*
X74024000Y-62885180D01*
X74024424Y-62874939D01*
X74027773Y-62834525D01*
X74027772Y-62834519D01*
X74017815Y-62795206D01*
X74015715Y-62785198D01*
X74009038Y-62745175D01*
X74009037Y-62745173D01*
X74007908Y-62738405D01*
X74016293Y-62669040D01*
X74060848Y-62615220D01*
X74127428Y-62594031D01*
X74130218Y-62594000D01*
X83281243Y-62594000D01*
X83348282Y-62613685D01*
X83379615Y-62642510D01*
X83391718Y-62658282D01*
X83517159Y-62754536D01*
X83663238Y-62815044D01*
X83741619Y-62825363D01*
X83819999Y-62835682D01*
X83820000Y-62835682D01*
X83820001Y-62835682D01*
X83872254Y-62828802D01*
X83976762Y-62815044D01*
X84122841Y-62754536D01*
X84248282Y-62658282D01*
X84344536Y-62532841D01*
X84405044Y-62386762D01*
X84425682Y-62230000D01*
X84405044Y-62073238D01*
X84344536Y-61927159D01*
X84248282Y-61801718D01*
X84122841Y-61705464D01*
X83976762Y-61644956D01*
X83976760Y-61644955D01*
X83820001Y-61624318D01*
X83819999Y-61624318D01*
X83663239Y-61644955D01*
X83663237Y-61644956D01*
X83517160Y-61705463D01*
X83517159Y-61705464D01*
X83391718Y-61801718D01*
X83379616Y-61817488D01*
X83323191Y-61858689D01*
X83281243Y-61866000D01*
X83261399Y-61866000D01*
X83194360Y-61846315D01*
X83148605Y-61793511D01*
X83138460Y-61725815D01*
X83155682Y-61595001D01*
X83155682Y-61594998D01*
X83141923Y-61490492D01*
X83135044Y-61438238D01*
X83074536Y-61292159D01*
X82978282Y-61166718D01*
X82852841Y-61070464D01*
X82852834Y-61070461D01*
X82847515Y-61067390D01*
X82799298Y-61016825D01*
X82786072Y-60948218D01*
X82812037Y-60883352D01*
X82847515Y-60852610D01*
X82852828Y-60849541D01*
X82852841Y-60849536D01*
X82978282Y-60753282D01*
X83074536Y-60627841D01*
X83135044Y-60481762D01*
X83155682Y-60325000D01*
X83135044Y-60168238D01*
X83074536Y-60022159D01*
X82978282Y-59896718D01*
X82852841Y-59800464D01*
X82852834Y-59800461D01*
X82847515Y-59797390D01*
X82799298Y-59746825D01*
X82786072Y-59678218D01*
X82812037Y-59613352D01*
X82847515Y-59582610D01*
X82852828Y-59579541D01*
X82852841Y-59579536D01*
X82978282Y-59483282D01*
X83074536Y-59357841D01*
X83135044Y-59211762D01*
X83155682Y-59055000D01*
X83135044Y-58898238D01*
X83074536Y-58752159D01*
X82978282Y-58626718D01*
X82852841Y-58530464D01*
X82852834Y-58530461D01*
X82847515Y-58527390D01*
X82799298Y-58476825D01*
X82786072Y-58408218D01*
X82812037Y-58343352D01*
X82847515Y-58312610D01*
X82852828Y-58309541D01*
X82852841Y-58309536D01*
X82978282Y-58213282D01*
X83074536Y-58087841D01*
X83135044Y-57941762D01*
X83155682Y-57785000D01*
X83135044Y-57628238D01*
X83074536Y-57482159D01*
X82978282Y-57356718D01*
X82852841Y-57260464D01*
X82852834Y-57260461D01*
X82847515Y-57257390D01*
X82799298Y-57206825D01*
X82786072Y-57138218D01*
X82812037Y-57073352D01*
X82847515Y-57042610D01*
X82852828Y-57039541D01*
X82852841Y-57039536D01*
X82978282Y-56943282D01*
X83074536Y-56817841D01*
X83135044Y-56671762D01*
X83155682Y-56515000D01*
X83135044Y-56358238D01*
X83074536Y-56212159D01*
X82978282Y-56086718D01*
X82852841Y-55990464D01*
X82852834Y-55990461D01*
X82847515Y-55987390D01*
X82799298Y-55936825D01*
X82786072Y-55868218D01*
X82812037Y-55803352D01*
X82847515Y-55772610D01*
X82852828Y-55769541D01*
X82852841Y-55769536D01*
X82978282Y-55673282D01*
X83074536Y-55547841D01*
X83135044Y-55401762D01*
X83155682Y-55245000D01*
X83135044Y-55088238D01*
X83074536Y-54942159D01*
X82978282Y-54816718D01*
X82852841Y-54720464D01*
X82852834Y-54720461D01*
X82847515Y-54717390D01*
X82799298Y-54666825D01*
X82786072Y-54598218D01*
X82812037Y-54533352D01*
X82847515Y-54502610D01*
X82852828Y-54499541D01*
X82852841Y-54499536D01*
X82978282Y-54403282D01*
X83074536Y-54277841D01*
X83135044Y-54131762D01*
X83155682Y-53975000D01*
X83135044Y-53818238D01*
X83074536Y-53672159D01*
X82978282Y-53546718D01*
X82852841Y-53450464D01*
X82852834Y-53450461D01*
X82847515Y-53447390D01*
X82799298Y-53396825D01*
X82786072Y-53328218D01*
X82812037Y-53263352D01*
X82847515Y-53232610D01*
X82852828Y-53229541D01*
X82852841Y-53229536D01*
X82978282Y-53133282D01*
X83074536Y-53007841D01*
X83135044Y-52861762D01*
X83152161Y-52731744D01*
X83155682Y-52705001D01*
X83155682Y-52704998D01*
X83135044Y-52548239D01*
X83135044Y-52548238D01*
X83074536Y-52402159D01*
X82978282Y-52276718D01*
X82852841Y-52180464D01*
X82706762Y-52119956D01*
X82706760Y-52119955D01*
X82550001Y-52099318D01*
X82549999Y-52099318D01*
X82393239Y-52119955D01*
X82393237Y-52119956D01*
X82247160Y-52180463D01*
X82156764Y-52249826D01*
X82121718Y-52276718D01*
X82109616Y-52292488D01*
X82053191Y-52333689D01*
X82011243Y-52341000D01*
X74148000Y-52341000D01*
X74080961Y-52321315D01*
X74035206Y-52268511D01*
X74024000Y-52217000D01*
X74024000Y-45105180D01*
X74024424Y-45094939D01*
X74027773Y-45054525D01*
X74027772Y-45054519D01*
X74017815Y-45015206D01*
X74015715Y-45005198D01*
X74009038Y-44965175D01*
X74009034Y-44965168D01*
X74008946Y-44964910D01*
X73998064Y-44937018D01*
X73997951Y-44936763D01*
X73997951Y-44936761D01*
X73975772Y-44902815D01*
X73970523Y-44894007D01*
X73951219Y-44858335D01*
X73951066Y-44858139D01*
X73931688Y-44835260D01*
X73931504Y-44835059D01*
X73899497Y-44810147D01*
X73891677Y-44803523D01*
X73861843Y-44776058D01*
X73861624Y-44775916D01*
X73835884Y-44760577D01*
X73835640Y-44760445D01*
X73797273Y-44747272D01*
X73787733Y-44743549D01*
X73750593Y-44727259D01*
X73750368Y-44727202D01*
X73720967Y-44721037D01*
X73720741Y-44721000D01*
X73720740Y-44721000D01*
X73680182Y-44721000D01*
X73669941Y-44720576D01*
X73629523Y-44717226D01*
X73629276Y-44717247D01*
X73599168Y-44721000D01*
X44652135Y-44721000D01*
X44585096Y-44701315D01*
X44564454Y-44684681D01*
X31408172Y-31528398D01*
X31392044Y-31508537D01*
X31386508Y-31500064D01*
X31386504Y-31500059D01*
X31362481Y-31481361D01*
X31351372Y-31471550D01*
X31351060Y-31471286D01*
X31334715Y-31459615D01*
X31330611Y-31456555D01*
X31290641Y-31425445D01*
X31283904Y-31421800D01*
X31277080Y-31418464D01*
X31228522Y-31404007D01*
X31223666Y-31402452D01*
X31193534Y-31392108D01*
X31175739Y-31385999D01*
X31168218Y-31384744D01*
X31160645Y-31383800D01*
X31112003Y-31385812D01*
X31110039Y-31385894D01*
X31104917Y-31386000D01*
X28625606Y-31386000D01*
X28600162Y-31383361D01*
X28590251Y-31381283D01*
X28590248Y-31381283D01*
X28565130Y-31384414D01*
X28562484Y-31384744D01*
X28560045Y-31385048D01*
X28545220Y-31385968D01*
X28544845Y-31385999D01*
X28544839Y-31386000D01*
X28544838Y-31386000D01*
X28525030Y-31389304D01*
X28519971Y-31390041D01*
X28469704Y-31396307D01*
X28462359Y-31398494D01*
X28455176Y-31400960D01*
X28410627Y-31425069D01*
X28406073Y-31427414D01*
X28360560Y-31449664D01*
X28354342Y-31454103D01*
X28348338Y-31458777D01*
X28314021Y-31496054D01*
X28310474Y-31499750D01*
X27880398Y-31929826D01*
X27819075Y-31963311D01*
X27749383Y-31958327D01*
X27747923Y-31957772D01*
X27675785Y-31929826D01*
X27621198Y-31908679D01*
X27411610Y-31869500D01*
X27198390Y-31869500D01*
X26988802Y-31908679D01*
X26988799Y-31908679D01*
X26988799Y-31908680D01*
X26789982Y-31985701D01*
X26789980Y-31985702D01*
X26608699Y-32097947D01*
X26451127Y-32241593D01*
X26322632Y-32411746D01*
X26227596Y-32602605D01*
X26227596Y-32602607D01*
X26169244Y-32807689D01*
X26149571Y-33019999D01*
X26149571Y-33020000D01*
X26169244Y-33232310D01*
X26227596Y-33437392D01*
X26227596Y-33437394D01*
X26322632Y-33628253D01*
X26322634Y-33628255D01*
X26451128Y-33798407D01*
X26608698Y-33942052D01*
X26789981Y-34054298D01*
X26988802Y-34131321D01*
X27185613Y-34168111D01*
X27247893Y-34199779D01*
X27283166Y-34260092D01*
X27280232Y-34329900D01*
X27240023Y-34387040D01*
X27185613Y-34411888D01*
X26988802Y-34448679D01*
X26988799Y-34448679D01*
X26988799Y-34448680D01*
X26789982Y-34525701D01*
X26789980Y-34525702D01*
X26608699Y-34637947D01*
X26451127Y-34781593D01*
X26322632Y-34951746D01*
X26227596Y-35142605D01*
X26227596Y-35142607D01*
X26169244Y-35347689D01*
X26149571Y-35559999D01*
X26149571Y-35560000D01*
X26169244Y-35772310D01*
X26227596Y-35977392D01*
X26227596Y-35977394D01*
X26322632Y-36168253D01*
X26438054Y-36321095D01*
X26451128Y-36338407D01*
X26608698Y-36482052D01*
X26789981Y-36594298D01*
X26988802Y-36671321D01*
X27185613Y-36708111D01*
X27247893Y-36739779D01*
X27283166Y-36800092D01*
X27280232Y-36869900D01*
X27240023Y-36927040D01*
X27185613Y-36951888D01*
X26988802Y-36988679D01*
X26988799Y-36988679D01*
X26988799Y-36988680D01*
X26789982Y-37065701D01*
X26789980Y-37065702D01*
X26608699Y-37177947D01*
X26451127Y-37321593D01*
X26322632Y-37491746D01*
X26227596Y-37682605D01*
X26227596Y-37682607D01*
X26169244Y-37887689D01*
X26149571Y-38099999D01*
X26149571Y-38100000D01*
X26169244Y-38312310D01*
X26227596Y-38517392D01*
X26227596Y-38517394D01*
X26322632Y-38708253D01*
X26438054Y-38861095D01*
X26451128Y-38878407D01*
X26608698Y-39022052D01*
X26789981Y-39134298D01*
X26988802Y-39211321D01*
X27185613Y-39248111D01*
X27247893Y-39279779D01*
X27283166Y-39340092D01*
X27280232Y-39409900D01*
X27240023Y-39467040D01*
X27185613Y-39491888D01*
X26988802Y-39528679D01*
X26988799Y-39528679D01*
X26988799Y-39528680D01*
X26789982Y-39605701D01*
X26789980Y-39605702D01*
X26608699Y-39717947D01*
X26451127Y-39861593D01*
X26322632Y-40031746D01*
X26227596Y-40222605D01*
X26227596Y-40222607D01*
X26169244Y-40427689D01*
X26149571Y-40639999D01*
X26149571Y-40640000D01*
X26169244Y-40852310D01*
X26227596Y-41057392D01*
X26227596Y-41057394D01*
X26322632Y-41248253D01*
X26438054Y-41401095D01*
X26451128Y-41418407D01*
X26608698Y-41562052D01*
X26789981Y-41674298D01*
X26988802Y-41751321D01*
X27185613Y-41788111D01*
X27247893Y-41819779D01*
X27283166Y-41880092D01*
X27280232Y-41949900D01*
X27240023Y-42007040D01*
X27185613Y-42031888D01*
X26988802Y-42068679D01*
X26988799Y-42068679D01*
X26988799Y-42068680D01*
X26789982Y-42145701D01*
X26789980Y-42145702D01*
X26608699Y-42257947D01*
X26451127Y-42401593D01*
X26322632Y-42571746D01*
X26227596Y-42762605D01*
X26227596Y-42762607D01*
X26169244Y-42967689D01*
X26149571Y-43179999D01*
X26149571Y-43180000D01*
X26169244Y-43392310D01*
X26227596Y-43597392D01*
X26227596Y-43597394D01*
X26322632Y-43788253D01*
X26438054Y-43941095D01*
X26451128Y-43958407D01*
X26608698Y-44102052D01*
X26789981Y-44214298D01*
X26988802Y-44291321D01*
X27185613Y-44328111D01*
X27247893Y-44359779D01*
X27283166Y-44420092D01*
X27280232Y-44489900D01*
X27240023Y-44547040D01*
X27185613Y-44571888D01*
X26988802Y-44608679D01*
X26988799Y-44608679D01*
X26988799Y-44608680D01*
X26789982Y-44685701D01*
X26789980Y-44685702D01*
X26608699Y-44797947D01*
X26451127Y-44941593D01*
X26322632Y-45111746D01*
X26227596Y-45302605D01*
X26227596Y-45302607D01*
X26169244Y-45507689D01*
X26149571Y-45719999D01*
X26149571Y-45720000D01*
X26169244Y-45932310D01*
X26227596Y-46137392D01*
X26227596Y-46137394D01*
X26322632Y-46328253D01*
X26438054Y-46481095D01*
X26451128Y-46498407D01*
X26608698Y-46642052D01*
X26789981Y-46754298D01*
X26988802Y-46831321D01*
X27185613Y-46868111D01*
X27247893Y-46899779D01*
X27283166Y-46960092D01*
X27280232Y-47029900D01*
X27240023Y-47087040D01*
X27185613Y-47111888D01*
X26988802Y-47148679D01*
X26988799Y-47148679D01*
X26988799Y-47148680D01*
X26789982Y-47225701D01*
X26789980Y-47225702D01*
X26608699Y-47337947D01*
X26451127Y-47481593D01*
X26322632Y-47651746D01*
X26227596Y-47842605D01*
X26227596Y-47842607D01*
X26169244Y-48047689D01*
X26149571Y-48259999D01*
X26149571Y-48260000D01*
X26169244Y-48472310D01*
X26227596Y-48677392D01*
X26227596Y-48677394D01*
X26322632Y-48868253D01*
X26438054Y-49021095D01*
X26451128Y-49038407D01*
X26608698Y-49182052D01*
X26789981Y-49294298D01*
X26988802Y-49371321D01*
X27185613Y-49408111D01*
X27247893Y-49439779D01*
X27283166Y-49500092D01*
X27280232Y-49569900D01*
X27240023Y-49627040D01*
X27185613Y-49651888D01*
X26988802Y-49688679D01*
X26988799Y-49688679D01*
X26988799Y-49688680D01*
X26789982Y-49765701D01*
X26789980Y-49765702D01*
X26608699Y-49877947D01*
X26451127Y-50021593D01*
X26322632Y-50191746D01*
X26227596Y-50382605D01*
X26227596Y-50382607D01*
X26169244Y-50587689D01*
X26149571Y-50799999D01*
X26149571Y-50800000D01*
X26169244Y-51012310D01*
X26227596Y-51217392D01*
X26227596Y-51217394D01*
X26322632Y-51408253D01*
X26410048Y-51524009D01*
X26451128Y-51578407D01*
X26608698Y-51722052D01*
X26789981Y-51834298D01*
X26988802Y-51911321D01*
X27185613Y-51948111D01*
X27247893Y-51979779D01*
X27283166Y-52040092D01*
X27280232Y-52109900D01*
X27240023Y-52167040D01*
X27185613Y-52191888D01*
X26988802Y-52228679D01*
X26988799Y-52228679D01*
X26988799Y-52228680D01*
X26789982Y-52305701D01*
X26789980Y-52305702D01*
X26608699Y-52417947D01*
X26451127Y-52561593D01*
X26322632Y-52731746D01*
X26227596Y-52922605D01*
X26227596Y-52922607D01*
X26172140Y-53117513D01*
X26169244Y-53127690D01*
X26149571Y-53340000D01*
X26169244Y-53552310D01*
X26215572Y-53715135D01*
X26227596Y-53757392D01*
X26227596Y-53757394D01*
X26322632Y-53948253D01*
X26426250Y-54085464D01*
X26451128Y-54118407D01*
X26608698Y-54262052D01*
X26789981Y-54374298D01*
X26988802Y-54451321D01*
X27185613Y-54488111D01*
X27247893Y-54519779D01*
X27283166Y-54580092D01*
X27280232Y-54649900D01*
X27240023Y-54707040D01*
X27185613Y-54731888D01*
X26988802Y-54768679D01*
X26988799Y-54768679D01*
X26988799Y-54768680D01*
X26789982Y-54845701D01*
X26789980Y-54845702D01*
X26608699Y-54957947D01*
X26451127Y-55101593D01*
X26322632Y-55271746D01*
X26227596Y-55462605D01*
X26227596Y-55462607D01*
X26169244Y-55667689D01*
X26149571Y-55879999D01*
X26149571Y-55880000D01*
X26169244Y-56092310D01*
X26227596Y-56297392D01*
X26227596Y-56297394D01*
X26322632Y-56488253D01*
X26426250Y-56625464D01*
X26451128Y-56658407D01*
X26608698Y-56802052D01*
X26789981Y-56914298D01*
X26988802Y-56991321D01*
X27185613Y-57028111D01*
X27247893Y-57059779D01*
X27283166Y-57120092D01*
X27280232Y-57189900D01*
X27240023Y-57247040D01*
X27185613Y-57271888D01*
X26988802Y-57308679D01*
X26988799Y-57308679D01*
X26988799Y-57308680D01*
X26789982Y-57385701D01*
X26789980Y-57385702D01*
X26608699Y-57497947D01*
X26451127Y-57641593D01*
X26322632Y-57811746D01*
X26227596Y-58002605D01*
X26227596Y-58002607D01*
X26169244Y-58207689D01*
X26149571Y-58419999D01*
X26149571Y-58420000D01*
X26169244Y-58632310D01*
X26227596Y-58837392D01*
X26227596Y-58837394D01*
X26322632Y-59028253D01*
X26415364Y-59151048D01*
X26451128Y-59198407D01*
X26608698Y-59342052D01*
X26789981Y-59454298D01*
X26988802Y-59531321D01*
X27185613Y-59568111D01*
X27247893Y-59599779D01*
X27283166Y-59660092D01*
X27280232Y-59729900D01*
X27240023Y-59787040D01*
X27185613Y-59811888D01*
X26988802Y-59848679D01*
X26988799Y-59848679D01*
X26988799Y-59848680D01*
X26789982Y-59925701D01*
X26789980Y-59925702D01*
X26608699Y-60037947D01*
X26451127Y-60181593D01*
X26322632Y-60351746D01*
X26227596Y-60542605D01*
X26227596Y-60542607D01*
X26169244Y-60747689D01*
X26149571Y-60959999D01*
X26149571Y-60960000D01*
X26169244Y-61172310D01*
X26227596Y-61377392D01*
X26227596Y-61377394D01*
X26322632Y-61568253D01*
X26426250Y-61705464D01*
X26451128Y-61738407D01*
X26608698Y-61882052D01*
X26789981Y-61994298D01*
X26988802Y-62071321D01*
X27185613Y-62108111D01*
X27247893Y-62139779D01*
X27283166Y-62200092D01*
X27280232Y-62269900D01*
X27240023Y-62327040D01*
X27185613Y-62351888D01*
X26988802Y-62388679D01*
X26988799Y-62388679D01*
X26988799Y-62388680D01*
X26789982Y-62465701D01*
X26789980Y-62465702D01*
X26608699Y-62577947D01*
X26451127Y-62721593D01*
X26322632Y-62891746D01*
X26227596Y-63082605D01*
X26227596Y-63082607D01*
X26169244Y-63287689D01*
X26149571Y-63499999D01*
X26149571Y-63500000D01*
X26169244Y-63712310D01*
X26227596Y-63917392D01*
X26227596Y-63917394D01*
X26322632Y-64108253D01*
X26426250Y-64245464D01*
X26451128Y-64278407D01*
X26608698Y-64422052D01*
X26789981Y-64534298D01*
X26988802Y-64611321D01*
X27185613Y-64648111D01*
X27247893Y-64679779D01*
X27283166Y-64740092D01*
X27280232Y-64809900D01*
X27240023Y-64867040D01*
X27185613Y-64891888D01*
X26988802Y-64928679D01*
X26988799Y-64928679D01*
X26988799Y-64928680D01*
X26789982Y-65005701D01*
X26789980Y-65005702D01*
X26608699Y-65117947D01*
X26451127Y-65261593D01*
X26322632Y-65431746D01*
X26227596Y-65622605D01*
X26227596Y-65622607D01*
X26169244Y-65827689D01*
X26149571Y-66039999D01*
X26149571Y-66040000D01*
X26169244Y-66252310D01*
X26227596Y-66457392D01*
X26227596Y-66457394D01*
X26322632Y-66648253D01*
X26426250Y-66785464D01*
X26451128Y-66818407D01*
X26608698Y-66962052D01*
X26789981Y-67074298D01*
X26988802Y-67151321D01*
X27185613Y-67188111D01*
X27247893Y-67219779D01*
X27283166Y-67280092D01*
X27280232Y-67349900D01*
X27240023Y-67407040D01*
X27185613Y-67431888D01*
X26988802Y-67468679D01*
X26988799Y-67468679D01*
X26988799Y-67468680D01*
X26789982Y-67545701D01*
X26789980Y-67545702D01*
X26608699Y-67657947D01*
X26451127Y-67801593D01*
X26322632Y-67971746D01*
X26227596Y-68162605D01*
X26227596Y-68162607D01*
X26169244Y-68367689D01*
X26149571Y-68579999D01*
X26149571Y-68580000D01*
X26169244Y-68792310D01*
X26227596Y-68997392D01*
X26227596Y-68997394D01*
X26322632Y-69188253D01*
X26426250Y-69325464D01*
X26451128Y-69358407D01*
X26608698Y-69502052D01*
X26789981Y-69614298D01*
X26988802Y-69691321D01*
X27185613Y-69728111D01*
X27247893Y-69759779D01*
X27283166Y-69820092D01*
X27280232Y-69889900D01*
X27240023Y-69947040D01*
X27185613Y-69971888D01*
X26988802Y-70008679D01*
X26988799Y-70008679D01*
X26988799Y-70008680D01*
X26789982Y-70085701D01*
X26789980Y-70085702D01*
X26608699Y-70197947D01*
X26451127Y-70341593D01*
X26322632Y-70511746D01*
X26227596Y-70702605D01*
X26227596Y-70702607D01*
X26169244Y-70907689D01*
X26149571Y-71119999D01*
X26149571Y-71120000D01*
X26169244Y-71332310D01*
X26227596Y-71537392D01*
X26227596Y-71537394D01*
X26322632Y-71728253D01*
X26415364Y-71851048D01*
X26451128Y-71898407D01*
X26608698Y-72042052D01*
X26789981Y-72154298D01*
X26988802Y-72231321D01*
X27185613Y-72268111D01*
X27247893Y-72299779D01*
X27283166Y-72360092D01*
X27280232Y-72429900D01*
X27240023Y-72487040D01*
X27185613Y-72511888D01*
X26988802Y-72548679D01*
X26988799Y-72548679D01*
X26988799Y-72548680D01*
X26789982Y-72625701D01*
X26789980Y-72625702D01*
X26608699Y-72737947D01*
X26451127Y-72881593D01*
X26322632Y-73051746D01*
X26227596Y-73242605D01*
X26227596Y-73242607D01*
X26169244Y-73447689D01*
X26149571Y-73659999D01*
X26149571Y-73660000D01*
X26169244Y-73872310D01*
X26227596Y-74077392D01*
X26227596Y-74077394D01*
X26322632Y-74268253D01*
X26426250Y-74405464D01*
X26451128Y-74438407D01*
X26608698Y-74582052D01*
X26789981Y-74694298D01*
X26988802Y-74771321D01*
X27185613Y-74808111D01*
X27247893Y-74839779D01*
X27283166Y-74900092D01*
X27280232Y-74969900D01*
X27240023Y-75027040D01*
X27185613Y-75051888D01*
X26988802Y-75088679D01*
X26988799Y-75088679D01*
X26988799Y-75088680D01*
X26789982Y-75165701D01*
X26789980Y-75165702D01*
X26608699Y-75277947D01*
X26451127Y-75421593D01*
X26322632Y-75591746D01*
X26227596Y-75782605D01*
X26227596Y-75782607D01*
X26169244Y-75987689D01*
X26149571Y-76199999D01*
X26149571Y-76200000D01*
X26169244Y-76412310D01*
X26227596Y-76617392D01*
X26227596Y-76617394D01*
X26322632Y-76808253D01*
X26415364Y-76931048D01*
X26451128Y-76978407D01*
X26608698Y-77122052D01*
X26789981Y-77234298D01*
X26988802Y-77311321D01*
X27185613Y-77348111D01*
X27247893Y-77379779D01*
X27283166Y-77440092D01*
X27280232Y-77509900D01*
X27240023Y-77567040D01*
X27185613Y-77591888D01*
X26988802Y-77628679D01*
X26988799Y-77628679D01*
X26988799Y-77628680D01*
X26789982Y-77705701D01*
X26789980Y-77705702D01*
X26608699Y-77817947D01*
X26451127Y-77961593D01*
X26322632Y-78131746D01*
X26227596Y-78322605D01*
X26227596Y-78322607D01*
X26172140Y-78517513D01*
X26169244Y-78527690D01*
X26149571Y-78740000D01*
X26169244Y-78952310D01*
X26223035Y-79141364D01*
X26227596Y-79157392D01*
X26227596Y-79157394D01*
X26322632Y-79348253D01*
X26426250Y-79485464D01*
X26451128Y-79518407D01*
X26608698Y-79662052D01*
X26789981Y-79774298D01*
X26988802Y-79851321D01*
X27185613Y-79888111D01*
X27247893Y-79919779D01*
X27283166Y-79980092D01*
X27280232Y-80049900D01*
X27240023Y-80107040D01*
X27185613Y-80131888D01*
X26988802Y-80168679D01*
X26988799Y-80168679D01*
X26988799Y-80168680D01*
X26789982Y-80245701D01*
X26789980Y-80245702D01*
X26608699Y-80357947D01*
X26451127Y-80501593D01*
X26322632Y-80671746D01*
X26227596Y-80862605D01*
X26227596Y-80862607D01*
X26180063Y-81029667D01*
X26169244Y-81067690D01*
X26149571Y-81280000D01*
X26169244Y-81492310D01*
X26223035Y-81681364D01*
X26227596Y-81697392D01*
X26227596Y-81697394D01*
X26322632Y-81888253D01*
X26322634Y-81888255D01*
X26451128Y-82058407D01*
X26608698Y-82202052D01*
X26789981Y-82314298D01*
X26988802Y-82391321D01*
X27185613Y-82428111D01*
X27247893Y-82459779D01*
X27283166Y-82520092D01*
X27280232Y-82589900D01*
X27240023Y-82647040D01*
X27185613Y-82671888D01*
X26988802Y-82708679D01*
X26988799Y-82708679D01*
X26988799Y-82708680D01*
X26789982Y-82785701D01*
X26789980Y-82785702D01*
X26608699Y-82897947D01*
X26451127Y-83041593D01*
X26322632Y-83211746D01*
X26227596Y-83402605D01*
X26227596Y-83402607D01*
X26180063Y-83569667D01*
X26169244Y-83607690D01*
X26149571Y-83820000D01*
X26169244Y-84032310D01*
X26223035Y-84221364D01*
X26227596Y-84237392D01*
X26227596Y-84237394D01*
X26322632Y-84428253D01*
X26322634Y-84428255D01*
X26451128Y-84598407D01*
X26608698Y-84742052D01*
X26789981Y-84854298D01*
X26988802Y-84931321D01*
X27185613Y-84968111D01*
X27247893Y-84999779D01*
X27283166Y-85060092D01*
X27280232Y-85129900D01*
X27240023Y-85187040D01*
X27185613Y-85211888D01*
X26988802Y-85248679D01*
X26988799Y-85248679D01*
X26988799Y-85248680D01*
X26789982Y-85325701D01*
X26789980Y-85325702D01*
X26608699Y-85437947D01*
X26451127Y-85581593D01*
X26322632Y-85751746D01*
X26227596Y-85942605D01*
X26227596Y-85942607D01*
X26182773Y-86100143D01*
X26169244Y-86147690D01*
X26149571Y-86360000D01*
X26169244Y-86572310D01*
X26223035Y-86761364D01*
X26227596Y-86777392D01*
X26227596Y-86777394D01*
X26322632Y-86968253D01*
X26410048Y-87084009D01*
X26451128Y-87138407D01*
X26608698Y-87282052D01*
X26789981Y-87394298D01*
X26988802Y-87471321D01*
X27185613Y-87508111D01*
X27247893Y-87539779D01*
X27283166Y-87600092D01*
X27280232Y-87669900D01*
X27240023Y-87727040D01*
X27185613Y-87751888D01*
X26988802Y-87788679D01*
X26988799Y-87788679D01*
X26988799Y-87788680D01*
X26789982Y-87865701D01*
X26789980Y-87865702D01*
X26608699Y-87977947D01*
X26451127Y-88121593D01*
X26322632Y-88291746D01*
X26227596Y-88482605D01*
X26227596Y-88482607D01*
X26172140Y-88677513D01*
X26169244Y-88687690D01*
X26149571Y-88900000D01*
X26169244Y-89112310D01*
X26223035Y-89301364D01*
X26227596Y-89317392D01*
X26227596Y-89317394D01*
X26322632Y-89508253D01*
X26415364Y-89631048D01*
X26451128Y-89678407D01*
X26608698Y-89822052D01*
X26789981Y-89934298D01*
X26988802Y-90011321D01*
X27185613Y-90048111D01*
X27247893Y-90079779D01*
X27283166Y-90140092D01*
X27280232Y-90209900D01*
X27240023Y-90267040D01*
X27185613Y-90291888D01*
X26988802Y-90328679D01*
X26988799Y-90328679D01*
X26988799Y-90328680D01*
X26789982Y-90405701D01*
X26789980Y-90405702D01*
X26608699Y-90517947D01*
X26451127Y-90661593D01*
X26322632Y-90831746D01*
X26227596Y-91022605D01*
X26227596Y-91022607D01*
X26172140Y-91217513D01*
X26169244Y-91227690D01*
X26149571Y-91440000D01*
X26169244Y-91652310D01*
X26212434Y-91804106D01*
X26227596Y-91857392D01*
X26227596Y-91857394D01*
X26322632Y-92048253D01*
X26415364Y-92171048D01*
X26451128Y-92218407D01*
X26608698Y-92362052D01*
X26789981Y-92474298D01*
X26988802Y-92551321D01*
X27185613Y-92588111D01*
X27247893Y-92619779D01*
X27283166Y-92680092D01*
X27280232Y-92749900D01*
X27240023Y-92807040D01*
X27185613Y-92831888D01*
X26988802Y-92868679D01*
X26988799Y-92868679D01*
X26988799Y-92868680D01*
X26789982Y-92945701D01*
X26789980Y-92945702D01*
X26608699Y-93057947D01*
X26451127Y-93201593D01*
X26322632Y-93371746D01*
X26227596Y-93562605D01*
X26227596Y-93562607D01*
X26172140Y-93757513D01*
X26169244Y-93767690D01*
X26149571Y-93980000D01*
X25700500Y-93980000D01*
X25700500Y-27940001D01*
X123154532Y-27940001D01*
X123174364Y-28166686D01*
X123174366Y-28166697D01*
X123233258Y-28386488D01*
X123233261Y-28386497D01*
X123329431Y-28592732D01*
X123329432Y-28592734D01*
X123459954Y-28779141D01*
X123620858Y-28940045D01*
X123620861Y-28940047D01*
X123807266Y-29070568D01*
X124013504Y-29166739D01*
X124233308Y-29225635D01*
X124403214Y-29240499D01*
X124403215Y-29240500D01*
X124403216Y-29240500D01*
X124516785Y-29240500D01*
X124516785Y-29240499D01*
X124686692Y-29225635D01*
X124906496Y-29166739D01*
X125112734Y-29070568D01*
X125299139Y-28940047D01*
X125460047Y-28779139D01*
X125590568Y-28592734D01*
X125686739Y-28386496D01*
X125745635Y-28166692D01*
X125765468Y-27940000D01*
X125745635Y-27713308D01*
X125686739Y-27493504D01*
X125590568Y-27287266D01*
X125460047Y-27100861D01*
X125460045Y-27100858D01*
X125299141Y-26939954D01*
X125112734Y-26809432D01*
X125112732Y-26809431D01*
X124906497Y-26713261D01*
X124906488Y-26713258D01*
X124686697Y-26654366D01*
X124686687Y-26654364D01*
X124516785Y-26639500D01*
X124516784Y-26639500D01*
X124403216Y-26639500D01*
X124403215Y-26639500D01*
X124233312Y-26654364D01*
X124233302Y-26654366D01*
X124013511Y-26713258D01*
X124013502Y-26713261D01*
X123807267Y-26809431D01*
X123807265Y-26809432D01*
X123620858Y-26939954D01*
X123459954Y-27100858D01*
X123329432Y-27287265D01*
X123329431Y-27287267D01*
X123233261Y-27493502D01*
X123233258Y-27493511D01*
X123174366Y-27713302D01*
X123174364Y-27713313D01*
X123154532Y-27939998D01*
X123154532Y-27940001D01*
X25700500Y-27940001D01*
X25700500Y-26406092D01*
X25701097Y-26393938D01*
X25703242Y-26372156D01*
X25712744Y-26275680D01*
X25717483Y-26251856D01*
X25750203Y-26143990D01*
X25759499Y-26121549D01*
X25812632Y-26022144D01*
X25826133Y-26001940D01*
X25897635Y-25914814D01*
X25914814Y-25897635D01*
X26001942Y-25826131D01*
X26022144Y-25812632D01*
X26081325Y-25781000D01*
X126318675Y-25781000D01*
X126377849Y-25812629D01*
G37*
G04 #@! TD.AperFunction*
M02*
