M48
; DRILL file {KiCad 7.0.10} date Wednesday, January 03, 2024 at 11:20:45 am
; FORMAT={-:-/ absolute / metric / decimal}
; #@! TF.CreationDate,2024-01-03T11:20:45+01:00
; #@! TF.GenerationSoftware,Kicad,Pcbnew,7.0.10
; #@! TF.FileFunction,Plated,1,4,PTH
FMAT,2
METRIC
; #@! TA.AperFunction,Plated,PTH,ViaDrill
T1C0.300
; #@! TA.AperFunction,Plated,PTH,ViaDrill
T2C0.500
; #@! TA.AperFunction,Plated,PTH,ComponentDrill
T3C1.000
%
G90
G05
T1
X47.625Y-50.165
X47.625Y-97.155
X48.133Y-67.945
X68.58Y-61.595
X68.58Y-79.375
X68.58Y-97.79
X69.85Y-96.52
X73.025Y-98.425
X82.55Y-52.705
X82.55Y-53.975
X82.55Y-55.245
X82.55Y-56.515
X82.55Y-57.785
X82.55Y-59.055
X82.55Y-60.325
X82.55Y-61.595
X82.55Y-70.485
X82.55Y-71.755
X82.55Y-73.025
X82.55Y-74.295
X82.55Y-75.565
X82.55Y-76.835
X82.55Y-78.105
X82.55Y-79.375
X82.55Y-88.265
X82.55Y-89.535
X82.55Y-89.535
X82.55Y-90.805
X82.55Y-92.075
X82.55Y-92.075
X82.55Y-93.345
X82.55Y-94.615
X82.55Y-94.615
X82.55Y-95.885
X82.55Y-97.155
X83.82Y-62.23
X83.82Y-80.01
X83.82Y-97.79
X84.582Y-96.52
X94.234Y-66.04
X94.234Y-67.945
X94.234Y-80.01
X94.234Y-98.425
X96.266Y-58.42
X96.266Y-67.945
X96.266Y-72.39
X96.266Y-76.2
X96.266Y-77.47
X96.266Y-80.01
X99.695Y-74.93
X110.49Y-60.96
X111.125Y-54.61
X111.76Y-57.15
X112.395Y-62.23
X113.03Y-64.77
X113.665Y-67.31
X114.3Y-69.85
X114.3Y-76.2
X114.3Y-78.74
X114.3Y-81.28
X114.3Y-83.82
X114.3Y-86.36
X114.3Y-88.9
X114.3Y-91.44
X114.3Y-93.98
X120.65Y-76.2
X120.65Y-78.74
X120.65Y-81.28
X120.65Y-83.82
X120.65Y-86.36
X120.65Y-93.98
T2
X30.099Y-27.695
T3
X27.305Y-33.02
X27.305Y-35.56
X27.305Y-38.1
X27.305Y-40.64
X27.305Y-43.18
X27.305Y-45.72
X27.305Y-48.26
X27.305Y-50.8
X27.305Y-53.34
X27.305Y-55.88
X27.305Y-58.42
X27.305Y-60.96
X27.305Y-63.5
X27.305Y-66.04
X27.305Y-68.58
X27.305Y-71.12
X27.305Y-73.66
X27.305Y-76.2
X27.305Y-78.74
X27.305Y-81.28
X27.305Y-83.82
X27.305Y-86.36
X27.305Y-88.9
X27.305Y-91.44
X27.305Y-93.98
X29.845Y-33.02
X29.845Y-35.56
X29.845Y-38.1
X29.845Y-40.64
X29.845Y-43.18
X29.845Y-45.72
X29.845Y-48.26
X29.845Y-50.8
X29.845Y-53.34
X29.845Y-55.88
X29.845Y-58.42
X29.845Y-60.96
X29.845Y-63.5
X29.845Y-66.04
X29.845Y-68.58
X29.845Y-71.12
X29.845Y-73.66
X29.845Y-76.2
X29.845Y-78.74
X29.845Y-81.28
X29.845Y-83.82
X29.845Y-86.36
X29.845Y-88.9
X29.845Y-91.44
X29.845Y-93.98
X62.23Y-51.435
X62.23Y-53.975
X62.23Y-56.515
X62.23Y-59.055
X62.23Y-69.215
X62.23Y-71.755
X62.23Y-74.295
X62.23Y-76.835
X62.23Y-86.995
X62.23Y-89.535
X62.23Y-92.075
X62.23Y-94.615
X64.77Y-51.435
X64.77Y-53.975
X64.77Y-56.515
X64.77Y-59.055
X64.77Y-69.215
X64.77Y-71.755
X64.77Y-74.295
X64.77Y-76.835
X64.77Y-86.995
X64.77Y-89.535
X64.77Y-92.075
X64.77Y-94.615
X123.19Y-54.61
X123.19Y-57.15
X123.19Y-59.69
X123.19Y-62.23
X123.19Y-64.77
X123.19Y-67.31
X123.19Y-69.85
X123.19Y-72.39
M30
