G04 #@! TF.GenerationSoftware,KiCad,Pcbnew,7.0.10*
G04 #@! TF.CreationDate,2024-01-03T11:20:40+01:00*
G04 #@! TF.ProjectId,MAR,4d41522e-6b69-4636-9164-5f7063625858,rev?*
G04 #@! TF.SameCoordinates,Original*
G04 #@! TF.FileFunction,Copper,L1,Top*
G04 #@! TF.FilePolarity,Positive*
%FSLAX46Y46*%
G04 Gerber Fmt 4.6, Leading zero omitted, Abs format (unit mm)*
G04 Created by KiCad (PCBNEW 7.0.10) date 2024-01-03 11:20:40*
%MOMM*%
%LPD*%
G01*
G04 APERTURE LIST*
G04 Aperture macros list*
%AMRoundRect*
0 Rectangle with rounded corners*
0 $1 Rounding radius*
0 $2 $3 $4 $5 $6 $7 $8 $9 X,Y pos of 4 corners*
0 Add a 4 corners polygon primitive as box body*
4,1,4,$2,$3,$4,$5,$6,$7,$8,$9,$2,$3,0*
0 Add four circle primitives for the rounded corners*
1,1,$1+$1,$2,$3*
1,1,$1+$1,$4,$5*
1,1,$1+$1,$6,$7*
1,1,$1+$1,$8,$9*
0 Add four rect primitives between the rounded corners*
20,1,$1+$1,$2,$3,$4,$5,0*
20,1,$1+$1,$4,$5,$6,$7,0*
20,1,$1+$1,$6,$7,$8,$9,0*
20,1,$1+$1,$8,$9,$2,$3,0*%
G04 Aperture macros list end*
G04 #@! TA.AperFunction,SMDPad,CuDef*
%ADD10RoundRect,0.150000X-0.875000X-0.150000X0.875000X-0.150000X0.875000X0.150000X-0.875000X0.150000X0*%
G04 #@! TD*
G04 #@! TA.AperFunction,SMDPad,CuDef*
%ADD11RoundRect,0.250000X-0.350000X-0.450000X0.350000X-0.450000X0.350000X0.450000X-0.350000X0.450000X0*%
G04 #@! TD*
G04 #@! TA.AperFunction,SMDPad,CuDef*
%ADD12RoundRect,0.250000X-0.325000X-0.450000X0.325000X-0.450000X0.325000X0.450000X-0.325000X0.450000X0*%
G04 #@! TD*
G04 #@! TA.AperFunction,SMDPad,CuDef*
%ADD13RoundRect,0.150000X-0.825000X-0.150000X0.825000X-0.150000X0.825000X0.150000X-0.825000X0.150000X0*%
G04 #@! TD*
G04 #@! TA.AperFunction,SMDPad,CuDef*
%ADD14RoundRect,0.250000X0.337500X0.475000X-0.337500X0.475000X-0.337500X-0.475000X0.337500X-0.475000X0*%
G04 #@! TD*
G04 #@! TA.AperFunction,SMDPad,CuDef*
%ADD15RoundRect,0.250000X-0.450000X0.325000X-0.450000X-0.325000X0.450000X-0.325000X0.450000X0.325000X0*%
G04 #@! TD*
G04 #@! TA.AperFunction,ComponentPad*
%ADD16R,1.700000X1.700000*%
G04 #@! TD*
G04 #@! TA.AperFunction,ComponentPad*
%ADD17O,1.700000X1.700000*%
G04 #@! TD*
G04 #@! TA.AperFunction,SMDPad,CuDef*
%ADD18RoundRect,0.250000X-0.450000X0.350000X-0.450000X-0.350000X0.450000X-0.350000X0.450000X0.350000X0*%
G04 #@! TD*
G04 #@! TA.AperFunction,SMDPad,CuDef*
%ADD19RoundRect,0.250000X-0.475000X0.337500X-0.475000X-0.337500X0.475000X-0.337500X0.475000X0.337500X0*%
G04 #@! TD*
G04 #@! TA.AperFunction,SMDPad,CuDef*
%ADD20RoundRect,0.250000X-0.412500X-0.650000X0.412500X-0.650000X0.412500X0.650000X-0.412500X0.650000X0*%
G04 #@! TD*
G04 #@! TA.AperFunction,ViaPad*
%ADD21C,0.600000*%
G04 #@! TD*
G04 #@! TA.AperFunction,ViaPad*
%ADD22C,0.900000*%
G04 #@! TD*
G04 #@! TA.AperFunction,Conductor*
%ADD23C,0.400000*%
G04 #@! TD*
G04 #@! TA.AperFunction,Conductor*
%ADD24C,0.127000*%
G04 #@! TD*
G04 #@! TA.AperFunction,Conductor*
%ADD25C,0.406400*%
G04 #@! TD*
G04 #@! TA.AperFunction,Conductor*
%ADD26C,1.500000*%
G04 #@! TD*
G04 APERTURE END LIST*
D10*
X71550000Y-67945000D03*
X71550000Y-69215000D03*
X71550000Y-70485000D03*
X71550000Y-71755000D03*
X71550000Y-73025000D03*
X71550000Y-74295000D03*
X71550000Y-75565000D03*
X71550000Y-76835000D03*
X71550000Y-78105000D03*
X71550000Y-79375000D03*
X80850000Y-79375000D03*
X80850000Y-78105000D03*
X80850000Y-76835000D03*
X80850000Y-75565000D03*
X80850000Y-74295000D03*
X80850000Y-73025000D03*
X80850000Y-71755000D03*
X80850000Y-70485000D03*
X80850000Y-69215000D03*
X80850000Y-67945000D03*
D11*
X115840000Y-81280000D03*
X117840000Y-81280000D03*
D12*
X119625000Y-83820000D03*
X121675000Y-83820000D03*
D13*
X92775000Y-58420000D03*
X92775000Y-59690000D03*
X92775000Y-60960000D03*
X92775000Y-62230000D03*
X92775000Y-63500000D03*
X92775000Y-64770000D03*
X92775000Y-66040000D03*
X97725000Y-66040000D03*
X97725000Y-64770000D03*
X97725000Y-63500000D03*
X97725000Y-62230000D03*
X97725000Y-60960000D03*
X97725000Y-59690000D03*
X97725000Y-58420000D03*
D11*
X115840000Y-88900000D03*
X117840000Y-88900000D03*
D12*
X119625000Y-86360000D03*
X121675000Y-86360000D03*
X119625000Y-78740000D03*
X121675000Y-78740000D03*
X119625000Y-88900000D03*
X121675000Y-88900000D03*
D14*
X96266000Y-83185000D03*
X94191000Y-83185000D03*
D10*
X71550000Y-85725000D03*
X71550000Y-86995000D03*
X71550000Y-88265000D03*
X71550000Y-89535000D03*
X71550000Y-90805000D03*
X71550000Y-92075000D03*
X71550000Y-93345000D03*
X71550000Y-94615000D03*
X71550000Y-95885000D03*
X71550000Y-97155000D03*
X80850000Y-97155000D03*
X80850000Y-95885000D03*
X80850000Y-94615000D03*
X80850000Y-93345000D03*
X80850000Y-92075000D03*
X80850000Y-90805000D03*
X80850000Y-89535000D03*
X80850000Y-88265000D03*
X80850000Y-86995000D03*
X80850000Y-85725000D03*
D15*
X26797000Y-26661000D03*
X26797000Y-28711000D03*
D16*
X62230000Y-69215000D03*
D17*
X64770000Y-69215000D03*
X62230000Y-71755000D03*
X64770000Y-71755000D03*
X62230000Y-74295000D03*
X64770000Y-74295000D03*
X62230000Y-76835000D03*
X64770000Y-76835000D03*
D10*
X71550000Y-50165000D03*
X71550000Y-51435000D03*
X71550000Y-52705000D03*
X71550000Y-53975000D03*
X71550000Y-55245000D03*
X71550000Y-56515000D03*
X71550000Y-57785000D03*
X71550000Y-59055000D03*
X71550000Y-60325000D03*
X71550000Y-61595000D03*
X80850000Y-61595000D03*
X80850000Y-60325000D03*
X80850000Y-59055000D03*
X80850000Y-57785000D03*
X80850000Y-56515000D03*
X80850000Y-55245000D03*
X80850000Y-53975000D03*
X80850000Y-52705000D03*
X80850000Y-51435000D03*
X80850000Y-50165000D03*
D11*
X115840000Y-78740000D03*
X117840000Y-78740000D03*
X115840000Y-91440000D03*
X117840000Y-91440000D03*
D10*
X46150000Y-50165000D03*
X46150000Y-51435000D03*
X46150000Y-52705000D03*
X46150000Y-53975000D03*
X46150000Y-55245000D03*
X46150000Y-56515000D03*
X46150000Y-57785000D03*
X46150000Y-59055000D03*
X46150000Y-60325000D03*
X46150000Y-61595000D03*
X55450000Y-61595000D03*
X55450000Y-60325000D03*
X55450000Y-59055000D03*
X55450000Y-57785000D03*
X55450000Y-56515000D03*
X55450000Y-55245000D03*
X55450000Y-53975000D03*
X55450000Y-52705000D03*
X55450000Y-51435000D03*
X55450000Y-50165000D03*
D18*
X28956000Y-26711000D03*
X28956000Y-28711000D03*
D12*
X119625000Y-93980000D03*
X121675000Y-93980000D03*
D14*
X51837500Y-82550000D03*
X49762500Y-82550000D03*
D16*
X62230000Y-86995000D03*
D17*
X64770000Y-86995000D03*
X62230000Y-89535000D03*
X64770000Y-89535000D03*
X62230000Y-92075000D03*
X64770000Y-92075000D03*
X62230000Y-94615000D03*
X64770000Y-94615000D03*
D14*
X77237500Y-64770000D03*
X75162500Y-64770000D03*
X77237500Y-82550000D03*
X75162500Y-82550000D03*
X51837500Y-64770000D03*
X49762500Y-64770000D03*
D10*
X46150000Y-85725000D03*
X46150000Y-86995000D03*
X46150000Y-88265000D03*
X46150000Y-89535000D03*
X46150000Y-90805000D03*
X46150000Y-92075000D03*
X46150000Y-93345000D03*
X46150000Y-94615000D03*
X46150000Y-95885000D03*
X46150000Y-97155000D03*
X55450000Y-97155000D03*
X55450000Y-95885000D03*
X55450000Y-94615000D03*
X55450000Y-93345000D03*
X55450000Y-92075000D03*
X55450000Y-90805000D03*
X55450000Y-89535000D03*
X55450000Y-88265000D03*
X55450000Y-86995000D03*
X55450000Y-85725000D03*
D16*
X62230000Y-51435000D03*
D17*
X64770000Y-51435000D03*
X62230000Y-53975000D03*
X64770000Y-53975000D03*
X62230000Y-56515000D03*
X64770000Y-56515000D03*
X62230000Y-59055000D03*
X64770000Y-59055000D03*
D13*
X92775000Y-72390000D03*
X92775000Y-73660000D03*
X92775000Y-74930000D03*
X92775000Y-76200000D03*
X92775000Y-77470000D03*
X92775000Y-78740000D03*
X92775000Y-80010000D03*
X97725000Y-80010000D03*
X97725000Y-78740000D03*
X97725000Y-77470000D03*
X97725000Y-76200000D03*
X97725000Y-74930000D03*
X97725000Y-73660000D03*
X97725000Y-72390000D03*
D14*
X96287500Y-69215000D03*
X94212500Y-69215000D03*
D10*
X46150000Y-67945000D03*
X46150000Y-69215000D03*
X46150000Y-70485000D03*
X46150000Y-71755000D03*
X46150000Y-73025000D03*
X46150000Y-74295000D03*
X46150000Y-75565000D03*
X46150000Y-76835000D03*
X46150000Y-78105000D03*
X46150000Y-79375000D03*
X55450000Y-79375000D03*
X55450000Y-78105000D03*
X55450000Y-76835000D03*
X55450000Y-75565000D03*
X55450000Y-74295000D03*
X55450000Y-73025000D03*
X55450000Y-71755000D03*
X55450000Y-70485000D03*
X55450000Y-69215000D03*
X55450000Y-67945000D03*
D11*
X115840000Y-93980000D03*
X117840000Y-93980000D03*
X115840000Y-86360000D03*
X117840000Y-86360000D03*
D19*
X31242000Y-26636000D03*
X31242000Y-28711000D03*
D20*
X28028500Y-97917000D03*
X31153500Y-97917000D03*
D12*
X119625000Y-81280000D03*
X121675000Y-81280000D03*
X119625000Y-76200000D03*
X121675000Y-76200000D03*
D11*
X115840000Y-76200000D03*
X117840000Y-76200000D03*
D12*
X119625000Y-91440000D03*
X121675000Y-91440000D03*
D11*
X115840000Y-83820000D03*
X117840000Y-83820000D03*
D16*
X29845000Y-33020000D03*
D17*
X27305000Y-33020000D03*
X29845000Y-35560000D03*
X27305000Y-35560000D03*
X29845000Y-38100000D03*
X27305000Y-38100000D03*
X29845000Y-40640000D03*
X27305000Y-40640000D03*
X29845000Y-43180000D03*
X27305000Y-43180000D03*
X29845000Y-45720000D03*
X27305000Y-45720000D03*
X29845000Y-48260000D03*
X27305000Y-48260000D03*
X29845000Y-50800000D03*
X27305000Y-50800000D03*
X29845000Y-53340000D03*
X27305000Y-53340000D03*
X29845000Y-55880000D03*
X27305000Y-55880000D03*
X29845000Y-58420000D03*
X27305000Y-58420000D03*
X29845000Y-60960000D03*
X27305000Y-60960000D03*
X29845000Y-63500000D03*
X27305000Y-63500000D03*
X29845000Y-66040000D03*
X27305000Y-66040000D03*
X29845000Y-68580000D03*
X27305000Y-68580000D03*
X29845000Y-71120000D03*
X27305000Y-71120000D03*
X29845000Y-73660000D03*
X27305000Y-73660000D03*
X29845000Y-76200000D03*
X27305000Y-76200000D03*
X29845000Y-78740000D03*
X27305000Y-78740000D03*
X29845000Y-81280000D03*
X27305000Y-81280000D03*
X29845000Y-83820000D03*
X27305000Y-83820000D03*
X29845000Y-86360000D03*
X27305000Y-86360000D03*
X29845000Y-88900000D03*
X27305000Y-88900000D03*
X29845000Y-91440000D03*
X27305000Y-91440000D03*
X29845000Y-93980000D03*
X27305000Y-93980000D03*
D16*
X123190000Y-54610000D03*
D17*
X123190000Y-57150000D03*
X123190000Y-59690000D03*
X123190000Y-62230000D03*
X123190000Y-64770000D03*
X123190000Y-67310000D03*
X123190000Y-69850000D03*
X123190000Y-72390000D03*
D21*
X48133000Y-67945000D03*
X47625000Y-50165000D03*
X96266000Y-72390000D03*
X96266000Y-58420000D03*
X96266000Y-67945000D03*
X96266000Y-80010000D03*
X96266000Y-77470000D03*
X96266000Y-76200000D03*
X120650000Y-81280000D03*
X94234000Y-66040000D03*
D22*
X30099000Y-27695000D03*
D21*
X120650000Y-86360000D03*
X120650000Y-76200000D03*
X120650000Y-93980000D03*
X120650000Y-78740000D03*
X47625000Y-97155000D03*
X94234000Y-67945000D03*
X73025000Y-98425000D03*
X94234000Y-98425000D03*
X94234000Y-80010000D03*
X120650000Y-83820000D03*
X82550000Y-53975000D03*
X82550000Y-52705000D03*
X82550000Y-56515000D03*
X82550000Y-55245000D03*
X82550000Y-59055000D03*
X82550000Y-57785000D03*
X82550000Y-61595000D03*
X82550000Y-60325000D03*
X82550000Y-71755000D03*
X82550000Y-70485000D03*
X82550000Y-74295000D03*
X82550000Y-73025000D03*
X82550000Y-76835000D03*
X82550000Y-75565000D03*
X82550000Y-79375000D03*
X82550000Y-78105000D03*
X82550000Y-89535000D03*
X82550000Y-89535000D03*
X82550000Y-88265000D03*
X82550000Y-92075000D03*
X82550000Y-92075000D03*
X82550000Y-90805000D03*
X82550000Y-94615000D03*
X82550000Y-94615000D03*
X82550000Y-93345000D03*
X82550000Y-97155000D03*
X82550000Y-95885000D03*
X114300000Y-93980000D03*
X69850000Y-96520000D03*
X99695000Y-74930000D03*
X84582000Y-96520000D03*
X111125000Y-54610000D03*
X114300000Y-88900000D03*
X114300000Y-86360000D03*
X68580000Y-61595000D03*
X68580000Y-97790000D03*
X111760000Y-57150000D03*
X83820000Y-80010000D03*
X83820000Y-97790000D03*
X68580000Y-79375000D03*
X83820000Y-62230000D03*
X112395000Y-62230000D03*
X114300000Y-83820000D03*
X113030000Y-64770000D03*
X114300000Y-81280000D03*
X113665000Y-67310000D03*
X114300000Y-78740000D03*
X114300000Y-76200000D03*
X114300000Y-69850000D03*
X114300000Y-91440000D03*
X110490000Y-60960000D03*
D23*
X47625000Y-67945000D02*
X48133000Y-67945000D01*
X26527000Y-97917000D02*
X26400000Y-98044000D01*
X79375000Y-82550000D02*
X79375000Y-67945000D01*
D24*
X57023000Y-50165000D02*
X55323000Y-50165000D01*
D23*
X96266000Y-99568000D02*
X96393000Y-99695000D01*
D24*
X71550000Y-67945000D02*
X69850000Y-67945000D01*
X69850000Y-67945000D02*
X69215000Y-67310000D01*
X69215000Y-67310000D02*
X57785000Y-67310000D01*
X31242000Y-26500000D02*
X29031000Y-26500000D01*
D23*
X51837500Y-82550000D02*
X53975000Y-82550000D01*
D25*
X31242000Y-26500000D02*
X32723000Y-26500000D01*
D24*
X57658000Y-49530000D02*
X57023000Y-50165000D01*
D23*
X97725000Y-58420000D02*
X96266000Y-58420000D01*
D24*
X71423000Y-50165000D02*
X69723000Y-50165000D01*
D23*
X96287500Y-67966500D02*
X96266000Y-67945000D01*
D24*
X96266000Y-77470000D02*
X97725000Y-77470000D01*
D23*
X79375000Y-50165000D02*
X80850000Y-50165000D01*
X96266000Y-80010000D02*
X96266000Y-99568000D01*
X28028500Y-97917000D02*
X26527000Y-97917000D01*
D26*
X27305000Y-93980000D02*
X26400000Y-94885000D01*
D23*
X79375000Y-85725000D02*
X79375000Y-100330000D01*
X53975000Y-85725000D02*
X53975000Y-100330000D01*
D24*
X69850000Y-85725000D02*
X69215000Y-85090000D01*
D26*
X26400000Y-94885000D02*
X26400000Y-98044000D01*
D24*
X29031000Y-26500000D02*
X28956000Y-26575000D01*
D23*
X79375000Y-67945000D02*
X79375000Y-64770000D01*
D26*
X26400000Y-98044000D02*
X26400000Y-98695000D01*
D23*
X55450000Y-85725000D02*
X53975000Y-85725000D01*
D24*
X57785000Y-67310000D02*
X57150000Y-67945000D01*
X57150000Y-85725000D02*
X55450000Y-85725000D01*
X71550000Y-85725000D02*
X69850000Y-85725000D01*
D23*
X77237500Y-82550000D02*
X79375000Y-82550000D01*
X77237500Y-64770000D02*
X79375000Y-64770000D01*
D24*
X121675000Y-91440000D02*
X125730000Y-91440000D01*
D26*
X26400000Y-98695000D02*
X26400000Y-100441000D01*
D23*
X79375000Y-64770000D02*
X79375000Y-50165000D01*
D24*
X69088000Y-49530000D02*
X57658000Y-49530000D01*
X57785000Y-85090000D02*
X57150000Y-85725000D01*
X69723000Y-50165000D02*
X69088000Y-49530000D01*
D23*
X53975000Y-64770000D02*
X53975000Y-50165000D01*
X79375000Y-85725000D02*
X79375000Y-82550000D01*
X96266000Y-72390000D02*
X97725000Y-72390000D01*
D24*
X69215000Y-85090000D02*
X57785000Y-85090000D01*
D23*
X55450000Y-67945000D02*
X53975000Y-67945000D01*
X80850000Y-67945000D02*
X79375000Y-67945000D01*
X53975000Y-82550000D02*
X53975000Y-67945000D01*
X80850000Y-85725000D02*
X79375000Y-85725000D01*
D24*
X92775000Y-76200000D02*
X96266000Y-76200000D01*
D23*
X53975000Y-67945000D02*
X53975000Y-64770000D01*
D24*
X57150000Y-67945000D02*
X55450000Y-67945000D01*
D23*
X53975000Y-85725000D02*
X53975000Y-82550000D01*
X53975000Y-50165000D02*
X55450000Y-50165000D01*
D24*
X121675000Y-88900000D02*
X125730000Y-88900000D01*
D23*
X51837500Y-64770000D02*
X53975000Y-64770000D01*
X96287500Y-69215000D02*
X96287500Y-67966500D01*
X47625000Y-85725000D02*
X46150000Y-85725000D01*
X29845000Y-93980000D02*
X29845000Y-97917000D01*
D24*
X119625000Y-86360000D02*
X120650000Y-86360000D01*
X90805000Y-58420000D02*
X90805000Y-60960000D01*
X119625000Y-76200000D02*
X120650000Y-76200000D01*
D23*
X49762500Y-64770000D02*
X47625000Y-64770000D01*
D24*
X119625000Y-83820000D02*
X120650000Y-83820000D01*
D25*
X31115000Y-28711000D02*
X30099000Y-27695000D01*
D23*
X47625000Y-85725000D02*
X47625000Y-82550000D01*
X75162500Y-64770000D02*
X73025000Y-64770000D01*
X29845000Y-97917000D02*
X31153500Y-97917000D01*
X46150000Y-97155000D02*
X47625000Y-97155000D01*
D24*
X90805000Y-63500000D02*
X90805000Y-66040000D01*
X99441000Y-64770000D02*
X97725000Y-64770000D01*
X92775000Y-58420000D02*
X90805000Y-58420000D01*
D23*
X73025000Y-61595000D02*
X73025000Y-50165000D01*
D24*
X94234000Y-64770000D02*
X94234000Y-66040000D01*
X26670000Y-26661000D02*
X26670000Y-27695000D01*
X119625000Y-78740000D02*
X120650000Y-78740000D01*
D23*
X73025000Y-79375000D02*
X73025000Y-67945000D01*
X73025000Y-61595000D02*
X71550000Y-61595000D01*
D24*
X119625000Y-93980000D02*
X120650000Y-93980000D01*
D23*
X75162500Y-82550000D02*
X73025000Y-82550000D01*
X94234000Y-80010000D02*
X92775000Y-80010000D01*
D24*
X29993500Y-94128500D02*
X29845000Y-93980000D01*
D23*
X73025000Y-97155000D02*
X73025000Y-98425000D01*
X92775000Y-66040000D02*
X94234000Y-66040000D01*
D24*
X90805000Y-66040000D02*
X92775000Y-66040000D01*
D23*
X73025000Y-67945000D02*
X71550000Y-67945000D01*
X73025000Y-64770000D02*
X73025000Y-61595000D01*
X47625000Y-64770000D02*
X47625000Y-61595000D01*
X73025000Y-79375000D02*
X71550000Y-79375000D01*
D24*
X97725000Y-62230000D02*
X99441000Y-62230000D01*
D23*
X73025000Y-97155000D02*
X73025000Y-85725000D01*
D24*
X92775000Y-63500000D02*
X90805000Y-63500000D01*
D23*
X47625000Y-50165000D02*
X46150000Y-50165000D01*
D24*
X97725000Y-64770000D02*
X94234000Y-64770000D01*
D23*
X47625000Y-79375000D02*
X46150000Y-79375000D01*
X47625000Y-61595000D02*
X46150000Y-61595000D01*
X47625000Y-61595000D02*
X47625000Y-50165000D01*
X94234000Y-80010000D02*
X94234000Y-98425000D01*
D24*
X119625000Y-81280000D02*
X120650000Y-81280000D01*
D23*
X49762500Y-82550000D02*
X47625000Y-82550000D01*
X47625000Y-79375000D02*
X47625000Y-67945000D01*
X94212500Y-69215000D02*
X94212500Y-67966500D01*
X47625000Y-97155000D02*
X47625000Y-85725000D01*
D24*
X26670000Y-27695000D02*
X30099000Y-27695000D01*
D23*
X73025000Y-50165000D02*
X71550000Y-50165000D01*
X94212500Y-67966500D02*
X94234000Y-67945000D01*
D24*
X99441000Y-62230000D02*
X99441000Y-64770000D01*
D23*
X73025000Y-85725000D02*
X73025000Y-82550000D01*
X47625000Y-67945000D02*
X46150000Y-67945000D01*
X47625000Y-82550000D02*
X47625000Y-79375000D01*
X73025000Y-82550000D02*
X73025000Y-79375000D01*
X47625000Y-67945000D02*
X47625000Y-64770000D01*
X73025000Y-67945000D02*
X73025000Y-64770000D01*
D24*
X31242000Y-28575000D02*
X31115000Y-28575000D01*
D23*
X71550000Y-97155000D02*
X73025000Y-97155000D01*
D24*
X90805000Y-60960000D02*
X90805000Y-63500000D01*
X26670000Y-26525000D02*
X26779000Y-26525000D01*
X92775000Y-60960000D02*
X90805000Y-60960000D01*
X28575000Y-62230000D02*
X31750000Y-62230000D01*
X42545000Y-51435000D02*
X46150000Y-51435000D01*
X31750000Y-62230000D02*
X42545000Y-51435000D01*
X27305000Y-63500000D02*
X28575000Y-62230000D01*
X29845000Y-63500000D02*
X31750000Y-63500000D01*
X42545000Y-52705000D02*
X46150000Y-52705000D01*
X31750000Y-63500000D02*
X42545000Y-52705000D01*
X27305000Y-66040000D02*
X28575000Y-64770000D01*
X28575000Y-64770000D02*
X31750000Y-64770000D01*
X31750000Y-64770000D02*
X42545000Y-53975000D01*
X42545000Y-53975000D02*
X46150000Y-53975000D01*
X29845000Y-66040000D02*
X31750000Y-66040000D01*
X31750000Y-66040000D02*
X42545000Y-55245000D01*
X42545000Y-55245000D02*
X46150000Y-55245000D01*
X28575000Y-67310000D02*
X31750000Y-67310000D01*
X31750000Y-67310000D02*
X42545000Y-56515000D01*
X42545000Y-56515000D02*
X46150000Y-56515000D01*
X27305000Y-68580000D02*
X28575000Y-67310000D01*
X31750000Y-68580000D02*
X42545000Y-57785000D01*
X42545000Y-57785000D02*
X46150000Y-57785000D01*
X29845000Y-68580000D02*
X31750000Y-68580000D01*
X31750000Y-69850000D02*
X42545000Y-59055000D01*
X42545000Y-59055000D02*
X46150000Y-59055000D01*
X28575000Y-69850000D02*
X31750000Y-69850000D01*
X27305000Y-71120000D02*
X28575000Y-69850000D01*
X42545000Y-60325000D02*
X46150000Y-60325000D01*
X31750000Y-71120000D02*
X42545000Y-60325000D01*
X29845000Y-71120000D02*
X31750000Y-71120000D01*
X34925000Y-69215000D02*
X46150000Y-69215000D01*
X31750000Y-72390000D02*
X34925000Y-69215000D01*
X27305000Y-73660000D02*
X28575000Y-72390000D01*
X28575000Y-72390000D02*
X31750000Y-72390000D01*
X31750000Y-73660000D02*
X34925000Y-70485000D01*
X34925000Y-70485000D02*
X46150000Y-70485000D01*
X29845000Y-73660000D02*
X31750000Y-73660000D01*
X28575000Y-74930000D02*
X31750000Y-74930000D01*
X31750000Y-74930000D02*
X34925000Y-71755000D01*
X27305000Y-76200000D02*
X28575000Y-74930000D01*
X34925000Y-71755000D02*
X46150000Y-71755000D01*
X31750000Y-76200000D02*
X34925000Y-73025000D01*
X29845000Y-76200000D02*
X31750000Y-76200000D01*
X34925000Y-73025000D02*
X46150000Y-73025000D01*
X31750000Y-77470000D02*
X34925000Y-74295000D01*
X27305000Y-78740000D02*
X28575000Y-77470000D01*
X28575000Y-77470000D02*
X31750000Y-77470000D01*
X34925000Y-74295000D02*
X46150000Y-74295000D01*
X34925000Y-75565000D02*
X46150000Y-75565000D01*
X29845000Y-78740000D02*
X31750000Y-78740000D01*
X31750000Y-78740000D02*
X34925000Y-75565000D01*
X27305000Y-81280000D02*
X28575000Y-80010000D01*
X34925000Y-76835000D02*
X46150000Y-76835000D01*
X28575000Y-80010000D02*
X31750000Y-80010000D01*
X31750000Y-80010000D02*
X34925000Y-76835000D01*
X29845000Y-81280000D02*
X31750000Y-81280000D01*
X34925000Y-78105000D02*
X46150000Y-78105000D01*
X31750000Y-81280000D02*
X34925000Y-78105000D01*
X28575000Y-82550000D02*
X31750000Y-82550000D01*
X27305000Y-83820000D02*
X28575000Y-82550000D01*
X36195000Y-86995000D02*
X46150000Y-86995000D01*
X31750000Y-82550000D02*
X36195000Y-86995000D01*
X36195000Y-88265000D02*
X46150000Y-88265000D01*
X29845000Y-83820000D02*
X31750000Y-83820000D01*
X31750000Y-83820000D02*
X36195000Y-88265000D01*
X31750000Y-85090000D02*
X36195000Y-89535000D01*
X36195000Y-89535000D02*
X46150000Y-89535000D01*
X28575000Y-85090000D02*
X31750000Y-85090000D01*
X27305000Y-86360000D02*
X28575000Y-85090000D01*
X31750000Y-86360000D02*
X36195000Y-90805000D01*
X29845000Y-86360000D02*
X31750000Y-86360000D01*
X36195000Y-90805000D02*
X46150000Y-90805000D01*
X28575000Y-87630000D02*
X31750000Y-87630000D01*
X36195000Y-92075000D02*
X46150000Y-92075000D01*
X27305000Y-88900000D02*
X28575000Y-87630000D01*
X31750000Y-87630000D02*
X36195000Y-92075000D01*
X36195000Y-93345000D02*
X46150000Y-93345000D01*
X31750000Y-88900000D02*
X36195000Y-93345000D01*
X29845000Y-88900000D02*
X31750000Y-88900000D01*
X36195000Y-94615000D02*
X46150000Y-94615000D01*
X27305000Y-91440000D02*
X28575000Y-90170000D01*
X31750000Y-90170000D02*
X36195000Y-94615000D01*
X28575000Y-90170000D02*
X31750000Y-90170000D01*
X31750000Y-91440000D02*
X36195000Y-95885000D01*
X36195000Y-95885000D02*
X46150000Y-95885000D01*
X29845000Y-91440000D02*
X31750000Y-91440000D01*
X69215000Y-51435000D02*
X67945000Y-50165000D01*
X63500000Y-50165000D02*
X62230000Y-51435000D01*
X71550000Y-51435000D02*
X69215000Y-51435000D01*
X67945000Y-50165000D02*
X63500000Y-50165000D01*
X55450000Y-51435000D02*
X62230000Y-51435000D01*
X67945000Y-51435000D02*
X64770000Y-51435000D01*
X62992000Y-52705000D02*
X64262000Y-51435000D01*
X55450000Y-52705000D02*
X62992000Y-52705000D01*
X71550000Y-52705000D02*
X69215000Y-52705000D01*
X69215000Y-52705000D02*
X67945000Y-51435000D01*
X64262000Y-51435000D02*
X64770000Y-51435000D01*
X80850000Y-53975000D02*
X82550000Y-53975000D01*
X80850000Y-52705000D02*
X82550000Y-52705000D01*
X80850000Y-56515000D02*
X82550000Y-56515000D01*
X80850000Y-55245000D02*
X82550000Y-55245000D01*
X80850000Y-59055000D02*
X82550000Y-59055000D01*
X80850000Y-57785000D02*
X82550000Y-57785000D01*
X80850000Y-61595000D02*
X82550000Y-61595000D01*
X80850000Y-60325000D02*
X82550000Y-60325000D01*
X80850000Y-71755000D02*
X82550000Y-71755000D01*
X80850000Y-70485000D02*
X82550000Y-70485000D01*
X80850000Y-74295000D02*
X82550000Y-74295000D01*
X80850000Y-73025000D02*
X82550000Y-73025000D01*
X80850000Y-76835000D02*
X82550000Y-76835000D01*
X80850000Y-75565000D02*
X82550000Y-75565000D01*
X80850000Y-79375000D02*
X82550000Y-79375000D01*
X80850000Y-78105000D02*
X82550000Y-78105000D01*
X80850000Y-89535000D02*
X82550000Y-89535000D01*
X80850000Y-89535000D02*
X82550000Y-89535000D01*
X80850000Y-88265000D02*
X82550000Y-88265000D01*
X80850000Y-92075000D02*
X82550000Y-92075000D01*
X80850000Y-92075000D02*
X82550000Y-92075000D01*
X80850000Y-90805000D02*
X82550000Y-90805000D01*
X80850000Y-94615000D02*
X82550000Y-94615000D01*
X80850000Y-94615000D02*
X82550000Y-94615000D01*
X80850000Y-93345000D02*
X82550000Y-93345000D01*
X80850000Y-97155000D02*
X82550000Y-97155000D01*
X80850000Y-95885000D02*
X82550000Y-95885000D01*
X26670000Y-28575000D02*
X28956000Y-28575000D01*
X117856000Y-74930000D02*
X121666000Y-74930000D01*
X117840000Y-76200000D02*
X117840000Y-74946000D01*
X121666000Y-74930000D02*
X121666000Y-76191000D01*
X121666000Y-76191000D02*
X121675000Y-76200000D01*
X117840000Y-74946000D02*
X117856000Y-74930000D01*
X117856000Y-77470000D02*
X121666000Y-77470000D01*
X117840000Y-78740000D02*
X117840000Y-77486000D01*
X117840000Y-77486000D02*
X117856000Y-77470000D01*
X121666000Y-77470000D02*
X121666000Y-78731000D01*
X63500000Y-52705000D02*
X62230000Y-53975000D01*
X68961000Y-53721000D02*
X67945000Y-52705000D01*
X67945000Y-52705000D02*
X63500000Y-52705000D01*
X55450000Y-53975000D02*
X62230000Y-53975000D01*
X71296000Y-53721000D02*
X68961000Y-53721000D01*
X71550000Y-55245000D02*
X69215000Y-55245000D01*
X62865000Y-55245000D02*
X64135000Y-53975000D01*
X69215000Y-55245000D02*
X67945000Y-53975000D01*
X55450000Y-55245000D02*
X62865000Y-55245000D01*
X67945000Y-53975000D02*
X64770000Y-53975000D01*
X64135000Y-53975000D02*
X64770000Y-53975000D01*
X63500000Y-55245000D02*
X62230000Y-56515000D01*
X67945000Y-55245000D02*
X63500000Y-55245000D01*
X55450000Y-56515000D02*
X62230000Y-56515000D01*
X69215000Y-56515000D02*
X67945000Y-55245000D01*
X71550000Y-56515000D02*
X69215000Y-56515000D01*
X55450000Y-57785000D02*
X62865000Y-57785000D01*
X71550000Y-57785000D02*
X69215000Y-57785000D01*
X69215000Y-57785000D02*
X67945000Y-56515000D01*
X64135000Y-56515000D02*
X64770000Y-56515000D01*
X62865000Y-57785000D02*
X64135000Y-56515000D01*
X67945000Y-56515000D02*
X64770000Y-56515000D01*
X68048500Y-57785000D02*
X63500000Y-57785000D01*
X69318500Y-59055000D02*
X68048500Y-57785000D01*
X55450000Y-59055000D02*
X62230000Y-59055000D01*
X63500000Y-57785000D02*
X62230000Y-59055000D01*
X71550000Y-59055000D02*
X69318500Y-59055000D01*
X62865000Y-60325000D02*
X64135000Y-59055000D01*
X66040000Y-60325000D02*
X64770000Y-59055000D01*
X71550000Y-60325000D02*
X66040000Y-60325000D01*
X64135000Y-59055000D02*
X64770000Y-59055000D01*
X55450000Y-60325000D02*
X62865000Y-60325000D01*
X71550000Y-69215000D02*
X69215000Y-69215000D01*
X63500000Y-67945000D02*
X62230000Y-69215000D01*
X67945000Y-67945000D02*
X63500000Y-67945000D01*
X69215000Y-69215000D02*
X67945000Y-67945000D01*
X55450000Y-69215000D02*
X62230000Y-69215000D01*
X62992000Y-70485000D02*
X64262000Y-69215000D01*
X71550000Y-70485000D02*
X69215000Y-70485000D01*
X69215000Y-70485000D02*
X67945000Y-69215000D01*
X55450000Y-70485000D02*
X62992000Y-70485000D01*
X67945000Y-69215000D02*
X64770000Y-69215000D01*
X64262000Y-69215000D02*
X64770000Y-69215000D01*
X67945000Y-70485000D02*
X63500000Y-70485000D01*
X63500000Y-70485000D02*
X62230000Y-71755000D01*
X68961000Y-71501000D02*
X67945000Y-70485000D01*
X55450000Y-71755000D02*
X62230000Y-71755000D01*
X71296000Y-71501000D02*
X68961000Y-71501000D01*
X62865000Y-73025000D02*
X64135000Y-71755000D01*
X64135000Y-71755000D02*
X64770000Y-71755000D01*
X71550000Y-73025000D02*
X69215000Y-73025000D01*
X55450000Y-73025000D02*
X62865000Y-73025000D01*
X67945000Y-71755000D02*
X64770000Y-71755000D01*
X69215000Y-73025000D02*
X67945000Y-71755000D01*
X55450000Y-74295000D02*
X62230000Y-74295000D01*
X63500000Y-73025000D02*
X62230000Y-74295000D01*
X67945000Y-73025000D02*
X63500000Y-73025000D01*
X71550000Y-74295000D02*
X69215000Y-74295000D01*
X69215000Y-74295000D02*
X67945000Y-73025000D01*
X55450000Y-75565000D02*
X62865000Y-75565000D01*
X69215000Y-75565000D02*
X67945000Y-74295000D01*
X64135000Y-74295000D02*
X64770000Y-74295000D01*
X62865000Y-75565000D02*
X64135000Y-74295000D01*
X71550000Y-75565000D02*
X69215000Y-75565000D01*
X67945000Y-74295000D02*
X64770000Y-74295000D01*
X55450000Y-76835000D02*
X62230000Y-76835000D01*
X69318500Y-76835000D02*
X68048500Y-75565000D01*
X63500000Y-75565000D02*
X62230000Y-76835000D01*
X71550000Y-76835000D02*
X69318500Y-76835000D01*
X68048500Y-75565000D02*
X63500000Y-75565000D01*
X62865000Y-78105000D02*
X64135000Y-76835000D01*
X55450000Y-78105000D02*
X62865000Y-78105000D01*
X66040000Y-78105000D02*
X64770000Y-76835000D01*
X71550000Y-78105000D02*
X66040000Y-78105000D01*
X64135000Y-76835000D02*
X64770000Y-76835000D01*
X71550000Y-86995000D02*
X69215000Y-86995000D01*
X55450000Y-86995000D02*
X62230000Y-86995000D01*
X67945000Y-85725000D02*
X63500000Y-85725000D01*
X63500000Y-85725000D02*
X62230000Y-86995000D01*
X69215000Y-86995000D02*
X67945000Y-85725000D01*
X55450000Y-88265000D02*
X62992000Y-88265000D01*
X69215000Y-88265000D02*
X67945000Y-86995000D01*
X67945000Y-86995000D02*
X64770000Y-86995000D01*
X64262000Y-86995000D02*
X64770000Y-86995000D01*
X71550000Y-88265000D02*
X69215000Y-88265000D01*
X62992000Y-88265000D02*
X64262000Y-86995000D01*
X71296000Y-89281000D02*
X68961000Y-89281000D01*
X67945000Y-88265000D02*
X63500000Y-88265000D01*
X55450000Y-89535000D02*
X62230000Y-89535000D01*
X68961000Y-89281000D02*
X67945000Y-88265000D01*
X71550000Y-89535000D02*
X71296000Y-89281000D01*
X63500000Y-88265000D02*
X62230000Y-89535000D01*
X55450000Y-90805000D02*
X62865000Y-90805000D01*
X69215000Y-90805000D02*
X67945000Y-89535000D01*
X67945000Y-89535000D02*
X64770000Y-89535000D01*
X71550000Y-90805000D02*
X69215000Y-90805000D01*
X64135000Y-89535000D02*
X64770000Y-89535000D01*
X62865000Y-90805000D02*
X64135000Y-89535000D01*
X71550000Y-92075000D02*
X69215000Y-92075000D01*
X67945000Y-90805000D02*
X63500000Y-90805000D01*
X69215000Y-92075000D02*
X67945000Y-90805000D01*
X63500000Y-90805000D02*
X62230000Y-92075000D01*
X55450000Y-92075000D02*
X62230000Y-92075000D01*
X64135000Y-92075000D02*
X64770000Y-92075000D01*
X69215000Y-93345000D02*
X67945000Y-92075000D01*
X62865000Y-93345000D02*
X64135000Y-92075000D01*
X67945000Y-92075000D02*
X64770000Y-92075000D01*
X71550000Y-93345000D02*
X69215000Y-93345000D01*
X55450000Y-93345000D02*
X62865000Y-93345000D01*
X69318500Y-94615000D02*
X68048500Y-93345000D01*
X71550000Y-94615000D02*
X69318500Y-94615000D01*
X55450000Y-94615000D02*
X62230000Y-94615000D01*
X63500000Y-93345000D02*
X62230000Y-94615000D01*
X68048500Y-93345000D02*
X63500000Y-93345000D01*
X69850000Y-95885000D02*
X69850000Y-96520000D01*
X70231000Y-95885000D02*
X66040000Y-95885000D01*
X64135000Y-94615000D02*
X64770000Y-94615000D01*
X70231000Y-95885000D02*
X69850000Y-95885000D01*
X84582000Y-73660000D02*
X92775000Y-73660000D01*
X99695000Y-74930000D02*
X97725000Y-74930000D01*
X55450000Y-95885000D02*
X62865000Y-95885000D01*
X92775000Y-73660000D02*
X94615000Y-73660000D01*
X94615000Y-73660000D02*
X95885000Y-74930000D01*
X114300000Y-93980000D02*
X115840000Y-93980000D01*
X66040000Y-95885000D02*
X64770000Y-94615000D01*
X71550000Y-95885000D02*
X70231000Y-95885000D01*
X95885000Y-74930000D02*
X97725000Y-74930000D01*
X84582000Y-96520000D02*
X84582000Y-73660000D01*
X62865000Y-95885000D02*
X64135000Y-94615000D01*
X83185000Y-59690000D02*
X83185000Y-54610000D01*
X83185000Y-54610000D02*
X83185000Y-51435000D01*
X111125000Y-54610000D02*
X83185000Y-54610000D01*
X83185000Y-86995000D02*
X83185000Y-69215000D01*
X83185000Y-69215000D02*
X80850000Y-69215000D01*
X80850000Y-86995000D02*
X83185000Y-86995000D01*
X114300000Y-88900000D02*
X115840000Y-88900000D01*
X83185000Y-51435000D02*
X80850000Y-51435000D01*
X123190000Y-54610000D02*
X111125000Y-54610000D01*
X83185000Y-69215000D02*
X83185000Y-59690000D01*
X97725000Y-59690000D02*
X123190000Y-59690000D01*
X68580000Y-97155000D02*
X68580000Y-97790000D01*
X123190000Y-57150000D02*
X111760000Y-57150000D01*
X55450000Y-97155000D02*
X68580000Y-97155000D01*
X55450000Y-61595000D02*
X68580000Y-61595000D01*
X83820000Y-57150000D02*
X83820000Y-62230000D01*
X115840000Y-86360000D02*
X114300000Y-86360000D01*
X111760000Y-57150000D02*
X83820000Y-57150000D01*
X83820000Y-80010000D02*
X83820000Y-62230000D01*
X83820000Y-97790000D02*
X83820000Y-80010000D01*
X55450000Y-79375000D02*
X68580000Y-79375000D01*
X101600000Y-62230000D02*
X112395000Y-62230000D01*
X112395000Y-62230000D02*
X123190000Y-62230000D01*
X94615000Y-74930000D02*
X95250000Y-75565000D01*
X101600000Y-75565000D02*
X101600000Y-62230000D01*
X92775000Y-74930000D02*
X94615000Y-74930000D01*
X95250000Y-75565000D02*
X101600000Y-75565000D01*
X115840000Y-83820000D02*
X114300000Y-83820000D01*
X115840000Y-81280000D02*
X114300000Y-81280000D01*
X102870000Y-64770000D02*
X102870000Y-76200000D01*
X113030000Y-64770000D02*
X102870000Y-64770000D01*
X123190000Y-64770000D02*
X113030000Y-64770000D01*
X102870000Y-76200000D02*
X97725000Y-76200000D01*
X113665000Y-67310000D02*
X123190000Y-67310000D01*
X94615000Y-77470000D02*
X95250000Y-76835000D01*
X115840000Y-78740000D02*
X114300000Y-78740000D01*
X104140000Y-67310000D02*
X113665000Y-67310000D01*
X92775000Y-77470000D02*
X94615000Y-77470000D01*
X104140000Y-76835000D02*
X104140000Y-67310000D01*
X95250000Y-76835000D02*
X104140000Y-76835000D01*
X105410000Y-78740000D02*
X97725000Y-78740000D01*
X105410000Y-69850000D02*
X105410000Y-78740000D01*
X114300000Y-69850000D02*
X105410000Y-69850000D01*
X123190000Y-69850000D02*
X114300000Y-69850000D01*
X115840000Y-76200000D02*
X114300000Y-76200000D01*
X121666000Y-80010000D02*
X121666000Y-81271000D01*
X117840000Y-81280000D02*
X117840000Y-80026000D01*
X117856000Y-80010000D02*
X121666000Y-80010000D01*
X117840000Y-80026000D02*
X117856000Y-80010000D01*
X117840000Y-83820000D02*
X117840000Y-82566000D01*
X117840000Y-82566000D02*
X117856000Y-82550000D01*
X117856000Y-82550000D02*
X121666000Y-82550000D01*
X121666000Y-82550000D02*
X121666000Y-83811000D01*
X117840000Y-85106000D02*
X117856000Y-85090000D01*
X117840000Y-86360000D02*
X117840000Y-85106000D01*
X117856000Y-85090000D02*
X121666000Y-85090000D01*
X121666000Y-85090000D02*
X121666000Y-86351000D01*
X117840000Y-91440000D02*
X119625000Y-91440000D01*
X117840000Y-92726000D02*
X117856000Y-92710000D01*
X117840000Y-93980000D02*
X117840000Y-92726000D01*
X117856000Y-92710000D02*
X121666000Y-92710000D01*
X121666000Y-92710000D02*
X121666000Y-93971000D01*
X97725000Y-60960000D02*
X100330000Y-60960000D01*
X110490000Y-60960000D02*
X100330000Y-60960000D01*
X114300000Y-91440000D02*
X115840000Y-91440000D01*
X92775000Y-72390000D02*
X94615000Y-72390000D01*
X100330000Y-60960000D02*
X100330000Y-73660000D01*
X94615000Y-72390000D02*
X95885000Y-73660000D01*
X95885000Y-73660000D02*
X97725000Y-73660000D01*
X100330000Y-73660000D02*
X97725000Y-73660000D01*
X117840000Y-88900000D02*
X119625000Y-88900000D01*
G04 #@! TA.AperFunction,Conductor*
G36*
X33401000Y-27940001D02*
G01*
X33401000Y-30381000D01*
X33382093Y-30439191D01*
X33332593Y-30475155D01*
X33302000Y-30480000D01*
X25700500Y-30480000D01*
X25700500Y-29563000D01*
X25719407Y-29504809D01*
X25768907Y-29468845D01*
X25799500Y-29464000D01*
X26189336Y-29464000D01*
X26222033Y-29469555D01*
X26262301Y-29483646D01*
X26292725Y-29486499D01*
X26292727Y-29486500D01*
X26292734Y-29486500D01*
X27301273Y-29486500D01*
X27301273Y-29486499D01*
X27331699Y-29483646D01*
X27371966Y-29469555D01*
X27404664Y-29464000D01*
X28276890Y-29464000D01*
X28309587Y-29469555D01*
X28421301Y-29508646D01*
X28451725Y-29511499D01*
X28451727Y-29511500D01*
X28451734Y-29511500D01*
X29460273Y-29511500D01*
X29460273Y-29511499D01*
X29490699Y-29508646D01*
X29602412Y-29469555D01*
X29635110Y-29464000D01*
X30573613Y-29464000D01*
X30606310Y-29469555D01*
X30682301Y-29496146D01*
X30712725Y-29498999D01*
X30712727Y-29499000D01*
X30712734Y-29499000D01*
X31771273Y-29499000D01*
X31771273Y-29498999D01*
X31801699Y-29496146D01*
X31877689Y-29469555D01*
X31910387Y-29464000D01*
X32384999Y-29464000D01*
X32385000Y-29464000D01*
X32385000Y-25799500D01*
X32403907Y-25741309D01*
X32453407Y-25705345D01*
X32484000Y-25700500D01*
X33401000Y-25700500D01*
X33401000Y-27940001D01*
G37*
G04 #@! TD.AperFunction*
G04 #@! TA.AperFunction,Conductor*
G36*
X26670000Y-30480001D02*
G01*
X26670000Y-32135334D01*
X26651093Y-32193525D01*
X26633805Y-32211862D01*
X26558592Y-32273587D01*
X26427316Y-32433547D01*
X26329768Y-32616045D01*
X26269699Y-32814065D01*
X26269698Y-32814070D01*
X26249417Y-33019996D01*
X26249417Y-33020003D01*
X26269698Y-33225929D01*
X26269699Y-33225934D01*
X26329768Y-33423954D01*
X26427316Y-33606452D01*
X26558585Y-33766404D01*
X26558590Y-33766410D01*
X26633805Y-33828137D01*
X26666792Y-33879666D01*
X26670000Y-33904664D01*
X26670000Y-34675334D01*
X26651093Y-34733525D01*
X26633805Y-34751862D01*
X26558592Y-34813587D01*
X26427316Y-34973547D01*
X26329768Y-35156045D01*
X26269699Y-35354065D01*
X26269698Y-35354070D01*
X26249417Y-35559996D01*
X26249417Y-35560003D01*
X26269698Y-35765929D01*
X26269699Y-35765934D01*
X26329768Y-35963954D01*
X26427316Y-36146452D01*
X26558585Y-36306404D01*
X26558590Y-36306410D01*
X26633805Y-36368137D01*
X26666792Y-36419666D01*
X26670000Y-36444664D01*
X26670000Y-37215334D01*
X26651093Y-37273525D01*
X26633805Y-37291862D01*
X26558592Y-37353587D01*
X26427316Y-37513547D01*
X26329768Y-37696045D01*
X26269699Y-37894065D01*
X26269698Y-37894070D01*
X26249417Y-38099996D01*
X26249417Y-38100003D01*
X26269698Y-38305929D01*
X26269699Y-38305934D01*
X26329768Y-38503954D01*
X26427316Y-38686452D01*
X26558585Y-38846404D01*
X26558590Y-38846410D01*
X26633805Y-38908137D01*
X26666792Y-38959666D01*
X26670000Y-38984664D01*
X26670000Y-39755334D01*
X26651093Y-39813525D01*
X26633805Y-39831862D01*
X26558592Y-39893587D01*
X26427316Y-40053547D01*
X26329768Y-40236045D01*
X26269699Y-40434065D01*
X26269698Y-40434070D01*
X26249417Y-40639996D01*
X26249417Y-40640003D01*
X26269698Y-40845929D01*
X26269699Y-40845934D01*
X26329768Y-41043954D01*
X26427316Y-41226452D01*
X26558585Y-41386404D01*
X26558590Y-41386410D01*
X26633805Y-41448137D01*
X26666792Y-41499666D01*
X26670000Y-41524664D01*
X26670000Y-42295334D01*
X26651093Y-42353525D01*
X26633805Y-42371862D01*
X26558592Y-42433587D01*
X26427316Y-42593547D01*
X26329768Y-42776045D01*
X26269699Y-42974065D01*
X26269698Y-42974070D01*
X26249417Y-43179996D01*
X26249417Y-43180003D01*
X26269698Y-43385929D01*
X26269699Y-43385934D01*
X26329768Y-43583954D01*
X26427316Y-43766452D01*
X26558585Y-43926404D01*
X26558590Y-43926410D01*
X26633805Y-43988137D01*
X26666792Y-44039666D01*
X26670000Y-44064664D01*
X26670000Y-44835334D01*
X26651093Y-44893525D01*
X26633805Y-44911862D01*
X26558592Y-44973587D01*
X26427316Y-45133547D01*
X26329768Y-45316045D01*
X26269699Y-45514065D01*
X26269698Y-45514070D01*
X26249417Y-45719996D01*
X26249417Y-45720003D01*
X26269698Y-45925929D01*
X26269699Y-45925934D01*
X26329768Y-46123954D01*
X26427316Y-46306452D01*
X26558585Y-46466404D01*
X26558590Y-46466410D01*
X26633805Y-46528137D01*
X26666792Y-46579666D01*
X26670000Y-46604664D01*
X26670000Y-47375334D01*
X26651093Y-47433525D01*
X26633805Y-47451862D01*
X26558592Y-47513587D01*
X26427316Y-47673547D01*
X26329768Y-47856045D01*
X26269699Y-48054065D01*
X26269698Y-48054070D01*
X26249417Y-48259996D01*
X26249417Y-48260003D01*
X26269698Y-48465929D01*
X26269699Y-48465934D01*
X26329768Y-48663954D01*
X26427316Y-48846452D01*
X26558585Y-49006404D01*
X26558590Y-49006410D01*
X26633805Y-49068137D01*
X26666792Y-49119666D01*
X26670000Y-49144664D01*
X26670000Y-49915334D01*
X26651093Y-49973525D01*
X26633805Y-49991862D01*
X26558592Y-50053587D01*
X26427316Y-50213547D01*
X26329768Y-50396045D01*
X26269699Y-50594065D01*
X26269698Y-50594070D01*
X26249417Y-50799996D01*
X26249417Y-50800003D01*
X26269698Y-51005929D01*
X26269699Y-51005934D01*
X26329768Y-51203954D01*
X26427316Y-51386452D01*
X26558585Y-51546404D01*
X26558590Y-51546410D01*
X26633805Y-51608137D01*
X26666792Y-51659666D01*
X26670000Y-51684664D01*
X26670000Y-52455334D01*
X26651093Y-52513525D01*
X26633805Y-52531862D01*
X26558592Y-52593587D01*
X26427316Y-52753547D01*
X26329768Y-52936045D01*
X26269699Y-53134065D01*
X26269698Y-53134070D01*
X26249417Y-53339996D01*
X26249417Y-53340003D01*
X26269698Y-53545929D01*
X26269699Y-53545934D01*
X26329768Y-53743954D01*
X26427316Y-53926452D01*
X26558585Y-54086404D01*
X26558590Y-54086410D01*
X26633805Y-54148137D01*
X26666792Y-54199666D01*
X26670000Y-54224664D01*
X26670000Y-54995334D01*
X26651093Y-55053525D01*
X26633805Y-55071862D01*
X26558592Y-55133587D01*
X26427316Y-55293547D01*
X26329768Y-55476045D01*
X26269699Y-55674065D01*
X26269698Y-55674070D01*
X26249417Y-55879996D01*
X26249417Y-55880003D01*
X26269698Y-56085929D01*
X26269699Y-56085934D01*
X26329768Y-56283954D01*
X26427316Y-56466452D01*
X26558585Y-56626404D01*
X26558590Y-56626410D01*
X26633805Y-56688137D01*
X26666792Y-56739666D01*
X26670000Y-56764664D01*
X26670000Y-57535334D01*
X26651093Y-57593525D01*
X26633805Y-57611862D01*
X26558592Y-57673587D01*
X26427316Y-57833547D01*
X26329768Y-58016045D01*
X26269699Y-58214065D01*
X26269698Y-58214070D01*
X26249417Y-58419996D01*
X26249417Y-58420003D01*
X26269698Y-58625929D01*
X26269699Y-58625934D01*
X26329768Y-58823954D01*
X26427316Y-59006452D01*
X26558585Y-59166404D01*
X26558590Y-59166410D01*
X26633805Y-59228137D01*
X26666792Y-59279666D01*
X26670000Y-59304664D01*
X26670000Y-60075334D01*
X26651093Y-60133525D01*
X26633805Y-60151862D01*
X26558592Y-60213587D01*
X26427316Y-60373547D01*
X26329768Y-60556045D01*
X26269699Y-60754065D01*
X26269698Y-60754070D01*
X26249417Y-60959996D01*
X26249417Y-60960003D01*
X26269698Y-61165929D01*
X26269699Y-61165934D01*
X26329768Y-61363954D01*
X26427316Y-61546452D01*
X26558585Y-61706404D01*
X26558590Y-61706410D01*
X26633805Y-61768137D01*
X26666792Y-61819666D01*
X26670000Y-61844664D01*
X26670000Y-62615334D01*
X26651093Y-62673525D01*
X26633805Y-62691862D01*
X26558592Y-62753587D01*
X26427316Y-62913547D01*
X26329768Y-63096045D01*
X26269699Y-63294065D01*
X26269698Y-63294070D01*
X26249417Y-63499996D01*
X26249417Y-63500003D01*
X26269698Y-63705929D01*
X26269699Y-63705934D01*
X26329768Y-63903954D01*
X26427316Y-64086452D01*
X26558585Y-64246404D01*
X26558590Y-64246410D01*
X26633805Y-64308137D01*
X26666792Y-64359666D01*
X26670000Y-64384664D01*
X26670000Y-65155334D01*
X26651093Y-65213525D01*
X26633805Y-65231862D01*
X26558592Y-65293587D01*
X26427316Y-65453547D01*
X26329768Y-65636045D01*
X26269699Y-65834065D01*
X26269698Y-65834070D01*
X26249417Y-66039996D01*
X26249417Y-66040003D01*
X26269698Y-66245929D01*
X26269699Y-66245934D01*
X26329768Y-66443954D01*
X26427316Y-66626452D01*
X26558585Y-66786404D01*
X26558590Y-66786410D01*
X26633805Y-66848137D01*
X26666792Y-66899666D01*
X26670000Y-66924664D01*
X26670000Y-67695334D01*
X26651093Y-67753525D01*
X26633805Y-67771862D01*
X26558592Y-67833587D01*
X26427316Y-67993547D01*
X26329768Y-68176045D01*
X26269699Y-68374065D01*
X26269698Y-68374070D01*
X26249417Y-68579996D01*
X26249417Y-68580003D01*
X26269698Y-68785929D01*
X26269699Y-68785934D01*
X26329768Y-68983954D01*
X26427316Y-69166452D01*
X26558585Y-69326404D01*
X26558590Y-69326410D01*
X26633805Y-69388137D01*
X26666792Y-69439666D01*
X26670000Y-69464664D01*
X26670000Y-70235334D01*
X26651093Y-70293525D01*
X26633805Y-70311862D01*
X26558592Y-70373587D01*
X26427316Y-70533547D01*
X26329768Y-70716045D01*
X26269699Y-70914065D01*
X26269698Y-70914070D01*
X26249417Y-71119996D01*
X26249417Y-71120003D01*
X26269698Y-71325929D01*
X26269699Y-71325934D01*
X26329768Y-71523954D01*
X26427316Y-71706452D01*
X26558585Y-71866404D01*
X26558590Y-71866410D01*
X26633805Y-71928137D01*
X26666792Y-71979666D01*
X26670000Y-72004664D01*
X26670000Y-72775334D01*
X26651093Y-72833525D01*
X26633805Y-72851862D01*
X26558592Y-72913587D01*
X26427316Y-73073547D01*
X26329768Y-73256045D01*
X26269699Y-73454065D01*
X26269698Y-73454070D01*
X26249417Y-73659996D01*
X26249417Y-73660003D01*
X26269698Y-73865929D01*
X26269699Y-73865934D01*
X26329768Y-74063954D01*
X26427316Y-74246452D01*
X26558585Y-74406404D01*
X26558590Y-74406410D01*
X26633805Y-74468137D01*
X26666792Y-74519666D01*
X26670000Y-74544664D01*
X26670000Y-75315334D01*
X26651093Y-75373525D01*
X26633805Y-75391862D01*
X26558592Y-75453587D01*
X26427316Y-75613547D01*
X26329768Y-75796045D01*
X26269699Y-75994065D01*
X26269698Y-75994070D01*
X26249417Y-76199996D01*
X26249417Y-76200003D01*
X26269698Y-76405929D01*
X26269699Y-76405934D01*
X26329768Y-76603954D01*
X26427316Y-76786452D01*
X26558585Y-76946404D01*
X26558590Y-76946410D01*
X26633805Y-77008137D01*
X26666792Y-77059666D01*
X26670000Y-77084664D01*
X26670000Y-77855334D01*
X26651093Y-77913525D01*
X26633805Y-77931862D01*
X26558592Y-77993587D01*
X26427316Y-78153547D01*
X26329768Y-78336045D01*
X26269699Y-78534065D01*
X26269698Y-78534070D01*
X26249417Y-78739996D01*
X26249417Y-78740003D01*
X26269698Y-78945929D01*
X26269699Y-78945934D01*
X26329768Y-79143954D01*
X26427316Y-79326452D01*
X26558585Y-79486404D01*
X26558590Y-79486410D01*
X26633805Y-79548137D01*
X26666792Y-79599666D01*
X26670000Y-79624664D01*
X26670000Y-80395334D01*
X26651093Y-80453525D01*
X26633805Y-80471862D01*
X26558592Y-80533587D01*
X26427316Y-80693547D01*
X26329768Y-80876045D01*
X26269699Y-81074065D01*
X26269698Y-81074070D01*
X26249417Y-81279996D01*
X26249417Y-81280003D01*
X26269698Y-81485929D01*
X26269699Y-81485934D01*
X26329768Y-81683954D01*
X26427316Y-81866452D01*
X26558585Y-82026404D01*
X26558590Y-82026410D01*
X26633805Y-82088137D01*
X26666792Y-82139666D01*
X26670000Y-82164664D01*
X26670000Y-82935334D01*
X26651093Y-82993525D01*
X26633805Y-83011862D01*
X26558592Y-83073587D01*
X26427316Y-83233547D01*
X26329768Y-83416045D01*
X26269699Y-83614065D01*
X26269698Y-83614070D01*
X26249417Y-83819996D01*
X26249417Y-83820003D01*
X26269698Y-84025929D01*
X26269699Y-84025934D01*
X26329768Y-84223954D01*
X26427316Y-84406452D01*
X26558585Y-84566404D01*
X26558590Y-84566410D01*
X26633805Y-84628137D01*
X26666792Y-84679666D01*
X26670000Y-84704664D01*
X26670000Y-85475334D01*
X26651093Y-85533525D01*
X26633805Y-85551862D01*
X26558592Y-85613587D01*
X26427316Y-85773547D01*
X26329768Y-85956045D01*
X26269699Y-86154065D01*
X26269698Y-86154070D01*
X26249417Y-86359996D01*
X26249417Y-86360003D01*
X26269698Y-86565929D01*
X26269699Y-86565934D01*
X26329768Y-86763954D01*
X26427316Y-86946452D01*
X26558585Y-87106404D01*
X26558590Y-87106410D01*
X26633805Y-87168137D01*
X26666792Y-87219666D01*
X26670000Y-87244664D01*
X26670000Y-88015334D01*
X26651093Y-88073525D01*
X26633805Y-88091862D01*
X26558592Y-88153587D01*
X26427316Y-88313547D01*
X26329768Y-88496045D01*
X26269699Y-88694065D01*
X26269698Y-88694070D01*
X26249417Y-88899996D01*
X26249417Y-88900003D01*
X26269698Y-89105929D01*
X26269699Y-89105934D01*
X26329768Y-89303954D01*
X26427316Y-89486452D01*
X26558585Y-89646404D01*
X26558590Y-89646410D01*
X26633805Y-89708137D01*
X26666792Y-89759666D01*
X26670000Y-89784664D01*
X26670000Y-90555334D01*
X26651093Y-90613525D01*
X26633805Y-90631862D01*
X26558592Y-90693587D01*
X26427316Y-90853547D01*
X26329768Y-91036045D01*
X26269699Y-91234065D01*
X26269698Y-91234070D01*
X26249417Y-91439996D01*
X26249417Y-91440003D01*
X26269698Y-91645929D01*
X26269699Y-91645934D01*
X26329768Y-91843954D01*
X26427316Y-92026452D01*
X26558585Y-92186404D01*
X26558590Y-92186410D01*
X26633805Y-92248137D01*
X26666792Y-92299666D01*
X26670000Y-92324664D01*
X26670000Y-101299500D01*
X26404861Y-101299500D01*
X26395157Y-101299023D01*
X26273237Y-101287014D01*
X26254203Y-101283228D01*
X26141645Y-101249084D01*
X26123714Y-101241657D01*
X26019977Y-101186208D01*
X26003841Y-101175426D01*
X25912916Y-101100806D01*
X25899193Y-101087083D01*
X25824573Y-100996158D01*
X25813791Y-100980022D01*
X25758342Y-100876285D01*
X25750915Y-100858354D01*
X25716771Y-100745796D01*
X25712985Y-100726762D01*
X25700977Y-100604842D01*
X25700500Y-100595138D01*
X25700500Y-30480000D01*
X26670000Y-30480000D01*
X26670000Y-30480001D01*
G37*
G04 #@! TD.AperFunction*
G04 #@! TA.AperFunction,Conductor*
G36*
X126004842Y-25700976D02*
G01*
X126126764Y-25712985D01*
X126145794Y-25716770D01*
X126151133Y-25718390D01*
X126258354Y-25750915D01*
X126276285Y-25758342D01*
X126380022Y-25813791D01*
X126396158Y-25824573D01*
X126487083Y-25899193D01*
X126500806Y-25912916D01*
X126575426Y-26003841D01*
X126586208Y-26019977D01*
X126641657Y-26123714D01*
X126649084Y-26141645D01*
X126683228Y-26254203D01*
X126687014Y-26273237D01*
X126699023Y-26395157D01*
X126699500Y-26404861D01*
X126699500Y-100595138D01*
X126699023Y-100604842D01*
X126687014Y-100726762D01*
X126683228Y-100745796D01*
X126649084Y-100858354D01*
X126641657Y-100876285D01*
X126586208Y-100980022D01*
X126575426Y-100996158D01*
X126500806Y-101087083D01*
X126487083Y-101100806D01*
X126396158Y-101175426D01*
X126380022Y-101186208D01*
X126276285Y-101241657D01*
X126258354Y-101249084D01*
X126145796Y-101283228D01*
X126126763Y-101287014D01*
X126020719Y-101297459D01*
X126004841Y-101299023D01*
X125995139Y-101299500D01*
X26670000Y-101299500D01*
X26670000Y-99060000D01*
X120650000Y-99060000D01*
X123154532Y-99060000D01*
X123174363Y-99286684D01*
X123233262Y-99506500D01*
X123329426Y-99712723D01*
X123329434Y-99712737D01*
X123459946Y-99899130D01*
X123459947Y-99899132D01*
X123459950Y-99899135D01*
X123459953Y-99899139D01*
X123620861Y-100060047D01*
X123620864Y-100060049D01*
X123620867Y-100060052D01*
X123620869Y-100060053D01*
X123745131Y-100147061D01*
X123807266Y-100190568D01*
X123807272Y-100190571D01*
X123807276Y-100190573D01*
X124013500Y-100286737D01*
X124013504Y-100286739D01*
X124233308Y-100345635D01*
X124233312Y-100345635D01*
X124233315Y-100345636D01*
X124403208Y-100360500D01*
X124403216Y-100360500D01*
X124516792Y-100360500D01*
X124686684Y-100345636D01*
X124686685Y-100345635D01*
X124686692Y-100345635D01*
X124906496Y-100286739D01*
X125112734Y-100190568D01*
X125299139Y-100060047D01*
X125460047Y-99899139D01*
X125590568Y-99712734D01*
X125686739Y-99506496D01*
X125745635Y-99286692D01*
X125765468Y-99060000D01*
X125750521Y-98889150D01*
X125745636Y-98833315D01*
X125745635Y-98833312D01*
X125745635Y-98833308D01*
X125686739Y-98613504D01*
X125590568Y-98407266D01*
X125503237Y-98282543D01*
X125460053Y-98220869D01*
X125460052Y-98220867D01*
X125460049Y-98220864D01*
X125460047Y-98220861D01*
X125299139Y-98059953D01*
X125299135Y-98059950D01*
X125299132Y-98059947D01*
X125299130Y-98059946D01*
X125112737Y-97929434D01*
X125112736Y-97929433D01*
X125112734Y-97929432D01*
X125112731Y-97929430D01*
X125112723Y-97929426D01*
X124906499Y-97833262D01*
X124906500Y-97833262D01*
X124745043Y-97790000D01*
X124686692Y-97774365D01*
X124686691Y-97774364D01*
X124686684Y-97774363D01*
X124516792Y-97759500D01*
X124516784Y-97759500D01*
X124403216Y-97759500D01*
X124403208Y-97759500D01*
X124233315Y-97774363D01*
X124013499Y-97833262D01*
X123807276Y-97929426D01*
X123807262Y-97929434D01*
X123620869Y-98059946D01*
X123620867Y-98059947D01*
X123459947Y-98220867D01*
X123459946Y-98220869D01*
X123329434Y-98407262D01*
X123329426Y-98407276D01*
X123233262Y-98613499D01*
X123174363Y-98833315D01*
X123154532Y-99059996D01*
X123154532Y-99060000D01*
X120650000Y-99060000D01*
X124460000Y-95250000D01*
X124460000Y-31750000D01*
X120650000Y-27940000D01*
X123154532Y-27940000D01*
X123174363Y-28166684D01*
X123174364Y-28166691D01*
X123174365Y-28166692D01*
X123207084Y-28288801D01*
X123233262Y-28386500D01*
X123329426Y-28592723D01*
X123329434Y-28592737D01*
X123459946Y-28779130D01*
X123459947Y-28779132D01*
X123459950Y-28779135D01*
X123459953Y-28779139D01*
X123620861Y-28940047D01*
X123620864Y-28940049D01*
X123620867Y-28940052D01*
X123620869Y-28940053D01*
X123745131Y-29027061D01*
X123807266Y-29070568D01*
X123807272Y-29070571D01*
X123807276Y-29070573D01*
X124013500Y-29166737D01*
X124013504Y-29166739D01*
X124233308Y-29225635D01*
X124233312Y-29225635D01*
X124233315Y-29225636D01*
X124403208Y-29240500D01*
X124403216Y-29240500D01*
X124516792Y-29240500D01*
X124686684Y-29225636D01*
X124686685Y-29225635D01*
X124686692Y-29225635D01*
X124906496Y-29166739D01*
X125112734Y-29070568D01*
X125299139Y-28940047D01*
X125460047Y-28779139D01*
X125590568Y-28592734D01*
X125686739Y-28386496D01*
X125745635Y-28166692D01*
X125746167Y-28160618D01*
X125765468Y-27940000D01*
X125765468Y-27939996D01*
X125745636Y-27713315D01*
X125745635Y-27713312D01*
X125745635Y-27713308D01*
X125686739Y-27493504D01*
X125686737Y-27493499D01*
X125590573Y-27287276D01*
X125590571Y-27287272D01*
X125590568Y-27287266D01*
X125547061Y-27225131D01*
X125460053Y-27100869D01*
X125460052Y-27100867D01*
X125460049Y-27100864D01*
X125460047Y-27100861D01*
X125299139Y-26939953D01*
X125299135Y-26939950D01*
X125299132Y-26939947D01*
X125299130Y-26939946D01*
X125112737Y-26809434D01*
X125112736Y-26809433D01*
X125112734Y-26809432D01*
X125112731Y-26809430D01*
X125112723Y-26809426D01*
X124906499Y-26713262D01*
X124906500Y-26713262D01*
X124833228Y-26693629D01*
X124686692Y-26654365D01*
X124686691Y-26654364D01*
X124686684Y-26654363D01*
X124516792Y-26639500D01*
X124516784Y-26639500D01*
X124403216Y-26639500D01*
X124403208Y-26639500D01*
X124233315Y-26654363D01*
X124013499Y-26713262D01*
X123807276Y-26809426D01*
X123807262Y-26809434D01*
X123620869Y-26939946D01*
X123620867Y-26939947D01*
X123459947Y-27100867D01*
X123459946Y-27100869D01*
X123329434Y-27287262D01*
X123329426Y-27287276D01*
X123233262Y-27493499D01*
X123174363Y-27713315D01*
X123154532Y-27939996D01*
X123154532Y-27940000D01*
X120650000Y-27940000D01*
X120649999Y-27940000D01*
X33401001Y-27940000D01*
X33401000Y-27940000D01*
X33401000Y-25700500D01*
X125952405Y-25700500D01*
X125995139Y-25700500D01*
X126004842Y-25700976D01*
G37*
G04 #@! TD.AperFunction*
M02*
