G04 #@! TF.GenerationSoftware,KiCad,Pcbnew,7.0.10*
G04 #@! TF.CreationDate,2024-01-03T11:20:40+01:00*
G04 #@! TF.ProjectId,MAR,4d41522e-6b69-4636-9164-5f7063625858,rev?*
G04 #@! TF.SameCoordinates,Original*
G04 #@! TF.FileFunction,Soldermask,Bot*
G04 #@! TF.FilePolarity,Negative*
%FSLAX46Y46*%
G04 Gerber Fmt 4.6, Leading zero omitted, Abs format (unit mm)*
G04 Created by KiCad (PCBNEW 7.0.10) date 2024-01-03 11:20:40*
%MOMM*%
%LPD*%
G01*
G04 APERTURE LIST*
%ADD10R,1.700000X1.700000*%
%ADD11O,1.700000X1.700000*%
%ADD12C,2.200000*%
G04 APERTURE END LIST*
D10*
X62230000Y-69215000D03*
D11*
X64770000Y-69215000D03*
X62230000Y-71755000D03*
X64770000Y-71755000D03*
X62230000Y-74295000D03*
X64770000Y-74295000D03*
X62230000Y-76835000D03*
X64770000Y-76835000D03*
D10*
X62230000Y-86995000D03*
D11*
X64770000Y-86995000D03*
X62230000Y-89535000D03*
X64770000Y-89535000D03*
X62230000Y-92075000D03*
X64770000Y-92075000D03*
X62230000Y-94615000D03*
X64770000Y-94615000D03*
D10*
X62230000Y-51435000D03*
D11*
X64770000Y-51435000D03*
X62230000Y-53975000D03*
X64770000Y-53975000D03*
X62230000Y-56515000D03*
X64770000Y-56515000D03*
X62230000Y-59055000D03*
X64770000Y-59055000D03*
D12*
X124460000Y-99060000D03*
X124460000Y-27940000D03*
D10*
X29845000Y-33020000D03*
D11*
X27305000Y-33020000D03*
X29845000Y-35560000D03*
X27305000Y-35560000D03*
X29845000Y-38100000D03*
X27305000Y-38100000D03*
X29845000Y-40640000D03*
X27305000Y-40640000D03*
X29845000Y-43180000D03*
X27305000Y-43180000D03*
X29845000Y-45720000D03*
X27305000Y-45720000D03*
X29845000Y-48260000D03*
X27305000Y-48260000D03*
X29845000Y-50800000D03*
X27305000Y-50800000D03*
X29845000Y-53340000D03*
X27305000Y-53340000D03*
X29845000Y-55880000D03*
X27305000Y-55880000D03*
X29845000Y-58420000D03*
X27305000Y-58420000D03*
X29845000Y-60960000D03*
X27305000Y-60960000D03*
X29845000Y-63500000D03*
X27305000Y-63500000D03*
X29845000Y-66040000D03*
X27305000Y-66040000D03*
X29845000Y-68580000D03*
X27305000Y-68580000D03*
X29845000Y-71120000D03*
X27305000Y-71120000D03*
X29845000Y-73660000D03*
X27305000Y-73660000D03*
X29845000Y-76200000D03*
X27305000Y-76200000D03*
X29845000Y-78740000D03*
X27305000Y-78740000D03*
X29845000Y-81280000D03*
X27305000Y-81280000D03*
X29845000Y-83820000D03*
X27305000Y-83820000D03*
X29845000Y-86360000D03*
X27305000Y-86360000D03*
X29845000Y-88900000D03*
X27305000Y-88900000D03*
X29845000Y-91440000D03*
X27305000Y-91440000D03*
X29845000Y-93980000D03*
X27305000Y-93980000D03*
D10*
X123190000Y-54610000D03*
D11*
X123190000Y-57150000D03*
X123190000Y-59690000D03*
X123190000Y-62230000D03*
X123190000Y-64770000D03*
X123190000Y-67310000D03*
X123190000Y-69850000D03*
X123190000Y-72390000D03*
M02*
