G04 #@! TF.GenerationSoftware,KiCad,Pcbnew,7.0.10*
G04 #@! TF.CreationDate,2024-01-03T11:20:40+01:00*
G04 #@! TF.ProjectId,MAR,4d41522e-6b69-4636-9164-5f7063625858,rev?*
G04 #@! TF.SameCoordinates,Original*
G04 #@! TF.FileFunction,Soldermask,Top*
G04 #@! TF.FilePolarity,Negative*
%FSLAX46Y46*%
G04 Gerber Fmt 4.6, Leading zero omitted, Abs format (unit mm)*
G04 Created by KiCad (PCBNEW 7.0.10) date 2024-01-03 11:20:40*
%MOMM*%
%LPD*%
G01*
G04 APERTURE LIST*
G04 Aperture macros list*
%AMRoundRect*
0 Rectangle with rounded corners*
0 $1 Rounding radius*
0 $2 $3 $4 $5 $6 $7 $8 $9 X,Y pos of 4 corners*
0 Add a 4 corners polygon primitive as box body*
4,1,4,$2,$3,$4,$5,$6,$7,$8,$9,$2,$3,0*
0 Add four circle primitives for the rounded corners*
1,1,$1+$1,$2,$3*
1,1,$1+$1,$4,$5*
1,1,$1+$1,$6,$7*
1,1,$1+$1,$8,$9*
0 Add four rect primitives between the rounded corners*
20,1,$1+$1,$2,$3,$4,$5,0*
20,1,$1+$1,$4,$5,$6,$7,0*
20,1,$1+$1,$6,$7,$8,$9,0*
20,1,$1+$1,$8,$9,$2,$3,0*%
G04 Aperture macros list end*
%ADD10RoundRect,0.150000X-0.875000X-0.150000X0.875000X-0.150000X0.875000X0.150000X-0.875000X0.150000X0*%
%ADD11RoundRect,0.250000X-0.350000X-0.450000X0.350000X-0.450000X0.350000X0.450000X-0.350000X0.450000X0*%
%ADD12RoundRect,0.250000X-0.325000X-0.450000X0.325000X-0.450000X0.325000X0.450000X-0.325000X0.450000X0*%
%ADD13RoundRect,0.150000X-0.825000X-0.150000X0.825000X-0.150000X0.825000X0.150000X-0.825000X0.150000X0*%
%ADD14RoundRect,0.250000X0.337500X0.475000X-0.337500X0.475000X-0.337500X-0.475000X0.337500X-0.475000X0*%
%ADD15RoundRect,0.250000X-0.450000X0.325000X-0.450000X-0.325000X0.450000X-0.325000X0.450000X0.325000X0*%
%ADD16R,1.700000X1.700000*%
%ADD17O,1.700000X1.700000*%
%ADD18RoundRect,0.250000X-0.450000X0.350000X-0.450000X-0.350000X0.450000X-0.350000X0.450000X0.350000X0*%
%ADD19C,2.200000*%
%ADD20RoundRect,0.250000X-0.475000X0.337500X-0.475000X-0.337500X0.475000X-0.337500X0.475000X0.337500X0*%
%ADD21RoundRect,0.250000X-0.412500X-0.650000X0.412500X-0.650000X0.412500X0.650000X-0.412500X0.650000X0*%
G04 APERTURE END LIST*
D10*
X71550000Y-67945000D03*
X71550000Y-69215000D03*
X71550000Y-70485000D03*
X71550000Y-71755000D03*
X71550000Y-73025000D03*
X71550000Y-74295000D03*
X71550000Y-75565000D03*
X71550000Y-76835000D03*
X71550000Y-78105000D03*
X71550000Y-79375000D03*
X80850000Y-79375000D03*
X80850000Y-78105000D03*
X80850000Y-76835000D03*
X80850000Y-75565000D03*
X80850000Y-74295000D03*
X80850000Y-73025000D03*
X80850000Y-71755000D03*
X80850000Y-70485000D03*
X80850000Y-69215000D03*
X80850000Y-67945000D03*
D11*
X115840000Y-81280000D03*
X117840000Y-81280000D03*
D12*
X119625000Y-83820000D03*
X121675000Y-83820000D03*
D13*
X92775000Y-58420000D03*
X92775000Y-59690000D03*
X92775000Y-60960000D03*
X92775000Y-62230000D03*
X92775000Y-63500000D03*
X92775000Y-64770000D03*
X92775000Y-66040000D03*
X97725000Y-66040000D03*
X97725000Y-64770000D03*
X97725000Y-63500000D03*
X97725000Y-62230000D03*
X97725000Y-60960000D03*
X97725000Y-59690000D03*
X97725000Y-58420000D03*
D11*
X115840000Y-88900000D03*
X117840000Y-88900000D03*
D12*
X119625000Y-86360000D03*
X121675000Y-86360000D03*
X119625000Y-78740000D03*
X121675000Y-78740000D03*
X119625000Y-88900000D03*
X121675000Y-88900000D03*
D14*
X96266000Y-83185000D03*
X94191000Y-83185000D03*
D10*
X71550000Y-85725000D03*
X71550000Y-86995000D03*
X71550000Y-88265000D03*
X71550000Y-89535000D03*
X71550000Y-90805000D03*
X71550000Y-92075000D03*
X71550000Y-93345000D03*
X71550000Y-94615000D03*
X71550000Y-95885000D03*
X71550000Y-97155000D03*
X80850000Y-97155000D03*
X80850000Y-95885000D03*
X80850000Y-94615000D03*
X80850000Y-93345000D03*
X80850000Y-92075000D03*
X80850000Y-90805000D03*
X80850000Y-89535000D03*
X80850000Y-88265000D03*
X80850000Y-86995000D03*
X80850000Y-85725000D03*
D15*
X26797000Y-26661000D03*
X26797000Y-28711000D03*
D16*
X62230000Y-69215000D03*
D17*
X64770000Y-69215000D03*
X62230000Y-71755000D03*
X64770000Y-71755000D03*
X62230000Y-74295000D03*
X64770000Y-74295000D03*
X62230000Y-76835000D03*
X64770000Y-76835000D03*
D10*
X71550000Y-50165000D03*
X71550000Y-51435000D03*
X71550000Y-52705000D03*
X71550000Y-53975000D03*
X71550000Y-55245000D03*
X71550000Y-56515000D03*
X71550000Y-57785000D03*
X71550000Y-59055000D03*
X71550000Y-60325000D03*
X71550000Y-61595000D03*
X80850000Y-61595000D03*
X80850000Y-60325000D03*
X80850000Y-59055000D03*
X80850000Y-57785000D03*
X80850000Y-56515000D03*
X80850000Y-55245000D03*
X80850000Y-53975000D03*
X80850000Y-52705000D03*
X80850000Y-51435000D03*
X80850000Y-50165000D03*
D11*
X115840000Y-78740000D03*
X117840000Y-78740000D03*
X115840000Y-91440000D03*
X117840000Y-91440000D03*
D10*
X46150000Y-50165000D03*
X46150000Y-51435000D03*
X46150000Y-52705000D03*
X46150000Y-53975000D03*
X46150000Y-55245000D03*
X46150000Y-56515000D03*
X46150000Y-57785000D03*
X46150000Y-59055000D03*
X46150000Y-60325000D03*
X46150000Y-61595000D03*
X55450000Y-61595000D03*
X55450000Y-60325000D03*
X55450000Y-59055000D03*
X55450000Y-57785000D03*
X55450000Y-56515000D03*
X55450000Y-55245000D03*
X55450000Y-53975000D03*
X55450000Y-52705000D03*
X55450000Y-51435000D03*
X55450000Y-50165000D03*
D18*
X28956000Y-26711000D03*
X28956000Y-28711000D03*
D12*
X119625000Y-93980000D03*
X121675000Y-93980000D03*
D14*
X51837500Y-82550000D03*
X49762500Y-82550000D03*
D16*
X62230000Y-86995000D03*
D17*
X64770000Y-86995000D03*
X62230000Y-89535000D03*
X64770000Y-89535000D03*
X62230000Y-92075000D03*
X64770000Y-92075000D03*
X62230000Y-94615000D03*
X64770000Y-94615000D03*
D14*
X77237500Y-64770000D03*
X75162500Y-64770000D03*
X77237500Y-82550000D03*
X75162500Y-82550000D03*
X51837500Y-64770000D03*
X49762500Y-64770000D03*
D10*
X46150000Y-85725000D03*
X46150000Y-86995000D03*
X46150000Y-88265000D03*
X46150000Y-89535000D03*
X46150000Y-90805000D03*
X46150000Y-92075000D03*
X46150000Y-93345000D03*
X46150000Y-94615000D03*
X46150000Y-95885000D03*
X46150000Y-97155000D03*
X55450000Y-97155000D03*
X55450000Y-95885000D03*
X55450000Y-94615000D03*
X55450000Y-93345000D03*
X55450000Y-92075000D03*
X55450000Y-90805000D03*
X55450000Y-89535000D03*
X55450000Y-88265000D03*
X55450000Y-86995000D03*
X55450000Y-85725000D03*
D16*
X62230000Y-51435000D03*
D17*
X64770000Y-51435000D03*
X62230000Y-53975000D03*
X64770000Y-53975000D03*
X62230000Y-56515000D03*
X64770000Y-56515000D03*
X62230000Y-59055000D03*
X64770000Y-59055000D03*
D13*
X92775000Y-72390000D03*
X92775000Y-73660000D03*
X92775000Y-74930000D03*
X92775000Y-76200000D03*
X92775000Y-77470000D03*
X92775000Y-78740000D03*
X92775000Y-80010000D03*
X97725000Y-80010000D03*
X97725000Y-78740000D03*
X97725000Y-77470000D03*
X97725000Y-76200000D03*
X97725000Y-74930000D03*
X97725000Y-73660000D03*
X97725000Y-72390000D03*
D14*
X96287500Y-69215000D03*
X94212500Y-69215000D03*
D19*
X124460000Y-99060000D03*
D10*
X46150000Y-67945000D03*
X46150000Y-69215000D03*
X46150000Y-70485000D03*
X46150000Y-71755000D03*
X46150000Y-73025000D03*
X46150000Y-74295000D03*
X46150000Y-75565000D03*
X46150000Y-76835000D03*
X46150000Y-78105000D03*
X46150000Y-79375000D03*
X55450000Y-79375000D03*
X55450000Y-78105000D03*
X55450000Y-76835000D03*
X55450000Y-75565000D03*
X55450000Y-74295000D03*
X55450000Y-73025000D03*
X55450000Y-71755000D03*
X55450000Y-70485000D03*
X55450000Y-69215000D03*
X55450000Y-67945000D03*
D11*
X115840000Y-93980000D03*
X117840000Y-93980000D03*
X115840000Y-86360000D03*
X117840000Y-86360000D03*
D20*
X31242000Y-26636000D03*
X31242000Y-28711000D03*
D21*
X28028500Y-97917000D03*
X31153500Y-97917000D03*
D12*
X119625000Y-81280000D03*
X121675000Y-81280000D03*
D19*
X124460000Y-27940000D03*
D12*
X119625000Y-76200000D03*
X121675000Y-76200000D03*
D11*
X115840000Y-76200000D03*
X117840000Y-76200000D03*
D12*
X119625000Y-91440000D03*
X121675000Y-91440000D03*
D11*
X115840000Y-83820000D03*
X117840000Y-83820000D03*
D16*
X29845000Y-33020000D03*
D17*
X27305000Y-33020000D03*
X29845000Y-35560000D03*
X27305000Y-35560000D03*
X29845000Y-38100000D03*
X27305000Y-38100000D03*
X29845000Y-40640000D03*
X27305000Y-40640000D03*
X29845000Y-43180000D03*
X27305000Y-43180000D03*
X29845000Y-45720000D03*
X27305000Y-45720000D03*
X29845000Y-48260000D03*
X27305000Y-48260000D03*
X29845000Y-50800000D03*
X27305000Y-50800000D03*
X29845000Y-53340000D03*
X27305000Y-53340000D03*
X29845000Y-55880000D03*
X27305000Y-55880000D03*
X29845000Y-58420000D03*
X27305000Y-58420000D03*
X29845000Y-60960000D03*
X27305000Y-60960000D03*
X29845000Y-63500000D03*
X27305000Y-63500000D03*
X29845000Y-66040000D03*
X27305000Y-66040000D03*
X29845000Y-68580000D03*
X27305000Y-68580000D03*
X29845000Y-71120000D03*
X27305000Y-71120000D03*
X29845000Y-73660000D03*
X27305000Y-73660000D03*
X29845000Y-76200000D03*
X27305000Y-76200000D03*
X29845000Y-78740000D03*
X27305000Y-78740000D03*
X29845000Y-81280000D03*
X27305000Y-81280000D03*
X29845000Y-83820000D03*
X27305000Y-83820000D03*
X29845000Y-86360000D03*
X27305000Y-86360000D03*
X29845000Y-88900000D03*
X27305000Y-88900000D03*
X29845000Y-91440000D03*
X27305000Y-91440000D03*
X29845000Y-93980000D03*
X27305000Y-93980000D03*
D16*
X123190000Y-54610000D03*
D17*
X123190000Y-57150000D03*
X123190000Y-59690000D03*
X123190000Y-62230000D03*
X123190000Y-64770000D03*
X123190000Y-67310000D03*
X123190000Y-69850000D03*
X123190000Y-72390000D03*
M02*
