G04 #@! TF.GenerationSoftware,KiCad,Pcbnew,7.0.10*
G04 #@! TF.CreationDate,2024-01-04T18:16:09+01:00*
G04 #@! TF.ProjectId,Programcounter,50726f67-7261-46d6-936f-756e7465722e,rev?*
G04 #@! TF.SameCoordinates,Original*
G04 #@! TF.FileFunction,Copper,L2,Bot*
G04 #@! TF.FilePolarity,Positive*
%FSLAX46Y46*%
G04 Gerber Fmt 4.6, Leading zero omitted, Abs format (unit mm)*
G04 Created by KiCad (PCBNEW 7.0.10) date 2024-01-04 18:16:09*
%MOMM*%
%LPD*%
G01*
G04 APERTURE LIST*
G04 #@! TA.AperFunction,ComponentPad*
%ADD10R,1.700000X1.700000*%
G04 #@! TD*
G04 #@! TA.AperFunction,ComponentPad*
%ADD11O,1.700000X1.700000*%
G04 #@! TD*
G04 #@! TA.AperFunction,ViaPad*
%ADD12C,0.600000*%
G04 #@! TD*
G04 #@! TA.AperFunction,ViaPad*
%ADD13C,0.900000*%
G04 #@! TD*
G04 #@! TA.AperFunction,Conductor*
%ADD14C,0.127000*%
G04 #@! TD*
G04 #@! TA.AperFunction,Conductor*
%ADD15C,0.400000*%
G04 #@! TD*
G04 #@! TA.AperFunction,Conductor*
%ADD16C,1.500000*%
G04 #@! TD*
G04 APERTURE END LIST*
D10*
X63500001Y-60198000D03*
D11*
X63500001Y-57658000D03*
X66040001Y-60198000D03*
X66040001Y-57658000D03*
X68580001Y-60198000D03*
X68580001Y-57658000D03*
X71120001Y-60198000D03*
X71120001Y-57658000D03*
D10*
X45720000Y-60198000D03*
D11*
X45720000Y-57658000D03*
X48260000Y-60198000D03*
X48260000Y-57658000D03*
X50800000Y-60198000D03*
X50800000Y-57658000D03*
X53340000Y-60198000D03*
X53340000Y-57658000D03*
D10*
X81280000Y-60198000D03*
D11*
X81280000Y-57658000D03*
X83820000Y-60198000D03*
X83820000Y-57658000D03*
X86360000Y-60198000D03*
X86360000Y-57658000D03*
X88900000Y-60198000D03*
X88900000Y-57658000D03*
D10*
X29210000Y-54610000D03*
D11*
X29210000Y-57150000D03*
X29210000Y-59690000D03*
X29210000Y-62230000D03*
X29210000Y-64770000D03*
X29210000Y-67310000D03*
X29210000Y-69850000D03*
X29210000Y-72390000D03*
D10*
X125095000Y-33020000D03*
X122555000Y-33020000D03*
X125095000Y-35560000D03*
X122555000Y-35560000D03*
X125095000Y-38100000D03*
X122555000Y-38100000D03*
X125095000Y-40640000D03*
X122555000Y-40640000D03*
X125095000Y-43180000D03*
X122555000Y-43180000D03*
X125095000Y-45720000D03*
X122555000Y-45720000D03*
X125095000Y-48260000D03*
X122555000Y-48260000D03*
X125095000Y-50800000D03*
X122555000Y-50800000D03*
X125095000Y-53340000D03*
X122555000Y-53340000D03*
X125095000Y-55880000D03*
X122555000Y-55880000D03*
X125095000Y-58420000D03*
X122555000Y-58420000D03*
X125095000Y-60960000D03*
X122555000Y-60960000D03*
X125095000Y-63500000D03*
X122555000Y-63500000D03*
X125095000Y-66040000D03*
X122555000Y-66040000D03*
X125095000Y-68580000D03*
X122555000Y-68580000D03*
X125095000Y-71120000D03*
X122555000Y-71120000D03*
X125095000Y-73660000D03*
X122555000Y-73660000D03*
X125095000Y-76200000D03*
X122555000Y-76200000D03*
X125095000Y-78740000D03*
X122555000Y-78740000D03*
X125095000Y-81280000D03*
X122555000Y-81280000D03*
X125095000Y-83820000D03*
X122555000Y-83820000D03*
X125095000Y-86360000D03*
X122555000Y-86360000D03*
X125095000Y-88900000D03*
X122555000Y-88900000D03*
X125095000Y-91440000D03*
X122555000Y-91440000D03*
X125095000Y-93980000D03*
X122555000Y-93980000D03*
D12*
X105791000Y-81280000D03*
X102362000Y-81153000D03*
X69215000Y-40005000D03*
X86995000Y-40005000D03*
X69215000Y-28575000D03*
X86995000Y-28575000D03*
X51435000Y-28575000D03*
X51435000Y-40005000D03*
X62230000Y-80645000D03*
X69215000Y-81788000D03*
X44450000Y-98425000D03*
X55880000Y-80645000D03*
X43815000Y-81788000D03*
X81915000Y-81788000D03*
X40005000Y-52705000D03*
X64770000Y-80645000D03*
X90170000Y-80645000D03*
X57785000Y-76962000D03*
X83185000Y-76962000D03*
X45085000Y-76962000D03*
X82550000Y-98552000D03*
X92710000Y-81788000D03*
X88900000Y-81788000D03*
X95250000Y-98425000D03*
X57785000Y-36830000D03*
X70485000Y-76962000D03*
X54610000Y-81788000D03*
X101600000Y-81788000D03*
X57150000Y-98552000D03*
X94615000Y-81788000D03*
X38100000Y-81788000D03*
X95885000Y-76962000D03*
X41910000Y-81788000D03*
X75565000Y-40005000D03*
X69850000Y-98552000D03*
D13*
X122428000Y-27448000D03*
D12*
X93980000Y-80645000D03*
X29845000Y-46990000D03*
X56515000Y-81788000D03*
X108585000Y-76962000D03*
X43180000Y-80645000D03*
X80010000Y-81788000D03*
X100330000Y-80645000D03*
X107315000Y-81788000D03*
X81280000Y-80645000D03*
X49530000Y-80645000D03*
X40005000Y-38735000D03*
X67310000Y-81788000D03*
X39370000Y-80645000D03*
X68580000Y-80645000D03*
X76200000Y-81788000D03*
X107950000Y-98425000D03*
X63500000Y-81788000D03*
X87630000Y-80645000D03*
X50800000Y-81788000D03*
X36830000Y-80645000D03*
X52070000Y-80645000D03*
X106680000Y-80645000D03*
X74930000Y-80645000D03*
X77470000Y-80645000D03*
X71501000Y-41275000D03*
X79502000Y-41275000D03*
X61849000Y-41275000D03*
X53467000Y-41275000D03*
X44450000Y-69850000D03*
X38227000Y-43180000D03*
X107950000Y-69850000D03*
X82550000Y-69850000D03*
X57150000Y-69850000D03*
X33655000Y-69850000D03*
X69850000Y-69850000D03*
X95250000Y-69850000D03*
X49530000Y-74930000D03*
X33782000Y-74930000D03*
X62230000Y-74930000D03*
X38227000Y-45720000D03*
X36830000Y-74930000D03*
X87630000Y-74930000D03*
X74930000Y-74930000D03*
X100330000Y-74930000D03*
X38227000Y-50800000D03*
X48260000Y-81280000D03*
X60960000Y-81280000D03*
X73660000Y-81280000D03*
X33655000Y-81280000D03*
X86360000Y-81280000D03*
X99060000Y-81280000D03*
X35560000Y-81280000D03*
X36830000Y-82423000D03*
X37465000Y-82931000D03*
X40640000Y-83312000D03*
X41275000Y-83820000D03*
X49530000Y-83820000D03*
X50165000Y-84328000D03*
X53340000Y-84328000D03*
X53975000Y-84709000D03*
X62230000Y-87122000D03*
X62865000Y-87630000D03*
X66040000Y-87122000D03*
X66675000Y-87630000D03*
X74930000Y-87249000D03*
X75565000Y-87757000D03*
X78740000Y-87249000D03*
X79375000Y-87757000D03*
X87630000Y-87122000D03*
X88265000Y-87630000D03*
X91440000Y-87376000D03*
X92075000Y-87757000D03*
X100330000Y-87884000D03*
X100965000Y-88392000D03*
X104140000Y-88392000D03*
X104920000Y-88709853D03*
X46736000Y-46355000D03*
X46736000Y-45085000D03*
X46736000Y-43815000D03*
X46736000Y-42545000D03*
X64516001Y-51435000D03*
X64516001Y-50165000D03*
X64516001Y-48895000D03*
X64516001Y-47625000D03*
X46736000Y-51435000D03*
X46736000Y-50165000D03*
X46736000Y-48895000D03*
X46736000Y-47625000D03*
X82296000Y-46355000D03*
X82296000Y-45085000D03*
X82296000Y-43815000D03*
X82296000Y-42545000D03*
X64516001Y-46355000D03*
X64516001Y-45085000D03*
X64516001Y-43815000D03*
X64516001Y-42545000D03*
X82296000Y-51435000D03*
X82296000Y-50165000D03*
X82296000Y-48895000D03*
X82296000Y-47625000D03*
X55880000Y-68072000D03*
X36830000Y-68072000D03*
X68580000Y-68580000D03*
X49530000Y-68580000D03*
X81280000Y-67945000D03*
X62230000Y-67945000D03*
X74930000Y-68580000D03*
X93980000Y-68580000D03*
X87630000Y-67945000D03*
X106680000Y-67945000D03*
X102235000Y-77724000D03*
X33655000Y-77724000D03*
X38227000Y-48260000D03*
D14*
X102489000Y-81280000D02*
X102362000Y-81153000D01*
X105791000Y-81280000D02*
X102489000Y-81280000D01*
D15*
X51435000Y-40005000D02*
X51435000Y-28575000D01*
X86995000Y-40005000D02*
X86995000Y-28575000D01*
X69215000Y-40005000D02*
X69215000Y-28575000D01*
X44450000Y-98425000D02*
X44450000Y-100076000D01*
D14*
X101600000Y-81788000D02*
X107315000Y-81788000D01*
X100330000Y-80645000D02*
X106680000Y-80645000D01*
D15*
X45085000Y-76962000D02*
X57785000Y-76962000D01*
D14*
X87630000Y-80645000D02*
X90170000Y-80645000D01*
D15*
X40005000Y-52705000D02*
X40005000Y-38735000D01*
D14*
X49530000Y-80645000D02*
X52070000Y-80645000D01*
X92710000Y-81788000D02*
X94615000Y-81788000D01*
D15*
X57785000Y-36830000D02*
X57785000Y-27305000D01*
D14*
X74930000Y-80645000D02*
X77470000Y-80645000D01*
D15*
X107950000Y-98425000D02*
X107950000Y-99822000D01*
D14*
X50800000Y-81788000D02*
X54610000Y-81788000D01*
X38100000Y-81788000D02*
X41910000Y-81788000D01*
D15*
X82550000Y-98552000D02*
X82550000Y-99949000D01*
D14*
X63500000Y-81788000D02*
X67310000Y-81788000D01*
X39370000Y-80645000D02*
X43180000Y-80645000D01*
X64770000Y-80645000D02*
X68580000Y-80645000D01*
X67310000Y-81788000D02*
X69215000Y-81788000D01*
D16*
X122555000Y-94107000D02*
X122555000Y-100457000D01*
D15*
X70485000Y-76962000D02*
X83185000Y-76962000D01*
D14*
X76200000Y-81788000D02*
X80010000Y-81788000D01*
D15*
X75565000Y-40005000D02*
X75565000Y-27305000D01*
X57150000Y-98552000D02*
X57150000Y-99822000D01*
X83185000Y-76962000D02*
X95885000Y-76962000D01*
D14*
X36830000Y-80645000D02*
X39370000Y-80645000D01*
X29845000Y-46990000D02*
X26797000Y-46990000D01*
D15*
X95250000Y-98425000D02*
X95250000Y-99695000D01*
D14*
X90170000Y-80645000D02*
X93980000Y-80645000D01*
X41910000Y-81788000D02*
X43815000Y-81788000D01*
D15*
X69850000Y-98552000D02*
X69850000Y-99695000D01*
X57785000Y-76962000D02*
X70485000Y-76962000D01*
D14*
X62230000Y-80645000D02*
X64770000Y-80645000D01*
X52070000Y-80645000D02*
X55880000Y-80645000D01*
X88900000Y-81788000D02*
X92710000Y-81788000D01*
X77470000Y-80645000D02*
X81280000Y-80645000D01*
X80010000Y-81788000D02*
X81915000Y-81788000D01*
X54610000Y-81788000D02*
X56515000Y-81788000D01*
D15*
X95885000Y-76962000D02*
X108585000Y-76962000D01*
D14*
X79502000Y-41275000D02*
X71501000Y-41275000D01*
X61849000Y-41275000D02*
X53467000Y-41275000D01*
X95250000Y-69850000D02*
X82550000Y-69850000D01*
X35560000Y-43180000D02*
X35560000Y-57150000D01*
X57150000Y-69850000D02*
X44450000Y-69850000D01*
X35560000Y-57150000D02*
X29210000Y-57150000D01*
X69850000Y-69850000D02*
X57150000Y-69850000D01*
X82550000Y-69850000D02*
X69850000Y-69850000D01*
X107950000Y-69850000D02*
X95250000Y-69850000D01*
X38227000Y-43180000D02*
X35560000Y-43180000D01*
X44450000Y-69850000D02*
X33655000Y-69850000D01*
X62230000Y-74930000D02*
X49530000Y-74930000D01*
X49530000Y-74930000D02*
X36830000Y-74930000D01*
X87630000Y-74930000D02*
X74930000Y-74930000D01*
X100330000Y-74930000D02*
X87630000Y-74930000D01*
X36830000Y-74930000D02*
X33782000Y-74930000D01*
X38227000Y-45720000D02*
X36195000Y-45720000D01*
X36195000Y-45720000D02*
X36195000Y-59690000D01*
X36195000Y-59690000D02*
X29210000Y-59690000D01*
X74930000Y-74930000D02*
X62230000Y-74930000D01*
X38227000Y-50800000D02*
X38227000Y-64770000D01*
X48260000Y-81280000D02*
X60960000Y-81280000D01*
X35560000Y-81280000D02*
X48260000Y-81280000D01*
X38227000Y-64770000D02*
X29210000Y-64770000D01*
X73660000Y-81280000D02*
X86360000Y-81280000D01*
X35560000Y-81280000D02*
X33655000Y-81280000D01*
X86360000Y-81280000D02*
X99060000Y-81280000D01*
X60960000Y-81280000D02*
X73660000Y-81280000D01*
X83439000Y-82423000D02*
X83566000Y-82550000D01*
X112268000Y-62103000D02*
X123698000Y-62103000D01*
X112268000Y-82550000D02*
X112268000Y-62103000D01*
X123698000Y-62103000D02*
X125095000Y-63500000D01*
X83566000Y-82550000D02*
X112268000Y-82550000D01*
X36830000Y-82423000D02*
X83439000Y-82423000D01*
X37465000Y-82931000D02*
X37592000Y-82804000D01*
X112522000Y-82804000D02*
X112522000Y-63627000D01*
X112522000Y-63627000D02*
X112649000Y-63500000D01*
X112649000Y-63500000D02*
X122555000Y-63500000D01*
X37592000Y-82804000D02*
X112522000Y-82804000D01*
X112776000Y-83058000D02*
X112776000Y-64770000D01*
X112776000Y-64770000D02*
X123366000Y-64770000D01*
X123366000Y-64770000D02*
X124636000Y-66040000D01*
X40894000Y-83058000D02*
X112776000Y-83058000D01*
X40640000Y-83312000D02*
X40894000Y-83058000D01*
X124636000Y-66040000D02*
X125095000Y-66040000D01*
X41783000Y-83312000D02*
X113030000Y-83312000D01*
X113030000Y-83312000D02*
X113030000Y-66040000D01*
X113030000Y-66040000D02*
X122555000Y-66040000D01*
X41275000Y-83820000D02*
X41783000Y-83312000D01*
X49530000Y-83820000D02*
X49784000Y-83566000D01*
X49784000Y-83566000D02*
X113284000Y-83566000D01*
X113284000Y-83566000D02*
X113284000Y-67310000D01*
X123825000Y-67310000D02*
X125095000Y-68580000D01*
X113284000Y-67310000D02*
X123825000Y-67310000D01*
X113538000Y-83820000D02*
X113538000Y-68707000D01*
X113538000Y-68707000D02*
X113665000Y-68580000D01*
X50165000Y-84328000D02*
X50673000Y-83820000D01*
X113665000Y-68580000D02*
X122555000Y-68580000D01*
X50673000Y-83820000D02*
X113538000Y-83820000D01*
X123366000Y-69850000D02*
X124636000Y-71120000D01*
X53340000Y-84328000D02*
X53594000Y-84074000D01*
X113792000Y-69850000D02*
X123366000Y-69850000D01*
X53594000Y-84074000D02*
X113792000Y-84074000D01*
X113792000Y-84074000D02*
X113792000Y-69850000D01*
X124636000Y-71120000D02*
X125095000Y-71120000D01*
X53975000Y-84709000D02*
X54356000Y-84328000D01*
X114046000Y-84328000D02*
X114046000Y-71120000D01*
X114046000Y-71120000D02*
X122555000Y-71120000D01*
X54356000Y-84328000D02*
X114046000Y-84328000D01*
X114300000Y-72390000D02*
X123825000Y-72390000D01*
X123825000Y-72390000D02*
X125095000Y-73660000D01*
X62230000Y-84582000D02*
X114300000Y-84582000D01*
X62230000Y-87122000D02*
X62230000Y-84582000D01*
X114300000Y-84582000D02*
X114300000Y-72390000D01*
X62865000Y-84836000D02*
X114554000Y-84836000D01*
X114554000Y-84836000D02*
X114554000Y-73660000D01*
X114554000Y-73660000D02*
X122555000Y-73660000D01*
X62865000Y-87630000D02*
X62865000Y-84836000D01*
X66040000Y-85090000D02*
X114808000Y-85090000D01*
X114808000Y-85090000D02*
X114808000Y-74930000D01*
X66040000Y-87122000D02*
X66040000Y-85090000D01*
X114808000Y-74930000D02*
X123825000Y-74930000D01*
X123825000Y-74930000D02*
X125095000Y-76200000D01*
X115062000Y-85344000D02*
X115062000Y-76200000D01*
X66675000Y-87630000D02*
X66675000Y-85344000D01*
X115062000Y-76200000D02*
X122555000Y-76200000D01*
X66675000Y-85344000D02*
X115062000Y-85344000D01*
X74930000Y-87249000D02*
X74930000Y-85598000D01*
X115316000Y-77470000D02*
X123825000Y-77470000D01*
X123825000Y-77470000D02*
X125095000Y-78740000D01*
X115316000Y-85598000D02*
X115316000Y-77470000D01*
X74930000Y-85598000D02*
X115316000Y-85598000D01*
X115570000Y-85852000D02*
X115570000Y-78740000D01*
X75565000Y-87757000D02*
X75565000Y-85852000D01*
X115570000Y-78740000D02*
X122555000Y-78740000D01*
X75565000Y-85852000D02*
X115570000Y-85852000D01*
X115824000Y-80010000D02*
X123849500Y-80010000D01*
X123849500Y-80010000D02*
X125095000Y-81255500D01*
X115824000Y-86106000D02*
X115824000Y-80010000D01*
X125095000Y-81255500D02*
X125095000Y-81280000D01*
X78740000Y-86106000D02*
X115824000Y-86106000D01*
X78740000Y-87249000D02*
X78740000Y-86106000D01*
X116078000Y-86360000D02*
X116078000Y-81280000D01*
X116078000Y-81280000D02*
X122555000Y-81280000D01*
X79375000Y-87757000D02*
X79375000Y-86360000D01*
X79375000Y-86360000D02*
X116078000Y-86360000D01*
X87630000Y-87122000D02*
X87630000Y-86614000D01*
X116332000Y-82550000D02*
X123825000Y-82550000D01*
X123825000Y-82550000D02*
X125095000Y-83820000D01*
X116332000Y-86614000D02*
X116332000Y-82550000D01*
X87630000Y-86614000D02*
X116332000Y-86614000D01*
X88265000Y-86868000D02*
X116586000Y-86868000D01*
X116586000Y-83820000D02*
X122555000Y-83820000D01*
X116586000Y-86868000D02*
X116586000Y-83820000D01*
X88265000Y-87630000D02*
X88265000Y-86868000D01*
X116840000Y-87122000D02*
X116840000Y-85090000D01*
X123825000Y-85090000D02*
X125095000Y-86360000D01*
X91440000Y-87122000D02*
X116840000Y-87122000D01*
X91440000Y-87376000D02*
X91440000Y-87122000D01*
X116840000Y-85090000D02*
X123825000Y-85090000D01*
X117094000Y-86360000D02*
X122555000Y-86360000D01*
X92075000Y-87757000D02*
X92075000Y-87376000D01*
X92075000Y-87376000D02*
X117094000Y-87376000D01*
X117094000Y-87376000D02*
X117094000Y-86360000D01*
X123825000Y-87630000D02*
X125095000Y-88900000D01*
X100330000Y-87884000D02*
X100330000Y-87630000D01*
X100330000Y-87630000D02*
X123825000Y-87630000D01*
X117094000Y-87884000D02*
X117094000Y-88900000D01*
X100965000Y-88392000D02*
X100965000Y-87884000D01*
X100965000Y-87884000D02*
X117094000Y-87884000D01*
X117094000Y-88900000D02*
X122555000Y-88900000D01*
X116713000Y-90170000D02*
X123825000Y-90170000D01*
X104140000Y-88392000D02*
X104140000Y-88138000D01*
X104140000Y-88138000D02*
X116713000Y-88138000D01*
X123825000Y-90170000D02*
X125095000Y-91440000D01*
X116713000Y-88138000D02*
X116713000Y-90170000D01*
X116459000Y-91440000D02*
X122555000Y-91440000D01*
X105237853Y-88392000D02*
X116459000Y-88392000D01*
X104920000Y-88709853D02*
X105237853Y-88392000D01*
X116459000Y-88392000D02*
X116459000Y-91440000D01*
X44958000Y-46355000D02*
X44958000Y-55880000D01*
X44958000Y-55880000D02*
X48260000Y-55880000D01*
X48260000Y-55880000D02*
X48260000Y-57658000D01*
X46736000Y-46355000D02*
X44958000Y-46355000D01*
X44577000Y-45085000D02*
X44577000Y-56388000D01*
X47117000Y-59055000D02*
X48260000Y-60198000D01*
X46736000Y-45085000D02*
X44577000Y-45085000D01*
X47117000Y-56388000D02*
X47117000Y-59055000D01*
X44577000Y-56388000D02*
X47117000Y-56388000D01*
X46736000Y-43815000D02*
X44196000Y-43815000D01*
X44196000Y-43815000D02*
X44196000Y-57658000D01*
X44196000Y-57658000D02*
X45720000Y-57658000D01*
X46736000Y-42545000D02*
X43815000Y-42545000D01*
X43815000Y-60198000D02*
X45720000Y-60198000D01*
X43815000Y-42545000D02*
X43815000Y-60198000D01*
X71120001Y-54356000D02*
X71120001Y-57658000D01*
X64516001Y-51435000D02*
X64516001Y-54356000D01*
X64516001Y-54356000D02*
X71120001Y-54356000D01*
X69723001Y-58801000D02*
X71120001Y-60198000D01*
X63881001Y-54737000D02*
X69723001Y-54737000D01*
X69723001Y-54737000D02*
X69723001Y-58801000D01*
X63881001Y-50165000D02*
X63881001Y-54737000D01*
X64516001Y-50165000D02*
X63881001Y-50165000D01*
X63500001Y-48895000D02*
X63500001Y-55118000D01*
X63500001Y-55118000D02*
X68580001Y-55118000D01*
X64516001Y-48895000D02*
X63500001Y-48895000D01*
X68580001Y-55118000D02*
X68580001Y-57658000D01*
X63119001Y-47625000D02*
X63119001Y-55499000D01*
X64516001Y-47625000D02*
X63119001Y-47625000D01*
X63119001Y-55499000D02*
X67183001Y-55499000D01*
X67183001Y-55499000D02*
X67183001Y-58801000D01*
X67183001Y-58801000D02*
X68580001Y-60198000D01*
X53340000Y-54356000D02*
X53340000Y-57658000D01*
X46736000Y-51435000D02*
X46736000Y-54356000D01*
X46736000Y-54356000D02*
X53340000Y-54356000D01*
X46101000Y-54737000D02*
X51943000Y-54737000D01*
X51943000Y-58801000D02*
X53340000Y-60198000D01*
X46736000Y-50165000D02*
X46101000Y-50165000D01*
X46101000Y-50165000D02*
X46101000Y-54737000D01*
X51943000Y-54737000D02*
X51943000Y-58801000D01*
X46736000Y-48895000D02*
X45720000Y-48895000D01*
X50800000Y-55118000D02*
X50800000Y-57658000D01*
X45720000Y-55118000D02*
X50800000Y-55118000D01*
X45720000Y-48895000D02*
X45720000Y-55118000D01*
X49403000Y-55499000D02*
X49403000Y-58801000D01*
X49403000Y-58801000D02*
X50800000Y-60198000D01*
X46736000Y-47625000D02*
X45339000Y-47625000D01*
X45339000Y-47625000D02*
X45339000Y-55499000D01*
X45339000Y-55499000D02*
X49403000Y-55499000D01*
X80518000Y-55880000D02*
X83820000Y-55880000D01*
X80518000Y-46355000D02*
X80518000Y-55880000D01*
X82296000Y-46355000D02*
X80518000Y-46355000D01*
X83820000Y-55880000D02*
X83820000Y-57658000D01*
X82677000Y-56388000D02*
X82677000Y-59055000D01*
X82296000Y-45085000D02*
X80137000Y-45085000D01*
X80137000Y-45085000D02*
X80137000Y-56388000D01*
X82677000Y-59055000D02*
X83820000Y-60198000D01*
X80137000Y-56388000D02*
X82677000Y-56388000D01*
X79756000Y-43815000D02*
X79756000Y-57658000D01*
X82296000Y-43815000D02*
X79756000Y-43815000D01*
X79756000Y-57658000D02*
X81280000Y-57658000D01*
X79375000Y-42545000D02*
X79375000Y-60198000D01*
X82296000Y-42545000D02*
X79375000Y-42545000D01*
X79375000Y-60198000D02*
X81280000Y-60198000D01*
X66040001Y-55880000D02*
X66040001Y-57658000D01*
X64516001Y-46355000D02*
X62738001Y-46355000D01*
X62738001Y-55880000D02*
X66040001Y-55880000D01*
X62738001Y-46355000D02*
X62738001Y-55880000D01*
X64897001Y-56388000D02*
X64897001Y-59055000D01*
X62357001Y-56388000D02*
X64897001Y-56388000D01*
X64897001Y-59055000D02*
X66040001Y-60198000D01*
X62357001Y-45085000D02*
X62357001Y-56388000D01*
X64516001Y-45085000D02*
X62357001Y-45085000D01*
X61976001Y-43815000D02*
X61976001Y-57658000D01*
X61976001Y-57658000D02*
X63500001Y-57658000D01*
X64516001Y-43815000D02*
X61976001Y-43815000D01*
X61595001Y-60198000D02*
X63500001Y-60198000D01*
X64516001Y-42545000D02*
X61595001Y-42545000D01*
X61595001Y-42545000D02*
X61595001Y-60198000D01*
X82296000Y-51435000D02*
X82296000Y-54356000D01*
X82296000Y-54356000D02*
X88900000Y-54356000D01*
X88900000Y-54356000D02*
X88900000Y-57658000D01*
X82296000Y-50165000D02*
X81661000Y-50165000D01*
X81661000Y-50165000D02*
X81661000Y-54737000D01*
X81661000Y-54737000D02*
X87503000Y-54737000D01*
X87503000Y-54737000D02*
X87503000Y-58801000D01*
X87503000Y-58801000D02*
X88900000Y-60198000D01*
X81280000Y-55118000D02*
X86360000Y-55118000D01*
X81280000Y-48895000D02*
X81280000Y-55118000D01*
X82296000Y-48895000D02*
X81280000Y-48895000D01*
X86360000Y-55118000D02*
X86360000Y-57658000D01*
X82296000Y-47625000D02*
X80899000Y-47625000D01*
X84963000Y-58801000D02*
X86360000Y-60198000D01*
X84963000Y-55499000D02*
X84963000Y-58801000D01*
X80899000Y-55499000D02*
X84963000Y-55499000D01*
X80899000Y-47625000D02*
X80899000Y-55499000D01*
X55880000Y-68072000D02*
X36830000Y-68072000D01*
X68580000Y-68580000D02*
X49530000Y-68580000D01*
X81280000Y-67945000D02*
X62230000Y-67945000D01*
X93980000Y-68580000D02*
X74930000Y-68580000D01*
X106680000Y-67945000D02*
X87630000Y-67945000D01*
X102235000Y-77724000D02*
X33655000Y-77724000D01*
X36957000Y-62230000D02*
X29210000Y-62230000D01*
X38227000Y-48260000D02*
X36957000Y-48260000D01*
X36957000Y-48260000D02*
X36957000Y-62230000D01*
G04 #@! TA.AperFunction,Conductor*
G36*
X125730000Y-25700688D02*
G01*
X125730000Y-27940000D01*
X31750000Y-27940000D01*
X27940000Y-31750000D01*
X27940000Y-95250000D01*
X31750000Y-99060000D01*
X125730000Y-99060000D01*
X125730000Y-101299311D01*
X125725681Y-101299500D01*
X26674319Y-101299500D01*
X26665691Y-101299123D01*
X26604100Y-101293734D01*
X26510279Y-101285526D01*
X26493285Y-101282530D01*
X26346777Y-101243273D01*
X26330561Y-101237371D01*
X26193097Y-101173271D01*
X26178152Y-101164642D01*
X26053915Y-101077650D01*
X26040695Y-101066558D01*
X25933441Y-100959304D01*
X25922349Y-100946084D01*
X25835357Y-100821847D01*
X25826728Y-100806902D01*
X25762628Y-100669438D01*
X25756726Y-100653222D01*
X25717467Y-100506707D01*
X25714474Y-100489726D01*
X25700877Y-100334309D01*
X25700500Y-100325681D01*
X25700500Y-99060000D01*
X26634532Y-99060000D01*
X26654363Y-99286684D01*
X26713262Y-99506500D01*
X26809426Y-99712723D01*
X26809434Y-99712737D01*
X26939946Y-99899130D01*
X26939947Y-99899132D01*
X26939950Y-99899135D01*
X26939953Y-99899139D01*
X27100861Y-100060047D01*
X27100864Y-100060049D01*
X27100867Y-100060052D01*
X27100869Y-100060053D01*
X27225131Y-100147061D01*
X27287266Y-100190568D01*
X27287272Y-100190571D01*
X27287276Y-100190573D01*
X27493500Y-100286737D01*
X27493504Y-100286739D01*
X27713308Y-100345635D01*
X27713312Y-100345635D01*
X27713315Y-100345636D01*
X27883208Y-100360500D01*
X27883216Y-100360500D01*
X27996792Y-100360500D01*
X28166684Y-100345636D01*
X28166685Y-100345635D01*
X28166692Y-100345635D01*
X28386496Y-100286739D01*
X28592734Y-100190568D01*
X28779139Y-100060047D01*
X28940047Y-99899139D01*
X29070568Y-99712734D01*
X29166739Y-99506496D01*
X29225635Y-99286692D01*
X29245468Y-99060000D01*
X29225635Y-98833308D01*
X29166739Y-98613504D01*
X29070568Y-98407266D01*
X28940053Y-98220869D01*
X28940052Y-98220867D01*
X28940049Y-98220864D01*
X28940047Y-98220861D01*
X28779139Y-98059953D01*
X28779135Y-98059950D01*
X28779132Y-98059947D01*
X28779130Y-98059946D01*
X28592737Y-97929434D01*
X28592736Y-97929433D01*
X28592734Y-97929432D01*
X28592731Y-97929430D01*
X28592723Y-97929426D01*
X28386499Y-97833262D01*
X28386500Y-97833262D01*
X28313228Y-97813629D01*
X28166692Y-97774365D01*
X28166691Y-97774364D01*
X28166684Y-97774363D01*
X27996792Y-97759500D01*
X27996784Y-97759500D01*
X27883216Y-97759500D01*
X27883208Y-97759500D01*
X27713315Y-97774363D01*
X27493499Y-97833262D01*
X27287276Y-97929426D01*
X27287262Y-97929434D01*
X27100869Y-98059946D01*
X27100867Y-98059947D01*
X26939947Y-98220867D01*
X26939946Y-98220869D01*
X26809434Y-98407262D01*
X26809426Y-98407276D01*
X26713262Y-98613499D01*
X26654363Y-98833315D01*
X26634532Y-99059996D01*
X26634532Y-99060000D01*
X25700500Y-99060000D01*
X25700500Y-27940000D01*
X26634532Y-27940000D01*
X26654363Y-28166684D01*
X26713262Y-28386500D01*
X26809426Y-28592723D01*
X26809434Y-28592737D01*
X26939946Y-28779130D01*
X26939947Y-28779132D01*
X26939950Y-28779135D01*
X26939953Y-28779139D01*
X27100861Y-28940047D01*
X27100864Y-28940049D01*
X27100867Y-28940052D01*
X27100869Y-28940053D01*
X27225131Y-29027061D01*
X27287266Y-29070568D01*
X27287272Y-29070571D01*
X27287276Y-29070573D01*
X27493500Y-29166737D01*
X27493504Y-29166739D01*
X27713308Y-29225635D01*
X27713312Y-29225635D01*
X27713315Y-29225636D01*
X27883208Y-29240500D01*
X27883216Y-29240500D01*
X27996792Y-29240500D01*
X28166684Y-29225636D01*
X28166685Y-29225635D01*
X28166692Y-29225635D01*
X28386496Y-29166739D01*
X28592734Y-29070568D01*
X28779139Y-28940047D01*
X28940047Y-28779139D01*
X29070568Y-28592734D01*
X29166739Y-28386496D01*
X29225635Y-28166692D01*
X29230154Y-28115047D01*
X29245468Y-27940000D01*
X29245468Y-27939996D01*
X29225636Y-27713315D01*
X29225635Y-27713312D01*
X29225635Y-27713308D01*
X29166739Y-27493504D01*
X29070568Y-27287266D01*
X28940053Y-27100869D01*
X28940052Y-27100867D01*
X28940049Y-27100864D01*
X28940047Y-27100861D01*
X28779139Y-26939953D01*
X28779135Y-26939950D01*
X28779132Y-26939947D01*
X28779130Y-26939946D01*
X28592737Y-26809434D01*
X28592736Y-26809433D01*
X28592734Y-26809432D01*
X28592731Y-26809430D01*
X28592723Y-26809426D01*
X28386499Y-26713262D01*
X28386500Y-26713262D01*
X28225043Y-26670000D01*
X28166692Y-26654365D01*
X28166691Y-26654364D01*
X28166684Y-26654363D01*
X27996792Y-26639500D01*
X27996784Y-26639500D01*
X27883216Y-26639500D01*
X27883208Y-26639500D01*
X27713315Y-26654363D01*
X27493499Y-26713262D01*
X27287276Y-26809426D01*
X27287262Y-26809434D01*
X27100869Y-26939946D01*
X27100867Y-26939947D01*
X26939947Y-27100867D01*
X26939946Y-27100869D01*
X26809434Y-27287262D01*
X26809426Y-27287276D01*
X26713262Y-27493499D01*
X26654363Y-27713315D01*
X26634532Y-27939996D01*
X26634532Y-27940000D01*
X25700500Y-27940000D01*
X25700500Y-26674318D01*
X25700877Y-26665690D01*
X25703168Y-26639500D01*
X25714474Y-26510271D01*
X25717467Y-26493294D01*
X25756727Y-26346773D01*
X25762626Y-26330565D01*
X25826732Y-26193088D01*
X25835351Y-26178160D01*
X25922354Y-26053908D01*
X25933435Y-26040701D01*
X26040701Y-25933435D01*
X26053908Y-25922354D01*
X26178160Y-25835351D01*
X26193088Y-25826732D01*
X26330565Y-25762626D01*
X26346773Y-25756727D01*
X26493294Y-25717467D01*
X26510271Y-25714474D01*
X26665691Y-25700877D01*
X26674319Y-25700500D01*
X26717595Y-25700500D01*
X125682405Y-25700500D01*
X125725681Y-25700500D01*
X125730000Y-25700688D01*
G37*
G04 #@! TD.AperFunction*
G04 #@! TA.AperFunction,Conductor*
G36*
X125734309Y-25700877D02*
G01*
X125889726Y-25714474D01*
X125906707Y-25717467D01*
X126053222Y-25756726D01*
X126069437Y-25762627D01*
X126206905Y-25826730D01*
X126221843Y-25835355D01*
X126336184Y-25915417D01*
X126346084Y-25922349D01*
X126359304Y-25933441D01*
X126466558Y-26040695D01*
X126477650Y-26053915D01*
X126564642Y-26178152D01*
X126573271Y-26193097D01*
X126637371Y-26330561D01*
X126643273Y-26346777D01*
X126682530Y-26493285D01*
X126685526Y-26510279D01*
X126699123Y-26665689D01*
X126699500Y-26674318D01*
X126699500Y-100325681D01*
X126699123Y-100334310D01*
X126685526Y-100489720D01*
X126682530Y-100506714D01*
X126643273Y-100653222D01*
X126637371Y-100669438D01*
X126573271Y-100806902D01*
X126564642Y-100821847D01*
X126477650Y-100946084D01*
X126466558Y-100959304D01*
X126359304Y-101066558D01*
X126346084Y-101077650D01*
X126221847Y-101164642D01*
X126206902Y-101173271D01*
X126069438Y-101237371D01*
X126053222Y-101243273D01*
X125906714Y-101282530D01*
X125889720Y-101285526D01*
X125777099Y-101295379D01*
X125734308Y-101299123D01*
X125730000Y-101299311D01*
X125730000Y-95129500D01*
X125748907Y-95071309D01*
X125798407Y-95035345D01*
X125829000Y-95030500D01*
X125964747Y-95030500D01*
X125964748Y-95030500D01*
X126023231Y-95018867D01*
X126089552Y-94974552D01*
X126133867Y-94908231D01*
X126145500Y-94849748D01*
X126145500Y-93110252D01*
X126133867Y-93051769D01*
X126089552Y-92985448D01*
X126089548Y-92985445D01*
X126023233Y-92941134D01*
X126023231Y-92941133D01*
X126023228Y-92941132D01*
X126023227Y-92941132D01*
X125964758Y-92929501D01*
X125964748Y-92929500D01*
X125829000Y-92929500D01*
X125770809Y-92910593D01*
X125734845Y-92861093D01*
X125730000Y-92830500D01*
X125730000Y-92589500D01*
X125748907Y-92531309D01*
X125798407Y-92495345D01*
X125829000Y-92490500D01*
X125964747Y-92490500D01*
X125964748Y-92490500D01*
X126023231Y-92478867D01*
X126089552Y-92434552D01*
X126133867Y-92368231D01*
X126145500Y-92309748D01*
X126145500Y-90570252D01*
X126133867Y-90511769D01*
X126089552Y-90445448D01*
X126089548Y-90445445D01*
X126023233Y-90401134D01*
X126023231Y-90401133D01*
X126023228Y-90401132D01*
X126023227Y-90401132D01*
X125964758Y-90389501D01*
X125964748Y-90389500D01*
X125829000Y-90389500D01*
X125770809Y-90370593D01*
X125734845Y-90321093D01*
X125730000Y-90290500D01*
X125730000Y-90049500D01*
X125748907Y-89991309D01*
X125798407Y-89955345D01*
X125829000Y-89950500D01*
X125964747Y-89950500D01*
X125964748Y-89950500D01*
X126023231Y-89938867D01*
X126089552Y-89894552D01*
X126133867Y-89828231D01*
X126145500Y-89769748D01*
X126145500Y-88030252D01*
X126133867Y-87971769D01*
X126089552Y-87905448D01*
X126089548Y-87905445D01*
X126023233Y-87861134D01*
X126023231Y-87861133D01*
X126023228Y-87861132D01*
X126023227Y-87861132D01*
X125964758Y-87849501D01*
X125964748Y-87849500D01*
X125829000Y-87849500D01*
X125770809Y-87830593D01*
X125734845Y-87781093D01*
X125730000Y-87750500D01*
X125730000Y-87509500D01*
X125748907Y-87451309D01*
X125798407Y-87415345D01*
X125829000Y-87410500D01*
X125964747Y-87410500D01*
X125964748Y-87410500D01*
X126023231Y-87398867D01*
X126089552Y-87354552D01*
X126133867Y-87288231D01*
X126145500Y-87229748D01*
X126145500Y-85490252D01*
X126133867Y-85431769D01*
X126089552Y-85365448D01*
X126089548Y-85365445D01*
X126023233Y-85321134D01*
X126023231Y-85321133D01*
X126023228Y-85321132D01*
X126023227Y-85321132D01*
X125964758Y-85309501D01*
X125964748Y-85309500D01*
X125829000Y-85309500D01*
X125770809Y-85290593D01*
X125734845Y-85241093D01*
X125730000Y-85210500D01*
X125730000Y-84969500D01*
X125748907Y-84911309D01*
X125798407Y-84875345D01*
X125829000Y-84870500D01*
X125964747Y-84870500D01*
X125964748Y-84870500D01*
X126023231Y-84858867D01*
X126089552Y-84814552D01*
X126133867Y-84748231D01*
X126145500Y-84689748D01*
X126145500Y-82950252D01*
X126133867Y-82891769D01*
X126089552Y-82825448D01*
X126089548Y-82825445D01*
X126023233Y-82781134D01*
X126023231Y-82781133D01*
X126023228Y-82781132D01*
X126023227Y-82781132D01*
X125964758Y-82769501D01*
X125964748Y-82769500D01*
X125829000Y-82769500D01*
X125770809Y-82750593D01*
X125734845Y-82701093D01*
X125730000Y-82670500D01*
X125730000Y-82429500D01*
X125748907Y-82371309D01*
X125798407Y-82335345D01*
X125829000Y-82330500D01*
X125964747Y-82330500D01*
X125964748Y-82330500D01*
X126023231Y-82318867D01*
X126089552Y-82274552D01*
X126133867Y-82208231D01*
X126145500Y-82149748D01*
X126145500Y-80410252D01*
X126133867Y-80351769D01*
X126089552Y-80285448D01*
X126089548Y-80285445D01*
X126023233Y-80241134D01*
X126023231Y-80241133D01*
X126023228Y-80241132D01*
X126023227Y-80241132D01*
X125964758Y-80229501D01*
X125964748Y-80229500D01*
X125829000Y-80229500D01*
X125770809Y-80210593D01*
X125734845Y-80161093D01*
X125730000Y-80130500D01*
X125730000Y-79889500D01*
X125748907Y-79831309D01*
X125798407Y-79795345D01*
X125829000Y-79790500D01*
X125964747Y-79790500D01*
X125964748Y-79790500D01*
X126023231Y-79778867D01*
X126089552Y-79734552D01*
X126133867Y-79668231D01*
X126145500Y-79609748D01*
X126145500Y-77870252D01*
X126133867Y-77811769D01*
X126089552Y-77745448D01*
X126089548Y-77745445D01*
X126023233Y-77701134D01*
X126023231Y-77701133D01*
X126023228Y-77701132D01*
X126023227Y-77701132D01*
X125964758Y-77689501D01*
X125964748Y-77689500D01*
X125829000Y-77689500D01*
X125770809Y-77670593D01*
X125734845Y-77621093D01*
X125730000Y-77590500D01*
X125730000Y-77349500D01*
X125748907Y-77291309D01*
X125798407Y-77255345D01*
X125829000Y-77250500D01*
X125964747Y-77250500D01*
X125964748Y-77250500D01*
X126023231Y-77238867D01*
X126089552Y-77194552D01*
X126133867Y-77128231D01*
X126145500Y-77069748D01*
X126145500Y-75330252D01*
X126133867Y-75271769D01*
X126089552Y-75205448D01*
X126089548Y-75205445D01*
X126023233Y-75161134D01*
X126023231Y-75161133D01*
X126023228Y-75161132D01*
X126023227Y-75161132D01*
X125964758Y-75149501D01*
X125964748Y-75149500D01*
X125829000Y-75149500D01*
X125770809Y-75130593D01*
X125734845Y-75081093D01*
X125730000Y-75050500D01*
X125730000Y-74809500D01*
X125748907Y-74751309D01*
X125798407Y-74715345D01*
X125829000Y-74710500D01*
X125964747Y-74710500D01*
X125964748Y-74710500D01*
X126023231Y-74698867D01*
X126089552Y-74654552D01*
X126133867Y-74588231D01*
X126145500Y-74529748D01*
X126145500Y-72790252D01*
X126133867Y-72731769D01*
X126089552Y-72665448D01*
X126089548Y-72665445D01*
X126023233Y-72621134D01*
X126023231Y-72621133D01*
X126023228Y-72621132D01*
X126023227Y-72621132D01*
X125964758Y-72609501D01*
X125964748Y-72609500D01*
X125829000Y-72609500D01*
X125770809Y-72590593D01*
X125734845Y-72541093D01*
X125730000Y-72510500D01*
X125730000Y-72269500D01*
X125748907Y-72211309D01*
X125798407Y-72175345D01*
X125829000Y-72170500D01*
X125964747Y-72170500D01*
X125964748Y-72170500D01*
X126023231Y-72158867D01*
X126089552Y-72114552D01*
X126133867Y-72048231D01*
X126145500Y-71989748D01*
X126145500Y-70250252D01*
X126133867Y-70191769D01*
X126089552Y-70125448D01*
X126089548Y-70125445D01*
X126023233Y-70081134D01*
X126023231Y-70081133D01*
X126023228Y-70081132D01*
X126023227Y-70081132D01*
X125964758Y-70069501D01*
X125964748Y-70069500D01*
X125829000Y-70069500D01*
X125770809Y-70050593D01*
X125734845Y-70001093D01*
X125730000Y-69970500D01*
X125730000Y-69729500D01*
X125748907Y-69671309D01*
X125798407Y-69635345D01*
X125829000Y-69630500D01*
X125964747Y-69630500D01*
X125964748Y-69630500D01*
X126023231Y-69618867D01*
X126089552Y-69574552D01*
X126133867Y-69508231D01*
X126145500Y-69449748D01*
X126145500Y-67710252D01*
X126133867Y-67651769D01*
X126089552Y-67585448D01*
X126089548Y-67585445D01*
X126023233Y-67541134D01*
X126023231Y-67541133D01*
X126023228Y-67541132D01*
X126023227Y-67541132D01*
X125964758Y-67529501D01*
X125964748Y-67529500D01*
X125829000Y-67529500D01*
X125770809Y-67510593D01*
X125734845Y-67461093D01*
X125730000Y-67430500D01*
X125730000Y-67189500D01*
X125748907Y-67131309D01*
X125798407Y-67095345D01*
X125829000Y-67090500D01*
X125964747Y-67090500D01*
X125964748Y-67090500D01*
X126023231Y-67078867D01*
X126089552Y-67034552D01*
X126133867Y-66968231D01*
X126145500Y-66909748D01*
X126145500Y-65170252D01*
X126133867Y-65111769D01*
X126089552Y-65045448D01*
X126089548Y-65045445D01*
X126023233Y-65001134D01*
X126023231Y-65001133D01*
X126023228Y-65001132D01*
X126023227Y-65001132D01*
X125964758Y-64989501D01*
X125964748Y-64989500D01*
X125829000Y-64989500D01*
X125770809Y-64970593D01*
X125734845Y-64921093D01*
X125730000Y-64890500D01*
X125730000Y-64649500D01*
X125748907Y-64591309D01*
X125798407Y-64555345D01*
X125829000Y-64550500D01*
X125964747Y-64550500D01*
X125964748Y-64550500D01*
X126023231Y-64538867D01*
X126089552Y-64494552D01*
X126133867Y-64428231D01*
X126145500Y-64369748D01*
X126145500Y-62630252D01*
X126133867Y-62571769D01*
X126089552Y-62505448D01*
X126089548Y-62505445D01*
X126023233Y-62461134D01*
X126023231Y-62461133D01*
X126023228Y-62461132D01*
X126023227Y-62461132D01*
X125964758Y-62449501D01*
X125964748Y-62449500D01*
X125829000Y-62449500D01*
X125770809Y-62430593D01*
X125734845Y-62381093D01*
X125730000Y-62350500D01*
X125730000Y-62109500D01*
X125748907Y-62051309D01*
X125798407Y-62015345D01*
X125829000Y-62010500D01*
X125964747Y-62010500D01*
X125964748Y-62010500D01*
X126023231Y-61998867D01*
X126089552Y-61954552D01*
X126133867Y-61888231D01*
X126145500Y-61829748D01*
X126145500Y-60090252D01*
X126133867Y-60031769D01*
X126089552Y-59965448D01*
X126089548Y-59965445D01*
X126023233Y-59921134D01*
X126023231Y-59921133D01*
X126023228Y-59921132D01*
X126023227Y-59921132D01*
X125964758Y-59909501D01*
X125964748Y-59909500D01*
X125829000Y-59909500D01*
X125770809Y-59890593D01*
X125734845Y-59841093D01*
X125730000Y-59810500D01*
X125730000Y-59569500D01*
X125748907Y-59511309D01*
X125798407Y-59475345D01*
X125829000Y-59470500D01*
X125964747Y-59470500D01*
X125964748Y-59470500D01*
X126023231Y-59458867D01*
X126089552Y-59414552D01*
X126133867Y-59348231D01*
X126145500Y-59289748D01*
X126145500Y-57550252D01*
X126133867Y-57491769D01*
X126089552Y-57425448D01*
X126089548Y-57425445D01*
X126023233Y-57381134D01*
X126023231Y-57381133D01*
X126023228Y-57381132D01*
X126023227Y-57381132D01*
X125964758Y-57369501D01*
X125964748Y-57369500D01*
X125829000Y-57369500D01*
X125770809Y-57350593D01*
X125734845Y-57301093D01*
X125730000Y-57270500D01*
X125730000Y-57029500D01*
X125748907Y-56971309D01*
X125798407Y-56935345D01*
X125829000Y-56930500D01*
X125964747Y-56930500D01*
X125964748Y-56930500D01*
X126023231Y-56918867D01*
X126089552Y-56874552D01*
X126133867Y-56808231D01*
X126145500Y-56749748D01*
X126145500Y-55010252D01*
X126133867Y-54951769D01*
X126089552Y-54885448D01*
X126089548Y-54885445D01*
X126023233Y-54841134D01*
X126023231Y-54841133D01*
X126023228Y-54841132D01*
X126023227Y-54841132D01*
X125964758Y-54829501D01*
X125964748Y-54829500D01*
X125829000Y-54829500D01*
X125770809Y-54810593D01*
X125734845Y-54761093D01*
X125730000Y-54730500D01*
X125730000Y-54489500D01*
X125748907Y-54431309D01*
X125798407Y-54395345D01*
X125829000Y-54390500D01*
X125964747Y-54390500D01*
X125964748Y-54390500D01*
X126023231Y-54378867D01*
X126089552Y-54334552D01*
X126133867Y-54268231D01*
X126145500Y-54209748D01*
X126145500Y-52470252D01*
X126133867Y-52411769D01*
X126089552Y-52345448D01*
X126089548Y-52345445D01*
X126023233Y-52301134D01*
X126023231Y-52301133D01*
X126023228Y-52301132D01*
X126023227Y-52301132D01*
X125964758Y-52289501D01*
X125964748Y-52289500D01*
X125829000Y-52289500D01*
X125770809Y-52270593D01*
X125734845Y-52221093D01*
X125730000Y-52190500D01*
X125730000Y-51949500D01*
X125748907Y-51891309D01*
X125798407Y-51855345D01*
X125829000Y-51850500D01*
X125964747Y-51850500D01*
X125964748Y-51850500D01*
X126023231Y-51838867D01*
X126089552Y-51794552D01*
X126133867Y-51728231D01*
X126145500Y-51669748D01*
X126145500Y-49930252D01*
X126133867Y-49871769D01*
X126089552Y-49805448D01*
X126089548Y-49805445D01*
X126023233Y-49761134D01*
X126023231Y-49761133D01*
X126023228Y-49761132D01*
X126023227Y-49761132D01*
X125964758Y-49749501D01*
X125964748Y-49749500D01*
X125829000Y-49749500D01*
X125770809Y-49730593D01*
X125734845Y-49681093D01*
X125730000Y-49650500D01*
X125730000Y-49409500D01*
X125748907Y-49351309D01*
X125798407Y-49315345D01*
X125829000Y-49310500D01*
X125964747Y-49310500D01*
X125964748Y-49310500D01*
X126023231Y-49298867D01*
X126089552Y-49254552D01*
X126133867Y-49188231D01*
X126145500Y-49129748D01*
X126145500Y-47390252D01*
X126133867Y-47331769D01*
X126089552Y-47265448D01*
X126089548Y-47265445D01*
X126023233Y-47221134D01*
X126023231Y-47221133D01*
X126023228Y-47221132D01*
X126023227Y-47221132D01*
X125964758Y-47209501D01*
X125964748Y-47209500D01*
X125829000Y-47209500D01*
X125770809Y-47190593D01*
X125734845Y-47141093D01*
X125730000Y-47110500D01*
X125730000Y-46869500D01*
X125748907Y-46811309D01*
X125798407Y-46775345D01*
X125829000Y-46770500D01*
X125964747Y-46770500D01*
X125964748Y-46770500D01*
X126023231Y-46758867D01*
X126089552Y-46714552D01*
X126133867Y-46648231D01*
X126145500Y-46589748D01*
X126145500Y-44850252D01*
X126133867Y-44791769D01*
X126089552Y-44725448D01*
X126089548Y-44725445D01*
X126023233Y-44681134D01*
X126023231Y-44681133D01*
X126023228Y-44681132D01*
X126023227Y-44681132D01*
X125964758Y-44669501D01*
X125964748Y-44669500D01*
X125829000Y-44669500D01*
X125770809Y-44650593D01*
X125734845Y-44601093D01*
X125730000Y-44570500D01*
X125730000Y-44329500D01*
X125748907Y-44271309D01*
X125798407Y-44235345D01*
X125829000Y-44230500D01*
X125964747Y-44230500D01*
X125964748Y-44230500D01*
X126023231Y-44218867D01*
X126089552Y-44174552D01*
X126133867Y-44108231D01*
X126145500Y-44049748D01*
X126145500Y-42310252D01*
X126133867Y-42251769D01*
X126089552Y-42185448D01*
X126089548Y-42185445D01*
X126023233Y-42141134D01*
X126023231Y-42141133D01*
X126023228Y-42141132D01*
X126023227Y-42141132D01*
X125964758Y-42129501D01*
X125964748Y-42129500D01*
X125829000Y-42129500D01*
X125770809Y-42110593D01*
X125734845Y-42061093D01*
X125730000Y-42030500D01*
X125730000Y-41789500D01*
X125748907Y-41731309D01*
X125798407Y-41695345D01*
X125829000Y-41690500D01*
X125964747Y-41690500D01*
X125964748Y-41690500D01*
X126023231Y-41678867D01*
X126089552Y-41634552D01*
X126133867Y-41568231D01*
X126145500Y-41509748D01*
X126145500Y-39770252D01*
X126133867Y-39711769D01*
X126089552Y-39645448D01*
X126089548Y-39645445D01*
X126023233Y-39601134D01*
X126023231Y-39601133D01*
X126023228Y-39601132D01*
X126023227Y-39601132D01*
X125964758Y-39589501D01*
X125964748Y-39589500D01*
X125829000Y-39589500D01*
X125770809Y-39570593D01*
X125734845Y-39521093D01*
X125730000Y-39490500D01*
X125730000Y-39249500D01*
X125748907Y-39191309D01*
X125798407Y-39155345D01*
X125829000Y-39150500D01*
X125964747Y-39150500D01*
X125964748Y-39150500D01*
X126023231Y-39138867D01*
X126089552Y-39094552D01*
X126133867Y-39028231D01*
X126145500Y-38969748D01*
X126145500Y-37230252D01*
X126133867Y-37171769D01*
X126089552Y-37105448D01*
X126089548Y-37105445D01*
X126023233Y-37061134D01*
X126023231Y-37061133D01*
X126023228Y-37061132D01*
X126023227Y-37061132D01*
X125964758Y-37049501D01*
X125964748Y-37049500D01*
X125829000Y-37049500D01*
X125770809Y-37030593D01*
X125734845Y-36981093D01*
X125730000Y-36950500D01*
X125730000Y-36709500D01*
X125748907Y-36651309D01*
X125798407Y-36615345D01*
X125829000Y-36610500D01*
X125964747Y-36610500D01*
X125964748Y-36610500D01*
X126023231Y-36598867D01*
X126089552Y-36554552D01*
X126133867Y-36488231D01*
X126145500Y-36429748D01*
X126145500Y-34690252D01*
X126133867Y-34631769D01*
X126089552Y-34565448D01*
X126089548Y-34565445D01*
X126023233Y-34521134D01*
X126023231Y-34521133D01*
X126023228Y-34521132D01*
X126023227Y-34521132D01*
X125964758Y-34509501D01*
X125964748Y-34509500D01*
X125829000Y-34509500D01*
X125770809Y-34490593D01*
X125734845Y-34441093D01*
X125730000Y-34410500D01*
X125730000Y-34169500D01*
X125748907Y-34111309D01*
X125798407Y-34075345D01*
X125829000Y-34070500D01*
X125964747Y-34070500D01*
X125964748Y-34070500D01*
X126023231Y-34058867D01*
X126089552Y-34014552D01*
X126133867Y-33948231D01*
X126145500Y-33889748D01*
X126145500Y-32150252D01*
X126133867Y-32091769D01*
X126089552Y-32025448D01*
X126089548Y-32025445D01*
X126023233Y-31981134D01*
X126023231Y-31981133D01*
X126023228Y-31981132D01*
X126023227Y-31981132D01*
X125964758Y-31969501D01*
X125964748Y-31969500D01*
X125829000Y-31969500D01*
X125770809Y-31950593D01*
X125734845Y-31901093D01*
X125730000Y-31870500D01*
X125730000Y-27940001D01*
X125730000Y-25700688D01*
X125734309Y-25700877D01*
G37*
G04 #@! TD.AperFunction*
M02*
