G04 #@! TF.GenerationSoftware,KiCad,Pcbnew,7.0.10*
G04 #@! TF.CreationDate,2024-01-04T18:16:09+01:00*
G04 #@! TF.ProjectId,Programcounter,50726f67-7261-46d6-936f-756e7465722e,rev?*
G04 #@! TF.SameCoordinates,Original*
G04 #@! TF.FileFunction,Copper,L1,Top*
G04 #@! TF.FilePolarity,Positive*
%FSLAX46Y46*%
G04 Gerber Fmt 4.6, Leading zero omitted, Abs format (unit mm)*
G04 Created by KiCad (PCBNEW 7.0.10) date 2024-01-04 18:16:09*
%MOMM*%
%LPD*%
G01*
G04 APERTURE LIST*
G04 Aperture macros list*
%AMRoundRect*
0 Rectangle with rounded corners*
0 $1 Rounding radius*
0 $2 $3 $4 $5 $6 $7 $8 $9 X,Y pos of 4 corners*
0 Add a 4 corners polygon primitive as box body*
4,1,4,$2,$3,$4,$5,$6,$7,$8,$9,$2,$3,0*
0 Add four circle primitives for the rounded corners*
1,1,$1+$1,$2,$3*
1,1,$1+$1,$4,$5*
1,1,$1+$1,$6,$7*
1,1,$1+$1,$8,$9*
0 Add four rect primitives between the rounded corners*
20,1,$1+$1,$2,$3,$4,$5,0*
20,1,$1+$1,$4,$5,$6,$7,0*
20,1,$1+$1,$6,$7,$8,$9,0*
20,1,$1+$1,$8,$9,$2,$3,0*%
G04 Aperture macros list end*
G04 #@! TA.AperFunction,SMDPad,CuDef*
%ADD10RoundRect,0.137500X0.137500X-0.662500X0.137500X0.662500X-0.137500X0.662500X-0.137500X-0.662500X0*%
G04 #@! TD*
G04 #@! TA.AperFunction,SMDPad,CuDef*
%ADD11RoundRect,0.250000X0.337500X0.475000X-0.337500X0.475000X-0.337500X-0.475000X0.337500X-0.475000X0*%
G04 #@! TD*
G04 #@! TA.AperFunction,SMDPad,CuDef*
%ADD12RoundRect,0.250000X-0.450000X0.325000X-0.450000X-0.325000X0.450000X-0.325000X0.450000X0.325000X0*%
G04 #@! TD*
G04 #@! TA.AperFunction,SMDPad,CuDef*
%ADD13RoundRect,0.250000X0.325000X0.450000X-0.325000X0.450000X-0.325000X-0.450000X0.325000X-0.450000X0*%
G04 #@! TD*
G04 #@! TA.AperFunction,ComponentPad*
%ADD14R,1.700000X1.700000*%
G04 #@! TD*
G04 #@! TA.AperFunction,ComponentPad*
%ADD15O,1.700000X1.700000*%
G04 #@! TD*
G04 #@! TA.AperFunction,SMDPad,CuDef*
%ADD16RoundRect,0.250000X-0.475000X0.337500X-0.475000X-0.337500X0.475000X-0.337500X0.475000X0.337500X0*%
G04 #@! TD*
G04 #@! TA.AperFunction,SMDPad,CuDef*
%ADD17RoundRect,0.150000X-0.875000X-0.150000X0.875000X-0.150000X0.875000X0.150000X-0.875000X0.150000X0*%
G04 #@! TD*
G04 #@! TA.AperFunction,SMDPad,CuDef*
%ADD18RoundRect,0.250000X0.350000X0.450000X-0.350000X0.450000X-0.350000X-0.450000X0.350000X-0.450000X0*%
G04 #@! TD*
G04 #@! TA.AperFunction,SMDPad,CuDef*
%ADD19RoundRect,0.250000X-0.450000X0.350000X-0.450000X-0.350000X0.450000X-0.350000X0.450000X0.350000X0*%
G04 #@! TD*
G04 #@! TA.AperFunction,SMDPad,CuDef*
%ADD20RoundRect,0.250000X-0.337500X-0.475000X0.337500X-0.475000X0.337500X0.475000X-0.337500X0.475000X0*%
G04 #@! TD*
G04 #@! TA.AperFunction,SMDPad,CuDef*
%ADD21RoundRect,0.250000X0.412500X0.650000X-0.412500X0.650000X-0.412500X-0.650000X0.412500X-0.650000X0*%
G04 #@! TD*
G04 #@! TA.AperFunction,ViaPad*
%ADD22C,0.600000*%
G04 #@! TD*
G04 #@! TA.AperFunction,ViaPad*
%ADD23C,0.900000*%
G04 #@! TD*
G04 #@! TA.AperFunction,Conductor*
%ADD24C,0.400000*%
G04 #@! TD*
G04 #@! TA.AperFunction,Conductor*
%ADD25C,0.127000*%
G04 #@! TD*
G04 #@! TA.AperFunction,Conductor*
%ADD26C,1.574800*%
G04 #@! TD*
G04 #@! TA.AperFunction,Conductor*
%ADD27C,0.406400*%
G04 #@! TD*
G04 #@! TA.AperFunction,Conductor*
%ADD28C,0.500000*%
G04 #@! TD*
G04 APERTURE END LIST*
D10*
X60960000Y-73044472D03*
X62230000Y-73044472D03*
X63500000Y-73044472D03*
X64770000Y-73044472D03*
X66040000Y-73044472D03*
X67310000Y-73044472D03*
X68580000Y-73044472D03*
X69850000Y-73044472D03*
X69850000Y-66544472D03*
X68580000Y-66544472D03*
X67310000Y-66544472D03*
X66040000Y-66544472D03*
X64770000Y-66544472D03*
X63500000Y-66544472D03*
X62230000Y-66544472D03*
X60960000Y-66544472D03*
D11*
X47392500Y-38735000D03*
X45317500Y-38735000D03*
D12*
X125603000Y-26407000D03*
X125603000Y-28457000D03*
D13*
X32836999Y-45720000D03*
X30786999Y-45720000D03*
X32775000Y-48260000D03*
X30725000Y-48260000D03*
D14*
X63500001Y-60198000D03*
D15*
X63500001Y-57658000D03*
X66040001Y-60198000D03*
X66040001Y-57658000D03*
X68580001Y-60198000D03*
X68580001Y-57658000D03*
X71120001Y-60198000D03*
X71120001Y-57658000D03*
D16*
X46482000Y-73871000D03*
X46482000Y-75946000D03*
D17*
X42340000Y-41275000D03*
X42340000Y-42545000D03*
X42340000Y-43815000D03*
X42340000Y-45085000D03*
X42340000Y-46355000D03*
X42340000Y-47625000D03*
X42340000Y-48895000D03*
X42340000Y-50165000D03*
X42340000Y-51435000D03*
X42340000Y-52705000D03*
X51640000Y-52705000D03*
X51640000Y-51435000D03*
X51640000Y-50165000D03*
X51640000Y-48895000D03*
X51640000Y-47625000D03*
X51640000Y-46355000D03*
X51640000Y-45085000D03*
X51640000Y-43815000D03*
X51640000Y-42545000D03*
X51640000Y-41275000D03*
D10*
X73660000Y-85800000D03*
X74930000Y-85800000D03*
X76200000Y-85800000D03*
X77470000Y-85800000D03*
X78740000Y-85800000D03*
X80010000Y-85800000D03*
X81280000Y-85800000D03*
X82550000Y-85800000D03*
X82550000Y-79300000D03*
X81280000Y-79300000D03*
X80010000Y-79300000D03*
X78740000Y-79300000D03*
X77470000Y-79300000D03*
X76200000Y-79300000D03*
X74930000Y-79300000D03*
X73660000Y-79300000D03*
X99060000Y-85800000D03*
X100330000Y-85800000D03*
X101600000Y-85800000D03*
X102870000Y-85800000D03*
X104140000Y-85800000D03*
X105410000Y-85800000D03*
X106680000Y-85800000D03*
X107950000Y-85800000D03*
X107950000Y-79300000D03*
X106680000Y-79300000D03*
X105410000Y-79300000D03*
X104140000Y-79300000D03*
X102870000Y-79300000D03*
X101600000Y-79300000D03*
X100330000Y-79300000D03*
X99060000Y-79300000D03*
D18*
X37195000Y-45720000D03*
X35195000Y-45720000D03*
D10*
X48260000Y-85800000D03*
X49530000Y-85800000D03*
X50800000Y-85800000D03*
X52070000Y-85800000D03*
X53340000Y-85800000D03*
X54610000Y-85800000D03*
X55880000Y-85800000D03*
X57150000Y-85800000D03*
X57150000Y-79300000D03*
X55880000Y-79300000D03*
X54610000Y-79300000D03*
X53340000Y-79300000D03*
X52070000Y-79300000D03*
X50800000Y-79300000D03*
X49530000Y-79300000D03*
X48260000Y-79300000D03*
D19*
X123571000Y-26432000D03*
X123571000Y-28432000D03*
D18*
X37195000Y-50800000D03*
X35195000Y-50800000D03*
D20*
X50778500Y-90170000D03*
X52853500Y-90170000D03*
D11*
X82952500Y-38735000D03*
X80877500Y-38735000D03*
D16*
X71882000Y-73871000D03*
X71882000Y-75946000D03*
D21*
X124244500Y-97917000D03*
X121119500Y-97917000D03*
D11*
X65172500Y-38735000D03*
X63097500Y-38735000D03*
D10*
X35560000Y-73044472D03*
X36830000Y-73044472D03*
X38100000Y-73044472D03*
X39370000Y-73044472D03*
X40640000Y-73044472D03*
X41910000Y-73044472D03*
X43180000Y-73044472D03*
X44450000Y-73044472D03*
X44450000Y-66544472D03*
X43180000Y-66544472D03*
X41910000Y-66544472D03*
X40640000Y-66544472D03*
X39370000Y-66544472D03*
X38100000Y-66544472D03*
X36830000Y-66544472D03*
X35560000Y-66544472D03*
X35560000Y-85800000D03*
X36830000Y-85800000D03*
X38100000Y-85800000D03*
X39370000Y-85800000D03*
X40640000Y-85800000D03*
X41910000Y-85800000D03*
X43180000Y-85800000D03*
X44450000Y-85800000D03*
X44450000Y-79300000D03*
X43180000Y-79300000D03*
X41910000Y-79300000D03*
X40640000Y-79300000D03*
X39370000Y-79300000D03*
X38100000Y-79300000D03*
X36830000Y-79300000D03*
X35560000Y-79300000D03*
D18*
X37195000Y-48260000D03*
X35195000Y-48260000D03*
D10*
X73660000Y-73044471D03*
X74930000Y-73044471D03*
X76200000Y-73044471D03*
X77470000Y-73044471D03*
X78740000Y-73044471D03*
X80010000Y-73044471D03*
X81280000Y-73044471D03*
X82550000Y-73044471D03*
X82550000Y-66544471D03*
X81280000Y-66544471D03*
X80010000Y-66544471D03*
X78740000Y-66544471D03*
X77470000Y-66544471D03*
X76200000Y-66544471D03*
X74930000Y-66544471D03*
X73660000Y-66544471D03*
D20*
X63478500Y-90170000D03*
X65553500Y-90170000D03*
D17*
X77900000Y-41275000D03*
X77900000Y-42545000D03*
X77900000Y-43815000D03*
X77900000Y-45085000D03*
X77900000Y-46355000D03*
X77900000Y-47625000D03*
X77900000Y-48895000D03*
X77900000Y-50165000D03*
X77900000Y-51435000D03*
X77900000Y-52705000D03*
X87200000Y-52705000D03*
X87200000Y-51435000D03*
X87200000Y-50165000D03*
X87200000Y-48895000D03*
X87200000Y-47625000D03*
X87200000Y-46355000D03*
X87200000Y-45085000D03*
X87200000Y-43815000D03*
X87200000Y-42545000D03*
X87200000Y-41275000D03*
D13*
X32775000Y-40640000D03*
X30725000Y-40640000D03*
D10*
X60960000Y-85800000D03*
X62230000Y-85800000D03*
X63500000Y-85800000D03*
X64770000Y-85800000D03*
X66040000Y-85800000D03*
X67310000Y-85800000D03*
X68580000Y-85800000D03*
X69850000Y-85800000D03*
X69850000Y-79300000D03*
X68580000Y-79300000D03*
X67310000Y-79300000D03*
X66040000Y-79300000D03*
X64770000Y-79300000D03*
X63500000Y-79300000D03*
X62230000Y-79300000D03*
X60960000Y-79300000D03*
D20*
X88878500Y-90170000D03*
X90953500Y-90170000D03*
D16*
X121285000Y-26394500D03*
X121285000Y-28469500D03*
D18*
X37195000Y-40623816D03*
X35195000Y-40623816D03*
D13*
X32775000Y-50800000D03*
X30725000Y-50800000D03*
D10*
X86360000Y-73100000D03*
X87630000Y-73100000D03*
X88900000Y-73100000D03*
X90170000Y-73100000D03*
X91440000Y-73100000D03*
X92710000Y-73100000D03*
X93980000Y-73100000D03*
X95250000Y-73100000D03*
X95250000Y-66600000D03*
X93980000Y-66600000D03*
X92710000Y-66600000D03*
X91440000Y-66600000D03*
X90170000Y-66600000D03*
X88900000Y-66600000D03*
X87630000Y-66600000D03*
X86360000Y-66600000D03*
D16*
X84582000Y-73871000D03*
X84582000Y-75946000D03*
D18*
X37195000Y-43180000D03*
X35195000Y-43180000D03*
D14*
X45720000Y-60198000D03*
D15*
X45720000Y-57658000D03*
X48260000Y-60198000D03*
X48260000Y-57658000D03*
X50800000Y-60198000D03*
X50800000Y-57658000D03*
X53340000Y-60198000D03*
X53340000Y-57658000D03*
D10*
X86360000Y-85800000D03*
X87630000Y-85800000D03*
X88900000Y-85800000D03*
X90170000Y-85800000D03*
X91440000Y-85800000D03*
X92710000Y-85800000D03*
X93980000Y-85800000D03*
X95250000Y-85800000D03*
X95250000Y-79300000D03*
X93980000Y-79300000D03*
X92710000Y-79300000D03*
X91440000Y-79300000D03*
X90170000Y-79300000D03*
X88900000Y-79300000D03*
X87630000Y-79300000D03*
X86360000Y-79300000D03*
D20*
X76178500Y-90170000D03*
X78253500Y-90170000D03*
D16*
X97282000Y-73871000D03*
X97282000Y-75946000D03*
D17*
X60120000Y-41275000D03*
X60120000Y-42545000D03*
X60120000Y-43815000D03*
X60120000Y-45085000D03*
X60120000Y-46355000D03*
X60120000Y-47625000D03*
X60120000Y-48895000D03*
X60120000Y-50165000D03*
X60120000Y-51435000D03*
X60120000Y-52705000D03*
X69420000Y-52705000D03*
X69420000Y-51435000D03*
X69420000Y-50165000D03*
X69420000Y-48895000D03*
X69420000Y-47625000D03*
X69420000Y-46355000D03*
X69420000Y-45085000D03*
X69420000Y-43815000D03*
X69420000Y-42545000D03*
X69420000Y-41275000D03*
D20*
X38100000Y-90170000D03*
X40175000Y-90170000D03*
D13*
X32836998Y-43180000D03*
X30786998Y-43180000D03*
D16*
X59182000Y-73871000D03*
X59182000Y-75946000D03*
D10*
X48260000Y-73100000D03*
X49530000Y-73100000D03*
X50800000Y-73100000D03*
X52070000Y-73100000D03*
X53340000Y-73100000D03*
X54610000Y-73100000D03*
X55880000Y-73100000D03*
X57150000Y-73100000D03*
X57150000Y-66600000D03*
X55880000Y-66600000D03*
X54610000Y-66600000D03*
X53340000Y-66600000D03*
X52070000Y-66600000D03*
X50800000Y-66600000D03*
X49530000Y-66600000D03*
X48260000Y-66600000D03*
D20*
X101578500Y-90170000D03*
X103653500Y-90170000D03*
D14*
X81280000Y-60198000D03*
D15*
X81280000Y-57658000D03*
X83820000Y-60198000D03*
X83820000Y-57658000D03*
X86360000Y-60198000D03*
X86360000Y-57658000D03*
X88900000Y-60198000D03*
X88900000Y-57658000D03*
D16*
X109982000Y-73871000D03*
X109982000Y-75946000D03*
D10*
X99060000Y-73100000D03*
X100330000Y-73100000D03*
X101600000Y-73100000D03*
X102870000Y-73100000D03*
X104140000Y-73100000D03*
X105410000Y-73100000D03*
X106680000Y-73100000D03*
X107950000Y-73100000D03*
X107950000Y-66600000D03*
X106680000Y-66600000D03*
X105410000Y-66600000D03*
X104140000Y-66600000D03*
X102870000Y-66600000D03*
X101600000Y-66600000D03*
X100330000Y-66600000D03*
X99060000Y-66600000D03*
D14*
X29210000Y-54610000D03*
D15*
X29210000Y-57150000D03*
X29210000Y-59690000D03*
X29210000Y-62230000D03*
X29210000Y-64770000D03*
X29210000Y-67310000D03*
X29210000Y-69850000D03*
X29210000Y-72390000D03*
D14*
X125095000Y-33020000D03*
X122555000Y-33020000D03*
X125095000Y-35560000D03*
X122555000Y-35560000D03*
X125095000Y-38100000D03*
X122555000Y-38100000D03*
X125095000Y-40640000D03*
X122555000Y-40640000D03*
X125095000Y-43180000D03*
X122555000Y-43180000D03*
X125095000Y-45720000D03*
X122555000Y-45720000D03*
X125095000Y-48260000D03*
X122555000Y-48260000D03*
X125095000Y-50800000D03*
X122555000Y-50800000D03*
X125095000Y-53340000D03*
X122555000Y-53340000D03*
X125095000Y-55880000D03*
X122555000Y-55880000D03*
X125095000Y-58420000D03*
X122555000Y-58420000D03*
X125095000Y-60960000D03*
X122555000Y-60960000D03*
X125095000Y-63500000D03*
X122555000Y-63500000D03*
X125095000Y-66040000D03*
X122555000Y-66040000D03*
X125095000Y-68580000D03*
X122555000Y-68580000D03*
X125095000Y-71120000D03*
X122555000Y-71120000D03*
X125095000Y-73660000D03*
X122555000Y-73660000D03*
X125095000Y-76200000D03*
X122555000Y-76200000D03*
X125095000Y-78740000D03*
X122555000Y-78740000D03*
X125095000Y-81280000D03*
X122555000Y-81280000D03*
X125095000Y-83820000D03*
X122555000Y-83820000D03*
X125095000Y-86360000D03*
X122555000Y-86360000D03*
X125095000Y-88900000D03*
X122555000Y-88900000D03*
X125095000Y-91440000D03*
X122555000Y-91440000D03*
X125095000Y-93980000D03*
X122555000Y-93980000D03*
D22*
X105791000Y-81280000D03*
X102362000Y-81153000D03*
X69215000Y-40005000D03*
X86995000Y-40005000D03*
X69215000Y-28575000D03*
X86995000Y-28575000D03*
X51435000Y-28575000D03*
X51435000Y-40005000D03*
X62230000Y-80645000D03*
X69215000Y-81788000D03*
X44450000Y-98425000D03*
X55880000Y-80645000D03*
X43815000Y-81788000D03*
X81915000Y-81788000D03*
X40005000Y-52705000D03*
X64770000Y-80645000D03*
X90170000Y-80645000D03*
X57785000Y-76962000D03*
X83185000Y-76962000D03*
X45085000Y-76962000D03*
X82550000Y-98552000D03*
X92710000Y-81788000D03*
X88900000Y-81788000D03*
X95250000Y-98425000D03*
X57785000Y-36830000D03*
X70485000Y-76962000D03*
X54610000Y-81788000D03*
X101600000Y-81788000D03*
X57150000Y-98552000D03*
X94615000Y-81788000D03*
X38100000Y-81788000D03*
X95885000Y-76962000D03*
X41910000Y-81788000D03*
X75565000Y-40005000D03*
X69850000Y-98552000D03*
D23*
X122428000Y-27448000D03*
D22*
X93980000Y-80645000D03*
X29845000Y-46990000D03*
X56515000Y-81788000D03*
X108585000Y-76962000D03*
X43180000Y-80645000D03*
X80010000Y-81788000D03*
X100330000Y-80645000D03*
X107315000Y-81788000D03*
X81280000Y-80645000D03*
X49530000Y-80645000D03*
X40005000Y-38735000D03*
X67310000Y-81788000D03*
X39370000Y-80645000D03*
X68580000Y-80645000D03*
X76200000Y-81788000D03*
X107950000Y-98425000D03*
X63500000Y-81788000D03*
X87630000Y-80645000D03*
X50800000Y-81788000D03*
X36830000Y-80645000D03*
X52070000Y-80645000D03*
X106680000Y-80645000D03*
X74930000Y-80645000D03*
X77470000Y-80645000D03*
X71501000Y-41275000D03*
X79502000Y-41275000D03*
X61849000Y-41275000D03*
X53467000Y-41275000D03*
X44450000Y-69850000D03*
X38227000Y-43180000D03*
X107950000Y-69850000D03*
X82550000Y-69850000D03*
X57150000Y-69850000D03*
X33655000Y-69850000D03*
X69850000Y-69850000D03*
X95250000Y-69850000D03*
X49530000Y-74930000D03*
X33782000Y-74930000D03*
X62230000Y-74930000D03*
X38227000Y-45720000D03*
X36830000Y-74930000D03*
X87630000Y-74930000D03*
X74930000Y-74930000D03*
X100330000Y-74930000D03*
X38227000Y-50800000D03*
X48260000Y-81280000D03*
X60960000Y-81280000D03*
X73660000Y-81280000D03*
X33655000Y-81280000D03*
X86360000Y-81280000D03*
X99060000Y-81280000D03*
X35560000Y-81280000D03*
X36830000Y-82423000D03*
X37465000Y-82931000D03*
X40640000Y-83312000D03*
X41275000Y-83820000D03*
X49530000Y-83820000D03*
X50165000Y-84328000D03*
X53340000Y-84328000D03*
X53975000Y-84709000D03*
X62230000Y-87122000D03*
X62865000Y-87630000D03*
X66040000Y-87122000D03*
X66675000Y-87630000D03*
X74930000Y-87249000D03*
X75565000Y-87757000D03*
X78740000Y-87249000D03*
X79375000Y-87757000D03*
X87630000Y-87122000D03*
X88265000Y-87630000D03*
X91440000Y-87376000D03*
X92075000Y-87757000D03*
X100330000Y-87884000D03*
X100965000Y-88392000D03*
X104140000Y-88392000D03*
X104920000Y-88709853D03*
X46736000Y-46355000D03*
X46736000Y-45085000D03*
X46736000Y-43815000D03*
X46736000Y-42545000D03*
X64516001Y-51435000D03*
X64516001Y-50165000D03*
X64516001Y-48895000D03*
X64516001Y-47625000D03*
X46736000Y-51435000D03*
X46736000Y-50165000D03*
X46736000Y-48895000D03*
X46736000Y-47625000D03*
X82296000Y-46355000D03*
X82296000Y-45085000D03*
X82296000Y-43815000D03*
X82296000Y-42545000D03*
X64516001Y-46355000D03*
X64516001Y-45085000D03*
X64516001Y-43815000D03*
X64516001Y-42545000D03*
X82296000Y-51435000D03*
X82296000Y-50165000D03*
X82296000Y-48895000D03*
X82296000Y-47625000D03*
X55880000Y-68072000D03*
X36830000Y-68072000D03*
X68580000Y-68580000D03*
X49530000Y-68580000D03*
X81280000Y-67945000D03*
X62230000Y-67945000D03*
X74930000Y-68580000D03*
X93980000Y-68580000D03*
X87630000Y-67945000D03*
X106680000Y-67945000D03*
X102235000Y-77724000D03*
X33655000Y-77724000D03*
X38227000Y-48260000D03*
D24*
X98298000Y-90170000D02*
X98298000Y-81026000D01*
X85598000Y-81026000D02*
X85598000Y-90170000D01*
X72898000Y-81026000D02*
X72898000Y-90170000D01*
X60198000Y-81026000D02*
X60198000Y-90170000D01*
X47498000Y-90170000D02*
X47498000Y-90424000D01*
X47498000Y-90424000D02*
X47498000Y-100076000D01*
X47498000Y-81026000D02*
X47498000Y-90424000D01*
D25*
X53340000Y-66600000D02*
X53340000Y-60198000D01*
X41910000Y-63373000D02*
X41910000Y-66544472D01*
X102870000Y-80645000D02*
X102870000Y-79300000D01*
X105410000Y-85800000D02*
X105410000Y-81661000D01*
X105410000Y-81661000D02*
X105791000Y-81280000D01*
X102362000Y-81153000D02*
X102870000Y-80645000D01*
D24*
X34798000Y-90170000D02*
X34798000Y-100076000D01*
X99060000Y-79300000D02*
X99060000Y-80264000D01*
X69215000Y-38735000D02*
X69215000Y-40005000D01*
X65172500Y-38735000D02*
X69215000Y-38735000D01*
X84582000Y-71120000D02*
X93980000Y-71120000D01*
D26*
X125925850Y-97737250D02*
X125978600Y-97790000D01*
D24*
X60960000Y-80264000D02*
X60198000Y-81026000D01*
D26*
X125095000Y-93980000D02*
X125978600Y-94863600D01*
D24*
X106680000Y-71120000D02*
X109982000Y-71120000D01*
X76178500Y-90170000D02*
X72898000Y-90170000D01*
X81280000Y-71120000D02*
X84582000Y-71120000D01*
D25*
X30786998Y-41910000D02*
X30786998Y-40701998D01*
D24*
X72898000Y-90170000D02*
X72898000Y-100076000D01*
X47392500Y-38735000D02*
X51435000Y-38735000D01*
X71882000Y-73871000D02*
X71882000Y-71120000D01*
X99060000Y-80264000D02*
X98298000Y-81026000D01*
D25*
X43180000Y-64770000D02*
X48260000Y-64770000D01*
D24*
X87200000Y-41275000D02*
X86995000Y-41275000D01*
X35560000Y-80264000D02*
X34798000Y-81026000D01*
D27*
X121285000Y-26432000D02*
X119507000Y-26432000D01*
D24*
X97282000Y-71120000D02*
X106680000Y-71120000D01*
X69215000Y-41275000D02*
X69215000Y-40005000D01*
D25*
X55880000Y-73100000D02*
X55880000Y-71120000D01*
D24*
X69215000Y-28575000D02*
X69215000Y-26670000D01*
D25*
X123571000Y-26432000D02*
X121285000Y-26432000D01*
X48260000Y-64770000D02*
X48260000Y-66600000D01*
D26*
X125978600Y-94863600D02*
X125978600Y-95702500D01*
D24*
X34798000Y-100076000D02*
X34925000Y-100203000D01*
X86360000Y-79300000D02*
X86360000Y-80264000D01*
D25*
X30786998Y-40701998D02*
X30725000Y-40640000D01*
D24*
X60198000Y-90170000D02*
X60198000Y-100076000D01*
X51435000Y-41275000D02*
X51435000Y-40005000D01*
D25*
X93980000Y-73100000D02*
X93980000Y-71120000D01*
D24*
X88878500Y-90170000D02*
X85598000Y-90170000D01*
X48260000Y-66600000D02*
X48260000Y-79300000D01*
X51435000Y-28575000D02*
X51435000Y-26670000D01*
X50778500Y-90170000D02*
X47498000Y-90170000D01*
X55880000Y-71120000D02*
X59182000Y-71120000D01*
X85598000Y-90170000D02*
X85598000Y-100076000D01*
X59182000Y-73871000D02*
X59182000Y-71120000D01*
X34798000Y-81026000D02*
X34798000Y-90170000D01*
X48260000Y-79300000D02*
X48260000Y-80264000D01*
X46482000Y-73871000D02*
X46482000Y-71120000D01*
X35560000Y-79300000D02*
X35560000Y-80264000D01*
D25*
X81280000Y-73044471D02*
X81280000Y-71120000D01*
D24*
X63478500Y-90170000D02*
X60198000Y-90170000D01*
X69420000Y-41275000D02*
X69215000Y-41275000D01*
X86995000Y-41275000D02*
X86995000Y-40005000D01*
D25*
X68580000Y-73044472D02*
X68580000Y-71120000D01*
D28*
X124376000Y-97917000D02*
X125925850Y-97917000D01*
D24*
X98298000Y-90170000D02*
X98298000Y-100076000D01*
X101578500Y-90170000D02*
X98298000Y-90170000D01*
D25*
X43180000Y-73044472D02*
X43180000Y-71247000D01*
D24*
X60960000Y-66544472D02*
X60960000Y-79300000D01*
X48260000Y-80264000D02*
X47498000Y-81026000D01*
X46482000Y-71120000D02*
X55880000Y-71120000D01*
D26*
X125978600Y-95702500D02*
X125978600Y-97790000D01*
D24*
X51435000Y-38735000D02*
X51435000Y-40005000D01*
X35560000Y-71120000D02*
X35560000Y-79300000D01*
X82952500Y-38735000D02*
X86995000Y-38735000D01*
X35560000Y-71120000D02*
X43053000Y-71120000D01*
X97282000Y-73871000D02*
X97282000Y-71120000D01*
X86995000Y-38735000D02*
X86995000Y-40005000D01*
D25*
X43180000Y-66544472D02*
X43180000Y-64770000D01*
D24*
X73660000Y-66544471D02*
X73660000Y-79300000D01*
X84582000Y-73871000D02*
X84582000Y-71120000D01*
X99060000Y-66600000D02*
X99060000Y-79300000D01*
X60960000Y-79300000D02*
X60960000Y-80264000D01*
D26*
X125978600Y-97790000D02*
X125978600Y-100451600D01*
D24*
X51640000Y-41275000D02*
X51435000Y-41275000D01*
X93980000Y-71120000D02*
X97282000Y-71120000D01*
D25*
X30786998Y-41910000D02*
X26797000Y-41910000D01*
D24*
X43053000Y-71120000D02*
X46482000Y-71120000D01*
X73660000Y-80264000D02*
X72898000Y-81026000D01*
X59182000Y-71120000D02*
X68580000Y-71120000D01*
X109982000Y-71120000D02*
X109982000Y-73871000D01*
X38100000Y-90170000D02*
X34798000Y-90170000D01*
X86360000Y-80264000D02*
X85598000Y-81026000D01*
X71882000Y-71120000D02*
X81280000Y-71120000D01*
D25*
X30786998Y-43180000D02*
X30786998Y-41910000D01*
X106680000Y-71120000D02*
X106680000Y-73100000D01*
D24*
X68580000Y-71120000D02*
X71882000Y-71120000D01*
X86995000Y-28575000D02*
X86995000Y-26670000D01*
X35560000Y-66544472D02*
X35560000Y-71120000D01*
X86360000Y-66600000D02*
X86360000Y-79300000D01*
D25*
X43180000Y-71247000D02*
X43053000Y-71120000D01*
D24*
X73660000Y-79300000D02*
X73660000Y-80264000D01*
D25*
X77470000Y-80645000D02*
X77470000Y-79300000D01*
D24*
X90953500Y-90170000D02*
X95123000Y-90170000D01*
X70485000Y-76454000D02*
X70485000Y-80645000D01*
X57150000Y-90043000D02*
X57150000Y-98552000D01*
D27*
X121348500Y-28527500D02*
X121285000Y-28527500D01*
D25*
X43815000Y-80645000D02*
X43180000Y-80645000D01*
X56515000Y-80645000D02*
X55880000Y-80645000D01*
X43815000Y-81788000D02*
X43815000Y-80645000D01*
X88900000Y-81788000D02*
X88900000Y-85800000D01*
D24*
X44450000Y-81280000D02*
X44450000Y-90170000D01*
X45339000Y-75946000D02*
X45085000Y-76200000D01*
D25*
X56515000Y-81788000D02*
X57150000Y-81788000D01*
X81915000Y-81788000D02*
X82550000Y-81788000D01*
D24*
X82550000Y-75565000D02*
X83185000Y-76200000D01*
D25*
X93980000Y-80645000D02*
X93980000Y-79300000D01*
X32766000Y-48260000D02*
X31496000Y-46990000D01*
D24*
X44450000Y-75565000D02*
X45085000Y-76200000D01*
X95885000Y-80645000D02*
X95250000Y-81280000D01*
X75565000Y-38735000D02*
X75565000Y-40005000D01*
X45085000Y-76962000D02*
X45085000Y-80645000D01*
D25*
X39370000Y-80645000D02*
X39370000Y-79300000D01*
X31496000Y-44450000D02*
X29836000Y-44450000D01*
X81915000Y-80645000D02*
X81280000Y-80645000D01*
D24*
X108585000Y-76200000D02*
X108585000Y-76962000D01*
D25*
X122301000Y-94234000D02*
X122555000Y-93980000D01*
X52070000Y-80645000D02*
X52070000Y-79300000D01*
D24*
X45085000Y-80645000D02*
X44450000Y-81280000D01*
X69850000Y-90170000D02*
X69850000Y-98552000D01*
X83185000Y-80645000D02*
X82550000Y-81280000D01*
D25*
X62230000Y-79300000D02*
X62230000Y-80645000D01*
D24*
X52853500Y-90170000D02*
X57023000Y-90170000D01*
D25*
X106680000Y-80645000D02*
X106680000Y-79300000D01*
X125857001Y-27447999D02*
X122428000Y-27448000D01*
X125857001Y-26432000D02*
X125857001Y-27447999D01*
D24*
X44450000Y-73100000D02*
X44450000Y-75565000D01*
X96139000Y-75946000D02*
X95885000Y-76200000D01*
D25*
X54610000Y-81788000D02*
X54610000Y-85800000D01*
D24*
X58039000Y-75946000D02*
X57785000Y-76200000D01*
X57023000Y-90170000D02*
X57150000Y-90043000D01*
X69850000Y-73100000D02*
X69850000Y-75565000D01*
X70993000Y-75946000D02*
X70485000Y-76454000D01*
D25*
X43815000Y-81788000D02*
X44450000Y-81788000D01*
X87630000Y-79300000D02*
X87630000Y-80645000D01*
X38100000Y-81788000D02*
X38100000Y-85800000D01*
X68580000Y-80645000D02*
X68580000Y-79300000D01*
X50800000Y-81788000D02*
X50800000Y-85800000D01*
X100330000Y-79300000D02*
X100330000Y-80645000D01*
D24*
X95250000Y-81280000D02*
X95250000Y-90297000D01*
X44450000Y-90170000D02*
X44450000Y-98425000D01*
X109982000Y-75946000D02*
X108839000Y-75946000D01*
D25*
X69215000Y-80645000D02*
X68580000Y-80645000D01*
D24*
X69850000Y-75565000D02*
X70485000Y-76200000D01*
D25*
X107315000Y-80645000D02*
X106680000Y-80645000D01*
D24*
X70485000Y-76200000D02*
X70485000Y-76454000D01*
X108839000Y-75946000D02*
X108585000Y-76200000D01*
X71882000Y-75946000D02*
X70993000Y-75946000D01*
X75565000Y-52705000D02*
X75565000Y-40005000D01*
X84582000Y-75946000D02*
X83439000Y-75946000D01*
X63097500Y-38735000D02*
X57785000Y-38735000D01*
D25*
X101600000Y-85800000D02*
X101600000Y-81788000D01*
X81915000Y-81788000D02*
X81915000Y-80645000D01*
D24*
X107950000Y-73100000D02*
X107950000Y-75565000D01*
X82423000Y-90170000D02*
X82550000Y-90297000D01*
X108585000Y-76962000D02*
X108585000Y-80645000D01*
X95250000Y-73100000D02*
X95250000Y-75565000D01*
D25*
X64770000Y-80645000D02*
X64770000Y-79300000D01*
D24*
X95123000Y-90170000D02*
X95250000Y-90297000D01*
X57785000Y-76200000D02*
X57785000Y-80645000D01*
D28*
X121119500Y-97917000D02*
X122555000Y-97917000D01*
D25*
X69215000Y-81788000D02*
X69215000Y-80645000D01*
X92710000Y-81788000D02*
X92710000Y-85800000D01*
X90170000Y-80645000D02*
X90170000Y-79300000D01*
D24*
X57785000Y-38735000D02*
X57785000Y-52705000D01*
X107950000Y-90170000D02*
X107950000Y-98425000D01*
D25*
X69215000Y-81788000D02*
X69850000Y-81788000D01*
X94615000Y-81788000D02*
X94615000Y-80645000D01*
X43180000Y-80645000D02*
X43180000Y-79300000D01*
D24*
X103653500Y-90170000D02*
X107950000Y-90170000D01*
X57785000Y-36830000D02*
X57785000Y-38735000D01*
D25*
X55880000Y-80645000D02*
X55880000Y-79300000D01*
D24*
X107950000Y-81280000D02*
X107950000Y-90170000D01*
X57150000Y-73100000D02*
X57150000Y-75565000D01*
D25*
X80010000Y-81788000D02*
X80010000Y-85800000D01*
D24*
X97282000Y-75946000D02*
X96139000Y-75946000D01*
X45317500Y-38735000D02*
X40005000Y-38735000D01*
X69850000Y-81280000D02*
X69850000Y-90170000D01*
D25*
X107315000Y-81788000D02*
X107950000Y-81788000D01*
D24*
X80877500Y-38735000D02*
X75565000Y-38735000D01*
D25*
X56515000Y-81788000D02*
X56515000Y-80645000D01*
D24*
X59182000Y-75946000D02*
X58039000Y-75946000D01*
X107950000Y-75565000D02*
X108585000Y-76200000D01*
D25*
X32775000Y-50800000D02*
X31505000Y-49530000D01*
D24*
X42340000Y-52705000D02*
X40005000Y-52705000D01*
D25*
X63500000Y-81788000D02*
X63500000Y-85800000D01*
D24*
X70485000Y-80645000D02*
X69850000Y-81280000D01*
X60120000Y-52705000D02*
X57785000Y-52705000D01*
D25*
X41910000Y-81788000D02*
X41910000Y-85800000D01*
D24*
X108585000Y-80645000D02*
X107950000Y-81280000D01*
X40175000Y-90170000D02*
X44450000Y-90170000D01*
X57150000Y-81280000D02*
X57150000Y-90043000D01*
X57785000Y-80645000D02*
X57150000Y-81280000D01*
X82550000Y-81280000D02*
X82550000Y-90297000D01*
D27*
X122428000Y-27448000D02*
X121348500Y-28527500D01*
D25*
X29845000Y-49530000D02*
X29845000Y-44459000D01*
X29845000Y-46990000D02*
X31496000Y-46990000D01*
D24*
X65553500Y-90170000D02*
X69850000Y-90170000D01*
D25*
X36830000Y-79300000D02*
X36830000Y-80645000D01*
X67310000Y-81788000D02*
X67310000Y-85800000D01*
D24*
X78253500Y-90170000D02*
X82423000Y-90170000D01*
D25*
X94615000Y-81788000D02*
X95250000Y-81788000D01*
D24*
X83439000Y-75946000D02*
X83185000Y-76200000D01*
X46482000Y-75946000D02*
X45339000Y-75946000D01*
D25*
X32766000Y-45720000D02*
X31496000Y-44450000D01*
D24*
X82550000Y-90297000D02*
X82550000Y-98552000D01*
X83185000Y-76200000D02*
X83185000Y-80645000D01*
D25*
X74930000Y-79300000D02*
X74930000Y-80645000D01*
X94615000Y-80645000D02*
X93980000Y-80645000D01*
X49530000Y-79300000D02*
X49530000Y-80645000D01*
D24*
X77900000Y-52705000D02*
X75565000Y-52705000D01*
D25*
X29845000Y-44459000D02*
X29836000Y-44450000D01*
D24*
X82550000Y-73100000D02*
X82550000Y-75565000D01*
D25*
X76200000Y-81788000D02*
X76200000Y-85800000D01*
D24*
X45085000Y-76200000D02*
X45085000Y-76962000D01*
D25*
X81280000Y-80645000D02*
X81280000Y-79300000D01*
D24*
X95885000Y-76200000D02*
X95885000Y-80645000D01*
D28*
X122555000Y-97917000D02*
X122555000Y-93980000D01*
D24*
X95250000Y-75565000D02*
X95885000Y-76200000D01*
X57150000Y-75565000D02*
X57785000Y-76200000D01*
D25*
X107315000Y-81788000D02*
X107315000Y-80645000D01*
D24*
X95250000Y-90297000D02*
X95250000Y-98425000D01*
D25*
X31505000Y-49530000D02*
X29845000Y-49530000D01*
X48895000Y-41275000D02*
X42340000Y-41275000D01*
X39370000Y-41275000D02*
X39370000Y-54610000D01*
X84455000Y-41275000D02*
X79502000Y-41275000D01*
X37195000Y-40623816D02*
X39353816Y-40623816D01*
X84455000Y-42545000D02*
X84455000Y-41275000D01*
X66675000Y-42545000D02*
X66675000Y-41275000D01*
X39370000Y-54610000D02*
X29210000Y-54610000D01*
X53467000Y-42545000D02*
X51640000Y-42545000D01*
X60120000Y-41275000D02*
X61849000Y-41275000D01*
X71501000Y-41275000D02*
X71501000Y-42545000D01*
X66675000Y-41275000D02*
X61849000Y-41275000D01*
X53467000Y-41275000D02*
X53467000Y-42545000D01*
X69420000Y-42545000D02*
X66675000Y-42545000D01*
X79502000Y-41275000D02*
X77900000Y-41275000D01*
X51640000Y-42545000D02*
X48895000Y-42545000D01*
X39353816Y-40623816D02*
X39370000Y-40640000D01*
X87200000Y-42545000D02*
X84455000Y-42545000D01*
X71501000Y-42545000D02*
X69420000Y-42545000D01*
X42340000Y-41275000D02*
X39370000Y-41275000D01*
X48895000Y-42545000D02*
X48895000Y-41275000D01*
X39370000Y-40640000D02*
X39370000Y-41275000D01*
X107950000Y-66600000D02*
X107950000Y-69850000D01*
X69850000Y-66544472D02*
X69850000Y-69850000D01*
X57150000Y-66600000D02*
X57150000Y-69850000D01*
X82550000Y-66544471D02*
X82550000Y-69850000D01*
X33655000Y-57150000D02*
X29210000Y-57150000D01*
X44450000Y-66544472D02*
X44450000Y-69850000D01*
X33655000Y-69850000D02*
X33655000Y-57150000D01*
X95250000Y-66600000D02*
X95250000Y-69850000D01*
X37195000Y-43180000D02*
X38227000Y-43180000D01*
X33020000Y-74930000D02*
X33020000Y-59690000D01*
X33782000Y-74930000D02*
X33020000Y-74930000D01*
X87630000Y-74930000D02*
X87630000Y-73100000D01*
X37195000Y-45720000D02*
X38227000Y-45720000D01*
X62230000Y-73044472D02*
X62230000Y-74930000D01*
X100330000Y-73100000D02*
X100330000Y-74930000D01*
X49530000Y-73100000D02*
X49530000Y-74930000D01*
X33020000Y-59690000D02*
X29210000Y-59690000D01*
X74930000Y-73044471D02*
X74930000Y-74930000D01*
X36830000Y-73044472D02*
X36830000Y-74930000D01*
X48260000Y-85800000D02*
X48260000Y-81280000D01*
X35560000Y-85800000D02*
X35560000Y-81280000D01*
X31877000Y-64770000D02*
X29210000Y-64770000D01*
X37195000Y-50800000D02*
X38227000Y-50800000D01*
X33655000Y-81280000D02*
X31877000Y-81280000D01*
X73660000Y-85800000D02*
X73660000Y-81280000D01*
X60960000Y-85800000D02*
X60960000Y-81280000D01*
X99060000Y-85800000D02*
X99060000Y-81280000D01*
X31877000Y-81280000D02*
X31877000Y-64770000D01*
X86360000Y-85800000D02*
X86360000Y-81280000D01*
X123825000Y-31750000D02*
X125095000Y-33020000D01*
X54356000Y-43815000D02*
X54356000Y-31750000D01*
X51640000Y-43815000D02*
X54356000Y-43815000D01*
X54356000Y-31750000D02*
X123825000Y-31750000D01*
X94742000Y-32131000D02*
X94742000Y-33020000D01*
X54737000Y-45085000D02*
X54737000Y-32131000D01*
X94742000Y-33020000D02*
X122555000Y-33020000D01*
X54737000Y-32131000D02*
X94742000Y-32131000D01*
X51640000Y-45085000D02*
X54737000Y-45085000D01*
X94361000Y-32512000D02*
X94361000Y-34290000D01*
X55118000Y-46355000D02*
X55118000Y-32512000D01*
X51640000Y-46355000D02*
X55118000Y-46355000D01*
X55118000Y-32512000D02*
X94361000Y-32512000D01*
X94361000Y-34290000D02*
X123825000Y-34290000D01*
X123825000Y-34290000D02*
X125095000Y-35560000D01*
X51640000Y-47625000D02*
X55499000Y-47625000D01*
X55499000Y-32893000D02*
X93980000Y-32893000D01*
X55499000Y-47625000D02*
X55499000Y-32893000D01*
X93980000Y-32893000D02*
X93980000Y-35560000D01*
X93980000Y-35560000D02*
X122555000Y-35560000D01*
X55880000Y-33274000D02*
X93599000Y-33274000D01*
X93599000Y-33274000D02*
X93599000Y-36830000D01*
X123825000Y-36830000D02*
X125095000Y-38100000D01*
X55880000Y-48895000D02*
X55880000Y-33274000D01*
X51640000Y-48895000D02*
X55880000Y-48895000D01*
X93599000Y-36830000D02*
X123825000Y-36830000D01*
X93218000Y-33655000D02*
X56261000Y-33655000D01*
X56261000Y-50165000D02*
X51640000Y-50165000D01*
X56261000Y-33655000D02*
X56261000Y-50165000D01*
X122555000Y-38100000D02*
X93218000Y-38100000D01*
X93218000Y-38100000D02*
X93218000Y-33655000D01*
X56642000Y-51435000D02*
X51640000Y-51435000D01*
X56642000Y-34036000D02*
X56642000Y-51435000D01*
X125095000Y-40640000D02*
X123825000Y-39370000D01*
X92837000Y-39370000D02*
X92837000Y-34036000D01*
X123825000Y-39370000D02*
X92837000Y-39370000D01*
X92837000Y-34036000D02*
X56642000Y-34036000D01*
X92456000Y-40132000D02*
X97409000Y-40132000D01*
X51640000Y-52705000D02*
X57023000Y-52705000D01*
X57023000Y-34417000D02*
X92456000Y-34417000D01*
X57023000Y-52705000D02*
X57023000Y-34417000D01*
X97409000Y-40640000D02*
X122555000Y-40640000D01*
X97409000Y-40132000D02*
X97409000Y-40640000D01*
X92456000Y-34417000D02*
X92456000Y-40132000D01*
X97028000Y-40513000D02*
X97028000Y-41910000D01*
X92075000Y-40513000D02*
X97028000Y-40513000D01*
X72263000Y-34798000D02*
X92075000Y-34798000D01*
X72263000Y-43815000D02*
X72263000Y-34798000D01*
X97028000Y-41910000D02*
X123825000Y-41910000D01*
X92075000Y-34798000D02*
X92075000Y-40513000D01*
X69420000Y-43815000D02*
X72263000Y-43815000D01*
X123825000Y-41910000D02*
X125095000Y-43180000D01*
X91694000Y-40894000D02*
X96647000Y-40894000D01*
X72644000Y-35179000D02*
X91694000Y-35179000D01*
X91694000Y-35179000D02*
X91694000Y-40894000D01*
X96647000Y-40894000D02*
X96647000Y-43180000D01*
X72644000Y-45085000D02*
X72644000Y-35179000D01*
X96647000Y-43180000D02*
X122555000Y-43180000D01*
X69420000Y-45085000D02*
X72644000Y-45085000D01*
X91313000Y-41275000D02*
X91313000Y-35560000D01*
X91313000Y-35560000D02*
X73025000Y-35560000D01*
X96266000Y-44450000D02*
X96266000Y-41275000D01*
X96266000Y-41275000D02*
X91313000Y-41275000D01*
X123825000Y-44450000D02*
X96266000Y-44450000D01*
X125095000Y-45720000D02*
X123825000Y-44450000D01*
X73025000Y-46355000D02*
X69420000Y-46355000D01*
X73025000Y-35560000D02*
X73025000Y-46355000D01*
X73406000Y-47625000D02*
X73406000Y-35941000D01*
X73406000Y-35941000D02*
X90932000Y-35941000D01*
X95885000Y-41656000D02*
X95885000Y-45720000D01*
X90932000Y-35941000D02*
X90932000Y-41656000D01*
X69420000Y-47625000D02*
X73406000Y-47625000D01*
X95885000Y-45720000D02*
X122555000Y-45720000D01*
X90932000Y-41656000D02*
X95885000Y-41656000D01*
X73787000Y-36322000D02*
X73787000Y-48895000D01*
X90551000Y-36322000D02*
X73787000Y-36322000D01*
X123825000Y-46990000D02*
X95504000Y-46990000D01*
X90551000Y-42037000D02*
X90551000Y-36322000D01*
X73787000Y-48895000D02*
X69420000Y-48895000D01*
X95504000Y-42037000D02*
X90551000Y-42037000D01*
X95504000Y-46990000D02*
X95504000Y-42037000D01*
X125095000Y-48260000D02*
X123825000Y-46990000D01*
X95123000Y-42418000D02*
X95123000Y-48260000D01*
X74168000Y-36703000D02*
X90170000Y-36703000D01*
X90170000Y-36703000D02*
X90170000Y-42418000D01*
X90170000Y-42418000D02*
X95123000Y-42418000D01*
X74168000Y-50165000D02*
X74168000Y-36703000D01*
X69420000Y-50165000D02*
X74168000Y-50165000D01*
X95123000Y-48260000D02*
X122555000Y-48260000D01*
X74549000Y-51435000D02*
X69420000Y-51435000D01*
X125095000Y-50800000D02*
X123825000Y-49530000D01*
X94742000Y-49530000D02*
X94742000Y-42799000D01*
X89789000Y-37084000D02*
X74549000Y-37084000D01*
X123825000Y-49530000D02*
X94742000Y-49530000D01*
X74549000Y-37084000D02*
X74549000Y-51435000D01*
X89789000Y-42799000D02*
X89789000Y-37084000D01*
X94742000Y-42799000D02*
X89789000Y-42799000D01*
X94361000Y-43180000D02*
X94361000Y-50800000D01*
X74930000Y-52705000D02*
X74930000Y-37465000D01*
X94361000Y-50800000D02*
X122555000Y-50800000D01*
X89408000Y-37465000D02*
X89408000Y-43180000D01*
X74930000Y-37465000D02*
X89408000Y-37465000D01*
X89408000Y-43180000D02*
X94361000Y-43180000D01*
X69420000Y-52705000D02*
X74930000Y-52705000D01*
X123825000Y-52070000D02*
X125095000Y-53340000D01*
X87200000Y-43815000D02*
X93980000Y-43815000D01*
X93980000Y-43815000D02*
X93980000Y-52070000D01*
X93980000Y-52070000D02*
X123825000Y-52070000D01*
X87200000Y-45085000D02*
X93599000Y-45085000D01*
X93599000Y-45085000D02*
X93599000Y-53340000D01*
X93599000Y-53340000D02*
X122555000Y-53340000D01*
X87200000Y-46355000D02*
X93218000Y-46355000D01*
X93218000Y-54610000D02*
X123825000Y-54610000D01*
X93218000Y-46355000D02*
X93218000Y-54610000D01*
X123825000Y-54610000D02*
X125095000Y-55880000D01*
X87200000Y-47625000D02*
X92837000Y-47625000D01*
X92837000Y-55880000D02*
X122555000Y-55880000D01*
X92837000Y-47625000D02*
X92837000Y-55880000D01*
X123825000Y-57150000D02*
X125095000Y-58420000D01*
X87200000Y-48895000D02*
X92456000Y-48895000D01*
X92456000Y-57150000D02*
X123825000Y-57150000D01*
X92456000Y-48895000D02*
X92456000Y-57150000D01*
X92075000Y-50165000D02*
X92075000Y-58420000D01*
X87200000Y-50165000D02*
X92075000Y-50165000D01*
X92075000Y-58420000D02*
X122555000Y-58420000D01*
X87200000Y-51435000D02*
X91694000Y-51435000D01*
X91694000Y-59690000D02*
X123825000Y-59690000D01*
X91694000Y-51435000D02*
X91694000Y-59690000D01*
X123825000Y-59690000D02*
X125095000Y-60960000D01*
X91313000Y-52705000D02*
X91313000Y-60960000D01*
X87200000Y-52705000D02*
X91313000Y-52705000D01*
X91313000Y-60960000D02*
X122555000Y-60960000D01*
X36830000Y-85800000D02*
X36830000Y-82423000D01*
X38100000Y-80772000D02*
X37465000Y-81407000D01*
X38100000Y-79300000D02*
X38100000Y-80772000D01*
X37465000Y-81407000D02*
X37465000Y-82931000D01*
X40640000Y-85800000D02*
X40640000Y-83312000D01*
X41910000Y-80772000D02*
X41275000Y-81407000D01*
X41275000Y-81407000D02*
X41275000Y-83820000D01*
X41910000Y-79300000D02*
X41910000Y-80772000D01*
X49530000Y-85800000D02*
X49530000Y-83820000D01*
X50800000Y-80772000D02*
X50165000Y-81407000D01*
X50165000Y-81407000D02*
X50165000Y-84328000D01*
X50800000Y-79300000D02*
X50800000Y-80772000D01*
X53340000Y-85800000D02*
X53340000Y-84328000D01*
X53975000Y-81407000D02*
X53975000Y-84709000D01*
X54610000Y-80772000D02*
X53975000Y-81407000D01*
X54610000Y-79300000D02*
X54610000Y-80772000D01*
X62230000Y-85800000D02*
X62230000Y-87122000D01*
X62865000Y-81407000D02*
X62865000Y-87630000D01*
X63500000Y-79300000D02*
X63500000Y-80772000D01*
X63500000Y-80772000D02*
X62865000Y-81407000D01*
X66040000Y-85800000D02*
X66040000Y-87122000D01*
X66675000Y-81407000D02*
X66675000Y-87630000D01*
X67310000Y-80772000D02*
X66675000Y-81407000D01*
X67310000Y-79300000D02*
X67310000Y-80772000D01*
X74930000Y-85800000D02*
X74930000Y-87249000D01*
X76200000Y-79300000D02*
X76200000Y-80772000D01*
X76200000Y-80772000D02*
X75565000Y-81407000D01*
X75565000Y-81407000D02*
X75565000Y-87757000D01*
X78740000Y-85800000D02*
X78740000Y-87249000D01*
X80010000Y-79300000D02*
X80010000Y-80772000D01*
X80010000Y-80772000D02*
X79375000Y-81407000D01*
X79375000Y-81407000D02*
X79375000Y-87757000D01*
X87630000Y-85800000D02*
X87630000Y-87122000D01*
X88265000Y-81407000D02*
X88265000Y-87630000D01*
X88900000Y-79300000D02*
X88900000Y-80772000D01*
X88900000Y-80772000D02*
X88265000Y-81407000D01*
X91440000Y-85800000D02*
X91440000Y-87376000D01*
X92710000Y-80772000D02*
X92075000Y-81407000D01*
X92075000Y-81407000D02*
X92075000Y-87757000D01*
X92710000Y-79300000D02*
X92710000Y-80772000D01*
X100330000Y-85800000D02*
X100330000Y-87884000D01*
X100965000Y-81407000D02*
X100965000Y-88392000D01*
X101600000Y-79300000D02*
X101600000Y-80772000D01*
X101600000Y-80772000D02*
X100965000Y-81407000D01*
X104140000Y-85800000D02*
X104140000Y-88392000D01*
X104775000Y-88564853D02*
X104775000Y-81407000D01*
X104920000Y-88709853D02*
X104775000Y-88564853D01*
X104775000Y-81407000D02*
X105410000Y-80772000D01*
X105410000Y-80772000D02*
X105410000Y-79300000D01*
X49530000Y-63373000D02*
X49530000Y-58928000D01*
X41910000Y-63373000D02*
X49530000Y-63373000D01*
X49530000Y-58928000D02*
X48260000Y-57658000D01*
X42340000Y-46355000D02*
X46736000Y-46355000D01*
X40640000Y-62992000D02*
X48260000Y-62992000D01*
X46736000Y-45085000D02*
X42340000Y-45085000D01*
X40640000Y-66544472D02*
X40640000Y-62992000D01*
X48260000Y-62992000D02*
X48260000Y-60198000D01*
X39370000Y-62611000D02*
X46990000Y-62611000D01*
X39370000Y-66544472D02*
X39370000Y-62611000D01*
X46990000Y-62611000D02*
X46990000Y-58928000D01*
X46990000Y-58928000D02*
X45720000Y-57658000D01*
X42340000Y-43815000D02*
X46736000Y-43815000D01*
X42340000Y-42545000D02*
X46736000Y-42545000D01*
X38100000Y-66544472D02*
X38100000Y-62230000D01*
X38100000Y-62230000D02*
X45720000Y-62230000D01*
X45720000Y-62230000D02*
X45720000Y-60198000D01*
X72390000Y-64135000D02*
X72390000Y-58927999D01*
X60120001Y-51435000D02*
X64516001Y-51435000D01*
X80010000Y-64135000D02*
X72390000Y-64135000D01*
X72390000Y-58927999D02*
X71120001Y-57658000D01*
X80010000Y-66544471D02*
X80010000Y-64135000D01*
X78740000Y-64516000D02*
X71120000Y-64516000D01*
X78740000Y-66544471D02*
X78740000Y-64516000D01*
X71120000Y-64516000D02*
X71120001Y-60198000D01*
X60120001Y-50165000D02*
X64516001Y-50165000D01*
X77470000Y-66544471D02*
X77470000Y-64897000D01*
X77470000Y-64897000D02*
X69850000Y-64897000D01*
X69850000Y-58927999D02*
X68580001Y-57658000D01*
X69850000Y-64897000D02*
X69850000Y-58927999D01*
X64516001Y-48895000D02*
X60120001Y-48895000D01*
X76200000Y-66544471D02*
X76200000Y-65278000D01*
X64516001Y-47625000D02*
X60120001Y-47625000D01*
X68580000Y-65278000D02*
X68580001Y-60198000D01*
X76200000Y-65278000D02*
X68580000Y-65278000D01*
X42340000Y-51435000D02*
X46736000Y-51435000D01*
X54610000Y-66600000D02*
X54610000Y-58928000D01*
X54610000Y-58928000D02*
X53340000Y-57658000D01*
X42340000Y-50165000D02*
X46736000Y-50165000D01*
X52070000Y-58928000D02*
X50800000Y-57658000D01*
X52070000Y-66600000D02*
X52070000Y-58928000D01*
X46736000Y-48895000D02*
X42340000Y-48895000D01*
X50800000Y-66600000D02*
X50800000Y-60198000D01*
X46736000Y-47625000D02*
X42340000Y-47625000D01*
X92710000Y-66600000D02*
X92710000Y-64135000D01*
X85090000Y-64135000D02*
X85090000Y-58928000D01*
X77900000Y-46355000D02*
X82296000Y-46355000D01*
X92710000Y-64135000D02*
X85090000Y-64135000D01*
X85090000Y-58928000D02*
X83820000Y-57658000D01*
X83820000Y-64516000D02*
X83820000Y-60198000D01*
X91440000Y-64516000D02*
X83820000Y-64516000D01*
X91440000Y-66600000D02*
X91440000Y-64516000D01*
X82296000Y-45085000D02*
X77900000Y-45085000D01*
X90170000Y-66600000D02*
X90170000Y-64897000D01*
X82550000Y-58928000D02*
X81280000Y-57658000D01*
X82550000Y-64897000D02*
X82550000Y-58928000D01*
X90170000Y-64897000D02*
X82550000Y-64897000D01*
X77900000Y-43815000D02*
X82296000Y-43815000D01*
X88900000Y-66600000D02*
X88900000Y-65278000D01*
X81280000Y-65278000D02*
X81280000Y-60198000D01*
X77900000Y-42545000D02*
X82296000Y-42545000D01*
X88900000Y-65278000D02*
X81280000Y-65278000D01*
X60120001Y-46355000D02*
X64516001Y-46355000D01*
X67310000Y-58927999D02*
X66040001Y-57658000D01*
X67310000Y-66544472D02*
X67310000Y-58927999D01*
X66040000Y-66544472D02*
X66040000Y-65659000D01*
X66040001Y-60198000D02*
X66040001Y-65658999D01*
X66040001Y-65658999D02*
X66040000Y-65659000D01*
X64516001Y-45085000D02*
X60120001Y-45085000D01*
X64770000Y-58927999D02*
X63500001Y-57658000D01*
X60120001Y-43815000D02*
X64516001Y-43815000D01*
X64770000Y-66544472D02*
X64770000Y-58927999D01*
X60120001Y-42545000D02*
X64516001Y-42545000D01*
X63500000Y-66544472D02*
X63500000Y-60198001D01*
X63500000Y-60198001D02*
X63500001Y-60198000D01*
X90170000Y-58928000D02*
X88900000Y-57658000D01*
X90170000Y-62611000D02*
X90170000Y-58928000D01*
X105410000Y-66600000D02*
X105410000Y-62611000D01*
X77900000Y-51435000D02*
X82296000Y-51435000D01*
X105410000Y-62611000D02*
X90170000Y-62611000D01*
X104140000Y-66600000D02*
X104140000Y-62992000D01*
X88900000Y-62992000D02*
X88900000Y-60198000D01*
X104140000Y-62992000D02*
X88900000Y-62992000D01*
X77900000Y-50165000D02*
X82296000Y-50165000D01*
X102870000Y-63373000D02*
X87630000Y-63373000D01*
X87630000Y-63373000D02*
X87630000Y-58928000D01*
X82296000Y-48895000D02*
X77900000Y-48895000D01*
X87630000Y-58928000D02*
X86360000Y-57658000D01*
X102870000Y-66600000D02*
X102870000Y-63373000D01*
X101600000Y-66600000D02*
X101600000Y-63754000D01*
X101600000Y-63754000D02*
X86360000Y-63754000D01*
X82296000Y-47625000D02*
X77900000Y-47625000D01*
X86360000Y-63754000D02*
X86360000Y-60198000D01*
X40005000Y-80772000D02*
X40005000Y-77470000D01*
X39370000Y-85800000D02*
X39370000Y-81407000D01*
X39370000Y-81407000D02*
X40005000Y-80772000D01*
X40005000Y-77470000D02*
X38100000Y-75565000D01*
X38100000Y-75565000D02*
X38100000Y-73044472D01*
X40640000Y-76835000D02*
X40640000Y-79300000D01*
X39370000Y-73044472D02*
X39370000Y-75565000D01*
X39370000Y-75565000D02*
X40640000Y-76835000D01*
X43180000Y-81470500D02*
X42545000Y-80835500D01*
X42545000Y-80835500D02*
X42545000Y-77470000D01*
X42545000Y-77470000D02*
X40640000Y-75565000D01*
X40640000Y-75565000D02*
X40640000Y-73044472D01*
X43180000Y-85800000D02*
X43180000Y-81470500D01*
X41910000Y-73044472D02*
X41910000Y-74930000D01*
X44450000Y-79300000D02*
X44450000Y-77470000D01*
X41910000Y-74930000D02*
X44450000Y-77470000D01*
X76200000Y-73025000D02*
X76200000Y-75545528D01*
X78105000Y-80772000D02*
X78105000Y-77470000D01*
X76200000Y-75545528D02*
X78105000Y-77450528D01*
X77470000Y-85800000D02*
X77470000Y-81407000D01*
X77470000Y-81407000D02*
X78105000Y-80772000D01*
X78740000Y-76825264D02*
X78740000Y-79300000D01*
X77470000Y-73025000D02*
X77470000Y-75555264D01*
X77470000Y-75555264D02*
X78740000Y-76825264D01*
X81280000Y-85800000D02*
X81280000Y-81343500D01*
X78740000Y-75545528D02*
X80645000Y-77450528D01*
X81280000Y-81343500D02*
X80645000Y-80708500D01*
X78740000Y-73025000D02*
X78740000Y-75545528D01*
X80645000Y-80708500D02*
X80645000Y-77470000D01*
X80010000Y-74910528D02*
X82550000Y-77450528D01*
X82550000Y-79300000D02*
X82550000Y-77470000D01*
X80010000Y-73025000D02*
X80010000Y-74910528D01*
X52070000Y-85800000D02*
X52070000Y-81407000D01*
X50800000Y-73025000D02*
X50800000Y-75545528D01*
X50800000Y-75545528D02*
X52705000Y-77450528D01*
X52070000Y-81407000D02*
X52705000Y-80772000D01*
X52705000Y-80772000D02*
X52705000Y-77470000D01*
X52070000Y-75565000D02*
X53340000Y-76835000D01*
X53340000Y-79300000D02*
X53340000Y-76835000D01*
X52070000Y-73025000D02*
X52070000Y-75565000D01*
X53340000Y-75545528D02*
X55245000Y-77450528D01*
X55245000Y-80772000D02*
X55245000Y-77470000D01*
X55880000Y-81407000D02*
X55245000Y-80772000D01*
X53340000Y-73025000D02*
X53340000Y-75545528D01*
X55880000Y-85800000D02*
X55880000Y-81407000D01*
X57150000Y-79300000D02*
X57150000Y-77470000D01*
X54610000Y-73025000D02*
X54610000Y-74910528D01*
X54610000Y-74910528D02*
X57150000Y-77450528D01*
X90805000Y-80772000D02*
X90805000Y-77470000D01*
X88900000Y-75545528D02*
X90805000Y-77450528D01*
X88900000Y-73025000D02*
X88900000Y-75545528D01*
X90170000Y-85800000D02*
X90170000Y-81407000D01*
X90170000Y-81407000D02*
X90805000Y-80772000D01*
X91440000Y-79300000D02*
X91440000Y-76835000D01*
X90170000Y-75565000D02*
X91440000Y-76835000D01*
X90170000Y-73025000D02*
X90170000Y-75565000D01*
X93980000Y-81407000D02*
X93345000Y-80772000D01*
X91440000Y-75545528D02*
X93345000Y-77450528D01*
X91440000Y-73025000D02*
X91440000Y-75545528D01*
X93980000Y-85800000D02*
X93980000Y-81407000D01*
X93345000Y-80772000D02*
X93345000Y-77470000D01*
X95250000Y-79300000D02*
X95250000Y-77470000D01*
X92710000Y-73025000D02*
X92710000Y-74910528D01*
X92710000Y-74910528D02*
X95250000Y-77450528D01*
X63500000Y-73025000D02*
X63500000Y-75545528D01*
X63500000Y-75545528D02*
X65405000Y-77450528D01*
X64770000Y-85800000D02*
X64770000Y-81470500D01*
X65405000Y-80835500D02*
X65405000Y-77470000D01*
X64770000Y-81470500D02*
X65405000Y-80835500D01*
X66040000Y-79300000D02*
X66040000Y-76835000D01*
X64770000Y-73025000D02*
X64770000Y-75565000D01*
X64770000Y-75565000D02*
X66040000Y-76835000D01*
X66040000Y-73025000D02*
X66040000Y-75545528D01*
X67945000Y-80772000D02*
X67945000Y-77470000D01*
X68580000Y-85800000D02*
X68580000Y-81407000D01*
X66040000Y-75545528D02*
X67945000Y-77450528D01*
X68580000Y-81407000D02*
X67945000Y-80772000D01*
X67310000Y-73025000D02*
X67310000Y-74910528D01*
X67310000Y-74910528D02*
X69850000Y-77450528D01*
X69850000Y-79300000D02*
X69850000Y-77470000D01*
X102870000Y-85800000D02*
X102870000Y-81407000D01*
X101600000Y-75545528D02*
X103505000Y-77450528D01*
X101600000Y-73025000D02*
X101600000Y-75545528D01*
X102870000Y-81407000D02*
X103505000Y-80772000D01*
X103505000Y-80772000D02*
X103505000Y-77470000D01*
X102870000Y-73025000D02*
X102870000Y-75565000D01*
X102870000Y-75565000D02*
X104140000Y-76835000D01*
X104140000Y-79300000D02*
X104140000Y-76835000D01*
X106680000Y-81407000D02*
X106045000Y-80772000D01*
X104140000Y-75545528D02*
X106045000Y-77450528D01*
X106045000Y-80772000D02*
X106045000Y-77470000D01*
X106680000Y-85800000D02*
X106680000Y-81407000D01*
X104140000Y-73025000D02*
X104140000Y-75545528D01*
X107950000Y-79300000D02*
X107950000Y-77470000D01*
X105410000Y-73025000D02*
X105410000Y-74910528D01*
X105410000Y-74910528D02*
X107950000Y-77450528D01*
X55880000Y-66600000D02*
X55880000Y-68072000D01*
X36830000Y-66544472D02*
X36830000Y-68072000D01*
X68580000Y-66544472D02*
X68580000Y-68580000D01*
X49530000Y-68580000D02*
X49530000Y-66600000D01*
X62230000Y-67945000D02*
X62230000Y-66544472D01*
X81280000Y-66544471D02*
X81280000Y-67945000D01*
X93980000Y-66600000D02*
X93980000Y-68580000D01*
X74930000Y-68580000D02*
X74930000Y-66544471D01*
X106680000Y-66600000D02*
X106680000Y-67945000D01*
X87630000Y-67945000D02*
X87630000Y-66600000D01*
X125807001Y-28432000D02*
X125857001Y-28482000D01*
X123571000Y-28432000D02*
X125807001Y-28432000D01*
X102870000Y-79300000D02*
X102870000Y-77724000D01*
X32385000Y-77724000D02*
X33655000Y-77724000D01*
X37195000Y-48260000D02*
X38227000Y-48260000D01*
X102870000Y-77724000D02*
X102235000Y-77724000D01*
X32385000Y-62230000D02*
X32385000Y-77724000D01*
X29210000Y-62230000D02*
X32385000Y-62230000D01*
X35195000Y-50800000D02*
X33925000Y-52070000D01*
X33925000Y-52070000D02*
X31995000Y-52070000D01*
X31995000Y-52070000D02*
X30725000Y-50800000D01*
X33925000Y-49530000D02*
X31995000Y-49530000D01*
X35195000Y-48260000D02*
X33925000Y-49530000D01*
X31995000Y-49530000D02*
X30725000Y-48260000D01*
X32056999Y-46990000D02*
X30786999Y-45720000D01*
X35195000Y-45720000D02*
X33925000Y-46990000D01*
X33925000Y-46990000D02*
X32056999Y-46990000D01*
X32836998Y-43180000D02*
X35195000Y-43180000D01*
X32775000Y-40640000D02*
X35178816Y-40640000D01*
X35178816Y-40640000D02*
X35195000Y-40623816D01*
G04 #@! TA.AperFunction,Conductor*
G36*
X119126000Y-27940000D02*
G01*
X31623000Y-27940000D01*
X27813000Y-31750000D01*
X27813000Y-95250000D01*
X31623000Y-99060000D01*
X123223331Y-99060000D01*
X123281522Y-99078907D01*
X123293334Y-99088996D01*
X123363655Y-99159316D01*
X123363658Y-99159318D01*
X123512875Y-99251356D01*
X123679306Y-99306506D01*
X123782013Y-99316999D01*
X123994498Y-99316999D01*
X123994500Y-99316998D01*
X123994500Y-99060000D01*
X124494500Y-99060000D01*
X124494500Y-99316998D01*
X124494501Y-99316999D01*
X124706986Y-99316999D01*
X124809687Y-99306507D01*
X124809699Y-99306504D01*
X124976124Y-99251356D01*
X125125341Y-99159318D01*
X125125344Y-99159316D01*
X125195666Y-99088996D01*
X125250183Y-99061219D01*
X125265669Y-99060000D01*
X125730000Y-99060000D01*
X125730000Y-101299311D01*
X125725681Y-101299500D01*
X26674319Y-101299500D01*
X26665691Y-101299123D01*
X26604100Y-101293734D01*
X26510279Y-101285526D01*
X26493285Y-101282530D01*
X26346777Y-101243273D01*
X26330561Y-101237371D01*
X26193097Y-101173271D01*
X26178152Y-101164642D01*
X26053915Y-101077650D01*
X26040695Y-101066558D01*
X25933441Y-100959304D01*
X25922349Y-100946084D01*
X25835357Y-100821847D01*
X25826728Y-100806902D01*
X25762628Y-100669438D01*
X25756726Y-100653222D01*
X25717467Y-100506707D01*
X25714474Y-100489726D01*
X25700877Y-100334309D01*
X25700500Y-100325681D01*
X25700500Y-99060000D01*
X26634532Y-99060000D01*
X26654363Y-99286684D01*
X26654364Y-99286691D01*
X26654365Y-99286692D01*
X26662486Y-99316999D01*
X26713262Y-99506500D01*
X26809426Y-99712723D01*
X26809434Y-99712737D01*
X26939946Y-99899130D01*
X26939947Y-99899132D01*
X26939950Y-99899135D01*
X26939953Y-99899139D01*
X27100861Y-100060047D01*
X27100864Y-100060049D01*
X27100867Y-100060052D01*
X27100869Y-100060053D01*
X27225131Y-100147061D01*
X27287266Y-100190568D01*
X27287272Y-100190571D01*
X27287276Y-100190573D01*
X27493500Y-100286737D01*
X27493504Y-100286739D01*
X27713308Y-100345635D01*
X27713312Y-100345635D01*
X27713315Y-100345636D01*
X27883208Y-100360500D01*
X27883216Y-100360500D01*
X27996792Y-100360500D01*
X28166684Y-100345636D01*
X28166685Y-100345635D01*
X28166692Y-100345635D01*
X28386496Y-100286739D01*
X28592734Y-100190568D01*
X28779139Y-100060047D01*
X28940047Y-99899139D01*
X29070568Y-99712734D01*
X29166739Y-99506496D01*
X29225635Y-99286692D01*
X29245468Y-99060000D01*
X29241500Y-99014646D01*
X29225636Y-98833315D01*
X29225635Y-98833312D01*
X29225635Y-98833308D01*
X29166739Y-98613504D01*
X29070568Y-98407266D01*
X28996064Y-98300862D01*
X28940053Y-98220869D01*
X28940052Y-98220867D01*
X28940049Y-98220864D01*
X28940047Y-98220861D01*
X28779139Y-98059953D01*
X28779135Y-98059950D01*
X28779132Y-98059947D01*
X28779130Y-98059946D01*
X28592737Y-97929434D01*
X28592736Y-97929433D01*
X28592734Y-97929432D01*
X28592731Y-97929430D01*
X28592723Y-97929426D01*
X28386499Y-97833262D01*
X28386500Y-97833262D01*
X28313228Y-97813629D01*
X28166692Y-97774365D01*
X28166691Y-97774364D01*
X28166684Y-97774363D01*
X27996792Y-97759500D01*
X27996784Y-97759500D01*
X27883216Y-97759500D01*
X27883208Y-97759500D01*
X27713315Y-97774363D01*
X27493499Y-97833262D01*
X27287276Y-97929426D01*
X27287262Y-97929434D01*
X27100869Y-98059946D01*
X27100867Y-98059947D01*
X26939947Y-98220867D01*
X26939946Y-98220869D01*
X26809434Y-98407262D01*
X26809426Y-98407276D01*
X26713262Y-98613499D01*
X26654363Y-98833315D01*
X26634532Y-99059996D01*
X26634532Y-99060000D01*
X25700500Y-99060000D01*
X25700500Y-27940000D01*
X26634532Y-27940000D01*
X26654363Y-28166684D01*
X26654364Y-28166691D01*
X26654365Y-28166692D01*
X26673048Y-28236418D01*
X26713262Y-28386500D01*
X26809426Y-28592723D01*
X26809434Y-28592737D01*
X26939946Y-28779130D01*
X26939947Y-28779132D01*
X26939950Y-28779135D01*
X26939953Y-28779139D01*
X27100861Y-28940047D01*
X27100864Y-28940049D01*
X27100867Y-28940052D01*
X27100869Y-28940053D01*
X27179174Y-28994882D01*
X27287266Y-29070568D01*
X27287272Y-29070571D01*
X27287276Y-29070573D01*
X27493500Y-29166737D01*
X27493504Y-29166739D01*
X27713308Y-29225635D01*
X27713312Y-29225635D01*
X27713315Y-29225636D01*
X27883208Y-29240500D01*
X27883216Y-29240500D01*
X27996792Y-29240500D01*
X28166684Y-29225636D01*
X28166685Y-29225635D01*
X28166692Y-29225635D01*
X28386496Y-29166739D01*
X28592734Y-29070568D01*
X28779139Y-28940047D01*
X28940047Y-28779139D01*
X29070568Y-28592734D01*
X29166739Y-28386496D01*
X29225635Y-28166692D01*
X29231612Y-28098381D01*
X29245468Y-27940000D01*
X29245468Y-27939996D01*
X29225636Y-27713315D01*
X29225635Y-27713312D01*
X29225635Y-27713308D01*
X29166739Y-27493504D01*
X29070568Y-27287266D01*
X28969887Y-27143477D01*
X28940053Y-27100869D01*
X28940052Y-27100867D01*
X28940049Y-27100864D01*
X28940047Y-27100861D01*
X28779139Y-26939953D01*
X28779135Y-26939950D01*
X28779132Y-26939947D01*
X28779130Y-26939946D01*
X28592737Y-26809434D01*
X28592736Y-26809433D01*
X28592734Y-26809432D01*
X28592731Y-26809430D01*
X28592723Y-26809426D01*
X28386499Y-26713262D01*
X28386500Y-26713262D01*
X28225043Y-26670000D01*
X28166692Y-26654365D01*
X28166691Y-26654364D01*
X28166684Y-26654363D01*
X27996792Y-26639500D01*
X27996784Y-26639500D01*
X27883216Y-26639500D01*
X27883208Y-26639500D01*
X27713315Y-26654363D01*
X27493499Y-26713262D01*
X27287276Y-26809426D01*
X27287262Y-26809434D01*
X27100869Y-26939946D01*
X27100867Y-26939947D01*
X26939947Y-27100867D01*
X26939946Y-27100869D01*
X26809434Y-27287262D01*
X26809426Y-27287276D01*
X26713262Y-27493499D01*
X26654363Y-27713315D01*
X26634532Y-27939996D01*
X26634532Y-27940000D01*
X25700500Y-27940000D01*
X25700500Y-26674318D01*
X25700877Y-26665690D01*
X25703168Y-26639500D01*
X25714474Y-26510271D01*
X25717467Y-26493294D01*
X25756727Y-26346773D01*
X25762626Y-26330565D01*
X25826732Y-26193088D01*
X25835351Y-26178160D01*
X25922354Y-26053908D01*
X25933435Y-26040701D01*
X26040701Y-25933435D01*
X26053908Y-25922354D01*
X26178160Y-25835351D01*
X26193088Y-25826732D01*
X26330565Y-25762626D01*
X26346773Y-25756727D01*
X26493294Y-25717467D01*
X26510271Y-25714474D01*
X26665691Y-25700877D01*
X26674319Y-25700500D01*
X26717595Y-25700500D01*
X119126000Y-25700500D01*
X119126000Y-27940000D01*
G37*
G04 #@! TD.AperFunction*
G04 #@! TA.AperFunction,Conductor*
G36*
X126699500Y-100325681D02*
G01*
X126699123Y-100334310D01*
X126685526Y-100489720D01*
X126682530Y-100506714D01*
X126643273Y-100653222D01*
X126637371Y-100669438D01*
X126573271Y-100806902D01*
X126564642Y-100821847D01*
X126477650Y-100946084D01*
X126466558Y-100959304D01*
X126359304Y-101066558D01*
X126346084Y-101077650D01*
X126221847Y-101164642D01*
X126206902Y-101173271D01*
X126069438Y-101237371D01*
X126053222Y-101243273D01*
X125906714Y-101282530D01*
X125889720Y-101285526D01*
X125777099Y-101295379D01*
X125734308Y-101299123D01*
X125730000Y-101299311D01*
X125730000Y-92589500D01*
X125748907Y-92531309D01*
X125798407Y-92495345D01*
X125829000Y-92490500D01*
X125964747Y-92490500D01*
X125964748Y-92490500D01*
X126023231Y-92478867D01*
X126089552Y-92434552D01*
X126133867Y-92368231D01*
X126145500Y-92309748D01*
X126145500Y-90570252D01*
X126133867Y-90511769D01*
X126089552Y-90445448D01*
X126089548Y-90445445D01*
X126023233Y-90401134D01*
X126023231Y-90401133D01*
X126023228Y-90401132D01*
X126023227Y-90401132D01*
X125964758Y-90389501D01*
X125964748Y-90389500D01*
X125829000Y-90389500D01*
X125770809Y-90370593D01*
X125734845Y-90321093D01*
X125730000Y-90290500D01*
X125730000Y-90049500D01*
X125748907Y-89991309D01*
X125798407Y-89955345D01*
X125829000Y-89950500D01*
X125964747Y-89950500D01*
X125964748Y-89950500D01*
X126023231Y-89938867D01*
X126089552Y-89894552D01*
X126133867Y-89828231D01*
X126145500Y-89769748D01*
X126145500Y-88030252D01*
X126133867Y-87971769D01*
X126089552Y-87905448D01*
X126089548Y-87905445D01*
X126023233Y-87861134D01*
X126023231Y-87861133D01*
X126023228Y-87861132D01*
X126023227Y-87861132D01*
X125964758Y-87849501D01*
X125964748Y-87849500D01*
X125829000Y-87849500D01*
X125770809Y-87830593D01*
X125734845Y-87781093D01*
X125730000Y-87750500D01*
X125730000Y-87509500D01*
X125748907Y-87451309D01*
X125798407Y-87415345D01*
X125829000Y-87410500D01*
X125964747Y-87410500D01*
X125964748Y-87410500D01*
X126023231Y-87398867D01*
X126089552Y-87354552D01*
X126133867Y-87288231D01*
X126145500Y-87229748D01*
X126145500Y-85490252D01*
X126133867Y-85431769D01*
X126089552Y-85365448D01*
X126089548Y-85365445D01*
X126023233Y-85321134D01*
X126023231Y-85321133D01*
X126023228Y-85321132D01*
X126023227Y-85321132D01*
X125964758Y-85309501D01*
X125964748Y-85309500D01*
X125829000Y-85309500D01*
X125770809Y-85290593D01*
X125734845Y-85241093D01*
X125730000Y-85210500D01*
X125730000Y-84969500D01*
X125748907Y-84911309D01*
X125798407Y-84875345D01*
X125829000Y-84870500D01*
X125964747Y-84870500D01*
X125964748Y-84870500D01*
X126023231Y-84858867D01*
X126089552Y-84814552D01*
X126133867Y-84748231D01*
X126145500Y-84689748D01*
X126145500Y-82950252D01*
X126133867Y-82891769D01*
X126089552Y-82825448D01*
X126089548Y-82825445D01*
X126023233Y-82781134D01*
X126023231Y-82781133D01*
X126023228Y-82781132D01*
X126023227Y-82781132D01*
X125964758Y-82769501D01*
X125964748Y-82769500D01*
X125829000Y-82769500D01*
X125770809Y-82750593D01*
X125734845Y-82701093D01*
X125730000Y-82670500D01*
X125730000Y-82429500D01*
X125748907Y-82371309D01*
X125798407Y-82335345D01*
X125829000Y-82330500D01*
X125964747Y-82330500D01*
X125964748Y-82330500D01*
X126023231Y-82318867D01*
X126089552Y-82274552D01*
X126133867Y-82208231D01*
X126145500Y-82149748D01*
X126145500Y-80410252D01*
X126133867Y-80351769D01*
X126089552Y-80285448D01*
X126089548Y-80285445D01*
X126023233Y-80241134D01*
X126023231Y-80241133D01*
X126023228Y-80241132D01*
X126023227Y-80241132D01*
X125964758Y-80229501D01*
X125964748Y-80229500D01*
X125829000Y-80229500D01*
X125770809Y-80210593D01*
X125734845Y-80161093D01*
X125730000Y-80130500D01*
X125730000Y-79889500D01*
X125748907Y-79831309D01*
X125798407Y-79795345D01*
X125829000Y-79790500D01*
X125964747Y-79790500D01*
X125964748Y-79790500D01*
X126023231Y-79778867D01*
X126089552Y-79734552D01*
X126133867Y-79668231D01*
X126145500Y-79609748D01*
X126145500Y-77870252D01*
X126133867Y-77811769D01*
X126089552Y-77745448D01*
X126089548Y-77745445D01*
X126023233Y-77701134D01*
X126023231Y-77701133D01*
X126023228Y-77701132D01*
X126023227Y-77701132D01*
X125964758Y-77689501D01*
X125964748Y-77689500D01*
X125829000Y-77689500D01*
X125770809Y-77670593D01*
X125734845Y-77621093D01*
X125730000Y-77590500D01*
X125730000Y-77349500D01*
X125748907Y-77291309D01*
X125798407Y-77255345D01*
X125829000Y-77250500D01*
X125964747Y-77250500D01*
X125964748Y-77250500D01*
X126023231Y-77238867D01*
X126089552Y-77194552D01*
X126133867Y-77128231D01*
X126145500Y-77069748D01*
X126145500Y-75330252D01*
X126133867Y-75271769D01*
X126089552Y-75205448D01*
X126089548Y-75205445D01*
X126023233Y-75161134D01*
X126023231Y-75161133D01*
X126023228Y-75161132D01*
X126023227Y-75161132D01*
X125964758Y-75149501D01*
X125964748Y-75149500D01*
X125829000Y-75149500D01*
X125770809Y-75130593D01*
X125734845Y-75081093D01*
X125730000Y-75050500D01*
X125730000Y-74809500D01*
X125748907Y-74751309D01*
X125798407Y-74715345D01*
X125829000Y-74710500D01*
X125964747Y-74710500D01*
X125964748Y-74710500D01*
X126023231Y-74698867D01*
X126089552Y-74654552D01*
X126133867Y-74588231D01*
X126145500Y-74529748D01*
X126145500Y-72790252D01*
X126133867Y-72731769D01*
X126089552Y-72665448D01*
X126089548Y-72665445D01*
X126023233Y-72621134D01*
X126023231Y-72621133D01*
X126023228Y-72621132D01*
X126023227Y-72621132D01*
X125964758Y-72609501D01*
X125964748Y-72609500D01*
X125829000Y-72609500D01*
X125770809Y-72590593D01*
X125734845Y-72541093D01*
X125730000Y-72510500D01*
X125730000Y-72269500D01*
X125748907Y-72211309D01*
X125798407Y-72175345D01*
X125829000Y-72170500D01*
X125964747Y-72170500D01*
X125964748Y-72170500D01*
X126023231Y-72158867D01*
X126089552Y-72114552D01*
X126133867Y-72048231D01*
X126145500Y-71989748D01*
X126145500Y-70250252D01*
X126133867Y-70191769D01*
X126089552Y-70125448D01*
X126089548Y-70125445D01*
X126023233Y-70081134D01*
X126023231Y-70081133D01*
X126023228Y-70081132D01*
X126023227Y-70081132D01*
X125964758Y-70069501D01*
X125964748Y-70069500D01*
X125829000Y-70069500D01*
X125770809Y-70050593D01*
X125734845Y-70001093D01*
X125730000Y-69970500D01*
X125730000Y-69729500D01*
X125748907Y-69671309D01*
X125798407Y-69635345D01*
X125829000Y-69630500D01*
X125964747Y-69630500D01*
X125964748Y-69630500D01*
X126023231Y-69618867D01*
X126089552Y-69574552D01*
X126133867Y-69508231D01*
X126145500Y-69449748D01*
X126145500Y-67710252D01*
X126133867Y-67651769D01*
X126089552Y-67585448D01*
X126089548Y-67585445D01*
X126023233Y-67541134D01*
X126023231Y-67541133D01*
X126023228Y-67541132D01*
X126023227Y-67541132D01*
X125964758Y-67529501D01*
X125964748Y-67529500D01*
X125829000Y-67529500D01*
X125770809Y-67510593D01*
X125734845Y-67461093D01*
X125730000Y-67430500D01*
X125730000Y-67189500D01*
X125748907Y-67131309D01*
X125798407Y-67095345D01*
X125829000Y-67090500D01*
X125964747Y-67090500D01*
X125964748Y-67090500D01*
X126023231Y-67078867D01*
X126089552Y-67034552D01*
X126133867Y-66968231D01*
X126145500Y-66909748D01*
X126145500Y-65170252D01*
X126133867Y-65111769D01*
X126089552Y-65045448D01*
X126089548Y-65045445D01*
X126023233Y-65001134D01*
X126023231Y-65001133D01*
X126023228Y-65001132D01*
X126023227Y-65001132D01*
X125964758Y-64989501D01*
X125964748Y-64989500D01*
X125829000Y-64989500D01*
X125770809Y-64970593D01*
X125734845Y-64921093D01*
X125730000Y-64890500D01*
X125730000Y-64649500D01*
X125748907Y-64591309D01*
X125798407Y-64555345D01*
X125829000Y-64550500D01*
X125964747Y-64550500D01*
X125964748Y-64550500D01*
X126023231Y-64538867D01*
X126089552Y-64494552D01*
X126133867Y-64428231D01*
X126145500Y-64369748D01*
X126145500Y-62630252D01*
X126133867Y-62571769D01*
X126089552Y-62505448D01*
X126089548Y-62505445D01*
X126023233Y-62461134D01*
X126023231Y-62461133D01*
X126023228Y-62461132D01*
X126023227Y-62461132D01*
X125964758Y-62449501D01*
X125964748Y-62449500D01*
X125829000Y-62449500D01*
X125770809Y-62430593D01*
X125734845Y-62381093D01*
X125730000Y-62350500D01*
X125730000Y-62109500D01*
X125748907Y-62051309D01*
X125798407Y-62015345D01*
X125829000Y-62010500D01*
X125964747Y-62010500D01*
X125964748Y-62010500D01*
X126023231Y-61998867D01*
X126089552Y-61954552D01*
X126133867Y-61888231D01*
X126145500Y-61829748D01*
X126145500Y-60090252D01*
X126133867Y-60031769D01*
X126089552Y-59965448D01*
X126089548Y-59965445D01*
X126023233Y-59921134D01*
X126023231Y-59921133D01*
X126023228Y-59921132D01*
X126023227Y-59921132D01*
X125964758Y-59909501D01*
X125964748Y-59909500D01*
X125829000Y-59909500D01*
X125770809Y-59890593D01*
X125734845Y-59841093D01*
X125730000Y-59810500D01*
X125730000Y-59569500D01*
X125748907Y-59511309D01*
X125798407Y-59475345D01*
X125829000Y-59470500D01*
X125964747Y-59470500D01*
X125964748Y-59470500D01*
X126023231Y-59458867D01*
X126089552Y-59414552D01*
X126133867Y-59348231D01*
X126145500Y-59289748D01*
X126145500Y-57550252D01*
X126133867Y-57491769D01*
X126089552Y-57425448D01*
X126089548Y-57425445D01*
X126023233Y-57381134D01*
X126023231Y-57381133D01*
X126023228Y-57381132D01*
X126023227Y-57381132D01*
X125964758Y-57369501D01*
X125964748Y-57369500D01*
X125829000Y-57369500D01*
X125770809Y-57350593D01*
X125734845Y-57301093D01*
X125730000Y-57270500D01*
X125730000Y-57029500D01*
X125748907Y-56971309D01*
X125798407Y-56935345D01*
X125829000Y-56930500D01*
X125964747Y-56930500D01*
X125964748Y-56930500D01*
X126023231Y-56918867D01*
X126089552Y-56874552D01*
X126133867Y-56808231D01*
X126145500Y-56749748D01*
X126145500Y-55010252D01*
X126133867Y-54951769D01*
X126089552Y-54885448D01*
X126089548Y-54885445D01*
X126023233Y-54841134D01*
X126023231Y-54841133D01*
X126023228Y-54841132D01*
X126023227Y-54841132D01*
X125964758Y-54829501D01*
X125964748Y-54829500D01*
X125829000Y-54829500D01*
X125770809Y-54810593D01*
X125734845Y-54761093D01*
X125730000Y-54730500D01*
X125730000Y-54489500D01*
X125748907Y-54431309D01*
X125798407Y-54395345D01*
X125829000Y-54390500D01*
X125964747Y-54390500D01*
X125964748Y-54390500D01*
X126023231Y-54378867D01*
X126089552Y-54334552D01*
X126133867Y-54268231D01*
X126145500Y-54209748D01*
X126145500Y-52470252D01*
X126133867Y-52411769D01*
X126089552Y-52345448D01*
X126089548Y-52345445D01*
X126023233Y-52301134D01*
X126023231Y-52301133D01*
X126023228Y-52301132D01*
X126023227Y-52301132D01*
X125964758Y-52289501D01*
X125964748Y-52289500D01*
X125829000Y-52289500D01*
X125770809Y-52270593D01*
X125734845Y-52221093D01*
X125730000Y-52190500D01*
X125730000Y-51949500D01*
X125748907Y-51891309D01*
X125798407Y-51855345D01*
X125829000Y-51850500D01*
X125964747Y-51850500D01*
X125964748Y-51850500D01*
X126023231Y-51838867D01*
X126089552Y-51794552D01*
X126133867Y-51728231D01*
X126145500Y-51669748D01*
X126145500Y-49930252D01*
X126133867Y-49871769D01*
X126089552Y-49805448D01*
X126089548Y-49805445D01*
X126023233Y-49761134D01*
X126023231Y-49761133D01*
X126023228Y-49761132D01*
X126023227Y-49761132D01*
X125964758Y-49749501D01*
X125964748Y-49749500D01*
X125829000Y-49749500D01*
X125770809Y-49730593D01*
X125734845Y-49681093D01*
X125730000Y-49650500D01*
X125730000Y-49409500D01*
X125748907Y-49351309D01*
X125798407Y-49315345D01*
X125829000Y-49310500D01*
X125964747Y-49310500D01*
X125964748Y-49310500D01*
X126023231Y-49298867D01*
X126089552Y-49254552D01*
X126133867Y-49188231D01*
X126145500Y-49129748D01*
X126145500Y-47390252D01*
X126133867Y-47331769D01*
X126089552Y-47265448D01*
X126089548Y-47265445D01*
X126023233Y-47221134D01*
X126023231Y-47221133D01*
X126023228Y-47221132D01*
X126023227Y-47221132D01*
X125964758Y-47209501D01*
X125964748Y-47209500D01*
X125829000Y-47209500D01*
X125770809Y-47190593D01*
X125734845Y-47141093D01*
X125730000Y-47110500D01*
X125730000Y-46869500D01*
X125748907Y-46811309D01*
X125798407Y-46775345D01*
X125829000Y-46770500D01*
X125964747Y-46770500D01*
X125964748Y-46770500D01*
X126023231Y-46758867D01*
X126089552Y-46714552D01*
X126133867Y-46648231D01*
X126145500Y-46589748D01*
X126145500Y-44850252D01*
X126133867Y-44791769D01*
X126089552Y-44725448D01*
X126089548Y-44725445D01*
X126023233Y-44681134D01*
X126023231Y-44681133D01*
X126023228Y-44681132D01*
X126023227Y-44681132D01*
X125964758Y-44669501D01*
X125964748Y-44669500D01*
X125829000Y-44669500D01*
X125770809Y-44650593D01*
X125734845Y-44601093D01*
X125730000Y-44570500D01*
X125730000Y-44329500D01*
X125748907Y-44271309D01*
X125798407Y-44235345D01*
X125829000Y-44230500D01*
X125964747Y-44230500D01*
X125964748Y-44230500D01*
X126023231Y-44218867D01*
X126089552Y-44174552D01*
X126133867Y-44108231D01*
X126145500Y-44049748D01*
X126145500Y-42310252D01*
X126133867Y-42251769D01*
X126089552Y-42185448D01*
X126089548Y-42185445D01*
X126023233Y-42141134D01*
X126023231Y-42141133D01*
X126023228Y-42141132D01*
X126023227Y-42141132D01*
X125964758Y-42129501D01*
X125964748Y-42129500D01*
X125829000Y-42129500D01*
X125770809Y-42110593D01*
X125734845Y-42061093D01*
X125730000Y-42030500D01*
X125730000Y-41789500D01*
X125748907Y-41731309D01*
X125798407Y-41695345D01*
X125829000Y-41690500D01*
X125964747Y-41690500D01*
X125964748Y-41690500D01*
X126023231Y-41678867D01*
X126089552Y-41634552D01*
X126133867Y-41568231D01*
X126145500Y-41509748D01*
X126145500Y-39770252D01*
X126133867Y-39711769D01*
X126089552Y-39645448D01*
X126089548Y-39645445D01*
X126023233Y-39601134D01*
X126023231Y-39601133D01*
X126023228Y-39601132D01*
X126023227Y-39601132D01*
X125964758Y-39589501D01*
X125964748Y-39589500D01*
X125829000Y-39589500D01*
X125770809Y-39570593D01*
X125734845Y-39521093D01*
X125730000Y-39490500D01*
X125730000Y-39249500D01*
X125748907Y-39191309D01*
X125798407Y-39155345D01*
X125829000Y-39150500D01*
X125964747Y-39150500D01*
X125964748Y-39150500D01*
X126023231Y-39138867D01*
X126089552Y-39094552D01*
X126133867Y-39028231D01*
X126145500Y-38969748D01*
X126145500Y-37230252D01*
X126133867Y-37171769D01*
X126089552Y-37105448D01*
X126089548Y-37105445D01*
X126023233Y-37061134D01*
X126023231Y-37061133D01*
X126023228Y-37061132D01*
X126023227Y-37061132D01*
X125964758Y-37049501D01*
X125964748Y-37049500D01*
X125829000Y-37049500D01*
X125770809Y-37030593D01*
X125734845Y-36981093D01*
X125730000Y-36950500D01*
X125730000Y-36709500D01*
X125748907Y-36651309D01*
X125798407Y-36615345D01*
X125829000Y-36610500D01*
X125964747Y-36610500D01*
X125964748Y-36610500D01*
X126023231Y-36598867D01*
X126089552Y-36554552D01*
X126133867Y-36488231D01*
X126145500Y-36429748D01*
X126145500Y-34690252D01*
X126133867Y-34631769D01*
X126089552Y-34565448D01*
X126089548Y-34565445D01*
X126023233Y-34521134D01*
X126023231Y-34521133D01*
X126023228Y-34521132D01*
X126023227Y-34521132D01*
X125964758Y-34509501D01*
X125964748Y-34509500D01*
X125829000Y-34509500D01*
X125770809Y-34490593D01*
X125734845Y-34441093D01*
X125730000Y-34410500D01*
X125730000Y-34169500D01*
X125748907Y-34111309D01*
X125798407Y-34075345D01*
X125829000Y-34070500D01*
X125964747Y-34070500D01*
X125964748Y-34070500D01*
X126023231Y-34058867D01*
X126089552Y-34014552D01*
X126133867Y-33948231D01*
X126145500Y-33889748D01*
X126145500Y-32150252D01*
X126133867Y-32091769D01*
X126089552Y-32025448D01*
X126089548Y-32025445D01*
X126023233Y-31981134D01*
X126023231Y-31981133D01*
X126023228Y-31981132D01*
X126023227Y-31981132D01*
X125964758Y-31969501D01*
X125964748Y-31969500D01*
X125829000Y-31969500D01*
X125770809Y-31950593D01*
X125734845Y-31901093D01*
X125730000Y-31870500D01*
X125730000Y-30099001D01*
X125730000Y-30099000D01*
X126699500Y-30099000D01*
X126699500Y-100325681D01*
G37*
G04 #@! TD.AperFunction*
G04 #@! TA.AperFunction,Conductor*
G36*
X126639751Y-28771338D02*
G01*
X126685676Y-28811767D01*
X126699500Y-28862225D01*
X126699500Y-29210000D01*
X126193844Y-29210000D01*
X126265882Y-29184793D01*
X126375150Y-29104150D01*
X126455793Y-28994882D01*
X126500646Y-28866699D01*
X126501250Y-28860250D01*
X126501933Y-28852981D01*
X126526191Y-28796810D01*
X126578833Y-28765625D01*
X126639751Y-28771338D01*
G37*
G04 #@! TD.AperFunction*
G04 #@! TA.AperFunction,NonConductor*
G36*
X126639751Y-26721338D02*
G01*
X126685676Y-26761767D01*
X126699500Y-26812225D01*
X126699500Y-28051774D01*
X126680593Y-28109965D01*
X126631093Y-28145929D01*
X126569907Y-28145929D01*
X126520407Y-28109965D01*
X126501933Y-28061019D01*
X126500646Y-28047305D01*
X126500646Y-28047301D01*
X126455793Y-27919118D01*
X126375150Y-27809850D01*
X126375146Y-27809847D01*
X126375144Y-27809845D01*
X126265883Y-27729207D01*
X126160142Y-27692207D01*
X126111462Y-27655142D01*
X126093865Y-27596542D01*
X126105006Y-27561277D01*
X126101953Y-27560013D01*
X126105680Y-27551011D01*
X126105684Y-27551007D01*
X126121001Y-27474001D01*
X126126173Y-27447999D01*
X126122903Y-27431557D01*
X126121001Y-27412245D01*
X126121001Y-27255733D01*
X126139908Y-27197542D01*
X126187303Y-27162289D01*
X126199881Y-27157887D01*
X126265882Y-27134793D01*
X126375150Y-27054150D01*
X126455793Y-26944882D01*
X126500646Y-26816699D01*
X126501250Y-26810250D01*
X126501933Y-26802981D01*
X126526191Y-26746810D01*
X126578833Y-26715625D01*
X126639751Y-26721338D01*
G37*
G04 #@! TD.AperFunction*
G04 #@! TA.AperFunction,Conductor*
G36*
X120101191Y-25719407D02*
G01*
X120137155Y-25768907D01*
X120142000Y-25799500D01*
X120142000Y-29210000D01*
X120580890Y-29210000D01*
X120613587Y-29215555D01*
X120725301Y-29254646D01*
X120755725Y-29257499D01*
X120755727Y-29257500D01*
X120755734Y-29257500D01*
X121814273Y-29257500D01*
X121814273Y-29257499D01*
X121844699Y-29254646D01*
X121956412Y-29215555D01*
X121989110Y-29210000D01*
X122963336Y-29210000D01*
X122996033Y-29215555D01*
X123036301Y-29229646D01*
X123066725Y-29232499D01*
X123066727Y-29232500D01*
X123066734Y-29232500D01*
X124075273Y-29232500D01*
X124075273Y-29232499D01*
X124105699Y-29229646D01*
X124145966Y-29215555D01*
X124178664Y-29210000D01*
X124995336Y-29210000D01*
X125028033Y-29215555D01*
X125068301Y-29229646D01*
X125098725Y-29232499D01*
X125098727Y-29232500D01*
X125098734Y-29232500D01*
X126107273Y-29232500D01*
X126107273Y-29232499D01*
X126137699Y-29229646D01*
X126193844Y-29210000D01*
X126699500Y-29210000D01*
X126699500Y-30099000D01*
X119225000Y-30099000D01*
X119166809Y-30080093D01*
X119130845Y-30030593D01*
X119126000Y-30000000D01*
X119126000Y-27940001D01*
X119126000Y-25700500D01*
X120043000Y-25700500D01*
X120101191Y-25719407D01*
G37*
G04 #@! TD.AperFunction*
M02*
