M48
; DRILL file {KiCad 7.0.10} date Thursday, January 04, 2024 at 06:16:12 pm
; FORMAT={-:-/ absolute / metric / decimal}
; #@! TF.CreationDate,2024-01-04T18:16:12+01:00
; #@! TF.GenerationSoftware,Kicad,Pcbnew,7.0.10
; #@! TF.FileFunction,Plated,1,2,PTH
FMAT,2
METRIC
; #@! TA.AperFunction,Plated,PTH,ViaDrill
T1C0.300
; #@! TA.AperFunction,Plated,PTH,ViaDrill
T2C0.500
; #@! TA.AperFunction,Plated,PTH,ComponentDrill
T3C1.000
%
G90
G05
T1
X29.845Y-46.99
X33.655Y-69.85
X33.655Y-77.724
X33.655Y-81.28
X33.782Y-74.93
X35.56Y-81.28
X36.83Y-68.072
X36.83Y-74.93
X36.83Y-80.645
X36.83Y-82.423
X37.465Y-82.931
X38.1Y-81.788
X38.227Y-43.18
X38.227Y-45.72
X38.227Y-48.26
X38.227Y-50.8
X39.37Y-80.645
X40.005Y-38.735
X40.005Y-52.705
X40.64Y-83.312
X41.275Y-83.82
X41.91Y-81.788
X43.18Y-80.645
X43.815Y-81.788
X44.45Y-69.85
X44.45Y-98.425
X45.085Y-76.962
X46.736Y-42.545
X46.736Y-43.815
X46.736Y-45.085
X46.736Y-46.355
X46.736Y-47.625
X46.736Y-48.895
X46.736Y-50.165
X46.736Y-51.435
X48.26Y-81.28
X49.53Y-68.58
X49.53Y-74.93
X49.53Y-80.645
X49.53Y-83.82
X50.165Y-84.328
X50.8Y-81.788
X51.435Y-28.575
X51.435Y-40.005
X52.07Y-80.645
X53.34Y-84.328
X53.467Y-41.275
X53.975Y-84.709
X54.61Y-81.788
X55.88Y-68.072
X55.88Y-80.645
X56.515Y-81.788
X57.15Y-69.85
X57.15Y-98.552
X57.785Y-36.83
X57.785Y-76.962
X60.96Y-81.28
X61.849Y-41.275
X62.23Y-67.945
X62.23Y-74.93
X62.23Y-80.645
X62.23Y-87.122
X62.865Y-87.63
X63.5Y-81.788
X64.516Y-42.545
X64.516Y-43.815
X64.516Y-45.085
X64.516Y-46.355
X64.516Y-47.625
X64.516Y-48.895
X64.516Y-50.165
X64.516Y-51.435
X64.77Y-80.645
X66.04Y-87.122
X66.675Y-87.63
X67.31Y-81.788
X68.58Y-68.58
X68.58Y-80.645
X69.215Y-28.575
X69.215Y-40.005
X69.215Y-81.788
X69.85Y-69.85
X69.85Y-98.552
X70.485Y-76.962
X71.501Y-41.275
X73.66Y-81.28
X74.93Y-68.58
X74.93Y-74.93
X74.93Y-80.645
X74.93Y-87.249
X75.565Y-40.005
X75.565Y-87.757
X76.2Y-81.788
X77.47Y-80.645
X78.74Y-87.249
X79.375Y-87.757
X79.502Y-41.275
X80.01Y-81.788
X81.28Y-67.945
X81.28Y-80.645
X81.915Y-81.788
X82.296Y-42.545
X82.296Y-43.815
X82.296Y-45.085
X82.296Y-46.355
X82.296Y-47.625
X82.296Y-48.895
X82.296Y-50.165
X82.296Y-51.435
X82.55Y-69.85
X82.55Y-98.552
X83.185Y-76.962
X86.36Y-81.28
X86.995Y-28.575
X86.995Y-40.005
X87.63Y-67.945
X87.63Y-74.93
X87.63Y-80.645
X87.63Y-87.122
X88.265Y-87.63
X88.9Y-81.788
X90.17Y-80.645
X91.44Y-87.376
X92.075Y-87.757
X92.71Y-81.788
X93.98Y-68.58
X93.98Y-80.645
X94.615Y-81.788
X95.25Y-69.85
X95.25Y-98.425
X95.885Y-76.962
X99.06Y-81.28
X100.33Y-74.93
X100.33Y-80.645
X100.33Y-87.884
X100.965Y-88.392
X101.6Y-81.788
X102.235Y-77.724
X102.362Y-81.153
X104.14Y-88.392
X104.92Y-88.71
X105.791Y-81.28
X106.68Y-67.945
X106.68Y-80.645
X107.315Y-81.788
X107.95Y-69.85
X107.95Y-98.425
X108.585Y-76.962
T2
X122.428Y-27.448
T3
X29.21Y-54.61
X29.21Y-57.15
X29.21Y-59.69
X29.21Y-62.23
X29.21Y-64.77
X29.21Y-67.31
X29.21Y-69.85
X29.21Y-72.39
X45.72Y-57.658
X45.72Y-60.198
X48.26Y-57.658
X48.26Y-60.198
X50.8Y-57.658
X50.8Y-60.198
X53.34Y-57.658
X53.34Y-60.198
X63.5Y-57.658
X63.5Y-60.198
X66.04Y-57.658
X66.04Y-60.198
X68.58Y-57.658
X68.58Y-60.198
X71.12Y-57.658
X71.12Y-60.198
X81.28Y-57.658
X81.28Y-60.198
X83.82Y-57.658
X83.82Y-60.198
X86.36Y-57.658
X86.36Y-60.198
X88.9Y-57.658
X88.9Y-60.198
X122.555Y-33.02
X122.555Y-35.56
X122.555Y-38.1
X122.555Y-40.64
X122.555Y-43.18
X122.555Y-45.72
X122.555Y-48.26
X122.555Y-50.8
X122.555Y-53.34
X122.555Y-55.88
X122.555Y-58.42
X122.555Y-60.96
X122.555Y-63.5
X122.555Y-66.04
X122.555Y-68.58
X122.555Y-71.12
X122.555Y-73.66
X122.555Y-76.2
X122.555Y-78.74
X122.555Y-81.28
X122.555Y-83.82
X122.555Y-86.36
X122.555Y-88.9
X122.555Y-91.44
X122.555Y-93.98
X125.095Y-33.02
X125.095Y-35.56
X125.095Y-38.1
X125.095Y-40.64
X125.095Y-43.18
X125.095Y-45.72
X125.095Y-48.26
X125.095Y-50.8
X125.095Y-53.34
X125.095Y-55.88
X125.095Y-58.42
X125.095Y-60.96
X125.095Y-63.5
X125.095Y-66.04
X125.095Y-68.58
X125.095Y-71.12
X125.095Y-73.66
X125.095Y-76.2
X125.095Y-78.74
X125.095Y-81.28
X125.095Y-83.82
X125.095Y-86.36
X125.095Y-88.9
X125.095Y-91.44
X125.095Y-93.98
M30
