G04 #@! TF.GenerationSoftware,KiCad,Pcbnew,7.0.10*
G04 #@! TF.CreationDate,2024-01-04T18:16:09+01:00*
G04 #@! TF.ProjectId,Programcounter,50726f67-7261-46d6-936f-756e7465722e,rev?*
G04 #@! TF.SameCoordinates,Original*
G04 #@! TF.FileFunction,Paste,Top*
G04 #@! TF.FilePolarity,Positive*
%FSLAX46Y46*%
G04 Gerber Fmt 4.6, Leading zero omitted, Abs format (unit mm)*
G04 Created by KiCad (PCBNEW 7.0.10) date 2024-01-04 18:16:09*
%MOMM*%
%LPD*%
G01*
G04 APERTURE LIST*
G04 Aperture macros list*
%AMRoundRect*
0 Rectangle with rounded corners*
0 $1 Rounding radius*
0 $2 $3 $4 $5 $6 $7 $8 $9 X,Y pos of 4 corners*
0 Add a 4 corners polygon primitive as box body*
4,1,4,$2,$3,$4,$5,$6,$7,$8,$9,$2,$3,0*
0 Add four circle primitives for the rounded corners*
1,1,$1+$1,$2,$3*
1,1,$1+$1,$4,$5*
1,1,$1+$1,$6,$7*
1,1,$1+$1,$8,$9*
0 Add four rect primitives between the rounded corners*
20,1,$1+$1,$2,$3,$4,$5,0*
20,1,$1+$1,$4,$5,$6,$7,0*
20,1,$1+$1,$6,$7,$8,$9,0*
20,1,$1+$1,$8,$9,$2,$3,0*%
G04 Aperture macros list end*
%ADD10RoundRect,0.137500X0.137500X-0.662500X0.137500X0.662500X-0.137500X0.662500X-0.137500X-0.662500X0*%
%ADD11RoundRect,0.250000X0.337500X0.475000X-0.337500X0.475000X-0.337500X-0.475000X0.337500X-0.475000X0*%
%ADD12RoundRect,0.250000X-0.450000X0.325000X-0.450000X-0.325000X0.450000X-0.325000X0.450000X0.325000X0*%
%ADD13RoundRect,0.250000X0.325000X0.450000X-0.325000X0.450000X-0.325000X-0.450000X0.325000X-0.450000X0*%
%ADD14RoundRect,0.250000X-0.475000X0.337500X-0.475000X-0.337500X0.475000X-0.337500X0.475000X0.337500X0*%
%ADD15RoundRect,0.150000X-0.875000X-0.150000X0.875000X-0.150000X0.875000X0.150000X-0.875000X0.150000X0*%
%ADD16RoundRect,0.250000X0.350000X0.450000X-0.350000X0.450000X-0.350000X-0.450000X0.350000X-0.450000X0*%
%ADD17RoundRect,0.250000X-0.450000X0.350000X-0.450000X-0.350000X0.450000X-0.350000X0.450000X0.350000X0*%
%ADD18RoundRect,0.250000X-0.337500X-0.475000X0.337500X-0.475000X0.337500X0.475000X-0.337500X0.475000X0*%
%ADD19RoundRect,0.250000X0.412500X0.650000X-0.412500X0.650000X-0.412500X-0.650000X0.412500X-0.650000X0*%
G04 APERTURE END LIST*
D10*
X60960000Y-73044472D03*
X62230000Y-73044472D03*
X63500000Y-73044472D03*
X64770000Y-73044472D03*
X66040000Y-73044472D03*
X67310000Y-73044472D03*
X68580000Y-73044472D03*
X69850000Y-73044472D03*
X69850000Y-66544472D03*
X68580000Y-66544472D03*
X67310000Y-66544472D03*
X66040000Y-66544472D03*
X64770000Y-66544472D03*
X63500000Y-66544472D03*
X62230000Y-66544472D03*
X60960000Y-66544472D03*
D11*
X47392500Y-38735000D03*
X45317500Y-38735000D03*
D12*
X125603000Y-26407000D03*
X125603000Y-28457000D03*
D13*
X32836999Y-45720000D03*
X30786999Y-45720000D03*
X32775000Y-48260000D03*
X30725000Y-48260000D03*
D14*
X46482000Y-73871000D03*
X46482000Y-75946000D03*
D15*
X42340000Y-41275000D03*
X42340000Y-42545000D03*
X42340000Y-43815000D03*
X42340000Y-45085000D03*
X42340000Y-46355000D03*
X42340000Y-47625000D03*
X42340000Y-48895000D03*
X42340000Y-50165000D03*
X42340000Y-51435000D03*
X42340000Y-52705000D03*
X51640000Y-52705000D03*
X51640000Y-51435000D03*
X51640000Y-50165000D03*
X51640000Y-48895000D03*
X51640000Y-47625000D03*
X51640000Y-46355000D03*
X51640000Y-45085000D03*
X51640000Y-43815000D03*
X51640000Y-42545000D03*
X51640000Y-41275000D03*
D10*
X73660000Y-85800000D03*
X74930000Y-85800000D03*
X76200000Y-85800000D03*
X77470000Y-85800000D03*
X78740000Y-85800000D03*
X80010000Y-85800000D03*
X81280000Y-85800000D03*
X82550000Y-85800000D03*
X82550000Y-79300000D03*
X81280000Y-79300000D03*
X80010000Y-79300000D03*
X78740000Y-79300000D03*
X77470000Y-79300000D03*
X76200000Y-79300000D03*
X74930000Y-79300000D03*
X73660000Y-79300000D03*
X99060000Y-85800000D03*
X100330000Y-85800000D03*
X101600000Y-85800000D03*
X102870000Y-85800000D03*
X104140000Y-85800000D03*
X105410000Y-85800000D03*
X106680000Y-85800000D03*
X107950000Y-85800000D03*
X107950000Y-79300000D03*
X106680000Y-79300000D03*
X105410000Y-79300000D03*
X104140000Y-79300000D03*
X102870000Y-79300000D03*
X101600000Y-79300000D03*
X100330000Y-79300000D03*
X99060000Y-79300000D03*
D16*
X37195000Y-45720000D03*
X35195000Y-45720000D03*
D10*
X48260000Y-85800000D03*
X49530000Y-85800000D03*
X50800000Y-85800000D03*
X52070000Y-85800000D03*
X53340000Y-85800000D03*
X54610000Y-85800000D03*
X55880000Y-85800000D03*
X57150000Y-85800000D03*
X57150000Y-79300000D03*
X55880000Y-79300000D03*
X54610000Y-79300000D03*
X53340000Y-79300000D03*
X52070000Y-79300000D03*
X50800000Y-79300000D03*
X49530000Y-79300000D03*
X48260000Y-79300000D03*
D17*
X123571000Y-26432000D03*
X123571000Y-28432000D03*
D16*
X37195000Y-50800000D03*
X35195000Y-50800000D03*
D18*
X50778500Y-90170000D03*
X52853500Y-90170000D03*
D11*
X82952500Y-38735000D03*
X80877500Y-38735000D03*
D14*
X71882000Y-73871000D03*
X71882000Y-75946000D03*
D19*
X124244500Y-97917000D03*
X121119500Y-97917000D03*
D11*
X65172500Y-38735000D03*
X63097500Y-38735000D03*
D10*
X35560000Y-73044472D03*
X36830000Y-73044472D03*
X38100000Y-73044472D03*
X39370000Y-73044472D03*
X40640000Y-73044472D03*
X41910000Y-73044472D03*
X43180000Y-73044472D03*
X44450000Y-73044472D03*
X44450000Y-66544472D03*
X43180000Y-66544472D03*
X41910000Y-66544472D03*
X40640000Y-66544472D03*
X39370000Y-66544472D03*
X38100000Y-66544472D03*
X36830000Y-66544472D03*
X35560000Y-66544472D03*
X35560000Y-85800000D03*
X36830000Y-85800000D03*
X38100000Y-85800000D03*
X39370000Y-85800000D03*
X40640000Y-85800000D03*
X41910000Y-85800000D03*
X43180000Y-85800000D03*
X44450000Y-85800000D03*
X44450000Y-79300000D03*
X43180000Y-79300000D03*
X41910000Y-79300000D03*
X40640000Y-79300000D03*
X39370000Y-79300000D03*
X38100000Y-79300000D03*
X36830000Y-79300000D03*
X35560000Y-79300000D03*
D16*
X37195000Y-48260000D03*
X35195000Y-48260000D03*
D10*
X73660000Y-73044471D03*
X74930000Y-73044471D03*
X76200000Y-73044471D03*
X77470000Y-73044471D03*
X78740000Y-73044471D03*
X80010000Y-73044471D03*
X81280000Y-73044471D03*
X82550000Y-73044471D03*
X82550000Y-66544471D03*
X81280000Y-66544471D03*
X80010000Y-66544471D03*
X78740000Y-66544471D03*
X77470000Y-66544471D03*
X76200000Y-66544471D03*
X74930000Y-66544471D03*
X73660000Y-66544471D03*
D18*
X63478500Y-90170000D03*
X65553500Y-90170000D03*
D15*
X77900000Y-41275000D03*
X77900000Y-42545000D03*
X77900000Y-43815000D03*
X77900000Y-45085000D03*
X77900000Y-46355000D03*
X77900000Y-47625000D03*
X77900000Y-48895000D03*
X77900000Y-50165000D03*
X77900000Y-51435000D03*
X77900000Y-52705000D03*
X87200000Y-52705000D03*
X87200000Y-51435000D03*
X87200000Y-50165000D03*
X87200000Y-48895000D03*
X87200000Y-47625000D03*
X87200000Y-46355000D03*
X87200000Y-45085000D03*
X87200000Y-43815000D03*
X87200000Y-42545000D03*
X87200000Y-41275000D03*
D13*
X32775000Y-40640000D03*
X30725000Y-40640000D03*
D10*
X60960000Y-85800000D03*
X62230000Y-85800000D03*
X63500000Y-85800000D03*
X64770000Y-85800000D03*
X66040000Y-85800000D03*
X67310000Y-85800000D03*
X68580000Y-85800000D03*
X69850000Y-85800000D03*
X69850000Y-79300000D03*
X68580000Y-79300000D03*
X67310000Y-79300000D03*
X66040000Y-79300000D03*
X64770000Y-79300000D03*
X63500000Y-79300000D03*
X62230000Y-79300000D03*
X60960000Y-79300000D03*
D18*
X88878500Y-90170000D03*
X90953500Y-90170000D03*
D14*
X121285000Y-26394500D03*
X121285000Y-28469500D03*
D16*
X37195000Y-40623816D03*
X35195000Y-40623816D03*
D13*
X32775000Y-50800000D03*
X30725000Y-50800000D03*
D10*
X86360000Y-73100000D03*
X87630000Y-73100000D03*
X88900000Y-73100000D03*
X90170000Y-73100000D03*
X91440000Y-73100000D03*
X92710000Y-73100000D03*
X93980000Y-73100000D03*
X95250000Y-73100000D03*
X95250000Y-66600000D03*
X93980000Y-66600000D03*
X92710000Y-66600000D03*
X91440000Y-66600000D03*
X90170000Y-66600000D03*
X88900000Y-66600000D03*
X87630000Y-66600000D03*
X86360000Y-66600000D03*
D14*
X84582000Y-73871000D03*
X84582000Y-75946000D03*
D16*
X37195000Y-43180000D03*
X35195000Y-43180000D03*
D10*
X86360000Y-85800000D03*
X87630000Y-85800000D03*
X88900000Y-85800000D03*
X90170000Y-85800000D03*
X91440000Y-85800000D03*
X92710000Y-85800000D03*
X93980000Y-85800000D03*
X95250000Y-85800000D03*
X95250000Y-79300000D03*
X93980000Y-79300000D03*
X92710000Y-79300000D03*
X91440000Y-79300000D03*
X90170000Y-79300000D03*
X88900000Y-79300000D03*
X87630000Y-79300000D03*
X86360000Y-79300000D03*
D18*
X76178500Y-90170000D03*
X78253500Y-90170000D03*
D14*
X97282000Y-73871000D03*
X97282000Y-75946000D03*
D15*
X60120000Y-41275000D03*
X60120000Y-42545000D03*
X60120000Y-43815000D03*
X60120000Y-45085000D03*
X60120000Y-46355000D03*
X60120000Y-47625000D03*
X60120000Y-48895000D03*
X60120000Y-50165000D03*
X60120000Y-51435000D03*
X60120000Y-52705000D03*
X69420000Y-52705000D03*
X69420000Y-51435000D03*
X69420000Y-50165000D03*
X69420000Y-48895000D03*
X69420000Y-47625000D03*
X69420000Y-46355000D03*
X69420000Y-45085000D03*
X69420000Y-43815000D03*
X69420000Y-42545000D03*
X69420000Y-41275000D03*
D18*
X38100000Y-90170000D03*
X40175000Y-90170000D03*
D13*
X32836998Y-43180000D03*
X30786998Y-43180000D03*
D14*
X59182000Y-73871000D03*
X59182000Y-75946000D03*
D10*
X48260000Y-73100000D03*
X49530000Y-73100000D03*
X50800000Y-73100000D03*
X52070000Y-73100000D03*
X53340000Y-73100000D03*
X54610000Y-73100000D03*
X55880000Y-73100000D03*
X57150000Y-73100000D03*
X57150000Y-66600000D03*
X55880000Y-66600000D03*
X54610000Y-66600000D03*
X53340000Y-66600000D03*
X52070000Y-66600000D03*
X50800000Y-66600000D03*
X49530000Y-66600000D03*
X48260000Y-66600000D03*
D18*
X101578500Y-90170000D03*
X103653500Y-90170000D03*
D14*
X109982000Y-73871000D03*
X109982000Y-75946000D03*
D10*
X99060000Y-73100000D03*
X100330000Y-73100000D03*
X101600000Y-73100000D03*
X102870000Y-73100000D03*
X104140000Y-73100000D03*
X105410000Y-73100000D03*
X106680000Y-73100000D03*
X107950000Y-73100000D03*
X107950000Y-66600000D03*
X106680000Y-66600000D03*
X105410000Y-66600000D03*
X104140000Y-66600000D03*
X102870000Y-66600000D03*
X101600000Y-66600000D03*
X100330000Y-66600000D03*
X99060000Y-66600000D03*
M02*
