M48
; DRILL file {KiCad 7.0.10} date Wednesday, January 24, 2024 at 09:00:43 am
; FORMAT={-:-/ absolute / metric / decimal}
; #@! TF.CreationDate,2024-01-24T09:00:43+01:00
; #@! TF.GenerationSoftware,Kicad,Pcbnew,7.0.10
; #@! TF.FileFunction,Plated,1,2,PTH
FMAT,2
METRIC
; #@! TA.AperFunction,Plated,PTH,ViaDrill
T1C0.300
; #@! TA.AperFunction,Plated,PTH,ViaDrill
T2C0.500
; #@! TA.AperFunction,Plated,PTH,ViaDrill
T3C1.000
; #@! TA.AperFunction,Plated,PTH,ComponentDrill
T4C1.000
%
G90
G05
T1
X39.116Y-58.801
X40.767Y-41.402
X41.275Y-75.311
X42.545Y-47.752
X42.545Y-57.785
X42.545Y-74.295
X42.545Y-78.867
X42.545Y-84.455
X42.545Y-85.725
X42.545Y-86.995
X42.545Y-88.265
X42.545Y-89.535
X42.545Y-90.805
X42.545Y-92.075
X42.545Y-93.345
X42.545Y-94.615
X43.307Y-52.705
X43.307Y-59.436
X43.307Y-69.215
X43.942Y-53.975
X43.942Y-59.944
X43.942Y-70.485
X44.577Y-66.675
X44.577Y-76.2
X45.212Y-67.945
X45.847Y-53.975
X45.847Y-60.452
X45.847Y-70.485
X46.355Y-43.942
X46.355Y-51.435
X46.482Y-52.705
X46.482Y-60.96
X46.482Y-69.215
X46.99Y-76.2
X48.768Y-78.867
X48.768Y-83.185
X48.768Y-95.758
X48.895Y-48.895
X48.895Y-65.405
X49.911Y-70.485
X50.038Y-48.133
X50.038Y-55.245
X50.419Y-34.544
X51.816Y-83.82
X52.705Y-47.625
X52.705Y-57.785
X52.705Y-65.405
X52.705Y-74.295
X52.705Y-78.74
X52.705Y-84.455
X52.705Y-85.725
X52.705Y-86.995
X52.705Y-88.265
X52.705Y-89.535
X52.705Y-90.805
X52.705Y-92.075
X52.705Y-93.345
X52.705Y-94.615
X53.467Y-52.705
X53.467Y-69.215
X53.975Y-56.515
X53.975Y-73.66
X54.61Y-53.975
X54.61Y-63.5
X55.88Y-83.185
X56.642Y-48.895
X56.642Y-65.405
X56.642Y-78.867
X58.928Y-28.575
X61.341Y-84.455
X61.595Y-28.956
X62.103Y-83.185
X62.103Y-95.758
X64.008Y-29.337
X65.786Y-33.528
X66.421Y-33.02
X66.421Y-34.036
X66.675Y-37.465
X66.675Y-38.735
X66.675Y-40.005
X66.675Y-41.275
X66.675Y-42.545
X66.675Y-43.815
X66.675Y-45.085
X66.675Y-46.355
X66.675Y-62.992
X67.31Y-62.484
X67.945Y-61.976
X68.58Y-61.468
X69.088Y-30.861
X69.215Y-60.96
X69.85Y-60.452
X69.977Y-36.195
X70.485Y-59.944
X71.12Y-59.436
X76.073Y-36.195
X76.2Y-66.04
X76.835Y-25.908
X83.185Y-25.908
X87.63Y-29.083
X87.884Y-81.915
X87.884Y-93.345
X88.265Y-29.591
X88.9Y-30.226
X88.9Y-64.643
X88.9Y-81.915
X88.9Y-93.98
X91.948Y-25.527
X91.948Y-28.321
X91.948Y-39.751
X91.948Y-44.831
X91.948Y-56.261
X91.948Y-58.42
X91.948Y-76.835
X91.948Y-93.345
X92.583Y-29.591
X92.583Y-46.101
X92.583Y-59.436
X92.583Y-66.675
X92.583Y-83.185
X93.218Y-30.861
X93.218Y-47.371
X93.218Y-59.944
X93.218Y-67.945
X93.218Y-84.455
X93.218Y-95.25
X93.853Y-32.131
X93.853Y-48.641
X93.853Y-60.452
X93.853Y-69.215
X93.853Y-85.725
X94.488Y-33.401
X94.488Y-49.911
X94.488Y-60.96
X94.488Y-70.485
X94.488Y-86.995
X95.123Y-34.671
X95.123Y-51.181
X95.123Y-61.468
X95.123Y-71.755
X95.123Y-88.265
X95.758Y-35.941
X95.758Y-52.451
X95.758Y-61.976
X95.758Y-73.025
X95.758Y-89.535
X96.393Y-37.211
X96.393Y-53.721
X96.393Y-62.484
X96.393Y-74.295
X96.393Y-90.805
X97.028Y-38.481
X97.028Y-54.991
X97.028Y-62.992
X97.028Y-75.565
X97.028Y-92.075
X97.257Y-95.165
X98.298Y-25.527
X98.298Y-28.321
X98.298Y-44.831
X98.298Y-58.42
X98.298Y-65.405
X98.298Y-81.915
X101.6Y-39.751
X102.235Y-56.515
X105.283Y-25.654
X105.283Y-28.321
X105.283Y-39.751
X105.283Y-44.831
X105.283Y-56.261
X105.283Y-58.42
X105.283Y-76.835
X105.283Y-93.345
X106.045Y-81.915
X106.299Y-95.377
X109.093Y-29.591
X109.093Y-54.356
X109.728Y-28.956
X109.728Y-53.086
X110.363Y-29.591
X110.363Y-51.816
X110.49Y-83.185
X110.744Y-95.377
X111.633Y-25.654
X111.633Y-28.321
X111.633Y-44.831
X111.633Y-58.42
X111.633Y-65.405
X111.633Y-81.915
X114.554Y-67.31
X114.554Y-68.58
X114.554Y-69.85
X114.554Y-71.12
X114.554Y-72.39
X114.554Y-73.66
X114.554Y-74.93
X114.554Y-76.2
X114.681Y-30.226
X114.681Y-31.496
X114.681Y-32.766
X114.681Y-34.036
X114.681Y-35.306
X114.681Y-36.576
X114.681Y-37.846
X114.681Y-39.116
X115.824Y-50.8
X115.824Y-55.118
T2
X35.687Y-24.901
T3
X59.817Y-50.165
X62.23Y-66.04
X64.77Y-66.04
X73.66Y-50.8
X76.2Y-50.8
T4
X32.893Y-30.226
X32.893Y-32.766
X32.893Y-35.306
X32.893Y-37.846
X32.893Y-40.386
X32.893Y-42.926
X32.893Y-45.466
X32.893Y-48.006
X32.893Y-50.546
X32.893Y-53.086
X32.893Y-55.626
X32.893Y-58.166
X32.893Y-60.706
X32.893Y-63.246
X32.893Y-65.786
X32.893Y-68.326
X32.893Y-70.866
X32.893Y-73.406
X32.893Y-75.946
X32.893Y-78.486
X32.893Y-81.026
X32.893Y-83.566
X32.893Y-86.106
X32.893Y-88.646
X32.893Y-91.186
X35.433Y-30.226
X35.433Y-32.766
X35.433Y-35.306
X35.433Y-37.846
X35.433Y-40.386
X35.433Y-42.926
X35.433Y-45.466
X35.433Y-48.006
X35.433Y-50.546
X35.433Y-53.086
X35.433Y-55.626
X35.433Y-58.166
X35.433Y-60.706
X35.433Y-63.246
X35.433Y-65.786
X35.433Y-68.326
X35.433Y-70.866
X35.433Y-73.406
X35.433Y-75.946
X35.433Y-78.486
X35.433Y-81.026
X35.433Y-83.566
X35.433Y-86.106
X35.433Y-88.646
X35.433Y-91.186
X39.41Y-36.79
X41.148Y-26.416
X41.91Y-31.79
X43.688Y-26.416
X44.41Y-36.79
X46.228Y-26.416
X48.768Y-26.416
X51.308Y-26.416
X53.848Y-26.416
X56.388Y-26.416
X58.928Y-26.416
X61.468Y-26.416
X64.008Y-26.416
X66.548Y-26.416
X69.088Y-26.416
X78.613Y-27.686
X78.613Y-30.226
X78.613Y-32.766
X78.613Y-35.306
X78.613Y-37.846
X78.613Y-40.386
X78.613Y-42.926
X78.613Y-45.466
X78.613Y-48.006
X78.613Y-65.786
X78.613Y-68.326
X78.613Y-70.866
X78.613Y-73.406
X78.613Y-75.946
X78.613Y-78.486
X78.613Y-81.026
X78.613Y-83.566
X78.613Y-86.106
X84.963Y-27.686
X84.963Y-30.226
X84.963Y-32.766
X84.963Y-35.306
X84.963Y-37.846
X84.963Y-40.386
X84.963Y-42.926
X84.963Y-45.466
X84.963Y-48.006
X84.963Y-65.786
X84.963Y-68.326
X84.963Y-70.866
X84.963Y-73.406
X84.963Y-75.946
X84.963Y-78.486
X84.963Y-81.026
X84.963Y-83.566
X84.963Y-86.106
X118.618Y-27.686
X118.618Y-30.226
X118.618Y-32.766
X118.618Y-35.306
X118.618Y-37.846
X118.618Y-40.386
X118.618Y-42.926
X118.618Y-45.466
X118.618Y-48.006
X118.618Y-65.786
X118.618Y-68.326
X118.618Y-70.866
X118.618Y-73.406
X118.618Y-75.946
X118.618Y-78.486
X118.618Y-81.026
X118.618Y-83.566
X118.618Y-86.106
X124.968Y-27.686
X124.968Y-30.226
X124.968Y-32.766
X124.968Y-35.306
X124.968Y-37.846
X124.968Y-40.386
X124.968Y-42.926
X124.968Y-45.466
X124.968Y-48.006
X124.968Y-65.786
X124.968Y-68.326
X124.968Y-70.866
X124.968Y-73.406
X124.968Y-75.946
X124.968Y-78.486
X124.968Y-81.026
X124.968Y-83.566
X124.968Y-86.106
X128.778Y-51.816
X128.778Y-54.356
X128.778Y-56.896
X128.778Y-59.436
X128.778Y-61.976
X128.778Y-64.516
X128.778Y-67.056
X128.778Y-69.596
M30
