G04 #@! TF.GenerationSoftware,KiCad,Pcbnew,7.0.7*
G04 #@! TF.CreationDate,2024-01-02T14:18:46+01:00*
G04 #@! TF.ProjectId,BusConnector,42757343-6f6e-46e6-9563-746f722e6b69,rev?*
G04 #@! TF.SameCoordinates,Original*
G04 #@! TF.FileFunction,Soldermask,Top*
G04 #@! TF.FilePolarity,Negative*
%FSLAX46Y46*%
G04 Gerber Fmt 4.6, Leading zero omitted, Abs format (unit mm)*
G04 Created by KiCad (PCBNEW 7.0.7) date 2024-01-02 14:18:46*
%MOMM*%
%LPD*%
G01*
G04 APERTURE LIST*
%ADD10R,1.700000X1.700000*%
%ADD11O,1.700000X1.700000*%
G04 APERTURE END LIST*
D10*
X247650000Y-80010000D03*
D11*
X247650000Y-82550000D03*
X250190000Y-80010000D03*
X250190000Y-82550000D03*
X252730000Y-80010000D03*
X252730000Y-82550000D03*
X255270000Y-80010000D03*
X255270000Y-82550000D03*
X257810000Y-80010000D03*
X257810000Y-82550000D03*
X260350000Y-80010000D03*
X260350000Y-82550000D03*
X262890000Y-80010000D03*
X262890000Y-82550000D03*
X265430000Y-80010000D03*
X265430000Y-82550000D03*
X267970000Y-80010000D03*
X267970000Y-82550000D03*
X270510000Y-80010000D03*
X270510000Y-82550000D03*
X273050000Y-80010000D03*
X273050000Y-82550000D03*
X275590000Y-80010000D03*
X275590000Y-82550000D03*
D10*
X19050000Y-80010000D03*
D11*
X19050000Y-82550000D03*
X21590000Y-80010000D03*
X21590000Y-82550000D03*
X24130000Y-80010000D03*
X24130000Y-82550000D03*
X26670000Y-80010000D03*
X26670000Y-82550000D03*
X29210000Y-80010000D03*
X29210000Y-82550000D03*
X31750000Y-80010000D03*
X31750000Y-82550000D03*
X34290000Y-80010000D03*
X34290000Y-82550000D03*
X36830000Y-80010000D03*
X36830000Y-82550000D03*
X39370000Y-80010000D03*
X39370000Y-82550000D03*
X41910000Y-80010000D03*
X41910000Y-82550000D03*
X44450000Y-80010000D03*
X44450000Y-82550000D03*
X46990000Y-80010000D03*
X46990000Y-82550000D03*
M02*
