M48
; DRILL file {KiCad 7.0.7} date 2024 January 02, Tuesday 14:18:03
; FORMAT={-:-/ absolute / metric / decimal}
; #@! TF.CreationDate,2024-01-02T14:18:03+01:00
; #@! TF.GenerationSoftware,Kicad,Pcbnew,7.0.7
; #@! TF.FileFunction,Plated,1,2,PTH
FMAT,2
METRIC
; #@! TA.AperFunction,Plated,PTH,ViaDrill
T1C0.300
; #@! TA.AperFunction,Plated,PTH,ComponentDrill
T2C1.000
%
G90
G05
T1
X53.34Y-78.74
X54.61Y-78.74
X55.88Y-78.74
X57.15Y-78.74
X58.42Y-78.74
X59.69Y-78.74
X60.96Y-78.74
X62.23Y-78.74
X63.5Y-78.74
X64.77Y-78.74
X66.04Y-78.74
X67.31Y-78.74
X227.33Y-83.82
X228.6Y-83.82
X229.87Y-83.82
X231.14Y-83.82
X232.41Y-83.82
X233.68Y-83.82
X234.95Y-83.82
X236.22Y-83.82
X237.49Y-83.82
X238.76Y-83.82
X240.03Y-83.82
X241.3Y-83.82
T2
X19.05Y-80.01
X19.05Y-82.55
X21.59Y-80.01
X21.59Y-82.55
X24.13Y-80.01
X24.13Y-82.55
X26.67Y-80.01
X26.67Y-82.55
X29.21Y-80.01
X29.21Y-82.55
X31.75Y-80.01
X31.75Y-82.55
X34.29Y-80.01
X34.29Y-82.55
X36.83Y-80.01
X36.83Y-82.55
X39.37Y-80.01
X39.37Y-82.55
X41.91Y-80.01
X41.91Y-82.55
X44.45Y-80.01
X44.45Y-82.55
X46.99Y-80.01
X46.99Y-82.55
X247.65Y-80.01
X247.65Y-82.55
X250.19Y-80.01
X250.19Y-82.55
X252.73Y-80.01
X252.73Y-82.55
X255.27Y-80.01
X255.27Y-82.55
X257.81Y-80.01
X257.81Y-82.55
X260.35Y-80.01
X260.35Y-82.55
X262.89Y-80.01
X262.89Y-82.55
X265.43Y-80.01
X265.43Y-82.55
X267.97Y-80.01
X267.97Y-82.55
X270.51Y-80.01
X270.51Y-82.55
X273.05Y-80.01
X273.05Y-82.55
X275.59Y-80.01
X275.59Y-82.55
T0
M30
