G04 #@! TF.GenerationSoftware,KiCad,Pcbnew,7.0.10*
G04 #@! TF.CreationDate,2024-02-04T10:19:00+01:00*
G04 #@! TF.ProjectId,plexi,706c6578-692e-46b6-9963-61645f706362,rev?*
G04 #@! TF.SameCoordinates,Original*
G04 #@! TF.FileFunction,Legend,Top*
G04 #@! TF.FilePolarity,Positive*
%FSLAX46Y46*%
G04 Gerber Fmt 4.6, Leading zero omitted, Abs format (unit mm)*
G04 Created by KiCad (PCBNEW 7.0.10) date 2024-02-04 10:19:00*
%MOMM*%
%LPD*%
G01*
G04 APERTURE LIST*
%ADD10C,0.800000*%
%ADD11C,0.100000*%
G04 APERTURE END LIST*
D10*
X469428571Y-59842923D02*
X471571429Y-59842923D01*
X469000000Y-61271495D02*
X470500000Y-56271495D01*
X470500000Y-56271495D02*
X472000000Y-61271495D01*
X473500000Y-61271495D02*
X473500000Y-56271495D01*
X473500000Y-56271495D02*
X474571429Y-56271495D01*
X474571429Y-56271495D02*
X475214286Y-56509590D01*
X475214286Y-56509590D02*
X475642857Y-56985780D01*
X475642857Y-56985780D02*
X475857143Y-57461971D01*
X475857143Y-57461971D02*
X476071429Y-58414352D01*
X476071429Y-58414352D02*
X476071429Y-59128638D01*
X476071429Y-59128638D02*
X475857143Y-60081019D01*
X475857143Y-60081019D02*
X475642857Y-60557209D01*
X475642857Y-60557209D02*
X475214286Y-61033400D01*
X475214286Y-61033400D02*
X474571429Y-61271495D01*
X474571429Y-61271495D02*
X473500000Y-61271495D01*
X480571429Y-61271495D02*
X479071429Y-58890542D01*
X478000000Y-61271495D02*
X478000000Y-56271495D01*
X478000000Y-56271495D02*
X479714286Y-56271495D01*
X479714286Y-56271495D02*
X480142857Y-56509590D01*
X480142857Y-56509590D02*
X480357143Y-56747685D01*
X480357143Y-56747685D02*
X480571429Y-57223876D01*
X480571429Y-57223876D02*
X480571429Y-57938161D01*
X480571429Y-57938161D02*
X480357143Y-58414352D01*
X480357143Y-58414352D02*
X480142857Y-58652447D01*
X480142857Y-58652447D02*
X479714286Y-58890542D01*
X479714286Y-58890542D02*
X478000000Y-58890542D01*
D11*
X481000000Y-70000000D02*
G75*
G03*
X469000000Y-70000000I-6000000J0D01*
G01*
X469000000Y-70000000D02*
G75*
G03*
X481000000Y-70000000I6000000J0D01*
G01*
X478000000Y-70000000D02*
G75*
G03*
X472000000Y-70000000I-3000000J0D01*
G01*
X472000000Y-70000000D02*
G75*
G03*
X478000000Y-70000000I3000000J0D01*
G01*
X474000000Y-70000000D02*
X476000000Y-70000000D01*
X471000000Y-64000000D02*
X479000000Y-64000000D01*
X479000000Y-76000000D01*
X471000000Y-76000000D01*
X471000000Y-64000000D01*
X475000000Y-71000000D02*
X475000000Y-69000000D01*
D10*
X469857143Y-84271495D02*
X469857143Y-79271495D01*
X469857143Y-79271495D02*
X472428572Y-84271495D01*
X472428572Y-84271495D02*
X472428572Y-79271495D01*
X474142858Y-79271495D02*
X477142858Y-84271495D01*
X477142858Y-79271495D02*
X474142858Y-84271495D01*
X478214286Y-79271495D02*
X480785715Y-79271495D01*
X479500000Y-84271495D02*
X479500000Y-79271495D01*
D11*
X466000000Y-70000000D02*
G75*
G03*
X454000000Y-70000000I-6000000J0D01*
G01*
X454000000Y-70000000D02*
G75*
G03*
X466000000Y-70000000I6000000J0D01*
G01*
X463000000Y-70000000D02*
G75*
G03*
X457000000Y-70000000I-3000000J0D01*
G01*
X457000000Y-70000000D02*
G75*
G03*
X463000000Y-70000000I3000000J0D01*
G01*
X459000000Y-70000000D02*
X461000000Y-70000000D01*
X456000000Y-64000000D02*
X464000000Y-64000000D01*
X464000000Y-76000000D01*
X456000000Y-76000000D01*
X456000000Y-64000000D01*
X460000000Y-71000000D02*
X460000000Y-69000000D01*
D10*
X454535714Y-84271495D02*
X454535714Y-79271495D01*
X454535714Y-79271495D02*
X455607143Y-79271495D01*
X455607143Y-79271495D02*
X456250000Y-79509590D01*
X456250000Y-79509590D02*
X456678571Y-79985780D01*
X456678571Y-79985780D02*
X456892857Y-80461971D01*
X456892857Y-80461971D02*
X457107143Y-81414352D01*
X457107143Y-81414352D02*
X457107143Y-82128638D01*
X457107143Y-82128638D02*
X456892857Y-83081019D01*
X456892857Y-83081019D02*
X456678571Y-83557209D01*
X456678571Y-83557209D02*
X456250000Y-84033400D01*
X456250000Y-84033400D02*
X455607143Y-84271495D01*
X455607143Y-84271495D02*
X454535714Y-84271495D01*
X459035714Y-81652447D02*
X460535714Y-81652447D01*
X461178571Y-84271495D02*
X459035714Y-84271495D01*
X459035714Y-84271495D02*
X459035714Y-79271495D01*
X459035714Y-79271495D02*
X461178571Y-79271495D01*
X463107143Y-84271495D02*
X463107143Y-79271495D01*
X463107143Y-79271495D02*
X464821429Y-79271495D01*
X464821429Y-79271495D02*
X465250000Y-79509590D01*
X465250000Y-79509590D02*
X465464286Y-79747685D01*
X465464286Y-79747685D02*
X465678572Y-80223876D01*
X465678572Y-80223876D02*
X465678572Y-80938161D01*
X465678572Y-80938161D02*
X465464286Y-81414352D01*
X465464286Y-81414352D02*
X465250000Y-81652447D01*
X465250000Y-81652447D02*
X464821429Y-81890542D01*
X464821429Y-81890542D02*
X463107143Y-81890542D01*
D11*
X441000000Y-70000000D02*
G75*
G03*
X429000000Y-70000000I-6000000J0D01*
G01*
X429000000Y-70000000D02*
G75*
G03*
X441000000Y-70000000I6000000J0D01*
G01*
X438000000Y-70000000D02*
G75*
G03*
X432000000Y-70000000I-3000000J0D01*
G01*
X432000000Y-70000000D02*
G75*
G03*
X438000000Y-70000000I3000000J0D01*
G01*
X434000000Y-70000000D02*
X436000000Y-70000000D01*
X431000000Y-64000000D02*
X439000000Y-64000000D01*
X439000000Y-76000000D01*
X431000000Y-76000000D01*
X431000000Y-64000000D01*
X435000000Y-71000000D02*
X435000000Y-69000000D01*
D10*
X434714285Y-78734114D02*
X435285714Y-78734114D01*
X435285714Y-78734114D02*
X435857142Y-79019828D01*
X435857142Y-79019828D02*
X436142857Y-79305542D01*
X436142857Y-79305542D02*
X436428571Y-79876971D01*
X436428571Y-79876971D02*
X436714285Y-81019828D01*
X436714285Y-81019828D02*
X436714285Y-82448400D01*
X436714285Y-82448400D02*
X436428571Y-83591257D01*
X436428571Y-83591257D02*
X436142857Y-84162685D01*
X436142857Y-84162685D02*
X435857142Y-84448400D01*
X435857142Y-84448400D02*
X435285714Y-84734114D01*
X435285714Y-84734114D02*
X434714285Y-84734114D01*
X434714285Y-84734114D02*
X434142857Y-84448400D01*
X434142857Y-84448400D02*
X433857142Y-84162685D01*
X433857142Y-84162685D02*
X433571428Y-83591257D01*
X433571428Y-83591257D02*
X433285714Y-82448400D01*
X433285714Y-82448400D02*
X433285714Y-81019828D01*
X433285714Y-81019828D02*
X433571428Y-79876971D01*
X433571428Y-79876971D02*
X433857142Y-79305542D01*
X433857142Y-79305542D02*
X434142857Y-79019828D01*
X434142857Y-79019828D02*
X434714285Y-78734114D01*
D11*
X426000000Y-70000000D02*
G75*
G03*
X414000000Y-70000000I-6000000J0D01*
G01*
X414000000Y-70000000D02*
G75*
G03*
X426000000Y-70000000I6000000J0D01*
G01*
X416000000Y-64000000D02*
X424000000Y-64000000D01*
X424000000Y-76000000D01*
X416000000Y-76000000D01*
X416000000Y-64000000D01*
X420000000Y-71000000D02*
X420000000Y-69000000D01*
X423000000Y-70000000D02*
G75*
G03*
X417000000Y-70000000I-3000000J0D01*
G01*
X417000000Y-70000000D02*
G75*
G03*
X423000000Y-70000000I3000000J0D01*
G01*
X419000000Y-70000000D02*
X421000000Y-70000000D01*
D10*
X421714285Y-84734114D02*
X418285714Y-84734114D01*
X419999999Y-84734114D02*
X419999999Y-78734114D01*
X419999999Y-78734114D02*
X419428571Y-79591257D01*
X419428571Y-79591257D02*
X418857142Y-80162685D01*
X418857142Y-80162685D02*
X418285714Y-80448400D01*
D11*
X411000000Y-70000000D02*
G75*
G03*
X399000000Y-70000000I-6000000J0D01*
G01*
X399000000Y-70000000D02*
G75*
G03*
X411000000Y-70000000I6000000J0D01*
G01*
X408000000Y-70000000D02*
G75*
G03*
X402000000Y-70000000I-3000000J0D01*
G01*
X402000000Y-70000000D02*
G75*
G03*
X408000000Y-70000000I3000000J0D01*
G01*
X404000000Y-70000000D02*
X406000000Y-70000000D01*
X401000000Y-64000000D02*
X409000000Y-64000000D01*
X409000000Y-76000000D01*
X401000000Y-76000000D01*
X401000000Y-64000000D01*
X405000000Y-71000000D02*
X405000000Y-69000000D01*
D10*
X403285714Y-79305542D02*
X403571428Y-79019828D01*
X403571428Y-79019828D02*
X404142857Y-78734114D01*
X404142857Y-78734114D02*
X405571428Y-78734114D01*
X405571428Y-78734114D02*
X406142857Y-79019828D01*
X406142857Y-79019828D02*
X406428571Y-79305542D01*
X406428571Y-79305542D02*
X406714285Y-79876971D01*
X406714285Y-79876971D02*
X406714285Y-80448400D01*
X406714285Y-80448400D02*
X406428571Y-81305542D01*
X406428571Y-81305542D02*
X402999999Y-84734114D01*
X402999999Y-84734114D02*
X406714285Y-84734114D01*
D11*
X396000000Y-70000000D02*
G75*
G03*
X384000000Y-70000000I-6000000J0D01*
G01*
X384000000Y-70000000D02*
G75*
G03*
X396000000Y-70000000I6000000J0D01*
G01*
X393000000Y-70000000D02*
G75*
G03*
X387000000Y-70000000I-3000000J0D01*
G01*
X387000000Y-70000000D02*
G75*
G03*
X393000000Y-70000000I3000000J0D01*
G01*
X389000000Y-70000000D02*
X391000000Y-70000000D01*
X386000000Y-64000000D02*
X394000000Y-64000000D01*
X394000000Y-76000000D01*
X386000000Y-76000000D01*
X386000000Y-64000000D01*
X390000000Y-71000000D02*
X390000000Y-69000000D01*
D10*
X387999999Y-78734114D02*
X391714285Y-78734114D01*
X391714285Y-78734114D02*
X389714285Y-81019828D01*
X389714285Y-81019828D02*
X390571428Y-81019828D01*
X390571428Y-81019828D02*
X391142857Y-81305542D01*
X391142857Y-81305542D02*
X391428571Y-81591257D01*
X391428571Y-81591257D02*
X391714285Y-82162685D01*
X391714285Y-82162685D02*
X391714285Y-83591257D01*
X391714285Y-83591257D02*
X391428571Y-84162685D01*
X391428571Y-84162685D02*
X391142857Y-84448400D01*
X391142857Y-84448400D02*
X390571428Y-84734114D01*
X390571428Y-84734114D02*
X388857142Y-84734114D01*
X388857142Y-84734114D02*
X388285714Y-84448400D01*
X388285714Y-84448400D02*
X387999999Y-84162685D01*
D11*
X376000000Y-70000000D02*
G75*
G03*
X364000000Y-70000000I-6000000J0D01*
G01*
X364000000Y-70000000D02*
G75*
G03*
X376000000Y-70000000I6000000J0D01*
G01*
X373000000Y-70000000D02*
G75*
G03*
X367000000Y-70000000I-3000000J0D01*
G01*
X367000000Y-70000000D02*
G75*
G03*
X373000000Y-70000000I3000000J0D01*
G01*
X369000000Y-70000000D02*
X371000000Y-70000000D01*
X366000000Y-64000000D02*
X374000000Y-64000000D01*
X374000000Y-76000000D01*
X366000000Y-76000000D01*
X366000000Y-64000000D01*
X370000000Y-71000000D02*
X370000000Y-69000000D01*
D10*
X371142857Y-80734114D02*
X371142857Y-84734114D01*
X369714285Y-78448400D02*
X368285714Y-82734114D01*
X368285714Y-82734114D02*
X371999999Y-82734114D01*
D11*
X361000000Y-70000000D02*
G75*
G03*
X349000000Y-70000000I-6000000J0D01*
G01*
X349000000Y-70000000D02*
G75*
G03*
X361000000Y-70000000I6000000J0D01*
G01*
X358000000Y-70000000D02*
G75*
G03*
X352000000Y-70000000I-3000000J0D01*
G01*
X352000000Y-70000000D02*
G75*
G03*
X358000000Y-70000000I3000000J0D01*
G01*
X354000000Y-70000000D02*
X356000000Y-70000000D01*
X351000000Y-64000000D02*
X359000000Y-64000000D01*
X359000000Y-76000000D01*
X351000000Y-76000000D01*
X351000000Y-64000000D01*
X355000000Y-71000000D02*
X355000000Y-69000000D01*
D10*
X356428571Y-78734114D02*
X353571428Y-78734114D01*
X353571428Y-78734114D02*
X353285714Y-81591257D01*
X353285714Y-81591257D02*
X353571428Y-81305542D01*
X353571428Y-81305542D02*
X354142857Y-81019828D01*
X354142857Y-81019828D02*
X355571428Y-81019828D01*
X355571428Y-81019828D02*
X356142857Y-81305542D01*
X356142857Y-81305542D02*
X356428571Y-81591257D01*
X356428571Y-81591257D02*
X356714285Y-82162685D01*
X356714285Y-82162685D02*
X356714285Y-83591257D01*
X356714285Y-83591257D02*
X356428571Y-84162685D01*
X356428571Y-84162685D02*
X356142857Y-84448400D01*
X356142857Y-84448400D02*
X355571428Y-84734114D01*
X355571428Y-84734114D02*
X354142857Y-84734114D01*
X354142857Y-84734114D02*
X353571428Y-84448400D01*
X353571428Y-84448400D02*
X353285714Y-84162685D01*
D11*
X346000000Y-70000000D02*
G75*
G03*
X334000000Y-70000000I-6000000J0D01*
G01*
X334000000Y-70000000D02*
G75*
G03*
X346000000Y-70000000I6000000J0D01*
G01*
X343000000Y-70000000D02*
G75*
G03*
X337000000Y-70000000I-3000000J0D01*
G01*
X337000000Y-70000000D02*
G75*
G03*
X343000000Y-70000000I3000000J0D01*
G01*
X339000000Y-70000000D02*
X341000000Y-70000000D01*
X336000000Y-64000000D02*
X344000000Y-64000000D01*
X344000000Y-76000000D01*
X336000000Y-76000000D01*
X336000000Y-64000000D01*
X340000000Y-71000000D02*
X340000000Y-69000000D01*
D10*
X341142857Y-78734114D02*
X339999999Y-78734114D01*
X339999999Y-78734114D02*
X339428571Y-79019828D01*
X339428571Y-79019828D02*
X339142857Y-79305542D01*
X339142857Y-79305542D02*
X338571428Y-80162685D01*
X338571428Y-80162685D02*
X338285714Y-81305542D01*
X338285714Y-81305542D02*
X338285714Y-83591257D01*
X338285714Y-83591257D02*
X338571428Y-84162685D01*
X338571428Y-84162685D02*
X338857142Y-84448400D01*
X338857142Y-84448400D02*
X339428571Y-84734114D01*
X339428571Y-84734114D02*
X340571428Y-84734114D01*
X340571428Y-84734114D02*
X341142857Y-84448400D01*
X341142857Y-84448400D02*
X341428571Y-84162685D01*
X341428571Y-84162685D02*
X341714285Y-83591257D01*
X341714285Y-83591257D02*
X341714285Y-82162685D01*
X341714285Y-82162685D02*
X341428571Y-81591257D01*
X341428571Y-81591257D02*
X341142857Y-81305542D01*
X341142857Y-81305542D02*
X340571428Y-81019828D01*
X340571428Y-81019828D02*
X339428571Y-81019828D01*
X339428571Y-81019828D02*
X338857142Y-81305542D01*
X338857142Y-81305542D02*
X338571428Y-81591257D01*
X338571428Y-81591257D02*
X338285714Y-82162685D01*
D11*
X331000000Y-70000000D02*
G75*
G03*
X319000000Y-70000000I-6000000J0D01*
G01*
X319000000Y-70000000D02*
G75*
G03*
X331000000Y-70000000I6000000J0D01*
G01*
X328000000Y-70000000D02*
G75*
G03*
X322000000Y-70000000I-3000000J0D01*
G01*
X322000000Y-70000000D02*
G75*
G03*
X328000000Y-70000000I3000000J0D01*
G01*
X324000000Y-70000000D02*
X326000000Y-70000000D01*
X321000000Y-64000000D02*
X329000000Y-64000000D01*
X329000000Y-76000000D01*
X321000000Y-76000000D01*
X321000000Y-64000000D01*
X325000000Y-71000000D02*
X325000000Y-69000000D01*
D10*
X322999999Y-78734114D02*
X326999999Y-78734114D01*
X326999999Y-78734114D02*
X324428571Y-84734114D01*
D11*
X311000000Y-70000000D02*
G75*
G03*
X299000000Y-70000000I-6000000J0D01*
G01*
X299000000Y-70000000D02*
G75*
G03*
X311000000Y-70000000I6000000J0D01*
G01*
X304000000Y-70000000D02*
X306000000Y-70000000D01*
X308000000Y-70000000D02*
G75*
G03*
X302000000Y-70000000I-3000000J0D01*
G01*
X302000000Y-70000000D02*
G75*
G03*
X308000000Y-70000000I3000000J0D01*
G01*
X301000000Y-64000000D02*
X309000000Y-64000000D01*
X309000000Y-76000000D01*
X301000000Y-76000000D01*
X301000000Y-64000000D01*
X305000000Y-71000000D02*
X305000000Y-69000000D01*
D10*
X304428571Y-81305542D02*
X303857142Y-81019828D01*
X303857142Y-81019828D02*
X303571428Y-80734114D01*
X303571428Y-80734114D02*
X303285714Y-80162685D01*
X303285714Y-80162685D02*
X303285714Y-79876971D01*
X303285714Y-79876971D02*
X303571428Y-79305542D01*
X303571428Y-79305542D02*
X303857142Y-79019828D01*
X303857142Y-79019828D02*
X304428571Y-78734114D01*
X304428571Y-78734114D02*
X305571428Y-78734114D01*
X305571428Y-78734114D02*
X306142857Y-79019828D01*
X306142857Y-79019828D02*
X306428571Y-79305542D01*
X306428571Y-79305542D02*
X306714285Y-79876971D01*
X306714285Y-79876971D02*
X306714285Y-80162685D01*
X306714285Y-80162685D02*
X306428571Y-80734114D01*
X306428571Y-80734114D02*
X306142857Y-81019828D01*
X306142857Y-81019828D02*
X305571428Y-81305542D01*
X305571428Y-81305542D02*
X304428571Y-81305542D01*
X304428571Y-81305542D02*
X303857142Y-81591257D01*
X303857142Y-81591257D02*
X303571428Y-81876971D01*
X303571428Y-81876971D02*
X303285714Y-82448400D01*
X303285714Y-82448400D02*
X303285714Y-83591257D01*
X303285714Y-83591257D02*
X303571428Y-84162685D01*
X303571428Y-84162685D02*
X303857142Y-84448400D01*
X303857142Y-84448400D02*
X304428571Y-84734114D01*
X304428571Y-84734114D02*
X305571428Y-84734114D01*
X305571428Y-84734114D02*
X306142857Y-84448400D01*
X306142857Y-84448400D02*
X306428571Y-84162685D01*
X306428571Y-84162685D02*
X306714285Y-83591257D01*
X306714285Y-83591257D02*
X306714285Y-82448400D01*
X306714285Y-82448400D02*
X306428571Y-81876971D01*
X306428571Y-81876971D02*
X306142857Y-81591257D01*
X306142857Y-81591257D02*
X305571428Y-81305542D01*
D11*
X296000000Y-70000000D02*
G75*
G03*
X284000000Y-70000000I-6000000J0D01*
G01*
X284000000Y-70000000D02*
G75*
G03*
X296000000Y-70000000I6000000J0D01*
G01*
X293000000Y-70000000D02*
G75*
G03*
X287000000Y-70000000I-3000000J0D01*
G01*
X287000000Y-70000000D02*
G75*
G03*
X293000000Y-70000000I3000000J0D01*
G01*
X289000000Y-70000000D02*
X291000000Y-70000000D01*
X286000000Y-64000000D02*
X294000000Y-64000000D01*
X294000000Y-76000000D01*
X286000000Y-76000000D01*
X286000000Y-64000000D01*
X290000000Y-71000000D02*
X290000000Y-69000000D01*
D10*
X288857142Y-84734114D02*
X289999999Y-84734114D01*
X289999999Y-84734114D02*
X290571428Y-84448400D01*
X290571428Y-84448400D02*
X290857142Y-84162685D01*
X290857142Y-84162685D02*
X291428571Y-83305542D01*
X291428571Y-83305542D02*
X291714285Y-82162685D01*
X291714285Y-82162685D02*
X291714285Y-79876971D01*
X291714285Y-79876971D02*
X291428571Y-79305542D01*
X291428571Y-79305542D02*
X291142857Y-79019828D01*
X291142857Y-79019828D02*
X290571428Y-78734114D01*
X290571428Y-78734114D02*
X289428571Y-78734114D01*
X289428571Y-78734114D02*
X288857142Y-79019828D01*
X288857142Y-79019828D02*
X288571428Y-79305542D01*
X288571428Y-79305542D02*
X288285714Y-79876971D01*
X288285714Y-79876971D02*
X288285714Y-81305542D01*
X288285714Y-81305542D02*
X288571428Y-81876971D01*
X288571428Y-81876971D02*
X288857142Y-82162685D01*
X288857142Y-82162685D02*
X289428571Y-82448400D01*
X289428571Y-82448400D02*
X290571428Y-82448400D01*
X290571428Y-82448400D02*
X291142857Y-82162685D01*
X291142857Y-82162685D02*
X291428571Y-81876971D01*
X291428571Y-81876971D02*
X291714285Y-81305542D01*
D11*
X281000000Y-70000000D02*
G75*
G03*
X269000000Y-70000000I-6000000J0D01*
G01*
X269000000Y-70000000D02*
G75*
G03*
X281000000Y-70000000I6000000J0D01*
G01*
X278000000Y-70000000D02*
G75*
G03*
X272000000Y-70000000I-3000000J0D01*
G01*
X272000000Y-70000000D02*
G75*
G03*
X278000000Y-70000000I3000000J0D01*
G01*
X275000000Y-71000000D02*
X275000000Y-69000000D01*
X274000000Y-70000000D02*
X276000000Y-70000000D01*
X271000000Y-64000000D02*
X279000000Y-64000000D01*
X279000000Y-76000000D01*
X271000000Y-76000000D01*
X271000000Y-64000000D01*
D10*
X273857142Y-84734114D02*
X270428571Y-84734114D01*
X272142856Y-84734114D02*
X272142856Y-78734114D01*
X272142856Y-78734114D02*
X271571428Y-79591257D01*
X271571428Y-79591257D02*
X270999999Y-80162685D01*
X270999999Y-80162685D02*
X270428571Y-80448400D01*
X277571428Y-78734114D02*
X278142857Y-78734114D01*
X278142857Y-78734114D02*
X278714285Y-79019828D01*
X278714285Y-79019828D02*
X279000000Y-79305542D01*
X279000000Y-79305542D02*
X279285714Y-79876971D01*
X279285714Y-79876971D02*
X279571428Y-81019828D01*
X279571428Y-81019828D02*
X279571428Y-82448400D01*
X279571428Y-82448400D02*
X279285714Y-83591257D01*
X279285714Y-83591257D02*
X279000000Y-84162685D01*
X279000000Y-84162685D02*
X278714285Y-84448400D01*
X278714285Y-84448400D02*
X278142857Y-84734114D01*
X278142857Y-84734114D02*
X277571428Y-84734114D01*
X277571428Y-84734114D02*
X277000000Y-84448400D01*
X277000000Y-84448400D02*
X276714285Y-84162685D01*
X276714285Y-84162685D02*
X276428571Y-83591257D01*
X276428571Y-83591257D02*
X276142857Y-82448400D01*
X276142857Y-82448400D02*
X276142857Y-81019828D01*
X276142857Y-81019828D02*
X276428571Y-79876971D01*
X276428571Y-79876971D02*
X276714285Y-79305542D01*
X276714285Y-79305542D02*
X277000000Y-79019828D01*
X277000000Y-79019828D02*
X277571428Y-78734114D01*
D11*
X266000000Y-70000000D02*
G75*
G03*
X254000000Y-70000000I-6000000J0D01*
G01*
X254000000Y-70000000D02*
G75*
G03*
X266000000Y-70000000I6000000J0D01*
G01*
X263000000Y-70000000D02*
G75*
G03*
X257000000Y-70000000I-3000000J0D01*
G01*
X257000000Y-70000000D02*
G75*
G03*
X263000000Y-70000000I3000000J0D01*
G01*
X256000000Y-64000000D02*
X264000000Y-64000000D01*
X264000000Y-76000000D01*
X256000000Y-76000000D01*
X256000000Y-64000000D01*
X259000000Y-70000000D02*
X261000000Y-70000000D01*
X260000000Y-71000000D02*
X260000000Y-69000000D01*
D10*
X258857142Y-84734114D02*
X255428571Y-84734114D01*
X257142856Y-84734114D02*
X257142856Y-78734114D01*
X257142856Y-78734114D02*
X256571428Y-79591257D01*
X256571428Y-79591257D02*
X255999999Y-80162685D01*
X255999999Y-80162685D02*
X255428571Y-80448400D01*
X264571428Y-84734114D02*
X261142857Y-84734114D01*
X262857142Y-84734114D02*
X262857142Y-78734114D01*
X262857142Y-78734114D02*
X262285714Y-79591257D01*
X262285714Y-79591257D02*
X261714285Y-80162685D01*
X261714285Y-80162685D02*
X261142857Y-80448400D01*
D11*
X246000000Y-70000000D02*
G75*
G03*
X234000000Y-70000000I-6000000J0D01*
G01*
X234000000Y-70000000D02*
G75*
G03*
X246000000Y-70000000I6000000J0D01*
G01*
X239000000Y-70000000D02*
X241000000Y-70000000D01*
X243000000Y-70000000D02*
G75*
G03*
X237000000Y-70000000I-3000000J0D01*
G01*
X237000000Y-70000000D02*
G75*
G03*
X243000000Y-70000000I3000000J0D01*
G01*
X236000000Y-64000000D02*
X244000000Y-64000000D01*
X244000000Y-76000000D01*
X236000000Y-76000000D01*
X236000000Y-64000000D01*
X240000000Y-71000000D02*
X240000000Y-69000000D01*
D10*
X238857142Y-84734114D02*
X235428571Y-84734114D01*
X237142856Y-84734114D02*
X237142856Y-78734114D01*
X237142856Y-78734114D02*
X236571428Y-79591257D01*
X236571428Y-79591257D02*
X235999999Y-80162685D01*
X235999999Y-80162685D02*
X235428571Y-80448400D01*
X241142857Y-79305542D02*
X241428571Y-79019828D01*
X241428571Y-79019828D02*
X242000000Y-78734114D01*
X242000000Y-78734114D02*
X243428571Y-78734114D01*
X243428571Y-78734114D02*
X244000000Y-79019828D01*
X244000000Y-79019828D02*
X244285714Y-79305542D01*
X244285714Y-79305542D02*
X244571428Y-79876971D01*
X244571428Y-79876971D02*
X244571428Y-80448400D01*
X244571428Y-80448400D02*
X244285714Y-81305542D01*
X244285714Y-81305542D02*
X240857142Y-84734114D01*
X240857142Y-84734114D02*
X244571428Y-84734114D01*
D11*
X231000000Y-70000000D02*
G75*
G03*
X219000000Y-70000000I-6000000J0D01*
G01*
X219000000Y-70000000D02*
G75*
G03*
X231000000Y-70000000I6000000J0D01*
G01*
X228000000Y-70000000D02*
G75*
G03*
X222000000Y-70000000I-3000000J0D01*
G01*
X222000000Y-70000000D02*
G75*
G03*
X228000000Y-70000000I3000000J0D01*
G01*
X224000000Y-70000000D02*
X226000000Y-70000000D01*
X221000000Y-64000000D02*
X229000000Y-64000000D01*
X229000000Y-76000000D01*
X221000000Y-76000000D01*
X221000000Y-64000000D01*
X225000000Y-71000000D02*
X225000000Y-69000000D01*
D10*
X223857142Y-84734114D02*
X220428571Y-84734114D01*
X222142856Y-84734114D02*
X222142856Y-78734114D01*
X222142856Y-78734114D02*
X221571428Y-79591257D01*
X221571428Y-79591257D02*
X220999999Y-80162685D01*
X220999999Y-80162685D02*
X220428571Y-80448400D01*
X225857142Y-78734114D02*
X229571428Y-78734114D01*
X229571428Y-78734114D02*
X227571428Y-81019828D01*
X227571428Y-81019828D02*
X228428571Y-81019828D01*
X228428571Y-81019828D02*
X229000000Y-81305542D01*
X229000000Y-81305542D02*
X229285714Y-81591257D01*
X229285714Y-81591257D02*
X229571428Y-82162685D01*
X229571428Y-82162685D02*
X229571428Y-83591257D01*
X229571428Y-83591257D02*
X229285714Y-84162685D01*
X229285714Y-84162685D02*
X229000000Y-84448400D01*
X229000000Y-84448400D02*
X228428571Y-84734114D01*
X228428571Y-84734114D02*
X226714285Y-84734114D01*
X226714285Y-84734114D02*
X226142857Y-84448400D01*
X226142857Y-84448400D02*
X225857142Y-84162685D01*
D11*
X216000000Y-70000000D02*
G75*
G03*
X204000000Y-70000000I-6000000J0D01*
G01*
X204000000Y-70000000D02*
G75*
G03*
X216000000Y-70000000I6000000J0D01*
G01*
X213000000Y-70000000D02*
G75*
G03*
X207000000Y-70000000I-3000000J0D01*
G01*
X207000000Y-70000000D02*
G75*
G03*
X213000000Y-70000000I3000000J0D01*
G01*
X210000000Y-71000000D02*
X210000000Y-69000000D01*
X209000000Y-70000000D02*
X211000000Y-70000000D01*
X206000000Y-64000000D02*
X214000000Y-64000000D01*
X214000000Y-76000000D01*
X206000000Y-76000000D01*
X206000000Y-64000000D01*
D10*
X208857142Y-84734114D02*
X205428571Y-84734114D01*
X207142856Y-84734114D02*
X207142856Y-78734114D01*
X207142856Y-78734114D02*
X206571428Y-79591257D01*
X206571428Y-79591257D02*
X205999999Y-80162685D01*
X205999999Y-80162685D02*
X205428571Y-80448400D01*
X214000000Y-80734114D02*
X214000000Y-84734114D01*
X212571428Y-78448400D02*
X211142857Y-82734114D01*
X211142857Y-82734114D02*
X214857142Y-82734114D01*
D11*
X201000000Y-70000000D02*
G75*
G03*
X189000000Y-70000000I-6000000J0D01*
G01*
X189000000Y-70000000D02*
G75*
G03*
X201000000Y-70000000I6000000J0D01*
G01*
X198000000Y-70000000D02*
G75*
G03*
X192000000Y-70000000I-3000000J0D01*
G01*
X192000000Y-70000000D02*
G75*
G03*
X198000000Y-70000000I3000000J0D01*
G01*
X194000000Y-70000000D02*
X196000000Y-70000000D01*
X191000000Y-64000000D02*
X199000000Y-64000000D01*
X199000000Y-76000000D01*
X191000000Y-76000000D01*
X191000000Y-64000000D01*
X195000000Y-71000000D02*
X195000000Y-69000000D01*
D10*
X193857142Y-84734114D02*
X190428571Y-84734114D01*
X192142856Y-84734114D02*
X192142856Y-78734114D01*
X192142856Y-78734114D02*
X191571428Y-79591257D01*
X191571428Y-79591257D02*
X190999999Y-80162685D01*
X190999999Y-80162685D02*
X190428571Y-80448400D01*
X199285714Y-78734114D02*
X196428571Y-78734114D01*
X196428571Y-78734114D02*
X196142857Y-81591257D01*
X196142857Y-81591257D02*
X196428571Y-81305542D01*
X196428571Y-81305542D02*
X197000000Y-81019828D01*
X197000000Y-81019828D02*
X198428571Y-81019828D01*
X198428571Y-81019828D02*
X199000000Y-81305542D01*
X199000000Y-81305542D02*
X199285714Y-81591257D01*
X199285714Y-81591257D02*
X199571428Y-82162685D01*
X199571428Y-82162685D02*
X199571428Y-83591257D01*
X199571428Y-83591257D02*
X199285714Y-84162685D01*
X199285714Y-84162685D02*
X199000000Y-84448400D01*
X199000000Y-84448400D02*
X198428571Y-84734114D01*
X198428571Y-84734114D02*
X197000000Y-84734114D01*
X197000000Y-84734114D02*
X196428571Y-84448400D01*
X196428571Y-84448400D02*
X196142857Y-84162685D01*
D11*
X181000000Y-70000000D02*
G75*
G03*
X169000000Y-70000000I-6000000J0D01*
G01*
X169000000Y-70000000D02*
G75*
G03*
X181000000Y-70000000I6000000J0D01*
G01*
X178000000Y-70000000D02*
G75*
G03*
X172000000Y-70000000I-3000000J0D01*
G01*
X172000000Y-70000000D02*
G75*
G03*
X178000000Y-70000000I3000000J0D01*
G01*
X174000000Y-70000000D02*
X176000000Y-70000000D01*
X171000000Y-64000000D02*
X179000000Y-64000000D01*
X179000000Y-76000000D01*
X171000000Y-76000000D01*
X171000000Y-64000000D01*
X175000000Y-71000000D02*
X175000000Y-69000000D01*
D10*
X173857142Y-84734114D02*
X170428571Y-84734114D01*
X172142856Y-84734114D02*
X172142856Y-78734114D01*
X172142856Y-78734114D02*
X171571428Y-79591257D01*
X171571428Y-79591257D02*
X170999999Y-80162685D01*
X170999999Y-80162685D02*
X170428571Y-80448400D01*
X179000000Y-78734114D02*
X177857142Y-78734114D01*
X177857142Y-78734114D02*
X177285714Y-79019828D01*
X177285714Y-79019828D02*
X177000000Y-79305542D01*
X177000000Y-79305542D02*
X176428571Y-80162685D01*
X176428571Y-80162685D02*
X176142857Y-81305542D01*
X176142857Y-81305542D02*
X176142857Y-83591257D01*
X176142857Y-83591257D02*
X176428571Y-84162685D01*
X176428571Y-84162685D02*
X176714285Y-84448400D01*
X176714285Y-84448400D02*
X177285714Y-84734114D01*
X177285714Y-84734114D02*
X178428571Y-84734114D01*
X178428571Y-84734114D02*
X179000000Y-84448400D01*
X179000000Y-84448400D02*
X179285714Y-84162685D01*
X179285714Y-84162685D02*
X179571428Y-83591257D01*
X179571428Y-83591257D02*
X179571428Y-82162685D01*
X179571428Y-82162685D02*
X179285714Y-81591257D01*
X179285714Y-81591257D02*
X179000000Y-81305542D01*
X179000000Y-81305542D02*
X178428571Y-81019828D01*
X178428571Y-81019828D02*
X177285714Y-81019828D01*
X177285714Y-81019828D02*
X176714285Y-81305542D01*
X176714285Y-81305542D02*
X176428571Y-81591257D01*
X176428571Y-81591257D02*
X176142857Y-82162685D01*
D11*
X166000000Y-70000000D02*
G75*
G03*
X154000000Y-70000000I-6000000J0D01*
G01*
X154000000Y-70000000D02*
G75*
G03*
X166000000Y-70000000I6000000J0D01*
G01*
X163000000Y-70000000D02*
G75*
G03*
X157000000Y-70000000I-3000000J0D01*
G01*
X157000000Y-70000000D02*
G75*
G03*
X163000000Y-70000000I3000000J0D01*
G01*
X159000000Y-70000000D02*
X161000000Y-70000000D01*
X156000000Y-64000000D02*
X164000000Y-64000000D01*
X164000000Y-76000000D01*
X156000000Y-76000000D01*
X156000000Y-64000000D01*
X160000000Y-71000000D02*
X160000000Y-69000000D01*
D10*
X158857142Y-84734114D02*
X155428571Y-84734114D01*
X157142856Y-84734114D02*
X157142856Y-78734114D01*
X157142856Y-78734114D02*
X156571428Y-79591257D01*
X156571428Y-79591257D02*
X155999999Y-80162685D01*
X155999999Y-80162685D02*
X155428571Y-80448400D01*
X160857142Y-78734114D02*
X164857142Y-78734114D01*
X164857142Y-78734114D02*
X162285714Y-84734114D01*
D11*
X151000000Y-70000000D02*
G75*
G03*
X139000000Y-70000000I-6000000J0D01*
G01*
X139000000Y-70000000D02*
G75*
G03*
X151000000Y-70000000I6000000J0D01*
G01*
X145000000Y-71000000D02*
X145000000Y-69000000D01*
X148000000Y-70000000D02*
G75*
G03*
X142000000Y-70000000I-3000000J0D01*
G01*
X142000000Y-70000000D02*
G75*
G03*
X148000000Y-70000000I3000000J0D01*
G01*
X144000000Y-70000000D02*
X146000000Y-70000000D01*
X141000000Y-64000000D02*
X149000000Y-64000000D01*
X149000000Y-76000000D01*
X141000000Y-76000000D01*
X141000000Y-64000000D01*
D10*
X143857142Y-84734114D02*
X140428571Y-84734114D01*
X142142856Y-84734114D02*
X142142856Y-78734114D01*
X142142856Y-78734114D02*
X141571428Y-79591257D01*
X141571428Y-79591257D02*
X140999999Y-80162685D01*
X140999999Y-80162685D02*
X140428571Y-80448400D01*
X147285714Y-81305542D02*
X146714285Y-81019828D01*
X146714285Y-81019828D02*
X146428571Y-80734114D01*
X146428571Y-80734114D02*
X146142857Y-80162685D01*
X146142857Y-80162685D02*
X146142857Y-79876971D01*
X146142857Y-79876971D02*
X146428571Y-79305542D01*
X146428571Y-79305542D02*
X146714285Y-79019828D01*
X146714285Y-79019828D02*
X147285714Y-78734114D01*
X147285714Y-78734114D02*
X148428571Y-78734114D01*
X148428571Y-78734114D02*
X149000000Y-79019828D01*
X149000000Y-79019828D02*
X149285714Y-79305542D01*
X149285714Y-79305542D02*
X149571428Y-79876971D01*
X149571428Y-79876971D02*
X149571428Y-80162685D01*
X149571428Y-80162685D02*
X149285714Y-80734114D01*
X149285714Y-80734114D02*
X149000000Y-81019828D01*
X149000000Y-81019828D02*
X148428571Y-81305542D01*
X148428571Y-81305542D02*
X147285714Y-81305542D01*
X147285714Y-81305542D02*
X146714285Y-81591257D01*
X146714285Y-81591257D02*
X146428571Y-81876971D01*
X146428571Y-81876971D02*
X146142857Y-82448400D01*
X146142857Y-82448400D02*
X146142857Y-83591257D01*
X146142857Y-83591257D02*
X146428571Y-84162685D01*
X146428571Y-84162685D02*
X146714285Y-84448400D01*
X146714285Y-84448400D02*
X147285714Y-84734114D01*
X147285714Y-84734114D02*
X148428571Y-84734114D01*
X148428571Y-84734114D02*
X149000000Y-84448400D01*
X149000000Y-84448400D02*
X149285714Y-84162685D01*
X149285714Y-84162685D02*
X149571428Y-83591257D01*
X149571428Y-83591257D02*
X149571428Y-82448400D01*
X149571428Y-82448400D02*
X149285714Y-81876971D01*
X149285714Y-81876971D02*
X149000000Y-81591257D01*
X149000000Y-81591257D02*
X148428571Y-81305542D01*
D11*
X136000000Y-70000000D02*
G75*
G03*
X124000000Y-70000000I-6000000J0D01*
G01*
X124000000Y-70000000D02*
G75*
G03*
X136000000Y-70000000I6000000J0D01*
G01*
X133000000Y-70000000D02*
G75*
G03*
X127000000Y-70000000I-3000000J0D01*
G01*
X127000000Y-70000000D02*
G75*
G03*
X133000000Y-70000000I3000000J0D01*
G01*
X129000000Y-70000000D02*
X131000000Y-70000000D01*
X126000000Y-64000000D02*
X134000000Y-64000000D01*
X134000000Y-76000000D01*
X126000000Y-76000000D01*
X126000000Y-64000000D01*
X130000000Y-71000000D02*
X130000000Y-69000000D01*
D10*
X128857142Y-84734114D02*
X125428571Y-84734114D01*
X127142856Y-84734114D02*
X127142856Y-78734114D01*
X127142856Y-78734114D02*
X126571428Y-79591257D01*
X126571428Y-79591257D02*
X125999999Y-80162685D01*
X125999999Y-80162685D02*
X125428571Y-80448400D01*
X131714285Y-84734114D02*
X132857142Y-84734114D01*
X132857142Y-84734114D02*
X133428571Y-84448400D01*
X133428571Y-84448400D02*
X133714285Y-84162685D01*
X133714285Y-84162685D02*
X134285714Y-83305542D01*
X134285714Y-83305542D02*
X134571428Y-82162685D01*
X134571428Y-82162685D02*
X134571428Y-79876971D01*
X134571428Y-79876971D02*
X134285714Y-79305542D01*
X134285714Y-79305542D02*
X134000000Y-79019828D01*
X134000000Y-79019828D02*
X133428571Y-78734114D01*
X133428571Y-78734114D02*
X132285714Y-78734114D01*
X132285714Y-78734114D02*
X131714285Y-79019828D01*
X131714285Y-79019828D02*
X131428571Y-79305542D01*
X131428571Y-79305542D02*
X131142857Y-79876971D01*
X131142857Y-79876971D02*
X131142857Y-81305542D01*
X131142857Y-81305542D02*
X131428571Y-81876971D01*
X131428571Y-81876971D02*
X131714285Y-82162685D01*
X131714285Y-82162685D02*
X132285714Y-82448400D01*
X132285714Y-82448400D02*
X133428571Y-82448400D01*
X133428571Y-82448400D02*
X134000000Y-82162685D01*
X134000000Y-82162685D02*
X134285714Y-81876971D01*
X134285714Y-81876971D02*
X134571428Y-81305542D01*
D11*
X116000000Y-70000000D02*
G75*
G03*
X104000000Y-70000000I-6000000J0D01*
G01*
X104000000Y-70000000D02*
G75*
G03*
X116000000Y-70000000I6000000J0D01*
G01*
X113000000Y-70000000D02*
G75*
G03*
X107000000Y-70000000I-3000000J0D01*
G01*
X107000000Y-70000000D02*
G75*
G03*
X113000000Y-70000000I3000000J0D01*
G01*
X110000000Y-71000000D02*
X110000000Y-69000000D01*
X109000000Y-70000000D02*
X111000000Y-70000000D01*
X106000000Y-64000000D02*
X114000000Y-64000000D01*
X114000000Y-76000000D01*
X106000000Y-76000000D01*
X106000000Y-64000000D01*
D10*
X105428571Y-79305542D02*
X105714285Y-79019828D01*
X105714285Y-79019828D02*
X106285714Y-78734114D01*
X106285714Y-78734114D02*
X107714285Y-78734114D01*
X107714285Y-78734114D02*
X108285714Y-79019828D01*
X108285714Y-79019828D02*
X108571428Y-79305542D01*
X108571428Y-79305542D02*
X108857142Y-79876971D01*
X108857142Y-79876971D02*
X108857142Y-80448400D01*
X108857142Y-80448400D02*
X108571428Y-81305542D01*
X108571428Y-81305542D02*
X105142856Y-84734114D01*
X105142856Y-84734114D02*
X108857142Y-84734114D01*
X112571428Y-78734114D02*
X113142857Y-78734114D01*
X113142857Y-78734114D02*
X113714285Y-79019828D01*
X113714285Y-79019828D02*
X114000000Y-79305542D01*
X114000000Y-79305542D02*
X114285714Y-79876971D01*
X114285714Y-79876971D02*
X114571428Y-81019828D01*
X114571428Y-81019828D02*
X114571428Y-82448400D01*
X114571428Y-82448400D02*
X114285714Y-83591257D01*
X114285714Y-83591257D02*
X114000000Y-84162685D01*
X114000000Y-84162685D02*
X113714285Y-84448400D01*
X113714285Y-84448400D02*
X113142857Y-84734114D01*
X113142857Y-84734114D02*
X112571428Y-84734114D01*
X112571428Y-84734114D02*
X112000000Y-84448400D01*
X112000000Y-84448400D02*
X111714285Y-84162685D01*
X111714285Y-84162685D02*
X111428571Y-83591257D01*
X111428571Y-83591257D02*
X111142857Y-82448400D01*
X111142857Y-82448400D02*
X111142857Y-81019828D01*
X111142857Y-81019828D02*
X111428571Y-79876971D01*
X111428571Y-79876971D02*
X111714285Y-79305542D01*
X111714285Y-79305542D02*
X112000000Y-79019828D01*
X112000000Y-79019828D02*
X112571428Y-78734114D01*
D11*
X101000000Y-70000000D02*
G75*
G03*
X89000000Y-70000000I-6000000J0D01*
G01*
X89000000Y-70000000D02*
G75*
G03*
X101000000Y-70000000I6000000J0D01*
G01*
X98000000Y-70000000D02*
G75*
G03*
X92000000Y-70000000I-3000000J0D01*
G01*
X92000000Y-70000000D02*
G75*
G03*
X98000000Y-70000000I3000000J0D01*
G01*
X94000000Y-70000000D02*
X96000000Y-70000000D01*
X91000000Y-64000000D02*
X99000000Y-64000000D01*
X99000000Y-76000000D01*
X91000000Y-76000000D01*
X91000000Y-64000000D01*
X95000000Y-71000000D02*
X95000000Y-69000000D01*
D10*
X90428571Y-79305542D02*
X90714285Y-79019828D01*
X90714285Y-79019828D02*
X91285714Y-78734114D01*
X91285714Y-78734114D02*
X92714285Y-78734114D01*
X92714285Y-78734114D02*
X93285714Y-79019828D01*
X93285714Y-79019828D02*
X93571428Y-79305542D01*
X93571428Y-79305542D02*
X93857142Y-79876971D01*
X93857142Y-79876971D02*
X93857142Y-80448400D01*
X93857142Y-80448400D02*
X93571428Y-81305542D01*
X93571428Y-81305542D02*
X90142856Y-84734114D01*
X90142856Y-84734114D02*
X93857142Y-84734114D01*
X99571428Y-84734114D02*
X96142857Y-84734114D01*
X97857142Y-84734114D02*
X97857142Y-78734114D01*
X97857142Y-78734114D02*
X97285714Y-79591257D01*
X97285714Y-79591257D02*
X96714285Y-80162685D01*
X96714285Y-80162685D02*
X96142857Y-80448400D01*
D11*
X83000000Y-70000000D02*
G75*
G03*
X77000000Y-70000000I-3000000J0D01*
G01*
X77000000Y-70000000D02*
G75*
G03*
X83000000Y-70000000I3000000J0D01*
G01*
X79000000Y-70000000D02*
X81000000Y-70000000D01*
X76000000Y-64000000D02*
X84000000Y-64000000D01*
X84000000Y-76000000D01*
X76000000Y-76000000D01*
X76000000Y-64000000D01*
X80000000Y-71000000D02*
X80000000Y-69000000D01*
D10*
X75428571Y-79305542D02*
X75714285Y-79019828D01*
X75714285Y-79019828D02*
X76285714Y-78734114D01*
X76285714Y-78734114D02*
X77714285Y-78734114D01*
X77714285Y-78734114D02*
X78285714Y-79019828D01*
X78285714Y-79019828D02*
X78571428Y-79305542D01*
X78571428Y-79305542D02*
X78857142Y-79876971D01*
X78857142Y-79876971D02*
X78857142Y-80448400D01*
X78857142Y-80448400D02*
X78571428Y-81305542D01*
X78571428Y-81305542D02*
X75142856Y-84734114D01*
X75142856Y-84734114D02*
X78857142Y-84734114D01*
X81142857Y-79305542D02*
X81428571Y-79019828D01*
X81428571Y-79019828D02*
X82000000Y-78734114D01*
X82000000Y-78734114D02*
X83428571Y-78734114D01*
X83428571Y-78734114D02*
X84000000Y-79019828D01*
X84000000Y-79019828D02*
X84285714Y-79305542D01*
X84285714Y-79305542D02*
X84571428Y-79876971D01*
X84571428Y-79876971D02*
X84571428Y-80448400D01*
X84571428Y-80448400D02*
X84285714Y-81305542D01*
X84285714Y-81305542D02*
X80857142Y-84734114D01*
X80857142Y-84734114D02*
X84571428Y-84734114D01*
X60428571Y-79305542D02*
X60714285Y-79019828D01*
X60714285Y-79019828D02*
X61285714Y-78734114D01*
X61285714Y-78734114D02*
X62714285Y-78734114D01*
X62714285Y-78734114D02*
X63285714Y-79019828D01*
X63285714Y-79019828D02*
X63571428Y-79305542D01*
X63571428Y-79305542D02*
X63857142Y-79876971D01*
X63857142Y-79876971D02*
X63857142Y-80448400D01*
X63857142Y-80448400D02*
X63571428Y-81305542D01*
X63571428Y-81305542D02*
X60142856Y-84734114D01*
X60142856Y-84734114D02*
X63857142Y-84734114D01*
X65857142Y-78734114D02*
X69571428Y-78734114D01*
X69571428Y-78734114D02*
X67571428Y-81019828D01*
X67571428Y-81019828D02*
X68428571Y-81019828D01*
X68428571Y-81019828D02*
X69000000Y-81305542D01*
X69000000Y-81305542D02*
X69285714Y-81591257D01*
X69285714Y-81591257D02*
X69571428Y-82162685D01*
X69571428Y-82162685D02*
X69571428Y-83591257D01*
X69571428Y-83591257D02*
X69285714Y-84162685D01*
X69285714Y-84162685D02*
X69000000Y-84448400D01*
X69000000Y-84448400D02*
X68428571Y-84734114D01*
X68428571Y-84734114D02*
X66714285Y-84734114D01*
X66714285Y-84734114D02*
X66142857Y-84448400D01*
X66142857Y-84448400D02*
X65857142Y-84162685D01*
D11*
X65000000Y-71000000D02*
X65000000Y-69000000D01*
X64000000Y-70000000D02*
X66000000Y-70000000D01*
X61000000Y-64000000D02*
X69000000Y-64000000D01*
X69000000Y-76000000D01*
X61000000Y-76000000D01*
X61000000Y-64000000D01*
X71000000Y-70000000D02*
G75*
G03*
X59000000Y-70000000I-6000000J0D01*
G01*
X59000000Y-70000000D02*
G75*
G03*
X71000000Y-70000000I6000000J0D01*
G01*
X68000000Y-70000000D02*
G75*
G03*
X62000000Y-70000000I-3000000J0D01*
G01*
X62000000Y-70000000D02*
G75*
G03*
X68000000Y-70000000I3000000J0D01*
G01*
X50000000Y-100000000D02*
X50000000Y-50000000D01*
X490000000Y-100000000D02*
X50000000Y-100000000D01*
X490000000Y-50000000D02*
X490000000Y-100000000D01*
X50000000Y-50000000D02*
X490000000Y-50000000D01*
%LPC*%
%LPD*%
M02*
